<svg xmlns="http://www.w3.org/2000/svg" width="24" height="24" viewBox="0 0 24 24" fill="none">
  <path d="M2 21C2.00012 19.741 2.29739 18.4997 2.86766 17.3772C3.43792 16.2548 4.26506 15.2827 5.28182 14.5402C6.29858 13.7976 7.47624 13.3056 8.71904 13.104C9.96183 12.9024 11.2347 12.9969 12.434 13.38M15 8C15 10.7614 12.7614 13 10 13C7.23858 13 5 10.7614 5 8C5 5.23858 7.23858 3 10 3C12.7614 3 15 5.23858 15 8Z" stroke="#CCCCCC" stroke-width="2" stroke-linecap="round" stroke-linejoin="round"/>
  <path d="M18 19.6V18M18 16.4H18.004M22 18C22 20.2091 20.2091 22 18 22C15.7909 22 14 20.2091 14 18C14 15.7909 15.7909 14 18 14C20.2091 14 22 15.7909 22 18Z" stroke="#CCCCCC" stroke-width="1.5" stroke-linecap="round" stroke-linejoin="round"/>
</svg>