<svg xmlns="http://www.w3.org/2000/svg" width="20" height="20" viewBox="0 0 20 20" fill="none">
  <path d="M16.666 17.4997V10.833C16.666 10.391 16.4904 9.96706 16.1779 9.6545C15.8653 9.34194 15.4414 9.16634 14.9993 9.16634H4.99935C4.55732 9.16634 4.1334 9.34194 3.82084 9.6545C3.50828 9.96706 3.33268 10.391 3.33268 10.833V17.4997M3.33268 13.333C3.33268 13.333 3.74935 12.4997 4.99935 12.4997C6.24935 12.4997 7.08268 14.1663 8.33268 14.1663C9.58268 14.1663 10.416 12.4997 11.666 12.4997C12.916 12.4997 13.7493 14.1663 14.9993 14.1663C16.2493 14.1663 16.666 13.333 16.666 13.333M1.66602 17.4997H18.3327M5.83268 6.66634V9.16634M9.99935 6.66634V9.16634M14.166 6.66634V9.16634M5.83268 3.33301H5.84102M9.99935 3.33301H10.0077M14.166 3.33301H14.1743" stroke="#B1C0D8" stroke-width="2" stroke-linecap="round" stroke-linejoin="round"/>
</svg>