<svg width="24" height="25" viewBox="0 0 24 25" fill="none" xmlns="http://www.w3.org/2000/svg">
<g id="icon / eye">
<g id="Vector">
<path d="M2.06153 12.848C1.97819 12.6235 1.97819 12.3765 2.06153 12.152C2.87323 10.1838 4.25104 8.50103 6.0203 7.31689C7.78955 6.13275 9.87057 5.50061 11.9995 5.50061C14.1285 5.50061 16.2095 6.13275 17.9788 7.31689C19.748 8.50103 21.1258 10.1838 21.9375 12.152C22.0209 12.3765 22.0209 12.6235 21.9375 12.848C21.1258 14.8161 19.748 16.499 17.9788 17.6831C16.2095 18.8672 14.1285 19.4994 11.9995 19.4994C9.87057 19.4994 7.78955 18.8672 6.0203 17.6831C4.25104 16.499 2.87323 14.8161 2.06153 12.848Z" stroke="#1BA39B" stroke-width="2" stroke-linecap="round" stroke-linejoin="round"/>
<path d="M11.9995 15.5C13.6564 15.5 14.9995 14.1568 14.9995 12.5C14.9995 10.8431 13.6564 9.49999 11.9995 9.49999C10.3427 9.49999 8.99953 10.8431 8.99953 12.5C8.99953 14.1568 10.3427 15.5 11.9995 15.5Z" stroke="#1BA39B" stroke-width="2" stroke-linecap="round" stroke-linejoin="round"/>
</g>
</g>
</svg>
