<svg xmlns="http://www.w3.org/2000/svg" width="24" height="24" viewBox="0 0 24 24" fill="none">
  <path d="M16 4H18C18.5304 4 19.0391 4.21071 19.4142 4.58579C19.7893 4.96086 20 5.46957 20 6V20C20 20.5304 19.7893 21.0391 19.4142 21.4142C19.0391 21.7893 18.5304 22 18 22H6C5.46957 22 4.96086 21.7893 4.58579 21.4142C4.21071 21.0391 4 20.5304 4 20V6C4 5.46957 4.21071 4.96086 4.58579 4.58579C4.96086 4.21071 5.46957 4 6 4H8M9 2H15C15.5523 2 16 2.44772 16 3V5C16 5.55228 15.5523 6 15 6H9C8.44772 6 8 5.55228 8 5V3C8 2.44772 8.44772 2 9 2Z" stroke="#CCCCCC" stroke-width="2" stroke-linecap="round" stroke-linejoin="round"/>
  <path d="M12.005 11.6708V13.4472M12.005 15.2236H12.01M16.8661 15.6677L12.8693 9.45027C12.7822 9.31358 12.6558 9.19988 12.5031 9.12078C12.3504 9.04168 12.1768 9 12 9C11.8233 9 11.6497 9.04168 11.497 9.12078C11.3442 9.19988 11.2179 9.31358 11.1307 9.45027L7.13389 15.6677C7.0458 15.8033 6.99961 15.9572 7 16.1138C7.00039 16.2704 7.04735 16.4241 7.13611 16.5593C7.22488 16.6946 7.35229 16.8066 7.50544 16.884C7.65859 16.9614 7.83204 17.0014 8.00819 17H16.0018C16.1771 16.9998 16.3493 16.9586 16.5011 16.8806C16.6528 16.8026 16.7788 16.6905 16.8664 16.5555C16.954 16.4205 17 16.2674 17 16.1115C17 15.9557 16.9538 15.8026 16.8661 15.6677Z" stroke="#CCCCCC" stroke-width="1.5" stroke-linecap="round" stroke-linejoin="round"/>
</svg>