<svg xmlns="http://www.w3.org/2000/svg" width="18" height="18" viewBox="0 0 18 18" fill="none">
  <g clip-path="url(#clip0_6150_15376)">
    <path d="M7.50003 9.74997C7.82212 10.1806 8.23305 10.5369 8.70494 10.7947C9.17683 11.0525 9.69866 11.2058 10.235 11.2442C10.7714 11.2826 11.3097 11.2052 11.8135 11.0173C12.3174 10.8294 12.7749 10.5353 13.155 10.155L15.405 7.90497C16.0881 7.19772 16.4661 6.25046 16.4576 5.26722C16.449 4.28398 16.0546 3.34343 15.3593 2.64815C14.6641 1.95287 13.7235 1.55849 12.7403 1.54995C11.757 1.5414 10.8098 1.91938 10.1025 2.60247L8.81253 3.88497M10.5 8.24997C10.1779 7.81938 9.76701 7.46309 9.29511 7.20527C8.82322 6.94745 8.3014 6.79414 7.76504 6.75572C7.22868 6.71731 6.69034 6.7947 6.18652 6.98264C5.6827 7.17058 5.22519 7.46467 4.84503 7.84497L2.59503 10.095C1.91194 10.8022 1.53396 11.7495 1.5425 12.7327C1.55104 13.716 1.94543 14.6565 2.64071 15.3518C3.33599 16.0471 4.27654 16.4415 5.25977 16.45C6.24301 16.4585 7.19027 16.0806 7.89753 15.3975L9.18003 14.115" stroke="#666666" stroke-width="2" stroke-linecap="round" stroke-linejoin="round"/>
  </g>
  <defs>
    <clipPath id="clip0_6150_15376">
      <rect width="18" height="18" fill="white"/>
    </clipPath>
  </defs>
</svg>