<svg xmlns="http://www.w3.org/2000/svg" width="20" height="20" viewBox="0 0 20 20" fill="none">
  <g clip-path="url(#clip0_3195_32903)">
    <path d="M13.334 6.66691H8.33398C7.89195 6.66691 7.46803 6.84251 7.15547 7.15507C6.84291 7.46763 6.66732 7.89155 6.66732 8.33358C6.66732 8.7756 6.84291 9.19953 7.15547 9.51209C7.46803 9.82465 7.89195 10.0002 8.33398 10.0002H11.6673C12.1093 10.0002 12.5333 10.1758 12.8458 10.4884C13.1584 10.801 13.334 11.2249 13.334 11.6669C13.334 12.1089 13.1584 12.5329 12.8458 12.8454C12.5333 13.158 12.1093 13.3336 11.6673 13.3336H6.66732M10.0006 15.0002V5.00024M3.20898 7.18358C3.08735 6.63568 3.10603 6.06595 3.26328 5.52719C3.42053 4.98844 3.71127 4.49811 4.10854 4.10168C4.50581 3.70524 4.99674 3.41553 5.53582 3.25941C6.0749 3.10328 6.64468 3.0858 7.19232 3.20858C7.49374 2.73716 7.90898 2.34921 8.39977 2.08048C8.89056 1.81175 9.4411 1.6709 10.0006 1.6709C10.5602 1.6709 11.1107 1.81175 11.6015 2.08048C12.0923 2.34921 12.5076 2.73716 12.809 3.20858C13.3575 3.08526 13.9282 3.10267 14.4681 3.25917C15.0081 3.41568 15.4997 3.70619 15.8972 4.10371C16.2947 4.50122 16.5852 4.9928 16.7417 5.53275C16.8982 6.07269 16.9156 6.64344 16.7923 7.19191C17.2637 7.49334 17.6517 7.90858 17.9204 8.39937C18.1891 8.89016 18.33 9.4407 18.33 10.0002C18.33 10.5598 18.1891 11.1103 17.9204 11.6011C17.6517 12.0919 17.2637 12.5072 16.7923 12.8086C16.9151 13.3562 16.8976 13.926 16.7415 14.4651C16.5854 15.0042 16.2957 15.4951 15.8992 15.8924C15.5028 16.2896 15.0125 16.5804 14.4737 16.7376C13.9349 16.8949 13.3652 16.9135 12.8173 16.7919C12.5163 17.2651 12.1007 17.6547 11.6091 17.9247C11.1175 18.1946 10.5657 18.3361 10.0048 18.3361C9.44396 18.3361 8.89217 18.1946 8.40054 17.9247C7.90892 17.6547 7.49335 17.2651 7.19232 16.7919C6.64468 16.9147 6.0749 16.8972 5.53582 16.7411C4.99674 16.585 4.50581 16.2952 4.10854 15.8988C3.71127 15.5024 3.42053 15.012 3.26328 14.4733C3.10603 13.9345 3.08735 13.3648 3.20898 12.8169C2.73395 12.5163 2.34266 12.1004 2.07152 11.6079C1.80038 11.1155 1.6582 10.5624 1.6582 10.0002C1.6582 9.43807 1.80038 8.88503 2.07152 8.39257C2.34266 7.9001 2.73395 7.48421 3.20898 7.18358Z" stroke="#B1C0D8" stroke-width="2" stroke-linecap="round" stroke-linejoin="round"/>
  </g>
  <defs>
    <clipPath id="clip0_3195_32903">
      <rect width="20" height="20" fill="white"/>
    </clipPath>
  </defs>
</svg>