<svg width="60" height="43" viewBox="0 0 60 43" fill="none" xmlns="http://www.w3.org/2000/svg">
<g id="Subtract">
<path fill-rule="evenodd" clip-rule="evenodd" d="M18.8136 9.20455C19.6167 9.20455 20.3715 8.99648 21.0276 8.63102C22.1694 7.99502 23.3402 7.24386 24.6472 7.24386H47.8423C50.2304 7.39455 55.0501 9.05198 55.2238 14.4764C55.3894 19.6508 50.9588 21.9459 48.4143 22.5388C48.1782 22.5939 47.9375 22.613 47.695 22.613H43.1642C41.7911 22.613 40.678 23.7261 40.678 25.0992C40.678 26.4723 41.7911 27.5854 43.1642 27.5854H48.0594C51.5331 27.5854 60 25.3252 60 14.4764C60 6.34186 53.6429 2.99889 49.866 2.17723C49.389 2.07348 48.8999 2.04545 48.4118 2.04545H24.7619C23.4234 2.04545 22.2301 1.25895 21.0674 0.595951C20.4021 0.21659 19.633 0 18.8136 0C16.2861 0 14.2373 2.0605 14.2373 4.60227C14.2373 7.14405 16.2861 9.20455 18.8136 9.20455ZM18.8136 7.15909C20.2177 7.15909 21.3559 6.01439 21.3559 4.60227C21.3559 3.19015 20.2177 2.04545 18.8136 2.04545C17.4095 2.04545 16.2712 3.19015 16.2712 4.60227C16.2712 6.01439 17.4095 7.15909 18.8136 7.15909Z" fill="#1BA39B"/>
<path fill-rule="evenodd" clip-rule="evenodd" d="M13.6588 14.6188C11.0717 12.359 7.02725 14.1963 7.02725 17.6313V32.2742C7.02725 33.6391 7.84289 34.852 8.52916 36.0318C8.92543 36.7131 9.15254 37.506 9.15254 38.3523C9.15254 40.894 7.10369 42.9545 4.57627 42.9545C2.04886 42.9545 0 40.894 0 38.3523C0 37.5231 0.218053 36.7451 0.599641 36.0731C1.25694 34.9157 2.0339 33.7269 2.0339 32.3958V5.67629C2.0339 3.67103 3.65948 2.04545 5.66473 2.04545C6.54317 2.04545 7.39182 2.36392 8.05339 2.94183L25.0415 17.7816C25.5966 18.2665 25.9151 18.9675 25.9151 19.7045C25.9151 21.8972 23.3334 23.07 21.682 21.6275L13.6588 14.6188ZM4.57627 40.9091C5.98038 40.9091 7.11864 39.7644 7.11864 38.3523C7.11864 36.9402 5.98038 35.7955 4.57627 35.7955C3.17216 35.7955 2.0339 36.9402 2.0339 38.3523C2.0339 39.7644 3.17216 40.9091 4.57627 40.9091Z" fill="#1BA39B"/>
<path fill-rule="evenodd" clip-rule="evenodd" d="M15.7999 23.0821C14.1935 21.6902 11.6949 22.8312 11.6949 24.9567C11.6949 25.6704 12.0023 26.3495 12.5385 26.8205L29.9263 42.092C30.5593 42.6479 31.373 42.9545 32.2155 42.9545C34.1315 42.9545 35.6846 41.4014 35.6846 39.4855V21.4146C35.6846 19.2055 37.4755 17.4146 39.6846 17.4146H42.3947C43.7227 17.4146 44.9085 18.1893 46.0643 18.8433C46.7266 19.218 47.491 19.4318 48.3051 19.4318C50.8325 19.4318 52.8814 17.3713 52.8814 14.8295C52.8814 12.2878 50.8325 10.2273 48.3051 10.2273C47.4965 10.2273 46.7368 10.4382 46.0776 10.8083C44.9287 11.4533 43.7504 12.2162 42.4329 12.2162H34.9084C32.6992 12.2162 30.9084 14.0071 30.9084 16.2162V27.4151C30.9084 30.8427 26.8793 32.6827 24.2889 30.4381L15.7999 23.0821ZM50.8475 14.8295C50.8475 16.2417 49.7092 17.3864 48.3051 17.3864C46.901 17.3864 45.7627 16.2417 45.7627 14.8295C45.7627 13.4174 46.901 12.2727 48.3051 12.2727C49.7092 12.2727 50.8475 13.4174 50.8475 14.8295Z" fill="#1BA39B"/>
</g>
</svg>
