<svg xmlns="http://www.w3.org/2000/svg" width="24" height="24" viewBox="0 0 24 24" fill="none">
  <path d="M7 3H17M15.033 14.56C15.1312 14.5032 15.2127 14.4215 15.2694 14.3232C15.3261 14.2249 15.3559 14.1135 15.3559 14C15.3559 13.8865 15.3261 13.7751 15.2694 13.6768C15.2127 13.5785 15.1312 13.4968 15.033 13.44L10.968 11.088C10.8698 11.0312 10.7584 11.0013 10.645 11.0013C10.5316 11.0013 10.4202 11.0312 10.322 11.088C10.2238 11.1448 10.1424 11.2265 10.0858 11.3248C10.0293 11.4231 9.9997 11.5346 10 11.648V16.352C9.9998 16.4653 10.0294 16.5766 10.0859 16.6748C10.1424 16.7729 10.2237 16.8545 10.3218 16.9113C10.4198 16.968 10.531 16.998 10.6443 16.9981C10.7576 16.9983 10.8689 16.9685 10.967 16.912L15.033 14.56ZM4 21H20C21.1046 21 22 20.1046 22 19V9C22 7.89543 21.1046 7 20 7H4C2.89543 7 2 7.89543 2 9V19C2 20.1046 2.89543 21 4 21Z" stroke="#2D3047" stroke-width="2" stroke-linecap="round" stroke-linejoin="round"/>
</svg>