<svg xmlns="http://www.w3.org/2000/svg" width="20" height="20" viewBox="0 0 20 20" fill="none">
  <g clip-path="url(#clip0_6766_22688)">
    <path d="M10 8.00037V10.2004L11.6 11.2004M14.13 5.66037L13.32 1.61037C13.2286 1.14997 12.9781 0.736408 12.6125 0.44207C12.2468 0.147732 11.7893 -0.00862619 11.32 0.000367431H8.64C8.1707 -0.00862619 7.71318 0.147732 7.34755 0.44207C6.98191 0.736408 6.73144 1.14997 6.64 1.61037L5.86 5.66037M5.88 14.3604L6.68 18.3604C6.77144 18.8208 7.02191 19.2343 7.38755 19.5287C7.75318 19.823 8.2107 19.9794 8.68 19.9704H11.4C11.8693 19.9794 12.3268 19.823 12.6925 19.5287C13.0581 19.2343 13.3086 18.8208 13.4 18.3604L14.21 14.3104M16 10.0004C16 13.3141 13.3137 16.0004 10 16.0004C6.68629 16.0004 4 13.3141 4 10.0004C4 6.68666 6.68629 4.00037 10 4.00037C13.3137 4.00037 16 6.68666 16 10.0004Z" stroke="#1BA39B" stroke-width="2" stroke-linecap="round" stroke-linejoin="round"/>
  </g>
  <defs>
    <clipPath id="clip0_6766_22688">
      <rect width="20" height="20" fill="white"/>
    </clipPath>
  </defs>
</svg>