<svg id="f_icon_sp_4" width="120" height="97" viewBox="0 0 120 97" fill="none"
    xmlns="http://www.w3.org/2000/svg">
    <rect x="20" y="76" width="81" height="21" rx="10.5" fill="#25B18E" />
    <path
        d="M35.017 83.376V86.183H38.559V87.632H35.017V90.495H39.511V92H33.127V81.878H39.511V83.376H35.017ZM47.3187 92H45.6527C45.5267 92 45.4241 91.9673 45.3447 91.902C45.2701 91.8367 45.2071 91.762 45.1557 91.678L43.6367 89.179C43.6134 89.2583 43.5854 89.333 43.5527 89.403C43.5247 89.473 43.4921 89.5383 43.4547 89.599L42.1107 91.678C42.0594 91.7573 41.9964 91.832 41.9217 91.902C41.8471 91.9673 41.7537 92 41.6417 92H40.0947L42.5587 88.297L40.1927 84.818H41.8587C41.9847 84.818 42.0781 84.8367 42.1387 84.874C42.1994 84.9067 42.2531 84.9627 42.2997 85.042L43.8047 87.436C43.8561 87.2773 43.9284 87.121 44.0217 86.967L45.2327 85.077C45.3354 84.9043 45.4684 84.818 45.6317 84.818H47.2207L44.8617 88.22L47.3187 92ZM53.0381 86.337C52.9867 86.4023 52.9354 86.4537 52.8841 86.491C52.8374 86.5283 52.7674 86.547 52.6741 86.547C52.5854 86.547 52.4991 86.5213 52.4151 86.47C52.3311 86.414 52.2307 86.3533 52.1141 86.288C51.9974 86.218 51.8574 86.1573 51.6941 86.106C51.5354 86.05 51.3371 86.022 51.0991 86.022C50.7957 86.022 50.5297 86.078 50.3011 86.19C50.0724 86.2973 49.8811 86.4537 49.7271 86.659C49.5777 86.8643 49.4657 87.114 49.3911 87.408C49.3164 87.6973 49.2791 88.0263 49.2791 88.395C49.2791 88.7777 49.3187 89.1183 49.3981 89.417C49.4821 89.7157 49.6011 89.9677 49.7551 90.173C49.9091 90.3737 50.0957 90.5277 50.3151 90.635C50.5344 90.7377 50.7817 90.789 51.0571 90.789C51.3324 90.789 51.5541 90.7563 51.7221 90.691C51.8947 90.621 52.0394 90.5463 52.1561 90.467C52.2727 90.383 52.3731 90.3083 52.4571 90.243C52.5457 90.173 52.6437 90.138 52.7511 90.138C52.8911 90.138 52.9961 90.1917 53.0661 90.299L53.5631 90.929C53.3717 91.153 53.1641 91.342 52.9401 91.496C52.7161 91.6453 52.4827 91.7667 52.2401 91.86C52.0021 91.9487 51.7547 92.0117 51.4981 92.049C51.2461 92.0863 50.9941 92.105 50.7421 92.105C50.2987 92.105 49.8811 92.0233 49.4891 91.86C49.0971 91.692 48.7541 91.4493 48.4601 91.132C48.1661 90.8147 47.9327 90.4273 47.7601 89.97C47.5921 89.508 47.5081 88.983 47.5081 88.395C47.5081 87.8677 47.5827 87.38 47.7321 86.932C47.8861 86.4793 48.1101 86.0897 48.4041 85.763C48.6981 85.4317 49.0621 85.1727 49.4961 84.986C49.9301 84.7993 50.4294 84.706 50.9941 84.706C51.5307 84.706 51.9997 84.7923 52.4011 84.965C52.8071 85.1377 53.1711 85.385 53.4931 85.707L53.0381 86.337ZM59.1509 87.583C59.1509 87.359 59.1183 87.149 59.0529 86.953C58.9923 86.7523 58.8989 86.5773 58.7729 86.428C58.6469 86.2787 58.4859 86.162 58.2899 86.078C58.0986 85.9893 57.8746 85.945 57.6179 85.945C57.1186 85.945 56.7243 86.0873 56.4349 86.372C56.1503 86.6567 55.9683 87.0603 55.8889 87.583H59.1509ZM55.8539 88.626C55.8819 88.9947 55.9473 89.3143 56.0499 89.585C56.1526 89.851 56.2879 90.0727 56.4559 90.25C56.6239 90.4227 56.8223 90.5533 57.0509 90.642C57.2843 90.726 57.5409 90.768 57.8209 90.768C58.1009 90.768 58.3413 90.7353 58.5419 90.67C58.7473 90.6047 58.9246 90.5323 59.0739 90.453C59.2279 90.3737 59.3609 90.3013 59.4729 90.236C59.5896 90.1707 59.7016 90.138 59.8089 90.138C59.9536 90.138 60.0609 90.1917 60.1309 90.299L60.6279 90.929C60.4366 91.153 60.2219 91.342 59.9839 91.496C59.7459 91.6453 59.4963 91.7667 59.2349 91.86C58.9783 91.9487 58.7146 92.0117 58.4439 92.049C58.1779 92.0863 57.9189 92.105 57.6669 92.105C57.1676 92.105 56.7033 92.0233 56.2739 91.86C55.8446 91.692 55.4713 91.447 55.1539 91.125C54.8366 90.7983 54.5869 90.397 54.4049 89.921C54.2229 89.4403 54.1319 88.885 54.1319 88.255C54.1319 87.765 54.2113 87.3053 54.3699 86.876C54.5286 86.442 54.7549 86.0663 55.0489 85.749C55.3476 85.427 55.7093 85.1727 56.1339 84.986C56.5633 84.7993 57.0463 84.706 57.5829 84.706C58.0356 84.706 58.4533 84.7783 58.8359 84.923C59.2186 85.0677 59.5476 85.28 59.8229 85.56C60.0983 85.8353 60.3129 86.176 60.4669 86.582C60.6256 86.9833 60.7049 87.443 60.7049 87.961C60.7049 88.2223 60.6769 88.3997 60.6209 88.493C60.5649 88.5817 60.4576 88.626 60.2989 88.626H55.8539ZM63.7524 81.598V92H62.0234V81.598H63.7524ZM67.2251 81.598V92H65.4961V81.598H67.2251ZM73.5748 87.583C73.5748 87.359 73.5421 87.149 73.4768 86.953C73.4161 86.7523 73.3228 86.5773 73.1968 86.428C73.0708 86.2787 72.9098 86.162 72.7138 86.078C72.5224 85.9893 72.2984 85.945 72.0418 85.945C71.5424 85.945 71.1481 86.0873 70.8588 86.372C70.5741 86.6567 70.3921 87.0603 70.3128 87.583H73.5748ZM70.2778 88.626C70.3058 88.9947 70.3711 89.3143 70.4738 89.585C70.5764 89.851 70.7118 90.0727 70.8798 90.25C71.0478 90.4227 71.2461 90.5533 71.4748 90.642C71.7081 90.726 71.9648 90.768 72.2448 90.768C72.5248 90.768 72.7651 90.7353 72.9658 90.67C73.1711 90.6047 73.3484 90.5323 73.4978 90.453C73.6518 90.3737 73.7848 90.3013 73.8968 90.236C74.0134 90.1707 74.1254 90.138 74.2328 90.138C74.3774 90.138 74.4848 90.1917 74.5548 90.299L75.0518 90.929C74.8604 91.153 74.6458 91.342 74.4078 91.496C74.1698 91.6453 73.9201 91.7667 73.6588 91.86C73.4021 91.9487 73.1384 92.0117 72.8678 92.049C72.6018 92.0863 72.3428 92.105 72.0908 92.105C71.5914 92.105 71.1271 92.0233 70.6978 91.86C70.2684 91.692 69.8951 91.447 69.5778 91.125C69.2604 90.7983 69.0108 90.397 68.8288 89.921C68.6468 89.4403 68.5557 88.885 68.5557 88.255C68.5557 87.765 68.6351 87.3053 68.7938 86.876C68.9524 86.442 69.1788 86.0663 69.4728 85.749C69.7714 85.427 70.1331 85.1727 70.5578 84.986C70.9871 84.7993 71.4701 84.706 72.0068 84.706C72.4594 84.706 72.8771 84.7783 73.2598 84.923C73.6424 85.0677 73.9714 85.28 74.2468 85.56C74.5221 85.8353 74.7368 86.176 74.8908 86.582C75.0494 86.9833 75.1287 87.443 75.1287 87.961C75.1287 88.2223 75.1008 88.3997 75.0448 88.493C74.9888 88.5817 74.8814 88.626 74.7228 88.626H70.2778ZM78.0433 85.7C78.1879 85.5553 78.3396 85.4223 78.4983 85.301C78.6616 85.175 78.8319 85.07 79.0093 84.986C79.1913 84.8973 79.3849 84.8297 79.5903 84.783C79.7956 84.7317 80.0196 84.706 80.2623 84.706C80.6543 84.706 81.0019 84.7737 81.3053 84.909C81.6086 85.0397 81.8606 85.2263 82.0613 85.469C82.2666 85.707 82.4206 85.994 82.5233 86.33C82.6306 86.6613 82.6843 87.0277 82.6843 87.429V92H80.9553V87.429C80.9553 86.9903 80.8549 86.652 80.6543 86.414C80.4536 86.1713 80.1479 86.05 79.7373 86.05C79.4386 86.05 79.1586 86.1177 78.8973 86.253C78.6359 86.3883 78.3886 86.5727 78.1553 86.806V92H76.4263V84.818H77.4833C77.7073 84.818 77.8543 84.923 77.9243 85.133L78.0433 85.7ZM86.6269 92.112C86.0016 92.112 85.5209 91.937 85.1849 91.587C84.8536 91.2323 84.6879 90.7447 84.6879 90.124V86.113H83.9529C83.8596 86.113 83.7802 86.0827 83.7149 86.022C83.6496 85.9613 83.6169 85.8703 83.6169 85.749V85.063L84.7719 84.874L85.1359 82.914C85.1592 82.8207 85.2036 82.7483 85.2689 82.697C85.3342 82.6457 85.4182 82.62 85.5209 82.62H86.4169V84.881H88.3349V86.113H86.4169V90.005C86.4169 90.229 86.4706 90.404 86.5779 90.53C86.6899 90.656 86.8416 90.719 87.0329 90.719C87.1402 90.719 87.2289 90.7073 87.2989 90.684C87.3736 90.656 87.4366 90.628 87.4879 90.6C87.5439 90.572 87.5929 90.5463 87.6349 90.523C87.6769 90.495 87.7189 90.481 87.7609 90.481C87.8122 90.481 87.8542 90.495 87.8869 90.523C87.9196 90.5463 87.9546 90.5837 87.9919 90.635L88.5099 91.475C88.2579 91.685 87.9686 91.8437 87.6419 91.951C87.3152 92.0583 86.9769 92.112 86.6269 92.112Z"
        fill="white" />
    <g clip-path="url(#clip0_2825_20799)">
        <rect width="120" height="66" fill="white" />
        <path
            d="M110 60C110 46.7392 104.732 34.0215 95.3553 24.6447C85.9785 15.2678 73.2608 10 60 10C46.7392 10 34.0215 15.2678 24.6447 24.6447C15.2678 34.0215 10 46.7392 10 60"
            stroke="#E5FBF6" stroke-width="10" stroke-linecap="round" />
        <path
            d="M48.2294 50.944V44.864C48.2294 44.4907 48.24 44.0907 48.2614 43.664C48.2934 43.2267 48.336 42.7733 48.3894 42.304L42.2294 50.944H48.2294ZM54.9494 50.944V53.728C54.9494 53.9733 54.864 54.1867 54.6934 54.368C54.5334 54.5493 54.2987 54.64 53.9894 54.64H52.5494V60H48.2294V54.64H38.8534C38.544 54.64 38.2614 54.544 38.0054 54.352C37.76 54.16 37.6054 53.92 37.5414 53.632L37.0294 51.184L47.8134 36.688H52.5494V50.944H54.9494ZM56.6799 57.488C56.6799 57.104 56.7492 56.7467 56.8879 56.416C57.0372 56.0853 57.2345 55.7973 57.4799 55.552C57.7359 55.3067 58.0345 55.1147 58.3759 54.976C58.7172 54.8267 59.0905 54.752 59.4959 54.752C59.8905 54.752 60.2585 54.8267 60.5999 54.976C60.9412 55.1147 61.2399 55.3067 61.4959 55.552C61.7519 55.7973 61.9492 56.0853 62.0879 56.416C62.2372 56.7467 62.3119 57.104 62.3119 57.488C62.3119 57.872 62.2372 58.2347 62.0879 58.576C61.9492 58.9067 61.7519 59.1947 61.4959 59.44C61.2399 59.6853 60.9412 59.8773 60.5999 60.016C60.2585 60.1547 59.8905 60.224 59.4959 60.224C59.0905 60.224 58.7172 60.1547 58.3759 60.016C58.0345 59.8773 57.7359 59.6853 57.4799 59.44C57.2345 59.1947 57.0372 58.9067 56.8879 58.576C56.7492 58.2347 56.6799 57.872 56.6799 57.488ZM81.2481 48.336C81.2481 50.3733 81.0295 52.1387 80.5921 53.632C80.1548 55.1253 79.5468 56.3627 78.7681 57.344C78.0001 58.3253 77.0828 59.056 76.0161 59.536C74.9601 60.016 73.8135 60.256 72.5761 60.256C71.3388 60.256 70.1921 60.016 69.1361 59.536C68.0908 59.056 67.1841 58.3253 66.4161 57.344C65.6481 56.3627 65.0455 55.1253 64.6081 53.632C64.1815 52.1387 63.9681 50.3733 63.9681 48.336C63.9681 46.2987 64.1815 44.5333 64.6081 43.04C65.0455 41.5467 65.6481 40.3093 66.4161 39.328C67.1841 38.3467 68.0908 37.6213 69.1361 37.152C70.1921 36.672 71.3388 36.432 72.5761 36.432C73.8135 36.432 74.9601 36.672 76.0161 37.152C77.0828 37.6213 78.0001 38.3467 78.7681 39.328C79.5468 40.3093 80.1548 41.5467 80.5921 43.04C81.0295 44.5333 81.2481 46.2987 81.2481 48.336ZM76.1281 48.336C76.1281 46.7253 76.0268 45.408 75.8241 44.384C75.6215 43.3493 75.3495 42.5387 75.0081 41.952C74.6775 41.3653 74.2988 40.9653 73.8721 40.752C73.4455 40.528 73.0135 40.416 72.5761 40.416C72.1388 40.416 71.7068 40.528 71.2801 40.752C70.8641 40.9653 70.4908 41.3653 70.1601 41.952C69.8401 42.5387 69.5788 43.3493 69.3761 44.384C69.1841 45.408 69.0881 46.7253 69.0881 48.336C69.0881 49.9573 69.1841 51.28 69.3761 52.304C69.5788 53.328 69.8401 54.1387 70.1601 54.736C70.4908 55.3227 70.8641 55.728 71.2801 55.952C71.7068 56.1653 72.1388 56.272 72.5761 56.272C73.0135 56.272 73.4455 56.1653 73.8721 55.952C74.2988 55.728 74.6775 55.3227 75.0081 54.736C75.3495 54.1387 75.6215 53.328 75.8241 52.304C76.0268 51.28 76.1281 49.9573 76.1281 48.336Z"
            fill="#25B18E" />
        <path
            d="M10.0003 60C10.0003 49.441 13.3431 39.1531 19.5495 30.6107C25.7559 22.0684 34.5073 15.7101 44.5495 12.4472C54.5916 9.18427 65.409 9.18428 75.4512 12.4472C85.4933 15.7101 94.2448 22.0684 100.451 30.6107"
            stroke="url(#paint0_linear_2825_20799)" stroke-width="10" stroke-linecap="round" />
        <circle cx="100.5" cy="30.5" r="2.5" fill="white" />
        <path d="M95.9277 36.4641L92.4636 42.4641L88.9995 36.4641L95.9277 36.4641Z" fill="#25B18E" />
    </g>
    <defs>
        <linearGradient id="paint0_linear_2825_20799" x1="0.955241" y1="65" x2="109.497" y2="64.5909"
            gradientUnits="userSpaceOnUse">
            <stop stop-color="#E5FBF6" />
            <stop offset="1" stop-color="#25B28F" />
        </linearGradient>
        <clipPath id="clip0_2825_20799">
            <rect width="120" height="66" fill="white" />
        </clipPath>
    </defs>
</svg>