<svg id="f_icon_sp_1" width="120" height="97" viewBox="0 0 120 97" fill="none"
    xmlns="http://www.w3.org/2000/svg">
    <rect x="34" y="76" width="54" height="21" rx="10.5" fill="#FFC045" />
    <path
        d="M50.417 86.967C50.7623 86.967 51.0633 86.925 51.32 86.841C51.5767 86.7523 51.789 86.6287 51.957 86.47C52.1297 86.3067 52.258 86.1107 52.342 85.882C52.426 85.6487 52.468 85.3897 52.468 85.105C52.468 84.8343 52.426 84.5893 52.342 84.37C52.258 84.1507 52.132 83.964 51.964 83.81C51.796 83.656 51.5837 83.5393 51.327 83.46C51.0703 83.376 50.767 83.334 50.417 83.334H49.01V86.967H50.417ZM50.417 81.878C51.0937 81.878 51.6793 81.9573 52.174 82.116C52.6687 82.2747 53.077 82.4963 53.399 82.781C53.721 83.0657 53.959 83.4063 54.113 83.803C54.2717 84.1997 54.351 84.6337 54.351 85.105C54.351 85.595 54.2693 86.0453 54.106 86.456C53.9427 86.862 53.6977 87.212 53.371 87.506C53.0443 87.8 52.6337 88.0287 52.139 88.192C51.649 88.3553 51.075 88.437 50.417 88.437H49.01V92H47.127V81.878H50.417ZM58.3718 84.706C58.9038 84.706 59.3868 84.7923 59.8208 84.965C60.2595 85.1377 60.6328 85.3827 60.9408 85.7C61.2535 86.0173 61.4938 86.4047 61.6618 86.862C61.8298 87.3193 61.9138 87.8303 61.9138 88.395C61.9138 88.9643 61.8298 89.4777 61.6618 89.935C61.4938 90.3923 61.2535 90.782 60.9408 91.104C60.6328 91.426 60.2595 91.6733 59.8208 91.846C59.3868 92.0187 58.9038 92.105 58.3718 92.105C57.8352 92.105 57.3475 92.0187 56.9088 91.846C56.4702 91.6733 56.0945 91.426 55.7818 91.104C55.4738 90.782 55.2335 90.3923 55.0608 89.935C54.8928 89.4777 54.8088 88.9643 54.8088 88.395C54.8088 87.8303 54.8928 87.3193 55.0608 86.862C55.2335 86.4047 55.4738 86.0173 55.7818 85.7C56.0945 85.3827 56.4702 85.1377 56.9088 84.965C57.3475 84.7923 57.8352 84.706 58.3718 84.706ZM58.3718 90.775C58.9692 90.775 59.4102 90.5743 59.6948 90.173C59.9842 89.7717 60.1288 89.1837 60.1288 88.409C60.1288 87.6343 59.9842 87.044 59.6948 86.638C59.4102 86.232 58.9692 86.029 58.3718 86.029C57.7652 86.029 57.3148 86.2343 57.0208 86.645C56.7315 87.051 56.5868 87.639 56.5868 88.409C56.5868 89.179 56.7315 89.767 57.0208 90.173C57.3148 90.5743 57.7652 90.775 58.3718 90.775ZM66.4109 84.706C66.9429 84.706 67.4259 84.7923 67.8599 84.965C68.2986 85.1377 68.6719 85.3827 68.9799 85.7C69.2926 86.0173 69.5329 86.4047 69.7009 86.862C69.8689 87.3193 69.9529 87.8303 69.9529 88.395C69.9529 88.9643 69.8689 89.4777 69.7009 89.935C69.5329 90.3923 69.2926 90.782 68.9799 91.104C68.6719 91.426 68.2986 91.6733 67.8599 91.846C67.4259 92.0187 66.9429 92.105 66.4109 92.105C65.8742 92.105 65.3866 92.0187 64.9479 91.846C64.5092 91.6733 64.1336 91.426 63.8209 91.104C63.5129 90.782 63.2726 90.3923 63.0999 89.935C62.9319 89.4777 62.8479 88.9643 62.8479 88.395C62.8479 87.8303 62.9319 87.3193 63.0999 86.862C63.2726 86.4047 63.5129 86.0173 63.8209 85.7C64.1336 85.3827 64.5092 85.1377 64.9479 84.965C65.3866 84.7923 65.8742 84.706 66.4109 84.706ZM66.4109 90.775C67.0082 90.775 67.4492 90.5743 67.7339 90.173C68.0232 89.7717 68.1679 89.1837 68.1679 88.409C68.1679 87.6343 68.0232 87.044 67.7339 86.638C67.4492 86.232 67.0082 86.029 66.4109 86.029C65.8042 86.029 65.3539 86.2343 65.0599 86.645C64.7706 87.051 64.6259 87.639 64.6259 88.409C64.6259 89.179 64.7706 89.767 65.0599 90.173C65.3539 90.5743 65.8042 90.775 66.4109 90.775ZM72.903 86.064C73.127 85.6347 73.393 85.2987 73.701 85.056C74.009 84.8087 74.373 84.685 74.793 84.685C75.1243 84.685 75.3903 84.7573 75.591 84.902L75.479 86.197C75.4556 86.281 75.4206 86.3417 75.374 86.379C75.332 86.4117 75.2736 86.428 75.199 86.428C75.129 86.428 75.024 86.4163 74.884 86.393C74.7486 86.3697 74.6156 86.358 74.485 86.358C74.2936 86.358 74.1233 86.386 73.974 86.442C73.8246 86.498 73.6893 86.5797 73.568 86.687C73.4513 86.7897 73.3463 86.9157 73.253 87.065C73.1643 87.2143 73.0803 87.3847 73.001 87.576V92H71.272V84.818H72.287C72.4643 84.818 72.588 84.8507 72.658 84.916C72.728 84.9767 72.7746 85.0887 72.798 85.252L72.903 86.064Z"
        fill="white" />
    <g clip-path="url(#clip0_2821_20796)">
        <rect width="120" height="66" fill="white" />
        <path
            d="M110 60C110 46.7392 104.733 34.0215 95.3558 24.6447C85.979 15.2678 73.2613 10 60.0005 10C46.7397 10 34.022 15.2678 24.6452 24.6447C15.2683 34.0215 10.0005 46.7392 10.0005 60"
            stroke="#FFF8E9" stroke-width="10" stroke-linecap="round" />
        <path
            d="M53.9259 56.416V60H40.6459V56.416H45.1259V44.656C45.1259 44.3573 45.1312 44.0587 45.1419 43.76C45.1525 43.4507 45.1685 43.1413 45.1899 42.832L42.5339 45.04C42.2992 45.2213 42.0645 45.3333 41.8299 45.376C41.6059 45.408 41.3925 45.408 41.1899 45.376C40.9872 45.3333 40.8059 45.264 40.6459 45.168C40.4859 45.0613 40.3685 44.9547 40.2939 44.848L38.7259 42.768L45.9899 36.672H50.0859V56.416H53.9259ZM56.6804 57.488C56.6804 57.104 56.7497 56.7467 56.8884 56.416C57.0377 56.0853 57.235 55.7973 57.4804 55.552C57.7364 55.3067 58.035 55.1147 58.3764 54.976C58.7177 54.8267 59.091 54.752 59.4964 54.752C59.891 54.752 60.259 54.8267 60.6004 54.976C60.9417 55.1147 61.2404 55.3067 61.4964 55.552C61.7524 55.7973 61.9497 56.0853 62.0884 56.416C62.2377 56.7467 62.3124 57.104 62.3124 57.488C62.3124 57.872 62.2377 58.2347 62.0884 58.576C61.9497 58.9067 61.7524 59.1947 61.4964 59.44C61.2404 59.6853 60.9417 59.8773 60.6004 60.016C60.259 60.1547 59.891 60.224 59.4964 60.224C59.091 60.224 58.7177 60.1547 58.3764 60.016C58.035 59.8773 57.7364 59.6853 57.4804 59.44C57.235 59.1947 57.0377 58.9067 56.8884 58.576C56.7497 58.2347 56.6804 57.872 56.6804 57.488ZM81.2486 48.336C81.2486 50.3733 81.0299 52.1387 80.5926 53.632C80.1553 55.1253 79.5473 56.3627 78.7686 57.344C78.0006 58.3253 77.0833 59.056 76.0166 59.536C74.9606 60.016 73.8139 60.256 72.5766 60.256C71.3393 60.256 70.1926 60.016 69.1366 59.536C68.0913 59.056 67.1846 58.3253 66.4166 57.344C65.6486 56.3627 65.0459 55.1253 64.6086 53.632C64.1819 52.1387 63.9686 50.3733 63.9686 48.336C63.9686 46.2987 64.1819 44.5333 64.6086 43.04C65.0459 41.5467 65.6486 40.3093 66.4166 39.328C67.1846 38.3467 68.0913 37.6213 69.1366 37.152C70.1926 36.672 71.3393 36.432 72.5766 36.432C73.8139 36.432 74.9606 36.672 76.0166 37.152C77.0833 37.6213 78.0006 38.3467 78.7686 39.328C79.5473 40.3093 80.1553 41.5467 80.5926 43.04C81.0299 44.5333 81.2486 46.2987 81.2486 48.336ZM76.1286 48.336C76.1286 46.7253 76.0273 45.408 75.8246 44.384C75.6219 43.3493 75.3499 42.5387 75.0086 41.952C74.6779 41.3653 74.2993 40.9653 73.8726 40.752C73.4459 40.528 73.0139 40.416 72.5766 40.416C72.1393 40.416 71.7073 40.528 71.2806 40.752C70.8646 40.9653 70.4913 41.3653 70.1606 41.952C69.8406 42.5387 69.5793 43.3493 69.3766 44.384C69.1846 45.408 69.0886 46.7253 69.0886 48.336C69.0886 49.9573 69.1846 51.28 69.3766 52.304C69.5793 53.328 69.8406 54.1387 70.1606 54.736C70.4913 55.3227 70.8646 55.728 71.2806 55.952C71.7073 56.1653 72.1393 56.272 72.5766 56.272C73.0139 56.272 73.4459 56.1653 73.8726 55.952C74.2993 55.728 74.6779 55.3227 75.0086 54.736C75.3499 54.1387 75.6219 53.328 75.8246 52.304C76.0273 51.28 76.1286 49.9573 76.1286 48.336Z"
            fill="#FFC045" />
        <path d="M10.0002 60.0001C10.0002 49.4411 13.3429 39.1532 19.5493 30.6108"
            stroke="url(#paint0_linear_2821_20796)" stroke-width="10" stroke-linecap="round" />
        <circle cx="19.5005" cy="30.5" r="2.5" fill="white" />
        <path d="M26.8289 32.8283L33.521 34.6215L28.6221 39.5204L26.8289 32.8283Z" fill="#F0885B" />
    </g>
    <defs>
        <linearGradient id="paint0_linear_2821_20796" x1="14.7747" y1="30.6108" x2="14.7747" y2="60.0001"
            gradientUnits="userSpaceOnUse">
            <stop stop-color="#FFC045" />
            <stop offset="1" stop-color="#FFF1D3" />
        </linearGradient>
        <clipPath id="clip0_2821_20796">
            <rect width="120" height="66" fill="white" />
        </clipPath>
    </defs>
</svg>