<svg xmlns="http://www.w3.org/2000/svg" width="16" height="15" viewBox="0 0 16 15" fill="none">
  <path d="M1.99462 10.3946C2.09265 10.6419 2.11447 10.9128 2.05729 11.1726L1.34729 13.366C1.32441 13.4772 1.33033 13.5924 1.36447 13.7007C1.39862 13.809 1.45987 13.9068 1.5424 13.9848C1.62494 14.0628 1.72603 14.1184 1.83609 14.1464C1.94615 14.1744 2.06153 14.1738 2.17129 14.1446L4.44662 13.4793C4.69177 13.4307 4.94564 13.4519 5.17929 13.5406C6.60288 14.2054 8.21553 14.3461 9.73272 13.9378C11.2499 13.5294 12.5741 12.5984 13.4718 11.3089C14.3694 10.0193 14.7827 8.45423 14.6388 6.88966C14.4949 5.32509 13.8031 3.8616 12.6853 2.75742C11.5676 1.65324 10.0958 0.979318 8.52955 0.854556C6.96333 0.729795 5.40338 1.16221 4.12492 2.07552C2.84646 2.98882 1.93164 4.32432 1.54189 5.84638C1.15213 7.36845 1.31247 8.97926 1.99462 10.3946Z" stroke="#1E1E1E" stroke-linecap="round" stroke-linejoin="round"/>
</svg>