<svg xmlns="http://www.w3.org/2000/svg" width="16" height="15" viewBox="0 0 16 15" fill="none">
  <path d="M4.66671 6.16671V14.1667M10 3.42004L9.33337 6.16671H13.22C13.427 6.16671 13.6312 6.2149 13.8163 6.30747C14.0015 6.40004 14.1625 6.53445 14.2867 6.70004C14.4109 6.86564 14.4948 7.05787 14.5319 7.26153C14.5689 7.46518 14.558 7.67466 14.5 7.87337L12.9467 13.2067C12.8659 13.4837 12.6975 13.7269 12.4667 13.9C12.2359 14.0731 11.9552 14.1667 11.6667 14.1667H2.66671C2.31309 14.1667 1.97395 14.0262 1.7239 13.7762C1.47385 13.5261 1.33337 13.187 1.33337 12.8334V7.50004C1.33337 7.14642 1.47385 6.80728 1.7239 6.55723C1.97395 6.30718 2.31309 6.16671 2.66671 6.16671H4.50671C4.75476 6.16658 4.99786 6.09725 5.20868 5.96652C5.41949 5.83579 5.58966 5.64885 5.70004 5.42671L8.00004 0.833374C8.31443 0.837267 8.62387 0.912153 8.90524 1.05244C9.18662 1.19272 9.43266 1.39478 9.62498 1.64351C9.81729 1.89224 9.95092 2.18121 10.0159 2.48884C10.0808 2.79647 10.0754 3.1148 10 3.42004Z" stroke="#1E1E1E" stroke-linecap="round" stroke-linejoin="round"/>
</svg>