<svg xmlns="http://www.w3.org/2000/svg" width="16" height="16" viewBox="0 0 16 16" fill="none">
  <g clip-path="url(#clip0_27014_4198)">
    <path d="M4.00002 15.3333H2.66669C2.13625 15.3333 1.6277 15.1225 1.25262 14.7474C0.877568 14.3723 0.666687 13.8638 0.666687 13.3333V8.00001C0.666701 7.4696 0.877564 6.96101 1.25262 6.58595C1.62769 6.21089 2.13627 6.00001 2.66669 6.00001H4.00002V15.3333Z" fill="#EC4F4F"/>
    <path d="M8.00848 0.666677C8.42317 0.671844 8.83133 0.770726 9.20249 0.95574C9.57376 1.14084 9.89861 1.40751 10.1524 1.73569C10.4061 2.06382 10.5823 2.4451 10.668 2.85092C10.7535 3.25588 10.7459 3.67493 10.6472 4.07683L10.6478 4.07748L10.181 6.00001H13.2201C13.5305 6.00002 13.8369 6.07211 14.1146 6.21095C14.3923 6.3498 14.6341 6.55178 14.8203 6.80014C15.0065 7.04838 15.132 7.3367 15.1875 7.64194C15.2361 7.90914 15.2298 8.18336 15.1693 8.44728L15.14 8.55991L13.5866 13.8932C13.4654 14.3087 13.2127 14.674 12.8666 14.9336C12.5204 15.1931 12.0993 15.3333 11.6667 15.3333H5.33335V5.16993L7.40367 1.03517C7.518 0.806864 7.75317 0.663516 8.00848 0.666677Z" fill="#EC4F4F"/>
  </g>
  <defs>
    <clipPath id="clip0_27014_4198">
      <rect width="16" height="16" fill="white"/>
    </clipPath>
  </defs>
</svg>