<svg xmlns="http://www.w3.org/2000/svg" width="17" height="17" viewBox="0 0 17 17" fill="none">
  <path d="M8.49984 9.20837C8.89104 9.20837 9.20817 8.89124 9.20817 8.50004C9.20817 8.10884 8.89104 7.79171 8.49984 7.79171C8.10864 7.79171 7.7915 8.10884 7.7915 8.50004C7.7915 8.89124 8.10864 9.20837 8.49984 9.20837Z" stroke="#74BC1F" stroke-width="2" stroke-linecap="round" stroke-linejoin="round"/>
  <path d="M8.49984 4.25004C8.89104 4.25004 9.20817 3.93291 9.20817 3.54171C9.20817 3.15051 8.89104 2.83337 8.49984 2.83337C8.10864 2.83337 7.7915 3.15051 7.7915 3.54171C7.7915 3.93291 8.10864 4.25004 8.49984 4.25004Z" stroke="#74BC1F" stroke-width="2" stroke-linecap="round" stroke-linejoin="round"/>
  <path d="M8.49984 14.1667C8.89104 14.1667 9.20817 13.8496 9.20817 13.4584C9.20817 13.0672 8.89104 12.75 8.49984 12.75C8.10864 12.75 7.7915 13.0672 7.7915 13.4584C7.7915 13.8496 8.10864 14.1667 8.49984 14.1667Z" stroke="#74BC1F" stroke-width="2" stroke-linecap="round" stroke-linejoin="round"/>
</svg>