<svg xmlns="http://www.w3.org/2000/svg" width="24" height="24" viewBox="0 0 24 24" fill="none">
  <path d="M10.5 9.375C10.5 9.27554 10.4605 9.18016 10.3902 9.10983C10.3198 9.03951 10.2245 9 10.125 9C10.0255 9 9.93016 9.03951 9.85983 9.10983C9.78951 9.18016 9.75 9.27554 9.75 9.375L9.75 17.625C9.75 17.7245 9.78951 17.8198 9.85983 17.8902C9.93016 17.9605 10.0255 18 10.125 18C10.2245 18 10.3198 17.9605 10.3902 17.8902C10.4605 17.8198 10.5 17.7245 10.5 17.625V9.375ZM13.875 9C13.9745 9 14.0698 9.03951 14.1402 9.10983C14.2105 9.18016 14.25 9.27554 14.25 9.375V17.625C14.25 17.7245 14.2105 17.8198 14.1402 17.8902C14.0698 17.9605 13.9745 18 13.875 18C13.7755 18 13.6802 17.9605 13.6098 17.8902C13.5395 17.8198 13.5 17.7245 13.5 17.625V9.375C13.5 9.27554 13.5395 9.18016 13.6098 9.10983C13.6802 9.03951 13.7755 9 13.875 9ZM15.375 4.875V5.25H21.375C21.4745 5.25 21.5698 5.28951 21.6402 5.35984C21.7105 5.43016 21.75 5.52554 21.75 5.625C21.75 5.72446 21.7105 5.81984 21.6402 5.89016C21.5698 5.96049 21.4745 6 21.375 6L19.4678 6L18.2467 19.4303C18.1706 20.2691 17.7835 21.0492 17.1615 21.6172C16.5395 22.1852 15.7276 22.5001 14.8853 22.5H9.11475C8.27243 22.5001 7.46052 22.1852 6.83853 21.6172C6.21654 21.0492 5.82943 20.2691 5.75325 19.4303L4.53225 6H2.625C2.52554 6 2.43016 5.96049 2.35984 5.89016C2.28951 5.81984 2.25 5.72446 2.25 5.625C2.25 5.52554 2.28951 5.43016 2.35984 5.35984C2.43016 5.28951 2.52554 5.25 2.625 5.25L8.625 5.25V4.875C8.625 3.97989 8.98058 3.12145 9.61351 2.48851C10.2464 1.85558 11.1049 1.5 12 1.5C12.8951 1.5 13.7535 1.85558 14.3865 2.48851C15.0194 3.12145 15.375 3.97989 15.375 4.875ZM9.375 4.875V5.25L14.625 5.25V4.875C14.625 4.17881 14.3484 3.51113 13.8562 3.01884C13.3639 2.52656 12.6962 2.25 12 2.25C11.3038 2.25 10.6361 2.52656 10.1438 3.01884C9.65156 3.51113 9.375 4.17881 9.375 4.875ZM5.286 6L6.501 19.3627C6.56031 20.0149 6.86122 20.6213 7.34466 21.063C7.8281 21.5047 8.45917 21.7497 9.114 21.75H14.8845C15.5396 21.7501 16.171 21.5052 16.6548 21.0635C17.1385 20.6218 17.4397 20.0151 17.499 19.3627L18.7147 6L5.286 6Z" fill="#666666"/>
</svg>