<svg xmlns="http://www.w3.org/2000/svg" width="16" height="16" viewBox="0 0 16 16" fill="none">
  <mask id="path-1-inside-1_15903_160176" fill="white">
    <path d="M5.32651 3.00204L10.1985 8.00005L5.32651 12.998C5.23928 13.0873 5.19045 13.2072 5.19045 13.332C5.19045 13.4569 5.23928 13.5767 5.32651 13.666C5.36887 13.7093 5.41944 13.7436 5.47524 13.7671C5.53105 13.7905 5.59097 13.8026 5.65151 13.8026C5.71204 13.8026 5.77196 13.7905 5.82777 13.7671C5.88358 13.7436 5.93414 13.7093 5.97651 13.666L11.1605 8.34905C11.2515 8.25567 11.3025 8.13044 11.3025 8.00005C11.3025 7.86965 11.2515 7.74442 11.1605 7.65104L5.97751 2.33404C5.93511 2.2905 5.88442 2.25589 5.82843 2.23226C5.77244 2.20863 5.71228 2.19646 5.65151 2.19646C5.59073 2.19646 5.53057 2.20863 5.47458 2.23226C5.41859 2.25589 5.3679 2.2905 5.32551 2.33404C5.23828 2.42334 5.18945 2.54322 5.18945 2.66805C5.18945 2.79287 5.23828 2.91275 5.32551 3.00204H5.32651Z"/>
  </mask>
  <path d="M5.32651 3.00204L10.1985 8.00005L5.32651 12.998C5.23928 13.0873 5.19045 13.2072 5.19045 13.332C5.19045 13.4569 5.23928 13.5767 5.32651 13.666C5.36887 13.7093 5.41944 13.7436 5.47524 13.7671C5.53105 13.7905 5.59097 13.8026 5.65151 13.8026C5.71204 13.8026 5.77196 13.7905 5.82777 13.7671C5.88358 13.7436 5.93414 13.7093 5.97651 13.666L11.1605 8.34905C11.2515 8.25567 11.3025 8.13044 11.3025 8.00005C11.3025 7.86965 11.2515 7.74442 11.1605 7.65104L5.97751 2.33404C5.93511 2.2905 5.88442 2.25589 5.82843 2.23226C5.77244 2.20863 5.71228 2.19646 5.65151 2.19646C5.59073 2.19646 5.53057 2.20863 5.47458 2.23226C5.41859 2.25589 5.3679 2.2905 5.32551 2.33404C5.23828 2.42334 5.18945 2.54322 5.18945 2.66805C5.18945 2.79287 5.23828 2.91275 5.32551 3.00204H5.32651Z" fill="#EC4F4F"/>
  <path d="M5.32651 3.00204L6.04258 2.30402L5.74822 2.00204H5.32651V3.00204ZM10.1985 8.00005L10.9146 8.69807L11.595 8.00005L10.9146 7.30202L10.1985 8.00005ZM5.32651 12.998L6.04188 13.6968L6.04258 13.6961L5.32651 12.998ZM5.19045 13.332H4.19045H5.19045ZM5.32651 13.666L4.61113 14.3648L4.61222 14.3659L5.32651 13.666ZM5.65151 13.8026V12.8026V13.8026ZM5.97651 13.666L6.69079 14.3659L6.69251 14.3641L5.97651 13.666ZM11.1605 8.34905L11.8765 9.04714L11.8766 9.04705L11.1605 8.34905ZM11.1605 7.65104L11.8766 6.95304L11.8766 6.95302L11.1605 7.65104ZM5.97751 2.33404L5.26102 3.03165L5.26143 3.03207L5.97751 2.33404ZM5.32551 2.33404L6.04088 3.03279L6.04199 3.03165L5.32551 2.33404ZM5.18945 2.66805H6.18945H5.18945ZM5.32551 3.00204L4.61013 3.70079L4.90439 4.00204H5.32551L5.32551 3.00204ZM5.32651 3.00204L4.61043 3.70007L9.48243 8.69807L10.1985 8.00005L10.9146 7.30202L6.04258 2.30402L5.32651 3.00204ZM10.1985 8.00005L9.48243 7.30202L4.61043 12.3L5.32651 12.998L6.04258 13.6961L10.9146 8.69807L10.1985 8.00005ZM5.32651 12.998L4.61114 12.2993C4.34144 12.5754 4.19045 12.9461 4.19045 13.332H5.19045H6.19045C6.19045 13.4684 6.13713 13.5993 6.04188 13.6968L5.32651 12.998ZM5.19045 13.332H4.19045C4.19045 13.718 4.34144 14.0887 4.61114 14.3648L5.32651 13.666L6.04188 12.9673C6.13713 13.0648 6.19045 13.1957 6.19045 13.332H5.19045ZM5.32651 13.666L4.61222 14.3659C4.74769 14.5042 4.90939 14.614 5.08785 14.689L5.47524 13.7671L5.86263 12.8452C5.92948 12.8733 5.99005 12.9144 6.04079 12.9662L5.32651 13.666ZM5.47524 13.7671L5.08785 14.689C5.26631 14.764 5.45793 14.8026 5.65151 14.8026V13.8026V12.8026C5.72401 12.8026 5.79579 12.8171 5.86263 12.8452L5.47524 13.7671ZM5.65151 13.8026V14.8026C5.84508 14.8026 6.0367 14.764 6.21516 14.689L5.82777 13.7671L5.44038 12.8452C5.50722 12.8171 5.579 12.8026 5.65151 12.8026V13.8026ZM5.82777 13.7671L6.21516 14.689C6.39362 14.614 6.55532 14.5042 6.69079 14.3659L5.97651 13.666L5.26222 12.9662C5.31296 12.9144 5.37353 12.8733 5.44038 12.8452L5.82777 13.7671ZM5.97651 13.666L6.69251 14.3641L11.8765 9.04714L11.1605 8.34905L10.4445 7.65095L5.2605 12.968L5.97651 13.666ZM11.1605 8.34905L11.8766 9.04705C12.1496 8.76693 12.3025 8.39122 12.3025 8.00005H11.3025H10.3025C10.3025 7.86965 10.3534 7.74442 10.4444 7.65105L11.1605 8.34905ZM11.3025 8.00005H12.3025C12.3025 7.60887 12.1496 7.23316 11.8766 6.95304L11.1605 7.65104L10.4444 8.34904C10.3534 8.25567 10.3025 8.13044 10.3025 8.00005H11.3025ZM11.1605 7.65104L11.8766 6.95302L6.69358 1.63602L5.97751 2.33404L5.26143 3.03207L10.4444 8.34907L11.1605 7.65104ZM5.97751 2.33404L6.69399 1.63644C6.55841 1.4972 6.39632 1.38652 6.21727 1.31096L5.82843 2.23226L5.43959 3.15356C5.37252 3.12526 5.31181 3.08381 5.26102 3.03165L5.97751 2.33404ZM5.82843 2.23226L6.21727 1.31096C6.03821 1.23538 5.84584 1.19646 5.65151 1.19646V2.19646L5.65151 3.19646C5.57872 3.19646 5.50666 3.18187 5.43959 3.15356L5.82843 2.23226ZM5.65151 2.19646V1.19646C5.45717 1.19646 5.2648 1.23538 5.08574 1.31096L5.47458 2.23226L5.86342 3.15356C5.79635 3.18187 5.72429 3.19646 5.65151 3.19646L5.65151 2.19646ZM5.47458 2.23226L5.08574 1.31096C4.90669 1.38652 4.7446 1.4972 4.60902 1.63644L5.32551 2.33404L6.04199 3.03165C5.99121 3.0838 5.93049 3.12526 5.86342 3.15356L5.47458 2.23226ZM5.32551 2.33404L4.61013 1.6353C4.34044 1.91141 4.18945 2.28207 4.18945 2.66805H5.18945H6.18945C6.18945 2.80436 6.13613 2.93527 6.04088 3.03279L5.32551 2.33404ZM5.18945 2.66805H4.18945C4.18945 3.05402 4.34044 3.42468 4.61013 3.70079L5.32551 3.00204L6.04088 2.3033C6.13613 2.40082 6.18945 2.53173 6.18945 2.66805H5.18945ZM5.32551 3.00204L5.32551 4.00204H5.32651L5.32651 3.00204V2.00204H5.32551V3.00204Z" fill="#EC4F4F" mask="url(#path-1-inside-1_15903_160176)"/>
</svg>