<svg xmlns="http://www.w3.org/2000/svg" width="16" height="16" viewBox="0 0 16 16" fill="none">
  <mask id="path-1-inside-1_15903_160037" fill="white">
    <path d="M5.32553 3.00192L10.1975 7.99992L5.32553 12.9979C5.23831 13.0872 5.18948 13.2071 5.18948 13.3319C5.18948 13.4568 5.23831 13.5766 5.32553 13.6659C5.36789 13.7092 5.41846 13.7435 5.47427 13.767C5.53007 13.7904 5.59 13.8025 5.65053 13.8025C5.71106 13.8025 5.77099 13.7904 5.82679 13.767C5.8826 13.7435 5.93316 13.7092 5.97553 13.6659L11.1595 8.34892C11.2505 8.25555 11.3015 8.13032 11.3015 7.99992C11.3015 7.86953 11.2505 7.7443 11.1595 7.65092L5.97653 2.33392C5.93413 2.29038 5.88344 2.25577 5.82745 2.23214C5.77146 2.20851 5.7113 2.19633 5.65053 2.19633C5.58976 2.19633 5.5296 2.20851 5.47361 2.23214C5.41761 2.25577 5.36693 2.29038 5.32453 2.33392C5.23731 2.42322 5.18848 2.5431 5.18848 2.66792C5.18848 2.79275 5.23731 2.91262 5.32453 3.00192H5.32553Z"/>
  </mask>
  <path d="M5.32553 3.00192L10.1975 7.99992L5.32553 12.9979C5.23831 13.0872 5.18948 13.2071 5.18948 13.3319C5.18948 13.4568 5.23831 13.5766 5.32553 13.6659C5.36789 13.7092 5.41846 13.7435 5.47427 13.767C5.53007 13.7904 5.59 13.8025 5.65053 13.8025C5.71106 13.8025 5.77099 13.7904 5.82679 13.767C5.8826 13.7435 5.93316 13.7092 5.97553 13.6659L11.1595 8.34892C11.2505 8.25555 11.3015 8.13032 11.3015 7.99992C11.3015 7.86953 11.2505 7.7443 11.1595 7.65092L5.97653 2.33392C5.93413 2.29038 5.88344 2.25577 5.82745 2.23214C5.77146 2.20851 5.7113 2.19633 5.65053 2.19633C5.58976 2.19633 5.5296 2.20851 5.47361 2.23214C5.41761 2.25577 5.36693 2.29038 5.32453 2.33392C5.23731 2.42322 5.18848 2.5431 5.18848 2.66792C5.18848 2.79275 5.23731 2.91262 5.32453 3.00192H5.32553Z" fill="#666666"/>
  <path d="M5.32553 3.00192L6.0416 2.3039L5.74724 2.00192H5.32553V3.00192ZM10.1975 7.99992L10.9136 8.69795L11.594 7.99992L10.9136 7.3019L10.1975 7.99992ZM5.32553 12.9979L6.0409 13.6967L6.0416 13.6959L5.32553 12.9979ZM5.18948 13.3319H4.18948H5.18948ZM5.32553 13.6659L4.61016 14.3647L4.61124 14.3658L5.32553 13.6659ZM5.65053 13.8025V12.8025V13.8025ZM5.97553 13.6659L6.68982 14.3658L6.69153 14.364L5.97553 13.6659ZM11.1595 8.34892L11.8755 9.04702L11.8756 9.04692L11.1595 8.34892ZM11.1595 7.65092L11.8756 6.95292L11.8756 6.9529L11.1595 7.65092ZM5.97653 2.33392L5.26005 3.03153L5.26046 3.03195L5.97653 2.33392ZM5.32453 2.33392L6.0399 3.03267L6.04101 3.03153L5.32453 2.33392ZM5.18848 2.66792H6.18848H5.18848ZM5.32453 3.00192L4.60916 3.70067L4.90341 4.00192H5.32453L5.32453 3.00192ZM5.32553 3.00192L4.60945 3.69995L9.48145 8.69795L10.1975 7.99992L10.9136 7.3019L6.0416 2.3039L5.32553 3.00192ZM10.1975 7.99992L9.48145 7.3019L4.60945 12.2999L5.32553 12.9979L6.0416 13.6959L10.9136 8.69795L10.1975 7.99992ZM5.32553 12.9979L4.61016 12.2992C4.34046 12.5753 4.18948 12.9459 4.18948 13.3319H5.18948H6.18948C6.18948 13.4682 6.13615 13.5992 6.0409 13.6967L5.32553 12.9979ZM5.18948 13.3319H4.18948C4.18948 13.7179 4.34046 14.0886 4.61016 14.3647L5.32553 13.6659L6.0409 12.9672C6.13615 13.0647 6.18948 13.1956 6.18948 13.3319H5.18948ZM5.32553 13.6659L4.61124 14.3658C4.74671 14.504 4.90841 14.6139 5.08687 14.6889L5.47427 13.767L5.86166 12.845C5.92851 12.8731 5.98907 12.9143 6.03982 12.9661L5.32553 13.6659ZM5.47427 13.767L5.08687 14.6889C5.26533 14.7639 5.45696 14.8025 5.65053 14.8025V13.8025V12.8025C5.72303 12.8025 5.79481 12.817 5.86166 12.845L5.47427 13.767ZM5.65053 13.8025V14.8025C5.8441 14.8025 6.03573 14.7639 6.21419 14.6889L5.82679 13.767L5.4394 12.845C5.50625 12.817 5.57802 12.8025 5.65053 12.8025V13.8025ZM5.82679 13.767L6.21419 14.6889C6.39264 14.6139 6.55434 14.504 6.68981 14.3658L5.97553 13.6659L5.26124 12.9661C5.31199 12.9143 5.37255 12.8731 5.4394 12.845L5.82679 13.767ZM5.97553 13.6659L6.69153 14.364L11.8755 9.04702L11.1595 8.34892L10.4435 7.65083L5.25952 12.9678L5.97553 13.6659ZM11.1595 8.34892L11.8756 9.04692C12.1487 8.7668 12.3015 8.3911 12.3015 7.99992H11.3015H10.3015C10.3015 7.86953 10.3524 7.7443 10.4434 7.65092L11.1595 8.34892ZM11.3015 7.99992H12.3015C12.3015 7.60874 12.1487 7.23304 11.8756 6.95292L11.1595 7.65092L10.4434 8.34892C10.3524 8.25555 10.3015 8.13032 10.3015 7.99992H11.3015ZM11.1595 7.65092L11.8756 6.9529L6.6926 1.6359L5.97653 2.33392L5.26046 3.03195L10.4435 8.34895L11.1595 7.65092ZM5.97653 2.33392L6.69301 1.63632C6.55744 1.49707 6.39534 1.3864 6.21629 1.31083L5.82745 2.23214L5.43861 3.15344C5.37155 3.12514 5.31083 3.08368 5.26005 3.03153L5.97653 2.33392ZM5.82745 2.23214L6.21629 1.31083C6.03724 1.23526 5.84486 1.19633 5.65053 1.19633V2.19633L5.65053 3.19633C5.57774 3.19633 5.50568 3.18175 5.43861 3.15344L5.82745 2.23214ZM5.65053 2.19633V1.19633C5.4562 1.19633 5.26382 1.23526 5.08476 1.31083L5.47361 2.23214L5.86245 3.15344C5.79537 3.18175 5.72332 3.19633 5.65053 3.19633L5.65053 2.19633ZM5.47361 2.23214L5.08476 1.31083C4.90572 1.3864 4.74362 1.49708 4.60805 1.63632L5.32453 2.33392L6.04101 3.03153C5.99023 3.08368 5.92951 3.12514 5.86245 3.15344L5.47361 2.23214ZM5.32453 2.33392L4.60916 1.63518C4.33946 1.91129 4.18848 2.28195 4.18848 2.66792H5.18848H6.18848C6.18848 2.80424 6.13515 2.93515 6.0399 3.03267L5.32453 2.33392ZM5.18848 2.66792H4.18848C4.18848 3.05389 4.33946 3.42455 4.60916 3.70067L5.32453 3.00192L6.0399 2.30318C6.13515 2.40069 6.18848 2.5316 6.18848 2.66792H5.18848ZM5.32453 3.00192L5.32453 4.00192H5.32553L5.32553 3.00192V2.00192H5.32453V3.00192Z" fill="#666666" mask="url(#path-1-inside-1_15903_160037)"/>
</svg>