<svg width="24" height="24" viewBox="0 0 24 24" fill="none" xmlns="http://www.w3.org/2000/svg">
<g id="icon / alert">
<path id="Vector" d="M20.4705 16.6875C19.9296 15.75 19.1252 13.1372 19.1252 9.75C19.1252 7.86033 18.3745 6.04806 17.0383 4.71186C15.7021 3.37567 13.8898 2.625 12.0002 2.625C10.1105 2.625 8.29824 3.37567 6.96205 4.71186C5.62585 6.04806 4.87518 7.86033 4.87518 9.75C4.87518 13.1372 4.06987 15.75 3.52893 16.6828C3.42915 16.8537 3.37622 17.0479 3.3755 17.2459C3.37477 17.4438 3.42626 17.6384 3.52478 17.81C3.6233 17.9817 3.76536 18.1243 3.93662 18.2235C4.10787 18.3227 4.30227 18.3749 4.50018 18.375H8.64674C8.74032 19.1989 9.13389 19.9594 9.75239 20.5117C10.3709 21.0639 11.171 21.3691 12.0002 21.3691C12.8293 21.3691 13.6295 21.0639 14.248 20.5117C14.8665 19.9594 15.26 19.1989 15.3536 18.375H19.5002C19.6973 18.3743 19.8908 18.3218 20.0613 18.2228C20.2318 18.1238 20.3732 17.9817 20.4715 17.8108C20.5698 17.6399 20.6214 17.4462 20.6212 17.249C20.621 17.0519 20.5691 16.8582 20.4705 16.6875ZM12.0002 20.625C11.369 20.6249 10.759 20.3975 10.2819 19.9842C9.80478 19.571 9.49254 18.9997 9.40237 18.375H14.598C14.5078 18.9997 14.1956 19.571 13.7185 19.9842C13.2414 20.3975 12.6314 20.6249 12.0002 20.625ZM19.8236 17.4375C19.7916 17.4948 19.7447 17.5424 19.688 17.5753C19.6313 17.6083 19.5667 17.6255 19.5011 17.625H4.50018C4.43456 17.6255 4.37002 17.6083 4.3133 17.5753C4.25657 17.5424 4.20973 17.4948 4.17768 17.4375C4.14477 17.3805 4.12744 17.3158 4.12744 17.25C4.12744 17.1842 4.14477 17.1195 4.17768 17.0625C4.87518 15.8597 5.62518 13.0612 5.62518 9.75C5.62518 8.05924 6.29683 6.43774 7.49238 5.24219C8.68792 4.04665 10.3094 3.375 12.0002 3.375C13.6909 3.375 15.3124 4.04665 16.508 5.24219C17.7035 6.43774 18.3752 8.05924 18.3752 9.75C18.3752 13.0603 19.1252 15.8597 19.8227 17.0625C19.8557 17.1194 19.8732 17.184 19.8734 17.2499C19.8736 17.3157 19.8564 17.3804 19.8236 17.4375Z" fill="#000"/>
<g id="ci ">
<path d="M11.2453 9.64151C11.2453 10.0166 10.9412 10.3208 10.566 10.3208C10.1909 10.3208 9.88679 10.0166 9.88679 9.64151C9.88679 9.26637 10.1909 8.96226 10.566 8.96226C10.9412 8.96226 11.2453 9.26637 11.2453 9.64151Z" fill="#74BC1F"/>
<path d="M14.0377 12.3585C14.0377 12.7336 13.7336 13.0377 13.3585 13.0377C12.9834 13.0377 12.6792 12.7336 12.6792 12.3585C12.6792 11.9834 12.9834 11.6792 13.3585 11.6792C13.7336 11.6792 14.0377 11.9834 14.0377 12.3585Z" fill="#74BC1F"/>
<path d="M14.0377 9.64151C14.0377 10.0166 13.7336 10.3208 13.3585 10.3208C12.9834 10.3208 12.6792 10.0166 12.6792 9.64151C12.6792 9.26637 12.9834 8.96226 13.3585 8.96226C13.7336 8.96226 14.0377 9.26637 14.0377 9.64151Z" fill="#BBBCBC"/>
<path d="M11.3208 12.283C11.3208 12.6582 11.0166 12.9623 10.6415 12.9623C10.2664 12.9623 9.96226 12.6582 9.96226 12.283C9.96226 11.9079 10.2664 11.6038 10.6415 11.6038C11.0166 11.6038 11.3208 11.9079 11.3208 12.283Z" fill="#BBBCBC"/>
<path fill-rule="evenodd" clip-rule="evenodd" d="M12.2264 9.27121C12.2264 9.16477 12.3018 9.0751 12.4003 9.03475C12.7854 8.877 13.0566 8.49848 13.0566 8.0566C13.0566 7.47306 12.5835 7 12 7C11.4165 7 10.9434 7.47306 10.9434 8.0566C10.9434 8.49848 11.2146 8.877 11.5997 9.03475C11.6982 9.0751 11.7736 9.16477 11.7736 9.27121V9.78539C11.7736 9.89183 11.6982 9.98151 11.5997 10.0219C11.3381 10.129 11.129 10.3381 11.0219 10.5997C10.9815 10.6982 10.8918 10.7736 10.7854 10.7736H10.2712C10.1648 10.7736 10.0751 10.6982 10.0348 10.5997C9.877 10.2146 9.49848 9.9434 9.0566 9.9434C8.47306 9.9434 8 10.4165 8 11C8 11.5835 8.47306 12.0566 9.0566 12.0566C9.49848 12.0566 9.877 11.7854 10.0348 11.4003C10.0751 11.3018 10.1648 11.2264 10.2712 11.2264H10.7854C10.8918 11.2264 10.9815 11.3018 11.0219 11.4003C11.129 11.6619 11.3381 11.871 11.5997 11.9781C11.6982 12.0185 11.7736 12.1082 11.7736 12.2146V12.7288C11.7736 12.8352 11.6982 12.9249 11.5997 12.9652C11.2146 13.123 10.9434 13.5015 10.9434 13.9434C10.9434 14.5269 11.4165 15 12 15C12.5835 15 13.0566 14.5269 13.0566 13.9434C13.0566 13.5015 12.7854 13.123 12.4003 12.9652C12.3018 12.9249 12.2264 12.8352 12.2264 12.7288V12.2146C12.2264 12.1082 12.3018 12.0185 12.4003 11.9781C12.6619 11.871 12.871 11.6619 12.9781 11.4003C13.0185 11.3018 13.1082 11.2264 13.2146 11.2264H13.7288C13.8352 11.2264 13.9249 11.3018 13.9652 11.4003C14.123 11.7854 14.5015 12.0566 14.9434 12.0566C15.5269 12.0566 16 11.5835 16 11C16 10.4165 15.5269 9.9434 14.9434 9.9434C14.5015 9.9434 14.123 10.2146 13.9652 10.5997C13.9249 10.6982 13.8352 10.7736 13.7288 10.7736H13.2146C13.1082 10.7736 13.0185 10.6982 12.9781 10.5997C12.871 10.3381 12.6619 10.129 12.4003 10.0219C12.3018 9.98151 12.2264 9.89183 12.2264 9.78539V9.27121ZM12 8.66038C12.3335 8.66038 12.6038 8.39006 12.6038 8.0566C12.6038 7.72315 12.3335 7.45283 12 7.45283C11.6665 7.45283 11.3962 7.72315 11.3962 8.0566C11.3962 8.39006 11.6665 8.66038 12 8.66038ZM9.66038 11C9.66038 11.3335 9.39006 11.6038 9.0566 11.6038C8.72315 11.6038 8.45283 11.3335 8.45283 11C8.45283 10.6665 8.72315 10.3962 9.0566 10.3962C9.39006 10.3962 9.66038 10.6665 9.66038 11ZM12 11.6038C12.3335 11.6038 12.6038 11.3335 12.6038 11C12.6038 10.6665 12.3335 10.3962 12 10.3962C11.6665 10.3962 11.3962 10.6665 11.3962 11C11.3962 11.3335 11.6665 11.6038 12 11.6038ZM12.6038 13.9434C12.6038 14.2769 12.3335 14.5472 12 14.5472C11.6665 14.5472 11.3962 14.2769 11.3962 13.9434C11.3962 13.6099 11.6665 13.3396 12 13.3396C12.3335 13.3396 12.6038 13.6099 12.6038 13.9434ZM14.9434 11.6038C15.2769 11.6038 15.5472 11.3335 15.5472 11C15.5472 10.6665 15.2769 10.3962 14.9434 10.3962C14.6099 10.3962 14.3396 10.6665 14.3396 11C14.3396 11.3335 14.6099 11.6038 14.9434 11.6038Z" fill="#74BC1F"/>
</g>
<circle id="Ellipse 1" cx="18" cy="5" r="3" fill="#EC4F4F"/>
</g>
</svg>
