<svg xmlns="http://www.w3.org/2000/svg" width="18" height="19" viewBox="0 0 18 19" fill="none">
  <path d="M5.99159 4.04516L11.4726 9.66791L5.99159 15.2907C5.89346 15.3911 5.83853 15.526 5.83853 15.6664C5.83853 15.8068 5.89346 15.9417 5.99159 16.0422C6.03925 16.0908 6.09613 16.1294 6.15891 16.1558C6.2217 16.1822 6.28911 16.1958 6.35721 16.1958C6.42531 16.1958 6.49273 16.1822 6.55551 16.1558C6.61829 16.1294 6.67518 16.0908 6.72284 16.0422L12.5548 10.0605C12.6572 9.95549 12.7145 9.8146 12.7145 9.66791C12.7145 9.52122 12.6572 9.38033 12.5548 9.27529L6.72396 3.29366C6.67627 3.24468 6.61924 3.20574 6.55625 3.17916C6.49326 3.15257 6.42558 3.13887 6.35721 3.13887C6.28884 3.13887 6.22116 3.15257 6.15817 3.17916C6.09518 3.20574 6.03816 3.24468 5.99046 3.29366C5.89234 3.39412 5.8374 3.52898 5.8374 3.66941C5.8374 3.80984 5.89234 3.9447 5.99046 4.04516L5.99159 4.04516Z" fill="#666666"/>
</svg>