<svg width="16" height="21" viewBox="0 0 16 21" fill="none" xmlns="http://www.w3.org/2000/svg">
<path d="M13.438 20.105H2.56201C1.89897 20.105 1.26309 19.8416 0.794245 19.3727C0.325404 18.9039 0.0620117 18.268 0.0620117 17.605V16.778C0.0620117 12.809 3.62301 9.57796 8.00001 9.57796C12.377 9.57796 15.938 12.807 15.938 16.778V17.605C15.938 18.268 15.6746 18.9039 15.2058 19.3727C14.7369 19.8416 14.1011 20.105 13.438 20.105ZM8.00001 10.58C4.17401 10.58 1.06201 13.36 1.06201 16.78V17.607C1.06201 18.0048 1.22005 18.3863 1.50135 18.6676C1.78266 18.9489 2.16419 19.107 2.56201 19.107H13.438C13.8358 19.107 14.2174 18.9489 14.4987 18.6676C14.78 18.3863 14.938 18.0048 14.938 17.607V16.778C14.938 13.36 11.826 10.58 8.00001 10.58ZM8.00001 8.07896C7.22388 8.07916 6.46511 7.84919 5.81968 7.41813C5.17425 6.98708 4.67115 6.3743 4.374 5.6573C4.07684 4.9403 3.99899 4.15128 4.15029 3.39004C4.30158 2.62879 4.67523 1.92951 5.22397 1.38063C5.77271 0.831744 6.4719 0.45792 7.23311 0.306431C7.99432 0.154941 8.78336 0.232591 9.50043 0.52956C10.2175 0.826529 10.8304 1.32948 11.2616 1.9748C11.6928 2.62012 11.923 3.37882 11.923 4.15496C11.9222 5.19525 11.5087 6.19272 10.7732 6.92841C10.0377 7.66411 9.0403 8.0779 8.00001 8.07896ZM8.00001 1.23196C7.42161 1.23176 6.85615 1.40311 6.37515 1.72432C5.89415 2.04554 5.51921 2.5022 5.29778 3.03653C5.07634 3.57086 5.01836 4.15886 5.13115 4.72616C5.24394 5.29345 5.52244 5.81455 5.93143 6.22354C6.34042 6.63253 6.86152 6.91103 7.42881 7.02382C7.99611 7.13661 8.58411 7.07863 9.11844 6.85719C9.65277 6.63576 10.1094 6.26082 10.4306 5.77982C10.7519 5.29882 10.9232 4.73336 10.923 4.15496C10.9222 3.37997 10.614 2.63696 10.066 2.08896C9.51801 1.54097 8.775 1.23275 8.00001 1.23196Z" fill="#74BC1F"/>
</svg>
