<svg width="18" height="17" viewBox="0 0 18 17" fill="none" xmlns="http://www.w3.org/2000/svg">
<path d="M1.56031 5.06977L1.56029 5.06981C0.273069 7.72745 0.497914 10.8109 2.15283 13.2982C2.64636 14.036 3.64161 15.0312 4.3645 15.5148C6.04429 16.6264 7.9875 17.1058 9.93023 16.8856C13.1116 16.5234 15.8578 14.2863 16.8513 11.2519C18.0211 7.66904 16.6509 3.79735 13.4786 1.71665C12.4417 1.04171 11.1639 0.591145 9.87125 0.449147C6.43571 0.0723148 3.07277 1.94205 1.56031 5.06977ZM7.78146 16.2086L7.78116 16.2085C5.43597 15.8451 3.34057 14.3368 2.23548 12.1963C1.2651 10.3252 1.09579 8.2342 1.7627 6.23347C2.37515 4.38131 3.72905 2.8036 5.47125 1.90262C8.26348 0.454259 11.5342 0.822923 13.9674 2.86303L13.9675 2.86315C14.9838 3.71999 15.8097 4.9492 16.2427 6.24828L16.2427 6.24835C17.4473 9.87695 15.8293 13.7745 12.4053 15.5064L12.4052 15.5065C11.0007 16.2137 9.40283 16.4523 7.78146 16.2086Z" fill="#EC4F4F" stroke="#EC4F4F" stroke-width="0.133333"/>
<path d="M9.2518 13.4586L9.39489 13.3155L9.39489 11.1148L9.39489 8.91418L11.6054 8.91418L13.8209 8.91418L13.9245 8.8007C14.0626 8.65267 14.0676 8.40596 13.9343 8.27274C13.8406 8.17899 13.7715 8.17406 11.6153 8.17406L9.39489 8.17406L9.39489 5.99808C9.39489 4.44382 9.38009 3.7925 9.33568 3.71849C9.17286 3.40764 8.82746 3.40764 8.66464 3.71849C8.62023 3.7925 8.60543 4.44382 8.60543 5.99808L8.60543 8.17406L6.38504 8.17406C4.22881 8.17406 4.15973 8.17899 4.06598 8.27274C3.92782 8.4109 3.93769 8.67241 4.08078 8.80563C4.19427 8.91418 4.20414 8.91418 6.39985 8.91418L8.60543 8.91418L8.60543 11.1148L8.60542 13.3155L8.74852 13.4586C8.82746 13.5375 8.94095 13.6017 9.00016 13.6017C9.05937 13.6017 9.17286 13.5375 9.2518 13.4586Z" fill="#EC4F4F"/>
</svg>
