<svg width="18" height="18" viewBox="0 0 18 18" fill="none" xmlns="http://www.w3.org/2000/svg">
<g id="Group">
<path id="Vector" d="M5.14343 0.712257C4.56072 0.822939 4.08544 1.07035 3.65573 1.47727C3.18696 1.92325 2.90374 2.41807 2.78004 3.02682C2.72144 3.30352 2.71819 3.54116 2.71819 7.1188V10.9211H2.6368C2.43497 10.9211 2.17129 11.1066 2.0606 11.3247C2.00852 11.4289 1.98899 11.5396 1.97596 11.8326L1.95969 12.2069L1.79366 12.3404C1.42255 12.6334 1.11329 13.1282 0.940759 13.7044C0.85612 13.9778 0.849609 14.0364 0.849609 14.5996C0.849609 15.3125 0.895184 15.5241 1.15236 16.0483C1.4193 16.5886 1.80343 16.9793 2.26569 17.1844C3.213 17.6011 4.25472 17.1193 4.78534 16.019C5.01973 15.5307 5.07507 15.2637 5.07832 14.6159C5.07832 14.1374 5.06856 14.0234 5.00345 13.7858C4.84394 13.2063 4.5184 12.6627 4.13752 12.3437L3.93895 12.1809L3.92267 11.7837C3.90639 11.4191 3.89988 11.3768 3.81524 11.2531C3.70456 11.0838 3.51249 10.9536 3.3367 10.9308L3.20649 10.9113L3.213 7.03417L3.22277 3.15703L3.29764 2.92916C3.44739 2.48317 3.61992 2.20321 3.93895 1.88744C4.39144 1.43495 4.89602 1.20382 5.5178 1.16475C6.66368 1.09639 7.68586 1.82233 8.03093 2.95194C8.10255 3.18959 8.10255 3.20586 8.11557 5.69296L8.12534 8.19307L7.96908 8.05635C7.75097 7.86428 7.4352 7.68524 7.1292 7.58107C6.90458 7.50294 6.81668 7.48992 6.47813 7.48992C6.14934 7.48666 6.05167 7.49968 5.85961 7.56479C5.15319 7.79918 4.59978 8.40793 4.42725 9.13062C4.22216 10.0031 4.42725 10.9178 5.03275 11.8C5.22156 12.0767 5.53407 12.4511 5.57639 12.4511C5.58941 12.4511 5.67731 12.3827 5.77171 12.3013L5.94099 12.1548L5.73916 11.9205C4.70721 10.7225 4.54444 9.30966 5.33875 8.45025C5.8531 7.89684 6.66043 7.80894 7.3701 8.22563C7.61425 8.37212 7.97885 8.73672 8.18394 9.04598C8.27834 9.18596 8.36624 9.28687 8.37926 9.27385C8.39228 9.25758 8.47366 9.14038 8.56156 9.01668C8.78943 8.6944 9.0108 8.46652 9.28425 8.28422C9.587 8.08239 9.83766 7.98799 10.1437 7.96845C10.9412 7.90986 11.6314 8.45025 11.8364 9.29339C11.9048 9.56358 11.8885 10.1333 11.8039 10.449C11.5663 11.3605 10.8208 12.272 9.4991 13.2714C9.12148 13.5612 8.38902 14.0788 8.36298 14.0788C8.33694 14.0788 7.40265 13.4082 7.0706 13.1542C6.92411 13.0403 6.68321 12.845 6.53998 12.718L6.27629 12.4901L6.10702 12.6594L5.93774 12.832L6.12655 13.0045C6.42604 13.2812 6.8883 13.6393 7.51984 14.0885L8.10581 14.5085L8.16115 14.847C8.22625 15.2344 8.34996 15.573 8.54854 15.9115C8.7406 16.2403 9.26146 16.7514 9.59676 16.9402C10.7947 17.6141 12.2531 17.3992 13.1939 16.4096C13.7408 15.8301 14.0143 15.1172 14.0143 14.2546V13.916H13.7734H13.5357L13.5162 14.362C13.4967 14.847 13.4316 15.153 13.2786 15.4558C12.8261 16.3575 11.9081 16.8947 10.9217 16.8361C10.5571 16.8133 10.2543 16.7286 9.89625 16.5431C9.53165 16.3543 9.10195 15.9246 8.91314 15.56C8.76013 15.2637 8.65922 14.9577 8.62666 14.6973L8.60388 14.5182L9.18659 14.1048C10.5701 13.1184 11.3612 12.3632 11.8397 11.5754C12.6177 10.2928 12.5429 8.86042 11.6541 8.02705C11.2407 7.64292 10.8305 7.48666 10.2381 7.48666C9.90602 7.48992 9.83115 7.49968 9.57723 7.59083C9.25169 7.70477 9.00429 7.84475 8.77316 8.04984L8.61039 8.19307V5.80038C8.61039 3.17982 8.60713 3.10495 8.41507 2.58409C8.0993 1.71491 7.32126 1.0085 6.40976 0.764343C6.08097 0.676447 5.46571 0.650406 5.14343 0.712257ZM3.36926 11.4745C3.42134 11.5266 3.43437 11.5819 3.43437 11.7479V11.9563L3.29764 11.9237C3.14789 11.8912 2.61401 11.9074 2.50984 11.9465C2.4545 11.9725 2.45125 11.9595 2.46427 11.7512C2.4838 11.4387 2.52612 11.4094 2.96559 11.4094C3.26183 11.4094 3.31392 11.4191 3.36926 11.4745ZM3.33019 12.4348C3.56458 12.5064 3.87709 12.7278 4.06265 12.9589C4.98392 14.0918 4.69093 16.1231 3.52552 16.6993C2.89723 17.0086 2.22663 16.8002 1.77088 16.1524C1.46162 15.7097 1.31838 15.2181 1.31838 14.5899C1.31838 13.5579 1.849 12.6724 2.60425 12.4316C2.78655 12.373 3.12836 12.3762 3.33019 12.4348Z" fill="#74BC1F"/>
<path id="Vector_2" d="M13.1902 0.715272C12.6596 0.816189 12.1029 1.06034 11.709 1.35983C11.4193 1.58445 11.0189 2.02718 10.8431 2.32342C10.5176 2.86707 10.3613 3.4335 10.3613 4.08457C10.3613 4.73564 10.5176 5.30207 10.8431 5.84572C11.0222 6.14521 11.4193 6.58469 11.7156 6.81256C11.9727 7.01114 12.5229 7.28784 12.8094 7.35946L13.0372 7.41806V7.63291C13.0372 8.00402 13.1447 8.21562 13.4149 8.38165L13.5255 8.45326V10.4521V12.4541L13.7632 12.4443L13.9976 12.4346L14.0073 10.4228C14.0138 8.63882 14.0204 8.4142 14.0659 8.4142C14.092 8.4142 14.1831 8.34584 14.2678 8.25794C14.4468 8.08215 14.5021 7.93241 14.5021 7.62966V7.42131L14.717 7.36272C15.5634 7.14135 16.4033 6.44471 16.8102 5.62761C17.0706 5.10675 17.1715 4.67379 17.1715 4.08457C17.1715 3.31956 16.9567 2.65221 16.5172 2.06625C16.0354 1.42169 15.3746 0.975701 14.6063 0.773869C14.2027 0.669698 13.5679 0.643655 13.1902 0.715272ZM13.519 1.40541L13.5093 1.65607L13.2944 1.69514C12.6954 1.80582 12.0932 2.20297 11.7546 2.71406C11.5658 2.99402 11.4844 3.18284 11.3965 3.54744L11.3217 3.84042L11.0905 3.85018L10.8561 3.85995V3.7688C10.8561 3.59301 10.9896 3.12749 11.1133 2.86055C11.2696 2.53176 11.3998 2.33644 11.6342 2.08578C12.1355 1.55841 12.7019 1.27519 13.5028 1.158C13.5158 1.158 13.5255 1.26868 13.519 1.40541ZM14.4533 1.24264C15.5439 1.4933 16.3935 2.37551 16.6344 3.50837C16.7125 3.86972 16.719 3.8567 16.4456 3.8567H16.2047L16.1526 3.5865C16.0875 3.26422 15.8759 2.81498 15.6513 2.53827C15.329 2.14112 14.8342 1.82861 14.3524 1.72443C14.2092 1.69188 14.0757 1.66258 14.0562 1.65607C14.0269 1.64956 14.0138 1.56818 14.0138 1.40215V1.15475L14.1213 1.17428C14.1766 1.18404 14.3296 1.2166 14.4533 1.24264ZM14.3491 2.22576C14.9677 2.44061 15.4136 2.88009 15.6155 3.45954C15.6773 3.64184 15.6904 3.74276 15.6904 4.08457C15.6904 4.42638 15.6773 4.5273 15.6155 4.7096C15.4104 5.29882 14.9481 5.74155 14.3068 5.95966C14.0627 6.0443 13.4507 6.04104 13.2163 5.95966C12.9363 5.85874 12.7963 5.78712 12.5912 5.63412C11.5691 4.88213 11.5691 3.28701 12.5912 2.53502C12.8419 2.34946 13.1154 2.2225 13.3953 2.16391C13.6232 2.11833 14.131 2.14763 14.3491 2.22576ZM11.377 4.54683C11.5626 5.51367 12.3471 6.29822 13.2944 6.474L13.5093 6.51307L13.519 6.76048L13.5288 7.01114L13.4051 6.99486C12.3959 6.85163 11.5463 6.2266 11.1166 5.31184C10.9961 5.05467 10.8561 4.57938 10.8561 4.41662C10.8561 4.34825 10.8692 4.345 11.097 4.345H11.3347L11.377 4.54683ZM16.6832 4.39057C16.6832 4.48172 16.5888 4.88539 16.5205 5.0742C16.1754 6.07685 15.2248 6.8386 14.1375 6.99161L14.0138 7.01114V6.76699C14.0138 6.60096 14.0269 6.51958 14.0562 6.51307C14.0757 6.50656 14.2059 6.47726 14.3394 6.44796C15.2672 6.24287 16.0159 5.43229 16.1787 4.46545L16.1982 4.345H16.4391C16.6312 4.345 16.6832 4.35476 16.6832 4.39057ZM14.0138 7.66547C14.0138 7.79894 13.9976 7.84777 13.9325 7.90962C13.8901 7.95519 13.8153 7.991 13.7697 7.991C13.7241 7.991 13.6492 7.95519 13.6069 7.90962C13.5418 7.84777 13.5255 7.79894 13.5255 7.66547V7.5027H13.7697H14.0138V7.66547Z" fill="#74BC1F"/>
<path id="Vector_3" d="M13.4929 3.40486C13.2357 3.50904 13.0371 3.80527 13.0371 4.08849C13.0371 4.30009 13.1771 4.56377 13.3561 4.68748C13.4896 4.77863 13.5189 4.78514 13.8054 4.78514H14.1114L14.323 4.99674L14.5346 5.20508L14.6973 5.04557C14.7852 4.95767 14.8601 4.86978 14.8601 4.8535C14.8601 4.83397 14.7657 4.72328 14.6485 4.60609L14.4402 4.39449L14.476 4.25777C14.5509 3.95176 14.3913 3.59042 14.1146 3.44393C13.9584 3.36254 13.6491 3.34301 13.4929 3.40486ZM13.9454 3.942C13.9844 3.99083 14.0137 4.05268 14.0137 4.08523C14.0137 4.11779 13.9844 4.17964 13.9454 4.22847C13.8119 4.39775 13.5254 4.30334 13.5254 4.08523C13.5254 3.86712 13.8119 3.77272 13.9454 3.942Z" fill="#74BC1F"/>
<path id="Vector_4" d="M9.7832 8.78905V9.0332H10.0274H10.2715V8.78905V8.5449H10.0274H9.7832V8.78905Z" fill="#74BC1F"/>
<path id="Vector_5" d="M10.7598 9.27733V9.52148H11.0039H11.2481V9.27733V9.03318H11.0039H10.7598V9.27733Z" fill="#74BC1F"/>
<path id="Vector_6" d="M7.39913 10.4006L7.09638 10.8206L6.79689 10.8238H6.49414V11.068V11.3121H6.91408H7.33728L7.53911 11.0354C7.64979 10.8824 7.74745 10.7587 7.76048 10.7587C7.77024 10.7587 8.01439 11.0061 8.30087 11.3089C8.58734 11.6116 8.83149 11.8558 8.84451 11.8525C8.85428 11.8525 9.03658 11.6246 9.24492 11.3512L9.6258 10.8564H9.9318H10.2378V10.6122V10.3648L9.8081 10.3746L9.37839 10.3843L9.09843 10.7489C8.94543 10.9475 8.81196 11.1103 8.79894 11.107C8.78917 11.1038 8.53525 10.8499 8.23901 10.5406L7.69862 9.98067L7.39913 10.4006Z" fill="#74BC1F"/>
<path id="Vector_7" d="M13.5254 13.167V13.4307L13.763 13.4209L13.9974 13.4111V13.167V12.9228L13.763 12.9131L13.5254 12.9033V13.167Z" fill="#74BC1F"/>
</g>
</svg>
