<svg width="20" height="16" viewBox="0 0 20 16" fill="none" xmlns="http://www.w3.org/2000/svg">
<g id="Group">
<path id="Vector" d="M12.8508 0.177358C11.5573 0.368712 10.5125 0.877716 9.6093 1.75412C9.12326 2.22485 8.77499 2.69941 8.49179 3.27348C8.0976 4.07334 7.94068 4.70864 7.90624 5.60418L7.88328 6.21652L7.32835 7.09675C7.02601 7.57896 6.75046 8.03056 6.72367 8.09945C6.63182 8.31759 6.65478 8.71944 6.76959 8.94906C6.89206 9.19782 6.99922 9.28585 7.48909 9.54992L7.88711 9.76423L7.9139 9.96324C7.96365 10.3919 7.98278 10.4569 8.07846 10.5718C8.21624 10.7325 8.3808 10.7937 8.69462 10.7937H8.96635L8.75968 10.9927C8.45734 11.2874 8.45352 11.3678 8.68314 11.8883C8.78265 12.1141 8.92808 12.3934 9.00462 12.5121C9.31844 12.9981 9.77386 13.2392 10.501 13.3043C10.7689 13.3273 10.8072 13.3387 10.8225 13.4115C10.834 13.4536 10.8455 13.7674 10.8493 14.1042C10.8608 14.6974 10.8646 14.7242 10.9794 14.9653C11.1287 15.2829 11.4042 15.5585 11.7219 15.7077L11.9706 15.8264H13.8076H15.6446L15.9049 15.7039C16.3833 15.4781 16.6971 15.0495 16.7736 14.5175C16.7928 14.3759 16.8119 13.3885 16.8119 12.3207V10.3881L16.9382 10.2962C17.9983 9.52313 18.7752 8.27932 19.0775 6.87478C19.1962 6.31602 19.1962 5.24443 19.0775 4.68185C18.8403 3.5873 18.3274 2.63435 17.5582 1.85363C16.766 1.04994 15.8513 0.52945 14.795 0.284516C14.4506 0.204147 14.263 0.185012 13.6737 0.173531C13.2833 0.165876 12.9159 0.169703 12.8508 0.177358ZM14.5539 0.858581C15.2198 1.00784 15.7939 1.2566 16.3526 1.62783C16.7315 1.88042 17.4395 2.5846 17.6883 2.95966C18.0863 3.55286 18.381 4.27618 18.4996 4.93827C18.5724 5.34011 18.5647 6.28923 18.4843 6.69873C18.2394 7.94636 17.6194 8.94906 16.5287 9.85226C16.4062 9.95559 16.2799 10.0972 16.2531 10.1661C16.211 10.2694 16.1996 10.6751 16.1996 12.2786C16.1996 13.4497 16.1842 14.3491 16.1613 14.4716C16.1154 14.7203 15.9661 14.9423 15.7441 15.0992L15.5796 15.214L13.911 15.2255C12.7246 15.2332 12.1926 15.2255 12.0854 15.1949C11.8864 15.1375 11.7065 14.9959 11.5764 14.8007C11.4769 14.6514 11.4731 14.6285 11.454 13.9358C11.431 13.178 11.408 13.0862 11.2167 12.9139C11.0636 12.7685 10.9067 12.7188 10.5661 12.692C9.90399 12.646 9.63226 12.4509 9.33375 11.827L9.1577 11.4635L9.38733 11.2415C9.71263 10.92 9.77386 10.6483 9.57485 10.3957C9.44091 10.2235 9.31079 10.1814 8.91659 10.1814H8.55685L8.53006 10.0053C8.51858 9.90584 8.50709 9.77189 8.50709 9.703C8.50709 9.41214 8.45734 9.35856 7.95982 9.10597C7.43551 8.8419 7.33983 8.76919 7.28242 8.58932C7.22502 8.4171 7.27094 8.32142 7.94834 7.25366L8.50709 6.37343V5.85294C8.50709 5.23295 8.57981 4.75457 8.75968 4.21494C9.16918 2.97879 10.0456 1.94165 11.1861 1.34462C11.6224 1.11882 12.2347 0.904506 12.6825 0.824137C13.0843 0.755249 14.1865 0.774384 14.5539 0.858581Z" fill="#74BC1F"/>
<path id="Vector_2" d="M3.27554 8.05739C2.89665 8.1722 2.62876 8.40565 2.42975 8.77688C2.3379 8.95676 2.32642 9.01416 2.32642 9.3586C2.32642 9.72217 2.33407 9.75279 2.45654 9.98242C2.60579 10.258 2.79332 10.4417 3.08035 10.5909L3.28319 10.6981L4.81403 10.7096C5.65599 10.7172 6.38314 10.7096 6.42906 10.6981C6.54005 10.6713 6.63955 10.4799 6.60894 10.3536C6.59746 10.3001 6.54005 10.2235 6.4903 10.1814C6.39462 10.1087 6.32956 10.1049 4.94032 10.1049C3.34825 10.1049 3.34442 10.1049 3.12245 9.87143C2.9732 9.71069 2.91962 9.57675 2.91962 9.3586C2.91962 9.04861 3.06887 8.81898 3.35973 8.68503C3.48603 8.62763 3.60849 8.61232 4.02182 8.61232H4.53465L4.64564 8.50133C4.70687 8.4401 4.75662 8.35973 4.75662 8.32528C4.75662 8.24492 4.68391 8.10714 4.60737 8.04973C4.52317 7.98467 3.48985 7.9885 3.27554 8.05739Z" fill="#74BC1F"/>
<path id="Vector_3" d="M1.02136 11.0233C0.914202 11.0654 0.814697 11.207 0.814697 11.3142C0.814697 11.3601 0.849141 11.4405 0.895066 11.4979L0.971608 11.5974H1.71024C2.42973 11.5974 2.44887 11.5936 2.52924 11.5094C2.64405 11.3869 2.64022 11.2147 2.51393 11.0961C2.41825 11.008 2.39529 11.0042 1.75999 10.9966C1.39642 10.9927 1.06346 11.0042 1.02136 11.0233Z" fill="#74BC1F"/>
<path id="Vector_4" d="M3.87245 11.5515C3.09555 11.9571 3.14147 13.178 3.94899 13.5416C4.0638 13.5951 4.23219 13.6066 4.94021 13.6066H5.79748L5.89315 13.4956C5.96587 13.4076 5.98118 13.3579 5.96587 13.266C5.91994 13.0402 5.90081 13.0326 5.00527 13.0134C4.2054 12.9943 4.18627 12.9943 4.09059 12.9024C3.87245 12.6958 3.87627 12.3054 4.09442 12.137C4.1901 12.0605 4.23602 12.0567 5.89315 12.0567H7.59621L7.7072 11.9457C7.76843 11.8844 7.81818 11.8041 7.81818 11.7696C7.81818 11.6778 7.71485 11.4941 7.64596 11.4673C7.61152 11.4558 6.79252 11.4443 5.82809 11.4443H4.07528L3.87245 11.5515Z" fill="#74BC1F"/>
</g>
</svg>
