<svg width="176" height="50" viewBox="0 0 176 50" fill="none" xmlns="http://www.w3.org/2000/svg">
<g id="other / brown chart" opacity="0.15">
<path id="Vector 3" d="M34.1907 16.7832C19.3473 15.1921 13.4247 15.3069 1 19.9301V50H175V0C164.079 3.29994 152.239 4.63286 140.803 6.99301C122.337 10.8042 115.644 0.594612 98.0578 5.94406C81.9653 10.8392 84.5241 22.5273 67.8844 24.1259C53.0054 25.5553 49.0342 18.3743 34.1907 16.7832Z" fill="url(#paint0_linear_4654_74465)" fill-opacity="0.4"/>
<path id="Vector 4" d="M1 32.6952C13.4247 28.0721 22.7412 26.9705 36.7321 28.4702C51.5756 30.0613 55.5138 42.5746 70.3929 41.1452C87.0326 39.5467 83.217 24.2429 97.8393 18.6118C114.631 12.1452 128.569 19.2543 147.036 15.443C158.471 13.0829 164.079 10.293 175 6.99301" stroke="#BC581F"/>
</g>
<defs>
<linearGradient id="paint0_linear_4654_74465" x1="88.5088" y1="-13.2867" x2="88.5088" y2="47.5525" gradientUnits="userSpaceOnUse">
<stop stop-color="#BC581F"/>
<stop offset="1" stop-color="#BC581F" stop-opacity="0"/>
</linearGradient>
</defs>
</svg>
