<svg width="13" height="14" viewBox="0 0 13 14" fill="none" xmlns="http://www.w3.org/2000/svg">
<rect width="13" height="14" fill="#F5F5F5"/>
<path d="M-6729 451C-6732.87 451 -6736 447.866 -6736 444H-6746C-6746 453.389 -6738.39 461 -6729 461V451ZM-6736 444V434.013H-6746V444H-6736ZM-6736 414.04V394.067H-6746V414.04H-6736ZM-6736 374.093V354.12H-6746V374.093H-6736ZM-6736 334.147V314.173H-6746V334.147H-6736ZM-6736 294.2V274.227H-6746V294.2H-6736ZM-6736 254.253V234.28H-6746V254.253H-6736ZM-6736 214.307V194.333H-6746V214.307H-6736ZM-6736 174.36V154.387H-6746V174.36H-6736ZM-6736 134.413V114.44H-6746V134.413H-6736ZM-6736 94.4668V74.4934H-6746V94.4668H-6736ZM-6736 54.52V34.5466H-6746V54.52H-6736ZM-6736 14.5735V-5.3999H-6746V14.5735H-6736ZM-6736 -25.3733V-45.3467H-6746V-25.3733H-6736ZM-6736 -65.3198V-85.2932H-6746V-65.3198H-6736ZM-6736 -105.267V-125.24H-6746V-105.267H-6736ZM-6736 -145.213V-165.187H-6746V-145.213H-6736ZM-6736 -185.16V-205.133H-6746V-185.16H-6736ZM-6736 -225.107V-245.08H-6746V-225.107H-6736ZM-6736 -265.053V-285.027H-6746V-265.053H-6736ZM-6736 -305V-324.973H-6746V-305H-6736ZM-6736 -344.947V-364.92H-6746V-344.947H-6736ZM-6736 -384.893V-404.866H-6746V-384.893H-6736ZM-6736 -424.84V-444.813H-6746V-424.84H-6736ZM-6736 -464.787V-484.76H-6746V-464.787H-6736ZM-6736 -504.733V-524.707H-6746V-504.733H-6736ZM-6736 -544.68V-564.653H-6746V-544.68H-6736ZM-6736 -584.626V-604.6H-6746V-584.626H-6736ZM-6736 -624.573V-644.547H-6746V-624.573H-6736ZM-6736 -664.52V-684.493H-6746V-664.52H-6736ZM-6736 -704.467V-724.44H-6746V-704.467H-6736ZM-6736 -744.414V-764.387H-6746V-744.414H-6736ZM-6736 -784.36V-804.334H-6746V-784.36H-6736ZM-6736 -824.307V-844.281H-6746V-824.307H-6736ZM-6736 -864.254V-884.227H-6746V-864.254H-6736ZM-6736 -904.201V-924.174H-6746V-904.201H-6736ZM-6736 -944.148V-964.121H-6746V-944.148H-6736ZM-6736 -984.094V-1004.07H-6746V-984.094H-6736ZM-6736 -1024.04V-1044.01H-6746V-1024.04H-6736ZM-6736 -1063.99V-1083.96H-6746V-1063.99H-6736ZM-6736 -1103.93V-1123.91H-6746V-1103.93H-6736ZM-6736 -1143.88V-1163.85H-6746V-1143.88H-6736ZM-6736 -1183.83V-1203.8H-6746V-1183.83H-6736ZM-6736 -1223.78V-1243.75H-6746V-1223.78H-6736ZM-6736 -1263.72V-1283.7H-6746V-1263.72H-6736ZM-6736 -1303.67V-1323.64H-6746V-1303.67H-6736ZM-6736 -1343.62V-1363.59H-6746V-1343.62H-6736ZM-6736 -1383.56V-1403.54H-6746V-1383.56H-6736ZM-6736 -1423.51V-1443.48H-6746V-1423.51H-6736ZM-6736 -1463.46V-1483.43H-6746V-1463.46H-6736ZM-6736 -1503.4V-1523.38H-6746V-1503.4H-6736ZM-6736 -1543.35V-1563.32H-6746V-1543.35H-6736ZM-6736 -1583.3V-1603.27H-6746V-1583.3H-6736ZM-6736 -1623.24V-1643.22H-6746V-1623.24H-6736ZM-6736 -1663.19V-1683.16H-6746V-1663.19H-6736ZM-6736 -1703.14V-1723.11H-6746V-1703.14H-6736ZM-6736 -1743.08V-1763.06H-6746V-1743.08H-6736ZM-6736 -1783.03V-1803H-6746V-1783.03H-6736ZM-6736 -1822.98V-1842.95H-6746V-1822.98H-6736ZM-6736 -1862.92V-1882.9H-6746V-1862.92H-6736ZM-6736 -1902.87V-1922.84H-6746V-1902.87H-6736ZM-6736 -1942.82V-1962.79H-6746V-1942.82H-6736ZM-6736 -1982.76V-2002.74H-6746V-1982.76H-6736ZM-6736 -2022.71V-2042.68H-6746V-2022.71H-6736ZM-6736 -2062.66V-2082.63H-6746V-2062.66H-6736ZM-6736 -2102.6V-2122.58H-6746V-2102.6H-6736ZM-6736 -2142.55V-2162.52H-6746V-2142.55H-6736ZM-6736 -2182.5V-2202.47H-6746V-2182.5H-6736ZM-6736 -2222.44V-2242.42H-6746V-2222.44H-6736ZM-6736 -2262.39V-2282.36H-6746V-2262.39H-6736ZM-6736 -2302.34V-2322.31H-6746V-2302.34H-6736ZM-6736 -2342.28V-2362.26H-6746V-2342.28H-6736ZM-6736 -2382.23V-2402.2H-6746V-2382.23H-6736ZM-6736 -2422.18V-2442.15H-6746V-2422.18H-6736ZM-6736 -2462.13V-2482.1H-6746V-2462.13H-6736ZM-6736 -2502.07V-2522.05H-6746V-2502.07H-6736ZM-6736 -2542.02V-2552H-6746V-2542.02H-6736ZM-6736 -2552C-6736 -2555.87 -6732.87 -2559 -6729 -2559V-2569C-6738.39 -2569 -6746 -2561.39 -6746 -2552H-6736ZM-6729 -2559H-6718.99V-2569H-6729V-2559ZM-6698.97 -2559H-6678.95V-2569H-6698.97V-2559ZM-6658.94 -2559H-6638.92V-2569H-6658.94V-2559ZM-6618.9 -2559H-6598.88V-2569H-6618.9V-2559ZM-6578.86 -2559H-6558.84V-2569H-6578.86V-2559ZM-6538.83 -2559H-6518.81V-2569H-6538.83V-2559ZM-6498.79 -2559H-6478.77V-2569H-6498.79V-2559ZM-6458.75 -2559H-6438.73V-2569H-6458.75V-2559ZM-6418.72 -2559H-6398.7V-2569H-6418.72V-2559ZM-6378.68 -2559H-6358.66V-2569H-6378.68V-2559ZM-6338.64 -2559H-6318.62V-2569H-6338.64V-2559ZM-6298.61 -2559H-6278.59V-2569H-6298.61V-2559ZM-6258.57 -2559H-6238.55V-2569H-6258.57V-2559ZM-6218.53 -2559H-6198.51V-2569H-6218.53V-2559ZM-6178.49 -2559H-6158.48V-2569H-6178.49V-2559ZM-6138.46 -2559H-6118.44V-2569H-6138.46V-2559ZM-6098.42 -2559H-6078.4V-2569H-6098.42V-2559ZM-6058.38 -2559H-6038.37V-2569H-6058.38V-2559ZM-6018.35 -2559H-5998.33V-2569H-6018.35V-2559ZM-5978.31 -2559H-5958.29V-2569H-5978.31V-2559ZM-5938.27 -2559H-5918.26V-2569H-5938.27V-2559ZM-5898.24 -2559H-5878.22V-2569H-5898.24V-2559ZM-5858.2 -2559H-5838.18V-2569H-5858.2V-2559ZM-5818.16 -2559H-5798.15V-2569H-5818.16V-2559ZM-5778.13 -2559H-5758.11V-2569H-5778.13V-2559ZM-5738.09 -2559H-5718.07V-2569H-5738.09V-2559ZM-5698.05 -2559H-5678.04V-2569H-5698.05V-2559ZM-5658.02 -2559H-5638V-2569H-5658.02V-2559ZM-5617.98 -2559H-5597.96V-2569H-5617.98V-2559ZM-5577.94 -2559H-5557.93V-2569H-5577.94V-2559ZM-5537.91 -2559H-5517.89V-2569H-5537.91V-2559ZM-5497.87 -2559H-5477.85V-2569H-5497.87V-2559ZM-5457.83 -2559H-5437.82V-2569H-5457.83V-2559ZM-5417.8 -2559H-5397.78V-2569H-5417.8V-2559ZM-5377.76 -2559H-5357.74V-2569H-5377.76V-2559ZM-5337.72 -2559H-5317.71V-2569H-5337.72V-2559ZM-5297.69 -2559H-5277.67V-2569H-5297.69V-2559ZM-5257.65 -2559H-5237.63V-2569H-5257.65V-2559ZM-5217.61 -2559H-5197.6V-2569H-5217.61V-2559ZM-5177.58 -2559H-5157.56V-2569H-5177.58V-2559ZM-5137.54 -2559H-5117.52V-2569H-5137.54V-2559ZM-5097.5 -2559H-5077.49V-2569H-5097.5V-2559ZM-5057.47 -2559H-5037.45V-2569H-5057.47V-2559ZM-5017.43 -2559H-4997.41V-2569H-5017.43V-2559ZM-4977.39 -2559H-4957.38V-2569H-4977.39V-2559ZM-4937.36 -2559H-4917.34V-2569H-4937.36V-2559ZM-4897.32 -2559H-4877.3V-2569H-4897.32V-2559ZM-4857.29 -2559H-4837.27V-2569H-4857.29V-2559ZM-4817.25 -2559H-4797.23V-2569H-4817.25V-2559ZM-4777.21 -2559H-4757.19V-2569H-4777.21V-2559ZM-4737.18 -2559H-4717.16V-2569H-4737.18V-2559ZM-4697.14 -2559H-4677.12V-2569H-4697.14V-2559ZM-4657.1 -2559H-4637.08V-2569H-4657.1V-2559ZM-4617.07 -2559H-4597.05V-2569H-4617.07V-2559ZM-4577.03 -2559H-4557.01V-2569H-4577.03V-2559ZM-4536.99 -2559H-4516.97V-2569H-4536.99V-2559ZM-4496.96 -2559H-4476.94V-2569H-4496.96V-2559ZM-4456.92 -2559H-4436.9V-2569H-4456.92V-2559ZM-4416.88 -2559H-4396.86V-2569H-4416.88V-2559ZM-4376.85 -2559H-4356.83V-2569H-4376.85V-2559ZM-4336.81 -2559H-4316.79V-2569H-4336.81V-2559ZM-4296.77 -2559H-4276.75V-2569H-4296.77V-2559ZM-4256.74 -2559H-4236.72V-2569H-4256.74V-2559ZM-4216.7 -2559H-4196.68V-2569H-4216.7V-2559ZM-4176.66 -2559H-4156.64V-2569H-4176.66V-2559ZM-4136.63 -2559H-4116.61V-2569H-4136.63V-2559ZM-4096.59 -2559H-4076.57V-2569H-4096.59V-2559ZM-4056.55 -2559H-4036.53V-2569H-4056.55V-2559ZM-4016.52 -2559H-3996.5V-2569H-4016.52V-2559ZM-3976.48 -2559H-3956.46V-2569H-3976.48V-2559ZM-3936.44 -2559H-3916.42V-2569H-3936.44V-2559ZM-3896.41 -2559H-3876.39V-2569H-3896.41V-2559ZM-3856.37 -2559H-3836.35V-2569H-3856.37V-2559ZM-3816.33 -2559H-3796.31V-2569H-3816.33V-2559ZM-3776.3 -2559H-3756.28V-2569H-3776.3V-2559ZM-3736.26 -2559H-3716.24V-2569H-3736.26V-2559ZM-3696.22 -2559H-3676.2V-2569H-3696.22V-2559ZM-3656.19 -2559H-3636.17V-2569H-3656.19V-2559ZM-3616.15 -2559H-3596.13V-2569H-3616.15V-2559ZM-3576.11 -2559H-3556.09V-2569H-3576.11V-2559ZM-3536.08 -2559H-3516.06V-2569H-3536.08V-2559ZM-3496.04 -2559H-3476.02V-2569H-3496.04V-2559ZM-3456 -2559H-3435.98V-2569H-3456V-2559ZM-3415.97 -2559H-3395.95V-2569H-3415.97V-2559ZM-3375.93 -2559H-3355.91V-2569H-3375.93V-2559ZM-3335.89 -2559H-3315.88V-2569H-3335.89V-2559ZM-3295.86 -2559H-3275.84V-2569H-3295.86V-2559ZM-3255.82 -2559H-3235.8V-2569H-3255.82V-2559ZM-3215.78 -2559H-3195.77V-2569H-3215.78V-2559ZM-3175.75 -2559H-3155.73V-2569H-3175.75V-2559ZM-3135.71 -2559H-3115.69V-2569H-3135.71V-2559ZM-3095.67 -2559H-3075.66V-2569H-3095.67V-2559ZM-3055.64 -2559H-3035.62V-2569H-3055.64V-2559ZM-3015.6 -2559H-2995.58V-2569H-3015.6V-2559ZM-2975.56 -2559H-2955.55V-2569H-2975.56V-2559ZM-2935.53 -2559H-2915.51V-2569H-2935.53V-2559ZM-2895.49 -2559H-2875.47V-2569H-2895.49V-2559ZM-2855.45 -2559H-2835.44V-2569H-2855.45V-2559ZM-2815.42 -2559H-2795.4V-2569H-2815.42V-2559ZM-2775.38 -2559H-2755.36V-2569H-2775.38V-2559ZM-2735.34 -2559H-2715.33V-2569H-2735.34V-2559ZM-2695.31 -2559H-2675.29V-2569H-2695.31V-2559ZM-2655.27 -2559H-2635.25V-2569H-2655.27V-2559ZM-2615.23 -2559H-2595.22V-2569H-2615.23V-2559ZM-2575.2 -2559H-2555.18V-2569H-2575.2V-2559ZM-2535.16 -2559H-2515.14V-2569H-2535.16V-2559ZM-2495.12 -2559H-2475.1V-2569H-2495.12V-2559ZM-2455.09 -2559H-2435.07V-2569H-2455.09V-2559ZM-2415.05 -2559H-2395.03V-2569H-2415.05V-2559ZM-2375.01 -2559H-2354.99V-2569H-2375.01V-2559ZM-2334.97 -2559H-2314.96V-2569H-2334.97V-2559ZM-2294.94 -2559H-2274.92V-2569H-2294.94V-2559ZM-2254.9 -2559H-2234.88V-2569H-2254.9V-2559ZM-2214.86 -2559H-2194.84V-2569H-2214.86V-2559ZM-2174.83 -2559H-2154.81V-2569H-2174.83V-2559ZM-2134.79 -2559H-2114.77V-2569H-2134.79V-2559ZM-2094.75 -2559H-2074.73V-2569H-2094.75V-2559ZM-2054.71 -2559H-2034.7V-2569H-2054.71V-2559ZM-2014.68 -2559H-1994.66V-2569H-2014.68V-2559ZM-1974.64 -2559H-1954.62V-2569H-1974.64V-2559ZM-1934.6 -2559H-1914.58V-2569H-1934.6V-2559ZM-1894.57 -2559H-1874.55V-2569H-1894.57V-2559ZM-1854.53 -2559H-1834.51V-2569H-1854.53V-2559ZM-1814.49 -2559H-1794.47V-2569H-1814.49V-2559ZM-1774.45 -2559H-1754.44V-2569H-1774.45V-2559ZM-1734.42 -2559H-1714.4V-2569H-1734.42V-2559ZM-1694.38 -2559H-1674.36V-2569H-1694.38V-2559ZM-1654.34 -2559H-1634.32V-2569H-1654.34V-2559ZM-1614.31 -2559H-1594.29V-2569H-1614.31V-2559ZM-1574.27 -2559H-1554.25V-2569H-1574.27V-2559ZM-1534.23 -2559H-1514.21V-2569H-1534.23V-2559ZM-1494.19 -2559H-1474.18V-2569H-1494.19V-2559ZM-1454.16 -2559H-1434.14V-2569H-1454.16V-2559ZM-1414.12 -2559H-1394.1V-2569H-1414.12V-2559ZM-1374.08 -2559H-1354.07V-2569H-1374.08V-2559ZM-1334.05 -2559H-1314.03V-2569H-1334.05V-2559ZM-1294.01 -2559H-1273.99V-2569H-1294.01V-2559ZM-1253.97 -2559H-1233.95V-2569H-1253.97V-2559ZM-1213.94 -2559H-1193.92V-2569H-1213.94V-2559ZM-1173.9 -2559H-1153.88V-2569H-1173.9V-2559ZM-1133.86 -2559H-1113.84V-2569H-1133.86V-2559ZM-1093.82 -2559H-1073.81V-2569H-1093.82V-2559ZM-1053.79 -2559H-1033.77V-2569H-1053.79V-2559ZM-1013.75 -2559H-993.731V-2569H-1013.75V-2559ZM-973.712 -2559H-953.694V-2569H-973.712V-2559ZM-933.675 -2559H-913.657V-2569H-933.675V-2559ZM-893.638 -2559H-873.62V-2569H-893.638V-2559ZM-853.601 -2559H-833.583V-2569H-853.601V-2559ZM-813.564 -2559H-793.546V-2569H-813.564V-2559ZM-773.527 -2559H-753.508V-2569H-773.527V-2559ZM-733.49 -2559H-713.471V-2569H-733.49V-2559ZM-693.453 -2559H-673.434V-2569H-693.453V-2559ZM-653.416 -2559H-633.397V-2569H-653.416V-2559ZM-613.379 -2559H-593.36V-2569H-613.379V-2559ZM-573.342 -2559H-553.323V-2569H-573.342V-2559ZM-533.305 -2559H-513.286V-2569H-533.305V-2559ZM-493.267 -2559H-473.249V-2569H-493.267V-2559ZM-453.23 -2559H-433.211V-2569H-453.23V-2559ZM-413.193 -2559H-393.175V-2569H-413.193V-2559ZM-373.156 -2559H-353.138V-2569H-373.156V-2559ZM-333.119 -2559H-313.101V-2569H-333.119V-2559ZM-293.082 -2559H-273.063V-2569H-293.082V-2559ZM-253.044 -2559H-233.026V-2569H-253.044V-2559ZM-213.007 -2559H-192.989V-2569H-213.007V-2559ZM-172.97 -2559H-152.952V-2569H-172.97V-2559ZM-132.934 -2559H-112.915V-2569H-132.934V-2559ZM-92.8965 -2559H-72.8774V-2569H-92.8965V-2559ZM-52.8594 -2559H-32.8403V-2569H-52.8594V-2559ZM-12.8223 -2559H7.19678V-2569H-12.8223V-2559ZM27.2148 -2559H47.2339V-2569H27.2148V-2559ZM67.2524 -2559H87.271V-2569H67.2524V-2559ZM107.29 -2559H127.308V-2569H107.29V-2559ZM147.327 -2559H167.345V-2569H147.327V-2559ZM187.364 -2559H207.382V-2569H187.364V-2559ZM227.401 -2559H247.419V-2569H227.401V-2559ZM267.438 -2559H287.456V-2569H267.438V-2559ZM307.475 -2559H327.494V-2569H307.475V-2559ZM347.512 -2559H367.531V-2569H347.512V-2559ZM387.549 -2559H407.568V-2569H387.549V-2559ZM427.586 -2559H447.605V-2569H427.586V-2559ZM467.623 -2559H487.642V-2569H467.623V-2559ZM507.66 -2559H527.679V-2569H507.66V-2559ZM547.697 -2559H567.716V-2569H547.697V-2559ZM587.735 -2559H607.753V-2569H587.735V-2559ZM627.772 -2559H647.79V-2569H627.772V-2559ZM667.809 -2559H687.827V-2569H667.809V-2559ZM707.846 -2559H727.864V-2569H707.846V-2559ZM747.883 -2559H767.901V-2569H747.883V-2559ZM787.92 -2559H807.938V-2569H787.92V-2559ZM827.958 -2559H847.976V-2569H827.958V-2559ZM867.995 -2559H888.013V-2569H867.995V-2559ZM908.031 -2559H928.05V-2569H908.031V-2559ZM948.068 -2559H968.087V-2569H948.068V-2559ZM988.105 -2559H1008.12V-2569H988.105V-2559ZM1028.14 -2559H1048.16V-2569H1028.14V-2559ZM1068.18 -2559H1088.2V-2569H1068.18V-2559ZM1108.22 -2559H1128.24V-2569H1108.22V-2559ZM1148.25 -2559H1168.27V-2569H1148.25V-2559ZM1188.29 -2559H1208.31V-2569H1188.29V-2559ZM1228.33 -2559H1248.35V-2569H1228.33V-2559ZM1268.37 -2559H1288.38V-2569H1268.37V-2559ZM1308.4 -2559H1328.42V-2569H1308.4V-2559ZM1348.44 -2559H1368.46V-2569H1348.44V-2559ZM1388.48 -2559H1408.5V-2569H1388.48V-2559ZM1428.51 -2559H1448.53V-2569H1428.51V-2559ZM1468.55 -2559H1488.57V-2569H1468.55V-2559ZM1508.59 -2559H1528.61V-2569H1508.59V-2559ZM1548.62 -2559H1568.64V-2569H1548.62V-2559ZM1588.66 -2559H1608.68V-2569H1588.66V-2559ZM1628.7 -2559H1648.72V-2569H1628.7V-2559ZM1668.74 -2559H1688.75V-2569H1668.74V-2559ZM1708.77 -2559H1728.79V-2569H1708.77V-2559ZM1748.81 -2559H1768.83V-2569H1748.81V-2559ZM1788.85 -2559H1808.87V-2569H1788.85V-2559ZM1828.88 -2559H1848.9V-2569H1828.88V-2559ZM1868.92 -2559H1888.94V-2569H1868.92V-2559ZM1908.96 -2559H1928.98V-2569H1908.96V-2559ZM1949 -2559H1969.01V-2569H1949V-2559ZM1989.03 -2559H2009.05V-2569H1989.03V-2559ZM2029.07 -2559H2049.09V-2569H2029.07V-2559ZM2069.11 -2559H2089.13V-2569H2069.11V-2559ZM2109.14 -2559H2129.16V-2569H2109.14V-2559ZM2149.18 -2559H2169.2V-2569H2149.18V-2559ZM2189.22 -2559H2209.24V-2569H2189.22V-2559ZM2229.26 -2559H2249.27V-2569H2229.26V-2559ZM2269.29 -2559H2289.31V-2569H2269.29V-2559ZM2309.33 -2559H2329.35V-2569H2309.33V-2559ZM2349.37 -2559H2369.39V-2569H2349.37V-2559ZM2389.4 -2559H2409.42V-2569H2389.4V-2559ZM2429.44 -2559H2449.46V-2569H2429.44V-2559ZM2469.48 -2559H2489.5V-2569H2469.48V-2559ZM2509.52 -2559H2529.53V-2569H2509.52V-2559ZM2549.55 -2559H2569.57V-2569H2549.55V-2559ZM2589.59 -2559H2609.61V-2569H2589.59V-2559ZM2629.63 -2559H2649.65V-2569H2629.63V-2559ZM2669.66 -2559H2689.68V-2569H2669.66V-2559ZM2709.7 -2559H2729.72V-2569H2709.7V-2559ZM2749.74 -2559H2769.76V-2569H2749.74V-2559ZM2789.78 -2559H2809.79V-2569H2789.78V-2559ZM2829.81 -2559H2849.83V-2569H2829.81V-2559ZM2869.85 -2559H2889.87V-2569H2869.85V-2559ZM2909.89 -2559H2929.9V-2569H2909.89V-2559ZM2949.92 -2559H2969.94V-2569H2949.92V-2559ZM2989.96 -2559H3009.98V-2569H2989.96V-2559ZM3030 -2559H3050.02V-2569H3030V-2559ZM3070.04 -2559H3080V-2569H3070.04V-2559ZM3080 -2559C3083.87 -2559 3087 -2555.87 3087 -2552H3097C3097 -2561.39 3089.39 -2569 3080 -2569V-2559ZM3087 -2552V-2542.01H3097V-2552H3087ZM3087 -2522.04V-2502.07H3097V-2522.04H3087ZM3087 -2482.09V-2462.12H3097V-2482.09H3087ZM3087 -2442.15V-2422.17H3097V-2442.15H3087ZM3087 -2402.2V-2382.23H3097V-2402.2H3087ZM3087 -2362.25V-2342.28H3097V-2362.25H3087ZM3087 -2322.31V-2302.33H3097V-2322.31H3087ZM3087 -2282.36V-2262.39H3097V-2282.36H3087ZM3087 -2242.41V-2222.44H3097V-2242.41H3087ZM3087 -2202.47V-2182.49H3097V-2202.47H3087ZM3087 -2162.52V-2142.55H3097V-2162.52H3087ZM3087 -2122.57V-2102.6H3097V-2122.57H3087ZM3087 -2082.63V-2062.65H3097V-2082.63H3087ZM3087 -2042.68V-2022.71H3097V-2042.68H3087ZM3087 -2002.73V-1982.76H3097V-2002.73H3087ZM3087 -1962.79V-1942.81H3097V-1962.79H3087ZM3087 -1922.84V-1902.87H3097V-1922.84H3087ZM3087 -1882.89V-1862.92H3097V-1882.89H3087ZM3087 -1842.95V-1822.97H3097V-1842.95H3087ZM3087 -1803V-1783.03H3097V-1803H3087ZM3087 -1763.05V-1743.08H3097V-1763.05H3087ZM3087 -1723.11V-1703.13H3097V-1723.11H3087ZM3087 -1683.16V-1663.19H3097V-1683.16H3087ZM3087 -1643.21V-1623.24H3097V-1643.21H3087ZM3087 -1603.27V-1583.29H3097V-1603.27H3087ZM3087 -1563.32V-1543.35H3097V-1563.32H3087ZM3087 -1523.37V-1503.4H3097V-1523.37H3087ZM3087 -1483.43V-1463.45H3097V-1483.43H3087ZM3087 -1443.48V-1423.51H3097V-1443.48H3087ZM3087 -1403.53V-1383.56H3097V-1403.53H3087ZM3087 -1363.59V-1343.61H3097V-1363.59H3087ZM3087 -1323.64V-1303.67H3097V-1323.64H3087ZM3087 -1283.69V-1263.72H3097V-1283.69H3087ZM3087 -1243.75V-1223.77H3097V-1243.75H3087ZM3087 -1203.8V-1183.83H3097V-1203.8H3087ZM3087 -1163.85V-1143.88H3097V-1163.85H3087ZM3087 -1123.91V-1103.93H3097V-1123.91H3087ZM3087 -1083.96V-1063.99H3097V-1083.96H3087ZM3087 -1044.01V-1024.04H3097V-1044.01H3087ZM3087 -1004.07V-984.092H3097V-1004.07H3087ZM3087 -964.119V-944.145H3097V-964.119H3087ZM3087 -924.172V-904.198H3097V-924.172H3087ZM3087 -884.225V-864.252H3097V-884.225H3087ZM3087 -844.278V-824.305H3097V-844.278H3087ZM3087 -804.332V-784.358H3097V-804.332H3087ZM3087 -764.385V-744.411H3097V-764.385H3087ZM3087 -724.438V-704.465H3097V-724.438H3087ZM3087 -684.491V-664.518H3097V-684.491H3087ZM3087 -644.544V-624.571H3097V-644.544H3087ZM3087 -604.598V-584.624H3097V-604.598H3087ZM3087 -564.651V-544.677H3097V-564.651H3087ZM3087 -524.704V-504.73H3097V-524.704H3087ZM3087 -484.757V-464.784H3097V-484.757H3087ZM3087 -444.811V-424.837H3097V-444.811H3087ZM3087 -404.864V-384.89H3097V-404.864H3087ZM3087 -364.917V-344.944H3097V-364.917H3087ZM3087 -324.97V-304.997H3097V-324.97H3087ZM3087 -285.023V-265.05H3097V-285.023H3087ZM3087 -245.077V-225.103H3097V-245.077H3087ZM3087 -205.13V-185.156H3097V-205.13H3087ZM3087 -165.183V-145.21H3097V-165.183H3087ZM3087 -125.236V-105.263H3097V-125.236H3087ZM3087 -85.2896V-65.3162H3097V-85.2896H3087ZM3087 -45.3428V-25.3691H3097V-45.3428H3087ZM3087 -5.396V14.5774H3097V-5.396H3087ZM3087 34.5508V54.5242H3097V34.5508H3087ZM3087 74.4978V94.4709H3097V74.4978H3087ZM3087 114.445V134.418H3097V114.445H3087ZM3087 154.391V174.365H3097V154.391H3087ZM3087 194.338V214.312H3097V194.338H3087ZM3087 234.285V254.258H3097V234.285H3087ZM3087 274.231V294.205H3097V274.231H3087ZM3087 314.178V334.152H3097V314.178H3087ZM3087 354.125V374.098H3097V354.125H3087ZM3087 394.072V414.045H3097V394.072H3087ZM3087 434.019V444H3097V434.019H3087ZM3087 444C3087 447.866 3083.87 451 3080 451V461C3089.39 461 3097 453.389 3097 444H3087ZM3080 451H3069.99V461H3080V451ZM3049.97 451H3029.95V461H3049.97V451ZM3009.94 451H2989.92V461H3009.94V451ZM2969.9 451H2949.88V461H2969.9V451ZM2929.86 451H2909.84V461H2929.86V451ZM2889.83 451H2869.81V461H2889.83V451ZM2849.79 451H2829.77V461H2849.79V451ZM2809.75 451H2789.73V461H2809.75V451ZM2769.71 451H2749.7V461H2769.71V451ZM2729.68 451H2709.66V461H2729.68V451ZM2689.64 451H2669.62V461H2689.64V451ZM2649.61 451H2629.59V461H2649.61V451ZM2609.57 451H2589.55V461H2609.57V451ZM2569.53 451H2549.51V461H2569.53V451ZM2529.5 451H2509.48V461H2529.5V451ZM2489.46 451H2469.44V461H2489.46V451ZM2449.42 451H2429.4V461H2449.42V451ZM2409.38 451H2389.37V461H2409.38V451ZM2369.35 451H2349.33V461H2369.35V451ZM2329.31 451H2309.29V461H2329.31V451ZM2289.27 451H2269.26V461H2289.27V451ZM2249.24 451H2229.22V461H2249.24V451ZM2209.2 451H2189.18V461H2209.2V451ZM2169.16 451H2149.15V461H2169.16V451ZM2129.13 451H2109.11V461H2129.13V451ZM2089.09 451H2069.07V461H2089.09V451ZM2049.05 451H2029.04V461H2049.05V451ZM2009.02 451H1989V461H2009.02V451ZM1968.98 451H1948.96V461H1968.98V451ZM1928.94 451H1908.93V461H1928.94V451ZM1888.91 451H1868.89V461H1888.91V451ZM1848.87 451H1828.85V461H1848.87V451ZM1808.83 451H1788.82V461H1808.83V451ZM1768.8 451H1748.78V461H1768.8V451ZM1728.76 451H1708.74V461H1728.76V451ZM1688.72 451H1668.71V461H1688.72V451ZM1648.69 451H1628.67V461H1648.69V451ZM1608.65 451H1588.63V461H1608.65V451ZM1568.61 451H1548.6V461H1568.61V451ZM1528.58 451H1508.56V461H1528.58V451ZM1488.54 451H1468.52V461H1488.54V451ZM1448.5 451H1428.49V461H1448.5V451ZM1408.47 451H1388.45V461H1408.47V451ZM1368.43 451H1348.41V461H1368.43V451ZM1328.39 451H1308.38V461H1328.39V451ZM1288.36 451H1268.34V461H1288.36V451ZM1248.32 451H1228.3V461H1248.32V451ZM1208.29 451H1188.27V461H1208.29V451ZM1168.25 451H1148.23V461H1168.25V451ZM1128.21 451H1108.19V461H1128.21V451ZM1088.18 451H1068.16V461H1088.18V451ZM1048.14 451H1028.12V461H1048.14V451ZM1008.1 451H988.083V461H1008.1V451ZM968.065 451H948.047V461H968.065V451ZM928.029 451H908.01V461H928.029V451ZM887.992 451H867.974V461H887.992V451ZM847.956 451H827.937V461H847.956V451ZM807.919 451H787.9V461H807.919V451ZM767.882 451H747.864V461H767.882V451ZM727.846 451H707.827V461H727.846V451ZM687.809 451H667.791V461H687.809V451ZM647.772 451H627.754V461H647.772V451ZM607.736 451H587.717V461H607.736V451ZM567.699 451H547.681V461H567.699V451ZM527.663 451H507.644V461H527.663V451ZM487.626 451H467.607V461H487.626V451ZM447.589 451H427.571V461H447.589V451ZM407.553 451H387.534V461H407.553V451ZM367.516 451H347.498V461H367.516V451ZM327.479 451H307.461V461H327.479V451ZM287.442 451H267.424V461H287.442V451ZM247.406 451H227.388V461H247.406V451ZM207.369 451H187.351V461H207.369V451ZM167.333 451H147.314V461H167.333V451ZM127.296 451H107.278V461H127.296V451ZM87.2598 451H67.2412V461H87.2598V451ZM47.2227 451H27.2046V461H47.2227V451ZM7.18652 451H-12.832V461H7.18652V451ZM-32.8506 451H-52.8687V461H-32.8506V451ZM-72.8867 451H-92.9053V461H-72.8867V451ZM-112.923 451H-132.942V461H-112.923V451ZM-152.96 451H-172.979V461H-152.96V451ZM-192.997 451H-213.015V461H-192.997V451ZM-233.033 451H-253.052V461H-233.033V451ZM-273.07 451H-293.088V461H-273.07V451ZM-313.106 451H-333.125V461H-313.106V451ZM-353.143 451H-373.162V461H-353.143V451ZM-393.18 451H-413.198V461H-393.18V451ZM-433.216 451H-453.235V461H-433.216V451ZM-473.253 451H-493.271V461H-473.253V451ZM-513.29 451H-533.308V461H-513.29V451ZM-553.326 451H-573.345V461H-553.326V451ZM-593.363 451H-613.381V461H-593.363V451ZM-633.4 451H-653.418V461H-633.4V451ZM-673.436 451H-693.455V461H-673.436V451ZM-713.473 451H-733.491V461H-713.473V451ZM-753.509 451H-773.528V461H-753.509V451ZM-793.546 451H-813.564V461H-793.546V451ZM-833.583 451H-853.601V461H-833.583V451ZM-873.62 451H-893.638V461H-873.62V451ZM-913.656 451H-933.674V461H-913.656V451ZM-953.692 451H-973.711V461H-953.692V451ZM-993.729 451H-1013.75V461H-993.729V451ZM-1033.77 451H-1053.78V461H-1033.77V451ZM-1073.8 451H-1093.82V461H-1073.8V451ZM-1113.84 451H-1133.86V461H-1113.84V451ZM-1153.88 451H-1173.9V461H-1153.88V451ZM-1193.91 451H-1213.93V461H-1193.91V451ZM-1233.95 451H-1253.97V461H-1233.95V451ZM-1273.99 451H-1294.01V461H-1273.99V451ZM-1314.03 451H-1334.04V461H-1314.03V451ZM-1354.06 451H-1374.08V461H-1354.06V451ZM-1394.1 451H-1414.12V461H-1394.1V451ZM-1434.14 451H-1454.16V461H-1434.14V451ZM-1474.17 451H-1494.19V461H-1474.17V451ZM-1514.21 451H-1534.23V461H-1514.21V451ZM-1554.25 451H-1574.27V461H-1554.25V451ZM-1594.29 451H-1614.3V461H-1594.29V451ZM-1634.32 451H-1654.34V461H-1634.32V451ZM-1674.36 451H-1694.38V461H-1674.36V451ZM-1714.4 451H-1734.42V461H-1714.4V451ZM-1754.43 451H-1774.45V461H-1754.43V451ZM-1794.47 451H-1814.49V461H-1794.47V451ZM-1834.51 451H-1854.53V461H-1834.51V451ZM-1874.55 451H-1894.56V461H-1874.55V451ZM-1914.58 451H-1934.6V461H-1914.58V451ZM-1954.62 451H-1974.64V461H-1954.62V451ZM-1994.66 451H-2014.68V461H-1994.66V451ZM-2034.69 451H-2054.71V461H-2034.69V451ZM-2074.73 451H-2094.75V461H-2074.73V451ZM-2114.77 451H-2134.79V461H-2114.77V451ZM-2154.81 451H-2174.82V461H-2154.81V451ZM-2194.84 451H-2214.86V461H-2194.84V451ZM-2234.88 451H-2254.9V461H-2234.88V451ZM-2274.92 451H-2294.93V461H-2274.92V451ZM-2314.95 451H-2334.97V461H-2314.95V451ZM-2354.99 451H-2375.01V461H-2354.99V451ZM-2395.03 451H-2415.05V461H-2395.03V451ZM-2435.06 451H-2455.08V461H-2435.06V451ZM-2475.1 451H-2495.12V461H-2475.1V451ZM-2515.14 451H-2535.16V461H-2515.14V451ZM-2555.18 451H-2575.19V461H-2555.18V451ZM-2595.21 451H-2615.23V461H-2595.21V451ZM-2635.25 451H-2655.27V461H-2635.25V451ZM-2675.29 451H-2695.31V461H-2675.29V451ZM-2715.32 451H-2735.34V461H-2715.32V451ZM-2755.36 451H-2775.38V461H-2755.36V451ZM-2795.4 451H-2815.42V461H-2795.4V451ZM-2835.44 451H-2855.45V461H-2835.44V451ZM-2875.47 451H-2895.49V461H-2875.47V451ZM-2915.51 451H-2935.53V461H-2915.51V451ZM-2955.55 451H-2975.57V461H-2955.55V451ZM-2995.58 451H-3015.6V461H-2995.58V451ZM-3035.62 451H-3055.64V461H-3035.62V451ZM-3075.66 451H-3095.68V461H-3075.66V451ZM-3115.7 451H-3135.71V461H-3115.7V451ZM-3155.73 451H-3175.75V461H-3155.73V451ZM-3195.77 451H-3215.79V461H-3195.77V451ZM-3235.81 451H-3255.83V461H-3235.81V451ZM-3275.84 451H-3295.86V461H-3275.84V451ZM-3315.88 451H-3335.9V461H-3315.88V451ZM-3355.92 451H-3375.94V461H-3355.92V451ZM-3395.96 451H-3415.97V461H-3395.96V451ZM-3435.99 451H-3456.01V461H-3435.99V451ZM-3476.03 451H-3496.05V461H-3476.03V451ZM-3516.07 451H-3536.09V461H-3516.07V451ZM-3556.1 451H-3576.12V461H-3556.1V451ZM-3596.14 451H-3616.16V461H-3596.14V451ZM-3636.18 451H-3656.2V461H-3636.18V451ZM-3676.21 451H-3696.23V461H-3676.21V451ZM-3716.25 451H-3736.27V461H-3716.25V451ZM-3756.29 451H-3776.31V461H-3756.29V451ZM-3796.33 451H-3816.34V461H-3796.33V451ZM-3836.36 451H-3856.38V461H-3836.36V451ZM-3876.4 451H-3896.42V461H-3876.4V451ZM-3916.44 451H-3936.46V461H-3916.44V451ZM-3956.47 451H-3976.49V461H-3956.47V451ZM-3996.51 451H-4016.53V461H-3996.51V451ZM-4036.55 451H-4056.57V461H-4036.55V451ZM-4076.59 451H-4096.6V461H-4076.59V451ZM-4116.62 451H-4136.64V461H-4116.62V451ZM-4156.66 451H-4176.68V461H-4156.66V451ZM-4196.7 451H-4216.72V461H-4196.7V451ZM-4236.73 451H-4256.75V461H-4236.73V451ZM-4276.77 451H-4296.79V461H-4276.77V451ZM-4316.81 451H-4336.83V461H-4316.81V451ZM-4356.85 451H-4376.86V461H-4356.85V451ZM-4396.88 451H-4416.9V461H-4396.88V451ZM-4436.92 451H-4456.94V461H-4436.92V451ZM-4476.96 451H-4496.98V461H-4476.96V451ZM-4516.99 451H-4537.01V461H-4516.99V451ZM-4557.03 451H-4577.05V461H-4557.03V451ZM-4597.07 451H-4617.09V461H-4597.07V451ZM-4637.11 451H-4657.12V461H-4637.11V451ZM-4677.14 451H-4697.16V461H-4677.14V451ZM-4717.18 451H-4737.2V461H-4717.18V451ZM-4757.22 451H-4777.24V461H-4757.22V451ZM-4797.25 451H-4817.27V461H-4797.25V451ZM-4837.29 451H-4857.31V461H-4837.29V451ZM-4877.33 451H-4897.35V461H-4877.33V451ZM-4917.37 451H-4937.38V461H-4917.37V451ZM-4957.4 451H-4977.42V461H-4957.4V451ZM-4997.44 451H-5017.46V461H-4997.44V451ZM-5037.48 451H-5057.5V461H-5037.48V451ZM-5077.51 451H-5097.53V461H-5077.51V451ZM-5117.55 451H-5137.57V461H-5117.55V451ZM-5157.59 451H-5177.61V461H-5157.59V451ZM-5197.62 451H-5217.64V461H-5197.62V451ZM-5237.66 451H-5257.68V461H-5237.66V451ZM-5277.7 451H-5297.72V461H-5277.7V451ZM-5317.74 451H-5337.75V461H-5317.74V451ZM-5357.77 451H-5377.79V461H-5357.77V451ZM-5397.81 451H-5417.83V461H-5397.81V451ZM-5437.85 451H-5457.87V461H-5437.85V451ZM-5477.88 451H-5497.9V461H-5477.88V451ZM-5517.92 451H-5537.94V461H-5517.92V451ZM-5557.96 451H-5577.98V461H-5557.96V451ZM-5598 451H-5618.01V461H-5598V451ZM-5638.03 451H-5658.05V461H-5638.03V451ZM-5678.07 451H-5698.09V461H-5678.07V451ZM-5718.11 451H-5738.13V461H-5718.11V451ZM-5758.14 451H-5778.16V461H-5758.14V451ZM-5798.18 451H-5818.2V461H-5798.18V451ZM-5838.22 451H-5858.24V461H-5838.22V451ZM-5878.26 451H-5898.27V461H-5878.26V451ZM-5918.29 451H-5938.31V461H-5918.29V451ZM-5958.33 451H-5978.35V461H-5958.33V451ZM-5998.37 451H-6018.39V461H-5998.37V451ZM-6038.4 451H-6058.42V461H-6038.4V451ZM-6078.44 451H-6098.46V461H-6078.44V451ZM-6118.48 451H-6138.5V461H-6118.48V451ZM-6158.52 451H-6178.53V461H-6158.52V451ZM-6198.55 451H-6218.57V461H-6198.55V451ZM-6238.59 451H-6258.61V461H-6238.59V451ZM-6278.63 451H-6298.65V461H-6278.63V451ZM-6318.66 451H-6338.68V461H-6318.66V451ZM-6358.7 451H-6378.72V461H-6358.7V451ZM-6398.74 451H-6418.76V461H-6398.74V451ZM-6438.78 451H-6458.79V461H-6438.78V451ZM-6478.81 451H-6498.83V461H-6478.81V451ZM-6518.85 451H-6538.87V461H-6518.85V451ZM-6558.89 451H-6578.9V461H-6558.89V451ZM-6598.92 451H-6618.94V461H-6598.92V451ZM-6638.96 451H-6658.98V461H-6638.96V451ZM-6679 451H-6699.02V461H-6679V451ZM-6719.03 451H-6729V461H-6719.03V451ZM-6729 446C-6730.1 446 -6731 445.104 -6731 444H-6751C-6751 456.151 -6741.15 466 -6729 466V446ZM-6731 444V434.013H-6751V444H-6731ZM-6731 414.04V394.067H-6751V414.04H-6731ZM-6731 374.093V354.12H-6751V374.093H-6731ZM-6731 334.147V314.173H-6751V334.147H-6731ZM-6731 294.2V274.227H-6751V294.2H-6731ZM-6731 254.253V234.28H-6751V254.253H-6731ZM-6731 214.307V194.333H-6751V214.307H-6731ZM-6731 174.36V154.387H-6751V174.36H-6731ZM-6731 134.413V114.44H-6751V134.413H-6731ZM-6731 94.4668V74.4934H-6751V94.4668H-6731ZM-6731 54.52V34.5466H-6751V54.52H-6731ZM-6731 14.5735V-5.3999H-6751V14.5735H-6731ZM-6731 -25.3733V-45.3467H-6751V-25.3733H-6731ZM-6731 -65.3198V-85.2932H-6751V-65.3198H-6731ZM-6731 -105.267V-125.24H-6751V-105.267H-6731ZM-6731 -145.213V-165.187H-6751V-145.213H-6731ZM-6731 -185.16V-205.133H-6751V-185.16H-6731ZM-6731 -225.107V-245.08H-6751V-225.107H-6731ZM-6731 -265.053V-285.027H-6751V-265.053H-6731ZM-6731 -305V-324.973H-6751V-305H-6731ZM-6731 -344.947V-364.92H-6751V-344.947H-6731ZM-6731 -384.893V-404.866H-6751V-384.893H-6731ZM-6731 -424.84V-444.813H-6751V-424.84H-6731ZM-6731 -464.787V-484.76H-6751V-464.787H-6731ZM-6731 -504.733V-524.707H-6751V-504.733H-6731ZM-6731 -544.68V-564.653H-6751V-544.68H-6731ZM-6731 -584.626V-604.6H-6751V-584.626H-6731ZM-6731 -624.573V-644.547H-6751V-624.573H-6731ZM-6731 -664.52V-684.493H-6751V-664.52H-6731ZM-6731 -704.467V-724.44H-6751V-704.467H-6731ZM-6731 -744.414V-764.387H-6751V-744.414H-6731ZM-6731 -784.36V-804.334H-6751V-784.36H-6731ZM-6731 -824.307V-844.281H-6751V-824.307H-6731ZM-6731 -864.254V-884.227H-6751V-864.254H-6731ZM-6731 -904.201V-924.174H-6751V-904.201H-6731ZM-6731 -944.148V-964.121H-6751V-944.148H-6731ZM-6731 -984.094V-1004.07H-6751V-984.094H-6731ZM-6731 -1024.04V-1044.01H-6751V-1024.04H-6731ZM-6731 -1063.99V-1083.96H-6751V-1063.99H-6731ZM-6731 -1103.93V-1123.91H-6751V-1103.93H-6731ZM-6731 -1143.88V-1163.85H-6751V-1143.88H-6731ZM-6731 -1183.83V-1203.8H-6751V-1183.83H-6731ZM-6731 -1223.78V-1243.75H-6751V-1223.78H-6731ZM-6731 -1263.72V-1283.7H-6751V-1263.72H-6731ZM-6731 -1303.67V-1323.64H-6751V-1303.67H-6731ZM-6731 -1343.62V-1363.59H-6751V-1343.62H-6731ZM-6731 -1383.56V-1403.54H-6751V-1383.56H-6731ZM-6731 -1423.51V-1443.48H-6751V-1423.51H-6731ZM-6731 -1463.46V-1483.43H-6751V-1463.46H-6731ZM-6731 -1503.4V-1523.38H-6751V-1503.4H-6731ZM-6731 -1543.35V-1563.32H-6751V-1543.35H-6731ZM-6731 -1583.3V-1603.27H-6751V-1583.3H-6731ZM-6731 -1623.24V-1643.22H-6751V-1623.24H-6731ZM-6731 -1663.19V-1683.16H-6751V-1663.19H-6731ZM-6731 -1703.14V-1723.11H-6751V-1703.14H-6731ZM-6731 -1743.08V-1763.06H-6751V-1743.08H-6731ZM-6731 -1783.03V-1803H-6751V-1783.03H-6731ZM-6731 -1822.98V-1842.95H-6751V-1822.98H-6731ZM-6731 -1862.92V-1882.9H-6751V-1862.92H-6731ZM-6731 -1902.87V-1922.84H-6751V-1902.87H-6731ZM-6731 -1942.82V-1962.79H-6751V-1942.82H-6731ZM-6731 -1982.76V-2002.74H-6751V-1982.76H-6731ZM-6731 -2022.71V-2042.68H-6751V-2022.71H-6731ZM-6731 -2062.66V-2082.63H-6751V-2062.66H-6731ZM-6731 -2102.6V-2122.58H-6751V-2102.6H-6731ZM-6731 -2142.55V-2162.52H-6751V-2142.55H-6731ZM-6731 -2182.5V-2202.47H-6751V-2182.5H-6731ZM-6731 -2222.44V-2242.42H-6751V-2222.44H-6731ZM-6731 -2262.39V-2282.36H-6751V-2262.39H-6731ZM-6731 -2302.34V-2322.31H-6751V-2302.34H-6731ZM-6731 -2342.28V-2362.26H-6751V-2342.28H-6731ZM-6731 -2382.23V-2402.2H-6751V-2382.23H-6731ZM-6731 -2422.18V-2442.15H-6751V-2422.18H-6731ZM-6731 -2462.13V-2482.1H-6751V-2462.13H-6731ZM-6731 -2502.07V-2522.05H-6751V-2502.07H-6731ZM-6731 -2542.02V-2552H-6751V-2542.02H-6731ZM-6731 -2552C-6731 -2553.1 -6730.1 -2554 -6729 -2554V-2574C-6741.15 -2574 -6751 -2564.15 -6751 -2552H-6731ZM-6729 -2554H-6718.99V-2574H-6729V-2554ZM-6698.97 -2554H-6678.95V-2574H-6698.97V-2554ZM-6658.94 -2554H-6638.92V-2574H-6658.94V-2554ZM-6618.9 -2554H-6598.88V-2574H-6618.9V-2554ZM-6578.86 -2554H-6558.84V-2574H-6578.86V-2554ZM-6538.83 -2554H-6518.81V-2574H-6538.83V-2554ZM-6498.79 -2554H-6478.77V-2574H-6498.79V-2554ZM-6458.75 -2554H-6438.73V-2574H-6458.75V-2554ZM-6418.72 -2554H-6398.7V-2574H-6418.72V-2554ZM-6378.68 -2554H-6358.66V-2574H-6378.68V-2554ZM-6338.64 -2554H-6318.62V-2574H-6338.64V-2554ZM-6298.61 -2554H-6278.59V-2574H-6298.61V-2554ZM-6258.57 -2554H-6238.55V-2574H-6258.57V-2554ZM-6218.53 -2554H-6198.51V-2574H-6218.53V-2554ZM-6178.49 -2554H-6158.48V-2574H-6178.49V-2554ZM-6138.46 -2554H-6118.44V-2574H-6138.46V-2554ZM-6098.42 -2554H-6078.4V-2574H-6098.42V-2554ZM-6058.38 -2554H-6038.37V-2574H-6058.38V-2554ZM-6018.35 -2554H-5998.33V-2574H-6018.35V-2554ZM-5978.31 -2554H-5958.29V-2574H-5978.31V-2554ZM-5938.27 -2554H-5918.26V-2574H-5938.27V-2554ZM-5898.24 -2554H-5878.22V-2574H-5898.24V-2554ZM-5858.2 -2554H-5838.18V-2574H-5858.2V-2554ZM-5818.16 -2554H-5798.15V-2574H-5818.16V-2554ZM-5778.13 -2554H-5758.11V-2574H-5778.13V-2554ZM-5738.09 -2554H-5718.07V-2574H-5738.09V-2554ZM-5698.05 -2554H-5678.04V-2574H-5698.05V-2554ZM-5658.02 -2554H-5638V-2574H-5658.02V-2554ZM-5617.98 -2554H-5597.96V-2574H-5617.98V-2554ZM-5577.94 -2554H-5557.93V-2574H-5577.94V-2554ZM-5537.91 -2554H-5517.89V-2574H-5537.91V-2554ZM-5497.87 -2554H-5477.85V-2574H-5497.87V-2554ZM-5457.83 -2554H-5437.82V-2574H-5457.83V-2554ZM-5417.8 -2554H-5397.78V-2574H-5417.8V-2554ZM-5377.76 -2554H-5357.74V-2574H-5377.76V-2554ZM-5337.72 -2554H-5317.71V-2574H-5337.72V-2554ZM-5297.69 -2554H-5277.67V-2574H-5297.69V-2554ZM-5257.65 -2554H-5237.63V-2574H-5257.65V-2554ZM-5217.61 -2554H-5197.6V-2574H-5217.61V-2554ZM-5177.58 -2554H-5157.56V-2574H-5177.58V-2554ZM-5137.54 -2554H-5117.52V-2574H-5137.54V-2554ZM-5097.5 -2554H-5077.49V-2574H-5097.5V-2554ZM-5057.47 -2554H-5037.45V-2574H-5057.47V-2554ZM-5017.43 -2554H-4997.41V-2574H-5017.43V-2554ZM-4977.39 -2554H-4957.38V-2574H-4977.39V-2554ZM-4937.36 -2554H-4917.34V-2574H-4937.36V-2554ZM-4897.32 -2554H-4877.3V-2574H-4897.32V-2554ZM-4857.29 -2554H-4837.27V-2574H-4857.29V-2554ZM-4817.25 -2554H-4797.23V-2574H-4817.25V-2554ZM-4777.21 -2554H-4757.19V-2574H-4777.21V-2554ZM-4737.18 -2554H-4717.16V-2574H-4737.18V-2554ZM-4697.14 -2554H-4677.12V-2574H-4697.14V-2554ZM-4657.1 -2554H-4637.08V-2574H-4657.1V-2554ZM-4617.07 -2554H-4597.05V-2574H-4617.07V-2554ZM-4577.03 -2554H-4557.01V-2574H-4577.03V-2554ZM-4536.99 -2554H-4516.97V-2574H-4536.99V-2554ZM-4496.96 -2554H-4476.94V-2574H-4496.96V-2554ZM-4456.92 -2554H-4436.9V-2574H-4456.92V-2554ZM-4416.88 -2554H-4396.86V-2574H-4416.88V-2554ZM-4376.85 -2554H-4356.83V-2574H-4376.85V-2554ZM-4336.81 -2554H-4316.79V-2574H-4336.81V-2554ZM-4296.77 -2554H-4276.75V-2574H-4296.77V-2554ZM-4256.74 -2554H-4236.72V-2574H-4256.74V-2554ZM-4216.7 -2554H-4196.68V-2574H-4216.7V-2554ZM-4176.66 -2554H-4156.64V-2574H-4176.66V-2554ZM-4136.63 -2554H-4116.61V-2574H-4136.63V-2554ZM-4096.59 -2554H-4076.57V-2574H-4096.59V-2554ZM-4056.55 -2554H-4036.53V-2574H-4056.55V-2554ZM-4016.52 -2554H-3996.5V-2574H-4016.52V-2554ZM-3976.48 -2554H-3956.46V-2574H-3976.48V-2554ZM-3936.44 -2554H-3916.42V-2574H-3936.44V-2554ZM-3896.41 -2554H-3876.39V-2574H-3896.41V-2554ZM-3856.37 -2554H-3836.35V-2574H-3856.37V-2554ZM-3816.33 -2554H-3796.31V-2574H-3816.33V-2554ZM-3776.3 -2554H-3756.28V-2574H-3776.3V-2554ZM-3736.26 -2554H-3716.24V-2574H-3736.26V-2554ZM-3696.22 -2554H-3676.2V-2574H-3696.22V-2554ZM-3656.19 -2554H-3636.17V-2574H-3656.19V-2554ZM-3616.15 -2554H-3596.13V-2574H-3616.15V-2554ZM-3576.11 -2554H-3556.09V-2574H-3576.11V-2554ZM-3536.08 -2554H-3516.06V-2574H-3536.08V-2554ZM-3496.04 -2554H-3476.02V-2574H-3496.04V-2554ZM-3456 -2554H-3435.98V-2574H-3456V-2554ZM-3415.97 -2554H-3395.95V-2574H-3415.97V-2554ZM-3375.93 -2554H-3355.91V-2574H-3375.93V-2554ZM-3335.89 -2554H-3315.88V-2574H-3335.89V-2554ZM-3295.86 -2554H-3275.84V-2574H-3295.86V-2554ZM-3255.82 -2554H-3235.8V-2574H-3255.82V-2554ZM-3215.78 -2554H-3195.77V-2574H-3215.78V-2554ZM-3175.75 -2554H-3155.73V-2574H-3175.75V-2554ZM-3135.71 -2554H-3115.69V-2574H-3135.71V-2554ZM-3095.67 -2554H-3075.66V-2574H-3095.67V-2554ZM-3055.64 -2554H-3035.62V-2574H-3055.64V-2554ZM-3015.6 -2554H-2995.58V-2574H-3015.6V-2554ZM-2975.56 -2554H-2955.55V-2574H-2975.56V-2554ZM-2935.53 -2554H-2915.51V-2574H-2935.53V-2554ZM-2895.49 -2554H-2875.47V-2574H-2895.49V-2554ZM-2855.45 -2554H-2835.44V-2574H-2855.45V-2554ZM-2815.42 -2554H-2795.4V-2574H-2815.42V-2554ZM-2775.38 -2554H-2755.36V-2574H-2775.38V-2554ZM-2735.34 -2554H-2715.33V-2574H-2735.34V-2554ZM-2695.31 -2554H-2675.29V-2574H-2695.31V-2554ZM-2655.27 -2554H-2635.25V-2574H-2655.27V-2554ZM-2615.23 -2554H-2595.22V-2574H-2615.23V-2554ZM-2575.2 -2554H-2555.18V-2574H-2575.2V-2554ZM-2535.16 -2554H-2515.14V-2574H-2535.16V-2554ZM-2495.12 -2554H-2475.1V-2574H-2495.12V-2554ZM-2455.09 -2554H-2435.07V-2574H-2455.09V-2554ZM-2415.05 -2554H-2395.03V-2574H-2415.05V-2554ZM-2375.01 -2554H-2354.99V-2574H-2375.01V-2554ZM-2334.97 -2554H-2314.96V-2574H-2334.97V-2554ZM-2294.94 -2554H-2274.92V-2574H-2294.94V-2554ZM-2254.9 -2554H-2234.88V-2574H-2254.9V-2554ZM-2214.86 -2554H-2194.84V-2574H-2214.86V-2554ZM-2174.83 -2554H-2154.81V-2574H-2174.83V-2554ZM-2134.79 -2554H-2114.77V-2574H-2134.79V-2554ZM-2094.75 -2554H-2074.73V-2574H-2094.75V-2554ZM-2054.71 -2554H-2034.7V-2574H-2054.71V-2554ZM-2014.68 -2554H-1994.66V-2574H-2014.68V-2554ZM-1974.64 -2554H-1954.62V-2574H-1974.64V-2554ZM-1934.6 -2554H-1914.58V-2574H-1934.6V-2554ZM-1894.57 -2554H-1874.55V-2574H-1894.57V-2554ZM-1854.53 -2554H-1834.51V-2574H-1854.53V-2554ZM-1814.49 -2554H-1794.47V-2574H-1814.49V-2554ZM-1774.45 -2554H-1754.44V-2574H-1774.45V-2554ZM-1734.42 -2554H-1714.4V-2574H-1734.42V-2554ZM-1694.38 -2554H-1674.36V-2574H-1694.38V-2554ZM-1654.34 -2554H-1634.32V-2574H-1654.34V-2554ZM-1614.31 -2554H-1594.29V-2574H-1614.31V-2554ZM-1574.27 -2554H-1554.25V-2574H-1574.27V-2554ZM-1534.23 -2554H-1514.21V-2574H-1534.23V-2554ZM-1494.19 -2554H-1474.18V-2574H-1494.19V-2554ZM-1454.16 -2554H-1434.14V-2574H-1454.16V-2554ZM-1414.12 -2554H-1394.1V-2574H-1414.12V-2554ZM-1374.08 -2554H-1354.07V-2574H-1374.08V-2554ZM-1334.05 -2554H-1314.03V-2574H-1334.05V-2554ZM-1294.01 -2554H-1273.99V-2574H-1294.01V-2554ZM-1253.97 -2554H-1233.95V-2574H-1253.97V-2554ZM-1213.94 -2554H-1193.92V-2574H-1213.94V-2554ZM-1173.9 -2554H-1153.88V-2574H-1173.9V-2554ZM-1133.86 -2554H-1113.84V-2574H-1133.86V-2554ZM-1093.82 -2554H-1073.81V-2574H-1093.82V-2554ZM-1053.79 -2554H-1033.77V-2574H-1053.79V-2554ZM-1013.75 -2554H-993.731V-2574H-1013.75V-2554ZM-973.712 -2554H-953.694V-2574H-973.712V-2554ZM-933.675 -2554H-913.657V-2574H-933.675V-2554ZM-893.638 -2554H-873.62V-2574H-893.638V-2554ZM-853.601 -2554H-833.583V-2574H-853.601V-2554ZM-813.564 -2554H-793.546V-2574H-813.564V-2554ZM-773.527 -2554H-753.508V-2574H-773.527V-2554ZM-733.49 -2554H-713.471V-2574H-733.49V-2554ZM-693.453 -2554H-673.434V-2574H-693.453V-2554ZM-653.416 -2554H-633.397V-2574H-653.416V-2554ZM-613.379 -2554H-593.36V-2574H-613.379V-2554ZM-573.342 -2554H-553.323V-2574H-573.342V-2554ZM-533.305 -2554H-513.286V-2574H-533.305V-2554ZM-493.267 -2554H-473.249V-2574H-493.267V-2554ZM-453.23 -2554H-433.211V-2574H-453.23V-2554ZM-413.193 -2554H-393.175V-2574H-413.193V-2554ZM-373.156 -2554H-353.138V-2574H-373.156V-2554ZM-333.119 -2554H-313.101V-2574H-333.119V-2554ZM-293.082 -2554H-273.063V-2574H-293.082V-2554ZM-253.044 -2554H-233.026V-2574H-253.044V-2554ZM-213.007 -2554H-192.989V-2574H-213.007V-2554ZM-172.97 -2554H-152.952V-2574H-172.97V-2554ZM-132.934 -2554H-112.915V-2574H-132.934V-2554ZM-92.8965 -2554H-72.8774V-2574H-92.8965V-2554ZM-52.8594 -2554H-32.8403V-2574H-52.8594V-2554ZM-12.8223 -2554H7.19678V-2574H-12.8223V-2554ZM27.2148 -2554H47.2339V-2574H27.2148V-2554ZM67.2524 -2554H87.271V-2574H67.2524V-2554ZM107.29 -2554H127.308V-2574H107.29V-2554ZM147.327 -2554H167.345V-2574H147.327V-2554ZM187.364 -2554H207.382V-2574H187.364V-2554ZM227.401 -2554H247.419V-2574H227.401V-2554ZM267.438 -2554H287.456V-2574H267.438V-2554ZM307.475 -2554H327.494V-2574H307.475V-2554ZM347.512 -2554H367.531V-2574H347.512V-2554ZM387.549 -2554H407.568V-2574H387.549V-2554ZM427.586 -2554H447.605V-2574H427.586V-2554ZM467.623 -2554H487.642V-2574H467.623V-2554ZM507.66 -2554H527.679V-2574H507.66V-2554ZM547.697 -2554H567.716V-2574H547.697V-2554ZM587.735 -2554H607.753V-2574H587.735V-2554ZM627.772 -2554H647.79V-2574H627.772V-2554ZM667.809 -2554H687.827V-2574H667.809V-2554ZM707.846 -2554H727.864V-2574H707.846V-2554ZM747.883 -2554H767.901V-2574H747.883V-2554ZM787.92 -2554H807.938V-2574H787.92V-2554ZM827.958 -2554H847.976V-2574H827.958V-2554ZM867.995 -2554H888.013V-2574H867.995V-2554ZM908.031 -2554H928.05V-2574H908.031V-2554ZM948.068 -2554H968.087V-2574H948.068V-2554ZM988.105 -2554H1008.12V-2574H988.105V-2554ZM1028.14 -2554H1048.16V-2574H1028.14V-2554ZM1068.18 -2554H1088.2V-2574H1068.18V-2554ZM1108.22 -2554H1128.24V-2574H1108.22V-2554ZM1148.25 -2554H1168.27V-2574H1148.25V-2554ZM1188.29 -2554H1208.31V-2574H1188.29V-2554ZM1228.33 -2554H1248.35V-2574H1228.33V-2554ZM1268.37 -2554H1288.38V-2574H1268.37V-2554ZM1308.4 -2554H1328.42V-2574H1308.4V-2554ZM1348.44 -2554H1368.46V-2574H1348.44V-2554ZM1388.48 -2554H1408.5V-2574H1388.48V-2554ZM1428.51 -2554H1448.53V-2574H1428.51V-2554ZM1468.55 -2554H1488.57V-2574H1468.55V-2554ZM1508.59 -2554H1528.61V-2574H1508.59V-2554ZM1548.62 -2554H1568.64V-2574H1548.62V-2554ZM1588.66 -2554H1608.68V-2574H1588.66V-2554ZM1628.7 -2554H1648.72V-2574H1628.7V-2554ZM1668.74 -2554H1688.75V-2574H1668.74V-2554ZM1708.77 -2554H1728.79V-2574H1708.77V-2554ZM1748.81 -2554H1768.83V-2574H1748.81V-2554ZM1788.85 -2554H1808.87V-2574H1788.85V-2554ZM1828.88 -2554H1848.9V-2574H1828.88V-2554ZM1868.92 -2554H1888.94V-2574H1868.92V-2554ZM1908.96 -2554H1928.98V-2574H1908.96V-2554ZM1949 -2554H1969.01V-2574H1949V-2554ZM1989.03 -2554H2009.05V-2574H1989.03V-2554ZM2029.07 -2554H2049.09V-2574H2029.07V-2554ZM2069.11 -2554H2089.13V-2574H2069.11V-2554ZM2109.14 -2554H2129.16V-2574H2109.14V-2554ZM2149.18 -2554H2169.2V-2574H2149.18V-2554ZM2189.22 -2554H2209.24V-2574H2189.22V-2554ZM2229.26 -2554H2249.27V-2574H2229.26V-2554ZM2269.29 -2554H2289.31V-2574H2269.29V-2554ZM2309.33 -2554H2329.35V-2574H2309.33V-2554ZM2349.37 -2554H2369.39V-2574H2349.37V-2554ZM2389.4 -2554H2409.42V-2574H2389.4V-2554ZM2429.44 -2554H2449.46V-2574H2429.44V-2554ZM2469.48 -2554H2489.5V-2574H2469.48V-2554ZM2509.52 -2554H2529.53V-2574H2509.52V-2554ZM2549.55 -2554H2569.57V-2574H2549.55V-2554ZM2589.59 -2554H2609.61V-2574H2589.59V-2554ZM2629.63 -2554H2649.65V-2574H2629.63V-2554ZM2669.66 -2554H2689.68V-2574H2669.66V-2554ZM2709.7 -2554H2729.72V-2574H2709.7V-2554ZM2749.74 -2554H2769.76V-2574H2749.74V-2554ZM2789.78 -2554H2809.79V-2574H2789.78V-2554ZM2829.81 -2554H2849.83V-2574H2829.81V-2554ZM2869.85 -2554H2889.87V-2574H2869.85V-2554ZM2909.89 -2554H2929.9V-2574H2909.89V-2554ZM2949.92 -2554H2969.94V-2574H2949.92V-2554ZM2989.96 -2554H3009.98V-2574H2989.96V-2554ZM3030 -2554H3050.02V-2574H3030V-2554ZM3070.04 -2554H3080V-2574H3070.04V-2554ZM3080 -2554C3081.1 -2554 3082 -2553.1 3082 -2552H3102C3102 -2564.15 3092.15 -2574 3080 -2574V-2554ZM3082 -2552V-2542.01H3102V-2552H3082ZM3082 -2522.04V-2502.07H3102V-2522.04H3082ZM3082 -2482.09V-2462.12H3102V-2482.09H3082ZM3082 -2442.15V-2422.17H3102V-2442.15H3082ZM3082 -2402.2V-2382.23H3102V-2402.2H3082ZM3082 -2362.25V-2342.28H3102V-2362.25H3082ZM3082 -2322.31V-2302.33H3102V-2322.31H3082ZM3082 -2282.36V-2262.39H3102V-2282.36H3082ZM3082 -2242.41V-2222.44H3102V-2242.41H3082ZM3082 -2202.47V-2182.49H3102V-2202.47H3082ZM3082 -2162.52V-2142.55H3102V-2162.52H3082ZM3082 -2122.57V-2102.6H3102V-2122.57H3082ZM3082 -2082.63V-2062.65H3102V-2082.63H3082ZM3082 -2042.68V-2022.71H3102V-2042.68H3082ZM3082 -2002.73V-1982.76H3102V-2002.73H3082ZM3082 -1962.79V-1942.81H3102V-1962.79H3082ZM3082 -1922.84V-1902.87H3102V-1922.84H3082ZM3082 -1882.89V-1862.92H3102V-1882.89H3082ZM3082 -1842.95V-1822.97H3102V-1842.95H3082ZM3082 -1803V-1783.03H3102V-1803H3082ZM3082 -1763.05V-1743.08H3102V-1763.05H3082ZM3082 -1723.11V-1703.13H3102V-1723.11H3082ZM3082 -1683.16V-1663.19H3102V-1683.16H3082ZM3082 -1643.21V-1623.24H3102V-1643.21H3082ZM3082 -1603.27V-1583.29H3102V-1603.27H3082ZM3082 -1563.32V-1543.35H3102V-1563.32H3082ZM3082 -1523.37V-1503.4H3102V-1523.37H3082ZM3082 -1483.43V-1463.45H3102V-1483.43H3082ZM3082 -1443.48V-1423.51H3102V-1443.48H3082ZM3082 -1403.53V-1383.56H3102V-1403.53H3082ZM3082 -1363.59V-1343.61H3102V-1363.59H3082ZM3082 -1323.64V-1303.67H3102V-1323.64H3082ZM3082 -1283.69V-1263.72H3102V-1283.69H3082ZM3082 -1243.75V-1223.77H3102V-1243.75H3082ZM3082 -1203.8V-1183.83H3102V-1203.8H3082ZM3082 -1163.85V-1143.88H3102V-1163.85H3082ZM3082 -1123.91V-1103.93H3102V-1123.91H3082ZM3082 -1083.96V-1063.99H3102V-1083.96H3082ZM3082 -1044.01V-1024.04H3102V-1044.01H3082ZM3082 -1004.07V-984.092H3102V-1004.07H3082ZM3082 -964.119V-944.145H3102V-964.119H3082ZM3082 -924.172V-904.198H3102V-924.172H3082ZM3082 -884.225V-864.252H3102V-884.225H3082ZM3082 -844.278V-824.305H3102V-844.278H3082ZM3082 -804.332V-784.358H3102V-804.332H3082ZM3082 -764.385V-744.411H3102V-764.385H3082ZM3082 -724.438V-704.465H3102V-724.438H3082ZM3082 -684.491V-664.518H3102V-684.491H3082ZM3082 -644.544V-624.571H3102V-644.544H3082ZM3082 -604.598V-584.624H3102V-604.598H3082ZM3082 -564.651V-544.677H3102V-564.651H3082ZM3082 -524.704V-504.73H3102V-524.704H3082ZM3082 -484.757V-464.784H3102V-484.757H3082ZM3082 -444.811V-424.837H3102V-444.811H3082ZM3082 -404.864V-384.89H3102V-404.864H3082ZM3082 -364.917V-344.944H3102V-364.917H3082ZM3082 -324.97V-304.997H3102V-324.97H3082ZM3082 -285.023V-265.05H3102V-285.023H3082ZM3082 -245.077V-225.103H3102V-245.077H3082ZM3082 -205.13V-185.156H3102V-205.13H3082ZM3082 -165.183V-145.21H3102V-165.183H3082ZM3082 -125.236V-105.263H3102V-125.236H3082ZM3082 -85.2896V-65.3162H3102V-85.2896H3082ZM3082 -45.3428V-25.3691H3102V-45.3428H3082ZM3082 -5.396V14.5774H3102V-5.396H3082ZM3082 34.5508V54.5242H3102V34.5508H3082ZM3082 74.4978V94.4709H3102V74.4978H3082ZM3082 114.445V134.418H3102V114.445H3082ZM3082 154.391V174.365H3102V154.391H3082ZM3082 194.338V214.312H3102V194.338H3082ZM3082 234.285V254.258H3102V234.285H3082ZM3082 274.231V294.205H3102V274.231H3082ZM3082 314.178V334.152H3102V314.178H3082ZM3082 354.125V374.098H3102V354.125H3082ZM3082 394.072V414.045H3102V394.072H3082ZM3082 434.019V444H3102V434.019H3082ZM3082 444C3082 445.104 3081.1 446 3080 446V466C3092.15 466 3102 456.15 3102 444H3082ZM3080 446H3069.99V466H3080V446ZM3049.97 446H3029.95V466H3049.97V446ZM3009.94 446H2989.92V466H3009.94V446ZM2969.9 446H2949.88V466H2969.9V446ZM2929.86 446H2909.84V466H2929.86V446ZM2889.83 446H2869.81V466H2889.83V446ZM2849.79 446H2829.77V466H2849.79V446ZM2809.75 446H2789.73V466H2809.75V446ZM2769.71 446H2749.7V466H2769.71V446ZM2729.68 446H2709.66V466H2729.68V446ZM2689.64 446H2669.62V466H2689.64V446ZM2649.61 446H2629.59V466H2649.61V446ZM2609.57 446H2589.55V466H2609.57V446ZM2569.53 446H2549.51V466H2569.53V446ZM2529.5 446H2509.48V466H2529.5V446ZM2489.46 446H2469.44V466H2489.46V446ZM2449.42 446H2429.4V466H2449.42V446ZM2409.38 446H2389.37V466H2409.38V446ZM2369.35 446H2349.33V466H2369.35V446ZM2329.31 446H2309.29V466H2329.31V446ZM2289.27 446H2269.26V466H2289.27V446ZM2249.24 446H2229.22V466H2249.24V446ZM2209.2 446H2189.18V466H2209.2V446ZM2169.16 446H2149.15V466H2169.16V446ZM2129.13 446H2109.11V466H2129.13V446ZM2089.09 446H2069.07V466H2089.09V446ZM2049.05 446H2029.04V466H2049.05V446ZM2009.02 446H1989V466H2009.02V446ZM1968.98 446H1948.96V466H1968.98V446ZM1928.94 446H1908.93V466H1928.94V446ZM1888.91 446H1868.89V466H1888.91V446ZM1848.87 446H1828.85V466H1848.87V446ZM1808.83 446H1788.82V466H1808.83V446ZM1768.8 446H1748.78V466H1768.8V446ZM1728.76 446H1708.74V466H1728.76V446ZM1688.72 446H1668.71V466H1688.72V446ZM1648.69 446H1628.67V466H1648.69V446ZM1608.65 446H1588.63V466H1608.65V446ZM1568.61 446H1548.6V466H1568.61V446ZM1528.58 446H1508.56V466H1528.58V446ZM1488.54 446H1468.52V466H1488.54V446ZM1448.5 446H1428.49V466H1448.5V446ZM1408.47 446H1388.45V466H1408.47V446ZM1368.43 446H1348.41V466H1368.43V446ZM1328.39 446H1308.38V466H1328.39V446ZM1288.36 446H1268.34V466H1288.36V446ZM1248.32 446H1228.3V466H1248.32V446ZM1208.29 446H1188.27V466H1208.29V446ZM1168.25 446H1148.23V466H1168.25V446ZM1128.21 446H1108.19V466H1128.21V446ZM1088.18 446H1068.16V466H1088.18V446ZM1048.14 446H1028.12V466H1048.14V446ZM1008.1 446H988.083V466H1008.1V446ZM968.065 446H948.047V466H968.065V446ZM928.029 446H908.01V466H928.029V446ZM887.992 446H867.974V466H887.992V446ZM847.956 446H827.937V466H847.956V446ZM807.919 446H787.9V466H807.919V446ZM767.882 446H747.864V466H767.882V446ZM727.846 446H707.827V466H727.846V446ZM687.809 446H667.791V466H687.809V446ZM647.772 446H627.754V466H647.772V446ZM607.736 446H587.717V466H607.736V446ZM567.699 446H547.681V466H567.699V446ZM527.663 446H507.644V466H527.663V446ZM487.626 446H467.607V466H487.626V446ZM447.589 446H427.571V466H447.589V446ZM407.553 446H387.534V466H407.553V446ZM367.516 446H347.498V466H367.516V446ZM327.479 446H307.461V466H327.479V446ZM287.442 446H267.424V466H287.442V446ZM247.406 446H227.388V466H247.406V446ZM207.369 446H187.351V466H207.369V446ZM167.333 446H147.314V466H167.333V446ZM127.296 446H107.278V466H127.296V446ZM87.2598 446H67.2412V466H87.2598V446ZM47.2227 446H27.2046V466H47.2227V446ZM7.18652 446H-12.832V466H7.18652V446ZM-32.8506 446H-52.8687V466H-32.8506V446ZM-72.8867 446H-92.9053V466H-72.8867V446ZM-112.923 446H-132.942V466H-112.923V446ZM-152.96 446H-172.979V466H-152.96V446ZM-192.997 446H-213.015V466H-192.997V446ZM-233.033 446H-253.052V466H-233.033V446ZM-273.07 446H-293.088V466H-273.07V446ZM-313.106 446H-333.125V466H-313.106V446ZM-353.143 446H-373.162V466H-353.143V446ZM-393.18 446H-413.198V466H-393.18V446ZM-433.216 446H-453.235V466H-433.216V446ZM-473.253 446H-493.271V466H-473.253V446ZM-513.29 446H-533.308V466H-513.29V446ZM-553.326 446H-573.345V466H-553.326V446ZM-593.363 446H-613.381V466H-593.363V446ZM-633.4 446H-653.418V466H-633.4V446ZM-673.436 446H-693.455V466H-673.436V446ZM-713.473 446H-733.491V466H-713.473V446ZM-753.509 446H-773.528V466H-753.509V446ZM-793.546 446H-813.564V466H-793.546V446ZM-833.583 446H-853.601V466H-833.583V446ZM-873.62 446H-893.638V466H-873.62V446ZM-913.656 446H-933.674V466H-913.656V446ZM-953.692 446H-973.711V466H-953.692V446ZM-993.729 446H-1013.75V466H-993.729V446ZM-1033.77 446H-1053.78V466H-1033.77V446ZM-1073.8 446H-1093.82V466H-1073.8V446ZM-1113.84 446H-1133.86V466H-1113.84V446ZM-1153.88 446H-1173.9V466H-1153.88V446ZM-1193.91 446H-1213.93V466H-1193.91V446ZM-1233.95 446H-1253.97V466H-1233.95V446ZM-1273.99 446H-1294.01V466H-1273.99V446ZM-1314.03 446H-1334.04V466H-1314.03V446ZM-1354.06 446H-1374.08V466H-1354.06V446ZM-1394.1 446H-1414.12V466H-1394.1V446ZM-1434.14 446H-1454.16V466H-1434.14V446ZM-1474.17 446H-1494.19V466H-1474.17V446ZM-1514.21 446H-1534.23V466H-1514.21V446ZM-1554.25 446H-1574.27V466H-1554.25V446ZM-1594.29 446H-1614.3V466H-1594.29V446ZM-1634.32 446H-1654.34V466H-1634.32V446ZM-1674.36 446H-1694.38V466H-1674.36V446ZM-1714.4 446H-1734.42V466H-1714.4V446ZM-1754.43 446H-1774.45V466H-1754.43V446ZM-1794.47 446H-1814.49V466H-1794.47V446ZM-1834.51 446H-1854.53V466H-1834.51V446ZM-1874.55 446H-1894.56V466H-1874.55V446ZM-1914.58 446H-1934.6V466H-1914.58V446ZM-1954.62 446H-1974.64V466H-1954.62V446ZM-1994.66 446H-2014.68V466H-1994.66V446ZM-2034.69 446H-2054.71V466H-2034.69V446ZM-2074.73 446H-2094.75V466H-2074.73V446ZM-2114.77 446H-2134.79V466H-2114.77V446ZM-2154.81 446H-2174.82V466H-2154.81V446ZM-2194.84 446H-2214.86V466H-2194.84V446ZM-2234.88 446H-2254.9V466H-2234.88V446ZM-2274.92 446H-2294.93V466H-2274.92V446ZM-2314.95 446H-2334.97V466H-2314.95V446ZM-2354.99 446H-2375.01V466H-2354.99V446ZM-2395.03 446H-2415.05V466H-2395.03V446ZM-2435.06 446H-2455.08V466H-2435.06V446ZM-2475.1 446H-2495.12V466H-2475.1V446ZM-2515.14 446H-2535.16V466H-2515.14V446ZM-2555.18 446H-2575.19V466H-2555.18V446ZM-2595.21 446H-2615.23V466H-2595.21V446ZM-2635.25 446H-2655.27V466H-2635.25V446ZM-2675.29 446H-2695.31V466H-2675.29V446ZM-2715.32 446H-2735.34V466H-2715.32V446ZM-2755.36 446H-2775.38V466H-2755.36V446ZM-2795.4 446H-2815.42V466H-2795.4V446ZM-2835.44 446H-2855.45V466H-2835.44V446ZM-2875.47 446H-2895.49V466H-2875.47V446ZM-2915.51 446H-2935.53V466H-2915.51V446ZM-2955.55 446H-2975.57V466H-2955.55V446ZM-2995.58 446H-3015.6V466H-2995.58V446ZM-3035.62 446H-3055.64V466H-3035.62V446ZM-3075.66 446H-3095.68V466H-3075.66V446ZM-3115.7 446H-3135.71V466H-3115.7V446ZM-3155.73 446H-3175.75V466H-3155.73V446ZM-3195.77 446H-3215.79V466H-3195.77V446ZM-3235.81 446H-3255.83V466H-3235.81V446ZM-3275.84 446H-3295.86V466H-3275.84V446ZM-3315.88 446H-3335.9V466H-3315.88V446ZM-3355.92 446H-3375.94V466H-3355.92V446ZM-3395.96 446H-3415.97V466H-3395.96V446ZM-3435.99 446H-3456.01V466H-3435.99V446ZM-3476.03 446H-3496.05V466H-3476.03V446ZM-3516.07 446H-3536.09V466H-3516.07V446ZM-3556.1 446H-3576.12V466H-3556.1V446ZM-3596.14 446H-3616.16V466H-3596.14V446ZM-3636.18 446H-3656.2V466H-3636.18V446ZM-3676.21 446H-3696.23V466H-3676.21V446ZM-3716.25 446H-3736.27V466H-3716.25V446ZM-3756.29 446H-3776.31V466H-3756.29V446ZM-3796.33 446H-3816.34V466H-3796.33V446ZM-3836.36 446H-3856.38V466H-3836.36V446ZM-3876.4 446H-3896.42V466H-3876.4V446ZM-3916.44 446H-3936.46V466H-3916.44V446ZM-3956.47 446H-3976.49V466H-3956.47V446ZM-3996.51 446H-4016.53V466H-3996.51V446ZM-4036.55 446H-4056.57V466H-4036.55V446ZM-4076.59 446H-4096.6V466H-4076.59V446ZM-4116.62 446H-4136.64V466H-4116.62V446ZM-4156.66 446H-4176.68V466H-4156.66V446ZM-4196.7 446H-4216.72V466H-4196.7V446ZM-4236.73 446H-4256.75V466H-4236.73V446ZM-4276.77 446H-4296.79V466H-4276.77V446ZM-4316.81 446H-4336.83V466H-4316.81V446ZM-4356.85 446H-4376.86V466H-4356.85V446ZM-4396.88 446H-4416.9V466H-4396.88V446ZM-4436.92 446H-4456.94V466H-4436.92V446ZM-4476.96 446H-4496.98V466H-4476.96V446ZM-4516.99 446H-4537.01V466H-4516.99V446ZM-4557.03 446H-4577.05V466H-4557.03V446ZM-4597.07 446H-4617.09V466H-4597.07V446ZM-4637.11 446H-4657.12V466H-4637.11V446ZM-4677.14 446H-4697.16V466H-4677.14V446ZM-4717.18 446H-4737.2V466H-4717.18V446ZM-4757.22 446H-4777.24V466H-4757.22V446ZM-4797.25 446H-4817.27V466H-4797.25V446ZM-4837.29 446H-4857.31V466H-4837.29V446ZM-4877.33 446H-4897.35V466H-4877.33V446ZM-4917.37 446H-4937.38V466H-4917.37V446ZM-4957.4 446H-4977.42V466H-4957.4V446ZM-4997.44 446H-5017.46V466H-4997.44V446ZM-5037.48 446H-5057.5V466H-5037.48V446ZM-5077.51 446H-5097.53V466H-5077.51V446ZM-5117.55 446H-5137.57V466H-5117.55V446ZM-5157.59 446H-5177.61V466H-5157.59V446ZM-5197.62 446H-5217.64V466H-5197.62V446ZM-5237.66 446H-5257.68V466H-5237.66V446ZM-5277.7 446H-5297.72V466H-5277.7V446ZM-5317.74 446H-5337.75V466H-5317.74V446ZM-5357.77 446H-5377.79V466H-5357.77V446ZM-5397.81 446H-5417.83V466H-5397.81V446ZM-5437.85 446H-5457.87V466H-5437.85V446ZM-5477.88 446H-5497.9V466H-5477.88V446ZM-5517.92 446H-5537.94V466H-5517.92V446ZM-5557.96 446H-5577.98V466H-5557.96V446ZM-5598 446H-5618.01V466H-5598V446ZM-5638.03 446H-5658.05V466H-5638.03V446ZM-5678.07 446H-5698.09V466H-5678.07V446ZM-5718.11 446H-5738.13V466H-5718.11V446ZM-5758.14 446H-5778.16V466H-5758.14V446ZM-5798.18 446H-5818.2V466H-5798.18V446ZM-5838.22 446H-5858.24V466H-5838.22V446ZM-5878.26 446H-5898.27V466H-5878.26V446ZM-5918.29 446H-5938.31V466H-5918.29V446ZM-5958.33 446H-5978.35V466H-5958.33V446ZM-5998.37 446H-6018.39V466H-5998.37V446ZM-6038.4 446H-6058.42V466H-6038.4V446ZM-6078.44 446H-6098.46V466H-6078.44V446ZM-6118.48 446H-6138.5V466H-6118.48V446ZM-6158.52 446H-6178.53V466H-6158.52V446ZM-6198.55 446H-6218.57V466H-6198.55V446ZM-6238.59 446H-6258.61V466H-6238.59V446ZM-6278.63 446H-6298.65V466H-6278.63V446ZM-6318.66 446H-6338.68V466H-6318.66V446ZM-6358.7 446H-6378.72V466H-6358.7V446ZM-6398.74 446H-6418.76V466H-6398.74V446ZM-6438.78 446H-6458.79V466H-6438.78V446ZM-6478.81 446H-6498.83V466H-6478.81V446ZM-6518.85 446H-6538.87V466H-6518.85V446ZM-6558.89 446H-6578.9V466H-6558.89V446ZM-6598.92 446H-6618.94V466H-6598.92V446ZM-6638.96 446H-6658.98V466H-6638.96V446ZM-6679 446H-6699.02V466H-6679V446ZM-6719.03 446H-6729V466H-6719.03V446Z" fill="#74BC1F"/>
<g clip-path="url(#clip0_3314_30287)">
<rect x="-32.4434" y="-45" width="361" height="196" rx="12" fill="white"/>
<g clip-path="url(#clip1_3314_30287)">
<rect x="-7.94336" y="-7.5" width="29" height="29" rx="6.5" stroke="#74BC1F"/>
<mask id="path-5-inside-1_3314_30287" fill="white">
<path fill-rule="evenodd" clip-rule="evenodd" d="M3.93164 7.375H3.18164V8.125H3.93164V7.375ZM3.18164 6.625C2.98273 6.625 2.79196 6.70402 2.65131 6.84467C2.51066 6.98532 2.43164 7.17609 2.43164 7.375V8.125C2.43164 8.32391 2.51066 8.51468 2.65131 8.65533C2.79196 8.79598 2.98273 8.875 3.18164 8.875H3.93164C4.13055 8.875 4.32132 8.79598 4.46197 8.65533C4.60262 8.51468 4.68164 8.32391 4.68164 8.125V7.375C4.68164 7.17609 4.60262 6.98532 4.46197 6.84467C4.32132 6.70402 4.13055 6.625 3.93164 6.625H3.18164ZM6.93164 7.375H6.18164V8.125H6.93164V7.375ZM6.18164 6.625C5.98273 6.625 5.79196 6.70402 5.65131 6.84467C5.51066 6.98532 5.43164 7.17609 5.43164 7.375V8.125C5.43164 8.32391 5.51066 8.51468 5.65131 8.65533C5.79196 8.79598 5.98273 8.875 6.18164 8.875H6.93164C7.13055 8.875 7.32132 8.79598 7.46197 8.65533C7.60262 8.51468 7.68164 8.32391 7.68164 8.125V7.375C7.68164 7.17609 7.60262 6.98532 7.46197 6.84467C7.32132 6.70402 7.13055 6.625 6.93164 6.625H6.18164ZM9.93164 7.375H9.18164V8.125H9.93164V7.375ZM9.18164 6.625C8.98273 6.625 8.79196 6.70402 8.65131 6.84467C8.51066 6.98532 8.43164 7.17609 8.43164 7.375V8.125C8.43164 8.32391 8.51066 8.51468 8.65131 8.65533C8.79196 8.79598 8.98273 8.875 9.18164 8.875H9.93164C10.1306 8.875 10.3213 8.79598 10.462 8.65533C10.6026 8.51468 10.6816 8.32391 10.6816 8.125V7.375C10.6816 7.17609 10.6026 6.98532 10.462 6.84467C10.3213 6.70402 10.1306 6.625 9.93164 6.625H9.18164ZM3.93164 10.375H3.18164V11.125H3.93164V10.375ZM3.18164 9.625C2.98273 9.625 2.79196 9.70402 2.65131 9.84467C2.51066 9.98532 2.43164 10.1761 2.43164 10.375V11.125C2.43164 11.3239 2.51066 11.5147 2.65131 11.6553C2.79196 11.796 2.98273 11.875 3.18164 11.875H3.93164C4.13055 11.875 4.32132 11.796 4.46197 11.6553C4.60262 11.5147 4.68164 11.3239 4.68164 11.125V10.375C4.68164 10.1761 4.60262 9.98532 4.46197 9.84467C4.32132 9.70402 4.13055 9.625 3.93164 9.625H3.18164ZM6.93164 10.375H6.18164V11.125H6.93164V10.375ZM6.18164 9.625C5.98273 9.625 5.79196 9.70402 5.65131 9.84467C5.51066 9.98532 5.43164 10.1761 5.43164 10.375V11.125C5.43164 11.3239 5.51066 11.5147 5.65131 11.6553C5.79196 11.796 5.98273 11.875 6.18164 11.875H6.93164C7.13055 11.875 7.32132 11.796 7.46197 11.6553C7.60262 11.5147 7.68164 11.3239 7.68164 11.125V10.375C7.68164 10.1761 7.60262 9.98532 7.46197 9.84467C7.32132 9.70402 7.13055 9.625 6.93164 9.625H6.18164ZM9.93164 10.375H9.18164V11.125H9.93164V10.375ZM9.18164 9.625C8.98273 9.625 8.79196 9.70402 8.65131 9.84467C8.51066 9.98532 8.43164 10.1761 8.43164 10.375V11.125C8.43164 11.3239 8.51066 11.5147 8.65131 11.6553C8.79196 11.796 8.98273 11.875 9.18164 11.875H9.93164C10.1306 11.875 10.3213 11.796 10.462 11.6553C10.6026 11.5147 10.6816 11.3239 10.6816 11.125V10.375C10.6816 10.1761 10.6026 9.98532 10.462 9.84467C10.3213 9.70402 10.1306 9.625 9.93164 9.625H9.18164Z"/>
</mask>
<path fill-rule="evenodd" clip-rule="evenodd" d="M3.93164 7.375H3.18164V8.125H3.93164V7.375ZM3.18164 6.625C2.98273 6.625 2.79196 6.70402 2.65131 6.84467C2.51066 6.98532 2.43164 7.17609 2.43164 7.375V8.125C2.43164 8.32391 2.51066 8.51468 2.65131 8.65533C2.79196 8.79598 2.98273 8.875 3.18164 8.875H3.93164C4.13055 8.875 4.32132 8.79598 4.46197 8.65533C4.60262 8.51468 4.68164 8.32391 4.68164 8.125V7.375C4.68164 7.17609 4.60262 6.98532 4.46197 6.84467C4.32132 6.70402 4.13055 6.625 3.93164 6.625H3.18164ZM6.93164 7.375H6.18164V8.125H6.93164V7.375ZM6.18164 6.625C5.98273 6.625 5.79196 6.70402 5.65131 6.84467C5.51066 6.98532 5.43164 7.17609 5.43164 7.375V8.125C5.43164 8.32391 5.51066 8.51468 5.65131 8.65533C5.79196 8.79598 5.98273 8.875 6.18164 8.875H6.93164C7.13055 8.875 7.32132 8.79598 7.46197 8.65533C7.60262 8.51468 7.68164 8.32391 7.68164 8.125V7.375C7.68164 7.17609 7.60262 6.98532 7.46197 6.84467C7.32132 6.70402 7.13055 6.625 6.93164 6.625H6.18164ZM9.93164 7.375H9.18164V8.125H9.93164V7.375ZM9.18164 6.625C8.98273 6.625 8.79196 6.70402 8.65131 6.84467C8.51066 6.98532 8.43164 7.17609 8.43164 7.375V8.125C8.43164 8.32391 8.51066 8.51468 8.65131 8.65533C8.79196 8.79598 8.98273 8.875 9.18164 8.875H9.93164C10.1306 8.875 10.3213 8.79598 10.462 8.65533C10.6026 8.51468 10.6816 8.32391 10.6816 8.125V7.375C10.6816 7.17609 10.6026 6.98532 10.462 6.84467C10.3213 6.70402 10.1306 6.625 9.93164 6.625H9.18164ZM3.93164 10.375H3.18164V11.125H3.93164V10.375ZM3.18164 9.625C2.98273 9.625 2.79196 9.70402 2.65131 9.84467C2.51066 9.98532 2.43164 10.1761 2.43164 10.375V11.125C2.43164 11.3239 2.51066 11.5147 2.65131 11.6553C2.79196 11.796 2.98273 11.875 3.18164 11.875H3.93164C4.13055 11.875 4.32132 11.796 4.46197 11.6553C4.60262 11.5147 4.68164 11.3239 4.68164 11.125V10.375C4.68164 10.1761 4.60262 9.98532 4.46197 9.84467C4.32132 9.70402 4.13055 9.625 3.93164 9.625H3.18164ZM6.93164 10.375H6.18164V11.125H6.93164V10.375ZM6.18164 9.625C5.98273 9.625 5.79196 9.70402 5.65131 9.84467C5.51066 9.98532 5.43164 10.1761 5.43164 10.375V11.125C5.43164 11.3239 5.51066 11.5147 5.65131 11.6553C5.79196 11.796 5.98273 11.875 6.18164 11.875H6.93164C7.13055 11.875 7.32132 11.796 7.46197 11.6553C7.60262 11.5147 7.68164 11.3239 7.68164 11.125V10.375C7.68164 10.1761 7.60262 9.98532 7.46197 9.84467C7.32132 9.70402 7.13055 9.625 6.93164 9.625H6.18164ZM9.93164 10.375H9.18164V11.125H9.93164V10.375ZM9.18164 9.625C8.98273 9.625 8.79196 9.70402 8.65131 9.84467C8.51066 9.98532 8.43164 10.1761 8.43164 10.375V11.125C8.43164 11.3239 8.51066 11.5147 8.65131 11.6553C8.79196 11.796 8.98273 11.875 9.18164 11.875H9.93164C10.1306 11.875 10.3213 11.796 10.462 11.6553C10.6026 11.5147 10.6816 11.3239 10.6816 11.125V10.375C10.6816 10.1761 10.6026 9.98532 10.462 9.84467C10.3213 9.70402 10.1306 9.625 9.93164 9.625H9.18164Z" fill="#74BC1F"/>
<path d="M3.93164 7.375H4.93164V6.375H3.93164V7.375ZM3.18164 7.375V6.375H2.18164V7.375H3.18164ZM3.18164 8.125H2.18164V9.125H3.18164V8.125ZM3.93164 8.125V9.125H4.93164V8.125H3.93164ZM6.93164 7.375H7.93164V6.375H6.93164V7.375ZM6.18164 7.375V6.375H5.18164V7.375H6.18164ZM6.18164 8.125H5.18164V9.125H6.18164V8.125ZM6.93164 8.125V9.125H7.93164V8.125H6.93164ZM9.93164 7.375H10.9316V6.375H9.93164V7.375ZM9.18164 7.375V6.375H8.18164V7.375H9.18164ZM9.18164 8.125H8.18164V9.125H9.18164V8.125ZM9.93164 8.125V9.125H10.9316V8.125H9.93164ZM3.93164 10.375H4.93164V9.375H3.93164V10.375ZM3.18164 10.375V9.375H2.18164V10.375H3.18164ZM3.18164 11.125H2.18164V12.125H3.18164V11.125ZM3.93164 11.125V12.125H4.93164V11.125H3.93164ZM6.93164 10.375H7.93164V9.375H6.93164V10.375ZM6.18164 10.375V9.375H5.18164V10.375H6.18164ZM6.18164 11.125H5.18164V12.125H6.18164V11.125ZM6.93164 11.125V12.125H7.93164V11.125H6.93164ZM9.93164 10.375H10.9316V9.375H9.93164V10.375ZM9.18164 10.375V9.375H8.18164V10.375H9.18164ZM9.18164 11.125H8.18164V12.125H9.18164V11.125ZM9.93164 11.125V12.125H10.9316V11.125H9.93164ZM3.93164 6.375H3.18164V8.375H3.93164V6.375ZM2.18164 7.375V8.125H4.18164V7.375H2.18164ZM3.18164 9.125H3.93164V7.125H3.18164V9.125ZM4.93164 8.125V7.375H2.93164V8.125H4.93164ZM3.18164 5.625C2.71751 5.625 2.27239 5.80938 1.9442 6.13756L3.35842 7.55178C3.31153 7.59866 3.24795 7.625 3.18164 7.625V5.625ZM1.9442 6.13756C1.61602 6.46575 1.43164 6.91087 1.43164 7.375H3.43164C3.43164 7.4413 3.4053 7.50489 3.35842 7.55178L1.9442 6.13756ZM1.43164 7.375V8.125H3.43164V7.375H1.43164ZM1.43164 8.125C1.43164 8.58913 1.61602 9.03425 1.9442 9.36244L3.35842 7.94822C3.4053 7.99511 3.43164 8.0587 3.43164 8.125H1.43164ZM1.9442 9.36244C2.27239 9.69062 2.71751 9.875 3.18164 9.875V7.875C3.24795 7.875 3.31153 7.90134 3.35842 7.94822L1.9442 9.36244ZM3.18164 9.875H3.93164V7.875H3.18164V9.875ZM3.93164 9.875C4.39577 9.875 4.84089 9.69062 5.16908 9.36244L3.75486 7.94822C3.80175 7.90134 3.86534 7.875 3.93164 7.875V9.875ZM5.16908 9.36244C5.49727 9.03425 5.68164 8.58913 5.68164 8.125H3.68164C3.68164 8.0587 3.70798 7.99511 3.75486 7.94822L5.16908 9.36244ZM5.68164 8.125V7.375H3.68164V8.125H5.68164ZM5.68164 7.375C5.68164 6.91087 5.49727 6.46575 5.16908 6.13756L3.75486 7.55178C3.70798 7.50489 3.68164 7.4413 3.68164 7.375H5.68164ZM5.16908 6.13756C4.84089 5.80938 4.39577 5.625 3.93164 5.625V7.625C3.86534 7.625 3.80175 7.59866 3.75486 7.55178L5.16908 6.13756ZM3.93164 5.625H3.18164V7.625H3.93164V5.625ZM6.93164 6.375H6.18164V8.375H6.93164V6.375ZM5.18164 7.375V8.125H7.18164V7.375H5.18164ZM6.18164 9.125H6.93164V7.125H6.18164V9.125ZM7.93164 8.125V7.375H5.93164V8.125H7.93164ZM6.18164 5.625C5.71751 5.625 5.27239 5.80938 4.9442 6.13756L6.35842 7.55178C6.31153 7.59866 6.24795 7.625 6.18164 7.625V5.625ZM4.9442 6.13756C4.61602 6.46575 4.43164 6.91087 4.43164 7.375H6.43164C6.43164 7.4413 6.4053 7.50489 6.35842 7.55178L4.9442 6.13756ZM4.43164 7.375V8.125H6.43164V7.375H4.43164ZM4.43164 8.125C4.43164 8.58913 4.61602 9.03425 4.9442 9.36244L6.35842 7.94822C6.4053 7.99511 6.43164 8.0587 6.43164 8.125H4.43164ZM4.9442 9.36244C5.27239 9.69062 5.71751 9.875 6.18164 9.875V7.875C6.24795 7.875 6.31153 7.90134 6.35842 7.94822L4.9442 9.36244ZM6.18164 9.875H6.93164V7.875H6.18164V9.875ZM6.93164 9.875C7.39577 9.875 7.84089 9.69062 8.16908 9.36244L6.75486 7.94822C6.80175 7.90134 6.86534 7.875 6.93164 7.875V9.875ZM8.16908 9.36244C8.49727 9.03425 8.68164 8.58913 8.68164 8.125H6.68164C6.68164 8.0587 6.70798 7.99511 6.75486 7.94822L8.16908 9.36244ZM8.68164 8.125V7.375H6.68164V8.125H8.68164ZM8.68164 7.375C8.68164 6.91087 8.49727 6.46575 8.16908 6.13756L6.75486 7.55178C6.70798 7.50489 6.68164 7.4413 6.68164 7.375H8.68164ZM8.16908 6.13756C7.84089 5.80938 7.39577 5.625 6.93164 5.625V7.625C6.86534 7.625 6.80175 7.59866 6.75486 7.55178L8.16908 6.13756ZM6.93164 5.625H6.18164V7.625H6.93164V5.625ZM9.93164 6.375H9.18164V8.375H9.93164V6.375ZM8.18164 7.375V8.125H10.1816V7.375H8.18164ZM9.18164 9.125H9.93164V7.125H9.18164V9.125ZM10.9316 8.125V7.375H8.93164V8.125H10.9316ZM9.18164 5.625C8.71751 5.625 8.27239 5.80938 7.9442 6.13756L9.35842 7.55178C9.31153 7.59866 9.24795 7.625 9.18164 7.625V5.625ZM7.9442 6.13756C7.61602 6.46575 7.43164 6.91087 7.43164 7.375H9.43164C9.43164 7.4413 9.4053 7.50489 9.35842 7.55178L7.9442 6.13756ZM7.43164 7.375V8.125H9.43164V7.375H7.43164ZM7.43164 8.125C7.43164 8.58913 7.61602 9.03425 7.9442 9.36244L9.35842 7.94822C9.4053 7.99511 9.43164 8.0587 9.43164 8.125H7.43164ZM7.9442 9.36244C8.27239 9.69062 8.71751 9.875 9.18164 9.875V7.875C9.24795 7.875 9.31153 7.90134 9.35842 7.94822L7.9442 9.36244ZM9.18164 9.875H9.93164V7.875H9.18164V9.875ZM9.93164 9.875C10.3958 9.875 10.8409 9.69063 11.1691 9.36244L9.75486 7.94822C9.80175 7.90134 9.86534 7.875 9.93164 7.875V9.875ZM11.1691 9.36244C11.4973 9.03425 11.6816 8.58913 11.6816 8.125H9.68164C9.68164 8.0587 9.70798 7.99511 9.75486 7.94822L11.1691 9.36244ZM11.6816 8.125V7.375H9.68164V8.125H11.6816ZM11.6816 7.375C11.6816 6.91087 11.4973 6.46575 11.1691 6.13756L9.75486 7.55178C9.70798 7.50489 9.68164 7.4413 9.68164 7.375H11.6816ZM11.1691 6.13756C10.8409 5.80937 10.3958 5.625 9.93164 5.625V7.625C9.86534 7.625 9.80175 7.59866 9.75486 7.55178L11.1691 6.13756ZM9.93164 5.625H9.18164V7.625H9.93164V5.625ZM3.93164 9.375H3.18164V11.375H3.93164V9.375ZM2.18164 10.375V11.125H4.18164V10.375H2.18164ZM3.18164 12.125H3.93164V10.125H3.18164V12.125ZM4.93164 11.125V10.375H2.93164V11.125H4.93164ZM3.18164 8.625C2.71751 8.625 2.27239 8.80938 1.9442 9.13756L3.35842 10.5518C3.31153 10.5987 3.24795 10.625 3.18164 10.625V8.625ZM1.9442 9.13756C1.61602 9.46575 1.43164 9.91087 1.43164 10.375H3.43164C3.43164 10.4413 3.4053 10.5049 3.35842 10.5518L1.9442 9.13756ZM1.43164 10.375V11.125H3.43164V10.375H1.43164ZM1.43164 11.125C1.43164 11.5891 1.61602 12.0342 1.9442 12.3624L3.35842 10.9482C3.4053 10.9951 3.43164 11.0587 3.43164 11.125H1.43164ZM1.9442 12.3624C2.27239 12.6906 2.71751 12.875 3.18164 12.875V10.875C3.24794 10.875 3.31153 10.9013 3.35842 10.9482L1.9442 12.3624ZM3.18164 12.875H3.93164V10.875H3.18164V12.875ZM3.93164 12.875C4.39577 12.875 4.84089 12.6906 5.16908 12.3624L3.75486 10.9482C3.80175 10.9013 3.86534 10.875 3.93164 10.875V12.875ZM5.16908 12.3624C5.49727 12.0342 5.68164 11.5891 5.68164 11.125H3.68164C3.68164 11.0587 3.70798 10.9951 3.75486 10.9482L5.16908 12.3624ZM5.68164 11.125V10.375H3.68164V11.125H5.68164ZM5.68164 10.375C5.68164 9.91087 5.49727 9.46575 5.16908 9.13756L3.75486 10.5518C3.70798 10.5049 3.68164 10.4413 3.68164 10.375H5.68164ZM5.16908 9.13756C4.84089 8.80938 4.39577 8.625 3.93164 8.625V10.625C3.86534 10.625 3.80175 10.5987 3.75486 10.5518L5.16908 9.13756ZM3.93164 8.625H3.18164V10.625H3.93164V8.625ZM6.93164 9.375H6.18164V11.375H6.93164V9.375ZM5.18164 10.375V11.125H7.18164V10.375H5.18164ZM6.18164 12.125H6.93164V10.125H6.18164V12.125ZM7.93164 11.125V10.375H5.93164V11.125H7.93164ZM6.18164 8.625C5.71751 8.625 5.27239 8.80938 4.9442 9.13756L6.35842 10.5518C6.31153 10.5987 6.24795 10.625 6.18164 10.625V8.625ZM4.9442 9.13756C4.61602 9.46575 4.43164 9.91087 4.43164 10.375H6.43164C6.43164 10.4413 6.4053 10.5049 6.35842 10.5518L4.9442 9.13756ZM4.43164 10.375V11.125H6.43164V10.375H4.43164ZM4.43164 11.125C4.43164 11.5891 4.61601 12.0342 4.9442 12.3624L6.35842 10.9482C6.4053 10.9951 6.43164 11.0587 6.43164 11.125H4.43164ZM4.9442 12.3624C5.27239 12.6906 5.71751 12.875 6.18164 12.875V10.875C6.24794 10.875 6.31153 10.9013 6.35842 10.9482L4.9442 12.3624ZM6.18164 12.875H6.93164V10.875H6.18164V12.875ZM6.93164 12.875C7.39577 12.875 7.84089 12.6906 8.16908 12.3624L6.75486 10.9482C6.80175 10.9013 6.86534 10.875 6.93164 10.875V12.875ZM8.16908 12.3624C8.49727 12.0342 8.68164 11.5891 8.68164 11.125H6.68164C6.68164 11.0587 6.70798 10.9951 6.75486 10.9482L8.16908 12.3624ZM8.68164 11.125V10.375H6.68164V11.125H8.68164ZM8.68164 10.375C8.68164 9.91087 8.49727 9.46575 8.16908 9.13756L6.75486 10.5518C6.70798 10.5049 6.68164 10.4413 6.68164 10.375H8.68164ZM8.16908 9.13756C7.84089 8.80938 7.39577 8.625 6.93164 8.625V10.625C6.86534 10.625 6.80175 10.5987 6.75486 10.5518L8.16908 9.13756ZM6.93164 8.625H6.18164V10.625H6.93164V8.625ZM9.93164 9.375H9.18164V11.375H9.93164V9.375ZM8.18164 10.375V11.125H10.1816V10.375H8.18164ZM9.18164 12.125H9.93164V10.125H9.18164V12.125ZM10.9316 11.125V10.375H8.93164V11.125H10.9316ZM9.18164 8.625C8.71751 8.625 8.27239 8.80938 7.9442 9.13756L9.35842 10.5518C9.31153 10.5987 9.24795 10.625 9.18164 10.625V8.625ZM7.9442 9.13756C7.61602 9.46575 7.43164 9.91087 7.43164 10.375H9.43164C9.43164 10.4413 9.4053 10.5049 9.35842 10.5518L7.9442 9.13756ZM7.43164 10.375V11.125H9.43164V10.375H7.43164ZM7.43164 11.125C7.43164 11.5891 7.61601 12.0342 7.9442 12.3624L9.35842 10.9482C9.4053 10.9951 9.43164 11.0587 9.43164 11.125H7.43164ZM7.9442 12.3624C8.27239 12.6906 8.71751 12.875 9.18164 12.875V10.875C9.24794 10.875 9.31153 10.9013 9.35842 10.9482L7.9442 12.3624ZM9.18164 12.875H9.93164V10.875H9.18164V12.875ZM9.93164 12.875C10.3958 12.875 10.8409 12.6906 11.1691 12.3624L9.75486 10.9482C9.80175 10.9013 9.86534 10.875 9.93164 10.875V12.875ZM11.1691 12.3624C11.4973 12.0342 11.6816 11.5891 11.6816 11.125H9.68164C9.68164 11.0587 9.70798 10.9951 9.75486 10.9482L11.1691 12.3624ZM11.6816 11.125V10.375H9.68164V11.125H11.6816ZM11.6816 10.375C11.6816 9.91087 11.4973 9.46575 11.1691 9.13756L9.75486 10.5518C9.70798 10.5049 9.68164 10.4413 9.68164 10.375H11.6816ZM11.1691 9.13756C10.8409 8.80937 10.3958 8.625 9.93164 8.625V10.625C9.86534 10.625 9.80175 10.5987 9.75486 10.5518L11.1691 9.13756ZM9.93164 8.625H9.18164V10.625H9.93164V8.625Z" fill="#74BC1F" mask="url(#path-5-inside-1_3314_30287)"/>
<path d="M12.9316 12.6243V2.50075C12.9316 1.88012 12.4284 1.375 11.8066 1.375H11.1816V1.625H11.8066C12.289 1.625 12.6816 2.01686 12.6816 2.50075V12.6243C12.6816 12.6243 12.6816 12.6244 12.6816 12.6244C12.6816 12.743 12.658 12.8562 12.6151 12.9594C12.5708 13.0663 12.5058 13.1626 12.4253 13.2432C12.3447 13.3239 12.2485 13.3889 12.1416 13.4334C12.0384 13.4763 11.9253 13.5 11.8066 13.5H1.30664C1.07458 13.5 0.852017 13.4078 0.687923 13.2437C0.523827 13.0796 0.431641 12.8571 0.431641 12.625V2.5C0.431641 2.26794 0.523828 2.04538 0.687922 1.88128C0.852016 1.71719 1.07458 1.625 1.30664 1.625L12.9316 12.6243ZM12.9316 12.6243C12.9317 12.7721 12.9027 12.9184 12.8462 13.055M12.9316 12.6243L12.8462 13.055M12.8462 13.055C12.7897 13.1916 12.7069 13.3157 12.6024 13.4202L12.8462 13.055Z" fill="#74BC1F" stroke="#74BC1F"/>
<path fill-rule="evenodd" clip-rule="evenodd" d="M12.1816 5.5H0.931641V4.75H12.1816V5.5Z" fill="#74BC1F"/>
<path d="M3.18164 0.625C3.18164 0.525544 3.22115 0.430161 3.29148 0.359835C3.3618 0.289509 3.45718 0.25 3.55664 0.25C3.6561 0.25 3.75148 0.289509 3.82181 0.359835C3.89213 0.430161 3.93164 0.525544 3.93164 0.625V3.25C3.93164 3.34946 3.89213 3.44484 3.82181 3.51516C3.75148 3.58549 3.6561 3.625 3.55664 3.625C3.45718 3.625 3.3618 3.58549 3.29148 3.51516C3.22115 3.44484 3.18164 3.34946 3.18164 3.25V0.625ZM9.18164 0.625C9.18164 0.525544 9.22115 0.430161 9.29148 0.359835C9.3618 0.289509 9.45718 0.25 9.55664 0.25C9.6561 0.25 9.75148 0.289509 9.82181 0.359835C9.89213 0.430161 9.93164 0.525544 9.93164 0.625V3.25C9.93164 3.34946 9.89213 3.44484 9.82181 3.51516C9.75148 3.58549 9.6561 3.625 9.55664 3.625C9.45718 3.625 9.3618 3.58549 9.29148 3.51516C9.22115 3.44484 9.18164 3.34946 9.18164 3.25V0.625Z" fill="#74BC1F"/>
</g>
</g>
<defs>
<clipPath id="clip0_3314_30287">
<rect width="361" height="2044" fill="white" transform="translate(-32.4434 -1893)"/>
</clipPath>
<clipPath id="clip1_3314_30287">
<rect width="337" height="92" fill="white" transform="translate(-20.4434 -39)"/>
</clipPath>
</defs>
</svg>
