<svg width="24" height="25" viewBox="0 0 24 25" fill="none" xmlns="http://www.w3.org/2000/svg">
<path d="M7.00233 2.72993C6.71327 2.80805 6.44765 2.96039 6.23282 3.17132C6.00235 3.39397 5.89298 3.56975 5.7797 3.88615L5.68986 4.13223L5.67814 10.0344C5.66643 16.4288 5.65861 16.2022 5.87736 16.2764C6.04142 16.335 6.18985 16.2647 6.24453 16.1045C6.27969 15.9991 6.29141 14.5265 6.29531 10.05V4.13223L6.38906 3.93693C6.43984 3.82365 6.56484 3.6635 6.67812 3.56194C7.03748 3.23773 6.83436 3.25335 10.6468 3.25335C13.9826 3.25335 14.0138 3.25335 14.0998 3.17523C14.1545 3.12055 14.1857 3.04633 14.1857 2.96039C14.1857 2.87446 14.1545 2.80024 14.0998 2.74556C14.0138 2.66743 13.9826 2.66743 10.6155 2.67134C7.77183 2.67134 7.1781 2.68306 7.00233 2.72993Z" fill="white"/>
<path d="M15.131 2.69488C15.1037 2.7066 15.0568 2.76519 15.0216 2.83159C14.9709 2.92925 14.9709 2.96831 15.0099 3.06206C15.0334 3.12846 15.0881 3.19486 15.1271 3.21439C15.1662 3.23783 15.5373 3.25346 15.9552 3.25346C16.5607 3.25346 16.756 3.26517 16.92 3.31986C17.1817 3.4058 17.4903 3.67923 17.6075 3.93703L17.7013 4.13234V12.6672C17.7013 21.1631 17.6974 21.2022 17.6192 21.3779C17.5177 21.6045 17.3028 21.8271 17.0567 21.956L16.8614 22.0615L12.0764 22.0732C6.66251 22.0849 7.04531 22.1045 6.67814 21.7725C6.56486 21.6709 6.43986 21.5107 6.38908 21.3975L6.29534 21.2022V19.3077C6.29143 17.9483 6.27971 17.3741 6.24456 17.2765C6.18987 17.1163 6.04144 17.046 5.87347 17.1046C5.67035 17.1749 5.66254 17.2648 5.67817 19.3272C5.68988 21.1592 5.69379 21.21 5.77973 21.4482C5.99456 22.0459 6.42814 22.4521 7.01797 22.6084C7.22109 22.6591 7.85779 22.667 11.9983 22.667C17.1778 22.667 16.9708 22.6748 17.3966 22.4443C17.6114 22.3271 17.9044 22.0498 18.0372 21.8389C18.088 21.7607 18.17 21.585 18.2169 21.4482L18.3067 21.2022V12.6672V4.13234L18.2169 3.88625C18.002 3.28471 17.5645 2.88237 16.9786 2.72613C16.8068 2.68316 16.5489 2.66754 15.963 2.67144C15.5334 2.67144 15.1584 2.68316 15.131 2.69488Z" fill="white"/>
<path d="M10.3655 3.91798C10.3108 3.97267 10.2795 4.04689 10.2795 4.13282C10.2795 4.21876 10.3108 4.29297 10.3655 4.34766C10.4475 4.42188 10.4983 4.42578 11.5295 4.42578C12.5607 4.42578 12.6115 4.42188 12.6935 4.34766C12.7482 4.29297 12.7795 4.21876 12.7795 4.13282C12.7795 4.04689 12.7482 3.97267 12.6935 3.91798C12.6115 3.84377 12.5607 3.83986 11.5295 3.83986C10.4983 3.83986 10.4475 3.84377 10.3655 3.91798Z" fill="white"/>
<path d="M13.2952 3.91744C13.178 4.02681 13.178 4.23774 13.2952 4.34711C13.4788 4.51507 13.7561 4.38617 13.7561 4.13227C13.7561 3.97212 13.6311 3.83931 13.4827 3.83931C13.428 3.83931 13.342 3.87447 13.2952 3.91744Z" fill="white"/>
<path d="M7.12341 5.07803C6.88122 5.19521 6.86169 5.27724 6.84998 6.32018C6.84216 6.83188 6.84607 7.33187 6.86169 7.42171C6.92029 7.80842 7.32652 7.86701 7.42808 7.50765C7.45152 7.43343 7.46715 6.97641 7.46715 6.48814V5.59754H8.50227H9.5413L9.63505 5.49989C9.68974 5.44911 9.73271 5.35927 9.73271 5.30458C9.73271 5.2499 9.68974 5.16006 9.63505 5.10928L9.5413 5.01162H8.39681C7.42027 5.01162 7.23278 5.02334 7.12341 5.07803Z" fill="white"/>
<path d="M14.3616 5.10928C14.3069 5.16006 14.2639 5.2499 14.2639 5.30458C14.2639 5.35927 14.3069 5.44911 14.3616 5.49989L14.4553 5.59754H15.4943H16.5295V6.48814C16.5295 6.97641 16.5451 7.43343 16.5685 7.50765C16.6701 7.86701 17.0763 7.80842 17.1349 7.42171C17.1506 7.33187 17.1545 6.83188 17.1466 6.32018C17.1271 4.9335 17.2209 5.01162 15.5959 5.01162H14.4553L14.3616 5.10928Z" fill="white"/>
<path d="M8.57262 6.24179C8.44762 6.33163 8.0531 7.05427 8.0531 7.1988C8.0531 7.3902 8.26794 7.58941 8.47887 7.58941C8.56871 7.58941 8.63902 7.60113 8.63902 7.61675C8.63902 7.63628 8.58434 7.73394 8.52184 7.84331C8.38122 8.08158 8.37731 8.18705 8.50231 8.31205C8.60777 8.42142 8.74058 8.43704 8.86167 8.35111C8.98667 8.26127 9.38119 7.53863 9.38119 7.3941C9.38119 7.2027 9.16635 7.00349 8.95542 7.00349C8.86558 7.00349 8.79527 6.99177 8.79527 6.97224C8.79527 6.95662 8.84995 6.85506 8.91245 6.74959C9.05307 6.51132 9.05698 6.40585 8.93198 6.28085C8.82652 6.17148 8.69371 6.15586 8.57262 6.24179Z" fill="white"/>
<path d="M11.7834 10.0499C11.7326 10.1085 11.7053 10.2139 11.6936 10.4405L11.6741 10.753H11.3733C11.0256 10.753 10.9436 10.8077 10.9436 11.0342C10.9436 11.2412 11.0452 11.3076 11.3889 11.3311L11.678 11.3467L11.6936 11.6358C11.717 11.9834 11.7834 12.0811 11.9983 12.0811C12.2131 12.0811 12.2795 11.9834 12.3029 11.6358L12.3186 11.3467L12.6076 11.3311C12.9553 11.3076 13.0529 11.2412 13.0529 11.0264C13.0529 10.8077 12.967 10.753 12.6154 10.753H12.3225L12.3029 10.4405C12.2795 10.0694 12.217 9.97174 11.9983 9.97174C11.9045 9.97174 11.8303 9.99908 11.7834 10.0499Z" fill="white"/>
<path d="M6.97109 14.386C6.85 14.4954 6.83438 14.679 6.85 15.7336C6.86953 17.1203 6.77579 17.0422 8.40074 17.0422H9.54133L9.63508 16.9445C9.76007 16.8234 9.76007 16.675 9.63508 16.5539L9.54133 16.4562H8.5023H7.46717V15.5656C7.46717 14.6555 7.44374 14.4563 7.32264 14.3626C7.22109 14.2883 7.06484 14.2962 6.97109 14.386Z" fill="white"/>
<path d="M16.674 14.3626C16.5529 14.4563 16.5295 14.6555 16.5295 15.5656V16.4562H15.4943H14.4553L14.3616 16.5539C14.2366 16.675 14.2366 16.8234 14.3616 16.9445L14.4553 17.0422H15.5959C17.2209 17.0422 17.1271 17.1203 17.1466 15.7336C17.1623 14.679 17.1466 14.4954 17.0256 14.386C16.9318 14.2962 16.7756 14.2883 16.674 14.3626Z" fill="white"/>
<path d="M7.27966 17.7061C7.22497 17.7608 7.19373 17.835 7.19373 17.9209C7.19373 18.0068 7.22497 18.0811 7.27966 18.1357C7.36169 18.21 7.41247 18.2139 8.34604 18.2139C9.2796 18.2139 9.33038 18.21 9.41241 18.1357C9.5296 18.0264 9.5296 17.8154 9.41241 17.7061C9.33038 17.6319 9.2796 17.6279 8.34604 17.6279C7.41247 17.6279 7.36169 17.6319 7.27966 17.7061Z" fill="white"/>
<path d="M10.9241 17.7256C10.8694 17.7764 10.8264 17.8662 10.8264 17.9209C10.8264 17.9756 10.8694 18.0654 10.9241 18.1162L11.0178 18.2139H11.9983H12.9787L13.0724 18.1162C13.1271 18.0654 13.1701 17.9756 13.1701 17.9209C13.1701 17.8662 13.1271 17.7764 13.0724 17.7256L12.9787 17.6279H11.9983H11.0178L10.9241 17.7256Z" fill="white"/>
<path d="M14.6232 17.7061C14.506 17.8154 14.506 18.0264 14.6232 18.1357C14.7052 18.21 14.756 18.2139 15.6895 18.2139C16.6231 18.2139 16.6739 18.21 16.7559 18.1357C16.8106 18.0811 16.8419 18.0068 16.8419 17.9209C16.8419 17.835 16.8106 17.7608 16.7559 17.7061C16.6739 17.6319 16.6231 17.6279 15.6895 17.6279C14.756 17.6279 14.7052 17.6319 14.6232 17.7061Z" fill="white"/>
<path d="M11.6194 18.8546C11.217 18.9874 10.9319 19.2374 10.7522 19.6202C10.6663 19.7999 10.6506 19.8897 10.6506 20.167C10.6506 20.4639 10.6663 20.5303 10.7795 20.7608C10.928 21.0615 11.1389 21.2686 11.4475 21.4131C11.6311 21.499 11.7209 21.5146 11.9983 21.5146C12.2756 21.5146 12.3654 21.499 12.549 21.4131C12.8576 21.2686 13.0685 21.0615 13.217 20.7608C13.3302 20.5303 13.3459 20.4639 13.3459 20.167C13.3459 19.8897 13.3302 19.7999 13.2443 19.6163C13.0178 19.1319 12.5842 18.8389 12.0647 18.8155C11.8967 18.8038 11.717 18.8233 11.6194 18.8546ZM12.4279 19.5186C12.6584 19.671 12.7599 19.8663 12.7599 20.167C12.7599 20.4717 12.6584 20.6631 12.4162 20.8233C12.1975 20.9678 11.8186 20.9756 11.5959 20.835C11.2991 20.6514 11.1623 20.2881 11.2522 19.9405C11.3069 19.7413 11.5451 19.4835 11.7326 19.4288C11.9397 19.3663 12.26 19.4053 12.4279 19.5186Z" fill="white"/>
</svg>
