<svg width="12" height="12" viewBox="0 0 12 12" fill="none" xmlns="http://www.w3.org/2000/svg">
<g id="Group">
<path id="Vector" d="M5.92198 0.255803L5.92158 0.256022C5.8542 0.293197 5.83247 0.364933 5.85068 0.433539C5.86894 0.502338 5.924 0.554915 6.00106 0.554915C6.03813 0.554915 6.07899 0.536614 6.11163 0.504198C6.14433 0.471718 6.16231 0.431513 6.16231 0.395941C6.16231 0.275895 6.02792 0.19641 5.92198 0.255803Z" fill="#1FBCB3" stroke="#1FBCB3" stroke-width="0.133333"/>
<path id="Vector_2" d="M4.87289 0.272688C3.91334 0.480096 3.03585 0.89491 2.32018 1.47611C1.88486 1.82938 1.42674 2.33764 1.11676 2.80944C0.934428 3.08978 0.638132 3.68009 0.519614 4.00374C0.403374 4.31827 0.268901 4.86072 0.221038 5.214C0.168617 5.57639 0.164058 6.39918 0.209642 6.72967C0.391978 8.05616 0.954941 9.19804 1.87802 10.1234C3.53956 11.7827 5.99881 12.2841 8.18913 11.4089C9.63414 10.8299 10.8604 9.60146 11.421 8.16328C11.8837 6.97582 11.9589 5.77012 11.6421 4.52796C11.4438 3.75075 11.0381 2.95075 10.5253 2.31941C10.3156 2.05958 9.90081 1.64933 9.64326 1.4442C8.93671 0.881235 7.99767 0.441349 7.14753 0.277246C6.92417 0.236221 6.79881 0.313714 6.79881 0.493771C6.79881 0.63964 6.85807 0.676106 7.26605 0.776392C8.23699 1.01571 9.04155 1.46015 9.7367 2.1348C10.466 2.84591 10.9629 3.70061 11.2091 4.66471C11.3321 5.15018 11.3663 5.4442 11.3663 6.00032C11.3686 6.55645 11.3321 6.84363 11.2091 7.33593C10.7259 9.22995 9.22161 10.7342 7.33443 11.2083C6.84212 11.3314 6.55494 11.3656 6.00109 11.3656C5.44953 11.3656 5.16235 11.3314 4.66776 11.2083C3.01762 10.7935 1.62958 9.57183 1.00053 7.98323C0.200525 5.95246 0.697391 3.65274 2.26548 2.13708C2.97659 1.45104 3.76748 1.01571 4.73614 0.776392C5.135 0.678386 5.20337 0.63964 5.20337 0.505167C5.20337 0.325109 5.0689 0.229383 4.87289 0.272688Z" fill="#1FBCB3"/>
<path id="Vector_3" d="M1.54296 4.69874C1.51561 4.71014 1.47231 4.74889 1.44496 4.78307C1.39709 4.84233 1.39709 4.85373 1.39709 6.00245V7.16256L1.46319 7.23549C1.55208 7.33578 1.68655 7.34034 1.78 7.24689L1.84154 7.18535L1.85294 6.42182L1.86433 5.66057L2.32929 6.33749C2.97658 7.27424 2.95379 7.24689 3.05863 7.2788C3.13157 7.29931 3.15892 7.29931 3.22729 7.26512C3.38228 7.19219 3.38 7.20586 3.38 5.95458V4.83322L3.30023 4.75344C3.22729 4.68051 3.20906 4.67367 3.13385 4.68507C3.07915 4.69418 3.02672 4.72381 2.98798 4.7694L2.92416 4.83777V5.61726V6.39447L2.39994 5.63322C2.11276 5.21384 1.84382 4.83322 1.80279 4.78535C1.72302 4.69418 1.62729 4.66455 1.54296 4.69874Z" fill="#1FBCB3"/>
<path id="Vector_4" d="M4.90709 4.7149C4.05467 4.89724 3.61707 5.84767 4.02504 6.62715C4.13217 6.82772 4.3806 7.06932 4.58801 7.17188C4.87974 7.31319 5.14641 7.34966 5.44271 7.28812C5.92134 7.18556 6.27917 6.85735 6.44783 6.36505C6.47974 6.27388 6.49114 6.17359 6.49114 6.00037C6.49114 5.62203 6.3749 5.34168 6.10367 5.07274C5.78231 4.75137 5.34242 4.61918 4.90709 4.7149ZM5.47689 5.19126C5.72305 5.27559 5.94641 5.52858 6.01479 5.79525C6.12875 6.25109 5.84613 6.71832 5.38573 6.83456C5.1806 6.88698 5.00738 6.86647 4.80225 6.76391C4.60852 6.66818 4.49456 6.55194 4.39883 6.34453C4.33729 6.21234 4.32818 6.16903 4.32818 6.00037C4.32818 5.83171 4.33729 5.78841 4.39883 5.65621C4.43758 5.57188 4.50595 5.46476 4.55154 5.41462C4.64043 5.31433 4.85011 5.19354 4.98915 5.15707C5.10538 5.12972 5.34698 5.14567 5.47689 5.19126Z" fill="#1FBCB3"/>
<path id="Vector_5" d="M7.0268 4.69427C6.96527 4.71706 6.89233 4.79683 6.87866 4.85837C6.87182 4.89256 6.96299 5.39626 7.0929 6.04355C7.30943 7.12617 7.32082 7.16948 7.38464 7.23558C7.51455 7.36321 7.72652 7.3313 7.80857 7.16948C7.8268 7.13529 7.93621 6.79569 8.05472 6.41506C8.17096 6.03672 8.27353 5.72674 8.28037 5.72674C8.2872 5.72674 8.3966 6.05495 8.51968 6.45837C8.71341 7.08971 8.75216 7.19455 8.80914 7.24241C8.9345 7.34726 9.07125 7.34498 9.18065 7.23102C9.23991 7.16948 9.25814 7.09427 9.47011 6.04127C9.63421 5.21848 9.69119 4.89939 9.67752 4.85153C9.65245 4.76264 9.55216 4.69199 9.45188 4.69199C9.38806 4.69199 9.35387 4.70794 9.30601 4.76036C9.25131 4.8219 9.23079 4.90623 9.10088 5.56264C9.01883 5.96378 8.95045 6.29199 8.94817 6.28743C8.94589 6.28515 8.83877 5.95011 8.71341 5.54441C8.46042 4.7239 8.44447 4.68971 8.28037 4.68971C8.11626 4.68971 8.10031 4.7239 7.84732 5.54441C7.71968 5.95011 7.61484 6.28515 7.61256 6.28971C7.608 6.29199 7.5419 5.96834 7.46213 5.57176C7.38464 5.1729 7.30487 4.82418 7.28891 4.79455C7.24105 4.70338 7.12481 4.6578 7.0268 4.69427Z" fill="#1FBCB3"/>
<path id="Vector_6" d="M10.2952 4.69911C10.2678 4.71051 10.2245 4.74925 10.1972 4.78344C10.1516 4.8427 10.1493 4.86321 10.1493 5.54925V6.25581L10.2154 6.3219C10.3043 6.40851 10.4365 6.41307 10.5299 6.3333L10.5937 6.2786L10.6006 5.55837L10.6074 4.84042L10.5436 4.77204C10.4752 4.69683 10.3727 4.6672 10.2952 4.69911Z" fill="#1FBCB3"/>
<path id="Vector_7" d="M10.2496 6.90762C10.1333 7.00106 10.1197 7.1287 10.2154 7.23582C10.2701 7.29736 10.2974 7.31104 10.3772 7.31104C10.6051 7.31104 10.6872 7.00334 10.4889 6.8985C10.4046 6.85519 10.3088 6.85975 10.2496 6.90762Z" fill="#1FBCB3"/>
</g>
</svg>
