<svg width="12" height="12" viewBox="0 0 12 12" fill="none" xmlns="http://www.w3.org/2000/svg">
<g id="Group">
<path id="Vector" d="M4.63912 0.621417L4.63897 0.621289C4.59466 0.582583 4.55425 0.547648 4.50302 0.521105C4.45075 0.494018 4.3911 0.477452 4.30816 0.466744C4.14613 0.445829 3.87609 0.445414 3.35848 0.445414C2.90539 0.445414 2.67531 0.444822 2.55073 0.438663C2.48794 0.435559 2.45705 0.431201 2.43955 0.426531C2.42644 0.423033 2.42176 0.419896 2.41073 0.411414L2.37008 0.464255M4.63912 0.621417L3.34224 1.99875C3.34837 1.99998 3.35765 2.00139 3.37057 2.00283C3.39625 2.00569 3.4322 2.00825 3.47771 2.01035C3.5685 2.01456 3.69376 2.01683 3.84357 2.01683C4.25611 2.01683 4.34782 2.00942 4.44787 1.97882C4.86719 1.8474 5.12589 1.43899 5.06427 0.994946L5.06425 0.994754C5.01796 0.653917 4.75381 0.360431 4.40258 0.266768L4.40258 0.266775L4.40166 0.266516C4.36654 0.256612 4.29189 0.248542 4.12825 0.243653C3.96739 0.238847 3.72749 0.237136 3.36759 0.237136C2.90995 0.237136 2.67757 0.237727 2.55184 0.243888C2.48846 0.246993 2.45726 0.251356 2.4396 0.256043C2.42643 0.259537 2.42176 0.262658 2.41089 0.271017C2.36334 0.308114 2.36339 0.374588 2.41101 0.411632L2.37008 0.464255M4.63912 0.621417C4.99469 0.933809 4.916 1.51327 4.49462 1.7391C4.44382 1.76655 4.40153 1.78126 4.3123 1.79028C4.22744 1.79885 4.09453 1.80287 3.86113 1.80853L3.86112 1.80853C3.72046 1.81193 3.58905 1.81704 3.4902 1.8224C3.44071 1.82509 3.39981 1.82782 3.37017 1.8304C3.35527 1.83169 3.34383 1.8329 3.33581 1.83397C3.33457 1.83413 3.33349 1.83429 3.33256 1.83442C3.317 1.84541 3.30169 1.87215 3.30188 1.91294C3.30209 1.95597 3.3197 1.98637 3.3393 1.99811L4.63912 0.621417ZM2.37008 0.464255C2.4293 0.509803 2.45435 0.512081 3.35848 0.512081C4.39926 0.512081 4.4152 0.514358 4.59512 0.6715C4.91395 0.951622 4.84563 1.47543 4.46303 1.68039L2.37008 0.464255Z" fill="#FEAC4A" stroke="#FEAC4A" stroke-width="0.133333"/>
<path id="Vector_2" d="M7.7766 1.06074C6.95446 1.15412 6.28945 1.47523 5.70188 2.06053C5.19629 2.56383 4.90706 3.08992 4.74536 3.78681C4.65655 4.16713 4.66565 4.95056 4.76131 5.28762C4.77497 5.34 4.77497 5.34 4.51535 5.34C4.28533 5.34 4.24889 5.34456 4.20562 5.38555C4.13957 5.44704 4.1373 5.57685 4.20106 5.63151C4.24433 5.66795 4.38326 5.67023 6.10953 5.68161L7.97018 5.693V7.44661V9.20022L7.89503 9.35736C7.83354 9.48945 7.76294 9.57143 7.4646 9.87433L7.10704 10.2364H5.45364H3.80024L3.45635 9.888C3.08513 9.51222 2.99631 9.38241 2.94849 9.13189C2.93027 9.03624 2.92571 8.50561 2.93027 7.34412L2.9371 5.693L3.26049 5.68161C3.52467 5.6725 3.59299 5.66339 3.63171 5.63151C3.69548 5.57685 3.6932 5.44704 3.62715 5.38555C3.58161 5.34456 3.54972 5.34 3.24683 5.34C2.89383 5.34 2.78451 5.36733 2.69342 5.46754C2.63192 5.53586 2.5841 5.67023 2.5841 5.76815V5.85925L2.31764 5.86836C1.98969 5.88202 1.74373 5.95718 1.4955 6.12343C1.17438 6.33751 0.91931 6.71328 0.8396 7.09361C0.698401 7.75861 1.04912 8.476 1.65719 8.77662C1.89632 8.89504 2.08535 8.93831 2.36319 8.93831H2.5841V8.9998C2.58638 9.13417 2.6547 9.38924 2.73441 9.55094C2.79818 9.68075 2.87333 9.7764 3.06691 9.97454L3.31515 10.2319L2.9371 10.241L2.55677 10.2478L2.49983 10.3139C2.43834 10.3845 2.4429 10.4642 2.50894 10.5371C2.54311 10.5758 2.7458 10.5781 6.13914 10.5781C8.11594 10.5781 9.73745 10.5849 9.74201 10.594C9.76251 10.6282 9.67141 10.8741 9.60081 10.9857C9.50516 11.1337 9.33663 11.2886 9.19088 11.3615C8.92897 11.4958 9.11344 11.489 5.45364 11.489C1.77789 11.489 1.96692 11.4958 1.70957 11.3569C1.46133 11.2248 1.21993 10.9083 1.17894 10.66L1.16527 10.5781H1.53421C1.87127 10.5781 1.90543 10.5735 1.94642 10.5325C2.00336 10.4756 2.00564 10.3708 1.9487 10.3025C1.90543 10.2478 1.90088 10.2478 1.46133 10.2478C0.958026 10.2478 0.930697 10.2569 0.844155 10.4277C0.803162 10.5097 0.803162 10.5234 0.837323 10.6942C0.944362 11.2453 1.37252 11.6735 1.93504 11.7987C2.14911 11.8466 8.76955 11.8443 8.99274 11.7965C9.42545 11.7054 9.78528 11.4139 9.97658 11.0017C10.0608 10.8172 10.1155 10.5553 10.0905 10.4551C10.0677 10.3685 9.98569 10.2911 9.88093 10.2615C9.824 10.2455 9.40723 10.2364 8.68984 10.2364H7.58758L7.83581 9.97909C8.27763 9.52816 8.32318 9.3938 8.32318 8.53977V7.96586L8.54637 7.93853C9.70102 7.79961 10.7099 7.08222 11.2314 6.03461C11.6345 5.22841 11.7029 4.29011 11.4205 3.42925C11.2952 3.04437 11.2246 2.95783 11.0857 3.01476C10.9536 3.06942 10.9513 3.12408 11.0652 3.45658C11.1996 3.85057 11.2451 4.1102 11.2451 4.50874C11.2451 5.1487 11.0789 5.69983 10.7213 6.2373C10.5414 6.51059 10.1702 6.89092 9.91282 7.06628C9.48694 7.35779 8.96997 7.54909 8.46666 7.60603L8.32318 7.62197V7.3464V7.07311L8.40972 7.05945C9.22731 6.93647 9.83083 6.57208 10.259 5.94352C10.5642 5.49486 10.6917 5.06671 10.6917 4.49736C10.694 3.80502 10.4571 3.22428 9.96747 2.71642C9.48011 2.21083 8.84699 1.9421 8.14099 1.93982C7.83354 1.93982 7.61491 1.97171 7.33478 2.0628C6.69483 2.27233 6.13003 2.75969 5.82258 3.37004C5.74059 3.53629 5.64267 3.84602 5.60167 4.07376C5.54701 4.37893 5.56296 4.83214 5.64039 5.1282L5.69505 5.34H5.40581H5.11658L5.07559 5.1282C5.01638 4.83897 5.0141 4.15802 5.07331 3.88929C5.20768 3.26528 5.48552 2.75514 5.92962 2.31104C6.20291 2.03775 6.37371 1.91022 6.68344 1.74624C7.74244 1.18372 9.03373 1.28621 9.99708 2.00587C10.1747 2.13796 10.3455 2.29738 10.5345 2.50918C10.678 2.67087 10.7577 2.69365 10.8466 2.60027C10.9354 2.50462 10.9149 2.43402 10.7281 2.21994C10.0039 1.38413 8.86748 0.937761 7.7766 1.06074ZM7.95879 2.35659C7.95879 2.44541 8.04761 2.53878 8.13188 2.53878C8.22297 2.53878 8.30041 2.4568 8.30041 2.36114V2.28144L8.43477 2.29738C8.59419 2.3156 8.84015 2.38164 8.99274 2.44541C9.0975 2.49096 9.09978 2.49323 9.06562 2.54334C8.99274 2.64582 9.04057 2.79385 9.15444 2.82118C9.22504 2.8394 9.33891 2.78474 9.3594 2.72097C9.36624 2.69592 9.38218 2.67543 9.39357 2.67543C9.4505 2.67543 9.83766 3.04665 9.93787 3.19695C9.96747 3.24478 9.96747 3.25389 9.94014 3.263C9.87865 3.2835 9.8035 3.37915 9.8035 3.43836C9.8035 3.50896 9.89687 3.60917 9.96292 3.60917C9.99025 3.60917 10.0404 3.59322 10.0768 3.57501L10.1428 3.54084L10.1907 3.64788C10.2499 3.78225 10.3228 4.06009 10.3432 4.21724L10.3569 4.33794H10.2726C10.1656 4.33794 10.0996 4.40171 10.0996 4.50647C10.0996 4.60212 10.1838 4.67955 10.2886 4.67955H10.3546L10.3387 4.80936C10.3205 4.96195 10.2271 5.2899 10.177 5.3901C10.1519 5.44021 10.1314 5.45387 10.1041 5.44021C10.0836 5.4311 10.029 5.41971 9.98342 5.41288C9.91509 5.40605 9.89232 5.41516 9.85133 5.46526C9.783 5.55408 9.79211 5.60874 9.88549 5.69755C9.97886 5.7841 9.98569 5.76132 9.78983 5.98906C9.72607 6.06422 9.6122 6.17353 9.53704 6.23275L9.40267 6.33751L9.33208 6.26008C9.24326 6.16215 9.14533 6.15531 9.077 6.24186C9.02007 6.31473 9.01779 6.36711 9.06334 6.45593L9.0975 6.5197L8.94264 6.57891C8.77866 6.6404 8.57597 6.69278 8.42111 6.71556L8.32318 6.72922V6.19631C8.32318 5.62923 8.31635 5.57685 8.21386 5.46754C8.09316 5.34 8.08861 5.34 7.03644 5.34H6.06854L6.04349 5.27623C6.00705 5.18514 5.94101 4.91185 5.92279 4.78659L5.90685 4.67955H5.97517C6.04804 4.67955 6.15508 4.59984 6.16192 4.54291C6.17558 4.41765 6.10726 4.33794 5.98883 4.33794C5.93645 4.33794 5.90912 4.32655 5.90912 4.30606C5.90912 4.2104 5.99111 3.87107 6.05032 3.71848L6.11637 3.54084L6.18241 3.57501C6.27579 3.62283 6.335 3.61828 6.39877 3.55223C6.47848 3.47252 6.47164 3.39053 6.37827 3.30172L6.29856 3.22656L6.41926 3.08081C6.48531 3.0011 6.59462 2.8895 6.66295 2.83257C6.8793 2.65493 6.85425 2.65948 6.94307 2.75514C7.01139 2.82801 7.03416 2.83712 7.08655 2.82346C7.22319 2.7893 7.25507 2.70503 7.19586 2.52512C7.18447 2.48868 7.19131 2.47274 7.22319 2.46363C7.24596 2.4568 7.32567 2.42947 7.40083 2.40214C7.56025 2.34293 7.78116 2.29282 7.88592 2.29054C7.95196 2.28827 7.95879 2.2951 7.95879 2.35659ZM2.5841 6.45366V6.69962L2.37913 6.711C2.21971 6.72011 2.14684 6.73605 2.05118 6.78388C1.8075 6.90231 1.66175 7.14599 1.6663 7.42611C1.66858 7.59692 1.72779 7.73812 1.85305 7.87476C1.98286 8.01596 2.13545 8.07745 2.38596 8.09112L2.5841 8.10023V8.34846V8.5967H2.37002C2.11951 8.5967 1.93504 8.54888 1.73007 8.4259C1.3839 8.22321 1.14933 7.80644 1.14933 7.40106C1.14933 7.09589 1.2837 6.77705 1.50233 6.55842C1.74373 6.31701 2.01247 6.20997 2.37458 6.2077L2.5841 6.20542V6.45366ZM2.5841 7.40334V7.75861L2.40874 7.75178C2.26754 7.74495 2.21516 7.73129 2.15595 7.69029C2.06029 7.62197 2.00791 7.51721 2.00791 7.39878C2.00791 7.18698 2.17872 7.04806 2.44062 7.04806H2.5841V7.40334Z" fill="#FEAC4A"/>
<path id="Vector_3" d="M8.0158 2.98282L7.95886 3.03748V3.77764C7.95886 4.26956 7.96797 4.53602 7.98391 4.57246C8.0158 4.64306 9.01558 5.22607 9.10212 5.22607C9.24105 5.22607 9.3162 5.05755 9.2251 4.95506C9.20461 4.93229 8.98825 4.79792 8.74457 4.65672L8.30047 4.40393V3.7207V3.03748L8.24354 2.98282C8.21393 2.95094 8.16155 2.92589 8.12967 2.92589C8.09778 2.92589 8.0454 2.95094 8.0158 2.98282Z" fill="#FEAC4A"/>
<path id="Vector_4" d="M1.17217 1.76683C0.901162 1.81921 0.61193 2.04923 0.49806 2.29974C0.279428 2.77572 0.48895 3.34735 0.962652 3.57054L1.11524 3.64342L1.95788 3.65481C2.78458 3.66619 2.8028 3.66847 2.92123 3.72085C3.07381 3.78917 3.21046 3.94404 3.25601 4.09435C3.27423 4.15811 3.29017 4.28793 3.29017 4.38358C3.29017 4.52705 3.29928 4.56577 3.33572 4.60676C3.40404 4.67964 3.52246 4.67509 3.58395 4.59765C3.67277 4.48378 3.64089 4.08068 3.52474 3.85066C3.45414 3.71174 3.28789 3.53182 3.16036 3.45667C2.95083 3.33369 2.90756 3.32914 2.01482 3.31547C1.25416 3.30181 1.17673 3.29725 1.09474 3.25854C0.798678 3.1105 0.67342 2.75978 0.807788 2.45233C0.862446 2.3248 0.958097 2.22687 1.11068 2.14716C1.20178 2.09705 1.23594 2.09478 1.74153 2.08794C2.03531 2.08567 2.29949 2.07656 2.3291 2.06973C2.38831 2.05834 2.44753 1.94219 2.42931 1.87387C2.42475 1.85109 2.39287 1.81238 2.36098 1.78733C2.3086 1.74406 2.26989 1.74178 1.78935 1.74406C1.50695 1.74633 1.22911 1.75544 1.17217 1.76683Z" fill="#FEAC4A"/>
</g>
</svg>
