<svg width="24" height="20" viewBox="0 0 24 20" fill="none" xmlns="http://www.w3.org/2000/svg">
<g id="Group">
<path id="Vector" d="M0.478157 0.160883C0.356282 0.221821 0.220344 0.343695 0.150032 0.451508C0.032844 0.624945 0.023469 0.685883 0.0094065 1.22495C-0.004656 1.68432 0.0094065 1.85307 0.070344 2.01245C0.150032 2.22807 0.403157 2.4812 0.576594 2.52338C0.632844 2.53745 1.45316 2.54682 2.39534 2.53745L4.11097 2.52338L4.27972 2.39213C4.43909 2.27495 4.47659 2.26557 4.94066 2.26557C5.21253 2.26557 5.44222 2.27963 5.45159 2.29838C5.47034 2.32651 7.77659 11.2656 7.90316 11.7906C7.93128 11.9171 7.92659 11.9218 7.75316 11.9218C7.21409 11.9218 6.56722 12.2312 6.09378 12.714C5.12816 13.6937 5.03441 15.0953 5.86409 16.2015C6.29534 16.7828 6.87659 17.1015 7.73909 17.2421L7.91253 17.2656L7.82347 17.4343C7.59378 17.8937 7.60784 18.5406 7.86097 19.0093C8.02503 19.3093 8.37659 19.6328 8.70941 19.7874C8.93441 19.8953 9.04222 19.914 9.39847 19.914C9.78284 19.914 9.85316 19.8999 10.1344 19.7593C10.8891 19.389 11.2875 18.564 11.0907 17.7812C11.0485 17.6124 10.9828 17.4296 10.9407 17.3734L10.875 17.2656H14.6203H18.3703L18.2766 17.4765C17.7938 18.5734 18.5297 19.8203 19.7157 19.9234C20.7 20.0031 21.5344 19.2718 21.6 18.2781C21.6188 17.964 21.5719 17.739 21.3985 17.3499C21.3703 17.2749 21.4032 17.2656 21.825 17.2656C22.0828 17.2656 22.3594 17.2468 22.4485 17.2187C22.8328 17.1109 23.1094 16.7921 23.1469 16.4218C23.1797 16.0749 23.1235 15.8734 22.936 15.6671C22.5938 15.2874 23.3578 15.3249 15.0844 15.2968L7.69222 15.2734L7.56097 15.1749C7.36878 15.0296 7.25628 14.814 7.25628 14.5749C7.25628 14.3218 7.35941 14.1203 7.55628 13.9749L7.71097 13.8671L14.3672 13.8437L21.0235 13.8203L21.2532 13.7078C21.5438 13.5624 21.7969 13.314 21.9188 13.0468C21.975 12.9296 22.0735 12.6062 22.1438 12.3249C22.2703 11.814 22.2703 11.8093 22.1813 11.6921C22.0407 11.5046 21.8719 11.4624 21.7172 11.5749C21.6141 11.6546 21.5625 11.7718 21.4407 12.2218C21.2766 12.8312 21.1594 13.0093 20.8594 13.0984C20.7516 13.1265 18.7828 13.1406 14.9907 13.1312C9.31409 13.1171 9.28597 13.1171 9.15941 13.0187C9.08909 12.9671 8.99066 12.8734 8.94378 12.8078C8.87816 12.714 6.79691 4.77338 6.79691 4.60932C6.79691 4.58119 7.20472 4.56245 7.94066 4.56245C8.56878 4.56245 9.12191 4.54838 9.16409 4.53432C9.28597 4.48744 9.37034 4.2437 9.31878 4.0937C9.25316 3.90151 9.10316 3.85932 8.46097 3.85932H7.87972L7.83284 3.6812C7.80941 3.58745 7.65941 3.01088 7.50003 2.40619C7.34066 1.80151 7.17191 1.21557 7.12034 1.10776C6.98909 0.835882 6.67503 0.564009 6.35628 0.442133C6.12191 0.353071 5.99534 0.343695 5.23128 0.343695C4.48597 0.343695 4.36409 0.33432 4.30784 0.264008C4.14847 0.0765076 4.00316 0.0624447 2.31097 0.0624447C0.735969 0.0624447 0.670344 0.0671329 0.478157 0.160883ZM3.89066 0.854633C3.94691 0.962446 3.95159 1.69838 3.90003 1.78745C3.86722 1.82963 3.51566 1.84369 2.29222 1.83432L0.726594 1.82026L0.712532 1.3562C0.703156 1.0562 0.717219 0.873383 0.754719 0.831196C0.796907 0.779633 1.08284 0.76557 2.32503 0.76557C3.77347 0.76557 3.84378 0.770258 3.89066 0.854633ZM6.18753 1.13588C6.27659 1.18276 6.38909 1.27182 6.43597 1.33745C6.51097 1.44057 7.12034 3.62494 7.12503 3.80307C7.12503 3.84995 7.05472 3.85932 6.85784 3.84995L6.58597 3.83588L6.32347 2.81401C6.13128 2.06401 6.03284 1.76401 5.95784 1.68901C5.86878 1.59526 5.79847 1.58588 5.25003 1.57182L4.64066 1.55307V1.29995V1.04682H5.33441C5.91566 1.04682 6.05159 1.06088 6.18753 1.13588ZM8.17972 12.8124C8.21253 12.9015 8.25472 13.014 8.27347 13.0562C8.30159 13.1312 8.27347 13.1406 8.02034 13.1406C7.19534 13.1406 6.55784 13.764 6.55784 14.5703C6.55784 14.9874 6.67972 15.2828 6.97972 15.5828C7.43909 16.0374 6.6891 15.9999 14.9766 15.9999C22.9875 15.9999 22.4532 15.9812 22.4532 16.2812C22.4532 16.5437 22.3453 16.5718 21.2953 16.5484C20.7844 16.539 20.2453 16.5062 20.1 16.4734C19.8797 16.4312 19.7625 16.4359 19.4907 16.4921C18.9703 16.5999 10.2703 16.5953 9.75472 16.4874C9.43597 16.4218 9.37034 16.4218 9.04691 16.4874C8.63441 16.5718 8.00159 16.5859 7.64066 16.5156C6.59066 16.3187 5.85003 15.2734 6.03753 14.2656C6.21097 13.3281 7.01253 12.6015 7.84222 12.639C8.10941 12.6484 8.11878 12.6531 8.17972 12.8124ZM9.88128 17.2749C10.2422 17.4484 10.4953 17.9218 10.4344 18.3109C10.2938 19.1968 9.29534 19.5296 8.66722 18.9062C8.31566 18.5546 8.25472 18.0953 8.51253 17.6546C8.78909 17.1765 9.35628 17.0218 9.88128 17.2749ZM20.3485 17.2703C20.686 17.439 20.9063 17.8234 20.9063 18.2312C20.9016 18.7609 20.3907 19.2343 19.8282 19.2343C19.5891 19.2343 19.2047 19.0374 19.0547 18.8406C18.3703 17.9406 19.35 16.7593 20.3485 17.2703Z" fill="#000"/>
<path id="Vector_2" d="M10.4345 3.95781C10.2752 4.08437 10.2658 4.31875 10.4205 4.45937L10.5283 4.5625H16.8002H23.0674L23.1799 4.67968C23.2455 4.74062 23.297 4.82968 23.297 4.87656C23.297 4.92343 22.9924 6.16093 22.6174 7.62812C22.008 10.0047 21.9424 10.3047 21.9939 10.4125C22.1017 10.6328 22.4861 10.675 22.5939 10.4734C22.6642 10.3375 24.0002 5.06875 24.0002 4.91875C24.0002 4.50625 23.6486 4.02812 23.2689 3.91562C23.1189 3.87343 21.6095 3.85937 16.8189 3.85937H10.5611L10.4345 3.95781Z" fill="#000"/>
<path id="Vector_3" d="M9.58594 6.22655C9.52031 6.28749 9.46875 6.37186 9.46875 6.40936C9.46875 6.55936 10.5141 10.7312 10.575 10.8297C10.7109 11.0453 11.0578 11.0125 11.1656 10.7781C11.2031 10.6844 11.1938 10.5812 11.1188 10.2719C11.0672 10.0562 10.8281 9.08124 10.5891 8.10155C10.125 6.20311 10.0922 6.10936 9.82031 6.10936C9.75469 6.10936 9.64688 6.16092 9.58594 6.22655Z" fill="#000"/>
<path id="Vector_4" d="M13.0876 6.21714C12.9516 6.36246 12.9516 6.35777 13.1485 8.76246C13.3126 10.764 13.3126 10.7734 13.4345 10.8765C13.6126 11.0406 13.861 11.0031 13.9688 10.7968C14.0016 10.7312 13.9688 10.1218 13.8516 8.65464C13.7579 7.52496 13.6735 6.53121 13.6595 6.44683C13.6079 6.12808 13.2891 6.00152 13.0876 6.21714Z" fill="#000"/>
<path id="Vector_5" d="M16.5706 6.22656C16.505 6.2875 16.4534 6.36718 16.4534 6.4C16.4534 6.43281 16.3784 7.34687 16.2893 8.42968C16.0878 10.8437 16.0925 10.7641 16.2471 10.8859C16.4018 11.0078 16.5518 11.0125 16.6925 10.8953C16.7956 10.8109 16.805 10.7406 16.9737 8.70625C17.0721 7.54843 17.1518 6.54062 17.1518 6.47031C17.1565 6.30625 16.969 6.10937 16.805 6.10937C16.7393 6.10937 16.6315 6.16093 16.5706 6.22656Z" fill="#000"/>
<path id="Vector_6" d="M20.1047 6.15621C20.0625 6.17965 20.0063 6.25933 19.9781 6.32965C19.8891 6.54996 18.9375 10.5062 18.9375 10.6468C18.9375 11.0125 19.4484 11.1062 19.5844 10.764C19.6734 10.539 20.625 6.58277 20.625 6.43746C20.625 6.20308 20.3109 6.03433 20.1047 6.15621Z" fill="#000"/>
</g>
</svg>
