<svg width="20" height="22" viewBox="0 0 20 22" fill="none" xmlns="http://www.w3.org/2000/svg">
<g id="Group">
<path id="Vector" d="M14.4062 0.5796C13.9469 0.738975 13.6094 1.08116 13.45 1.54523C13.3844 1.73741 13.375 2.05148 13.375 3.83273V5.89523L13.4922 6.00773C13.6281 6.14835 13.8391 6.15773 13.9891 6.03585L14.1016 5.94679L14.125 3.83741C14.1484 1.79835 14.1531 1.72335 14.2469 1.59679C14.2984 1.52648 14.4016 1.42335 14.4719 1.37179C14.5984 1.27804 14.6687 1.27335 17.0875 1.24991L19.5719 1.22647L19.6609 1.11398C19.7828 0.963975 19.7734 0.753037 19.6328 0.6171L19.5203 0.499912H17.0687C14.9641 0.5046 14.5891 0.513975 14.4062 0.5796Z" fill="#000"/>
<path id="Vector_2" d="M5.4626 6.95C1.70791 9.72968 0.287598 10.8078 0.268848 10.8875C0.254785 10.9484 0.254785 11.0516 0.268848 11.1125C0.306348 11.2719 10.5251 18.8422 10.736 18.8656C10.8485 18.8797 10.9142 18.8562 11.0032 18.7625L11.1251 18.6453V16.8828V15.125H14.5704H18.0204L18.1329 15.0078L18.2501 14.8953V11V7.10468L18.1329 6.99219L18.0204 6.875H14.5704H11.1251V5.15937C11.1251 3.95 11.111 3.41562 11.0688 3.34531C10.9938 3.2 10.886 3.12969 10.7454 3.125C10.661 3.125 9.20791 4.175 5.4626 6.95ZM10.511 7.53594C10.6142 7.62031 10.7454 7.625 14.0595 7.625H17.5001V11V14.375H14.0548H10.6048L10.4923 14.4922L10.3751 14.6047V16.1797V17.7547L10.0376 17.5016C9.8501 17.3656 8.84228 16.6156 7.79697 15.8469C2.30322 11.7781 1.30479 11.0328 1.30479 11C1.30479 10.9672 2.25635 10.2594 7.86728 6.10156C8.9501 5.3 9.95322 4.55937 10.0938 4.45625L10.3517 4.26406L10.3751 5.85312L10.3985 7.44687L10.511 7.53594Z" fill="#000"/>
<path id="Vector_3" d="M13.4922 15.9921L13.375 16.1046V18.1624C13.375 20.464 13.3797 20.4968 13.6984 20.9187C13.8063 21.064 13.975 21.1999 14.1719 21.3078L14.4766 21.4765L16.9609 21.4906C18.7984 21.4999 19.4688 21.4906 19.5484 21.4484C19.7031 21.364 19.7734 21.1578 19.7078 20.989C19.675 20.9187 19.6047 20.8343 19.5484 20.8015C19.4781 20.764 18.7141 20.7453 17.0219 20.7359C14.6594 20.7265 14.5984 20.7265 14.4719 20.6281C14.4016 20.5765 14.2984 20.4734 14.2469 20.4031C14.1531 20.2765 14.1484 20.2015 14.125 18.1624L14.1016 16.0531L13.9891 15.964C13.8391 15.8421 13.6281 15.8515 13.4922 15.9921Z" fill="#000"/>
</g>
</svg>
