<svg width="24" height="25" viewBox="0 0 24 25" fill="none" xmlns="http://www.w3.org/2000/svg">
<path d="M2.66931 2.72875C2.46524 2.79539 2.11539 3.15356 2.05292 3.36597C1.98212 3.61169 1.98212 9.0676 2.05292 9.31333C2.11956 9.54239 2.46524 9.88807 2.6943 9.95471C2.94002 10.0255 8.39594 10.0255 8.64166 9.95471C8.87072 9.88807 9.2164 9.54239 9.28304 9.31333C9.35384 9.07177 9.35384 3.61169 9.28304 3.3743C9.25805 3.28267 9.15393 3.11608 9.05398 3.0078C8.74162 2.66212 8.88322 2.67461 5.65132 2.67878C3.71052 2.68294 2.76927 2.6996 2.66931 2.72875ZM8.56253 3.4451L8.66665 3.54506V6.33965V9.13424L8.56253 9.2342L8.46257 9.33832H5.66798H2.87339L2.77343 9.2342L2.66931 9.13424V6.33965V3.54506L2.77343 3.4451L2.87339 3.34098H5.66798H8.46257L8.56253 3.4451Z" fill="white"/>
<path d="M11.3321 2.72797C11.128 2.79461 10.7782 3.15278 10.7157 3.36519C10.6449 3.61091 10.6449 9.06682 10.7157 9.31255C10.7824 9.54161 11.128 9.88729 11.3571 9.95393C11.4529 9.98308 11.7403 10.0039 11.9943 10.0039C12.4316 10.0039 12.465 9.99974 12.5607 9.89979C12.6274 9.83731 12.6649 9.74985 12.6649 9.67072C12.6649 9.59159 12.6274 9.50413 12.5607 9.44166C12.465 9.3417 12.4316 9.33754 11.9985 9.33754C11.5654 9.33754 11.532 9.33337 11.4362 9.23342L11.3321 9.13346V6.33887V3.54427L11.4362 3.44432L11.5362 3.3402H14.3308H17.1254L17.2253 3.23608C17.292 3.17361 17.3295 3.08614 17.3295 3.00701C17.3295 2.92788 17.292 2.84042 17.2253 2.77795L17.1254 2.67383L14.3016 2.67799C12.3692 2.68216 11.4321 2.69882 11.3321 2.72797Z" fill="white"/>
<path d="M16.2591 4.93143L14.3308 6.85557L13.5686 6.09757C12.8939 5.42704 12.7898 5.33958 12.669 5.33958C12.49 5.33958 12.3317 5.49784 12.3317 5.68109C12.3317 5.80187 12.4275 5.91432 13.2604 6.74312C14.1101 7.59691 14.1975 7.67188 14.3308 7.67188C14.4682 7.67188 14.6099 7.53444 16.5673 5.57697C18.4831 3.66532 18.6622 3.47374 18.6622 3.34879C18.6622 3.16554 18.504 3.00728 18.3207 3.00728C18.1958 3.00728 18.0125 3.17804 16.2591 4.93143Z" fill="white"/>
<path d="M17.4336 5.44228L17.3295 5.54224V7.33728V9.13231L17.2254 9.23227C17.1254 9.33639 17.1129 9.33639 16.4674 9.33222H15.8093L15.6844 9.16147C15.6052 9.05318 15.4553 8.9324 15.2887 8.84078C15.0347 8.70334 14.993 8.69084 14.664 8.69501C14.3766 8.69501 14.2725 8.71583 14.1017 8.79496C13.8394 8.92407 13.5853 9.17396 13.4562 9.44051L13.3521 9.64875L13.3396 12.9181L13.3271 16.1875L12.9772 15.467C12.7107 14.9214 12.5774 14.6965 12.4192 14.5299C12.0277 14.1176 11.5071 13.9593 10.9656 14.1009C10.495 14.2217 10.166 14.43 10.166 14.6132C10.166 14.6715 10.4075 15.6461 10.7032 16.7831C11.203 18.7072 11.2572 18.8905 11.4904 19.3778C12.1526 20.7855 12.8356 21.7934 13.3979 22.1932C13.5437 22.3015 13.6644 22.4056 13.6644 22.4222C13.6644 22.4431 13.7102 22.5055 13.7686 22.5597C13.9018 22.6971 14.0934 22.6971 14.2267 22.5597C14.4183 22.3723 14.3308 22.0891 13.9935 21.8267C13.3437 21.3186 12.9106 20.7188 12.2442 19.3944L11.8694 18.6448L11.3946 16.8122C11.1364 15.8043 10.9157 14.9422 10.9073 14.8964C10.899 14.8339 10.9323 14.8048 11.0614 14.759C11.4238 14.634 11.7944 14.7673 12.0318 15.1047C12.0985 15.1963 12.4275 15.8502 12.7648 16.5623C13.1022 17.2704 13.4145 17.8868 13.4645 17.9242C13.577 18.02 13.7561 18.02 13.8768 17.9201L13.9768 17.8409L13.9976 13.8011C14.0184 9.79868 14.0184 9.75704 14.1059 9.64459C14.2683 9.42385 14.4016 9.35721 14.664 9.35721C14.9264 9.35721 15.0596 9.42385 15.2221 9.64459C15.3095 9.75704 15.3095 9.81534 15.3304 12.3017L15.3512 14.8423L15.4511 14.9214C15.6844 15.113 15.9468 14.9714 16.0009 14.6257C16.0384 14.3841 16.1217 14.2467 16.3049 14.1093C16.4674 13.9885 16.8588 13.9885 17.0213 14.1093C17.2545 14.28 17.3045 14.3925 17.3295 14.7965C17.3461 15.1296 17.3628 15.1838 17.4503 15.2546C17.6835 15.4462 17.9459 15.3046 18 14.9589C18.0375 14.7173 18.1208 14.5799 18.304 14.4425C18.4665 14.3217 18.858 14.3217 19.0204 14.4425C19.2786 14.634 19.3078 14.7132 19.3286 15.3004C19.3494 15.8043 19.3577 15.846 19.4494 15.921C19.6826 16.1125 19.945 15.9709 19.9991 15.6253C20.0616 15.2254 20.2865 15.0214 20.6613 15.0214C20.9237 15.0214 21.057 15.088 21.2194 15.3087C21.3069 15.4212 21.3069 15.4712 21.3194 18.2616C21.3277 20.419 21.3194 21.1478 21.2777 21.2894C21.2111 21.5351 20.8779 21.8767 20.6363 21.9475C20.5114 21.9849 19.9575 21.9974 18.6664 21.9974H16.8672L16.7672 22.1016C16.6298 22.2348 16.6298 22.4264 16.7672 22.5638L16.8713 22.668L18.7997 22.6555L20.7238 22.643L21.0028 22.5097C21.3902 22.3265 21.6317 22.0932 21.8191 21.7142L21.9732 21.3977V18.3574V15.3129L21.8608 15.1005C21.6942 14.784 21.5693 14.6549 21.2777 14.4966C21.0403 14.3717 20.982 14.3592 20.6613 14.355C20.3781 14.355 20.2698 14.3758 20.1241 14.4508C20.0199 14.5008 19.9325 14.5424 19.9283 14.5424C19.92 14.5424 19.8825 14.4716 19.8409 14.3841C19.7409 14.1717 19.4744 13.9135 19.2245 13.7927C19.0537 13.7094 18.9538 13.6886 18.6622 13.6886C18.3415 13.6886 18.2874 13.7011 18.0625 13.8219L17.8168 13.9593L17.6252 13.7594C17.3378 13.4596 17.0962 13.3596 16.6631 13.3596C16.409 13.3596 16.2716 13.3763 16.1758 13.4304C16.1009 13.4679 16.0342 13.5012 16.0176 13.5012C16.0051 13.5012 15.9967 12.7141 15.9967 11.752V10.0028H16.5631C16.888 10.0028 17.2045 9.98194 17.3045 9.95278C17.5335 9.88614 17.8792 9.54046 17.9459 9.3114C17.9833 9.18646 17.9958 8.63253 17.9958 7.34144V5.54224L17.8917 5.44228C17.8292 5.37565 17.7418 5.33816 17.6627 5.33816C17.5835 5.33816 17.4961 5.37565 17.4336 5.44228Z" fill="white"/>
<path d="M2.66931 11.3889C2.46524 11.4555 2.11539 11.8137 2.05292 12.0261C1.98212 12.2719 1.98212 17.7278 2.05292 17.9735C2.11956 18.2026 2.46524 18.5482 2.6943 18.6149C2.94002 18.6857 8.39594 18.6857 8.64166 18.6149C8.87072 18.5482 9.2164 18.2026 9.28304 17.9735C9.35384 17.7319 9.35384 12.2719 9.28304 12.0345C9.25805 11.9428 9.15393 11.7762 9.05398 11.668C8.74162 11.3223 8.88322 11.3348 5.65132 11.3389C3.71052 11.3431 2.76927 11.3598 2.66931 11.3889ZM8.56253 12.1053L8.66665 12.2052V14.9998V17.7944L8.56253 17.8944L8.46257 17.9985H5.66798H2.87339L2.77343 17.8944L2.66931 17.7944V14.9998V12.2052L2.77343 12.1053L2.87339 12.0011H5.66798H8.46257L8.56253 12.1053Z" fill="white"/>
</svg>
