<svg xmlns="http://www.w3.org/2000/svg" width="25" height="25" viewBox="0 0 25 25" fill="none">
  <path d="M15.1331 15.06C15.2313 15.0032 15.3128 14.9215 15.3695 14.8232C15.4262 14.7249 15.456 14.6135 15.456 14.5C15.456 14.3865 15.4262 14.2751 15.3695 14.1768C15.3128 14.0785 15.2313 13.9968 15.1331 13.94L13.1006 12.764L12.0843 12.176L11.0681 11.588C10.9699 11.5312 10.8585 11.5013 10.7451 11.5013C10.6317 11.5013 10.5203 11.5312 10.4221 11.588C10.3239 11.6448 10.2425 11.7265 10.1859 11.8248C10.1294 11.9231 10.0998 12.0346 10.1001 12.148V14.5V16.852C10.0999 16.9653 10.1295 17.0766 10.186 17.1748C10.2425 17.2729 10.3238 17.3545 10.4219 17.4113C10.5199 17.468 10.6311 17.498 10.7444 17.4981C10.8577 17.4983 10.969 17.4685 11.0671 17.412L13.1001 16.236L15.1331 15.06Z" fill="#74BC1F"/>
  <path d="M7.1001 3.5H17.1001H7.1001Z" fill="#74BC1F"/>
  <path d="M20.1001 21.5H4.1001C2.99553 21.5 2.1001 20.6046 2.1001 19.5V9.5C2.1001 8.39543 2.99553 7.5 4.1001 7.5H20.1001C21.2047 7.5 22.1001 8.39543 22.1001 9.5V19.5C22.1001 20.6046 21.2047 21.5 20.1001 21.5Z" fill="#74BC1F"/>
  <path d="M7.1001 3.5H17.1001M15.1331 15.06C15.2313 15.0032 15.3128 14.9215 15.3695 14.8232C15.4262 14.7249 15.456 14.6135 15.456 14.5C15.456 14.3865 15.4262 14.2751 15.3695 14.1768C15.3128 14.0785 15.2313 13.9968 15.1331 13.94L13.1006 12.764L12.0843 12.176L11.0681 11.588C10.9699 11.5312 10.8585 11.5013 10.7451 11.5013C10.6317 11.5013 10.5203 11.5312 10.4221 11.588C10.3239 11.6448 10.2425 11.7265 10.1859 11.8248C10.1294 11.9231 10.0998 12.0346 10.1001 12.148V14.5V16.852C10.0999 16.9653 10.1295 17.0766 10.186 17.1748C10.2425 17.2729 10.3238 17.3545 10.4219 17.4113C10.5199 17.468 10.6311 17.498 10.7444 17.4981C10.8577 17.4983 10.969 17.4685 11.0671 17.412L13.1001 16.236L15.1331 15.06ZM4.1001 21.5H20.1001C21.2047 21.5 22.1001 20.6046 22.1001 19.5V9.5C22.1001 8.39543 21.2047 7.5 20.1001 7.5H4.1001C2.99553 7.5 2.1001 8.39543 2.1001 9.5V19.5C2.1001 20.6046 2.99553 21.5 4.1001 21.5Z" stroke="#74BC1F" stroke-width="2" stroke-linecap="round" stroke-linejoin="round"/>
  <path d="M15.1331 15.0587C15.2313 15.0019 15.3128 14.9202 15.3695 14.8219C15.4262 14.7236 15.456 14.6122 15.456 14.4987C15.456 14.3852 15.4262 14.2738 15.3695 14.1755C15.3128 14.0772 15.2313 13.9955 15.1331 13.9387L13.1006 12.7627L12.0844 12.1747L11.0681 11.5867C10.9699 11.5299 10.8585 11.5 10.7451 11.5C10.6317 11.5 10.5203 11.5299 10.4221 11.5867C10.3239 11.6435 10.2425 11.7252 10.1859 11.8235C10.1294 11.9218 10.0998 12.0333 10.1001 12.1467V14.4987V16.8507C10.0999 16.964 10.1295 17.0753 10.186 17.1735C10.2425 17.2716 10.3238 17.3532 10.4219 17.41C10.5199 17.4667 10.6311 17.4967 10.7444 17.4968C10.8577 17.497 10.969 17.4672 11.0671 17.4107L13.1001 16.2347L15.1331 15.0587Z" stroke="white" stroke-width="2" stroke-linecap="round" stroke-linejoin="round"/>
</svg>