<svg xmlns="http://www.w3.org/2000/svg" width="25" height="25" viewBox="0 0 25 25" fill="none">
  <path d="M7.09961 3.5H17.0996M15.1326 15.06C15.2308 15.0032 15.3124 14.9215 15.369 14.8232C15.4257 14.7249 15.4556 14.6135 15.4556 14.5C15.4556 14.3865 15.4257 14.2751 15.369 14.1768C15.3124 14.0785 15.2308 13.9968 15.1326 13.94L11.0676 11.588C10.9694 11.5312 10.858 11.5013 10.7446 11.5013C10.6312 11.5013 10.5198 11.5312 10.4216 11.588C10.3234 11.6448 10.242 11.7265 10.1855 11.8248C10.1289 11.9231 10.0993 12.0346 10.0996 12.148V16.852C10.0994 16.9653 10.129 17.0766 10.1855 17.1748C10.242 17.2729 10.3234 17.3545 10.4214 17.4113C10.5194 17.468 10.6306 17.498 10.7439 17.4981C10.8572 17.4983 10.9685 17.4685 11.0666 17.412L15.1326 15.06ZM4.09961 21.5H20.0996C21.2042 21.5 22.0996 20.6046 22.0996 19.5V9.5C22.0996 8.39543 21.2042 7.5 20.0996 7.5H4.09961C2.99504 7.5 2.09961 8.39543 2.09961 9.5V19.5C2.09961 20.6046 2.99504 21.5 4.09961 21.5Z" stroke="#666666" stroke-width="2" stroke-linecap="round" stroke-linejoin="round"/>
</svg>