<svg xmlns="http://www.w3.org/2000/svg" width="24" height="24" viewBox="0 0 24 24" fill="none">
  <path d="M18.2312 5.76862C18.3367 5.87411 18.396 6.01719 18.396 6.16637C18.396 6.31555 18.3367 6.45863 18.2312 6.56412L12.7954 12L18.2312 17.4359C18.3367 17.5414 18.396 17.6844 18.396 17.8336C18.396 17.9828 18.3367 18.1259 18.2312 18.2314C18.1258 18.3369 17.9827 18.3961 17.8335 18.3961C17.6843 18.3961 17.5412 18.3369 17.4357 18.2314L11.9999 12.7955L6.56398 18.2314C6.45849 18.3369 6.31542 18.3961 6.16624 18.3961C6.01705 18.3961 5.87398 18.3369 5.76849 18.2314C5.663 18.1259 5.60374 17.9828 5.60374 17.8336C5.60374 17.6844 5.663 17.5414 5.76849 17.4359L11.2044 12L5.76849 6.56412C5.663 6.45863 5.60374 6.31555 5.60374 6.16637C5.60374 6.01718 5.663 5.87411 5.76849 5.76862C5.87398 5.66313 6.01705 5.60387 6.16624 5.60387C6.31542 5.60387 6.45849 5.66313 6.56398 5.76862L11.9999 11.2045L17.4357 5.76862C17.5412 5.66313 17.6843 5.60387 17.8335 5.60387C17.9827 5.60387 18.1258 5.66313 18.2312 5.76862Z" fill="#1E1E1E"/>
</svg>