<svg width="45" height="44" viewBox="0 0 45 44" fill="none" xmlns="http://www.w3.org/2000/svg">
<path d="M16.1866 3.4849C16.1234 3.50861 15.8547 3.72987 15.594 3.96694C15.0013 4.5201 14.0056 5.16809 13.2154 5.5316C12.354 5.92671 11.4769 6.15588 10.173 6.35344C9.54871 6.44827 8.88491 6.59051 8.70316 6.66953C8.29224 6.85128 7.68377 7.40444 7.49411 7.77585C7.32026 8.12355 4.33319 19.9612 4.33319 20.3168C4.33319 20.4906 4.39641 20.6171 4.53865 20.7277C4.74411 20.8937 4.83104 20.8937 8.09468 20.8937H11.4453V28.1717V35.4497L11.6823 35.6868C12.117 36.1214 12.2118 36.0582 14.2269 33.9957C15.2147 32.9842 16.0523 32.0675 16.076 31.9648C16.1076 31.8621 16.0839 31.2615 16.0286 30.6372L15.9259 29.4993L16.1866 29.2227C16.4237 28.9856 16.4711 28.9698 16.5818 29.0725C16.6529 29.1358 16.882 29.2622 17.0954 29.357C17.9251 29.7284 19.0236 29.5151 19.6874 28.8434C20.1378 28.3929 20.3195 27.9741 20.3591 27.2866C20.3907 26.7572 20.367 26.6228 20.201 26.2514C19.474 24.6789 17.4826 24.3154 16.2894 25.5402C15.8073 26.0302 15.6019 26.6228 15.6572 27.3736L15.7046 27.9662L15.183 28.5036L14.6615 29.0409L14.7168 29.6889C14.7405 30.0445 14.7879 30.6214 14.8116 30.9691L14.8591 31.6013L13.7843 32.6681L12.7096 33.7349V26.0144C12.7096 20.5223 12.6859 18.2385 12.6227 18.1042C12.5358 17.9066 12.2513 17.7327 12.03 17.7327C11.9589 17.7327 11.8009 17.8355 11.6744 17.9619C11.4532 18.1832 11.4453 18.2227 11.4453 18.9102V19.6293H8.60043C6.55374 19.6293 5.7556 19.6056 5.7556 19.5424C5.7556 19.3053 8.55302 8.34482 8.65575 8.18677C8.8375 7.89439 9.34325 7.72054 10.497 7.54668C12.5911 7.2385 14.1636 6.62212 15.6177 5.5474C15.8547 5.37355 16.0523 5.24712 16.0602 5.26292C16.0681 5.27082 16.1945 5.5316 16.3368 5.82398C16.8978 6.99352 18.1227 8.21838 19.9007 9.39582C20.8648 10.0359 22.5164 10.9368 22.7218 10.9368C22.8641 10.9368 24.326 10.1702 25.1162 9.68031C27.0128 8.50286 28.4668 7.08835 29.1069 5.80028C29.2254 5.56321 29.3361 5.35775 29.344 5.34194C29.3598 5.32614 29.6284 5.49209 29.9524 5.70545C31.525 6.77226 32.9553 7.30171 35.0336 7.57829C35.5552 7.64941 36.053 7.74424 36.1399 7.79166C36.5034 7.98131 36.7405 8.2974 36.8907 8.80315C37.0724 9.42743 39.5774 19.4396 39.5774 19.5503C39.5774 19.6056 38.5976 19.6293 36.7326 19.6293H33.8878V18.8786C33.8878 18.1832 33.872 18.1042 33.6902 17.9303C33.5875 17.8197 33.4057 17.7327 33.2951 17.7327C33.1845 17.7327 33.0027 17.8197 32.9 17.9303L32.7024 18.12V28.7169V39.306H25.701H18.7075L18.8655 39.0848C18.9524 38.9662 19.395 38.5 19.8454 38.0496L20.6751 37.2356L21.7182 37.3225C23.2039 37.449 23.0932 37.4648 23.6227 36.9669L24.0889 36.5165L24.4445 36.6192C25.5746 36.9353 26.9259 36.2162 27.2973 35.102C27.4711 34.5725 27.4158 33.7033 27.1866 33.245C26.9654 32.8182 26.5466 32.3994 26.1198 32.1781C25.6536 31.9411 24.7922 31.8937 24.2391 32.0754C23.6306 32.2809 22.9826 32.9368 22.793 33.569C22.6112 34.1537 22.6586 34.8254 22.9194 35.3628L23.117 35.7421L22.8957 35.9554L22.6823 36.1609L21.4812 36.074C20.4539 35.995 20.2563 35.995 20.1062 36.0977C20.0034 36.1609 19.1816 36.9827 18.2728 37.9231C17.127 39.1085 16.6134 39.6932 16.5976 39.8355C16.558 40.1121 16.7161 40.3807 16.969 40.4835C17.1112 40.5467 19.632 40.5704 25.3691 40.5546L33.5638 40.5309L33.7455 40.3491L33.9273 40.1674L33.951 30.5345L33.9668 20.8937H37.2779C40.502 20.8937 40.5889 20.8858 40.7944 20.7277C40.9366 20.6092 40.9999 20.4906 40.9999 20.3089C40.9999 19.8585 38.0049 8.08404 37.7994 7.73634C37.5386 7.29381 37.0724 6.86709 36.6457 6.67743C36.4481 6.5826 35.7922 6.44036 35.1996 6.35344C34.599 6.27441 33.8404 6.12427 33.5085 6.02944C32.1335 5.65013 30.7032 4.8599 29.7312 3.95904C29.3282 3.58763 29.1938 3.50861 28.9647 3.50861C28.5221 3.50861 28.3641 3.70617 28.2693 4.33045C28.0875 5.63433 26.9654 6.96191 24.8397 8.38433C24.4524 8.6451 23.8124 9.03232 23.4251 9.24568L22.7139 9.62499L22.1213 9.3089C21.2915 8.87427 19.8138 7.88648 19.1263 7.30171C17.9884 6.33763 17.2534 5.23131 17.1428 4.32255C17.0796 3.76148 17.0322 3.68246 16.6924 3.54022C16.4079 3.42169 16.3684 3.41378 16.1866 3.4849ZM18.5257 26.1566C19.0789 26.4174 19.3001 26.9863 19.0789 27.5711C18.747 28.4325 17.7197 28.5747 17.1033 27.8477C16.9374 27.6501 16.8978 27.5158 16.8978 27.1997C16.8978 26.2909 17.7118 25.7694 18.5257 26.1566ZM25.5588 33.3082C26.1672 33.6006 26.3885 34.3829 26.025 34.9361C25.5746 35.6236 24.4129 35.5919 24.0415 34.8728C23.8519 34.5093 23.923 33.8376 24.1759 33.569C24.571 33.1343 25.0293 33.0474 25.5588 33.3082Z" fill="white"/>
<path d="M14.8511 6.87498C14.6141 7.17527 14.6457 7.35702 15.0171 7.91019C15.4754 8.58188 15.7757 8.70832 16.1392 8.38432C16.4711 8.09194 16.4711 7.86277 16.1471 7.37283C15.7599 6.81177 15.594 6.66953 15.2779 6.66953C15.0882 6.66953 14.9697 6.72484 14.8511 6.87498Z" fill="white"/>
<path d="M29.7944 6.72486C29.7391 6.74857 29.5494 6.97774 29.3677 7.24641C28.9726 7.82328 28.9488 8.11567 29.257 8.38435C29.6363 8.70834 29.9682 8.574 30.4108 7.91021C30.7664 7.38075 30.798 7.17529 30.5609 6.87501C30.4029 6.67745 30.0789 6.60633 29.7944 6.72486Z" fill="white"/>
<path d="M27.3526 9.34053C26.27 10.2335 24.6579 11.2845 23.3303 11.9483L22.6902 12.2644L21.8921 11.8456C20.7305 11.2213 19.6241 10.518 18.5731 9.72775C17.5616 8.96913 17.3088 8.8901 16.9927 9.222C16.7872 9.43536 16.7714 9.72775 16.9453 9.97272C17.4431 10.6839 22.0502 13.5446 22.706 13.5446C23.3224 13.5446 26.997 11.324 28.2614 10.1861C28.7276 9.76726 28.7829 9.52229 28.5063 9.16668C28.2456 8.83479 27.9137 8.8822 27.3526 9.34053Z" fill="white"/>
<path d="M11.6665 14.5718C11.4295 14.8088 11.4295 14.8246 11.4611 15.528C11.4848 16.168 11.5085 16.2629 11.6744 16.3972C11.951 16.6185 12.3461 16.5948 12.5437 16.3419C12.678 16.168 12.7096 16.0179 12.7096 15.528C12.7096 14.7535 12.6622 14.5876 12.3856 14.4532C12.0616 14.2873 11.9352 14.3031 11.6665 14.5718Z" fill="white"/>
<path d="M32.9 14.5323C32.7183 14.7061 32.7025 14.7852 32.7025 15.4806C32.7025 16.3498 32.8131 16.5474 33.2951 16.5474C33.7851 16.5474 33.8878 16.3577 33.8878 15.4489C33.8878 14.6903 33.8799 14.6587 33.6823 14.5007C33.4058 14.2794 33.1371 14.2952 32.9 14.5323Z" fill="white"/>
<path d="M24.4604 24.4813C23.0617 24.8685 22.3188 26.4174 22.8957 27.7292L23.0538 28.0927L18.5573 32.676C14.219 37.0934 14.053 37.2752 14.053 37.5596C14.053 38.018 14.4877 38.3104 14.867 38.1049C14.9776 38.0496 16.1946 36.8484 17.5775 35.4339C18.9525 34.0194 20.9596 31.9806 22.0265 30.9059L23.9704 28.9461L24.4604 29.0805C25.5983 29.3887 26.7836 28.8039 27.2736 27.6976C27.4948 27.1918 27.4948 26.3542 27.2736 25.8642C26.7836 24.7816 25.5509 24.1731 24.4604 24.4813ZM25.6694 25.8089C26.4201 26.3305 26.3806 27.3894 25.5904 27.7845C24.8239 28.1717 23.9309 27.6264 23.9309 26.7809C23.9309 25.8958 24.9582 25.3269 25.6694 25.8089Z" fill="white"/>
<path d="M11.7851 37.0302C11.4848 37.1724 11.4295 37.4569 11.4611 38.8556C11.4927 40.6336 11.3821 40.5309 13.2707 40.5309H14.701L14.8986 40.3017C15.0487 40.12 15.0883 40.0172 15.0487 39.8276C14.9618 39.3771 14.7801 39.306 13.6895 39.306H12.7097V38.3182C12.7097 37.37 12.7018 37.3146 12.5121 37.1329C12.3145 36.9274 12.0696 36.8879 11.7851 37.0302Z" fill="white"/>
</svg>
