<svg width="18" height="14" viewBox="0 0 18 14" fill="none" xmlns="http://www.w3.org/2000/svg">
<g id="Group">
<path id="Vector" d="M8.51829 0.417683C8.28473 0.490931 8.02813 0.643285 7.89654 0.78685C7.76167 0.936275 0.721728 11.7827 0.639486 11.9761C0.550664 12.1783 0.553954 12.6412 0.646065 12.8609C0.790811 13.2067 1.13623 13.5026 1.52112 13.6081C1.73166 13.6667 1.81062 13.6667 8.96569 13.6667C16.1208 13.6667 16.1997 13.6667 16.4103 13.6081C17.0912 13.4205 17.5189 12.732 17.3412 12.1138C17.2985 11.9644 16.9991 11.481 15.9004 9.78455C15.1372 8.60966 14.4726 7.5842 14.42 7.51095C14.272 7.29121 14.0351 7.25312 13.864 7.41427C13.6963 7.57248 13.6732 7.5256 15.2161 9.90174C15.9991 11.1089 16.6636 12.1578 16.6866 12.231C16.7984 12.5504 16.6044 12.902 16.2458 13.0367C16.0714 13.1012 1.85996 13.1012 1.68561 13.0367C1.32703 12.902 1.13294 12.5504 1.24479 12.231C1.304 12.0581 8.28473 1.28786 8.4196 1.16188C8.57422 1.01245 8.73541 0.950924 8.96569 0.950924C9.19597 0.950924 9.35717 1.01245 9.51178 1.16188C9.56771 1.21461 10.2618 2.26059 11.0546 3.48528C11.9527 4.87698 12.535 5.75009 12.6074 5.81161C12.7094 5.89658 12.739 5.9083 12.8442 5.89072C13.0186 5.86728 13.1568 5.72079 13.1337 5.58894C13.1206 5.53034 12.4758 4.50488 11.6238 3.18643C9.99208 0.663795 9.98879 0.660864 9.57758 0.479211C9.37033 0.391315 9.31769 0.379595 9.01833 0.370805C8.76173 0.364945 8.64659 0.376664 8.51829 0.417683Z" fill="#EC4F4F"/>
<path id="Vector_2" d="M8.63016 4.74514C8.29132 4.85648 8.02156 5.12896 7.94919 5.43367C7.91958 5.55086 7.913 5.99914 7.91958 7.04511L7.92945 8.4954L8.01498 8.65948C8.19592 9.00228 8.54133 9.19858 8.9657 9.19858C9.39007 9.19858 9.73549 9.00228 9.91643 8.65948L10.002 8.4954L10.0118 7.04511C10.0184 5.99914 10.0118 5.55086 9.98222 5.43367C9.90656 5.1231 9.6368 4.85355 9.29138 4.74514C9.12361 4.6924 8.79135 4.6924 8.63016 4.74514ZM9.14664 5.33405C9.36376 5.42488 9.36376 5.41609 9.35389 6.99823L9.34402 8.42216L9.23546 8.51591C9.14335 8.59795 9.10716 8.6126 8.9657 8.6126C8.82425 8.6126 8.78806 8.59795 8.69595 8.51591L8.58739 8.42216L8.57752 6.99823C8.56765 5.42195 8.56765 5.42781 8.77819 5.33405C8.91307 5.27545 9.01176 5.27545 9.14664 5.33405Z" fill="#EC4F4F"/>
<path id="Vector_3" d="M13.3048 6.5148C13.1008 6.69645 13.2357 6.98651 13.5252 6.98651C13.818 6.98651 13.9562 6.69352 13.7456 6.50601C13.6239 6.39467 13.4331 6.40053 13.3048 6.5148Z" fill="#EC4F4F"/>
<path id="Vector_4" d="M8.64659 9.96914C8.28801 10.0834 8.06102 10.2973 7.95575 10.6166C7.82088 11.0386 8.07089 11.5073 8.53474 11.7007C8.68278 11.7622 8.76831 11.7769 8.96569 11.7769C9.39006 11.7769 9.73548 11.5806 9.91641 11.2378C10.0941 10.9008 10.0052 10.4643 9.70587 10.1947C9.43611 9.95742 8.98543 9.86074 8.64659 9.96914ZM9.18939 10.5786C9.29466 10.6401 9.37032 10.81 9.34729 10.9272C9.33413 10.977 9.2815 11.0591 9.22557 11.1059C9.14333 11.1763 9.09728 11.1909 8.96569 11.1909C8.8341 11.1909 8.78805 11.1763 8.7058 11.1059C8.57422 10.9917 8.54461 10.8598 8.62356 10.7163C8.73212 10.52 8.98214 10.4584 9.18939 10.5786Z" fill="#EC4F4F"/>
</g>
</svg>
