<svg width="14" height="14" viewBox="0 0 14 14" fill="none" xmlns="http://www.w3.org/2000/svg">
<g id="Group">
<path id="Vector" d="M8.54882 0.356798C8.13125 0.432482 7.83113 0.578629 7.46576 0.883974C7.2361 1.07971 7.18651 1.16322 7.23871 1.28588C7.27786 1.38505 7.41356 1.4503 7.5023 1.41637C7.53622 1.40332 7.63278 1.33025 7.71891 1.25456C7.94857 1.05361 8.15735 0.92573 8.39484 0.844827L8.60623 0.774363L10.6105 0.766534C12.8393 0.758704 12.7897 0.753485 12.9933 0.92834C13.0533 0.980536 13.129 1.07971 13.1629 1.158L13.2255 1.29632V3.2928C13.2255 5.11703 13.2203 5.30494 13.1786 5.46935C13.1211 5.69379 13.0611 5.83211 12.9359 6.02523C12.8106 6.22097 5.98863 13.0586 5.83987 13.1395C5.6885 13.2204 5.38838 13.2178 5.22657 13.1343C5.14567 13.0925 4.46712 12.4322 3.00304 10.9708C0.701216 8.66894 0.784729 8.76289 0.784729 8.45494C0.784729 8.14959 0.643801 8.30357 3.92951 5.01786L6.94119 2.00879L7.33266 2.11579C7.83635 2.2515 8.38179 2.42374 8.82806 2.58816C9.36307 2.78128 9.38395 2.79172 9.36046 2.84392C9.11514 3.40763 9.20909 3.9609 9.61883 4.37064C10.0364 4.79081 10.6079 4.88476 11.1377 4.62639C11.6049 4.39673 11.8815 3.95568 11.8815 3.43634C11.8815 2.91699 11.6049 2.47594 11.1377 2.24628C10.9237 2.14189 10.6236 2.07403 10.514 2.10796C10.4122 2.13928 10.3417 2.2254 10.3417 2.31935C10.3417 2.45506 10.4252 2.5203 10.6497 2.55684C10.895 2.5986 11.0568 2.6795 11.2056 2.84131C11.5161 3.17275 11.5161 3.69992 11.2056 4.03137C10.775 4.4933 10.0416 4.38629 9.76236 3.82258C9.68668 3.66861 9.67624 3.62163 9.67624 3.43634C9.67624 3.27714 9.68929 3.19885 9.73366 3.10228L9.79107 2.97701L9.99463 3.08663C10.1982 3.19624 10.4983 3.38936 10.4983 3.41024C10.4983 3.41546 10.4331 3.43373 10.3548 3.44938C10.146 3.49375 10.0573 3.62163 10.1382 3.77039C10.206 3.89827 10.3391 3.92436 10.5923 3.85651C10.8402 3.79127 10.9629 3.68165 10.9863 3.50419C11.0307 3.17275 10.4618 2.74735 9.43614 2.34284C7.97728 1.76608 6.12955 1.29893 4.73854 1.15017C4.34968 1.11102 3.71551 1.1319 3.55109 1.19193C3.38929 1.24934 3.28229 1.35112 3.24053 1.48683C3.21182 1.58078 3.21443 1.60949 3.25619 1.70344C3.35536 1.92006 3.62417 2.12884 4.1409 2.38982C4.58717 2.61687 4.94471 2.75518 5.02823 2.73431C5.19264 2.69255 5.25528 2.4916 5.14306 2.38199C5.10913 2.35067 4.93688 2.26194 4.75681 2.18625C4.36273 2.01662 3.95039 1.79479 3.8199 1.68517L3.72595 1.60166L3.82773 1.58339C4.17744 1.51554 5.58411 1.67735 6.35921 1.87308C6.42968 1.88874 6.29919 2.02445 3.4728 4.85605C0.677728 7.65374 0.508092 7.8312 0.440238 7.98518C0.29931 8.3114 0.30192 8.63762 0.455897 8.95601C0.52897 9.1126 0.711655 9.30051 2.69248 11.2813C4.05739 12.6462 4.88991 13.4605 4.96559 13.5022C5.1822 13.6223 5.3414 13.6614 5.58933 13.6484C5.76157 13.6406 5.85292 13.6197 5.98341 13.5623C6.14521 13.4918 6.31224 13.33 9.60839 10.0417C11.751 7.90166 13.1211 6.51587 13.2203 6.38538C13.4056 6.13746 13.5309 5.8817 13.6092 5.58418C13.664 5.37279 13.6666 5.32059 13.6744 3.43112C13.6822 2.24367 13.6744 1.4242 13.6588 1.30937C13.5909 0.821339 13.2334 0.429873 12.7714 0.34375C12.5496 0.301993 8.78631 0.312432 8.54882 0.356798Z" fill="#A34C1B"/>
<path id="Vector_2" d="M6.33572 6.13744C5.96513 6.21313 5.64152 6.50542 5.51625 6.8734C5.45101 7.06391 5.44318 7.33794 5.49798 7.5415C5.51886 7.61719 5.60237 7.81031 5.68328 7.9669C5.76157 8.12348 5.84508 8.32183 5.86857 8.40534C5.97296 8.81768 5.67023 9.21437 5.25266 9.21698C5.04649 9.21698 4.93688 9.17783 4.80117 9.06039C4.56368 8.85161 4.50366 8.5541 4.63676 8.2618C4.71766 8.08695 4.72288 7.99299 4.65502 7.90948C4.61849 7.86251 4.57934 7.84685 4.50105 7.84685C4.36795 7.84685 4.31314 7.89643 4.22441 8.09217C4.09392 8.38446 4.09131 8.73156 4.2218 9.02125L4.28704 9.17L4.20353 9.27179C4.10697 9.39184 4.09914 9.50667 4.18526 9.59801C4.27139 9.68935 4.41231 9.68413 4.50888 9.58235C4.55063 9.54059 4.595 9.50406 4.60805 9.50406C4.62371 9.50406 4.69939 9.53537 4.78029 9.57452C4.97081 9.66586 5.32052 9.68935 5.54235 9.62411C5.94425 9.50667 6.25482 9.14652 6.32528 8.72373C6.36704 8.45232 6.29135 8.15219 6.08518 7.77638C5.93642 7.50497 5.89467 7.36665 5.91033 7.17352C5.92599 6.98562 5.97296 6.87862 6.09823 6.75596C6.23655 6.61764 6.36182 6.56806 6.5706 6.56806C6.78721 6.57067 6.9177 6.62808 7.06124 6.78728C7.15519 6.89167 7.23609 7.09784 7.23609 7.23094C7.23609 7.3536 7.1839 7.4867 7.07951 7.64067C6.95685 7.82075 6.94902 7.91209 7.04036 8.00343C7.19173 8.15741 7.40051 8.03736 7.5571 7.70853C7.71107 7.38231 7.71107 7.06391 7.56232 6.7403L7.49707 6.60198L7.58841 6.5002C7.64322 6.44018 7.67976 6.37232 7.67976 6.33057C7.67976 6.24966 7.54927 6.11135 7.47097 6.11135C7.40051 6.11135 7.28829 6.16876 7.22565 6.23922L7.17868 6.29142L7.06907 6.23661C6.84463 6.12178 6.58626 6.08786 6.33572 6.13744Z" fill="#A34C1B"/>
<path id="Vector_3" d="M11.6414 8.48886C11.6049 8.52278 10.9994 9.53277 10.3 10.7307C9.59795 11.9285 8.98465 12.9542 8.93507 13.009C8.77065 13.1917 8.51489 13.2726 8.29306 13.2126C8.23565 13.1969 8.04774 13.0977 7.8755 12.9881C7.70325 12.8811 7.53623 12.7924 7.5023 12.7924C7.42662 12.7924 7.2883 12.9255 7.2883 12.9986C7.2883 13.0273 7.30135 13.0795 7.31701 13.1108C7.34832 13.1838 7.77111 13.4683 8.01904 13.5858C8.17301 13.6588 8.21216 13.6667 8.44965 13.6667C8.69497 13.6667 8.72107 13.6614 8.90897 13.5727C9.03424 13.5127 9.15168 13.4318 9.22997 13.3509C9.41005 13.1682 11.9859 8.77593 11.9859 8.65327C11.9859 8.54366 11.9154 8.46276 11.8006 8.44449C11.7275 8.43144 11.6936 8.44188 11.6414 8.48886Z" fill="#A34C1B"/>
</g>
</svg>
