<svg width="70" height="70" viewBox="0 0 70 70" fill="none" xmlns="http://www.w3.org/2000/svg">
<g id="icon / exchange" opacity="0.2">
<path id="Vector" d="M34.9999 64.1667C29.0693 64.1667 23.7542 62.5907 19.0545 59.4388C14.3528 56.2868 10.8236 52.046 8.46696 46.7163V56.3121H5.55029V41.7288H20.1336V44.6455H10.7886C12.6747 49.6427 15.8335 53.6589 20.2649 56.6942C24.6963 59.7295 29.6079 61.2481 34.9999 61.25C38.496 61.25 41.7802 60.623 44.8524 59.3688C47.9246 58.1127 50.6303 56.3811 52.9695 54.1742C55.3067 51.9653 57.2054 49.3442 58.6657 46.3109C60.126 43.2775 60.9689 39.9934 61.1945 36.4584H64.1111C63.9225 40.32 63.0281 43.9338 61.4278 47.2996C59.8275 50.6655 57.7265 53.6016 55.1249 56.108C52.5232 58.6143 49.4947 60.5841 46.0395 62.0171C42.5784 63.4502 38.8985 64.1667 34.9999 64.1667ZM33.4949 54.2967V50.7267C31.5115 50.2678 29.8208 49.4803 28.4228 48.3642C27.0247 47.2481 25.9115 45.6906 25.0832 43.6917L27.6499 42.5805C28.4588 44.3868 29.5389 45.7791 30.8903 46.7571C32.2417 47.7352 33.7574 48.2242 35.4374 48.2242C37.1543 48.2242 38.7614 47.7721 40.2586 46.868C41.7559 45.9657 42.5045 44.488 42.5045 42.4346C42.5045 40.8013 41.9649 39.518 40.8857 38.5846C39.8065 37.6513 37.6988 36.6091 34.5624 35.458C31.4318 34.3243 29.2083 33.1275 27.892 31.8675C26.5736 30.6075 25.9145 28.9285 25.9145 26.8305C25.9145 25.061 26.5785 23.4277 27.9065 21.9305C29.2346 20.4332 31.147 19.498 33.6436 19.1246V15.7034H36.502V19.1275C38.0284 19.2364 39.4527 19.7634 40.7749 20.7084C42.0971 21.6534 43.1004 22.8278 43.7849 24.2317L41.2474 25.2292C40.6349 24.185 39.8347 23.3237 38.847 22.645C37.8592 21.9664 36.6254 21.6281 35.1457 21.63C33.2207 21.63 31.6768 22.1249 30.514 23.1146C29.3513 24.1043 28.7728 25.3439 28.7786 26.8334C28.7845 28.3228 29.2307 29.4691 30.1174 30.2721C31.0118 31.0752 33.0671 32.0377 36.2832 33.1596C39.7832 34.4235 42.1535 35.7749 43.394 37.2138C44.6365 38.6546 45.2578 40.3959 45.2578 42.4375C45.2578 43.8103 44.9856 45.013 44.4411 46.0455C43.9006 47.076 43.2006 47.9316 42.3411 48.6121C41.4836 49.2907 40.5299 49.8138 39.4799 50.1813C38.4299 50.5488 37.3896 50.7792 36.359 50.8725V54.2967H33.4949ZM5.89154 33.5417C6.15404 29.4914 7.10488 25.7746 8.74404 22.3913C10.3832 19.008 12.5221 16.0816 15.1607 13.6121C17.7993 11.1427 20.8161 9.23032 24.2111 7.87504C27.6061 6.51976 31.2024 5.83921 34.9999 5.83337C40.8177 5.83337 46.1328 7.4181 50.9453 10.5875C55.7578 13.757 59.287 18.0639 61.5328 23.5084V13.685H64.4495V28.2684H49.8661V25.3517H59.214C57.4427 20.5062 54.3306 16.5278 49.8778 13.4167C45.425 10.3056 40.4657 8.75004 34.9999 8.75004C31.6535 8.75004 28.4539 9.35865 25.4011 10.5759C22.3483 11.7931 19.6329 13.4867 17.2549 15.6567C14.8768 17.8267 12.9304 20.4293 11.4157 23.4646C9.90099 26.4999 9.03182 29.8589 8.80821 33.5417H5.89154Z" fill="white"/>
</g>
</svg>
