<svg width="71" height="71" viewBox="0 0 71 71" fill="none" xmlns="http://www.w3.org/2000/svg">
<g filter="url(#filter0_i_11721_136250)">
<rect x="0.144661" y="35.3555" width="50" height="50" rx="14.5995" transform="rotate(-45 0.144661 35.3555)" fill="url(#paint0_diamond_11721_136250)"/>
<rect x="0.144661" y="35.3555" width="50" height="50" rx="14.5995" transform="rotate(-45 0.144661 35.3555)" fill="url(#paint1_diamond_11721_136250)"/>
<rect x="0.144661" y="35.3555" width="50" height="50" rx="14.5995" transform="rotate(-45 0.144661 35.3555)" fill="url(#paint2_linear_11721_136250)"/>
<rect x="0.144661" y="35.3555" width="50" height="50" rx="14.5995" transform="rotate(-45 0.144661 35.3555)" fill="url(#paint3_linear_11721_136250)"/>
<rect x="0.144661" y="35.3555" width="50" height="50" rx="14.5995" transform="rotate(-45 0.144661 35.3555)" fill="url(#paint4_linear_11721_136250)"/>
</g>
<rect x="5.50005" y="35.3555" width="42.4264" height="42.4264" rx="9.73298" transform="rotate(-45 5.50005 35.3555)" fill="black" fill-opacity="0.2"/>
<g filter="url(#filter1_i_11721_136250)">
<rect x="13.829" y="35.3555" width="30.6473" height="30.6473" rx="7.29973" transform="rotate(-45 13.829 35.3555)" fill="url(#paint5_diamond_11721_136250)"/>
<rect x="13.829" y="35.3555" width="30.6473" height="30.6473" rx="7.29973" transform="rotate(-45 13.829 35.3555)" fill="url(#paint6_linear_11721_136250)"/>
</g>
<path fill-rule="evenodd" clip-rule="evenodd" d="M31.9451 31.6291C32.275 31.6291 32.5804 31.524 32.8299 31.3455C33.0953 31.1555 33.3888 30.977 33.7152 30.977H41.6214C42.4174 31.0271 44.024 31.5784 44.0818 33.3824C44.1377 35.1234 42.6255 35.8843 41.7826 36.0705C41.7235 36.0835 41.6633 36.0884 41.6028 36.0884H40.0601C39.6034 36.0884 39.2332 36.4586 39.2332 36.9153V36.9153C39.2332 37.372 39.6034 37.7421 40.0601 37.7421H41.6937C42.8516 37.7421 45.6739 36.9905 45.6739 33.3824C45.6739 30.677 43.5549 29.5652 42.2959 29.292C42.1369 29.2575 41.9739 29.2481 41.8112 29.2481H33.7487C33.4144 29.2481 33.1153 29.0612 32.846 28.8632C32.5936 28.6775 32.2821 28.5679 31.9451 28.5679C31.1026 28.5679 30.4197 29.2531 30.4197 30.0985C30.4197 30.9438 31.1026 31.6291 31.9451 31.6291ZM31.9451 30.9488C32.4131 30.9488 32.7926 30.5681 32.7926 30.0985C32.7926 29.6288 32.4131 29.2481 31.9451 29.2481C31.4771 29.2481 31.0977 29.6288 31.0977 30.0985C31.0977 30.5681 31.4771 30.9488 31.9451 30.9488Z" fill="#E3BD6D" style="mix-blend-mode:multiply"/>
<path fill-rule="evenodd" clip-rule="evenodd" d="M29.6734 32.9474C29.0264 32.3835 28.0163 32.843 28.0163 33.7012V39.4818C28.0163 39.8234 28.2112 40.1278 28.4168 40.4006C28.6101 40.6571 28.7248 40.9766 28.7248 41.323C28.7248 42.1683 28.0418 42.8536 27.1993 42.8536C26.3569 42.8536 25.6739 42.1683 25.6739 41.323C25.6739 40.9841 25.7836 40.671 25.9694 40.4174C26.1662 40.1487 26.3519 39.8503 26.3519 39.5171V30.2481C26.3519 29.6959 26.7996 29.2481 27.3519 29.2481H27.6417C27.8833 29.2481 28.1167 29.3356 28.2988 29.4943L34.0208 34.4813C34.206 34.6428 34.3123 34.8764 34.3123 35.1221V35.1221C34.3123 35.8516 33.4537 36.2422 32.9038 35.7629L29.6734 32.9474ZM27.1993 42.1733C27.6674 42.1733 28.0468 41.7926 28.0468 41.323C28.0468 40.8533 27.6674 40.4726 27.1993 40.4726C26.7313 40.4726 26.3519 40.8533 26.3519 41.323C26.3519 41.7926 26.7313 42.1733 27.1993 42.1733Z" fill="#E3BD6D" style="mix-blend-mode:multiply"/>
<path fill-rule="evenodd" clip-rule="evenodd" d="M30.9381 36.2423C30.4031 35.7798 29.5722 36.1598 29.5722 36.867V36.867C29.5722 37.1049 29.6748 37.3313 29.8538 37.4881L35.6938 42.6057C35.8762 42.7655 36.1104 42.8536 36.3529 42.8536H36.5688C37.1211 42.8536 37.5688 42.4059 37.5688 41.8536V35.3596C37.5688 34.8073 38.0165 34.3596 38.5688 34.3596H39.9831C40.3148 34.3596 40.612 34.5437 40.88 34.739C41.1315 34.9223 41.441 35.0305 41.7756 35.0305C42.6181 35.0305 43.301 34.3452 43.301 33.4998C43.301 32.6545 42.6181 31.9692 41.7756 31.9692C41.4434 31.9692 41.1359 32.0758 40.8854 32.2568C40.6187 32.4494 40.3233 32.6307 39.9943 32.6307H36.9767C36.4244 32.6307 35.9767 33.0784 35.9767 33.6307V38.4121C35.9767 39.2684 34.9705 39.7286 34.3227 39.1685L30.9381 36.2423ZM42.6231 33.4998C42.6231 33.9695 42.2437 34.3502 41.7756 34.3502C41.3076 34.3502 40.9282 33.9695 40.9282 33.4998C40.9282 33.0302 41.3076 32.6495 41.7756 32.6495C42.2437 32.6495 42.6231 33.0302 42.6231 33.4998Z" fill="#E3BD6D" style="mix-blend-mode:multiply"/>
<defs>
<filter id="filter0_i_11721_136250" x="6.19196" y="6.04736" width="58.6161" height="58.6162" filterUnits="userSpaceOnUse" color-interpolation-filters="sRGB">
<feFlood flood-opacity="0" result="BackgroundImageFix"/>
<feBlend mode="normal" in="SourceGraphic" in2="BackgroundImageFix" result="shape"/>
<feColorMatrix in="SourceAlpha" type="matrix" values="0 0 0 0 0 0 0 0 0 0 0 0 0 0 0 0 0 0 127 0" result="hardAlpha"/>
<feOffset/>
<feGaussianBlur stdDeviation="4.125"/>
<feComposite in2="hardAlpha" operator="arithmetic" k2="-1" k3="1"/>
<feColorMatrix type="matrix" values="0 0 0 0 1 0 0 0 0 1 0 0 0 0 1 0 0 0 1 0"/>
<feBlend mode="normal" in2="shape" result="effect1_innerShadow_11721_136250"/>
</filter>
<filter id="filter1_i_11721_136250" x="16.8526" y="16.708" width="37.2945" height="37.2949" filterUnits="userSpaceOnUse" color-interpolation-filters="sRGB">
<feFlood flood-opacity="0" result="BackgroundImageFix"/>
<feBlend mode="normal" in="SourceGraphic" in2="BackgroundImageFix" result="shape"/>
<feColorMatrix in="SourceAlpha" type="matrix" values="0 0 0 0 0 0 0 0 0 0 0 0 0 0 0 0 0 0 127 0" result="hardAlpha"/>
<feOffset/>
<feGaussianBlur stdDeviation="4.125"/>
<feComposite in2="hardAlpha" operator="arithmetic" k2="-1" k3="1"/>
<feColorMatrix type="matrix" values="0 0 0 0 1 0 0 0 0 1 0 0 0 0 1 0 0 0 1 0"/>
<feBlend mode="normal" in2="shape" result="effect1_innerShadow_11721_136250"/>
</filter>
<radialGradient id="paint0_diamond_11721_136250" cx="0" cy="0" r="1" gradientUnits="userSpaceOnUse" gradientTransform="translate(-7.98034 72.0221) rotate(-17.4699) scale(82.1442)">
<stop offset="0.421875" stop-color="#A349EF"/>
<stop offset="1" stop-color="#FF65E6"/>
</radialGradient>
<radialGradient id="paint1_diamond_11721_136250" cx="0" cy="0" r="1" gradientUnits="userSpaceOnUse" gradientTransform="translate(15.6134 46.918) rotate(-26.2587) scale(39.2016 20.7538)">
<stop stop-color="#FF9FEA"/>
<stop offset="1" stop-color="white" stop-opacity="0"/>
</radialGradient>
<linearGradient id="paint2_linear_11721_136250" x1="1.39466" y1="36.3971" x2="47.4363" y2="87.4388" gradientUnits="userSpaceOnUse">
<stop stop-color="#7A96AC"/>
<stop offset="0.18" stop-color="#EAEFF3"/>
<stop offset="0.315" stop-color="#C2D4E1"/>
<stop offset="0.491919" stop-color="white"/>
<stop offset="0.615" stop-color="#D4DEE5"/>
<stop offset="0.785" stop-color="#ABBDC8"/>
<stop offset="0.955" stop-color="#BCCAD7"/>
</linearGradient>
<linearGradient id="paint3_linear_11721_136250" x1="6.81133" y1="44.1055" x2="45.5613" y2="83.2721" gradientUnits="userSpaceOnUse">
<stop stop-color="#9E8976"/>
<stop offset="0.195" stop-color="#7A5E50"/>
<stop offset="0.41" stop-color="#F6D0AB"/>
<stop offset="0.61" stop-color="#9D774E"/>
<stop offset="0.855" stop-color="#C99B70"/>
<stop offset="1" stop-color="#795F52"/>
</linearGradient>
<linearGradient id="paint4_linear_11721_136250" x1="49.0603" y1="59.1395" x2="5.28248" y2="74.5428" gradientUnits="userSpaceOnUse">
<stop stop-color="#8C421D"/>
<stop offset="0.325272" stop-color="#FBE67B"/>
<stop offset="0.535488" stop-color="#FCFBE7"/>
<stop offset="0.769917" stop-color="#F7D14E"/>
<stop offset="1" stop-color="#D4A041"/>
</linearGradient>
<radialGradient id="paint5_diamond_11721_136250" cx="0" cy="0" r="1" gradientUnits="userSpaceOnUse" gradientTransform="translate(8.84882 57.8301) rotate(-17.4699) scale(50.3499)">
<stop offset="0.421875" stop-color="#A349EF"/>
<stop offset="1" stop-color="#FF65E6"/>
</radialGradient>
<linearGradient id="paint6_linear_11721_136250" x1="20.6403" y1="34.8706" x2="37.665" y2="66.4879" gradientUnits="userSpaceOnUse">
<stop stop-color="#8C421D"/>
<stop offset="0.325272" stop-color="#FBE67B"/>
<stop offset="0.535488" stop-color="#FCFBE7"/>
<stop offset="0.769917" stop-color="#F7D14E"/>
<stop offset="1" stop-color="#D4A041"/>
</linearGradient>
</defs>
</svg>
