<svg width="20" height="20" viewBox="0 0 20 20" fill="none" xmlns="http://www.w3.org/2000/svg">
<path d="M9.07725 10.0185C8.82698 9.6412 8.38283 9.19596 8.07952 9.01398L8.07898 9.01365C7.20402 8.49992 6.2 8.60538 5.55878 9.2953L5.55865 9.29544C4.5726 10.3623 4.78815 12.098 6.03759 13.5485L6.23639 13.7793L6.08364 13.9115C6.02762 13.9598 5.97391 14.0039 5.93267 14.0356C5.91784 14.0471 5.90502 14.0566 5.89454 14.064C5.88257 14.0534 5.86736 14.0387 5.84916 14.0199C5.80494 13.9743 5.7474 13.9091 5.68369 13.8328C5.55635 13.6803 5.40731 13.4867 5.29547 13.3228L5.29537 13.3227C4.57729 12.2764 4.3377 11.1977 4.57869 10.1725C4.78046 9.32752 5.42811 8.61532 6.25363 8.34141L6.25404 8.34128C6.36688 8.30303 6.44908 8.28105 6.55035 8.26862C6.65303 8.25602 6.77714 8.253 6.9742 8.25495L6.97486 8.25496C7.17799 8.25496 7.30173 8.25893 7.40747 8.27384C7.51198 8.28857 7.60099 8.31429 7.73425 8.36064L7.73466 8.36078C8.09442 8.48325 8.46546 8.69394 8.71995 8.91804L8.72011 8.91818L8.90762 9.08225L9.01876 9.1795L9.01818 9.03182L9.00646 6.03168L9.00646 6.03159L9.00639 6.01806C8.99863 4.5354 8.99471 3.78647 8.98202 3.37303C8.97565 3.16576 8.96704 3.04036 8.95419 2.94808C8.94113 2.85426 8.92379 2.79558 8.90206 2.72349L8.90199 2.72325C8.47926 1.33942 7.22549 0.447605 5.81849 0.531546L5.81828 0.531557C5.05557 0.579475 4.435 0.863979 3.88095 1.41794C3.49037 1.80453 3.27793 2.14957 3.09508 2.69416L3.09494 2.69457L3.0051 2.96802L3.00179 2.97808L3.00176 2.98866L2.99005 7.64122L2.99004 7.64128L2.98223 12.2938L2.98214 12.3513L3.03901 12.3599L3.19527 12.3833L3.19658 12.3835L3.19659 12.3835C3.38511 12.4079 3.5996 12.551 3.7236 12.7406L3.72437 12.7418L3.72438 12.7418C3.77249 12.8121 3.79458 12.8534 3.80923 12.9271C3.8251 13.0069 3.83185 13.123 3.84171 13.3437C3.84171 13.3438 3.84171 13.3438 3.84171 13.3438L3.86123 13.8202L3.86246 13.8501L3.88558 13.869L4.12333 14.0639C4.12341 14.064 4.1235 14.064 4.12358 14.0641C4.56806 14.4365 4.95238 15.076 5.14097 15.761C5.21663 16.0372 5.22843 16.1666 5.22843 16.7393C5.22648 17.1266 5.20891 17.3956 5.15805 17.6395C5.10733 17.8827 5.02283 18.1038 4.88342 18.3943C4.25782 19.6914 3.04209 20.2423 1.94688 19.7607C1.40899 19.522 0.958475 19.0659 0.64375 18.4289C0.490232 18.116 0.402332 17.9012 0.351809 17.6604C0.301085 17.4186 0.287309 17.1472 0.287309 16.7199C0.287309 16.3809 0.289336 16.1982 0.303564 16.0592C0.317522 15.9229 0.343253 15.8284 0.393708 15.6654L0.39389 15.6648C0.598075 14.9829 0.962844 14.4022 1.39482 14.0612L1.39528 14.0608L1.59451 13.9007L1.61803 13.8818L1.61934 13.8516L1.63887 13.4024L10.7499 19.4706C10.5561 19.3614 10.3041 19.156 10.0705 18.9269C9.83694 18.6976 9.62783 18.4505 9.51692 18.2606L9.51686 18.2605C9.28265 17.8612 9.13703 17.4626 9.06025 17.0059C9.06024 17.0058 9.06024 17.0058 9.06023 17.0058L8.99387 16.5998L8.98941 16.5725L8.96691 16.5564L8.26375 16.0524L8.26356 16.0523C7.50621 15.5136 6.95435 15.0859 6.59821 14.7568L6.59794 14.7566L6.42236 14.5961L6.57667 14.4388L6.57712 14.4384L6.73597 14.2795L7.00486 14.5119C7.00497 14.512 7.00508 14.5121 7.00519 14.5122C7.17861 14.6659 7.46866 14.901 7.6449 15.0381L7.64533 15.0384C7.84543 15.1915 8.22604 15.4693 8.56014 15.7087C8.72727 15.8284 8.88311 15.9387 8.99924 16.0192C9.05724 16.0594 9.1057 16.0924 9.14083 16.1155C9.1583 16.1269 9.1731 16.1364 9.18439 16.1431C9.18992 16.1464 9.19556 16.1496 9.2007 16.1522C9.20319 16.1534 9.20667 16.1551 9.2106 16.1566C9.21208 16.1572 9.22287 16.1616 9.23669 16.1616C9.24826 16.1616 9.2573 16.1586 9.25985 16.1577L9.2599 16.1577C9.26387 16.1564 9.26732 16.1549 9.26978 16.1537C9.27479 16.1515 9.27998 16.1487 9.28477 16.146C9.29458 16.1405 9.30701 16.1329 9.32131 16.1239C9.35011 16.1056 9.38946 16.0796 9.43659 16.0476C9.531 15.9836 9.65837 15.8948 9.79871 15.7953C10.0792 15.5964 10.4129 15.3537 10.6405 15.1791C12.23 13.9771 13.1393 12.872 13.4302 11.7563M9.07725 10.0185C9.0772 10.0184 9.07715 10.0184 9.0771 10.0183L9.02183 10.0556L9.07739 10.0187C9.07734 10.0186 9.0773 10.0186 9.07725 10.0185ZM9.07725 10.0185C9.13283 10.1009 9.18587 10.1709 9.22616 10.2176C9.23172 10.2241 9.23691 10.23 9.24173 10.2352M9.24173 10.2352C9.25585 10.2153 9.27323 10.1906 9.29296 10.1626C9.32938 10.1108 9.37381 10.0477 9.42059 9.98186M9.24173 10.2352C9.2221 10.263 9.20877 10.2816 9.20416 10.2874L9.25622 10.329L9.20908 10.2819C9.22423 10.2667 9.24267 10.2632 9.25505 10.2638C9.26569 10.2642 9.27278 10.2674 9.27447 10.2682C9.27586 10.2689 9.27665 10.2693 9.27677 10.2694C9.27697 10.2695 9.2755 10.2686 9.27212 10.2657C9.26489 10.2596 9.25467 10.2495 9.24173 10.2352ZM9.42059 9.98186C9.4206 9.98183 9.42062 9.98181 9.42063 9.98179L9.47498 10.0204L9.42054 9.98192C9.42056 9.9819 9.42057 9.98188 9.42059 9.98186ZM9.42059 9.98186C9.69752 9.59021 9.96872 9.31033 10.3052 9.08599C10.6759 8.83887 10.9877 8.72041 11.3689 8.69602C12.3622 8.62321 13.2166 9.29722 13.4695 10.3363M13.4695 10.3363C13.4695 10.3362 13.4695 10.3362 13.4695 10.3361L13.4048 10.3525L13.4696 10.3367C13.4696 10.3366 13.4696 10.3364 13.4695 10.3363ZM13.4695 10.3363C13.5128 10.5073 13.5282 10.7664 13.5208 11.0272C13.5134 11.2887 13.4828 11.5599 13.4302 11.7563M13.4302 11.7563C13.4303 11.7562 13.4303 11.7561 13.4303 11.7561L13.3658 11.7392L13.4302 11.7565C13.4302 11.7564 13.4302 11.7564 13.4302 11.7563ZM14.9853 18.8462C13.8776 20.0112 12.1611 20.2643 10.7499 19.4706L14.9853 18.8462ZM14.9853 18.8462C15.6291 18.1641 15.9516 17.3254 15.9516 16.3059V15.9663M14.9853 18.8462L15.9516 15.9663M15.9516 15.9663H15.7292H15.5078L15.4872 16.4375C15.4872 16.4375 15.4872 16.4376 15.4872 16.4377L15.4872 16.4377L15.4206 16.4348M15.9516 15.9663L15.195 17.7772M15.4206 16.4348C15.3971 17.0168 15.319 17.384 15.1354 17.7473M15.4206 16.4348L15.444 15.8996L15.4206 16.4348ZM15.1354 17.7473L15.195 17.7772M15.1354 17.7473L15.1949 17.7774C15.1949 17.7773 15.195 17.7773 15.195 17.7772M15.1354 17.7473C14.5924 18.8294 13.4908 19.474 12.3071 19.4037C11.8696 19.3763 11.5063 19.2747 11.0766 19.0521M15.195 17.7772C14.6403 18.8825 13.5141 19.5421 12.3032 19.4702L12.303 19.4702C11.8556 19.4422 11.4833 19.3379 11.0459 19.1113M11.0766 19.0521L11.046 19.1113C11.046 19.1113 11.0459 19.1113 11.0459 19.1113M11.0766 19.0521C10.6391 18.8255 10.1234 18.3099 9.89687 17.8723L11.0766 19.0521ZM11.0459 19.1113C10.8194 18.994 10.5757 18.8036 10.3605 18.5885C10.1453 18.3733 9.95499 18.1295 9.83767 17.903L9.83764 17.9029C9.65132 17.5422 9.52724 17.1675 9.48697 16.8455L11.0459 19.1113ZM5.38579 0.120571L5.38567 0.120596L10.1864 16.0718C11.8443 14.8898 12.7847 13.9899 13.3518 13.0563C14.2743 11.5355 14.1773 9.85382 13.1406 8.88155C12.6576 8.43287 12.182 8.25111 11.4872 8.25105C11.2877 8.25301 11.1702 8.25697 11.0653 8.27322C10.9615 8.2893 10.8677 8.3178 10.7163 8.37214L10.7158 8.37231C10.3322 8.50659 10.0431 8.67049 9.77314 8.91006L9.77294 8.91024L9.57762 9.08213L9.46691 9.17955V9.03208V6.16085C9.46691 4.58726 9.4659 3.78133 9.43627 3.29022C9.40695 2.80433 9.35011 2.63207 9.23664 2.32436L9.23653 2.32406C8.86521 1.30198 7.94886 0.469496 6.87561 0.182007C6.68498 0.131044 6.40718 0.0971947 6.12733 0.0855732C5.84732 0.0739479 5.57188 0.084856 5.38579 0.120571ZM3.58799 0.97311L3.63394 1.02141C3.6339 1.02144 3.63386 1.02148 3.63383 1.02152L3.58799 0.97311ZM1.73338 12.82C1.67793 12.931 1.6545 13.0508 1.63887 13.4024L1.73338 12.82ZM9.48696 16.8454L9.45963 16.6307L9.45458 16.591L9.48719 16.5679L10.1863 16.0719L9.48696 16.8454ZM3.38902 13.5479V13.6323L3.30691 13.6128L3.14351 13.5739C3.06249 13.5564 2.86591 13.5511 2.66706 13.5569C2.569 13.5598 2.47313 13.5654 2.39455 13.573C2.31538 13.5807 2.26148 13.5899 2.23843 13.5979C2.23022 13.6017 2.22085 13.6057 2.21134 13.6088C2.20128 13.612 2.18545 13.6161 2.16732 13.6142C2.14617 13.612 2.12618 13.6022 2.11139 13.5847C2.09858 13.5695 2.09289 13.5524 2.08991 13.5397C2.0841 13.5149 2.08341 13.4827 2.0842 13.4468C2.08502 13.4092 2.0878 13.36 2.0917 13.2977C2.09754 13.2041 2.10535 13.1248 2.12394 13.0609C2.14327 12.9944 2.17557 12.9399 2.23247 12.901C2.28662 12.8641 2.35603 12.8463 2.43899 12.8368C2.52254 12.8271 2.62812 12.825 2.75982 12.825C2.93622 12.825 3.04647 12.8277 3.12123 12.84C3.15976 12.8463 3.19189 12.8556 3.22046 12.87C3.24946 12.8846 3.27149 12.9027 3.29136 12.9226C3.33098 12.9622 3.35689 13.0053 3.37158 13.0671C3.38529 13.1248 3.38902 13.1982 3.38902 13.2979V13.5479ZM3.21593 14.0581L3.21593 14.0581L3.21682 14.0584C3.51291 14.1489 3.89856 14.4233 4.12816 14.7092C4.6949 15.4062 4.88558 16.3753 4.75901 17.2553C4.63256 18.1345 4.18671 18.9407 3.46128 19.2993L3.46117 19.2994C3.06969 19.4921 2.66242 19.5244 2.28148 19.4058C1.9012 19.2874 1.55194 19.0201 1.27164 18.6217L1.27151 18.6215C0.891416 18.0773 0.716502 17.4736 0.716502 16.7082C0.716502 15.4518 1.36283 14.3557 2.30581 14.0548C2.42475 14.0166 2.58995 13.9998 2.75339 14.0008C2.91734 14.0018 3.08701 14.0207 3.21593 14.0581Z" fill="white" stroke="#74BC1F" stroke-width="0.133333"/>
<path d="M15.0299 0.0590057C14.3932 0.180104 13.7252 0.473087 13.2525 0.832479C12.9048 1.10202 12.4244 1.6333 12.2134 1.98878C11.8228 2.64116 11.6353 3.32088 11.6353 4.10216C11.6353 4.88345 11.8228 5.56317 12.2134 6.21554C12.4283 6.57493 12.9048 7.1023 13.2603 7.37575C13.5689 7.61405 14.2291 7.94609 14.5729 8.03203L14.8463 8.10235V8.36017C14.8463 8.80551 14.9753 9.05942 15.2995 9.25865L15.4323 9.34459V11.7431V14.1456L15.7175 14.1339L15.9987 14.1222L16.0105 11.708C16.0183 9.56726 16.0261 9.29772 16.0808 9.29772C16.112 9.29772 16.2214 9.21568 16.323 9.11021C16.5378 8.89926 16.6042 8.71957 16.6042 8.35627V8.10626L16.8621 8.03594C17.8777 7.7703 18.8856 6.93433 19.3739 5.95381C19.6864 5.32878 19.8075 4.80923 19.8075 4.10216C19.8075 3.18415 19.5497 2.38333 19.0223 1.68017C18.4442 0.906701 17.6512 0.37152 16.7292 0.129321C16.2448 0.00431538 15.4831 -0.0269365 15.0299 0.0590057ZM15.4245 0.887169L15.4128 1.18796L15.1549 1.23484C14.4362 1.36766 13.7135 1.84424 13.3072 2.45755C13.0806 2.79351 12.983 3.02008 12.8775 3.4576L12.7877 3.80918L12.5103 3.8209L12.229 3.83262V3.72324C12.229 3.51229 12.3892 2.95367 12.5376 2.63334C12.7251 2.23879 12.8814 2.00441 13.1627 1.70361C13.7643 1.07077 14.444 0.730911 15.405 0.590281C15.4206 0.590281 15.4323 0.723099 15.4245 0.887169ZM16.5456 0.691847C17.8543 0.992642 18.8739 2.05129 19.1629 3.41072C19.2567 3.84434 19.2645 3.82871 18.9364 3.82871H18.6473L18.5848 3.50448C18.5067 3.11774 18.2527 2.57865 17.9832 2.24661C17.5965 1.77002 17.0027 1.39501 16.4245 1.27C16.2527 1.23094 16.0925 1.19578 16.0691 1.18796C16.0339 1.18015 16.0183 1.08249 16.0183 0.883263V0.586373L16.1472 0.609812C16.2136 0.621531 16.3972 0.660596 16.5456 0.691847ZM16.4206 1.87159C17.1629 2.12941 17.698 2.65678 17.9402 3.35213C18.0145 3.57089 18.0301 3.69199 18.0301 4.10216C18.0301 4.51234 18.0145 4.63344 17.9402 4.8522C17.6941 5.55926 17.1394 6.09054 16.3698 6.35227C16.0769 6.45383 15.3425 6.44993 15.0612 6.35227C14.7252 6.23117 14.5573 6.14523 14.3112 5.96162C13.0845 5.05924 13.0845 3.14509 14.3112 2.2427C14.612 2.02003 14.9401 1.86768 15.276 1.79737C15.5495 1.74268 16.1589 1.77784 16.4206 1.87159ZM12.8541 4.65688C13.0767 5.81709 14.0182 6.75854 15.1549 6.96948L15.4128 7.01636L15.4245 7.31325L15.4362 7.61405L15.2878 7.59451C14.0768 7.42263 13.0572 6.6726 12.5415 5.57489C12.397 5.26628 12.229 4.69594 12.229 4.50062C12.229 4.41858 12.2447 4.41468 12.5181 4.41468H12.8033L12.8541 4.65688ZM19.2215 4.46937C19.2215 4.57875 19.1083 5.06314 19.0262 5.28972C18.6121 6.4929 17.4715 7.407 16.1667 7.59061L16.0183 7.61405V7.32106C16.0183 7.12183 16.0339 7.02417 16.0691 7.01636C16.0925 7.00855 16.2488 6.97339 16.4089 6.93823C17.5222 6.69213 18.4207 5.71943 18.616 4.55921L18.6395 4.41468H18.9286C19.159 4.41468 19.2215 4.4264 19.2215 4.46937ZM16.0183 8.39924C16.0183 8.5594 15.9987 8.618 15.9206 8.69222C15.8698 8.74691 15.78 8.78988 15.7253 8.78988C15.6706 8.78988 15.5808 8.74691 15.53 8.69222C15.4518 8.618 15.4323 8.5594 15.4323 8.39924V8.20392H15.7253H16.0183V8.39924Z" fill="#74BC1F"/>
<path d="M15.3932 3.28573C15.0846 3.41073 14.8463 3.76622 14.8463 4.10608C14.8463 4.36 15.0143 4.67642 15.2291 4.82486C15.3893 4.93424 15.4245 4.94205 15.7682 4.94205H16.1354L16.3894 5.19597L16.6433 5.44598L16.8386 5.25457C16.9441 5.1491 17.0339 5.04362 17.0339 5.02409C17.0339 5.00065 16.9206 4.86783 16.78 4.7272L16.53 4.47328L16.573 4.30921C16.6628 3.94201 16.4714 3.50839 16.1393 3.3326C15.9518 3.23494 15.5807 3.2115 15.3932 3.28573ZM15.9362 3.93029C15.9831 3.98888 16.0182 4.06311 16.0182 4.10217C16.0182 4.14124 15.9831 4.21546 15.9362 4.27405C15.776 4.47719 15.4323 4.3639 15.4323 4.10217C15.4323 3.84044 15.776 3.72715 15.9362 3.93029Z" fill="#74BC1F"/>
<path d="M10.9399 9.74697V10.0399H11.2329H11.5258V9.74697V9.45398H11.2329H10.9399V9.74697Z" fill="#74BC1F"/>
<path d="M12.1118 10.3329V10.6259H12.4048H12.6978V10.3329V10.0399H12.4048H12.1118V10.3329Z" fill="#74BC1F"/>
<path d="M8.08037 11.6806L7.71707 12.1846L7.35768 12.1885H6.99438V12.4815V12.7744H7.49831H8.00615L8.24835 12.4424C8.38117 12.2588 8.49836 12.1103 8.51399 12.1103C8.52571 12.1103 8.81869 12.4072 9.16245 12.7705C9.50622 13.1338 9.7992 13.4268 9.81483 13.4229C9.82655 13.4229 10.0453 13.1495 10.2953 12.8213L10.7524 12.2275H11.1196H11.4868V11.9346V11.6377L10.9711 11.6494L10.4555 11.6611L10.1195 12.0986C9.93593 12.3369 9.77576 12.5322 9.76014 12.5283C9.74842 12.5244 9.44372 12.2197 9.08823 11.8486L8.43976 11.1767L8.08037 11.6806Z" fill="#74BC1F"/>
<path d="M15.4323 15.0011V15.3175L15.7175 15.3058L15.9987 15.2941V15.0011V14.7081L15.7175 14.6964L15.4323 14.6847V15.0011Z" fill="#74BC1F"/>
</svg>
