<svg width="20" height="22" viewBox="0 0 20 22" fill="none" xmlns="http://www.w3.org/2000/svg">
<g id="Group">
<path id="Vector" d="M6.49839 1.00622L6.49828 1.00627C5.5892 1.46081 4.92803 1.94992 4.17233 2.72329C3.80564 3.10103 3.4645 3.51843 3.21546 3.87931C3.09088 4.05984 2.99013 4.22511 2.92082 4.3634C2.84994 4.5048 2.81697 4.60842 2.81697 4.66925C2.81697 4.71141 2.84298 4.75788 2.88893 4.7919C2.93457 4.82569 2.9881 4.83835 3.03033 4.82742C3.03334 4.82644 3.04227 4.82235 3.05733 4.80953C3.07237 4.79672 3.09035 4.77794 3.11096 4.75243C3.15215 4.70147 3.20005 4.62838 3.25236 4.53469C3.66232 3.78699 4.65187 2.68158 5.42361 2.11172C7.67865 0.439491 10.6229 -0.0302496 13.4261 0.825057L13.4262 0.825068C14.9919 1.30375 16.3355 2.07372 17.4332 3.12218C17.5772 3.2595 17.7142 3.38437 17.8188 3.47465C17.8712 3.51988 17.9148 3.55586 17.9468 3.58026C17.9623 3.59208 17.9741 3.60044 17.9823 3.60566C18.0205 3.60162 18.0631 3.57932 18.0988 3.54157C18.1382 3.49988 18.1611 3.44773 18.1611 3.40169C18.1611 3.39047 18.1531 3.36167 18.122 3.31126C18.0927 3.26377 18.0487 3.20583 17.991 3.13922C17.8758 3.00623 17.7112 2.84422 17.5158 2.6704C17.1252 2.32288 16.6167 1.93272 16.1466 1.63919L16.1465 1.63912C15.3296 1.12689 14.1039 0.6003 13.1541 0.352916L13.1539 0.352853C12.6918 0.230663 12.4053 0.163861 12.0899 0.125531C11.7738 0.0871177 11.4271 0.0770946 10.8441 0.0704198L10.8439 0.0704165C10.5441 0.0659752 10.2577 0.0648656 10.0369 0.0659757C9.81493 0.0670905 9.66484 0.0704751 9.63032 0.0743299C8.32898 0.260293 7.49127 0.507566 6.49839 1.00622Z" fill="white" stroke="#74BC1F" stroke-width="0.133333"/>
<path id="Vector_2" d="M10.8894 2.05404C10.6047 2.08962 10.0666 2.21416 9.85756 2.29866C9.66186 2.37427 9.62628 2.37427 9.31051 2.31645C8.86575 2.2275 8.20751 2.23195 7.80723 2.3209C7.10007 2.47656 6.30396 2.98358 5.8681 3.56177C5.71688 3.76191 5.579 3.88199 5.35663 4.00652C4.943 4.24669 4.35592 4.80708 4.11131 5.20292C4.00012 5.37637 3.8578 5.67881 3.79108 5.8745C3.6799 6.19028 3.66655 6.29257 3.66655 6.80849C3.66655 7.46673 3.73771 7.82253 3.95564 8.27618C4.12465 8.6142 4.48935 9.03671 4.774 9.21906L4.97414 9.3436V10.3665V11.3895L4.38706 11.9766C3.84001 12.5236 3.79553 12.5592 3.68879 12.5147C3.49755 12.4435 3.1284 12.4658 2.94605 12.5592C2.61248 12.7326 2.43903 13.0128 2.43903 13.3909C2.43903 13.8356 2.72367 14.2003 3.15508 14.3026C3.8489 14.4716 4.48046 13.7778 4.24474 13.1018L4.17357 12.9016L4.84071 12.2345L5.50784 11.5674V10.58V9.59711L5.78359 9.68161C5.93481 9.73053 6.24169 9.7928 6.47296 9.81948L6.88659 9.87286V10.7312C6.88659 11.5318 6.89103 11.5941 6.97554 11.6786C7.08673 11.7898 7.22015 11.7898 7.33134 11.6786C7.41585 11.5941 7.42029 11.5318 7.42029 10.7268V9.86396L7.70049 9.84617C7.96734 9.83283 7.98513 9.83727 8.24309 10.0285C8.38986 10.1353 8.67451 10.2998 8.87909 10.3977L9.24379 10.5711V12.2701V13.9691L9.86645 14.5917L10.4891 15.2188L10.4402 15.3611C10.3557 15.6058 10.4091 16.0016 10.5514 16.2106C10.7115 16.4375 11.0495 16.6154 11.3341 16.6154C11.9257 16.6154 12.3838 16.0105 12.2237 15.4412C12.0769 14.9119 11.5565 14.6362 11.0139 14.8008L10.8405 14.8541L10.2845 14.2982L9.73303 13.7467V12.2123V10.6779L10.12 10.6912C10.4402 10.7045 10.5469 10.7268 10.7115 10.8246C10.9917 10.9803 11.8323 11.8387 12.2148 12.3501C12.3882 12.5859 12.5617 12.7905 12.5973 12.8038C12.6284 12.8171 13.0909 12.8527 13.6202 12.8839C14.5408 12.9372 14.5853 12.9372 14.6743 12.8527C14.781 12.7549 14.7721 12.6837 14.612 12.2345C14.5497 12.0611 14.4786 11.7898 14.4563 11.6252L14.4208 11.3272L14.6654 11.2338C14.7988 11.1849 15.0256 11.0648 15.1679 10.967L15.4259 10.7979V11.4339C15.4259 12.0522 15.4615 12.2834 15.5727 12.3546C15.6661 12.4124 15.7773 12.3946 15.8707 12.3012C15.9552 12.2167 15.9596 12.1545 15.9596 11.2783V10.3443L16.2398 10.2064C16.6001 10.0241 17.1782 9.44589 17.3962 9.0545C17.9833 7.98709 17.8899 6.76846 17.156 5.96345C16.9737 5.76776 16.9203 5.66991 16.8669 5.44753C16.6623 4.56247 16.1509 3.79304 15.4704 3.33939C14.9678 3.00582 14.2829 2.76121 13.7136 2.71228C13.5001 2.69449 13.34 2.65002 13.211 2.57441C12.9086 2.40095 12.4416 2.22305 12.108 2.14744C11.7789 2.07183 11.1429 2.02291 10.8894 2.05404ZM12.2014 2.69449C13.0776 2.97024 13.6024 3.44168 13.6024 3.94426C13.6024 4.25559 13.7936 4.38457 14.0027 4.21556C14.0872 4.14884 14.105 4.09103 14.1005 3.89089C14.1005 3.75301 14.0694 3.56621 14.0294 3.47282C13.9893 3.38386 13.9582 3.29047 13.9582 3.26823C13.9582 3.22375 14.4519 3.36607 14.7276 3.48616C15.0523 3.62848 15.4437 3.91757 15.6928 4.19332C15.9062 4.43349 16.2309 5.01612 16.2932 5.27853L16.3243 5.39861L16.0397 5.3319C15.8529 5.28742 15.6171 5.26963 15.3325 5.28297C14.9767 5.30076 14.8566 5.32745 14.6209 5.43864C14.2384 5.61654 14.0472 5.78555 14.0472 5.93676C14.0472 6.00348 14.0694 6.07909 14.1005 6.11022C14.1717 6.18138 14.4252 6.17693 14.4875 6.10132C14.5142 6.07019 14.6609 5.98569 14.8166 5.91453C15.0434 5.81223 15.1546 5.78999 15.4481 5.78555C16.222 5.78555 16.7379 6.08353 17.0493 6.71509C17.325 7.26658 17.3428 7.83587 17.116 8.44964C16.8491 9.15235 16.182 9.78835 15.5682 9.92178C15.457 9.94402 15.377 10.0107 15.2569 10.1753C15.0568 10.4555 14.6787 10.7045 14.3051 10.8068C14.1539 10.8513 13.9982 10.918 13.9716 10.9581C13.8693 11.087 13.9093 11.6385 14.0694 12.2656L14.1005 12.3857L13.5046 12.359C13.1799 12.3457 12.8908 12.3235 12.8641 12.3057C12.833 12.2923 12.6684 12.0966 12.4994 11.8787C12.1481 11.4295 11.7389 10.9936 11.3875 10.6912L11.1474 10.4911L11.4098 10.3443C11.5521 10.2642 11.7967 10.0685 11.9479 9.90844L12.2326 9.62379L12.3927 9.77946C12.6061 9.9796 12.7663 10.0597 13.0998 10.1175C13.7047 10.2287 14.2117 9.94846 14.3585 9.41476C14.4296 9.1568 14.4163 8.67201 14.3318 8.59196C14.2473 8.50745 14.0294 8.49856 13.9671 8.57417C13.9449 8.6053 13.9137 8.76986 13.9048 8.94332C13.8782 9.31691 13.807 9.48592 13.6424 9.57042C13.3444 9.72164 12.833 9.57487 12.6373 9.28133C12.4149 8.94776 12.4816 8.58306 12.8374 8.20057C13.0954 7.92482 13.4334 7.76026 13.7892 7.73358C14.1495 7.70689 14.3451 7.82253 14.4474 8.12052C14.5453 8.40516 14.5675 8.43185 14.741 8.43185C14.9545 8.43185 15.0212 8.28952 14.9411 7.99599C14.7454 7.24879 13.8959 6.99528 13.0287 7.42225C12.4772 7.69355 12.1169 8.1561 11.9746 8.77431C11.939 8.94332 11.859 9.1568 11.8011 9.25464C11.6455 9.52595 11.2808 9.84172 10.9428 10.0018C10.0221 10.4377 8.56332 9.94402 7.9629 8.99224C7.6827 8.55638 7.58485 8.22281 7.60709 7.76471C7.61599 7.44449 7.64267 7.33775 7.7672 7.08868C8.04295 6.52384 8.53663 6.11467 9.12816 5.959C9.47507 5.8656 9.71968 5.87895 9.92872 6.00348C10.1911 6.15469 10.2534 6.29257 10.1822 6.53274C10.071 6.89744 10.071 6.94636 10.1822 7.02642C10.3379 7.13316 10.4268 7.11537 10.5514 6.95081C10.796 6.63058 10.796 6.17249 10.5558 5.87005L10.4535 5.74107L10.6937 5.48311C10.9472 5.21181 11.0006 5.02946 10.8672 4.91827C10.7248 4.80264 10.5914 4.85601 10.3246 5.13176L10.0666 5.40306L9.68855 5.39861C8.93691 5.38527 8.34983 5.62543 7.81613 6.15914C7.01112 6.96415 6.84656 7.98264 7.36248 8.9789C7.45587 9.15235 7.53593 9.31246 7.54483 9.33025C7.56706 9.38362 7.01112 9.37473 6.55302 9.31691C4.97858 9.12566 4.17357 8.28952 4.17357 6.85296C4.17357 6.3326 4.24918 5.99458 4.45377 5.61209C4.61388 5.31411 5.07198 4.80264 5.35663 4.6025L5.54342 4.47796L5.59679 4.75371C5.73467 5.46977 6.31285 6.04795 6.54857 5.70994C6.65087 5.56317 6.64197 5.52314 6.4018 5.25184C6.16163 4.97609 6.08603 4.76261 6.08603 4.35788C6.08603 4.13995 6.10826 4.07768 6.25059 3.88644C6.45962 3.59735 6.90882 3.2282 7.26018 3.05474C7.70049 2.84126 8.04295 2.76565 8.5989 2.76565C9.5151 2.7701 10.12 3.01472 10.5113 3.54842C10.5781 3.64182 10.6715 3.72633 10.7159 3.73967C10.8538 3.78415 11.0228 3.65072 11.0228 3.4995C11.0228 3.35273 10.796 3.0414 10.5291 2.81458L10.3379 2.65891L10.5825 2.61444C10.9739 2.53438 11.8367 2.57886 12.2014 2.69449ZM3.64431 13.0973C4.01346 13.4665 3.50199 14.0447 3.09282 13.7244C2.9416 13.6044 2.89712 13.3775 2.99497 13.1952C3.12395 12.9372 3.43973 12.8927 3.64431 13.0973ZM11.4898 15.2989C11.5699 15.3345 11.6588 15.4012 11.6855 15.4501C11.7567 15.5791 11.7478 15.8237 11.6677 15.9349C11.5788 16.0639 11.3341 16.1395 11.1918 16.0861C11.0362 16.0283 10.8894 15.8281 10.8894 15.6814C10.8894 15.4946 11.1118 15.2544 11.303 15.2411C11.3208 15.2366 11.4053 15.2633 11.4898 15.2989Z" fill="#EC4F4F"/>
<path id="Vector_3" d="M11.3519 3.65075C11.2407 3.81976 11.2229 4.23783 11.3074 4.53582C11.4409 4.99392 11.7122 5.31414 12.197 5.58544C12.4505 5.72776 12.5883 5.92346 12.5439 6.08357C12.5305 6.13249 12.446 6.22589 12.3526 6.2926C12.0724 6.4883 12.0368 6.70623 12.2681 6.83076C12.3971 6.89747 12.6284 6.77739 12.8463 6.53277C13.0286 6.32374 13.0954 6.1147 13.0509 5.89677C13.0286 5.77669 13.0375 5.76334 13.1309 5.76334C13.3533 5.76334 13.807 5.58544 13.9938 5.42533C14.1984 5.25187 14.2339 5.114 14.1005 4.99392C13.9804 4.88273 13.8514 4.90052 13.638 5.05173C13.3044 5.28745 12.8063 5.31859 12.4327 5.13179C11.9568 4.89607 11.7477 4.53582 11.7922 4.03324C11.81 3.80197 11.8011 3.70412 11.7522 3.63296C11.6588 3.49954 11.4453 3.50843 11.3519 3.65075Z" fill="#74BC1F"/>
<path id="Vector_4" d="M8.37652 3.9309C8.01182 4.09991 7.56706 4.70033 7.48256 5.13619C7.43363 5.37636 7.68714 5.54536 7.87394 5.39415C7.90952 5.36746 7.98513 5.22514 8.04295 5.08726C8.16303 4.77149 8.43878 4.45126 8.64337 4.38455C8.72343 4.35786 8.86575 4.34897 8.9547 4.36676C9.10147 4.39344 9.45727 4.60693 9.74637 4.8382C9.862 4.9316 9.87979 4.93605 9.99098 4.86933C10.0755 4.82486 10.1155 4.76259 10.1244 4.66475C10.1378 4.54911 10.1022 4.50019 9.90203 4.32228C9.55067 4.0154 9.24379 3.87753 8.86575 3.85974C8.63447 3.85084 8.50994 3.86863 8.37652 3.9309Z" fill="#74BC1F"/>
<path id="Vector_5" d="M7.02888 5.83895C6.99774 5.85229 6.92213 5.95903 6.85987 6.08356C6.70865 6.3771 6.41956 6.68843 6.2461 6.73291C6.03262 6.79073 5.78356 6.71067 5.41441 6.4705C5.23206 6.35042 5.03637 6.25257 4.98744 6.25257C4.85402 6.25257 4.75172 6.36821 4.75172 6.52387C4.75172 6.63951 4.7962 6.68398 5.12087 6.89302C5.88585 7.39559 6.40622 7.39559 6.8999 6.89747C7.10448 6.69288 7.35355 6.29705 7.39802 6.11025C7.44695 5.91456 7.23346 5.75444 7.02888 5.83895Z" fill="#74BC1F"/>
<path id="Vector_6" d="M18.726 4.45579C18.6726 4.49137 18.6281 4.56253 18.6281 4.61145C18.6281 4.66038 18.726 4.90054 18.8461 5.15405C19.6911 6.91084 19.7222 8.85442 18.9483 11.1449C18.7438 11.7409 18.6326 12.0166 18.2501 12.835C17.1337 15.2411 16.3376 18.2388 16.1464 20.7739L16.1152 21.1742L15.8484 21.1964C15.5148 21.2231 15.4704 21.2542 15.4704 21.4366C15.4704 21.6634 15.5371 21.6901 16.053 21.6767C16.4933 21.6634 16.5155 21.659 16.5645 21.5522C16.5956 21.4899 16.6401 21.1475 16.6667 20.7917C16.8135 18.7858 17.3873 16.3085 18.1656 14.3427C18.2946 14.0047 18.5747 13.3643 18.7793 12.9106C19.611 11.0915 19.9446 9.84623 19.9935 8.38743C20.0335 7.20438 19.8912 6.35045 19.4909 5.35864C19.2686 4.8027 19.0996 4.49137 18.9839 4.4291C18.8727 4.37128 18.8416 4.37128 18.726 4.45579Z" fill="#74BC1F"/>
<path id="Vector_7" d="M2.35451 6.07023C2.18551 6.23923 2.09211 7.46676 2.17216 8.47636C2.21664 9.07233 2.21219 9.21021 2.15437 9.4993C2.05208 9.99298 1.81636 10.4333 1.44276 10.8291C0.44651 11.8787 -0.00714111 12.5815 -0.00714111 13.0618C-0.00714111 13.5688 0.277503 13.938 0.886819 14.2226C1.10475 14.3249 1.28265 14.4272 1.28265 14.4494C1.28265 14.4717 1.21594 14.574 1.13143 14.6763C0.935742 14.912 0.882371 15.0543 0.882371 15.3345C0.882371 15.5658 0.998008 15.8282 1.12699 15.8727C1.17591 15.8949 1.18036 15.9305 1.14478 16.0594C1.05583 16.3752 1.22483 16.7533 1.59398 17.0601C1.71406 17.1624 1.8297 17.2914 1.84304 17.3448C1.85639 17.4026 1.8297 17.5627 1.78078 17.7095C1.64735 18.1098 1.63401 18.2476 1.68738 18.5634C1.78523 19.1905 2.23888 19.8265 2.76369 20.0845C3.23513 20.3113 3.59538 20.3247 4.60943 20.1557C5.32104 20.0356 5.748 19.9866 6.16162 19.9911C6.62862 19.9911 6.87323 20.0489 7.03779 20.2046C7.16233 20.3158 7.48255 20.9295 7.62042 21.3076C7.77164 21.7256 7.42918 21.6856 10.9339 21.6856C13.2822 21.6856 14.0427 21.6723 14.0827 21.6322C14.1717 21.5433 14.1494 21.2942 14.0516 21.2409C13.9938 21.2142 12.9708 21.1964 11.045 21.1964H8.12745L8.07852 21.0585C8.00292 20.845 7.6649 20.169 7.54037 19.9911L7.42918 19.8265L7.81167 19.7509C8.01626 19.7109 8.23864 19.6575 8.29645 19.6353C8.41209 19.5908 8.4877 19.444 8.45212 19.3151C8.41209 19.1549 8.26532 19.1372 7.77164 19.235C7.07782 19.3729 6.79318 19.4085 6.08602 19.4618C5.73021 19.4885 5.06308 19.573 4.59608 19.6442C3.373 19.8443 3.02609 19.7865 2.60802 19.3373C2.22109 18.9192 2.09655 18.4033 2.25667 17.8874C2.36786 17.5316 2.37675 17.2381 2.28335 17.0646C2.24777 16.9934 2.11435 16.8422 1.98537 16.7266C1.61177 16.393 1.54506 16.184 1.74965 15.9927C1.95423 15.8015 1.84304 15.5035 1.5673 15.5035C1.33157 15.5035 1.32268 15.2544 1.54506 14.9742C1.80302 14.6451 1.84749 14.405 1.70072 14.1781C1.59398 14.0091 1.53171 13.9691 1.12699 13.769C0.704469 13.5644 0.579937 13.4443 0.522119 13.1863C0.482091 13.0218 0.495433 12.9684 0.597727 12.7594C0.757839 12.4258 1.2782 11.7409 1.78078 11.2072C2.4746 10.4644 2.72811 9.84621 2.69698 8.96559C2.67029 8.08052 2.69698 6.6751 2.74145 6.45272C2.77258 6.29705 2.77258 6.20365 2.74145 6.14139C2.64805 5.96349 2.48794 5.9368 2.35451 6.07023Z" fill="#74BC1F"/>
<path id="Vector_8" d="M6.95774 12.399C6.89992 12.4791 6.88657 12.6347 6.88657 13.1729V13.8534L6.69978 13.9557C6.26392 14.1958 6.10825 14.694 6.32173 15.161C6.72646 16.046 8.08742 15.748 8.08742 14.7785C8.08742 14.4049 7.90951 14.1069 7.58929 13.9423L7.42028 13.8578V13.1774C7.42028 12.4168 7.3847 12.3012 7.15343 12.3012C7.07337 12.3012 7.00221 12.3368 6.95774 12.399ZM7.3847 14.396C7.50034 14.4582 7.59818 14.694 7.56705 14.8496C7.53592 15.0053 7.31354 15.1921 7.15788 15.1921C7.00666 15.1921 6.80652 15.0453 6.7487 14.8897C6.69533 14.7473 6.77094 14.5027 6.89992 14.4138C7.01111 14.3337 7.25572 14.3248 7.3847 14.396Z" fill="#74BC1F"/>
<path id="Vector_9" d="M15.537 13.4309C15.4259 13.5421 15.4259 13.5466 15.4259 14.356V15.1699L15.0567 15.5391C14.7053 15.886 14.6787 15.9038 14.563 15.8593C14.3495 15.7793 13.9893 15.8059 13.7758 15.9171C13.2154 16.2151 13.122 17.0023 13.6024 17.4337C14.2962 18.0609 15.3502 17.3893 15.1145 16.4686L15.0612 16.2507L15.5104 15.797L15.9596 15.3389V14.4272C15.9596 13.4665 15.9462 13.4087 15.7505 13.3464C15.6749 13.3286 15.6215 13.3509 15.537 13.4309ZM14.5185 16.4419C14.5986 16.5176 14.6253 16.5887 14.6253 16.7355C14.6253 16.9845 14.4696 17.1491 14.2384 17.1491C14.0382 17.1491 13.9315 17.0868 13.8425 16.9223C13.7491 16.7399 13.798 16.5576 13.9715 16.4108C14.1361 16.2729 14.354 16.2863 14.5185 16.4419Z" fill="#74BC1F"/>
<path id="Vector_10" d="M11.1296 17.407C11.1073 17.4248 11.0362 17.5182 10.9783 17.6161C10.7293 18.043 10.2045 18.4433 9.51509 18.7235C9.10591 18.8925 9.02141 18.9503 9.02141 19.0704C9.02141 19.2394 9.10591 19.3284 9.26602 19.3284C9.43503 19.3284 9.99542 19.0971 10.4046 18.8569C10.925 18.55 11.512 17.8918 11.512 17.6116C11.512 17.4382 11.2719 17.3092 11.1296 17.407Z" fill="#74BC1F"/>
</g>
</svg>
