<svg width="20" height="22" viewBox="0 0 20 22" fill="none" xmlns="http://www.w3.org/2000/svg">
<g id="Group">
<path id="Vector" d="M6.49836 1.00615L6.49826 1.0062C5.58918 1.46074 4.928 1.94985 4.1723 2.72322C3.80562 3.10096 3.46447 3.51837 3.21543 3.87925C3.09085 4.05978 2.9901 4.22505 2.92079 4.36334C2.84991 4.50474 2.81694 4.60835 2.81694 4.66919C2.81694 4.71135 2.84295 4.75782 2.8889 4.79184C2.93454 4.82563 2.98807 4.83829 3.0303 4.82736C3.03331 4.82638 3.04224 4.82229 3.0573 4.80946C3.07234 4.79666 3.09032 4.77788 3.11093 4.75237C3.15212 4.70141 3.20003 4.62832 3.25233 4.53462C3.66229 3.78692 4.65185 2.68152 5.42358 2.11165C7.67863 0.43942 10.6228 -0.0303216 13.4261 0.824987L13.4261 0.824997C14.9919 1.30368 16.3355 2.07366 17.4332 3.12211C17.5772 3.25944 17.7142 3.3843 17.8188 3.47458C17.8712 3.51982 17.9149 3.5558 17.9468 3.58019C17.9623 3.59202 17.9741 3.60038 17.9823 3.6056C18.0205 3.60156 18.0631 3.57925 18.0988 3.54151C18.1382 3.49981 18.1612 3.44766 18.1612 3.40163C18.1612 3.39041 18.1531 3.36161 18.122 3.3112C18.0927 3.2637 18.0487 3.20577 17.991 3.13916C17.8758 3.00617 17.7112 2.84415 17.5158 2.67033C17.1252 2.32281 16.6167 1.93265 16.1466 1.63912L16.1465 1.63905C15.3296 1.12682 14.1039 0.600229 13.1541 0.352844L13.1539 0.352781C12.6918 0.230591 12.4053 0.163789 12.0899 0.125459C11.7738 0.0870457 11.4271 0.0770226 10.8441 0.0703478L10.8439 0.0703444C10.5441 0.0659027 10.2577 0.0647936 10.0368 0.0659032C9.81492 0.067018 9.66482 0.0704026 9.6303 0.0742574C8.32897 0.260221 7.49125 0.507495 6.49836 1.00615Z" fill="white" stroke="#74BC1F" stroke-width="0.133333"/>
<path id="Vector_2" d="M10.8893 2.05401C10.6047 2.08959 10.0665 2.21412 9.8575 2.29863C9.66181 2.37423 9.62622 2.37423 9.31045 2.31642C8.86569 2.22746 8.20745 2.23191 7.80717 2.32086C7.1 2.47653 6.30389 2.98355 5.86803 3.56174C5.71681 3.76188 5.57893 3.88196 5.35656 4.00649C4.94293 4.24666 4.35585 4.80706 4.11124 5.20289C4.00005 5.37634 3.85772 5.67878 3.79101 5.87447C3.67982 6.19025 3.66648 6.29254 3.66648 6.80846C3.66648 7.4667 3.73764 7.82251 3.95557 8.27616C4.12458 8.61418 4.48928 9.0367 4.77392 9.21905L4.97407 9.34358V10.3665V11.3895L4.38699 11.9765C3.83993 12.5236 3.79546 12.5592 3.68872 12.5147C3.49747 12.4435 3.12832 12.4658 2.94597 12.5592C2.6124 12.7326 2.43895 13.0128 2.43895 13.3909C2.43895 13.8356 2.72359 14.2003 3.15501 14.3026C3.84883 14.4716 4.48038 13.7778 4.24466 13.1018L4.1735 12.9016L4.84064 12.2345L5.50777 11.5674V10.58V9.59709L5.78352 9.68159C5.93474 9.73052 6.24162 9.79278 6.4729 9.81947L6.88652 9.87284V10.7312C6.88652 11.5318 6.89097 11.594 6.97547 11.6786C7.08666 11.7897 7.22009 11.7897 7.33128 11.6786C7.41578 11.594 7.42023 11.5318 7.42023 10.7268V9.86394L7.70043 9.84615C7.96728 9.83281 7.98507 9.83726 8.24303 10.0285C8.3898 10.1352 8.67444 10.2998 8.87903 10.3977L9.24373 10.5711V12.2701V13.9691L9.86639 14.5917L10.4891 15.2188L10.4401 15.3611C10.3556 15.6058 10.409 16.0016 10.5513 16.2106C10.7114 16.4375 11.0494 16.6154 11.3341 16.6154C11.9256 16.6154 12.3837 16.0105 12.2236 15.4412C12.0768 14.9119 11.5565 14.6362 11.0139 14.8007L10.8404 14.8541L10.2845 14.2982L9.73297 13.7467V12.2123V10.6778L10.1199 10.6912C10.4401 10.7045 10.5469 10.7268 10.7114 10.8246C10.9916 10.9803 11.8322 11.8387 12.2147 12.3501C12.3882 12.5859 12.5616 12.7904 12.5972 12.8038C12.6283 12.8171 13.0909 12.8527 13.6201 12.8838C14.5408 12.9372 14.5853 12.9372 14.6742 12.8527C14.781 12.7549 14.7721 12.6837 14.612 12.2345C14.5497 12.061 14.4785 11.7897 14.4563 11.6252L14.4207 11.3272L14.6653 11.2338C14.7987 11.1849 15.0256 11.0648 15.1679 10.9669L15.4259 10.7979V11.4339C15.4259 12.0521 15.4614 12.2834 15.5726 12.3546C15.666 12.4124 15.7772 12.3946 15.8706 12.3012C15.9551 12.2167 15.9596 12.1544 15.9596 11.2783V10.3443L16.2398 10.2064C16.6 10.0241 17.1782 9.44587 17.3961 9.05449C17.9832 7.98707 17.8898 6.76843 17.156 5.96342C16.9736 5.76773 16.9202 5.66988 16.8669 5.4475C16.6623 4.56244 16.1508 3.79301 15.4703 3.33936C14.9678 3.00579 14.2828 2.76117 13.7135 2.71225C13.5001 2.69446 13.3399 2.64998 13.211 2.57438C12.9085 2.40092 12.4415 2.22302 12.108 2.14741C11.7788 2.0718 11.1428 2.02288 10.8893 2.05401ZM12.2014 2.69446C13.0775 2.97021 13.6024 3.44165 13.6024 3.94423C13.6024 4.25556 13.7936 4.38454 14.0026 4.21553C14.0871 4.14882 14.1049 4.091 14.1005 3.89086C14.1005 3.75298 14.0693 3.56618 14.0293 3.47278C13.9893 3.38383 13.9582 3.29043 13.9582 3.2682C13.9582 3.22372 14.4518 3.36604 14.7276 3.48613C15.0523 3.62845 15.4436 3.91754 15.6927 4.19329C15.9062 4.43346 16.2309 5.01609 16.2931 5.2785L16.3243 5.39858L16.0396 5.33187C15.8528 5.28739 15.6171 5.2696 15.3325 5.28295C14.9767 5.30074 14.8566 5.32742 14.6208 5.43861C14.2384 5.61651 14.0471 5.78552 14.0471 5.93674C14.0471 6.00345 14.0693 6.07906 14.1005 6.11019C14.1716 6.18135 14.4252 6.17691 14.4874 6.1013C14.5141 6.07017 14.6609 5.98566 14.8165 5.9145C15.0434 5.81221 15.1546 5.78997 15.4481 5.78552C16.222 5.78552 16.7379 6.08351 17.0492 6.71506C17.325 7.26656 17.3428 7.83585 17.1159 8.44962C16.8491 9.15233 16.1819 9.78833 15.5682 9.92176C15.457 9.944 15.3769 10.0107 15.2568 10.1753C15.0567 10.4555 14.6787 10.7045 14.3051 10.8068C14.1539 10.8513 13.9982 10.918 13.9715 10.958C13.8692 11.087 13.9092 11.6385 14.0693 12.2656L14.1005 12.3857L13.5045 12.359C13.1798 12.3457 12.8907 12.3235 12.8641 12.3057C12.8329 12.2923 12.6684 12.0966 12.4994 11.8787C12.148 11.4295 11.7388 10.9936 11.3875 10.6912L11.1473 10.4911L11.4097 10.3443C11.552 10.2642 11.7966 10.0685 11.9479 9.90842L12.2325 9.62378L12.3926 9.77944C12.6061 9.97958 12.7662 10.0596 13.0998 10.1175C13.7046 10.2286 14.2117 9.94845 14.3584 9.41474C14.4296 9.15678 14.4163 8.67199 14.3318 8.59194C14.2473 8.50743 14.0293 8.49854 13.9671 8.57415C13.9448 8.60528 13.9137 8.76984 13.9048 8.9433C13.8781 9.31689 13.8069 9.4859 13.6424 9.5704C13.3444 9.72162 12.8329 9.57485 12.6372 9.28131C12.4149 8.94774 12.4816 8.58304 12.8374 8.20055C13.0953 7.9248 13.4333 7.76024 13.7892 7.73356C14.1494 7.70687 14.3451 7.82251 14.4474 8.1205C14.5452 8.40514 14.5675 8.43183 14.7409 8.43183C14.9544 8.43183 15.0211 8.2895 14.9411 7.99596C14.7454 7.24877 13.8959 6.99526 13.0286 7.42223C12.4771 7.69353 12.1169 8.15608 11.9745 8.77429C11.939 8.9433 11.8589 9.15678 11.8011 9.25463C11.6454 9.52593 11.2807 9.84171 10.9427 10.0018C10.0221 10.4377 8.56325 9.944 7.96283 8.99222C7.68264 8.55636 7.58479 8.22279 7.60703 7.76469C7.61592 7.44447 7.64261 7.33772 7.76714 7.08866C8.04289 6.52382 8.53657 6.11464 9.1281 5.95898C9.47501 5.86558 9.71962 5.87892 9.92866 6.00345C10.1911 6.15467 10.2533 6.29254 10.1822 6.53271C10.071 6.89741 10.071 6.94634 10.1822 7.02639C10.3378 7.13313 10.4268 7.11535 10.5513 6.95078C10.7959 6.63056 10.7959 6.17246 10.5558 5.87002L10.4535 5.74105L10.6936 5.48309C10.9472 5.21178 11.0005 5.02943 10.8671 4.91824C10.7248 4.80261 10.5913 4.85598 10.3245 5.13173L10.0665 5.40303L9.68849 5.39858C8.93685 5.38524 8.34977 5.62541 7.81606 6.15912C7.01105 6.96413 6.84649 7.98262 7.36241 8.97888C7.45581 9.15233 7.53587 9.31244 7.54476 9.33024C7.567 9.38361 7.01105 9.37471 6.55295 9.31689C4.97851 9.12565 4.1735 8.2895 4.1735 6.85294C4.1735 6.33257 4.24911 5.99456 4.4537 5.61207C4.61381 5.31408 5.07191 4.80261 5.35656 4.60247L5.54335 4.47794L5.59672 4.75368C5.7346 5.46974 6.31278 6.04793 6.54851 5.70991C6.6508 5.56314 6.6419 5.52312 6.40174 5.25181C6.16157 4.97606 6.08596 4.76258 6.08596 4.35785C6.08596 4.13992 6.1082 4.07765 6.25052 3.88641C6.45955 3.59732 6.90876 3.22817 7.26012 3.05471C7.70043 2.84123 8.04289 2.76562 8.59884 2.76562C9.51504 2.77007 10.1199 3.01468 10.5113 3.54839C10.578 3.64179 10.6714 3.7263 10.7159 3.73964C10.8538 3.78411 11.0228 3.65069 11.0228 3.49947C11.0228 3.3527 10.7959 3.04137 10.5291 2.81454L10.3378 2.65888L10.5825 2.6144C10.9738 2.53435 11.8367 2.57882 12.2014 2.69446ZM3.64424 13.0973C4.01339 13.4665 3.50192 14.0447 3.09274 13.7244C2.94153 13.6044 2.89705 13.3775 2.9949 13.1952C3.12388 12.9372 3.43965 12.8927 3.64424 13.0973ZM11.4898 15.2989C11.5698 15.3345 11.6588 15.4012 11.6854 15.4501C11.7566 15.5791 11.7477 15.8237 11.6677 15.9349C11.5787 16.0639 11.3341 16.1395 11.1918 16.0861C11.0361 16.0283 10.8893 15.8281 10.8893 15.6814C10.8893 15.4946 11.1117 15.2544 11.303 15.2411C11.3207 15.2366 11.4053 15.2633 11.4898 15.2989Z" fill="#1FBCB3"/>
<path id="Vector_3" d="M11.3519 3.65068C11.2407 3.81969 11.2229 4.23776 11.3074 4.53575C11.4408 4.99385 11.7121 5.31408 12.1969 5.58538C12.4504 5.7277 12.5883 5.92339 12.5438 6.0835C12.5305 6.13243 12.446 6.22583 12.3526 6.29254C12.0724 6.48823 12.0368 6.70616 12.2681 6.8307C12.3971 6.89741 12.6283 6.77733 12.8463 6.53271C13.0286 6.32367 13.0953 6.11464 13.0509 5.89671C13.0286 5.77662 13.0375 5.76328 13.1309 5.76328C13.3533 5.76328 13.8069 5.58538 13.9937 5.42526C14.1983 5.25181 14.2339 5.11393 14.1005 4.99385C13.9804 4.88266 13.8514 4.90045 13.6379 5.05167C13.3044 5.28739 12.8062 5.31852 12.4326 5.13172C11.9568 4.896 11.7477 4.53575 11.7922 4.03317C11.81 3.8019 11.8011 3.70405 11.7522 3.63289C11.6588 3.49947 11.4453 3.50836 11.3519 3.65068Z" fill="#74BC1F"/>
<path id="Vector_4" d="M8.37646 3.93089C8.01176 4.0999 7.567 4.70032 7.4825 5.13619C7.43357 5.37636 7.68708 5.54536 7.87388 5.39415C7.90946 5.36746 7.98507 5.22514 8.04289 5.08726C8.16297 4.77149 8.43872 4.45126 8.64331 4.38455C8.72337 4.35786 8.86569 4.34897 8.95464 4.36676C9.10141 4.39344 9.45722 4.60693 9.74631 4.8382C9.86195 4.9316 9.87974 4.93605 9.99093 4.86933C10.0754 4.82486 10.1155 4.76259 10.1244 4.66474C10.1377 4.54911 10.1021 4.50018 9.90197 4.32228C9.55062 4.0154 9.24373 3.87752 8.86569 3.85973C8.63442 3.85084 8.50988 3.86863 8.37646 3.93089Z" fill="#74BC1F"/>
<path id="Vector_5" d="M7.02883 5.83894C6.9977 5.85229 6.92209 5.95903 6.85983 6.08356C6.70861 6.3771 6.41952 6.68843 6.24606 6.73291C6.03258 6.79072 5.78351 6.71067 5.41437 6.4705C5.23202 6.35041 5.03632 6.25257 4.9874 6.25257C4.85397 6.25257 4.75168 6.36821 4.75168 6.52387C4.75168 6.63951 4.79615 6.68398 5.12083 6.89302C5.88581 7.39559 6.40617 7.39559 6.89986 6.89747C7.10444 6.69288 7.35351 6.29704 7.39798 6.11025C7.44691 5.91455 7.23342 5.75444 7.02883 5.83894Z" fill="#74BC1F"/>
<path id="Vector_6" d="M18.726 4.45575C18.6726 4.49133 18.6281 4.56249 18.6281 4.61141C18.6281 4.66034 18.726 4.90051 18.846 5.15402C19.6911 6.91081 19.7222 8.85439 18.9483 11.1449C18.7437 11.7409 18.6326 12.0166 18.2501 12.835C17.1337 15.2411 16.3376 18.2388 16.1464 20.7739L16.1152 21.1742L15.8484 21.1964C15.5148 21.2231 15.4703 21.2542 15.4703 21.4366C15.4703 21.6634 15.5371 21.6901 16.053 21.6767C16.4933 21.6634 16.5155 21.659 16.5644 21.5522C16.5956 21.4899 16.64 21.1475 16.6667 20.7917C16.8135 18.7858 17.3872 16.3085 18.1656 14.3427C18.2945 14.0047 18.5747 13.3642 18.7793 12.9106C19.611 11.0915 19.9446 9.8462 19.9935 8.3874C20.0335 7.20435 19.8912 6.35041 19.4909 5.3586C19.2686 4.80266 19.0996 4.49133 18.9839 4.42906C18.8727 4.37124 18.8416 4.37124 18.726 4.45575Z" fill="#74BC1F"/>
<path id="Vector_7" d="M2.35444 6.07019C2.18543 6.2392 2.09204 7.46673 2.17209 8.47633C2.21657 9.0723 2.21212 9.21018 2.1543 9.49927C2.05201 9.99295 1.81629 10.4333 1.44269 10.8291C0.446435 11.8787 -0.00721741 12.5814 -0.00721741 13.0618C-0.00721741 13.5688 0.277427 13.9379 0.886744 14.2226C1.10468 14.3249 1.28258 14.4272 1.28258 14.4494C1.28258 14.4717 1.21586 14.5739 1.13136 14.6762C0.935668 14.912 0.882297 15.0543 0.882297 15.3345C0.882297 15.5658 0.997934 15.8282 1.12691 15.8726C1.17584 15.8949 1.18028 15.9305 1.1447 16.0594C1.05575 16.3752 1.22476 16.7533 1.59391 17.0601C1.71399 17.1624 1.82963 17.2914 1.84297 17.3448C1.85631 17.4026 1.82963 17.5627 1.78071 17.7095C1.64728 18.1098 1.63394 18.2476 1.68731 18.5634C1.78515 19.1905 2.23881 19.8265 2.76362 20.0845C3.23506 20.3113 3.59531 20.3247 4.60936 20.1556C5.32097 20.0356 5.74794 19.9866 6.16156 19.9911C6.62856 19.9911 6.87317 20.0489 7.03773 20.2046C7.16227 20.3158 7.48249 20.9295 7.62037 21.3076C7.77158 21.7256 7.42912 21.6856 10.9338 21.6856C13.2821 21.6856 14.0427 21.6723 14.0827 21.6322C14.1716 21.5433 14.1494 21.2942 14.0516 21.2409C13.9937 21.2142 12.9708 21.1964 11.045 21.1964H8.12739L8.07847 21.0585C8.00286 20.845 7.66484 20.169 7.54031 19.9911L7.42912 19.8265L7.81161 19.7509C8.0162 19.7109 8.23858 19.6575 8.2964 19.6353C8.41203 19.5908 8.48764 19.444 8.45206 19.3151C8.41203 19.1549 8.26526 19.1372 7.77158 19.235C7.07776 19.3729 6.79312 19.4085 6.08595 19.4618C5.73015 19.4885 5.06301 19.573 4.59602 19.6442C3.37294 19.8443 3.02603 19.7865 2.60795 19.3373C2.22102 18.9192 2.09648 18.4033 2.2566 17.8874C2.36779 17.5316 2.37668 17.238 2.28328 17.0646C2.2477 16.9934 2.11427 16.8422 1.98529 16.7266C1.6117 16.393 1.54498 16.184 1.74957 15.9927C1.95416 15.8015 1.84297 15.5035 1.56722 15.5035C1.3315 15.5035 1.32261 15.2544 1.54498 14.9742C1.80294 14.6451 1.84742 14.4049 1.70065 14.1781C1.59391 14.0091 1.53164 13.9691 1.12691 13.7689C0.704394 13.5643 0.579862 13.4443 0.522043 13.1863C0.482015 13.0217 0.495358 12.9684 0.597652 12.7593C0.757765 12.4258 1.27813 11.7408 1.78071 11.2071C2.47453 10.4644 2.72804 9.84618 2.69691 8.96556C2.67022 8.08049 2.69691 6.67506 2.74138 6.45268C2.77251 6.29702 2.77251 6.20362 2.74138 6.14135C2.64798 5.96345 2.48787 5.93676 2.35444 6.07019Z" fill="#74BC1F"/>
<path id="Vector_8" d="M6.95766 12.3991C6.89984 12.4791 6.8865 12.6348 6.8865 13.173V13.8534L6.6997 13.9557C6.26384 14.1959 6.10817 14.694 6.32166 15.161C6.72639 16.0461 8.08734 15.7481 8.08734 14.7785C8.08734 14.4049 7.90944 14.1069 7.58922 13.9424L7.42021 13.8579V13.1774C7.42021 12.4169 7.38463 12.3012 7.15335 12.3012C7.0733 12.3012 7.00214 12.3368 6.95766 12.3991ZM7.38463 14.396C7.50026 14.4583 7.59811 14.694 7.56698 14.8497C7.53584 15.0054 7.31347 15.1922 7.1578 15.1922C7.00658 15.1922 6.80644 15.0454 6.74862 14.8897C6.69525 14.7474 6.77086 14.5028 6.89984 14.4138C7.01103 14.3338 7.25565 14.3249 7.38463 14.396Z" fill="#74BC1F"/>
<path id="Vector_9" d="M15.537 13.4309C15.4258 13.5421 15.4258 13.5466 15.4258 14.356V15.1699L15.0567 15.5391C14.7053 15.886 14.6787 15.9038 14.563 15.8593C14.3495 15.7793 13.9893 15.8059 13.7758 15.9171C13.2154 16.2151 13.122 17.0023 13.6023 17.4337C14.2962 18.0609 15.3502 17.3893 15.1145 16.4686L15.0611 16.2507L15.5103 15.797L15.9596 15.3389V14.4272C15.9596 13.4665 15.9462 13.4087 15.7505 13.3464C15.6749 13.3286 15.6215 13.3509 15.537 13.4309ZM14.5185 16.4419C14.5986 16.5175 14.6253 16.5887 14.6253 16.7355C14.6253 16.9845 14.4696 17.1491 14.2383 17.1491C14.0382 17.1491 13.9315 17.0868 13.8425 16.9223C13.7491 16.7399 13.798 16.5576 13.9715 16.4108C14.136 16.2729 14.354 16.2863 14.5185 16.4419Z" fill="#74BC1F"/>
<path id="Vector_10" d="M11.1295 17.407C11.1073 17.4248 11.0361 17.5182 10.9783 17.6161C10.7292 18.043 10.2044 18.4433 9.51503 18.7235C9.10585 18.8925 9.02135 18.9503 9.02135 19.0704C9.02135 19.2394 9.10585 19.3284 9.26596 19.3284C9.43497 19.3284 9.99537 19.0971 10.4045 18.8569C10.9249 18.55 11.512 17.8918 11.512 17.6116C11.512 17.4382 11.2718 17.3092 11.1295 17.407Z" fill="#74BC1F"/>
</g>
</svg>
