<svg width="24" height="25" viewBox="0 0 24 25" fill="none" xmlns="http://www.w3.org/2000/svg">
<g id="icon / heart beat">
<path id="Vector" d="M6.75 13.958H3C2.90054 13.958 2.80516 13.9185 2.73484 13.8482C2.66451 13.7778 2.625 13.6825 2.625 13.583C2.625 13.4836 2.66451 13.3882 2.73484 13.3178C2.80516 13.2475 2.90054 13.208 3 13.208H6.54938L7.93781 11.1249C7.97204 11.0734 8.01845 11.0313 8.07292 11.0021C8.12738 10.9729 8.18821 10.9576 8.25 10.9576C8.31179 10.9576 8.37262 10.9729 8.42708 11.0021C8.48155 11.0313 8.52796 11.0734 8.56219 11.1249L11.25 15.1561L12.4378 13.3749C12.4721 13.3235 12.5185 13.2814 12.573 13.2523C12.6274 13.2232 12.6882 13.208 12.75 13.208H15C15.0995 13.208 15.1948 13.2475 15.2652 13.3178C15.3355 13.3882 15.375 13.4836 15.375 13.583C15.375 13.6825 15.3355 13.7778 15.2652 13.8482C15.1948 13.9185 15.0995 13.958 15 13.958H12.9506L11.5622 16.0411C11.528 16.0926 11.4815 16.1348 11.4271 16.1639C11.3726 16.1931 11.3118 16.2084 11.25 16.2084C11.1882 16.2084 11.1274 16.1931 11.0729 16.1639C11.0185 16.1348 10.972 16.0926 10.9378 16.0411L8.25 12.0089L7.06219 13.7902C7.02802 13.8417 6.98164 13.884 6.92717 13.9133C6.8727 13.9426 6.81184 13.9579 6.75 13.958ZM16.6875 4.95801C14.6775 4.95801 12.945 5.91332 12 7.49582C11.055 5.91332 9.3225 4.95801 7.3125 4.95801C5.87092 4.95974 4.48888 5.53318 3.46952 6.55253C2.45017 7.57189 1.87674 8.95393 1.875 10.3955V10.5952C1.87823 10.6947 1.92084 10.7888 1.99345 10.8568C2.06606 10.9248 2.16273 10.9612 2.26219 10.958C2.36164 10.9548 2.45574 10.9122 2.52378 10.8396C2.59182 10.7669 2.62823 10.6703 2.625 10.5708V10.3955C2.62649 9.15276 3.12083 7.96134 3.99958 7.08259C4.87833 6.20383 6.06975 5.7095 7.3125 5.70801C9.29156 5.70801 10.9547 6.76832 11.6531 8.47457C11.6814 8.54335 11.7294 8.60218 11.7912 8.64358C11.853 8.68498 11.9256 8.70708 12 8.70708C12.0744 8.70708 12.147 8.68498 12.2088 8.64358C12.2706 8.60218 12.3186 8.54335 12.3469 8.47457C13.0453 6.76832 14.7084 5.70801 16.6875 5.70801C17.9302 5.7095 19.1217 6.20383 20.0004 7.08259C20.8792 7.96134 21.3735 9.15276 21.375 10.3955C21.375 15.833 13.3125 20.6574 12 21.4036C11.2059 20.9518 7.92188 19.0027 5.47219 16.3299C5.40444 16.259 5.31162 16.2175 5.21363 16.2142C5.11563 16.2109 5.02025 16.2462 4.94792 16.3124C4.87559 16.3786 4.83207 16.4705 4.82667 16.5684C4.82128 16.6663 4.85444 16.7624 4.91906 16.8361C7.79906 19.9786 11.6597 22.0758 11.8219 22.163C11.8766 22.1925 11.9378 22.208 12 22.208C12.0622 22.208 12.1234 22.1925 12.1781 22.163C13.9318 21.1766 15.5863 20.0235 17.1188 18.7196C20.4375 15.8771 22.125 13.0758 22.125 10.3955C22.1233 8.95393 21.5498 7.57189 20.5305 6.55253C19.5111 5.53318 18.1291 4.95974 16.6875 4.95801Z" fill="#74BC1F"/>
</g>
</svg>
