<svg width="20" height="20" viewBox="0 0 20 20" fill="none" xmlns="http://www.w3.org/2000/svg">
<g id="icon / heart beat">
<path id="Vector" d="M5.625 10.9375H2.5C2.41712 10.9375 2.33763 10.9046 2.27903 10.846C2.22042 10.7874 2.1875 10.7079 2.1875 10.625C2.1875 10.5421 2.22042 10.4626 2.27903 10.404C2.33763 10.3454 2.41712 10.3125 2.5 10.3125H5.45781L6.61484 8.57656C6.64337 8.5337 6.68205 8.49855 6.72743 8.47423C6.77282 8.44992 6.82351 8.43719 6.875 8.43719C6.92649 8.43719 6.97718 8.44992 7.02257 8.47423C7.06795 8.49855 7.10663 8.5337 7.13516 8.57656L9.375 11.9359L10.3648 10.4516C10.3934 10.4088 10.4321 10.3737 10.4775 10.3494C10.5229 10.3251 10.5735 10.3125 10.625 10.3125H12.5C12.5829 10.3125 12.6624 10.3454 12.721 10.404C12.7796 10.4626 12.8125 10.5421 12.8125 10.625C12.8125 10.7079 12.7796 10.7874 12.721 10.846C12.6624 10.9046 12.5829 10.9375 12.5 10.9375H10.7922L9.63516 12.6734C9.60663 12.7163 9.56795 12.7515 9.52257 12.7758C9.47718 12.8001 9.42649 12.8128 9.375 12.8128C9.32351 12.8128 9.27282 12.8001 9.22743 12.7758C9.18205 12.7515 9.14337 12.7163 9.11484 12.6734L6.875 9.31328L5.88516 10.7977C5.85668 10.8406 5.81803 10.8759 5.77264 10.9003C5.72725 10.9247 5.67653 10.9374 5.625 10.9375ZM13.9062 3.4375C12.2312 3.4375 10.7875 4.23359 10 5.55234C9.2125 4.23359 7.76875 3.4375 6.09375 3.4375C4.89243 3.43895 3.74073 3.91681 2.89127 4.76627C2.04181 5.61573 1.56395 6.76743 1.5625 7.96875V8.13516C1.56519 8.21804 1.6007 8.29645 1.66121 8.35315C1.72172 8.40985 1.80228 8.44019 1.88516 8.4375C1.96804 8.43481 2.04645 8.3993 2.10315 8.33879C2.15985 8.27828 2.19019 8.19772 2.1875 8.11484V7.96875C2.18874 6.93313 2.60069 5.94028 3.33298 5.20798C4.06528 4.47569 5.05813 4.06374 6.09375 4.0625C7.74297 4.0625 9.12891 4.94609 9.71094 6.36797C9.73448 6.42528 9.77453 6.47431 9.826 6.50881C9.87747 6.54331 9.93804 6.56173 10 6.56173C10.062 6.56173 10.1225 6.54331 10.174 6.50881C10.2255 6.47431 10.2655 6.42528 10.2891 6.36797C10.8711 4.94609 12.257 4.0625 13.9062 4.0625C14.9419 4.06374 15.9347 4.47569 16.667 5.20798C17.3993 5.94028 17.8113 6.93313 17.8125 7.96875C17.8125 12.5 11.0938 16.5203 10 17.1422C9.33828 16.7656 6.60156 15.1414 4.56016 12.9141C4.5037 12.855 4.42635 12.8204 4.34469 12.8177C4.26303 12.8149 4.18354 12.8443 4.12327 12.8995C4.06299 12.9546 4.02672 13.0312 4.02223 13.1128C4.01773 13.1944 4.04537 13.2745 4.09922 13.3359C6.49922 15.9547 9.71641 17.7023 9.85156 17.775C9.89717 17.7996 9.94818 17.8125 10 17.8125C10.0518 17.8125 10.1028 17.7996 10.1484 17.775C11.6098 16.953 12.9886 15.992 14.2656 14.9055C17.0313 12.5367 18.4375 10.2023 18.4375 7.96875C18.4361 6.76743 17.9582 5.61573 17.1087 4.76627C16.2593 3.91681 15.1076 3.43895 13.9062 3.4375Z" fill="#74BC1F"/>
</g>
</svg>
