<svg width="24" height="25" viewBox="0 0 24 25" fill="none" xmlns="http://www.w3.org/2000/svg">
<path d="M6.75 13.792H3C2.90054 13.792 2.80516 13.7525 2.73484 13.6822C2.66451 13.6118 2.625 13.5164 2.625 13.417C2.625 13.3175 2.66451 13.2222 2.73484 13.1518C2.80516 13.0815 2.90054 13.042 3 13.042H6.54938L7.93781 10.9589C7.97204 10.9074 8.01845 10.8652 8.07292 10.8361C8.12738 10.8069 8.18821 10.7916 8.25 10.7916C8.31179 10.7916 8.37262 10.8069 8.42708 10.8361C8.48155 10.8652 8.52796 10.9074 8.56219 10.9589L11.25 14.9901L12.4378 13.2089C12.4721 13.1575 12.5185 13.1154 12.573 13.0863C12.6274 13.0572 12.6882 13.042 12.75 13.042H15C15.0995 13.042 15.1948 13.0815 15.2652 13.1518C15.3355 13.2222 15.375 13.3175 15.375 13.417C15.375 13.5164 15.3355 13.6118 15.2652 13.6822C15.1948 13.7525 15.0995 13.792 15 13.792H12.9506L11.5622 15.8751C11.528 15.9266 11.4815 15.9687 11.4271 15.9979C11.3726 16.0271 11.3118 16.0424 11.25 16.0424C11.1882 16.0424 11.1274 16.0271 11.0729 15.9979C11.0185 15.9687 10.972 15.9266 10.9378 15.8751L8.25 11.8429L7.06219 13.6242C7.02802 13.6757 6.98164 13.718 6.92717 13.7473C6.8727 13.7766 6.81184 13.7919 6.75 13.792ZM16.6875 4.79199C14.6775 4.79199 12.945 5.7473 12 7.3298C11.055 5.7473 9.3225 4.79199 7.3125 4.79199C5.87092 4.79373 4.48888 5.36716 3.46952 6.38652C2.45017 7.40587 1.87674 8.78791 1.875 10.2295V10.4292C1.87823 10.5286 1.92084 10.6227 1.99345 10.6908C2.06606 10.7588 2.16273 10.7952 2.26219 10.792C2.36164 10.7888 2.45574 10.7462 2.52378 10.6735C2.59182 10.6009 2.62823 10.5043 2.625 10.4048V10.2295C2.62649 8.98675 3.12083 7.79533 3.99958 6.91657C4.87834 6.03782 6.06975 5.54348 7.3125 5.54199C9.29156 5.54199 10.9547 6.6023 11.6531 8.30855C11.6814 8.37733 11.7294 8.43616 11.7912 8.47756C11.853 8.51896 11.9256 8.54107 12 8.54107C12.0744 8.54107 12.147 8.51896 12.2088 8.47756C12.2706 8.43616 12.3186 8.37733 12.3469 8.30855C13.0453 6.6023 14.7084 5.54199 16.6875 5.54199C17.9302 5.54348 19.1217 6.03782 20.0004 6.91657C20.8792 7.79533 21.3735 8.98675 21.375 10.2295C21.375 15.667 13.3125 20.4914 12 21.2376C11.2059 20.7857 7.92188 18.8367 5.47219 16.1639C5.40444 16.093 5.31162 16.0515 5.21363 16.0482C5.11563 16.0449 5.02025 16.0802 4.94792 16.1464C4.87559 16.2126 4.83207 16.3044 4.82667 16.4023C4.82128 16.5003 4.85444 16.5964 4.91906 16.6701C7.79906 19.8126 11.6597 21.9098 11.8219 21.997C11.8766 22.0265 11.9378 22.042 12 22.042C12.0622 22.042 12.1234 22.0265 12.1781 21.997C13.9318 21.0106 15.5863 19.8574 17.1188 18.5536C20.4375 15.7111 22.125 12.9098 22.125 10.2295C22.1233 8.78791 21.5498 7.40587 20.5305 6.38652C19.5111 5.36716 18.1291 4.79373 16.6875 4.79199Z" fill="white"/>
</svg>
