<svg width="24" height="24" viewBox="0 0 24 24" fill="none" xmlns="http://www.w3.org/2000/svg">
<path d="M16.7094 0.896484L18.8242 3.18663C18.9158 3.2893 18.9665 3.42681 18.9653 3.56954C18.9642 3.71227 18.9113 3.8488 18.8181 3.94973C18.7249 4.05066 18.5988 4.10791 18.467 4.10915C18.3352 4.11039 18.2082 4.05553 18.1134 3.95636L17.2121 2.98032V22.8965H16.2068V2.98032L15.3054 3.95636C15.2591 4.00836 15.2036 4.04983 15.1423 4.07836C15.0809 4.10689 15.015 4.1219 14.9482 4.12253C14.8815 4.12316 14.8153 4.10939 14.7535 4.08202C14.6917 4.05464 14.6356 4.01422 14.5884 3.96311C14.5412 3.912 14.5039 3.85122 14.4786 3.78432C14.4534 3.71742 14.4406 3.64574 14.4412 3.57346C14.4418 3.50118 14.4557 3.42974 14.482 3.36333C14.5083 3.29692 14.5466 3.23685 14.5947 3.18663L16.7094 0.896484Z" fill="#74BC1F"/>
<path fill-rule="evenodd" clip-rule="evenodd" d="M12.9393 3.84368C12.9393 4.56555 12.6745 5.25786 12.2032 5.7683C11.7318 6.27875 11.0925 6.56551 10.4259 6.56551C9.75931 6.56551 9.12002 6.27875 8.64866 5.7683C8.1773 5.25786 7.9125 4.56555 7.9125 3.84368C7.9125 3.12181 8.1773 2.4295 8.64866 1.91906C9.12002 1.40862 9.75931 1.12185 10.4259 1.12185C11.0925 1.12185 11.7318 1.40862 12.2032 1.91906C12.6745 2.4295 12.9393 3.12181 12.9393 3.84368ZM11.934 3.84368C11.934 4.27681 11.7751 4.69219 11.4923 4.99846C11.2094 5.30472 10.8259 5.47678 10.4259 5.47678C10.026 5.47678 9.64237 5.30472 9.35956 4.99846C9.07675 4.69219 8.91786 4.27681 8.91786 3.84368C8.91786 3.41056 9.07675 2.99517 9.35956 2.68891C9.64237 2.38264 10.026 2.21058 10.4259 2.21058C10.8259 2.21058 11.2094 2.38264 11.4923 2.68891C11.7751 2.99517 11.934 3.41056 11.934 3.84368ZM12.3929 22.8965C12.0165 22.8965 11.6537 22.7441 11.3758 22.4692C11.0978 22.1944 10.9249 21.8169 10.8909 21.4109L10.5129 16.9085H10.3384L9.96043 21.4109C9.95239 21.5086 9.93624 21.6054 9.91217 21.7C9.824 22.0441 9.63409 22.3475 9.37152 22.5636C9.10896 22.7797 8.78821 22.8966 8.45841 22.8965H8.41518C8.01522 22.8965 7.63164 22.7244 7.34883 22.4182C7.06602 22.1119 6.90713 21.6965 6.90713 21.2634V16.4768C6.66361 16.2802 6.46436 16.0265 6.32437 15.7346C6.18437 15.4427 6.10726 15.1202 6.09882 14.7914L5.96611 9.61069C5.9581 9.29947 6.01182 8.99001 6.12363 8.70318C6.23544 8.41634 6.40276 8.15881 6.61429 7.94796C6.82582 7.7371 7.07664 7.57782 7.34985 7.48085C7.62305 7.38389 7.91228 7.3515 8.19802 7.38587L10.2037 7.62757C10.3518 7.64499 10.5 7.64499 10.6481 7.62757L12.5884 7.39349C12.8789 7.3585 13.1729 7.3925 13.45 7.49311C13.7271 7.59373 13.9806 7.75854 14.1928 7.97607C14.4051 8.1936 14.571 8.45862 14.679 8.75267C14.7871 9.04673 14.8346 9.36275 14.8183 9.67874L14.5529 14.8518C14.5248 15.3984 14.3077 15.9134 13.9447 16.2944V21.2634C13.9447 21.6965 13.7858 22.1119 13.503 22.4182C13.2202 22.7244 12.8366 22.8965 12.4366 22.8965H12.3929ZM7.9125 16.4768C7.9125 16.3073 7.87596 16.1402 7.8058 15.9887C7.73563 15.8372 7.63378 15.7055 7.50834 15.6042C7.38642 15.5059 7.28666 15.3789 7.21657 15.2329C7.14648 15.0868 7.10789 14.9255 7.10368 14.7609L6.97097 9.58075C6.96693 9.42512 6.99376 9.27036 7.04965 9.12691C7.10554 8.98346 7.1892 8.85466 7.29496 8.7492C7.40073 8.64374 7.52616 8.56408 7.66278 8.51558C7.7994 8.46708 7.94404 8.45088 8.08693 8.46807L10.0926 8.70977C10.3138 8.73644 10.5375 8.73644 10.7592 8.70977L12.6995 8.47569C12.8448 8.45819 12.9919 8.4752 13.1304 8.52553C13.269 8.57587 13.3958 8.65833 13.5019 8.76715C13.6081 8.87598 13.691 9.00856 13.745 9.15565C13.799 9.30275 13.8227 9.46082 13.8145 9.61886L13.5491 14.7914C13.535 15.0647 13.4264 15.3222 13.245 15.5127C13.1483 15.6142 13.0714 15.7357 13.0189 15.87C12.9664 16.0043 12.9393 16.1486 12.9393 16.2944V21.2634C12.9393 21.4078 12.8864 21.5462 12.7921 21.6483C12.6978 21.7504 12.57 21.8078 12.4366 21.8078H12.3929C12.2674 21.8078 12.1465 21.7569 12.0538 21.6653C11.9612 21.5736 11.9035 21.4477 11.8922 21.3124L11.5142 16.8099C11.4916 16.5392 11.3764 16.2875 11.1911 16.1041C11.0058 15.9208 10.7639 15.8192 10.5129 15.8192H10.3384C10.0875 15.8192 9.84554 15.9208 9.66025 16.1041C9.47496 16.2875 9.35969 16.5392 9.3371 16.8099L8.95908 21.3124C8.9478 21.4476 8.89023 21.5734 8.79769 21.6651C8.70515 21.7567 8.58432 21.8076 8.45891 21.8078H8.41518C8.28186 21.8078 8.154 21.7504 8.05973 21.6483C7.96546 21.5462 7.9125 21.4078 7.9125 21.2634V16.4768Z" fill="#74BC1F"/>
<path d="M16.7094 0.896484L18.8242 3.18663C18.9158 3.2893 18.9665 3.42681 18.9653 3.56954C18.9642 3.71227 18.9113 3.8488 18.8181 3.94973C18.7249 4.05066 18.5988 4.10791 18.467 4.10915C18.3352 4.11039 18.2082 4.05553 18.1134 3.95636L17.2121 2.98032V22.8965H16.2068V2.98032L15.3054 3.95636C15.2591 4.00836 15.2036 4.04983 15.1423 4.07836C15.0809 4.10689 15.015 4.1219 14.9482 4.12253C14.8815 4.12316 14.8153 4.10939 14.7535 4.08202C14.6917 4.05464 14.6356 4.01422 14.5884 3.96311C14.5412 3.912 14.5039 3.85122 14.4786 3.78432C14.4534 3.71742 14.4406 3.64574 14.4412 3.57346C14.4418 3.50118 14.4557 3.42974 14.482 3.36333C14.5083 3.29692 14.5466 3.23685 14.5947 3.18663L16.7094 0.896484Z" stroke="#74BC1F" stroke-width="0.5"/>
<path fill-rule="evenodd" clip-rule="evenodd" d="M12.9393 3.84368C12.9393 4.56555 12.6745 5.25786 12.2032 5.7683C11.7318 6.27875 11.0925 6.56551 10.4259 6.56551C9.75931 6.56551 9.12002 6.27875 8.64866 5.7683C8.1773 5.25786 7.9125 4.56555 7.9125 3.84368C7.9125 3.12181 8.1773 2.4295 8.64866 1.91906C9.12002 1.40862 9.75931 1.12185 10.4259 1.12185C11.0925 1.12185 11.7318 1.40862 12.2032 1.91906C12.6745 2.4295 12.9393 3.12181 12.9393 3.84368ZM11.934 3.84368C11.934 4.27681 11.7751 4.69219 11.4923 4.99846C11.2094 5.30472 10.8259 5.47678 10.4259 5.47678C10.026 5.47678 9.64237 5.30472 9.35956 4.99846C9.07675 4.69219 8.91786 4.27681 8.91786 3.84368C8.91786 3.41056 9.07675 2.99517 9.35956 2.68891C9.64237 2.38264 10.026 2.21058 10.4259 2.21058C10.8259 2.21058 11.2094 2.38264 11.4923 2.68891C11.7751 2.99517 11.934 3.41056 11.934 3.84368ZM12.3929 22.8965C12.0165 22.8965 11.6537 22.7441 11.3758 22.4692C11.0978 22.1944 10.9249 21.8169 10.8909 21.4109L10.5129 16.9085H10.3384L9.96043 21.4109C9.95239 21.5086 9.93624 21.6054 9.91217 21.7C9.824 22.0441 9.63409 22.3475 9.37152 22.5636C9.10896 22.7797 8.78821 22.8966 8.45841 22.8965H8.41518C8.01522 22.8965 7.63164 22.7244 7.34883 22.4182C7.06602 22.1119 6.90713 21.6965 6.90713 21.2634V16.4768C6.66361 16.2802 6.46436 16.0265 6.32437 15.7346C6.18437 15.4427 6.10726 15.1202 6.09882 14.7914L5.96611 9.61069C5.9581 9.29947 6.01182 8.99001 6.12363 8.70318C6.23544 8.41634 6.40276 8.15881 6.61429 7.94796C6.82582 7.7371 7.07664 7.57782 7.34985 7.48085C7.62305 7.38389 7.91228 7.3515 8.19802 7.38587L10.2037 7.62757C10.3518 7.64499 10.5 7.64499 10.6481 7.62757L12.5884 7.39349C12.8789 7.3585 13.1729 7.3925 13.45 7.49311C13.7271 7.59373 13.9806 7.75854 14.1928 7.97607C14.4051 8.1936 14.571 8.45862 14.679 8.75267C14.7871 9.04673 14.8346 9.36275 14.8183 9.67874L14.5529 14.8518C14.5248 15.3984 14.3077 15.9134 13.9447 16.2944V21.2634C13.9447 21.6965 13.7858 22.1119 13.503 22.4182C13.2202 22.7244 12.8366 22.8965 12.4366 22.8965H12.3929ZM7.9125 16.4768C7.9125 16.3073 7.87596 16.1402 7.8058 15.9887C7.73563 15.8372 7.63378 15.7055 7.50834 15.6042C7.38642 15.5059 7.28666 15.3789 7.21657 15.2329C7.14648 15.0868 7.10789 14.9255 7.10368 14.7609L6.97097 9.58075C6.96693 9.42512 6.99376 9.27036 7.04965 9.12691C7.10554 8.98346 7.1892 8.85466 7.29496 8.7492C7.40073 8.64374 7.52616 8.56408 7.66278 8.51558C7.7994 8.46708 7.94404 8.45088 8.08693 8.46807L10.0926 8.70977C10.3138 8.73644 10.5375 8.73644 10.7592 8.70977L12.6995 8.47569C12.8448 8.45819 12.9919 8.4752 13.1304 8.52553C13.269 8.57587 13.3958 8.65833 13.5019 8.76715C13.6081 8.87598 13.691 9.00856 13.745 9.15565C13.799 9.30275 13.8227 9.46082 13.8145 9.61886L13.5491 14.7914C13.535 15.0647 13.4264 15.3222 13.245 15.5127C13.1483 15.6142 13.0714 15.7357 13.0189 15.87C12.9664 16.0043 12.9393 16.1486 12.9393 16.2944V21.2634C12.9393 21.4078 12.8864 21.5462 12.7921 21.6483C12.6978 21.7504 12.57 21.8078 12.4366 21.8078H12.3929C12.2674 21.8078 12.1465 21.7569 12.0538 21.6653C11.9612 21.5736 11.9035 21.4477 11.8922 21.3124L11.5142 16.8099C11.4916 16.5392 11.3764 16.2875 11.1911 16.1041C11.0058 15.9208 10.7639 15.8192 10.5129 15.8192H10.3384C10.0875 15.8192 9.84554 15.9208 9.66025 16.1041C9.47496 16.2875 9.35969 16.5392 9.3371 16.8099L8.95908 21.3124C8.9478 21.4476 8.89023 21.5734 8.79769 21.6651C8.70515 21.7567 8.58432 21.8076 8.45891 21.8078H8.41518C8.28186 21.8078 8.154 21.7504 8.05973 21.6483C7.96546 21.5462 7.9125 21.4078 7.9125 21.2634V16.4768Z" stroke="#74BC1F" stroke-width="0.5"/>
</svg>
