<svg width="18" height="18" viewBox="0 0 18 18" fill="none" xmlns="http://www.w3.org/2000/svg">
<g id="Group">
<path id="Vector" d="M16.8539 8.04758C16.8823 8.25127 16.8961 8.6282 16.8961 9.00127C16.8961 9.37426 16.8823 9.75111 16.8539 9.95483C16.6045 11.7896 15.8587 13.3112 14.5844 14.5855C12.7154 16.4578 10.1461 17.2528 7.53519 16.77L7.53516 16.77C4.41435 16.1918 1.91463 13.7513 1.2674 10.6468C1.13607 10.0262 1.10312 9.67632 1.10312 9.00127C1.10312 8.32908 1.13288 8.03154 1.26728 7.36281L1.33264 7.37595L1.26728 7.3628C1.51717 6.11995 2.19026 4.76736 3.04475 3.79784L3.04494 3.79763C3.14738 3.68239 3.16816 3.63338 3.16816 3.57484C3.16816 3.43182 3.0156 3.35028 2.89244 3.43695C2.8737 3.45051 2.83124 3.49359 2.76966 3.56416C2.70999 3.63255 2.63712 3.72112 2.55958 3.81932C2.40437 4.01585 2.23217 4.24875 2.11143 4.43228L2.11128 4.4325C0.269495 7.20811 0.27288 10.8432 2.12408 13.5957L2.12419 13.5959C2.56006 14.2481 3.23287 14.9792 3.84644 15.47C5.92062 17.1274 8.67026 17.6801 11.2458 16.9595C14.2473 16.1194 16.5641 13.5892 17.1229 10.5397L17.1229 10.5396C17.6271 7.80868 16.7902 5.10461 14.845 3.15616C13.5591 1.8702 12.0023 1.0916 10.1627 0.810293C9.96031 0.78002 9.58285 0.758078 9.19998 0.749126C8.81722 0.740177 8.43556 0.744362 8.22489 0.765102C6.69954 0.91699 5.22269 1.49229 4.01443 2.40656L4.01433 2.40664C3.79514 2.57185 3.67154 2.67061 3.60237 2.74093C3.56824 2.77562 3.55059 2.80026 3.54113 2.81942C3.53243 2.83704 3.52949 2.85235 3.52949 2.87129C3.52949 2.98143 3.6009 3.05217 3.69734 3.05217C3.72667 3.05217 3.75666 3.04552 3.80701 3.01609C3.85973 2.98527 3.93014 2.93224 4.03939 2.84256L4.03964 2.84236C5.68914 1.50172 7.95518 0.87121 10.0678 1.16691L10.0586 1.23294L10.0678 1.16692C12.3407 1.48551 14.3117 2.72402 15.5925 4.63209L15.5925 4.63209C16.2566 5.62166 16.68 6.7747 16.8539 8.04758ZM16.8539 8.04758C16.8539 8.04755 16.8539 8.04752 16.8539 8.04749L16.7879 8.05669L16.8539 8.04767C16.8539 8.04764 16.8539 8.04761 16.8539 8.04758Z" fill="white" stroke="white" stroke-width="0.133333"/>
<path id="Vector_2" d="M8.13688 3.28804C7.72648 3.34993 7.43985 3.44113 7.05876 3.63005C5.62886 4.33034 5.20543 5.93937 6.31287 6.46378C6.6679 6.63315 7.04573 6.62012 7.31607 6.43772C7.38122 6.39212 7.5115 6.24881 7.60596 6.12178C7.92191 5.68532 8.06522 5.56806 8.38117 5.48337C8.61894 5.41823 9.11077 5.43451 9.36809 5.51594C10.0228 5.72114 10.1237 6.36606 9.59283 6.95561C9.52769 7.02727 9.27037 7.24875 9.01957 7.4507C8.49517 7.87087 8.28345 8.08584 8.07825 8.40179C7.89585 8.68516 7.78185 8.95551 7.69065 9.32031C7.63202 9.55482 7.61899 9.69814 7.61899 10.1411C7.61899 10.7176 7.64179 10.8349 7.81116 11.0922C8.08151 11.4994 9.101 11.545 9.54397 11.1704C9.73615 11.0075 9.78826 10.8414 9.81432 10.3072C9.85015 9.60043 9.95438 9.38871 10.4886 8.93596C10.7166 8.74379 10.7589 8.69168 10.7589 8.60699C10.7589 8.48648 10.6319 8.34967 10.5211 8.34967C10.4267 8.34967 10.254 8.47019 9.97066 8.73728C9.5114 9.16722 9.37134 9.48317 9.31923 10.2225C9.28014 10.7697 9.25409 10.8284 9.03586 10.8903C8.873 10.9359 8.41374 10.9293 8.31602 10.8805C8.19225 10.8186 8.12059 10.6362 8.09779 10.33C8.06522 9.85123 8.16619 9.30402 8.36488 8.89688C8.56031 8.4995 8.78506 8.25847 9.49186 7.70801C9.78175 7.48001 10.1368 7.09567 10.2443 6.89698C10.4364 6.54195 10.4755 6.18366 10.368 5.8384C10.2964 5.60714 10.1791 5.43451 9.99021 5.28469C9.41369 4.81891 8.24762 4.82543 7.65808 5.29446C7.58642 5.34983 7.42682 5.53223 7.3063 5.69183C7.02619 6.07292 7.00664 6.08595 6.8047 6.08269C6.50178 6.07618 6.26727 5.90355 6.19561 5.63646C6.12721 5.38566 6.2575 4.98503 6.51156 4.65931C6.65161 4.48017 7.01967 4.19028 7.26396 4.06976C8.16945 3.61702 9.5342 3.6105 10.4918 4.05348C11.3582 4.45085 11.8142 5.11206 11.8142 5.95566C11.811 6.51264 11.6286 6.99144 11.2149 7.5419C11.0879 7.70476 10.9869 7.87413 10.9869 7.91321C10.9869 8.03373 11.1074 8.15425 11.2312 8.15425C11.3191 8.15425 11.3647 8.12493 11.4885 7.98813C11.8175 7.62333 12.1041 7.09892 12.2311 6.62989C12.3223 6.29766 12.3321 5.66252 12.2474 5.35309C11.951 4.23914 10.9087 3.44439 9.51466 3.2685C9.14986 3.2229 8.49191 3.23267 8.13688 3.28804Z" fill="white"/>
<path id="Vector_3" d="M8.36487 12.0109C8.04241 12.0923 7.69389 12.3431 7.51475 12.6233C7.14018 13.2128 7.29001 14.0597 7.84372 14.4798C8.59287 15.0498 9.67425 14.7241 9.99671 13.8349C10.368 12.8122 9.42019 11.7503 8.36487 12.0109ZM9.04887 12.5483C9.25082 12.6395 9.37785 12.7633 9.48533 12.9816C9.66773 13.3431 9.60259 13.7112 9.30945 14.0076C8.93813 14.3756 8.38767 14.3658 8.04241 13.9815C7.39098 13.2552 8.16293 12.1542 9.04887 12.5483Z" fill="white"/>
</g>
</svg>
