<svg width="13" height="12" viewBox="0 0 13 12" fill="none" xmlns="http://www.w3.org/2000/svg">
<g id="Group">
<path id="Vector" fill-rule="evenodd" clip-rule="evenodd" d="M4.16683 6.33335H3.50016V7.00002H4.16683V6.33335ZM3.50016 5.66669C3.32335 5.66669 3.15378 5.73693 3.02876 5.86195C2.90373 5.98697 2.8335 6.15654 2.8335 6.33335V7.00002C2.8335 7.17683 2.90373 7.3464 3.02876 7.47142C3.15378 7.59645 3.32335 7.66669 3.50016 7.66669H4.16683C4.34364 7.66669 4.51321 7.59645 4.63823 7.47142C4.76326 7.3464 4.8335 7.17683 4.8335 7.00002V6.33335C4.8335 6.15654 4.76326 5.98697 4.63823 5.86195C4.51321 5.73693 4.34364 5.66669 4.16683 5.66669H3.50016ZM6.8335 6.33335H6.16683V7.00002H6.8335V6.33335ZM6.16683 5.66669C5.99002 5.66669 5.82045 5.73693 5.69543 5.86195C5.5704 5.98697 5.50016 6.15654 5.50016 6.33335V7.00002C5.50016 7.17683 5.5704 7.3464 5.69543 7.47142C5.82045 7.59645 5.99002 7.66669 6.16683 7.66669H6.8335C7.01031 7.66669 7.17988 7.59645 7.3049 7.47142C7.42992 7.3464 7.50016 7.17683 7.50016 7.00002V6.33335C7.50016 6.15654 7.42992 5.98697 7.3049 5.86195C7.17988 5.73693 7.01031 5.66669 6.8335 5.66669H6.16683ZM9.50016 6.33335H8.8335V7.00002H9.50016V6.33335ZM8.8335 5.66669C8.65669 5.66669 8.48712 5.73693 8.36209 5.86195C8.23707 5.98697 8.16683 6.15654 8.16683 6.33335V7.00002C8.16683 7.17683 8.23707 7.3464 8.36209 7.47142C8.48712 7.59645 8.65669 7.66669 8.8335 7.66669H9.50016C9.67697 7.66669 9.84654 7.59645 9.97157 7.47142C10.0966 7.3464 10.1668 7.17683 10.1668 7.00002V6.33335C10.1668 6.15654 10.0966 5.98697 9.97157 5.86195C9.84654 5.73693 9.67697 5.66669 9.50016 5.66669H8.8335ZM4.16683 9.00002H3.50016V9.66669H4.16683V9.00002ZM3.50016 8.33335C3.32335 8.33335 3.15378 8.40359 3.02876 8.52862C2.90373 8.65364 2.8335 8.82321 2.8335 9.00002V9.66669C2.8335 9.8435 2.90373 10.0131 3.02876 10.1381C3.15378 10.2631 3.32335 10.3334 3.50016 10.3334H4.16683C4.34364 10.3334 4.51321 10.2631 4.63823 10.1381C4.76326 10.0131 4.8335 9.8435 4.8335 9.66669V9.00002C4.8335 8.82321 4.76326 8.65364 4.63823 8.52862C4.51321 8.40359 4.34364 8.33335 4.16683 8.33335H3.50016ZM6.8335 9.00002H6.16683V9.66669H6.8335V9.00002ZM6.16683 8.33335C5.99002 8.33335 5.82045 8.40359 5.69543 8.52862C5.5704 8.65364 5.50016 8.82321 5.50016 9.00002V9.66669C5.50016 9.8435 5.5704 10.0131 5.69543 10.1381C5.82045 10.2631 5.99002 10.3334 6.16683 10.3334H6.8335C7.01031 10.3334 7.17988 10.2631 7.3049 10.1381C7.42992 10.0131 7.50016 9.8435 7.50016 9.66669V9.00002C7.50016 8.82321 7.42992 8.65364 7.3049 8.52862C7.17988 8.40359 7.01031 8.33335 6.8335 8.33335H6.16683ZM9.50016 9.00002H8.8335V9.66669H9.50016V9.00002ZM8.8335 8.33335C8.65669 8.33335 8.48712 8.40359 8.36209 8.52862C8.23707 8.65364 8.16683 8.82321 8.16683 9.00002V9.66669C8.16683 9.8435 8.23707 10.0131 8.36209 10.1381C8.48712 10.2631 8.65669 10.3334 8.8335 10.3334H9.50016C9.67697 10.3334 9.84654 10.2631 9.97157 10.1381C10.0966 10.0131 10.1668 9.8435 10.1668 9.66669V9.00002C10.1668 8.82321 10.0966 8.65364 9.97157 8.52862C9.84654 8.40359 9.67697 8.33335 9.50016 8.33335H8.8335Z" fill="white"/>
<path id="Vector_2" fill-rule="evenodd" clip-rule="evenodd" d="M1.8335 1.66667C1.74509 1.66667 1.66031 1.70179 1.59779 1.7643C1.53528 1.82681 1.50016 1.91159 1.50016 2V11C1.50016 11.0884 1.53528 11.1732 1.59779 11.2357C1.66031 11.2982 1.74509 11.3333 1.8335 11.3333H11.1668C11.3502 11.3333 11.5002 11.1837 11.5002 10.9993V2.00067C11.5002 1.816 11.3502 1.66667 11.1668 1.66667H10.1668V1H11.1668C11.7195 1 12.1668 1.449 12.1668 2.00067V10.9993C12.1669 11.1307 12.1411 11.2608 12.0909 11.3822C12.0407 11.5036 11.967 11.6139 11.8742 11.7069C11.7813 11.7998 11.671 11.8735 11.5497 11.9238C11.4283 11.9741 11.2982 12 11.1668 12H1.8335C1.56828 12 1.31393 11.8946 1.12639 11.7071C0.938853 11.5196 0.833496 11.2652 0.833496 11V2C0.833496 1.73478 0.938853 1.48043 1.12639 1.29289C1.31393 1.10536 1.56828 1 1.8335 1H3.50016V1.66667H1.8335ZM8.8335 1.66667H4.8335V1H8.8335V1.66667Z" fill="white"/>
<path id="Vector_3" fill-rule="evenodd" clip-rule="evenodd" d="M11.5 4.66667H1.5V4H11.5V4.66667Z" fill="white"/>
<path id="Vector_4" d="M3.5 0.333333C3.5 0.244928 3.53512 0.160143 3.59763 0.0976311C3.66014 0.035119 3.74493 0 3.83333 0C3.92174 0 4.00652 0.035119 4.06904 0.0976311C4.13155 0.160143 4.16667 0.244928 4.16667 0.333333V2.66667C4.16667 2.75507 4.13155 2.83986 4.06904 2.90237C4.00652 2.96488 3.92174 3 3.83333 3C3.74493 3 3.66014 2.96488 3.59763 2.90237C3.53512 2.83986 3.5 2.75507 3.5 2.66667V0.333333ZM8.83333 0.333333C8.83333 0.244928 8.86845 0.160143 8.93096 0.0976311C8.99348 0.035119 9.07826 0 9.16667 0C9.25507 0 9.33986 0.035119 9.40237 0.0976311C9.46488 0.160143 9.5 0.244928 9.5 0.333333V2.66667C9.5 2.75507 9.46488 2.83986 9.40237 2.90237C9.33986 2.96488 9.25507 3 9.16667 3C9.07826 3 8.99348 2.96488 8.93096 2.90237C8.86845 2.83986 8.83333 2.75507 8.83333 2.66667V0.333333Z" fill="white"/>
</g>
</svg>
