<svg width="15" height="14" viewBox="0 0 15 14" fill="none" xmlns="http://www.w3.org/2000/svg">
<g id="Group">
<path id="Vector" d="M2.30929 0.559375L2.23429 0.61875L2.21866 5.64687C2.19991 11.1812 2.21554 10.7375 2.00929 11.3906C1.84366 11.9187 1.51241 12.4875 1.11241 12.9312C0.878037 13.1906 0.849912 13.2906 0.984287 13.4219L1.05929 13.5H4.24991H7.44054L7.51554 13.4219C7.56554 13.375 7.59366 13.3094 7.59366 13.25C7.59366 13.1906 7.56554 13.125 7.51554 13.0781L7.44054 13H4.58116H1.72179L1.89366 12.7469C2.23741 12.2406 2.48116 11.6687 2.63116 11.0156L2.69991 10.7031L2.70929 5.85L2.72179 1H7.06241H11.4062L11.4124 3.43437L11.4218 5.86875L11.4968 5.95C11.5968 6.05625 11.7437 6.05937 11.8374 5.95937L11.9062 5.8875V3.25937V0.628125L11.8249 0.565625L11.7405 0.5H7.06241C2.49991 0.5 2.38116 0.5 2.30929 0.559375Z" fill="#666666"/>
<path id="Vector_2" d="M4.0375 3.71873C3.94375 3.80623 3.94375 3.99998 4.03438 4.08123C4.09688 4.13748 4.2 4.14061 7.02813 4.14998C9.075 4.15623 9.97813 4.14686 10.0344 4.12186C10.1938 4.05936 10.2313 3.85311 10.1094 3.73436L10.0344 3.65623H7.06875C4.13125 3.65623 4.10625 3.65623 4.0375 3.71873Z" fill="#666666"/>
<path id="Vector_3" d="M4.05 5.40937C3.9875 5.45937 3.96875 5.5 3.96875 5.59375C3.96875 5.6875 3.9875 5.72812 4.05 5.77812C4.13438 5.84375 4.14688 5.84375 7.08438 5.84375H10.0344L10.1094 5.76562C10.2125 5.66562 10.2125 5.52187 10.1094 5.42187L10.0344 5.34375H7.08438C4.14688 5.34375 4.13438 5.34375 4.05 5.40937Z" fill="#666666"/>
<path id="Vector_4" d="M4.05328 7.09375C3.94078 7.18125 3.93453 7.36563 4.04078 7.4625L4.11265 7.53125H5.82515H7.53453L7.60953 7.45313C7.70328 7.3625 7.70953 7.22188 7.62828 7.12188L7.5689 7.04688L5.85328 7.0375C4.15015 7.03125 4.13453 7.03125 4.05328 7.09375Z" fill="#666666"/>
<path id="Vector_5" d="M10.4219 7.06564C9.93125 7.13751 9.3375 7.37814 8.95312 7.66251C8.37812 8.09064 7.93437 8.74064 7.74687 9.42189C7.7125 9.55939 7.675 9.67814 7.66875 9.68439C7.6625 9.69064 7.59375 9.63751 7.5125 9.56251C7.3875 9.45001 7.35625 9.43439 7.27187 9.45001C7.14687 9.47501 7.0625 9.57189 7.0625 9.69689C7.0625 9.77501 7.11875 9.85001 7.4 10.1313C7.58437 10.3219 7.76562 10.4875 7.80625 10.5031C7.925 10.55 8.05625 10.4656 8.36562 10.1531C8.67187 9.84064 8.73437 9.73439 8.6875 9.61251C8.62812 9.45314 8.45 9.39376 8.31562 9.49064C8.24062 9.54064 8.24062 9.54064 8.2625 9.45001C8.30625 9.25939 8.59687 8.72501 8.77812 8.51251C9.11875 8.10314 9.67187 7.76251 10.2187 7.62189C10.5812 7.52814 11.1562 7.52814 11.5156 7.62189C11.85 7.70939 12.3437 7.95626 12.5937 8.16564C13.1094 8.59064 13.4562 9.20626 13.5625 9.87501C13.6844 10.6656 13.4187 11.5125 12.8562 12.1188C11.8437 13.2156 10.175 13.2938 9.0375 12.2969C8.92812 12.2031 8.8125 12.125 8.78125 12.125C8.5875 12.125 8.4625 12.3031 8.53437 12.4719C8.60937 12.6531 9.19687 13.0719 9.62187 13.2469C10.0656 13.4313 10.3406 13.4813 10.875 13.4813C11.2937 13.4781 11.4 13.4656 11.6719 13.3969C12.8094 13.0938 13.6875 12.2125 13.9906 11.0656C14.1031 10.6531 14.1094 9.93439 14.0094 9.53126C13.7281 8.41251 12.9281 7.54689 11.8375 7.18751C11.4312 7.05314 10.8562 7.00314 10.4219 7.06564Z" fill="#666666"/>
<path id="Vector_6" d="M10.7594 8.12499C10.7219 8.14061 10.6781 8.18124 10.6594 8.21561C10.6375 8.25624 10.625 8.64374 10.625 9.33124V10.3875L11.1031 10.8687C11.3625 11.1344 11.6187 11.3687 11.6687 11.3906C11.8625 11.475 12.0687 11.2875 11.9937 11.0937C11.9781 11.05 11.7781 10.825 11.5469 10.5937L11.1281 10.1719L11.1187 9.21249C11.1094 8.29999 11.1062 8.24999 11.0469 8.19061C10.9687 8.11561 10.85 8.08749 10.7594 8.12499Z" fill="#666666"/>
<path id="Vector_7" d="M4.10311 8.75C3.96249 8.80625 3.92186 9.04688 4.03124 9.15625C4.09061 9.21563 4.13436 9.21875 5.21561 9.21875C6.26561 9.21875 6.34061 9.21563 6.40936 9.15938C6.50624 9.08125 6.50936 8.9 6.41249 8.80313C6.34374 8.73438 6.33436 8.73438 5.25624 8.72813C4.65936 8.725 4.14061 8.73438 4.10311 8.75Z" fill="#666666"/>
</g>
</svg>
