<svg width="45" height="44" viewBox="0 0 45 44" fill="none" xmlns="http://www.w3.org/2000/svg">
<g clip-path="url(#clip0_18444_450560)">
<path d="M14.3993 -0.235927C13.6295 0.0991584 13.4213 0.506695 13.0409 2.38136C12.8779 3.17832 12.6515 4.1383 12.5337 4.50961C12.0447 6.07636 10.9217 7.38047 9.41834 8.13215C8.78439 8.44913 8.26818 8.59403 6.47502 8.94723C4.98072 9.24609 4.53696 9.4091 4.19282 9.78041C3.51359 10.514 3.57699 11.8634 4.32866 12.4973C4.69092 12.8052 4.89016 12.8596 6.79199 13.249C9.16476 13.738 10.0342 14.1456 11.139 15.2867C12.1805 16.3553 12.5428 17.2429 13.0952 20.0141C13.3669 21.3997 13.5571 21.8163 14.0914 22.1967C14.9337 22.7853 16.2106 22.5318 16.7178 21.6624C16.8808 21.3907 17.0438 20.7929 17.2612 19.7515C17.4332 18.9092 17.6596 17.9674 17.7592 17.6413C18.3207 15.8753 19.7788 14.3448 21.4905 13.7471C21.7712 13.6475 22.7855 13.403 23.7455 13.2037C25.7832 12.7781 26.0277 12.6603 26.399 11.8905C26.6888 11.3019 26.6798 10.7404 26.3809 10.1608C26.0639 9.53589 25.6655 9.34571 23.9991 8.99251C23.175 8.82044 22.3237 8.63025 22.0972 8.57591C20.0867 8.0597 18.4475 6.55635 17.7955 4.62734C17.6868 4.2832 17.4423 3.26889 17.2612 2.38136C16.8898 0.54292 16.7268 0.189722 16.0385 -0.172533C15.5676 -0.417054 14.8793 -0.444223 14.3993 -0.235927ZM15.3955 1.06819C15.5948 1.17687 15.6944 1.45761 15.9389 2.74362C16.2378 4.25603 16.4551 5.06205 16.7449 5.72316C17.6325 7.68839 19.4437 9.25514 21.5086 9.84381C21.7984 9.93437 24.8594 10.5774 24.9591 10.5774C24.9772 10.5774 25.0587 10.677 25.1311 10.7947C25.3304 11.0936 25.1855 11.4377 24.796 11.5555C24.633 11.6098 23.9629 11.7547 23.3108 11.8905C21.898 12.1713 21.1463 12.3796 20.4671 12.6784C18.5109 13.5569 16.9442 15.3772 16.3646 17.4602C16.2921 17.7319 16.0929 18.6104 15.9299 19.4073C15.5676 21.1371 15.3684 21.436 14.8612 21.0103C14.7163 20.8926 14.6076 20.5213 14.3541 19.3168C14.182 18.4655 13.9465 17.5145 13.8469 17.1976C13.3397 15.6037 12.253 14.1637 10.8674 13.2581C9.78965 12.5517 8.9293 12.2528 6.61087 11.8C5.34298 11.5464 5.07129 11.4196 5.07129 11.0664C5.07129 10.8943 5.27958 10.5774 5.38826 10.5774C5.59656 10.5774 8.61232 9.89814 9.05608 9.75324C10.9398 9.13741 12.5337 7.76084 13.4303 6.00391C13.7835 5.30657 14.0009 4.55489 14.3088 2.99719C14.6439 1.28554 14.6439 1.28554 14.8159 1.11347C14.9789 0.959513 15.1601 0.9414 15.3955 1.06819Z" fill="white"/>
<path d="M33.8705 -0.0185757C33.7075 0.144439 33.6894 0.280284 33.6894 1.36705C33.6894 2.51721 33.6984 2.58966 33.8977 2.77078C34.1965 3.05153 34.6222 3.03342 34.8577 2.73456C35.0297 2.51721 35.0478 2.3723 35.0478 1.38516C35.0478 0.398017 35.0297 0.253115 34.8577 0.0357625C34.6222 -0.263098 34.1422 -0.290267 33.8705 -0.0185757Z" fill="white"/>
<path d="M30.4291 3.42284C30.1846 3.66736 30.1936 4.15641 30.4382 4.38282C30.6102 4.53677 30.7732 4.55489 31.8328 4.55489C32.8924 4.55489 33.0554 4.53677 33.2275 4.38282C33.472 4.15641 33.4811 3.66736 33.2366 3.42284C33.0736 3.25983 32.9377 3.24171 31.8328 3.24171C30.728 3.24171 30.5921 3.25983 30.4291 3.42284Z" fill="white"/>
<path d="M35.4192 3.47718C35.2018 3.74887 35.1837 3.86661 35.3286 4.17452C35.4825 4.51866 35.7814 4.60017 36.8591 4.60017C37.9368 4.60017 38.2357 4.51866 38.3896 4.17452C38.5345 3.86661 38.5164 3.74887 38.2991 3.47718C38.1179 3.24172 38.1089 3.24172 36.8591 3.24172C35.6093 3.24172 35.6003 3.24172 35.4192 3.47718Z" fill="white"/>
<path d="M33.9249 4.97148C33.6894 5.15261 33.6894 5.17072 33.6894 6.32994C33.6894 6.99105 33.7347 7.58877 33.789 7.68839C33.9249 7.95102 34.3052 8.06876 34.6041 7.95102C34.9845 7.78801 35.066 7.46198 35.0297 6.23032C35.0026 5.19789 34.9845 5.11638 34.7852 4.95337C34.5135 4.72696 34.2237 4.73602 33.9249 4.97148Z" fill="white"/>
<path d="M35.5459 12.1713C34.8758 12.5154 34.758 12.7509 34.4139 14.4263C33.9973 16.4187 33.7166 17.0074 32.7566 17.8859C32.0502 18.5198 31.4162 18.7915 29.7861 19.1356C27.9477 19.5251 27.7031 19.6518 27.3952 20.3854C27.2141 20.8201 27.2232 21.2277 27.4314 21.6895C27.7031 22.2782 28.0926 22.4684 29.7046 22.8035C31.7242 23.211 32.5573 23.6457 33.3724 24.7325C33.8796 25.4026 34.0969 25.9913 34.423 27.6033C34.7309 29.1157 34.912 29.4689 35.5459 29.7769C36.2614 30.121 37.167 29.8674 37.5746 29.2063C37.6651 29.0433 37.8734 28.3188 38.0274 27.5852C38.453 25.5475 38.6704 25.0676 39.5489 24.2072C40.2734 23.4827 41.0522 23.1385 42.6914 22.8035C44.2763 22.4774 44.5842 22.3506 44.8921 21.8888C45.4174 21.0918 45.1638 19.996 44.3578 19.5794C44.2038 19.4979 43.4431 19.2986 42.6643 19.1356C41.0341 18.7915 40.4002 18.5198 39.6938 17.8859C38.7338 17.0074 38.4259 16.3644 38.0364 14.4082C37.7648 13.086 37.638 12.7237 37.3482 12.4702C36.841 12.0264 36.0622 11.8996 35.5459 12.1713ZM36.3791 13.4935C36.4244 13.5569 36.5784 14.1546 36.7142 14.8248C36.8501 15.495 37.0765 16.3553 37.2304 16.7266C37.7195 17.9945 38.8334 19.199 40.056 19.7967C40.7262 20.1137 41.2786 20.2767 42.6099 20.5394C44.2401 20.8563 44.2401 21.0737 42.619 21.4088C40.3911 21.8616 39.6123 22.2148 38.5708 23.2563C37.484 24.334 37.1127 25.14 36.678 27.2864C36.4516 28.4003 36.4335 28.4637 36.2252 28.4637C36.0259 28.4637 35.9988 28.4003 35.7633 27.2682C35.4554 25.7739 35.2924 25.2668 34.8848 24.5242C34.269 23.3921 32.8381 22.2148 31.6245 21.8344C31.3891 21.762 30.6555 21.5899 29.9853 21.445C29.3242 21.3092 28.7356 21.1461 28.6812 21.0918C28.491 20.9016 28.8261 20.7386 29.8404 20.5394C30.3929 20.4307 31.063 20.2858 31.3347 20.2043C32.1679 19.9688 33.2003 19.3802 33.8162 18.7824C34.8667 17.7681 35.3286 16.8172 35.7271 14.8339C35.9625 13.6837 36.0622 13.3848 36.2252 13.3848C36.2614 13.3848 36.3339 13.4392 36.3791 13.4935Z" fill="white"/>
<path d="M2.49023 26.9241C2.27287 27.1324 2.26382 27.1958 2.26382 28.2282C2.26382 28.8441 2.3091 29.4146 2.36344 29.5414C2.57174 30.0033 3.29624 30.0395 3.52265 29.6048C3.57699 29.5052 3.62227 28.9074 3.62227 28.2463C3.62227 27.0871 3.62227 27.069 3.38681 26.8879C3.06983 26.6343 2.76192 26.6524 2.49023 26.9241Z" fill="white"/>
<path d="M19.9328 28.9437C19.4981 29.161 19.3169 29.4418 19.1268 30.2297C18.9185 31.0448 18.7554 31.3889 18.3207 31.8689C17.9313 32.3036 17.3064 32.6387 16.6453 32.7745C15.5767 33.0009 15.1238 33.4356 15.1238 34.2326C15.1238 35.0386 15.5495 35.4643 16.6 35.6997C17.3789 35.8808 17.8045 36.0982 18.2664 36.5601C18.7011 37.0038 18.9366 37.4657 19.1449 38.3442C19.4075 39.4038 20.0596 39.8838 20.929 39.6483C21.5358 39.4853 21.8256 39.0868 22.0248 38.154C22.1516 37.5382 22.4595 36.9586 22.8851 36.542C23.3199 36.0982 23.7455 35.8808 24.5153 35.6997C25.5658 35.4552 26.0096 35.0386 26.0096 34.2688C26.0096 33.4719 25.593 33.0372 24.624 32.8107C23.7908 32.6206 23.2021 32.3217 22.7946 31.8689C22.3599 31.3889 22.215 31.09 22.0067 30.2568C21.9161 29.8674 21.7531 29.4508 21.6625 29.324C21.4452 29.0252 20.9471 28.7807 20.5577 28.7807C20.3856 28.7807 20.1048 28.8531 19.9328 28.9437ZM20.7297 30.8183C21.0829 32.4123 22.3508 33.662 24.0353 34.0877L24.6511 34.2416L24.0081 34.4047C23.1387 34.6311 22.5229 34.9662 21.9071 35.582C21.3365 36.1435 20.9109 36.8952 20.7297 37.6831C20.6573 37.9638 20.5848 38.1993 20.5577 38.1993C20.5305 38.1993 20.458 37.9819 20.4037 37.7193C20.2407 36.9314 19.8422 36.2069 19.2445 35.6182C18.6015 34.9752 17.9947 34.6311 17.1072 34.4047L16.4642 34.2416L17.08 34.0877C18.7554 33.662 20.0233 32.4213 20.3856 30.8365C20.458 30.5557 20.5305 30.3202 20.5667 30.3202C20.5939 30.3202 20.6663 30.5467 20.7297 30.8183Z" fill="white"/>
<path d="M-0.951194 30.3655C-1.22288 30.6372 -1.241 30.9451 -0.987419 31.2621C-0.806292 31.4976 -0.788179 31.4976 0.371035 31.4976C1.03215 31.4976 1.62987 31.4523 1.72949 31.398C2.16419 31.1715 2.12797 30.447 1.6661 30.2387C1.53931 30.1844 0.968755 30.1391 0.352922 30.1391C-0.679503 30.1391 -0.742897 30.1482 -0.951194 30.3655Z" fill="white"/>
<path d="M4.12942 30.3293C3.83056 30.5648 3.80339 31.0448 4.07508 31.3164C4.2381 31.4795 4.37394 31.4976 5.46071 31.4976C6.61087 31.4976 6.68332 31.4885 6.86444 31.2893C7.14519 30.9904 7.12708 30.5648 6.82822 30.3293C6.61087 30.1572 6.46596 30.1391 5.47882 30.1391C4.49168 30.1391 4.34677 30.1572 4.12942 30.3293Z" fill="white"/>
<path d="M2.454 32.0047C2.28193 32.2221 2.26382 32.367 2.26382 33.3541C2.26382 34.3413 2.28193 34.4862 2.454 34.7035C2.69852 35.0114 3.15134 35.0296 3.42303 34.7307C3.60416 34.5405 3.62227 34.4228 3.62227 33.327C3.62227 32.2492 3.60416 32.1134 3.44115 31.9504C3.16945 31.6787 2.68947 31.7059 2.454 32.0047Z" fill="white"/>
<path d="M33.8343 35.582C33.5988 35.7631 33.5988 35.7812 33.5988 36.9404C33.5988 37.6016 33.6441 38.1993 33.6984 38.2989C33.8343 38.5615 34.2147 38.6793 34.5135 38.5615C34.8939 38.3985 34.9754 38.0725 34.9392 36.8408C34.912 35.8084 34.8939 35.7269 34.6946 35.5639C34.423 35.3375 34.1331 35.3465 33.8343 35.582Z" fill="white"/>
<path d="M30.3929 39.0234C30.085 39.2679 30.0668 39.7207 30.3657 39.9924C30.5559 40.1736 30.6736 40.1917 31.7513 40.1917C32.8109 40.1917 32.9468 40.1736 33.1279 40.0106C33.4177 39.7389 33.3996 39.2679 33.0917 39.0234C32.8743 38.8513 32.7294 38.8332 31.7423 38.8332C30.7551 38.8332 30.6102 38.8513 30.3929 39.0234Z" fill="white"/>
<path d="M35.401 39.0053C35.2471 39.123 35.1927 39.2679 35.1927 39.5125C35.1927 40.1011 35.401 40.1917 36.7867 40.1917C37.9097 40.1917 37.964 40.1826 38.1723 39.9653C38.2991 39.8475 38.3987 39.6392 38.3987 39.5125C38.3987 39.3857 38.2991 39.1774 38.1723 39.0596C37.964 38.8423 37.9097 38.8332 36.7867 38.8332C35.7724 38.8332 35.5822 38.8604 35.401 39.0053Z" fill="white"/>
<path d="M33.9882 40.5087C33.8343 40.572 33.6894 40.6898 33.6532 40.7803C33.626 40.8619 33.5988 41.4505 33.5988 42.0845C33.5988 43.1712 33.6079 43.2527 33.8071 43.4339C34.0879 43.6965 34.4592 43.6874 34.7309 43.4067C34.9482 43.1984 34.9573 43.135 34.9573 42.0663C34.9573 41.0792 34.9392 40.9162 34.7762 40.7169C34.5497 40.4271 34.3324 40.3638 33.9882 40.5087Z" fill="white"/>
</g>
<defs>
<clipPath id="clip0_18444_450560">
<rect width="44" height="44" fill="white" transform="translate(0.666504)"/>
</clipPath>
</defs>
</svg>
