<svg width="24" height="25" viewBox="0 0 24 25" fill="none" xmlns="http://www.w3.org/2000/svg">
<g id="icon / mail">
<g id="Vector">
<path d="M21.75 18.25V6.75C21.75 6.48478 21.6446 6.23043 21.4571 6.04289C21.2696 5.85536 21.0152 5.75 20.75 5.75H3.25C2.98478 5.75 2.73043 5.85536 2.54289 6.04289C2.35536 6.23043 2.25 6.48478 2.25 6.75V18.25C2.25 18.5152 2.35536 18.7696 2.54289 18.9571C2.73043 19.1446 2.98478 19.25 3.25 19.25H20.75C21.0152 19.25 21.2696 19.1446 21.4571 18.9571C21.6446 18.7696 21.75 18.5152 21.75 18.25Z" fill="white"/>
<path d="M21.75 7.9905L12 12.5L2.25 7.9905" fill="white"/>
<path d="M21.75 7.9905L12 12.5L2.25 7.9905M21.75 18.25V6.75C21.75 6.48478 21.6446 6.23043 21.4571 6.04289C21.2696 5.85536 21.0152 5.75 20.75 5.75H3.25C2.98478 5.75 2.73043 5.85536 2.54289 6.04289C2.35536 6.23043 2.25 6.48478 2.25 6.75V18.25C2.25 18.5152 2.35536 18.7696 2.54289 18.9571C2.73043 19.1446 2.98478 19.25 3.25 19.25H20.75C21.0152 19.25 21.2696 19.1446 21.4571 18.9571C21.6446 18.7696 21.75 18.5152 21.75 18.25Z" stroke="#74BC1F" stroke-width="1.125" stroke-linecap="round" stroke-linejoin="round"/>
</g>
</g>
</svg>
