<svg width="24" height="25" viewBox="0 0 24 25" fill="none" xmlns="http://www.w3.org/2000/svg">
<g id="icon / no edit">
<path id="Vector" d="M9.23782 10.6477L2.19839 3.60269C2.13715 3.54558 2.08803 3.47671 2.05396 3.40019C2.01989 3.32367 2.00157 3.24106 2.0001 3.1573C1.99862 3.07354 2.01402 2.99034 2.04537 2.91266C2.07672 2.83498 2.12338 2.76442 2.18257 2.70519C2.24176 2.64595 2.31226 2.59925 2.38988 2.56787C2.46749 2.5365 2.55063 2.52109 2.63432 2.52257C2.71802 2.52405 2.80056 2.54238 2.87702 2.57648C2.95348 2.61057 3.02229 2.65973 3.07936 2.72102L21.7792 21.4357C21.8893 21.5539 21.9492 21.7103 21.9464 21.872C21.9435 22.0336 21.8781 22.1878 21.7639 22.3021C21.6497 22.4163 21.4956 22.4818 21.3341 22.4847C21.1726 22.4875 21.0163 22.4275 20.8982 22.3173L13.8588 15.2723L8.71672 20.4184C8.35104 20.7844 7.89643 21.0506 7.39777 21.1903L2.80676 22.477C2.70031 22.5068 2.58789 22.5076 2.48099 22.4796C2.3741 22.4515 2.27659 22.3955 2.19845 22.3173C2.1203 22.2391 2.06434 22.1415 2.03629 22.0345C2.00824 21.9275 2.00911 21.815 2.03882 21.7085L3.32453 17.113C3.46416 16.6139 3.72928 16.1598 4.0958 15.7938L9.23782 10.6477ZM12.9778 14.3906L10.1188 11.5294L4.97677 16.6755C4.76141 16.8896 4.60557 17.1562 4.52465 17.449L3.53813 20.9765L7.062 19.9892C7.35413 19.9072 7.62029 19.7514 7.83492 19.5368L12.9778 14.3906ZM10.9998 8.88272L16.3853 3.49456C16.687 3.18302 17.0475 2.93465 17.446 2.76392C17.8445 2.59319 18.273 2.50351 18.7064 2.5001C19.1399 2.49669 19.5697 2.57962 19.9708 2.74405C20.3719 2.90849 20.7363 3.15115 21.0429 3.4579C21.3494 3.76466 21.5918 4.12937 21.7561 4.53082C21.9204 4.93226 22.0033 5.36241 21.9999 5.79621C21.9965 6.23001 21.9069 6.6588 21.7363 7.0576C21.5657 7.45641 21.3175 7.81727 21.0062 8.11916L15.6232 13.5081L14.7414 12.6265L17.9644 9.39924L15.1054 6.53881L11.8832 9.76522L10.9998 8.88272ZM17.2663 4.37623L15.9864 5.65714L18.8454 8.5184L20.1244 7.23749C20.5036 6.85806 20.7165 6.34345 20.7165 5.80686C20.7165 5.27027 20.5036 4.75566 20.1244 4.37623C19.7453 3.9968 19.2311 3.78364 18.6949 3.78364C18.1588 3.78364 17.6454 3.9968 17.2663 4.37623Z" fill="#B3B3B3"/>
</g>
</svg>
