<svg width="24" height="24" viewBox="0 0 24 24" fill="none" xmlns="http://www.w3.org/2000/svg">
<g clip-path="url(#clip0_18444_215851)">
<path d="M2.21405 0.339062L2.10155 0.428124L2.07812 7.97031C2.04999 16.2719 2.07343 15.6062 1.76405 16.5859C1.51562 17.3781 1.01874 18.2312 0.418741 18.8969C0.0671781 19.2859 0.0249905 19.4359 0.226553 19.6328L0.339053 19.75H5.12499H9.91093L10.0234 19.6328C10.0984 19.5625 10.1406 19.4641 10.1406 19.375C10.1406 19.2859 10.0984 19.1875 10.0234 19.1172L9.91093 19H5.62187H1.3328L1.59062 18.6203C2.10624 17.8609 2.47187 17.0031 2.69687 16.0234L2.79999 15.5547L2.81405 8.275L2.8328 0.999999H9.34374H15.8594L15.8687 4.65156L15.8828 8.30312L15.9953 8.425C16.1453 8.58437 16.3656 8.58906 16.5062 8.43906L16.6094 8.33125V4.38906V0.442187L16.4875 0.348437L16.3609 0.249999H9.34374C2.49999 0.249999 2.32187 0.249999 2.21405 0.339062Z" fill="#1E1E1E"/>
<path d="M4.80623 5.07813C4.6656 5.20938 4.6656 5.5 4.80154 5.62188C4.89529 5.70625 5.04998 5.71094 9.29216 5.725C12.3625 5.73438 13.7172 5.72031 13.8015 5.68281C14.0406 5.58906 14.0969 5.27969 13.914 5.10156L13.8015 4.98438H9.3531C4.94685 4.98438 4.90935 4.98438 4.80623 5.07813Z" fill="#1E1E1E"/>
<path d="M4.825 7.61406C4.73125 7.68906 4.70312 7.75 4.70312 7.89062C4.70312 8.03125 4.73125 8.09219 4.825 8.16719C4.95156 8.26562 4.97031 8.26562 9.37656 8.26562H13.8016L13.9141 8.14844C14.0688 7.99844 14.0688 7.78281 13.9141 7.63281L13.8016 7.51562H9.37656C4.97031 7.51562 4.95156 7.51562 4.825 7.61406Z" fill="#1E1E1E"/>
<path d="M4.82967 10.1406C4.66092 10.2719 4.65154 10.5484 4.81092 10.6938L4.91873 10.7969H7.48748H10.0515L10.164 10.6797C10.3047 10.5438 10.314 10.3328 10.1922 10.1828L10.1031 10.0703L7.52967 10.0563C4.97498 10.0469 4.95154 10.0469 4.82967 10.1406Z" fill="#1E1E1E"/>
<path d="M4.90467 12.625C4.69373 12.7094 4.6328 13.0703 4.79686 13.2344C4.88592 13.3234 4.95155 13.3281 6.57342 13.3281C8.14842 13.3281 8.26092 13.3234 8.36405 13.2391C8.50936 13.1219 8.51405 12.85 8.36873 12.7047C8.26561 12.6016 8.25155 12.6016 6.63436 12.5922C5.73905 12.5875 4.96092 12.6016 4.90467 12.625Z" fill="#1E1E1E"/>
<path d="M15.3869 11.0385C12.9713 11.4313 11.1671 13.3955 11.012 15.7981C10.9511 16.7635 11.1215 17.61 11.5444 18.4688C12.7948 21.0024 15.8585 22.0469 18.4202 20.8136C18.7792 20.64 19.1626 20.3964 19.4303 20.1649L19.5946 20.0279L21.5782 22.0103C23.0812 23.5177 23.5771 23.9958 23.6349 23.9988C23.7901 24.0049 23.8357 23.9897 23.9179 23.9014C23.9757 23.8374 24 23.7796 24 23.7004C24 23.5908 23.93 23.5146 22.0224 21.6053C20.9363 20.5151 20.0449 19.6137 20.0449 19.6016C20.0449 19.5894 20.1057 19.5041 20.1818 19.4128C20.5438 18.9682 20.8967 18.3135 21.0762 17.7623C21.2618 17.1959 21.3075 16.8639 21.3044 16.1392C21.3044 15.3962 21.2618 15.1312 21.0489 14.4917C20.4738 12.759 19.0013 11.4618 17.1759 11.0811C16.7743 10.9959 15.7855 10.9715 15.3869 11.0385ZM17.0633 11.678C17.7996 11.8424 18.4111 12.1256 18.9618 12.5581C19.8684 13.2706 20.4617 14.2694 20.6564 15.4114C20.7112 15.7342 20.7172 15.8651 20.7051 16.3067C20.6807 17.0132 20.556 17.5369 20.27 18.1368C19.1808 20.4238 16.394 21.38 14.1274 20.2441C12.6762 19.5133 11.7391 18.1094 11.6204 16.4894C11.5231 15.1526 12.0038 13.8644 12.9561 12.9204C13.6862 12.1987 14.5412 11.7815 15.6182 11.6201C15.8342 11.5897 16.8412 11.6293 17.0633 11.678Z" fill="#1E1E1E"/>
</g>
<defs>
<clipPath id="clip0_18444_215851">
<rect width="24" height="24" fill="white"/>
</clipPath>
</defs>
</svg>
