<svg width="24" height="24" viewBox="0 0 24 24" fill="none" xmlns="http://www.w3.org/2000/svg">
<path d="M18.75 3.375H15C14.7016 3.375 14.4155 3.49353 14.2045 3.7045C13.9935 3.91548 13.875 4.20163 13.875 4.5V19.5C13.875 19.7984 13.9935 20.0845 14.2045 20.2955C14.4155 20.5065 14.7016 20.625 15 20.625H18.75C19.0484 20.625 19.3345 20.5065 19.5455 20.2955C19.7565 20.0845 19.875 19.7984 19.875 19.5V4.5C19.875 4.20163 19.7565 3.91548 19.5455 3.7045C19.3345 3.49353 19.0484 3.375 18.75 3.375ZM19.125 19.5C19.125 19.5995 19.0855 19.6948 19.0152 19.7652C18.9448 19.8355 18.8495 19.875 18.75 19.875H15C14.9005 19.875 14.8052 19.8355 14.7348 19.7652C14.6645 19.6948 14.625 19.5995 14.625 19.5V4.5C14.625 4.40054 14.6645 4.30516 14.7348 4.23484C14.8052 4.16451 14.9005 4.125 15 4.125H18.75C18.8495 4.125 18.9448 4.16451 19.0152 4.23484C19.0855 4.30516 19.125 4.40054 19.125 4.5V19.5ZM9 3.375H5.25C4.95163 3.375 4.66548 3.49353 4.4545 3.7045C4.24353 3.91548 4.125 4.20163 4.125 4.5V19.5C4.125 19.7984 4.24353 20.0845 4.4545 20.2955C4.66548 20.5065 4.95163 20.625 5.25 20.625H9C9.29837 20.625 9.58452 20.5065 9.7955 20.2955C10.0065 20.0845 10.125 19.7984 10.125 19.5V4.5C10.125 4.20163 10.0065 3.91548 9.7955 3.7045C9.58452 3.49353 9.29837 3.375 9 3.375ZM9.375 19.5C9.375 19.5995 9.33549 19.6948 9.26517 19.7652C9.19484 19.8355 9.09946 19.875 9 19.875H5.25C5.15054 19.875 5.05516 19.8355 4.98484 19.7652C4.91451 19.6948 4.875 19.5995 4.875 19.5V4.5C4.875 4.40054 4.91451 4.30516 4.98484 4.23484C5.05516 4.16451 5.15054 4.125 5.25 4.125H9C9.09946 4.125 9.19484 4.16451 9.26517 4.23484C9.33549 4.30516 9.375 4.40054 9.375 4.5V19.5Z" fill="#FEAC4A"/>
</svg>
