<svg width="24" height="25" viewBox="0 0 24 25" fill="none" xmlns="http://www.w3.org/2000/svg">
<g id="icon / phone">
<path id="Vector" d="M10.125 18.5C10.0255 18.5 9.93016 18.5395 9.85983 18.6098C9.78951 18.6802 9.75 18.7755 9.75 18.875C9.75 18.9745 9.78951 19.0698 9.85983 19.1402C9.93016 19.2105 10.0255 19.25 10.125 19.25H13.875C13.9745 19.25 14.0698 19.2105 14.1402 19.1402C14.2105 19.0698 14.25 18.9745 14.25 18.875C14.25 18.7755 14.2105 18.6802 14.1402 18.6098C14.0698 18.5395 13.9745 18.5 13.875 18.5H10.125ZM7.6875 2C7.04103 2 6.42105 2.25681 5.96393 2.71393C5.50681 3.17105 5.25 3.79103 5.25 4.4375V20.5625C5.25 21.209 5.50681 21.829 5.96393 22.2861C6.42105 22.7432 7.04103 23 7.6875 23H16.3125C16.959 23 17.579 22.7432 18.0361 22.2861C18.4932 21.829 18.75 21.209 18.75 20.5625V4.4375C18.75 3.79103 18.4932 3.17105 18.0361 2.71393C17.579 2.25681 16.959 2 16.3125 2H7.6875ZM6 4.4375C6 3.98995 6.17779 3.56072 6.49426 3.24426C6.81073 2.92779 7.23995 2.75 7.6875 2.75H16.3125C16.7601 2.75 17.1893 2.92779 17.5057 3.24426C17.8222 3.56072 18 3.98995 18 4.4375V20.5625C18 21.0101 17.8222 21.4393 17.5057 21.7557C17.1893 22.0722 16.7601 22.25 16.3125 22.25H7.6875C7.23995 22.25 6.81073 22.0722 6.49426 21.7557C6.17779 21.4393 6 21.0101 6 20.5625V4.4375Z" fill="#74BC1F"/>
</g>
</svg>
