<svg width="24" height="24" viewBox="0 0 24 24" fill="none" xmlns="http://www.w3.org/2000/svg">
<path d="M21.5925 11.0531L8.08502 2.79281C7.91436 2.68694 7.71831 2.62906 7.51751 2.62527C7.31672 2.62147 7.11862 2.6719 6.94408 2.77125C6.77081 2.86647 6.62647 3.00672 6.52631 3.17718C6.42615 3.34764 6.37388 3.54198 6.37502 3.73969V20.2603C6.37388 20.458 6.42615 20.6524 6.52631 20.8228C6.62647 20.9933 6.77081 21.1335 6.94408 21.2288C7.11862 21.3281 7.31672 21.3785 7.51751 21.3747C7.71831 21.3709 7.91436 21.3131 8.08502 21.2072L21.5925 12.9469C21.7551 12.848 21.8895 12.709 21.9827 12.5432C22.076 12.3773 22.125 12.1903 22.125 12C22.125 11.8097 22.076 11.6227 21.9827 11.4568C21.8895 11.291 21.7551 11.152 21.5925 11.0531ZM21.2006 12.3066L7.69314 20.5678C7.63595 20.603 7.57038 20.6221 7.50326 20.6233C7.43614 20.6244 7.36995 20.6075 7.31158 20.5744C7.25465 20.5441 7.20709 20.4988 7.17404 20.4435C7.14099 20.3881 7.12372 20.3248 7.12408 20.2603V3.73969C7.12372 3.67522 7.14099 3.61187 7.17404 3.55651C7.20709 3.50116 7.25465 3.45589 7.31158 3.42563C7.36995 3.39247 7.43614 3.37559 7.50326 3.37674C7.57038 3.37789 7.63595 3.39704 7.69314 3.43219L21.2006 11.6934C21.2539 11.725 21.298 11.7698 21.3287 11.8236C21.3593 11.8773 21.3754 11.9381 21.3754 12C21.3754 12.0619 21.3593 12.1227 21.3287 12.1764C21.298 12.2302 21.2539 12.275 21.2006 12.3066Z" fill="#74BC1F"/>
</svg>
