<svg width="25" height="24" viewBox="0 0 25 24" fill="none" xmlns="http://www.w3.org/2000/svg">
<g id="icon / plus">
<path id="Vector" d="M13.1191 12.0625H12.6191V12.5625V20.25C12.6191 20.2666 12.6126 20.2825 12.6008 20.2942L12.9544 20.6477L12.6008 20.2942C12.5891 20.3059 12.5732 20.3125 12.5566 20.3125C12.5401 20.3125 12.5242 20.3059 12.5124 20.2942L12.1589 20.6477L12.5124 20.2942C12.5007 20.2825 12.4941 20.2666 12.4941 20.25V12.5625V12.0625H11.9941H4.30664C4.29006 12.0625 4.27417 12.0559 4.26245 12.0442C4.25073 12.0325 4.24414 12.0166 4.24414 12C4.24414 11.9834 4.25073 11.9675 4.26245 11.9558C4.27417 11.9441 4.29006 11.9375 4.30664 11.9375H11.9941H12.4941V11.4375V3.75C12.4941 3.73342 12.5007 3.71753 12.5124 3.70581C12.5242 3.69408 12.5401 3.6875 12.5566 3.6875C12.5732 3.6875 12.5891 3.69409 12.6008 3.70581C12.6126 3.71753 12.6191 3.73342 12.6191 3.75V11.4375V11.9375H13.1191H20.8066C20.8232 11.9375 20.8391 11.9441 20.8508 11.9558L21.2044 11.6023L20.8508 11.9558C20.8626 11.9675 20.8691 11.9834 20.8691 12C20.8691 12.0166 20.8626 12.0325 20.8508 12.0442L21.2044 12.3977L20.8508 12.0442C20.8391 12.0559 20.8232 12.0625 20.8066 12.0625H13.1191Z" fill="black" stroke="#CCCCCC"/>
</g>
</svg>
