<svg width="14" height="14" viewBox="0 0 14 14" fill="none" xmlns="http://www.w3.org/2000/svg">
<path d="M6.62536 1.2405C6.4437 1.30459 6.24412 1.4379 6.14177 1.56352C6.03687 1.69427 0.561362 11.1849 0.497396 11.3541C0.428313 11.531 0.430871 11.9361 0.502514 12.1283C0.615094 12.4309 0.883752 12.6898 1.18311 12.7821C1.34687 12.8334 1.40828 12.8334 6.97334 12.8334C12.5384 12.8334 12.5998 12.8334 12.7636 12.7821C13.2932 12.618 13.6258 12.0155 13.4877 11.4746C13.4544 11.3439 13.2216 10.9209 12.367 9.43651C11.7734 8.40848 11.2565 7.5112 11.2156 7.44711C11.1004 7.25484 10.9162 7.22151 10.7832 7.36251C10.6527 7.50095 10.6348 7.45993 11.8348 9.53905C12.4437 10.5953 12.9606 11.5131 12.9785 11.5772C13.0655 11.8566 12.9145 12.1642 12.6356 12.2822C12.5 12.3386 1.44665 12.3386 1.31105 12.2822C1.03215 12.1642 0.881194 11.8566 0.968188 11.5772C1.01424 11.4259 6.4437 2.0019 6.5486 1.89167C6.66886 1.76092 6.79423 1.70708 6.97334 1.70708C7.15244 1.70708 7.27781 1.76092 7.39807 1.89167C7.44157 1.93781 7.98144 2.85304 8.59808 3.92465C9.29659 5.14238 9.74947 5.90635 9.80576 5.96019C9.88508 6.03453 9.90811 6.04479 9.98998 6.02941C10.1256 6.0089 10.2331 5.88072 10.2151 5.76535C10.2049 5.71408 9.70341 4.8168 9.04072 3.66315C7.77163 1.45585 7.76908 1.45328 7.44924 1.29434C7.28805 1.21743 7.24711 1.20717 7.01427 1.19948C6.8147 1.19435 6.72515 1.20461 6.62536 1.2405Z" fill="#EC7D7D"/>
<path d="M6.71236 5.02702C6.44882 5.12444 6.23901 5.36286 6.18272 5.62948C6.15969 5.73203 6.15457 6.12427 6.15969 7.03949L6.16737 8.3085L6.23389 8.45207C6.37462 8.75202 6.64328 8.92378 6.97334 8.92378C7.30341 8.92378 7.57207 8.75202 7.71279 8.45207L7.77932 8.3085L7.78699 7.03949C7.79211 6.12427 7.78699 5.73203 7.76396 5.62948C7.70512 5.35774 7.49531 5.12188 7.22665 5.02702C7.09616 4.98088 6.83773 4.98088 6.71236 5.02702ZM7.11407 5.54232C7.28294 5.62179 7.28294 5.6141 7.27526 6.99848L7.26759 8.24441L7.18315 8.32645C7.11151 8.39823 7.08336 8.41105 6.97334 8.41105C6.86332 8.41105 6.83517 8.39823 6.76353 8.32645L6.6791 8.24441L6.67142 6.99848C6.66375 5.61923 6.66375 5.62436 6.8275 5.54232C6.9324 5.49105 7.00916 5.49105 7.11407 5.54232Z" fill="#EC7D7D"/>
<path d="M10.3482 6.57547C10.1896 6.73442 10.2945 6.98822 10.5196 6.98822C10.7473 6.98822 10.8548 6.73186 10.6911 6.56778C10.5964 6.47036 10.448 6.47549 10.3482 6.57547Z" fill="#EC7D7D"/>
<path d="M6.72514 9.59801C6.44625 9.698 6.2697 9.88514 6.18782 10.1646C6.08292 10.5337 6.27738 10.9439 6.63815 11.1131C6.75328 11.167 6.81981 11.1798 6.97333 11.1798C7.30339 11.1798 7.57205 11.008 7.71278 10.7081C7.85094 10.4133 7.78186 10.0313 7.54902 9.79542C7.33922 9.58776 6.98868 9.50316 6.72514 9.59801ZM7.14732 10.1313C7.22919 10.1851 7.28804 10.3338 7.27013 10.4363C7.2599 10.4799 7.21896 10.5517 7.17546 10.5927C7.1115 10.6542 7.07567 10.6671 6.97333 10.6671C6.87098 10.6671 6.83516 10.6542 6.7712 10.5927C6.66885 10.4927 6.64582 10.3774 6.70723 10.2517C6.79166 10.08 6.98612 10.0261 7.14732 10.1313Z" fill="#EC7D7D"/>
</svg>
