<svg width="26" height="26" viewBox="0 0 26 26" fill="none" xmlns="http://www.w3.org/2000/svg">
<g id="Group">
<g id="Vector">
<mask id="path-1-inside-1_11789_9240" fill="white">
<path d="M4.80139 0.686178C4.20849 0.851416 3.69334 1.25479 3.44548 1.73591C3.29483 2.03237 2.72622 3.55837 2.6436 3.88398C2.55127 4.26791 2.60959 4.85596 2.78454 5.23989L2.93034 5.5655L1.86116 5.58008L0.79199 5.59466L0.675353 5.73073L0.558716 5.86681V7.36365V8.8605L0.685073 8.99171C0.826009 9.12779 0.928067 9.14723 1.10788 9.06461C1.31686 8.96741 1.3363 8.84592 1.3363 7.56291V6.34794H2.64846H3.96063L5.61785 6.80477C6.52665 7.05748 7.28479 7.27132 7.29451 7.2859C7.30909 7.30048 7.10011 7.67955 6.82796 8.13152C6.56067 8.57862 6.13786 9.34649 5.89486 9.83247L5.45261 10.7218H3.39203H1.3363V10.4788C1.3363 10.2115 1.2391 9.97341 1.1176 9.92481C0.957226 9.86649 0.79685 9.90051 0.680213 10.0171C0.563576 10.1289 0.558716 10.1629 0.558716 10.6878C0.558716 11.2224 0.563576 11.2467 0.685073 11.3731C0.816289 11.4994 0.821149 11.4994 1.55985 11.4994H2.30827V18.347V25.1897L2.41033 25.3209L2.50753 25.4473H13H23.4925L23.5897 25.3209C23.6869 25.1994 23.6917 25.1314 23.6917 24.0039C23.6917 22.7986 23.6772 22.6771 23.5022 22.5459C23.405 22.4682 23.2009 22.4682 23.1037 22.5459C22.9336 22.6771 22.9142 22.8084 22.9142 23.7657V24.7183H19.0992H15.2842V18.2546C15.2842 14.6972 15.2939 11.791 15.3085 11.791C15.3425 11.791 15.7361 12.588 15.9791 13.1566C16.6644 14.7653 17.1163 16.301 17.3982 17.9582C17.4905 18.5025 17.5197 18.5608 17.7092 18.6434C17.8259 18.6872 17.8793 18.6872 17.9862 18.6337C18.1466 18.5608 18.7152 17.7735 19.2741 16.8599C19.4879 16.5051 19.6775 16.2135 19.6872 16.2135C19.7455 16.2135 20.7904 17.0008 21.359 17.4722C21.6943 17.7492 22.0151 17.9922 22.0734 18.0165C22.2192 18.07 22.4039 17.9971 22.5011 17.8464C22.5788 17.7298 22.5788 17.686 22.5011 17.2243C22.3553 16.3301 22.0831 15.1395 21.8207 14.2209C21.5874 13.4191 21.4416 12.9914 20.9994 11.825L20.873 11.4994H21.8936H22.9142V16.4322C22.9142 20.7526 22.9239 21.3893 22.9871 21.5108C23.1183 21.7635 23.5022 21.7635 23.6286 21.5108C23.6772 21.4136 23.6917 20.3152 23.6917 16.4419V11.4994H24.4402C25.1789 11.4994 25.1837 11.4994 25.3149 11.3731L25.4413 11.2418V8.55432V5.86681L25.3247 5.73073L25.208 5.59466L24.1389 5.58008L23.0697 5.5655L23.2155 5.23989C23.3904 4.85596 23.4487 4.26791 23.3564 3.88398C23.2738 3.55837 22.7052 2.03237 22.5545 1.73591C22.1998 1.04095 21.3153 0.554962 20.5425 0.632721C20.1003 0.676458 19.8865 0.768797 17.3059 1.99835C15.0557 3.06752 14.9731 3.1064 14.8273 3.04808C14.3559 2.85369 14.3559 2.85369 13 2.85369C11.6441 2.85369 11.6441 2.85369 11.1727 3.04808C11.0269 3.1064 10.9394 3.06752 8.69415 1.99835C7.41601 1.39086 6.22534 0.836836 6.05524 0.773657C5.66159 0.627861 5.13672 0.588982 4.80139 0.686178ZM8.12555 2.58153C10.4146 3.66529 10.5603 3.74304 10.5215 3.84024C10.502 3.89856 10.468 4.09295 10.4486 4.27277C10.4291 4.45745 10.4 4.59838 10.3805 4.58866C10.366 4.57894 10.0792 4.42829 9.74389 4.24847C8.28592 3.47089 6.71132 2.94602 5.81225 2.94602C5.127 2.94602 4.5098 3.18902 4.21821 3.57295C4.03353 3.81108 4.01895 3.95202 4.15989 4.13183C4.32026 4.33595 4.5341 4.30679 4.83541 4.0395C5.14644 3.76248 5.36028 3.70416 5.97748 3.73818C6.90572 3.78678 8.25191 4.29221 9.92856 5.22045L10.4243 5.49746V6.40626C10.4243 6.91168 10.4146 7.31991 10.4 7.31991C10.3903 7.31991 8.98089 6.93598 7.27993 6.46458C5.44775 5.96401 4.10157 5.5655 3.98493 5.49746C3.73708 5.35652 3.65446 5.26418 3.50866 4.96287C3.35315 4.64212 3.31913 4.45745 3.37745 4.16099C3.44548 3.80622 4.07241 2.149 4.22307 1.93517C4.47578 1.57554 4.88887 1.38114 5.37 1.40544C5.67131 1.42002 5.81711 1.4832 8.12555 2.58153ZM21.0723 1.43946C21.3298 1.51236 21.6457 1.74077 21.7915 1.95947C21.9422 2.18302 22.5545 3.81108 22.6226 4.16585C22.6809 4.45745 22.6469 4.64212 22.4914 4.96287C22.3456 5.26418 22.2629 5.35652 22.0151 5.49746C21.8984 5.5655 20.5523 5.96401 18.7201 6.46458C17.0191 6.93598 15.6098 7.31991 15.6 7.31991C15.5855 7.31991 15.5757 6.90682 15.5757 6.4014V5.48288L15.9548 5.25933C16.9802 4.66156 18.6326 3.96174 19.4248 3.80136C19.8524 3.71388 20.4259 3.6993 20.6932 3.77706C20.7953 3.80136 20.9848 3.92286 21.1209 4.04436C21.3979 4.29221 21.5971 4.32623 21.7818 4.15127C21.9568 3.98604 21.9325 3.77706 21.7041 3.52435C21.3736 3.14528 20.8293 2.94602 20.144 2.94602C19.2207 2.94602 17.5246 3.52435 16.0374 4.34081L15.6 4.5838L15.5466 4.20473C15.5126 3.99576 15.4785 3.80622 15.4591 3.78192C15.4397 3.7479 19.4345 1.81367 20.2412 1.46862C20.4405 1.38114 20.8196 1.37142 21.0723 1.43946ZM14.4628 3.73818C14.7933 3.95688 14.7982 3.98604 14.7982 5.90083C14.7982 7.80104 14.7933 7.84478 14.4871 8.06348C14.3413 8.16553 14.3025 8.17039 13 8.17039C11.0706 8.17039 11.2019 8.33563 11.2019 5.90083C11.2019 3.98604 11.2067 3.95688 11.5372 3.73818C11.6976 3.63127 11.7316 3.62641 13 3.62641C14.2684 3.62641 14.3025 3.63127 14.4628 3.73818ZM24.6637 8.53489V10.7218H22.608H20.5474L20.1052 9.83247C19.8622 9.34649 19.4393 8.57862 19.1721 8.13152C18.8999 7.67955 18.6909 7.30048 18.7055 7.2859C18.7152 7.27132 19.4539 7.05748 20.3481 6.80963L21.9665 6.35766L23.3175 6.3528L24.6637 6.34794V8.53489ZM9.37454 7.83992L10.5458 8.16553L10.8374 8.46199C11.0172 8.64666 11.2019 8.7876 11.3136 8.82162C11.4108 8.85564 11.4934 8.90424 11.4934 8.92854C11.4934 8.95284 11.3428 9.20069 11.163 9.47284C9.78277 11.5334 8.74275 13.9051 8.16443 16.2961C8.07209 16.6898 7.97489 17.0786 7.95545 17.1612C7.91657 17.3021 7.91657 17.3021 7.64442 16.8842C7.49376 16.6557 7.25563 16.2621 7.10983 16.0142C6.7259 15.3484 6.72104 15.3436 6.56553 15.2901C6.45861 15.2561 6.39057 15.261 6.28851 15.3096C6.10384 15.4019 5.35542 15.9268 4.83541 16.3253C4.607 16.5002 4.4126 16.6363 4.40774 16.6266C4.37858 16.5974 4.5827 15.674 4.77223 14.9742C5.4186 12.5443 6.42459 10.2213 7.74162 8.10722C7.94573 7.7816 8.13041 7.51431 8.15471 7.51431C8.17901 7.51431 8.72817 7.66011 9.37454 7.83992ZM18.2584 8.10722C18.8124 9.00143 19.0214 9.38536 19.556 10.4788C20.2801 11.9708 20.8001 13.3607 21.2278 14.9742C21.4173 15.674 21.6214 16.5974 21.5923 16.6266C21.5874 16.6363 21.393 16.5002 21.1646 16.3253C20.6446 15.9268 19.8962 15.4019 19.7115 15.3096C19.6094 15.261 19.5414 15.2561 19.4345 15.2901C19.279 15.3436 19.2741 15.3484 18.8902 16.0142C18.7444 16.2621 18.5063 16.6557 18.3556 16.8842C18.0834 17.3021 18.0834 17.3021 18.0446 17.1612C18.0251 17.0786 17.9279 16.6898 17.8356 16.2961C17.2573 13.9051 16.2172 11.5334 14.837 9.47284C14.6572 9.20069 14.5066 8.95284 14.5066 8.92854C14.5066 8.90424 14.5892 8.85564 14.6912 8.82162C14.7982 8.7876 14.9877 8.64666 15.1578 8.46685L15.4494 8.17039L16.5915 7.84478C17.2232 7.66983 17.7724 7.51917 17.8113 7.51917C17.855 7.51431 18.0348 7.75244 18.2584 8.10722ZM13.6172 9.05489C13.7484 9.22499 14.701 10.6587 14.701 10.6927C14.701 10.7073 13.938 10.7218 13 10.7218C12.0669 10.7218 11.299 10.7121 11.299 10.6975C11.299 10.6587 11.7219 10.0026 12.0961 9.47284L12.4411 8.97227H12.9951C13.4666 8.97227 13.5589 8.98685 13.6172 9.05489ZM5.00065 11.825C4.5584 12.9914 4.4126 13.4191 4.17933 14.2209C3.91689 15.1395 3.64474 16.3301 3.49894 17.2243C3.42119 17.686 3.42119 17.7298 3.49894 17.8464C3.59614 17.9971 3.78082 18.07 3.92661 18.0165C3.98493 17.9922 4.30568 17.7492 4.64101 17.4722C5.20962 17.0008 6.25449 16.2135 6.31281 16.2135C6.32253 16.2135 6.51207 16.5051 6.7259 16.855C7.28479 17.7735 7.85339 18.5608 8.01377 18.6337C8.12069 18.6872 8.17415 18.6872 8.29078 18.6434C8.48032 18.5608 8.50948 18.5025 8.60182 17.9582C8.88369 16.301 9.33566 14.7653 10.0209 13.1566C10.2639 12.588 10.6575 11.791 10.6916 11.791C10.7061 11.791 10.7159 14.6972 10.7159 18.2546V24.7183H6.90086H3.08585V18.1088V11.4994H4.10643H5.127L5.00065 11.825ZM14.5552 18.1088V24.7183H13H11.4448V18.1088V11.4994H13H14.5552V18.1088Z"/>
</mask>
<path d="M4.80139 0.686178C4.20849 0.851416 3.69334 1.25479 3.44548 1.73591C3.29483 2.03237 2.72622 3.55837 2.6436 3.88398C2.55127 4.26791 2.60959 4.85596 2.78454 5.23989L2.93034 5.5655L1.86116 5.58008L0.79199 5.59466L0.675353 5.73073L0.558716 5.86681V7.36365V8.8605L0.685073 8.99171C0.826009 9.12779 0.928067 9.14723 1.10788 9.06461C1.31686 8.96741 1.3363 8.84592 1.3363 7.56291V6.34794H2.64846H3.96063L5.61785 6.80477C6.52665 7.05748 7.28479 7.27132 7.29451 7.2859C7.30909 7.30048 7.10011 7.67955 6.82796 8.13152C6.56067 8.57862 6.13786 9.34649 5.89486 9.83247L5.45261 10.7218H3.39203H1.3363V10.4788C1.3363 10.2115 1.2391 9.97341 1.1176 9.92481C0.957226 9.86649 0.79685 9.90051 0.680213 10.0171C0.563576 10.1289 0.558716 10.1629 0.558716 10.6878C0.558716 11.2224 0.563576 11.2467 0.685073 11.3731C0.816289 11.4994 0.821149 11.4994 1.55985 11.4994H2.30827V18.347V25.1897L2.41033 25.3209L2.50753 25.4473H13H23.4925L23.5897 25.3209C23.6869 25.1994 23.6917 25.1314 23.6917 24.0039C23.6917 22.7986 23.6772 22.6771 23.5022 22.5459C23.405 22.4682 23.2009 22.4682 23.1037 22.5459C22.9336 22.6771 22.9142 22.8084 22.9142 23.7657V24.7183H19.0992H15.2842V18.2546C15.2842 14.6972 15.2939 11.791 15.3085 11.791C15.3425 11.791 15.7361 12.588 15.9791 13.1566C16.6644 14.7653 17.1163 16.301 17.3982 17.9582C17.4905 18.5025 17.5197 18.5608 17.7092 18.6434C17.8259 18.6872 17.8793 18.6872 17.9862 18.6337C18.1466 18.5608 18.7152 17.7735 19.2741 16.8599C19.4879 16.5051 19.6775 16.2135 19.6872 16.2135C19.7455 16.2135 20.7904 17.0008 21.359 17.4722C21.6943 17.7492 22.0151 17.9922 22.0734 18.0165C22.2192 18.07 22.4039 17.9971 22.5011 17.8464C22.5788 17.7298 22.5788 17.686 22.5011 17.2243C22.3553 16.3301 22.0831 15.1395 21.8207 14.2209C21.5874 13.4191 21.4416 12.9914 20.9994 11.825L20.873 11.4994H21.8936H22.9142V16.4322C22.9142 20.7526 22.9239 21.3893 22.9871 21.5108C23.1183 21.7635 23.5022 21.7635 23.6286 21.5108C23.6772 21.4136 23.6917 20.3152 23.6917 16.4419V11.4994H24.4402C25.1789 11.4994 25.1837 11.4994 25.3149 11.3731L25.4413 11.2418V8.55432V5.86681L25.3247 5.73073L25.208 5.59466L24.1389 5.58008L23.0697 5.5655L23.2155 5.23989C23.3904 4.85596 23.4487 4.26791 23.3564 3.88398C23.2738 3.55837 22.7052 2.03237 22.5545 1.73591C22.1998 1.04095 21.3153 0.554962 20.5425 0.632721C20.1003 0.676458 19.8865 0.768797 17.3059 1.99835C15.0557 3.06752 14.9731 3.1064 14.8273 3.04808C14.3559 2.85369 14.3559 2.85369 13 2.85369C11.6441 2.85369 11.6441 2.85369 11.1727 3.04808C11.0269 3.1064 10.9394 3.06752 8.69415 1.99835C7.41601 1.39086 6.22534 0.836836 6.05524 0.773657C5.66159 0.627861 5.13672 0.588982 4.80139 0.686178ZM8.12555 2.58153C10.4146 3.66529 10.5603 3.74304 10.5215 3.84024C10.502 3.89856 10.468 4.09295 10.4486 4.27277C10.4291 4.45745 10.4 4.59838 10.3805 4.58866C10.366 4.57894 10.0792 4.42829 9.74389 4.24847C8.28592 3.47089 6.71132 2.94602 5.81225 2.94602C5.127 2.94602 4.5098 3.18902 4.21821 3.57295C4.03353 3.81108 4.01895 3.95202 4.15989 4.13183C4.32026 4.33595 4.5341 4.30679 4.83541 4.0395C5.14644 3.76248 5.36028 3.70416 5.97748 3.73818C6.90572 3.78678 8.25191 4.29221 9.92856 5.22045L10.4243 5.49746V6.40626C10.4243 6.91168 10.4146 7.31991 10.4 7.31991C10.3903 7.31991 8.98089 6.93598 7.27993 6.46458C5.44775 5.96401 4.10157 5.5655 3.98493 5.49746C3.73708 5.35652 3.65446 5.26418 3.50866 4.96287C3.35315 4.64212 3.31913 4.45745 3.37745 4.16099C3.44548 3.80622 4.07241 2.149 4.22307 1.93517C4.47578 1.57554 4.88887 1.38114 5.37 1.40544C5.67131 1.42002 5.81711 1.4832 8.12555 2.58153ZM21.0723 1.43946C21.3298 1.51236 21.6457 1.74077 21.7915 1.95947C21.9422 2.18302 22.5545 3.81108 22.6226 4.16585C22.6809 4.45745 22.6469 4.64212 22.4914 4.96287C22.3456 5.26418 22.2629 5.35652 22.0151 5.49746C21.8984 5.5655 20.5523 5.96401 18.7201 6.46458C17.0191 6.93598 15.6098 7.31991 15.6 7.31991C15.5855 7.31991 15.5757 6.90682 15.5757 6.4014V5.48288L15.9548 5.25933C16.9802 4.66156 18.6326 3.96174 19.4248 3.80136C19.8524 3.71388 20.4259 3.6993 20.6932 3.77706C20.7953 3.80136 20.9848 3.92286 21.1209 4.04436C21.3979 4.29221 21.5971 4.32623 21.7818 4.15127C21.9568 3.98604 21.9325 3.77706 21.7041 3.52435C21.3736 3.14528 20.8293 2.94602 20.144 2.94602C19.2207 2.94602 17.5246 3.52435 16.0374 4.34081L15.6 4.5838L15.5466 4.20473C15.5126 3.99576 15.4785 3.80622 15.4591 3.78192C15.4397 3.7479 19.4345 1.81367 20.2412 1.46862C20.4405 1.38114 20.8196 1.37142 21.0723 1.43946ZM14.4628 3.73818C14.7933 3.95688 14.7982 3.98604 14.7982 5.90083C14.7982 7.80104 14.7933 7.84478 14.4871 8.06348C14.3413 8.16553 14.3025 8.17039 13 8.17039C11.0706 8.17039 11.2019 8.33563 11.2019 5.90083C11.2019 3.98604 11.2067 3.95688 11.5372 3.73818C11.6976 3.63127 11.7316 3.62641 13 3.62641C14.2684 3.62641 14.3025 3.63127 14.4628 3.73818ZM24.6637 8.53489V10.7218H22.608H20.5474L20.1052 9.83247C19.8622 9.34649 19.4393 8.57862 19.1721 8.13152C18.8999 7.67955 18.6909 7.30048 18.7055 7.2859C18.7152 7.27132 19.4539 7.05748 20.3481 6.80963L21.9665 6.35766L23.3175 6.3528L24.6637 6.34794V8.53489ZM9.37454 7.83992L10.5458 8.16553L10.8374 8.46199C11.0172 8.64666 11.2019 8.7876 11.3136 8.82162C11.4108 8.85564 11.4934 8.90424 11.4934 8.92854C11.4934 8.95284 11.3428 9.20069 11.163 9.47284C9.78277 11.5334 8.74275 13.9051 8.16443 16.2961C8.07209 16.6898 7.97489 17.0786 7.95545 17.1612C7.91657 17.3021 7.91657 17.3021 7.64442 16.8842C7.49376 16.6557 7.25563 16.2621 7.10983 16.0142C6.7259 15.3484 6.72104 15.3436 6.56553 15.2901C6.45861 15.2561 6.39057 15.261 6.28851 15.3096C6.10384 15.4019 5.35542 15.9268 4.83541 16.3253C4.607 16.5002 4.4126 16.6363 4.40774 16.6266C4.37858 16.5974 4.5827 15.674 4.77223 14.9742C5.4186 12.5443 6.42459 10.2213 7.74162 8.10722C7.94573 7.7816 8.13041 7.51431 8.15471 7.51431C8.17901 7.51431 8.72817 7.66011 9.37454 7.83992ZM18.2584 8.10722C18.8124 9.00143 19.0214 9.38536 19.556 10.4788C20.2801 11.9708 20.8001 13.3607 21.2278 14.9742C21.4173 15.674 21.6214 16.5974 21.5923 16.6266C21.5874 16.6363 21.393 16.5002 21.1646 16.3253C20.6446 15.9268 19.8962 15.4019 19.7115 15.3096C19.6094 15.261 19.5414 15.2561 19.4345 15.2901C19.279 15.3436 19.2741 15.3484 18.8902 16.0142C18.7444 16.2621 18.5063 16.6557 18.3556 16.8842C18.0834 17.3021 18.0834 17.3021 18.0446 17.1612C18.0251 17.0786 17.9279 16.6898 17.8356 16.2961C17.2573 13.9051 16.2172 11.5334 14.837 9.47284C14.6572 9.20069 14.5066 8.95284 14.5066 8.92854C14.5066 8.90424 14.5892 8.85564 14.6912 8.82162C14.7982 8.7876 14.9877 8.64666 15.1578 8.46685L15.4494 8.17039L16.5915 7.84478C17.2232 7.66983 17.7724 7.51917 17.8113 7.51917C17.855 7.51431 18.0348 7.75244 18.2584 8.10722ZM13.6172 9.05489C13.7484 9.22499 14.701 10.6587 14.701 10.6927C14.701 10.7073 13.938 10.7218 13 10.7218C12.0669 10.7218 11.299 10.7121 11.299 10.6975C11.299 10.6587 11.7219 10.0026 12.0961 9.47284L12.4411 8.97227H12.9951C13.4666 8.97227 13.5589 8.98685 13.6172 9.05489ZM5.00065 11.825C4.5584 12.9914 4.4126 13.4191 4.17933 14.2209C3.91689 15.1395 3.64474 16.3301 3.49894 17.2243C3.42119 17.686 3.42119 17.7298 3.49894 17.8464C3.59614 17.9971 3.78082 18.07 3.92661 18.0165C3.98493 17.9922 4.30568 17.7492 4.64101 17.4722C5.20962 17.0008 6.25449 16.2135 6.31281 16.2135C6.32253 16.2135 6.51207 16.5051 6.7259 16.855C7.28479 17.7735 7.85339 18.5608 8.01377 18.6337C8.12069 18.6872 8.17415 18.6872 8.29078 18.6434C8.48032 18.5608 8.50948 18.5025 8.60182 17.9582C8.88369 16.301 9.33566 14.7653 10.0209 13.1566C10.2639 12.588 10.6575 11.791 10.6916 11.791C10.7061 11.791 10.7159 14.6972 10.7159 18.2546V24.7183H6.90086H3.08585V18.1088V11.4994H4.10643H5.127L5.00065 11.825ZM14.5552 18.1088V24.7183H13H11.4448V18.1088V11.4994H13H14.5552V18.1088Z" fill="#666666" stroke="#666666" stroke-width="0.266667" mask="url(#path-1-inside-1_11789_9240)"/>
</g>
</g>
</svg>
