<svg xmlns="http://www.w3.org/2000/svg" width="11" height="11" viewBox="0 0 11 11" fill="none">
  <path d="M9.9138 1.08611C9.98852 1.16083 10.0305 1.26217 10.0305 1.36785C10.0305 1.47352 9.98852 1.57486 9.9138 1.64958L6.06338 5.5L9.9138 9.35042C9.98852 9.42514 10.0305 9.52648 10.0305 9.63215C10.0305 9.73783 9.98852 9.83917 9.9138 9.91389C9.83908 9.98861 9.73773 10.0306 9.63206 10.0306C9.52639 10.0306 9.42504 9.98861 9.35032 9.91389L5.4999 6.06348L1.64949 9.91389C1.57477 9.98861 1.47342 10.0306 1.36775 10.0306C1.26208 10.0306 1.16073 9.98861 1.08601 9.91389C1.01129 9.83917 0.969312 9.73783 0.969312 9.63215C0.969312 9.52648 1.01129 9.42514 1.08601 9.35042L4.93643 5.5L1.08601 1.64958C1.01129 1.57486 0.969312 1.47352 0.969312 1.36785C0.969312 1.26217 1.01129 1.16083 1.08601 1.08611C1.16073 1.01139 1.26208 0.969408 1.36775 0.969408C1.47342 0.969407 1.57477 1.01139 1.64949 1.08611L5.4999 4.93652L9.35032 1.08611C9.42504 1.01139 9.52639 0.969408 9.63206 0.969408C9.73773 0.969407 9.83908 1.01139 9.9138 1.08611Z" fill="#EC4F4F"/>
</svg>