<svg width="18" height="18" viewBox="0 0 18 18" fill="none" xmlns="http://www.w3.org/2000/svg">
<g id="Group">
<path id="Vector" d="M5.08968 0.702101C2.45642 1.0834 0.549919 3.37121 0.667242 6.0012C0.699832 6.71166 0.862781 7.35368 1.1789 8.00548C1.66449 9.00598 2.45968 9.82073 3.44063 10.3226C3.60358 10.4073 3.74046 10.4758 3.74372 10.479C3.76979 10.4986 4.09895 11.6132 4.21301 12.0694C4.37596 12.7212 4.41181 12.7799 4.64646 12.7799C4.76704 12.7799 4.80289 12.7636 4.87459 12.6789C4.92673 12.6169 4.95932 12.5387 4.95932 12.4735C4.95932 12.3497 4.80615 11.7044 4.64646 11.1699C4.58454 10.9581 4.53891 10.7756 4.54869 10.7691C4.55846 10.7593 4.69534 10.7789 4.85177 10.8115C5.07664 10.8603 5.2787 10.8734 5.77406 10.8734C6.44541 10.8701 6.68984 10.8408 7.22757 10.6844L7.48829 10.6061L7.60235 10.7007C7.76856 10.8408 8.202 11.0461 8.49205 11.1178C8.77233 11.1895 9.25465 11.2058 9.3622 11.1504C9.43064 11.1113 9.52189 10.9549 9.52189 10.8701C9.52189 10.8375 9.47301 10.7169 9.41109 10.5996C9.28073 10.3487 9.20903 10.1043 9.1797 9.8305L9.16014 9.63497L9.41434 9.37425C9.80542 8.97339 10.0857 8.5758 10.3366 8.07065C10.5843 7.56551 10.6919 7.26569 10.7994 6.77032C10.8613 6.49331 10.8711 6.33688 10.8711 5.77307C10.8711 5.20601 10.8613 5.05284 10.7994 4.77583C10.6528 4.10122 10.366 3.42661 9.9977 2.88888C9.67506 2.41958 9.14385 1.88185 8.71366 1.58854C8.60286 1.51685 8.51487 1.44515 8.51161 1.43537C8.51161 1.39952 9.00371 1.33434 9.44042 1.31805C10.8809 1.25613 12.3311 1.78082 13.449 2.7683C14.355 3.56674 15.0068 4.69435 15.2577 5.8904C15.2935 6.06964 15.3392 6.46072 15.3555 6.76706C15.4044 7.59159 15.4467 7.91096 15.5477 8.28575C15.6553 8.6866 15.7433 8.89518 16.2778 10.0586C16.5026 10.541 16.6819 10.9418 16.6754 10.9483C16.6721 10.9549 16.369 11.0885 16.0073 11.2449C15.6423 11.4013 15.3131 11.5643 15.274 11.6001C15.199 11.6718 15.199 11.6849 15.186 12.6919C15.173 13.624 15.1632 13.725 15.1013 13.9205C14.9579 14.3507 14.5994 14.7157 14.179 14.8656C13.99 14.9341 13.8954 14.9406 13.1296 14.9536C12.3083 14.9699 12.2855 14.9732 12.2008 15.0449L12.1128 15.1198L12.103 15.9052L12.0932 16.6907H8.72018H5.3504L5.34714 16.1269C5.34388 15.4001 5.32107 15.2372 5.207 15.1361C5.04079 14.9927 4.77682 15.0612 4.70186 15.2665C4.68882 15.3056 4.68556 15.7456 4.69208 16.2442C4.70512 17.1339 4.70838 17.1534 4.78008 17.2382L4.85503 17.3262L8.66478 17.3359C11.4871 17.3425 12.4941 17.3327 12.5625 17.3066C12.732 17.2349 12.7483 17.1567 12.7483 16.355V15.625L13.3936 15.6054C14.1236 15.5826 14.2898 15.55 14.6874 15.3447C15.0459 15.1589 15.3881 14.8135 15.5771 14.455C15.7889 14.0411 15.8182 13.8684 15.8411 12.8809L15.8606 12.0205L16.4309 11.7729C16.7438 11.636 17.0404 11.4958 17.0892 11.4633C17.1381 11.4307 17.2163 11.3264 17.2652 11.2286C17.3988 10.9516 17.3826 10.8897 16.8122 9.65126C16.5352 9.05161 16.268 8.43566 16.2191 8.28249C16.105 7.91748 16.0496 7.51989 16.0105 6.76706C15.9551 5.79589 15.7824 5.09847 15.3848 4.27394C14.9905 3.45268 14.4462 2.752 13.7488 2.16864C12.1063 0.790094 9.96511 0.32406 7.90544 0.904158L7.60561 0.988892L7.34163 0.904158C6.65399 0.685806 5.75777 0.607592 5.08968 0.702101ZM6.61488 1.38975C8.18571 1.69609 9.5056 2.84977 10.0075 4.35868C10.1835 4.88337 10.2226 5.14735 10.2226 5.77307C10.2226 6.39228 10.1835 6.64322 10.0107 7.19073C9.80542 7.82949 9.48278 8.34767 8.93202 8.91799L8.55397 9.30907L8.53442 9.52416C8.51161 9.73599 8.54746 10.1238 8.60938 10.3389C8.655 10.4986 8.655 10.4986 8.51813 10.453C8.30629 10.378 8.05861 10.2411 7.93151 10.1271C7.74901 9.96738 7.65775 9.91198 7.56976 9.91198C7.5274 9.91198 7.33512 9.96086 7.14609 10.0228C6.63444 10.189 6.17818 10.2509 5.62741 10.2281C5.12553 10.2118 4.80289 10.1531 4.35967 10.0065C2.85076 9.50461 1.69056 8.1782 1.39074 6.61389C1.28645 6.06312 1.29297 5.34289 1.41355 4.82797L1.4494 4.66828L1.59931 4.93552C1.77855 5.25164 1.91217 5.45369 2.13378 5.73723L2.29999 5.94254V6.42161C2.30651 6.96586 2.34888 7.16792 2.54767 7.58507C3.18969 8.92125 4.80941 9.49483 6.17818 8.87236C6.36068 8.79089 6.41934 8.78111 6.73872 8.77785C7.48503 8.77459 8.10423 8.53343 8.64848 8.02829C8.86684 7.82297 9.15037 7.41234 9.27421 7.11577C9.55122 6.45746 9.53493 5.64923 9.23184 5.0007C9.04608 4.60962 8.63545 4.10774 8.37147 3.95456C8.31281 3.91871 8.23459 3.81443 8.1629 3.67103C7.99669 3.34188 7.79789 3.07464 7.54043 2.83673C7.02225 2.35766 6.39979 2.12302 5.66978 2.12302C4.91695 2.12628 4.29449 2.37396 3.76653 2.88888C3.32005 3.32558 3.07889 3.77858 2.97786 4.37823C2.93549 4.63243 2.89964 4.74324 2.83772 4.82797C2.78884 4.88989 2.71062 5.00395 2.66174 5.07891C2.61285 5.15713 2.56723 5.21905 2.56071 5.21905C2.54116 5.21905 2.18919 4.66828 2.10771 4.50533C2.05883 4.40756 1.96758 4.19573 1.90565 4.03604L1.79485 3.74599L1.90891 3.54393C2.0849 3.23107 2.44339 2.78459 2.74321 2.50432C3.44715 1.85252 4.31404 1.45493 5.31781 1.32783C5.54594 1.29849 6.3509 1.3376 6.61488 1.38975ZM6.18144 2.8237C6.47149 2.89865 6.8756 3.10723 7.07766 3.28973L7.2569 3.45268L6.90819 3.43639C6.40631 3.41031 5.88813 3.50808 5.51335 3.70362C5.42861 3.74599 5.30803 3.76228 5.01146 3.7688C4.59105 3.77532 4.30752 3.83072 3.97837 3.96434C3.86756 4.00997 3.76979 4.0393 3.76327 4.03278C3.7535 4.02626 3.78609 3.94805 3.83171 3.86005C4.07288 3.38098 4.5878 2.98013 5.15486 2.82696C5.39276 2.76178 5.93701 2.76178 6.18144 2.8237ZM7.37748 4.17292C7.7099 4.28046 7.72945 4.30327 7.75226 4.65524C7.77182 4.95833 7.73271 5.25164 7.65124 5.45044L7.60887 5.55146L7.50784 5.33963C7.30578 4.90944 6.91471 4.44993 6.54644 4.21854C6.46497 4.16314 6.40631 4.10774 6.41934 4.0947C6.46823 4.04581 7.15261 4.10122 7.37748 4.17292ZM4.44766 4.63895C4.16413 5.05936 4.01421 5.55798 4.01421 6.0892C4.01421 6.27496 4.00444 6.42487 3.9914 6.42161C3.87734 6.41509 3.06911 5.82196 3.06911 5.747C3.06911 5.52865 3.63617 4.86708 3.97511 4.68458C4.15109 4.59007 4.45744 4.47274 4.52587 4.46948C4.54543 4.46948 4.51284 4.5477 4.44766 4.63895ZM5.72192 4.53466C6.14233 4.67806 6.53667 4.98766 6.77783 5.35592C6.90819 5.55798 7.05484 5.93928 7.08743 6.16741C7.10373 6.27822 7.09395 6.29451 6.95381 6.3988C6.73872 6.56175 6.50408 6.67255 6.20751 6.75403C5.98916 6.81595 5.89791 6.82247 5.51335 6.80617C5.27218 6.79965 4.99843 6.77358 4.90718 6.75077C4.74423 6.7084 4.74097 6.70514 4.70186 6.54871C4.65623 6.3434 4.65623 5.89366 4.70186 5.66879C4.76704 5.34615 4.97236 4.97462 5.23307 4.71065C5.36343 4.57703 5.48727 4.46948 5.50357 4.46948C5.51986 4.46948 5.62089 4.49881 5.72192 4.53466ZM8.60938 5.22231C8.76255 5.52213 8.81795 5.75352 8.81469 6.11527C8.80817 6.9789 8.28348 7.70565 7.44918 8.01199C7.3286 8.05436 7.22431 8.08369 7.21779 8.07391C7.20802 8.06414 7.23735 8.00873 7.28297 7.95007C7.49481 7.6698 7.66427 7.22984 7.73271 6.78988C7.76204 6.58456 7.79137 6.51286 7.93803 6.30103C8.03254 6.16089 8.15312 5.93928 8.20852 5.80566C8.30629 5.57428 8.41384 5.14409 8.41384 4.9844C8.4171 4.90944 8.4171 4.90944 8.46598 4.97462C8.49531 5.01047 8.55723 5.12128 8.60938 5.22231ZM3.32331 6.79639C3.51233 6.91372 4.00444 7.15814 4.14457 7.20377C4.23257 7.22984 4.27819 7.27546 4.34011 7.39279C4.48025 7.66002 4.78985 8.01199 5.06035 8.21731C5.20374 8.32486 5.34062 8.41285 5.36017 8.41611C5.47424 8.42588 5.207 8.47151 5.0245 8.47477C4.24886 8.48455 3.48952 8.01525 3.15059 7.32109C3.03 7.07993 2.93875 6.76706 2.93875 6.61063V6.51612L3.06259 6.61389C3.12777 6.66603 3.2451 6.74751 3.32331 6.79639ZM6.84627 7.42212C6.74198 7.60788 6.39979 7.99896 6.29224 8.05762C6.16514 8.1228 5.56549 7.83601 5.32758 7.59159L5.207 7.46774H5.6046C6.0576 7.46774 6.40305 7.40908 6.71917 7.27546C6.83649 7.22658 6.93426 7.20051 6.94078 7.21354C6.9473 7.22658 6.90493 7.32109 6.84627 7.42212Z" fill="#74BC1F"/>
<path id="Vector_2" d="M13.5736 7.35379C13.4595 7.40267 13.3683 7.54933 13.3683 7.6862C13.3683 7.88174 13.1597 8.08706 12.9609 8.08706C12.749 8.08706 12.5698 8.28911 12.6089 8.48791C12.6187 8.5368 12.6708 8.61501 12.7262 8.66064C12.8175 8.73885 12.8468 8.74537 13.0326 8.72908C13.541 8.68997 13.9581 8.27934 14.0103 7.77745C14.0331 7.55259 13.9809 7.42223 13.8408 7.35705C13.7137 7.29513 13.7072 7.29513 13.5736 7.35379Z" fill="#74BC1F"/>
<path id="Vector_3" d="M4.66179 13.6887C4.50862 13.8418 4.54446 14.083 4.73674 14.1938C5.00398 14.3535 5.32662 14.0309 5.16693 13.7636C5.05612 13.5714 4.81496 13.5355 4.66179 13.6887Z" fill="#74BC1F"/>
</g>
</svg>
