<svg width="75" height="75" viewBox="0 0 75 75" fill="none" xmlns="http://www.w3.org/2000/svg">
<path d="M30.89 24.445C30.89 28.012 28.0009 30.89 24.445 30.89C20.8891 30.89 18 28.0009 18 24.445C18 20.8891 20.8891 18 24.445 18C28.0009 18 30.89 20.878 30.89 24.445Z" fill="url(#paint0_linear_31659_111368)"/>
<path d="M56.76 24.11C56.76 27.67 53.87 30.56 50.32 30.56C46.76 30.56 43.87 27.68 43.87 24.11C43.87 20.55 46.76 17.67 50.32 17.67C53.87 17.66 56.76 20.55 56.76 24.11Z" fill="url(#paint1_linear_31659_111368)"/>
<path d="M30.55 50.29C30.55 53.85 27.66 56.74 24.1 56.74C20.54 56.74 17.65 53.85 17.65 50.29C17.65 46.73 20.54 43.84 24.1 43.84C27.66 43.84 30.55 46.73 30.55 50.29Z" fill="url(#paint2_linear_31659_111368)"/>
<path d="M56.76 50.29C56.76 53.85 53.87 56.74 50.32 56.74C46.76 56.74 43.87 53.85 43.87 50.29C43.87 46.73 46.76 43.84 50.32 43.84C53.87 43.84 56.76 46.73 56.76 50.29Z" fill="url(#paint3_linear_31659_111368)"/>
<path d="M64.81 27.58C60.98 27.58 57.68 29.83 56.14 33.07C55.68 33.85 54.75 35.06 53.38 35.06V35.07H48.67V35.06C46.7 35.06 45.65 32.57 45.58 32.45V32.51C45.38 32.16 45.16 31.82 44.92 31.5C44.9 31.48 44.89 31.45 44.87 31.43C44.77 31.3 44.67 31.17 44.57 31.05C44.53 31 44.49 30.95 44.45 30.91C44.37 30.82 44.28 30.72 44.19 30.63C44.12 30.56 44.05 30.49 43.98 30.42C43.92 30.36 43.85 30.3 43.79 30.23C43.69 30.14 43.59 30.05 43.49 29.96C43.45 29.93 43.41 29.89 43.37 29.86C43.24 29.75 43.11 29.64 42.97 29.54C42.96 29.53 42.94 29.52 42.93 29.51C42.61 29.27 42.27 29.04 41.91 28.84H41.94C41.92 28.83 41.83 28.79 41.71 28.73C41.71 28.73 41.7 28.73 41.7 28.72C41.64 28.69 41.58 28.66 41.52 28.63C40.78 28.22 39.33 27.26 39.33 25.75H39.32V21.04H39.33C39.33 19.58 40.71 18.62 41.47 18.19C41.58 18.14 41.69 18.08 41.79 18.02C41.87 17.98 41.93 17.96 41.94 17.95H41.92C44.84 16.3 46.81 13.18 46.81 9.6C46.81 4.3 42.51 0 37.21 0C31.91 0 27.61 4.3 27.61 9.6C27.61 13.19 29.58 16.31 32.5 17.95H32.48C32.49 17.96 32.53 17.98 32.58 18C32.71 18.07 32.85 18.14 32.98 18.21C33.74 18.64 35.09 19.59 35.09 21.04V25.75C35.09 27.22 33.71 28.18 32.95 28.6C32.85 28.65 32.74 28.71 32.64 28.76C32.55 28.8 32.49 28.83 32.47 28.84H32.49C32.14 29.04 31.8 29.26 31.47 29.5C31.45 29.51 31.44 29.52 31.42 29.54C31.29 29.64 31.16 29.75 31.03 29.86C30.99 29.89 30.95 29.93 30.9 29.97C30.8 30.06 30.7 30.15 30.61 30.24C30.54 30.3 30.48 30.37 30.41 30.43C30.34 30.5 30.28 30.56 30.21 30.63C30.12 30.72 30.03 30.82 29.95 30.92C29.91 30.96 29.88 31.01 29.84 31.05C29.73 31.18 29.63 31.31 29.53 31.44C29.52 31.46 29.5 31.48 29.49 31.5C29.25 31.82 29.03 32.16 28.83 32.51V32.48C28.82 32.5 28.78 32.59 28.72 32.71C28.71 32.72 28.71 32.73 28.7 32.74C28.67 32.79 28.64 32.85 28.62 32.9C28.21 33.64 27.25 35.09 25.75 35.09V35.1H21.04V35.09C19.57 35.09 18.62 33.71 18.19 32.95C18.14 32.84 18.08 32.73 18.02 32.63C17.98 32.55 17.96 32.49 17.95 32.48V32.5C16.3 29.58 13.18 27.61 9.6 27.61C4.3 27.61 0 31.91 0 37.21C0 42.51 4.3 46.81 9.6 46.81C13.19 46.81 16.31 44.84 17.95 41.92V41.94C17.96 41.93 17.98 41.89 18 41.84C18.07 41.71 18.14 41.57 18.21 41.44C18.64 40.68 19.59 39.33 21.04 39.33H25.75C27.22 39.33 28.18 40.72 28.6 41.47C28.65 41.57 28.71 41.67 28.76 41.77C28.8 41.86 28.83 41.92 28.84 41.94V41.92C29.04 42.28 29.26 42.62 29.51 42.94C29.52 42.96 29.53 42.97 29.54 42.98C29.64 43.12 29.75 43.25 29.86 43.38C29.89 43.42 29.93 43.46 29.96 43.5C30.05 43.6 30.14 43.71 30.24 43.8C30.3 43.86 30.36 43.93 30.42 43.99C30.49 44.06 30.57 44.13 30.64 44.2C30.73 44.28 30.82 44.37 30.91 44.45C30.96 44.49 31.01 44.54 31.06 44.58C31.18 44.68 31.3 44.78 31.43 44.88C31.46 44.9 31.48 44.92 31.51 44.94C31.66 45.05 31.82 45.16 31.98 45.27C31.98 45.27 31.99 45.27 31.99 45.28C32.16 45.39 32.34 45.5 32.52 45.6H32.47C32.59 45.67 35.09 46.72 35.09 48.69V53.4C35.09 54.76 33.9 55.68 33.13 56.14C29.87 57.67 27.6 60.98 27.6 64.82C27.6 70.12 31.9 74.42 37.2 74.42C42.5 74.42 46.8 70.12 46.8 64.82C46.8 60.99 44.55 57.69 41.31 56.15C40.54 55.69 39.32 54.76 39.32 53.39H39.31V48.68H39.32C39.32 46.71 41.81 45.66 41.93 45.59H41.87C42.22 45.39 42.56 45.17 42.89 44.93C42.91 44.91 42.94 44.9 42.96 44.88C43.09 44.78 43.22 44.68 43.34 44.57C43.39 44.53 43.43 44.49 43.48 44.45C43.58 44.36 43.67 44.28 43.77 44.19C43.84 44.12 43.91 44.06 43.98 43.99C44.05 43.92 44.11 43.86 44.17 43.79C44.26 43.69 44.35 43.59 44.44 43.49C44.48 43.45 44.52 43.4 44.55 43.36C44.66 43.23 44.76 43.1 44.86 42.97C44.88 42.95 44.89 42.93 44.91 42.91C45.15 42.58 45.37 42.24 45.57 41.89V41.94C45.64 41.82 46.69 39.33 48.66 39.33H53.37C54.73 39.33 55.65 40.51 56.11 41.29C57.64 44.55 60.95 46.82 64.79 46.82C70.09 46.82 74.39 42.52 74.39 37.22C74.41 31.88 70.11 27.58 64.81 27.58ZM9.6 42.46C6.68 42.46 4.32 40.1 4.32 37.18C4.32 34.26 6.68 31.9 9.6 31.9C12.52 31.9 14.88 34.26 14.88 37.18C14.88 40.1 12.52 42.46 9.6 42.46ZM31.93 9.58C31.93 6.66 34.29 4.3 37.21 4.3C40.13 4.3 42.49 6.66 42.49 9.58C42.49 12.5 40.13 14.86 37.21 14.86C34.29 14.86 31.93 12.49 31.93 9.58ZM42.49 64.79C42.49 67.71 40.13 70.07 37.21 70.07C34.29 70.07 31.93 67.71 31.93 64.79C31.93 61.87 34.29 59.51 37.21 59.51C40.12 59.51 42.49 61.87 42.49 64.79ZM37.21 42.46C34.29 42.46 31.93 40.1 31.93 37.18C31.93 34.26 34.29 31.9 37.21 31.9C40.13 31.9 42.49 34.26 42.49 37.18C42.49 40.1 40.12 42.46 37.21 42.46ZM64.81 42.46C61.89 42.46 59.53 40.1 59.53 37.18C59.53 34.26 61.89 31.9 64.81 31.9C67.73 31.9 70.09 34.26 70.09 37.18C70.09 40.1 67.73 42.46 64.81 42.46Z" fill="#4E6E78"/>
<defs>
<linearGradient id="paint0_linear_31659_111368" x1="18" y1="24.445" x2="30.89" y2="24.445" gradientUnits="userSpaceOnUse">
<stop offset="0.032402" stop-color="#5C6F7F"/>
<stop offset="0.181565" stop-color="#537984"/>
<stop offset="0.352887" stop-color="#45828B"/>
<stop offset="0.495556" stop-color="#159296"/>
<stop offset="0.635942" stop-color="#4E6E78"/>
<stop offset="0.8" stop-color="#4A508B"/>
<stop offset="1" stop-color="#4E6E78"/>
</linearGradient>
<linearGradient id="paint1_linear_31659_111368" x1="43.87" y1="24.115" x2="56.76" y2="24.115" gradientUnits="userSpaceOnUse">
<stop offset="0.03" stop-color="#5C6F7F"/>
<stop offset="0.18" stop-color="#537984"/>
<stop offset="0.35" stop-color="#45828B"/>
<stop offset="0.5" stop-color="#159296"/>
<stop offset="0.64" stop-color="#4E6E78"/>
<stop offset="0.8" stop-color="#4A508B"/>
<stop offset="1" stop-color="#4E6E78"/>
</linearGradient>
<linearGradient id="paint2_linear_31659_111368" x1="17.65" y1="50.29" x2="30.55" y2="50.29" gradientUnits="userSpaceOnUse">
<stop offset="0.03" stop-color="#5C6F7F"/>
<stop offset="0.18" stop-color="#537984"/>
<stop offset="0.35" stop-color="#45828B"/>
<stop offset="0.5" stop-color="#159296"/>
<stop offset="0.64" stop-color="#4E6E78"/>
<stop offset="0.8" stop-color="#4A508B"/>
<stop offset="1" stop-color="#4E6E78"/>
</linearGradient>
<linearGradient id="paint3_linear_31659_111368" x1="43.87" y1="50.29" x2="56.76" y2="50.29" gradientUnits="userSpaceOnUse">
<stop offset="0.03" stop-color="#5C6F7F"/>
<stop offset="0.18" stop-color="#537984"/>
<stop offset="0.35" stop-color="#45828B"/>
<stop offset="0.5" stop-color="#159296"/>
<stop offset="0.64" stop-color="#4E6E78"/>
<stop offset="0.8" stop-color="#4A508B"/>
<stop offset="1" stop-color="#4E6E78"/>
</linearGradient>
</defs>
</svg>
