<svg width="21" height="22" viewBox="0 0 21 22" fill="none" xmlns="http://www.w3.org/2000/svg">
<g id="Group">
<path id="Vector" d="M14.9062 0.5796C14.4469 0.738975 14.1094 1.08116 13.95 1.54523C13.8844 1.73741 13.875 2.05148 13.875 3.83273V5.89523L13.9922 6.00773C14.1281 6.14835 14.3391 6.15773 14.4891 6.03585L14.6016 5.94679L14.625 3.83741C14.6484 1.79835 14.6531 1.72335 14.7469 1.59679C14.7984 1.52648 14.9016 1.42335 14.9719 1.37179C15.0984 1.27804 15.1687 1.27335 17.5875 1.24991L20.0719 1.22647L20.1609 1.11398C20.2828 0.963975 20.2734 0.753037 20.1328 0.6171L20.0203 0.499912H17.5687C15.4641 0.5046 15.0891 0.513975 14.9062 0.5796Z" fill="#666666"/>
<path id="Vector_2" d="M5.96248 6.95C2.20779 9.72968 0.787476 10.8078 0.768726 10.8875C0.754663 10.9484 0.754663 11.0516 0.768726 11.1125C0.806226 11.2719 11.025 18.8422 11.2359 18.8656C11.3484 18.8797 11.414 18.8562 11.5031 18.7625L11.625 18.6453V16.8828V15.125H15.0703H18.5203L18.6328 15.0078L18.75 14.8953V11V7.10468L18.6328 6.99219L18.5203 6.875H15.0703H11.625V5.15937C11.625 3.95 11.6109 3.41562 11.5687 3.34531C11.4937 3.2 11.3859 3.12969 11.2453 3.125C11.1609 3.125 9.70779 4.175 5.96248 6.95ZM11.0109 7.53594C11.114 7.62031 11.2453 7.625 14.5594 7.625H18V11V14.375H14.5547H11.1047L10.9922 14.4922L10.875 14.6047V16.1797V17.7547L10.5375 17.5016C10.35 17.3656 9.34216 16.6156 8.29685 15.8469C2.8031 11.7781 1.80466 11.0328 1.80466 11C1.80466 10.9672 2.75623 10.2594 8.36716 6.10156C9.44998 5.3 10.4531 4.55937 10.5937 4.45625L10.8515 4.26406L10.875 5.85312L10.8984 7.44687L11.0109 7.53594Z" fill="#666666"/>
<path id="Vector_3" d="M13.9922 15.9921L13.875 16.1046V18.1624C13.875 20.464 13.8797 20.4968 14.1984 20.9187C14.3063 21.064 14.475 21.1999 14.6719 21.3078L14.9766 21.4765L17.4609 21.4906C19.2984 21.4999 19.9688 21.4906 20.0484 21.4484C20.2031 21.364 20.2734 21.1578 20.2078 20.989C20.175 20.9187 20.1047 20.8343 20.0484 20.8015C19.9781 20.764 19.2141 20.7453 17.5219 20.7359C15.1594 20.7265 15.0984 20.7265 14.9719 20.6281C14.9016 20.5765 14.7984 20.4734 14.7469 20.4031C14.6531 20.2765 14.6484 20.2015 14.625 18.1624L14.6016 16.0531L14.4891 15.964C14.3391 15.8421 14.1281 15.8515 13.9922 15.9921Z" fill="#666666"/>
</g>
</svg>
