<svg width="44" height="44" viewBox="0 0 44 44" fill="none" xmlns="http://www.w3.org/2000/svg">
<path d="M7.69418 3.78125C7.05099 3.92172 6.12688 4.3653 5.57241 4.80887C4.4339 5.71081 3.66504 7.30028 3.66504 8.76408C3.66504 9.95434 4.18994 11.3072 4.99576 12.1796C6.56306 13.8874 8.96576 14.3457 11.058 13.3255C11.9081 12.9115 12.884 11.9504 13.298 11.1298C13.9338 9.85084 14.0447 8.40922 13.5937 7.13024C12.7435 4.69058 10.2152 3.24897 7.69418 3.78125ZM9.7568 4.84583C10.5478 5.04544 11.0062 5.31159 11.6198 5.91781C12.8988 7.182 13.1945 9.01544 12.3813 10.6271C12.0634 11.2555 11.3167 12.017 10.6957 12.3422C9.06187 13.1998 7.19885 12.9115 5.91988 11.6177C5.31366 11.0041 5.04751 10.5458 4.84791 9.75473C4.48565 8.35008 4.87008 6.96021 5.91988 5.91781C6.96228 4.86801 8.35215 4.48358 9.7568 4.84583Z" fill="white"/>
<path d="M6.63698 7.33758C6.32635 7.4855 6.15625 7.74436 6.15625 8.04019C6.15625 8.47654 6.68875 8.69842 6.99198 8.39519C7.07333 8.31383 7.17687 8.24727 7.21385 8.24727C7.25823 8.24727 7.35437 8.31383 7.43573 8.39519C7.73896 8.69842 8.27146 8.47654 8.27146 8.04019C8.27146 7.38936 7.34698 6.98998 6.63698 7.33758Z" fill="white"/>
<path d="M9.73506 7.33745C9.47621 7.47057 9.20996 7.82557 9.20996 8.04745C9.20996 8.23974 9.54277 8.54297 9.74986 8.54297C9.846 8.54297 9.99392 8.47641 10.0827 8.39505C10.1714 8.3137 10.2602 8.24714 10.2898 8.24714C10.3119 8.24714 10.4155 8.3137 10.519 8.39505C10.9036 8.69089 11.3548 8.47641 11.3548 7.99568C11.3548 7.72203 11.1107 7.40401 10.8001 7.28568C10.5116 7.17474 10.0161 7.19693 9.73506 7.33745Z" fill="white"/>
<path d="M7.0583 9.88718C6.28174 10.146 6.99913 11.5956 8.05674 11.9062C9.1809 12.239 10.3568 11.7287 10.7266 10.7451C10.8967 10.2939 10.8302 10.0425 10.5269 9.90936C10.1941 9.77624 10.0166 9.86499 9.80215 10.2792C9.69861 10.4788 9.52851 10.7007 9.42496 10.7747C9.21049 10.9374 8.72236 11.0261 8.44132 10.9522C8.16767 10.8856 7.82007 10.5602 7.7683 10.3235C7.68695 9.96113 7.38372 9.77624 7.0583 9.88718Z" fill="white"/>
<path d="M20.2992 3.74746C18.8945 3.88053 17.3864 4.20582 16.0113 4.67897C14.3627 5.23343 13.9487 5.55872 14.2887 6.02448C14.4957 6.29801 14.7249 6.29801 15.4273 6.00969C17.9408 4.97468 20.8241 4.53111 23.5151 4.77507C25.9252 4.98947 28.7789 5.8988 30.6419 7.02252C31.115 7.31084 31.4551 7.36259 31.6251 7.15559C32.0687 6.64548 31.7656 6.36455 29.6882 5.3739C26.8715 4.03578 23.456 3.44435 20.2992 3.74746Z" fill="white"/>
<path d="M33.9758 3.81829C33.2661 4.13619 33.1404 4.38016 32.7264 6.08792C32.4307 7.32993 32.4085 7.38907 32.0019 7.97311L31.5805 8.57933H30.5381C29.3774 8.57933 29.2222 8.63108 28.9486 9.08205C28.8082 9.30384 28.8008 9.47387 28.8008 12.224C28.8008 14.9372 28.8082 15.1442 28.9412 15.403C29.1778 15.8687 29.3848 15.9353 30.5159 15.9353C31.3661 15.9353 31.5288 15.9131 31.7136 15.7948C31.928 15.647 31.9354 15.647 32.1572 15.8096C32.379 15.9722 32.4455 15.9722 35.1365 15.9944C37.761 16.0166 37.9015 16.0092 38.175 15.8687C38.7664 15.5656 39.0843 14.9372 38.9365 14.3606C38.8699 14.0871 38.8773 14.0427 39.04 13.8948C39.3579 13.5991 39.4688 13.2886 39.4244 12.7859C39.3948 12.3497 39.4022 12.3128 39.6018 12.1205C39.8902 11.8396 39.9937 11.4921 39.9419 10.9377C39.9049 10.5902 39.9197 10.4571 40.001 10.3906C40.0602 10.3462 40.1637 10.1614 40.2302 9.97659C40.4742 9.33341 40.2154 8.60151 39.6388 8.32797C39.3505 8.18011 39.1952 8.17272 37.5022 8.17272C36.4968 8.17272 35.6762 8.15793 35.6762 8.13576C35.6762 8.12097 35.8093 7.53693 35.9719 6.842C36.3046 5.43734 36.3268 5.08988 36.1272 4.66109C35.7501 3.83308 34.7816 3.44865 33.9758 3.81829ZM34.8851 4.78677C35.1069 4.90505 35.2252 5.07509 35.2326 5.28209C35.2326 5.3782 35.0774 6.1101 34.8925 6.90853C34.5599 8.2984 34.5525 8.36494 34.6634 8.63108C34.8851 9.15598 34.9443 9.16337 37.2287 9.20773L39.2618 9.24469L39.2839 9.4443C39.3135 9.67348 39.0769 9.87309 38.7664 9.87309C38.4707 9.87309 38.2489 10.1244 38.2785 10.4128C38.2933 10.5902 38.3746 10.6937 38.6186 10.8563C39.1065 11.189 39.0178 11.4478 38.3672 11.5661C37.7388 11.6844 37.6205 12.1427 38.1159 12.5345C38.589 12.9116 38.4485 13.2738 37.8201 13.2738C37.5836 13.2738 37.3026 13.5622 37.3026 13.8135C37.3026 13.8948 37.4505 14.0944 37.6353 14.2571C38.005 14.5898 38.0197 14.6415 37.8423 14.8411C37.7314 14.9668 37.554 14.9742 35.2326 14.9742H32.7412L32.6599 14.7894C32.6081 14.6859 32.4898 14.5676 32.3863 14.5158L32.2015 14.4345V11.9801V9.53302L32.793 8.64587L33.3844 7.75872L33.7171 6.39842C33.998 5.26731 34.0867 5.00116 34.242 4.8607C34.449 4.67587 34.6412 4.65369 34.8851 4.78677ZM31.1517 12.2536L31.1665 14.9003H30.5012H29.8358V12.2388V9.56998L30.4864 9.59216L31.1295 9.61434L31.1517 12.2536Z" fill="white"/>
<path d="M5.68342 13.8822C5.26202 14.0892 4.25659 16.9576 3.9313 18.9315C3.33247 22.4432 3.81301 26.3318 5.21766 29.3703C5.52817 30.0283 5.7056 30.1614 6.07524 29.9913C6.43749 29.8287 6.43749 29.5995 6.07524 28.7345C4.9663 26.0953 4.52273 23.2342 4.78148 20.4471C4.93673 18.7023 5.43945 16.721 6.11221 15.1759C6.45967 14.3775 6.47446 14.1557 6.20831 13.9487C5.98653 13.7787 5.91999 13.7713 5.68342 13.8822Z" fill="white"/>
<path d="M38.6707 16.3421C38.5672 16.4382 38.4858 16.5639 38.4858 16.6157C38.4858 16.6674 38.5967 17.1627 38.7372 17.7098C39.1512 19.3436 39.2547 20.2012 39.2547 21.9977C39.2547 23.7055 39.1586 24.563 38.8185 25.9751C38.715 26.3965 38.6337 26.8179 38.6337 26.914C38.6337 27.1358 38.8998 27.3945 39.1216 27.3945C39.5356 27.3945 39.7279 26.951 40.0384 25.2358C40.4967 22.7 40.408 20.1717 39.7722 17.562C39.5652 16.7044 39.4765 16.453 39.3286 16.3199C39.0921 16.1056 38.8925 16.1129 38.6707 16.3421Z" fill="white"/>
<path d="M16.5731 17.0155C16.0482 17.1856 15.3976 17.8435 15.2424 18.3758C14.991 19.2334 15.1537 19.8988 15.7895 20.5272C16.0186 20.7637 16.2996 20.9781 16.4105 21.0077C16.684 21.0742 16.647 21.1556 16.3144 21.2147C15.7525 21.3034 14.8801 21.8135 14.3774 22.3532C13.6307 23.1443 13.2759 23.9944 13.2759 24.9925C13.2759 25.4361 13.3055 25.5617 13.4681 25.8131C13.823 26.3602 14.5401 26.7298 15.6786 26.959C16.4253 27.1069 18.2513 27.0921 19.0276 26.9294C19.6042 26.8037 19.6634 26.8037 20.2474 26.9294C21.0828 27.1069 22.9162 27.1069 23.759 26.9294C24.3357 26.8037 24.3948 26.8037 24.9789 26.9294C25.7477 27.0921 27.5738 27.1069 28.3205 26.959C29.459 26.7298 30.1761 26.3602 30.5309 25.8131C30.6936 25.5617 30.7232 25.4361 30.7232 24.9703C30.7232 23.9575 30.25 22.9225 29.4442 22.161C29.0006 21.747 28.143 21.2886 27.6773 21.2147C27.352 21.1556 27.315 21.0742 27.5886 21.0077C27.6995 20.9781 27.9804 20.7637 28.2096 20.5272C28.8454 19.8988 29.008 19.2334 28.7566 18.3758C28.5866 17.7992 27.9508 17.1782 27.3594 17.0081C25.9769 16.6015 24.587 17.6217 24.587 19.0412C24.587 19.8248 25.1119 20.6602 25.7921 20.9633C25.9843 21.0521 26.0582 21.1186 25.9917 21.1408C25.9325 21.1556 25.6886 21.2295 25.452 21.3034C25.2154 21.37 24.8754 21.5252 24.6905 21.6361L24.3579 21.8505L24.0843 21.6731C23.8551 21.5326 23.2785 21.296 22.7388 21.1334C22.6723 21.1186 22.7388 21.0521 22.9236 20.9707C23.8477 20.5493 24.3357 19.433 24.0326 18.4128C23.8625 17.8214 23.2415 17.1856 22.6649 17.0155C21.8073 16.7642 21.1419 16.9268 20.5135 17.5552C20.1735 17.8953 20.0626 18.0727 19.9665 18.4128C19.6634 19.433 20.1513 20.5493 21.0754 20.9707C21.2602 21.0521 21.3268 21.1186 21.2602 21.1334C20.7205 21.296 20.1439 21.5326 19.9147 21.6731L19.6412 21.8505L19.3085 21.6361C19.1237 21.5252 18.7836 21.37 18.547 21.3034C18.3105 21.2295 18.0665 21.1556 18.0073 21.1408C17.9408 21.1186 18.0147 21.0521 18.207 20.9633C18.8871 20.6602 19.412 19.8248 19.412 19.0412C19.412 18.2501 18.8723 17.4221 18.1626 17.0969C17.7264 16.9046 17.0315 16.8677 16.5731 17.0155ZM17.7486 18.0801C18.0961 18.2501 18.377 18.6715 18.377 19.0338C18.377 19.6031 17.8299 20.1501 17.2607 20.1501C16.7432 20.1501 16.1591 19.5735 16.1591 19.056C16.1591 18.6642 16.4696 18.2132 16.8614 18.0358C17.1719 17.8953 17.3937 17.9101 17.7486 18.0801ZM22.4874 18.0875C22.8201 18.2428 23.1085 18.6863 23.1085 19.0412C23.1085 19.5735 22.5318 20.1501 21.9995 20.1501C21.4746 20.1501 20.8906 19.5809 20.8906 19.0708C20.8906 18.6937 21.1641 18.2501 21.5042 18.0875C21.896 17.8953 22.0956 17.8953 22.4874 18.0875ZM27.315 18.1319C27.8103 18.5089 27.9508 18.9968 27.6995 19.5069C27.522 19.8766 27.108 20.1501 26.7236 20.1501C26.1691 20.1427 25.622 19.6031 25.622 19.056C25.622 18.2132 26.6571 17.6439 27.315 18.1319ZM18.4361 22.3606C18.6431 22.4567 18.8206 22.5528 18.8206 22.575C18.8206 22.5972 18.7245 22.7672 18.6062 22.952C17.9926 23.9057 17.8003 25.2217 18.1774 25.7983C18.2883 25.9683 18.2883 25.9757 18.0665 26.0201C17.1128 26.2123 15.1241 25.8944 14.5105 25.4582C14.2961 25.3104 14.2961 25.2882 14.3257 24.8077C14.407 23.6839 15.272 22.6194 16.4031 22.2497C16.8836 22.0945 17.9482 22.1536 18.4361 22.3606ZM23.2637 22.4198C24.2248 22.8929 24.8901 23.8392 24.9419 24.8151C24.9715 25.2808 24.9641 25.3104 24.7571 25.4582C24.2839 25.7983 23.0641 26.0645 21.9995 26.0645C20.9349 26.0645 19.7151 25.7983 19.242 25.4582C19.035 25.3104 19.0276 25.2808 19.0571 24.8151C19.1089 23.9205 19.6781 23.0186 20.4988 22.538C21.031 22.2275 21.3859 22.1462 22.1178 22.1684C22.7018 22.1832 22.8571 22.2201 23.2637 22.4198ZM27.936 22.3828C28.5201 22.6563 29.1189 23.2404 29.4072 23.8318C29.5994 24.2236 29.6438 24.3937 29.6438 24.8298L29.6512 25.3621L29.2815 25.5617C29.0819 25.6726 28.6827 25.8131 28.3944 25.8796C27.7734 26.0275 26.524 26.1088 26.0434 26.0349C25.7034 25.9831 25.7034 25.9831 25.8143 25.8131C26.2061 25.2143 26.0139 23.9279 25.3929 22.952C25.2746 22.7672 25.1785 22.5972 25.1785 22.575C25.1785 22.5306 25.7847 22.2645 26.0287 22.198C26.11 22.1758 26.4796 22.161 26.8419 22.1758C27.3816 22.1906 27.5886 22.2275 27.936 22.3828Z" fill="white"/>
<path d="M29.9913 28.9927C28.631 29.3549 27.596 30.5156 27.4999 31.8094C27.3964 33.0588 28.0174 34.5299 29.3111 36.1416C30.2944 37.3614 33.3033 40.2151 33.6951 40.2964C34.0944 40.3851 34.3088 40.2595 35.3068 39.3575C38.604 36.3856 40.0013 34.4782 40.2748 32.5708C40.5705 30.5378 38.9959 28.867 36.7854 28.8744C35.7208 28.8818 35.0333 29.1627 34.3457 29.8798L33.9021 30.3382L33.4586 29.8798C33.0002 29.3993 32.4679 29.0814 31.8987 28.9557C31.4329 28.8448 30.457 28.867 29.9913 28.9927ZM31.8173 30.0203C32.2239 30.1459 32.8893 30.6856 33.1555 31.1218C33.3329 31.4101 33.5842 31.5358 33.9761 31.5358C34.22 31.5358 34.3088 31.4915 34.5084 31.2623C35.2698 30.3973 35.5877 30.1386 36.0165 30.0129C36.9258 29.7467 38.057 29.9981 38.6558 30.6043C39.846 31.7946 39.3285 33.665 37.1255 36.1268C36.4675 36.8661 34.0204 39.1875 33.9021 39.1875C33.7839 39.1875 31.4625 36.9918 30.7454 36.1933C28.4757 33.6724 27.9361 31.7946 29.1485 30.6117C29.6364 30.1386 30.1909 29.9242 30.9524 29.9168C31.2185 29.9094 31.6029 29.9611 31.8173 30.0203Z" fill="white"/>
<path d="M4.44129 31.0108C4.08644 31.1735 3.93118 31.3361 3.77593 31.7058C3.67982 31.9276 3.66504 32.4081 3.66504 34.6556C3.66504 37.1174 3.67982 37.3614 3.8055 37.6423C3.99033 38.0489 4.38215 38.3372 4.82573 38.3964L5.18059 38.4481L5.21755 39.2835C5.24712 40.008 5.27669 40.1411 5.39498 40.2298C5.55023 40.3407 5.72766 40.3629 5.91248 40.2889C5.97902 40.2594 6.35606 39.8306 6.74049 39.3279L7.4576 38.4112H10.8288C14.6139 38.4112 14.4735 38.4259 14.9392 37.8641L15.161 37.5831L15.1832 34.7443C15.198 32.2233 15.1906 31.8832 15.0797 31.6688C14.9097 31.3287 14.7544 31.1735 14.4439 31.0108C14.1852 30.8778 13.9338 30.8704 9.45369 30.8704C5.03273 30.8704 4.71483 30.8852 4.44129 31.0108ZM14.0743 31.9941C14.1999 32.1198 14.1999 37.1617 14.0743 37.2874C14.0077 37.354 13.128 37.3761 10.5626 37.3761C8.27822 37.3761 7.08796 37.4057 6.97706 37.4575C6.88096 37.5018 6.68874 37.6866 6.54827 37.8789L6.29692 38.2263L6.23777 37.9306C6.14906 37.4944 5.96423 37.3761 5.3728 37.3761C5.08448 37.3761 4.84051 37.3392 4.78876 37.2874C4.66308 37.1617 4.66308 32.1198 4.78876 31.9941C4.91444 31.8684 13.9486 31.8684 14.0743 31.9941Z" fill="white"/>
<path d="M6.43719 34.1986C6.2449 34.4131 6.25969 34.7828 6.46678 34.9529C6.71824 35.1526 7.02146 35.123 7.20636 34.8938C7.39865 34.6423 7.39865 34.4944 7.20636 34.2429C7.01407 33.9989 6.63688 33.9767 6.43719 34.1986Z" fill="white"/>
<path d="M9.0619 34.1949C8.86221 34.3946 8.86961 34.72 9.08408 34.9197C9.42429 35.2451 9.9494 35.0232 9.9494 34.5647C9.9494 34.439 9.88283 34.2763 9.80148 34.1949C9.72013 34.1135 9.55742 34.047 9.43169 34.047C9.30596 34.047 9.14325 34.1135 9.0619 34.1949Z" fill="white"/>
<path d="M11.7162 34.1836C11.3538 34.4869 11.6053 35.0859 12.0934 35.0859C12.3227 35.0859 12.6111 34.7975 12.6111 34.5682C12.6111 34.4943 12.5446 34.3538 12.4558 34.2428C12.2709 34.0135 11.9677 33.984 11.7162 34.1836Z" fill="white"/>
<path d="M28.8009 37.9011C28.6161 37.9825 28.1059 38.1821 27.655 38.3299C24.476 39.4241 21.0088 39.5793 17.8002 38.7661C17.1792 38.6109 17.1792 38.6109 16.987 38.7587C16.8465 38.8622 16.78 38.9879 16.7652 39.1727C16.7356 39.5276 16.8761 39.6163 17.8594 39.8455C19.3306 40.2003 20.2103 40.2891 21.9994 40.2891C23.9216 40.2891 24.7939 40.1856 26.5682 39.7346C27.6772 39.4537 29.5328 38.7809 29.6732 38.6109C29.8433 38.4113 29.8433 38.1451 29.688 37.9455C29.4958 37.7015 29.2592 37.6941 28.8009 37.9011Z" fill="white"/>
</svg>
