<svg width="18" height="18" viewBox="0 0 18 18" fill="none" xmlns="http://www.w3.org/2000/svg">
<g id="Group">
<path id="Vector" d="M6.33985 0.777349C3.23829 1.28126 0.921882 3.80079 0.722664 6.88282C0.644539 8.1211 0.863289 9.20704 1.40626 10.3086C3.01173 13.5586 6.94532 14.8984 10.2344 13.3164C10.6953 13.0938 11.1875 12.7813 11.5313 12.4844L11.7422 12.3086L14.2891 14.8516C16.2188 16.7852 16.8555 17.3984 16.9297 17.4024C17.1289 17.4102 17.1875 17.3906 17.293 17.2774C17.3672 17.1953 17.3984 17.1211 17.3984 17.0195C17.3984 16.8789 17.3086 16.7813 14.8594 14.332C13.4649 12.9336 12.3203 11.7774 12.3203 11.7617C12.3203 11.7461 12.3984 11.6367 12.4961 11.5195C12.9609 10.9492 13.4141 10.1094 13.6445 9.40235C13.8828 8.67579 13.9414 8.25001 13.9375 7.32032C13.9375 6.36719 13.8828 6.02735 13.6094 5.20704C12.8711 2.98438 10.9805 1.32032 8.63673 0.832037C8.1211 0.722662 6.85157 0.691412 6.33985 0.777349ZM8.49219 1.59766C9.43751 1.8086 10.2227 2.17188 10.9297 2.72657C12.0938 3.64063 12.8555 4.92188 13.1055 6.38673C13.1758 6.80079 13.1836 6.96876 13.168 7.53516C13.1367 8.44141 12.9766 9.11329 12.6094 9.88282C11.2109 12.8164 7.63282 14.043 4.72266 12.5859C2.85938 11.6484 1.65626 9.84766 1.50391 7.76954C1.37891 6.05469 1.9961 4.40235 3.21876 3.19141C4.15626 2.26563 5.25391 1.73047 6.63673 1.52344C6.91407 1.48438 8.20704 1.53516 8.49219 1.59766Z" fill="#74BC1F"/>
</g>
</svg>
