<svg width="24" height="24" viewBox="0 0 24 24" fill="none" xmlns="http://www.w3.org/2000/svg">
<g id="icon / close">
<path id="Vector" d="M18.2314 18.2314C18.1259 18.3369 17.9828 18.3961 17.8336 18.3961C17.6844 18.3961 17.5414 18.3369 17.4359 18.2314L12 12.7955L6.56412 18.2314C6.45863 18.3369 6.31555 18.3961 6.16637 18.3961C6.01718 18.3961 5.87411 18.3369 5.76862 18.2314C5.66313 18.1259 5.60387 17.9828 5.60387 17.8336C5.60387 17.6844 5.66313 17.5414 5.76862 17.4359L11.2045 12L5.76862 6.5641C5.66313 6.45862 5.60387 6.31554 5.60387 6.16636C5.60387 6.01717 5.66313 5.8741 5.76862 5.76861C5.87411 5.66312 6.01718 5.60386 6.16637 5.60386C6.31555 5.60386 6.45863 5.66312 6.56412 5.76861L12 11.2045L17.4359 5.76861C17.5414 5.66312 17.6844 5.60386 17.8336 5.60386C17.9828 5.60386 18.1259 5.66312 18.2314 5.76861C18.3369 5.8741 18.3961 6.01717 18.3961 6.16636C18.3961 6.31554 18.3369 6.45862 18.2314 6.56411L12.7955 12L18.2314 17.4359C18.3369 17.5414 18.3961 17.6844 18.3961 17.8336C18.3961 17.9828 18.3369 18.1259 18.2314 18.2314Z" fill="#666666"/>
</g>
</svg>
