<svg width="45" height="44" viewBox="0 0 45 44" fill="none" xmlns="http://www.w3.org/2000/svg">
<path d="M7.44286 3.83273C4.77119 4.39172 2.6174 6.43864 1.85289 9.1432C1.67204 9.7844 1.66382 9.86661 1.66382 14.3961V18.9996L1.89399 19.7395C2.44477 21.5069 3.44768 22.8797 4.9356 23.8826L5.32196 24.1457V26.1762C5.32196 28.0422 5.3384 28.2313 5.48637 28.4697C5.56858 28.6177 5.74121 28.7985 5.8563 28.8725C6.15224 29.0616 6.72768 29.0451 7.06472 28.8314C7.21269 28.741 8.13339 27.8696 9.10341 26.8914L10.8708 25.1239H11.3723H11.8737L11.9231 27.2366C11.9724 29.4315 12.0381 29.9576 12.3916 30.8948C12.5971 31.4455 12.7287 31.5688 13.1068 31.5688C13.3206 31.5688 13.4439 31.5113 13.5589 31.3716C13.748 31.1414 13.7398 31.051 13.4192 29.8919L13.2055 29.1109L13.2301 24.754L13.2548 20.3971L13.4767 19.7395C13.8056 18.7859 14.233 18.1036 14.9811 17.3473C15.8443 16.4759 16.7485 15.958 17.9405 15.6539C18.2611 15.5717 20.3902 15.547 27.8463 15.547C38.5001 15.547 37.7027 15.5059 39.0673 16.1635C40.6374 16.9281 41.8212 18.3913 42.2815 20.1505C42.4213 20.6766 42.4377 21.1041 42.4377 25.0006C42.4377 29.2178 42.4377 29.2835 42.2487 29.9247C41.8376 31.3469 40.9909 32.5307 39.7825 33.3856C38.8454 34.0432 38.8618 33.9939 38.8618 36.6245C38.8618 37.8493 38.8371 38.8523 38.796 38.8523C38.7631 38.8523 37.8096 37.9233 36.6833 36.7889C35.3763 35.4736 34.5049 34.668 34.2994 34.5693C33.987 34.4214 33.6253 34.4132 26.2597 34.4132C17.661 34.4132 17.9734 34.4296 16.7074 33.8459C16.3457 33.6733 15.8032 33.3445 15.499 33.1143C14.8496 32.6129 14.5536 32.5635 14.2906 32.9006C14.0604 33.1883 14.0768 33.4431 14.3317 33.7473C14.6441 34.1172 15.7949 34.8571 16.5183 35.1448C17.883 35.6956 17.4802 35.6709 26.0788 35.7038L33.8884 35.7367L36.1079 37.9398C37.3328 39.1564 38.4097 40.1922 38.5083 40.2415C38.9851 40.4881 39.6756 40.2169 39.9469 39.6743C40.0784 39.4195 40.0949 39.1071 40.0949 37.0355V34.6844L40.4484 34.4543C41.8541 33.5253 42.8981 32.095 43.4406 30.3275L43.6626 29.6041L43.6955 25.3541C43.7201 21.7617 43.7037 20.989 43.5886 20.356C43.0625 17.3062 40.6621 14.9058 37.5958 14.3632C37.3246 14.3139 36.2641 14.2728 35.2283 14.2728H33.354V12.7191C33.354 9.67754 33.0581 8.38691 32.0305 6.86611C31.3071 5.78922 30.8714 5.56726 30.4193 6.01939C30.1398 6.29889 30.1973 6.57839 30.6741 7.15383C31.1838 7.78681 31.4469 8.25538 31.7428 9.07744L31.9976 9.79262L32.0223 12.0286L32.0552 14.2728H25.3226C21.0396 14.2728 18.4091 14.3057 18.072 14.3632C15.7621 14.7332 13.7234 16.2704 12.6794 18.4078C12.1286 19.5504 11.9806 20.2656 11.9231 22.1728L11.8737 23.784L11.1997 23.8251C10.8297 23.8498 10.4351 23.9155 10.3283 23.9731C10.2214 24.0306 9.32537 24.8691 8.34712 25.8473L6.55504 27.6312V25.7487C6.55504 23.8909 6.55504 23.858 6.34953 23.5209C6.22622 23.3072 5.97961 23.0606 5.71655 22.8962C4.49169 22.1152 3.5381 20.8328 3.08597 19.3531C2.91334 18.7777 2.90512 18.5886 2.87224 14.8565C2.8558 12.2588 2.87224 10.7215 2.938 10.2612C3.22572 8.07453 4.62322 6.22491 6.63725 5.38641C7.77991 4.9014 7.79635 4.9014 17.4637 4.9014C26.5639 4.9014 26.9667 4.91784 27.912 5.23844C28.4875 5.43573 28.6765 5.43573 28.8985 5.23022C29.104 5.04115 29.1451 4.60546 28.9807 4.3835C28.9232 4.30952 28.6519 4.16977 28.3806 4.07112C27.2544 3.67654 27.2462 3.67654 17.4062 3.67654C8.76637 3.67654 8.10873 3.69298 7.44286 3.83273Z" fill="white"/>
<path d="M7.16335 11.2642C6.93317 11.4944 6.88385 11.6095 6.88385 11.889C6.88385 12.1685 6.93317 12.2835 7.16335 12.5137C7.3853 12.7357 7.50861 12.7932 7.76345 12.7932C8.43753 12.7932 8.85678 12.2507 8.68415 11.6012C8.56906 11.2066 8.2649 10.9847 7.81277 10.9847C7.50039 10.9847 7.40174 11.0258 7.16335 11.2642Z" fill="white"/>
<path d="M10.0652 11.1491C9.78572 11.3711 9.67063 11.7985 9.76928 12.1767C9.87614 12.5466 10.2296 12.7932 10.6653 12.7932C10.9448 12.7932 11.0599 12.7439 11.2901 12.5137C11.5203 12.2835 11.5696 12.1685 11.5696 11.889C11.5696 11.6095 11.5203 11.4944 11.2901 11.2642C11.0517 11.0258 10.953 10.9847 10.6407 10.9847C10.4023 10.9847 10.205 11.0422 10.0652 11.1491Z" fill="white"/>
<path d="M12.9999 11.0751C12.7533 11.1984 12.556 11.5766 12.556 11.9301C12.556 12.3575 12.9917 12.7932 13.4192 12.7932C14.0193 12.7932 14.3563 12.4644 14.3646 11.8725C14.3646 11.5519 14.3234 11.445 14.1097 11.2395C13.9042 11.034 13.7891 10.9847 13.5178 10.9929C13.3288 10.9929 13.0986 11.034 12.9999 11.0751Z" fill="white"/>
<path d="M21.3109 17.4707C20.1354 17.7913 19.264 18.3174 18.4748 19.1806C17.9158 19.7971 17.3157 20.8987 17.1513 21.6303C17.0609 22.0249 17.0116 22.1071 16.7896 22.1975C16.395 22.3702 15.9593 22.7894 15.7456 23.2169C15.5647 23.5786 15.5565 23.6937 15.5565 25.2474C15.5565 26.7764 15.573 26.9161 15.7374 27.2285C16.4279 28.5191 17.9569 28.7986 19.0174 27.8204C19.5928 27.2943 19.6668 26.9819 19.6668 25.1652C19.6668 23.6279 19.6668 23.595 19.4448 23.184C19.2229 22.7648 18.853 22.3866 18.4995 22.2222C18.2611 22.1153 18.294 21.9345 18.7214 21.0549C19.6092 19.2053 21.7219 18.2024 23.7195 18.6709C24.484 18.8518 25.1417 19.2217 25.7911 19.8382C26.2432 20.2575 26.4405 20.5206 26.6871 21.0467C27.1722 22.0414 27.1722 22.1236 26.7858 22.3291C26.4241 22.5099 26.1117 22.8798 25.9144 23.3402C25.7582 23.7183 25.7336 26.5215 25.8897 27.0312C25.9966 27.3929 26.5309 28.0423 26.7776 28.1246C27.0324 28.2068 26.9749 28.3794 26.5309 28.8315L26.1281 29.259L25.8322 29.0042C25.3801 28.6013 25.0595 28.4698 24.4265 28.4287C22.955 28.3383 21.9685 29.2919 22.2069 30.5743C22.2727 30.9278 22.7495 31.4868 23.1934 31.7252C23.4647 31.8649 23.6702 31.906 24.2292 31.906C24.8622 31.906 24.969 31.8813 25.3801 31.6512C25.7089 31.4621 25.898 31.2812 26.087 30.9771C26.2597 30.6894 26.5063 30.4427 26.8515 30.2126C27.427 29.8262 27.7311 29.4809 28.0929 28.8151C28.2737 28.478 28.4052 28.3218 28.5861 28.2561C28.9971 28.1163 29.367 27.7793 29.6219 27.3272L29.8603 26.8915V25.2063C29.8603 23.6361 29.852 23.4964 29.6794 23.1922C29.4492 22.7648 29.0382 22.3702 28.6518 22.2058C28.4792 22.14 28.3395 22.0249 28.3395 21.9509C28.3395 21.6796 27.9038 20.537 27.6161 20.0684C26.942 18.9504 25.7911 18.0215 24.5498 17.6023C23.6209 17.2899 22.1905 17.2323 21.3109 17.4707ZM18.1542 23.5539L18.3926 23.7923V25.2227C18.3926 26.7846 18.3597 26.9079 17.9076 27.097C17.5952 27.2203 17.2911 27.1545 17.028 26.8915C16.8307 26.6942 16.8307 26.6695 16.8307 25.2391V23.7759L17.0527 23.5457C17.365 23.2169 17.8172 23.2251 18.1542 23.5539ZM28.3641 23.5293C28.6354 23.8005 28.693 24.1705 28.6601 25.5269C28.6272 26.4558 28.6025 26.6202 28.4546 26.8257C28.2326 27.1216 27.8545 27.2367 27.5174 27.097C27.0817 26.9161 27.0242 26.686 27.0242 25.1652V23.7923L27.2626 23.5539C27.5914 23.2333 28.06 23.2169 28.3641 23.5293ZM24.8868 29.8509C25.3883 30.303 24.6238 30.8867 23.8675 30.6318C23.3496 30.4674 23.2592 30.0646 23.6784 29.8015C23.999 29.596 24.6402 29.6207 24.8868 29.8509Z" fill="white"/>
<path d="M31.0605 19.83C30.8304 20.1177 30.8468 20.3972 31.0934 20.6439L31.2907 20.8494H33.9953C36.6094 20.8494 36.7081 20.8411 36.9218 20.6767C37.2013 20.4548 37.2177 20.0438 36.9465 19.7971C36.7574 19.6163 36.7163 19.6163 33.9953 19.6163H31.2249L31.0605 19.83Z" fill="white"/>
<path d="M31.0934 22.6167C30.8468 22.8633 30.8304 23.1428 31.0605 23.4306L31.2249 23.6443H33.4281C35.6229 23.6443 35.6312 23.6443 35.8038 23.4552C36.0586 23.1839 36.0422 22.7976 35.7709 22.5838C35.5654 22.4194 35.4503 22.4112 33.4198 22.4112H31.2907L31.0934 22.6167Z" fill="white"/>
</svg>
