<svg width="24" height="24" viewBox="0 0 24 24" fill="none" xmlns="http://www.w3.org/2000/svg">
<path d="M19.7143 3H4.28571C3.94472 3 3.6177 3.13546 3.37658 3.37658C3.13546 3.6177 3 3.94472 3 4.28571V19.7143C3 20.0553 3.13546 20.3823 3.37658 20.6234C3.6177 20.8645 3.94472 21 4.28571 21H19.7143C20.0553 21 20.3823 20.8645 20.6234 20.6234C20.8645 20.3823 21 20.0553 21 19.7143V4.28571C21 3.94472 20.8645 3.6177 20.6234 3.37658C20.3823 3.13546 20.0553 3 19.7143 3ZM20.1429 19.7143C20.1429 19.828 20.0977 19.937 20.0173 20.0173C19.937 20.0977 19.828 20.1429 19.7143 20.1429H4.28571C4.17205 20.1429 4.06304 20.0977 3.98267 20.0173C3.9023 19.937 3.85714 19.828 3.85714 19.7143V4.28571C3.85714 4.17205 3.9023 4.06304 3.98267 3.98267C4.06304 3.9023 4.17205 3.85714 4.28571 3.85714H19.7143C19.828 3.85714 19.937 3.9023 20.0173 3.98267C20.0977 4.06304 20.1429 4.17205 20.1429 4.28571V19.7143Z" fill="#EC1F1F"/>
</svg>
