<svg width="18" height="19" viewBox="0 0 18 19" fill="none" xmlns="http://www.w3.org/2000/svg">
<path d="M7.75 7.48047C7.75 7.39759 7.71708 7.3181 7.65847 7.2595C7.59987 7.20089 7.52038 7.16797 7.4375 7.16797C7.35462 7.16797 7.27513 7.20089 7.21653 7.2595C7.15792 7.3181 7.125 7.39759 7.125 7.48047V14.3555C7.125 14.4383 7.15792 14.5178 7.21653 14.5764C7.27513 14.635 7.35462 14.668 7.4375 14.668C7.52038 14.668 7.59987 14.635 7.65847 14.5764C7.71708 14.5178 7.75 14.4383 7.75 14.3555V7.48047ZM10.5625 7.16797C10.6454 7.16797 10.7249 7.20089 10.7835 7.2595C10.8421 7.3181 10.875 7.39759 10.875 7.48047V14.3555C10.875 14.4383 10.8421 14.5178 10.7835 14.5764C10.7249 14.635 10.6454 14.668 10.5625 14.668C10.4796 14.668 10.4001 14.635 10.3415 14.5764C10.2829 14.5178 10.25 14.4383 10.25 14.3555V7.48047C10.25 7.39759 10.2829 7.3181 10.3415 7.2595C10.4001 7.20089 10.4796 7.16797 10.5625 7.16797ZM11.8125 3.73047V4.04297H16.8125C16.8954 4.04297 16.9749 4.07589 17.0335 4.1345C17.0921 4.1931 17.125 4.27259 17.125 4.35547C17.125 4.43835 17.0921 4.51783 17.0335 4.57644C16.9749 4.63504 16.8954 4.66797 16.8125 4.66797H15.2231L14.2056 15.8598C14.1421 16.5589 13.8195 17.209 13.3012 17.6823C12.7829 18.1556 12.1063 18.418 11.4044 18.418H6.59562C5.89369 18.418 5.2171 18.1556 4.69878 17.6823C4.18045 17.209 3.85786 16.5589 3.79437 15.8598L2.77688 4.66797H1.1875C1.10462 4.66797 1.02513 4.63504 0.966529 4.57644C0.907924 4.51783 0.875 4.43835 0.875 4.35547C0.875 4.27259 0.907924 4.1931 0.966529 4.1345C1.02513 4.07589 1.10462 4.04297 1.1875 4.04297H6.1875V3.73047C6.1875 2.98455 6.48382 2.26918 7.01126 1.74173C7.53871 1.21428 8.25408 0.917969 9 0.917969C9.74592 0.917969 10.4613 1.21428 10.9887 1.74173C11.5162 2.26918 11.8125 2.98455 11.8125 3.73047ZM6.8125 3.73047V4.04297H11.1875V3.73047C11.1875 3.15031 10.957 2.59391 10.5468 2.18367C10.1366 1.77344 9.58016 1.54297 9 1.54297C8.41984 1.54297 7.86344 1.77344 7.4532 2.18367C7.04297 2.59391 6.8125 3.15031 6.8125 3.73047ZM3.405 4.66797L4.4175 15.8036C4.46692 16.347 4.71768 16.8524 5.12055 17.2205C5.52342 17.5885 6.04931 17.7927 6.595 17.793H11.4038C11.9497 17.793 12.4759 17.589 12.879 17.2209C13.2821 16.8528 13.5331 16.3473 13.5825 15.8036L14.5956 4.66797H3.405Z" fill="#666666"/>
</svg>
