<svg width="24" height="24" viewBox="0 0 24 24" fill="none" xmlns="http://www.w3.org/2000/svg">
<path fill-rule="evenodd" clip-rule="evenodd" d="M11.9993 2.10087C11.5756 2.10087 11.1691 2.27469 10.8695 2.58409C10.5698 2.8935 10.4014 3.31314 10.4014 3.7507C10.4014 4.18827 10.5698 4.60791 10.8695 4.91731C11.1691 5.22672 11.5756 5.40054 11.9993 5.40054C12.4231 5.40054 12.8296 5.22672 13.1292 4.91731C13.4289 4.60791 13.5972 4.18827 13.5972 3.7507C13.5972 3.31314 13.4289 2.8935 13.1292 2.58409C12.8296 2.27469 12.4231 2.10087 11.9993 2.10087ZM9.33618 3.7507C9.33618 3.02143 9.61676 2.32203 10.1162 1.80635C10.6156 1.29068 11.293 1.00098 11.9993 1.00098C12.7057 1.00098 13.383 1.29068 13.8825 1.80635C14.3819 2.32203 14.6625 3.02143 14.6625 3.7507C14.6625 4.47998 14.3819 5.17938 13.8825 5.69505C13.383 6.21073 12.7057 6.50043 11.9993 6.50043C11.293 6.50043 10.6156 6.21073 10.1162 5.69505C9.61676 5.17938 9.33618 4.47998 9.33618 3.7507ZM11.9919 7.05038C14.148 7.04048 16.2583 7.43974 18.8378 8.21626C19.0418 8.27452 19.2326 8.37405 19.399 8.50907C19.5655 8.64409 19.7043 8.81191 19.8074 9.00279C19.9105 9.19366 19.9758 9.40379 19.9996 9.62096C20.0234 9.83813 20.0052 10.058 19.946 10.2679C19.8868 10.4777 19.7878 10.6733 19.6548 10.8433C19.5217 11.0133 19.3573 11.1543 19.1711 11.2581C18.9848 11.362 18.7804 11.4266 18.5698 11.4482C18.3591 11.4698 18.1464 11.4479 17.944 11.3839C17.5696 11.2711 17.1935 11.164 16.8159 11.0628C17.0716 11.9344 17.2916 12.8424 17.3219 13.7317C17.3624 14.9256 17.0636 16.1008 16.1038 17.1501L15.7214 21.4985C15.6846 21.9218 15.491 22.3141 15.181 22.5937C14.8711 22.8733 14.4685 23.0186 14.0574 22.9993C13.6462 22.98 13.2581 22.7976 12.9739 22.4902C12.6897 22.1827 12.5314 21.7739 12.532 21.349V18.5965C12.3576 18.5987 12.1833 18.5996 12.0089 18.5992H11.9898C11.8154 18.5996 11.6411 18.5987 11.4667 18.5965V21.349C11.4673 21.7739 11.3089 22.1827 11.0248 22.4902C10.7406 22.7976 10.3525 22.98 9.94132 22.9993C9.53015 23.0186 9.12762 22.8733 8.81763 22.5937C8.50763 22.3141 8.31408 21.9218 8.27731 21.4985L7.89435 17.1501C6.93827 16.1041 6.63734 14.9333 6.67622 13.7427C6.70498 12.8545 6.92336 11.9482 7.17849 11.0771C6.81275 11.1717 6.43156 11.276 6.03493 11.39C5.62654 11.507 5.18987 11.4516 4.82099 11.2362C4.4521 11.0208 4.18122 10.6628 4.06792 10.2412C3.95463 9.81949 4.00821 9.36863 4.21688 8.98775C4.42554 8.60688 4.7722 8.32719 5.18059 8.21021C7.73829 7.47713 9.84112 7.06137 11.9919 7.05038ZM18.5401 9.27215C16.0154 8.51268 14.0138 8.14092 11.9967 8.15027C9.98173 8.15962 7.98223 8.54898 5.46501 9.26995C5.32884 9.30897 5.21325 9.40224 5.14368 9.52925C5.07411 9.65626 5.05625 9.80661 5.09404 9.94721C5.13182 10.0878 5.22216 10.2072 5.34517 10.279C5.46818 10.3508 5.6138 10.3693 5.74997 10.3302C6.44653 10.1286 7.14806 9.94578 7.85387 9.78195L8.76147 9.57407L8.47598 10.4875C8.10847 11.6617 7.77397 12.7533 7.74095 13.7795C7.70899 14.7683 7.95933 15.679 8.78118 16.5127L8.92073 16.6541L9.33831 21.3984C9.35057 21.5395 9.41506 21.6703 9.51835 21.7634C9.62164 21.8566 9.75577 21.9051 9.8928 21.8987C10.0298 21.8923 10.1592 21.8316 10.2539 21.7292C10.3487 21.6268 10.4015 21.4906 10.4014 21.349V17.4372L10.9698 17.4768C11.2893 17.4988 11.6244 17.4993 11.9993 17.4993C12.3743 17.4993 12.7093 17.4993 13.0289 17.4773L13.5972 17.4366V21.349C13.5971 21.4906 13.65 21.6268 13.7447 21.7292C13.8395 21.8316 13.9688 21.8923 14.1059 21.8987C14.2429 21.9051 14.377 21.8566 14.4803 21.7634C14.5836 21.6703 14.6481 21.5395 14.6604 21.3984L15.0779 16.6541L15.2175 16.5127C16.042 15.6768 16.2913 14.7634 16.2572 13.7702C16.2226 12.7401 15.8844 11.6446 15.5163 10.4666L15.2292 9.54933L16.14 9.76161C16.7983 9.91449 17.4934 10.1026 18.2418 10.328C18.3774 10.3689 18.5232 10.3524 18.647 10.2823C18.7709 10.2122 18.8627 10.0941 18.9022 9.95409C18.9418 9.81407 18.9259 9.66356 18.8579 9.53567C18.79 9.40778 18.6757 9.31299 18.5401 9.27215Z" fill="#74BC1F" stroke="#74BC1F" stroke-width="0.5"/>
</svg>
