<svg width="176" height="50" viewBox="0 0 176 50" fill="none" xmlns="http://www.w3.org/2000/svg">
<g id="other / green chart" opacity="0.15">
<path id="Vector 1" d="M1 30.474C1 30.474 18.2932 22.5893 34.6929 21.5987C47.703 20.8128 56.3529 23.5823 69.3916 22.964C93.6658 21.8127 93.6018 -1.98572 117.668 0.133487C135.788 1.72907 148.162 20.79 166.447 21.5987C174.219 21.9424 174.943 21.6924 174.996 21.6178V21.5987C174.996 21.5987 175.005 21.6061 174.996 21.6178V50H1V30.474Z" fill="url(#paint0_linear_4654_74462)"/>
<path id="Vector 2" d="M1 43.2275C1 43.2275 21.0056 32.2021 37.4054 31.2115C50.4154 30.4257 57.0244 36.0355 70.0631 35.4171C94.3373 34.2659 94.1805 11.0682 118.247 13.1875C136.367 14.783 134.226 30.4028 152.511 31.2115C161.509 31.6095 174.996 28.2075 174.996 28.2075" stroke="#74BC1F" stroke-linecap="round"/>
</g>
<defs>
<linearGradient id="paint0_linear_4654_74462" x1="87.9981" y1="6.4419" x2="87.9981" y2="50" gradientUnits="userSpaceOnUse">
<stop stop-color="#74BC1F"/>
<stop offset="1" stop-color="#74BC1F" stop-opacity="0"/>
</linearGradient>
</defs>
</svg>
