<svg width="18" height="18" viewBox="0 0 18 18" fill="none" xmlns="http://www.w3.org/2000/svg">
<g id="Group">
<path id="Vector" d="M5.0887 0.702528C2.45545 1.08383 0.548943 3.37163 0.666266 6.00163C0.698856 6.71209 0.861805 7.35411 1.17793 8.0059C1.66351 9.00641 2.4587 9.82115 3.43966 10.323C3.60261 10.4078 3.73948 10.4762 3.74274 10.4795C3.76882 10.499 4.09797 11.6136 4.21204 12.0699C4.37499 12.7216 4.41083 12.7803 4.64548 12.7803C4.76606 12.7803 4.80191 12.764 4.87361 12.6793C4.92575 12.6174 4.95834 12.5391 4.95834 12.474C4.95834 12.3501 4.80517 11.7048 4.64548 11.1704C4.58356 10.9585 4.53793 10.776 4.54771 10.7695C4.55749 10.7597 4.69437 10.7793 4.8508 10.8119C5.07567 10.8608 5.27772 10.8738 5.77309 10.8738C6.44444 10.8705 6.68886 10.8412 7.22659 10.6848L7.48731 10.6066L7.60138 10.7011C7.76758 10.8412 8.20103 11.0465 8.49108 11.1182C8.77135 11.1899 9.25368 11.2062 9.36122 11.1508C9.42966 11.1117 9.52091 10.9553 9.52091 10.8705C9.52091 10.838 9.47203 10.7174 9.41011 10.6001C9.27975 10.3491 9.20805 10.1047 9.17872 9.83093L9.15917 9.63539L9.41337 9.37467C9.80445 8.97382 10.0847 8.57622 10.3357 8.07108C10.5833 7.56594 10.6909 7.26611 10.7984 6.77075C10.8604 6.49374 10.8701 6.33731 10.8701 5.7735C10.8701 5.20644 10.8604 5.05327 10.7984 4.77625C10.6518 4.10164 10.365 3.42704 9.99673 2.8893C9.67409 2.42001 9.14287 1.88228 8.71269 1.58897C8.60188 1.51727 8.51389 1.44558 8.51063 1.4358C8.51063 1.39995 9.00274 1.33477 9.43944 1.31848C10.8799 1.25656 12.3302 1.78125 13.448 2.76872C14.354 3.56717 15.0058 4.69478 15.2567 5.89083C15.2926 6.07007 15.3382 6.46115 15.3545 6.76749C15.4034 7.59201 15.4457 7.91139 15.5468 8.28617C15.6543 8.68703 15.7423 8.8956 16.2768 10.0591C16.5017 10.5414 16.6809 10.9422 16.6744 10.9488C16.6711 10.9553 16.368 11.0889 16.0063 11.2453C15.6413 11.4018 15.3121 11.5647 15.273 11.6006C15.1981 11.6723 15.1981 11.6853 15.185 12.6923C15.172 13.6244 15.1622 13.7254 15.1003 13.921C14.9569 14.3511 14.5984 14.7161 14.178 14.8661C13.989 14.9345 13.8945 14.941 13.1286 14.954C12.3073 14.9703 12.2845 14.9736 12.1998 15.0453L12.1118 15.1203L12.102 15.9057L12.0922 16.6911H8.71921H5.34942L5.34616 16.1273C5.3429 15.4005 5.32009 15.2376 5.20603 15.1366C5.03982 14.9932 4.77584 15.0616 4.70088 15.2669C4.68785 15.306 4.68459 15.746 4.69111 16.2446C4.70414 17.1343 4.7074 17.1539 4.7791 17.2386L4.85406 17.3266L8.6638 17.3364C11.4861 17.3429 12.4931 17.3331 12.5615 17.307C12.731 17.2353 12.7473 17.1571 12.7473 16.3554V15.6254L13.3926 15.6058C14.1226 15.583 14.2888 15.5504 14.6864 15.3451C15.0449 15.1594 15.3871 14.8139 15.5761 14.4554C15.7879 14.0415 15.8173 13.8688 15.8401 12.8813L15.8596 12.021L16.43 11.7733C16.7428 11.6364 17.0394 11.4963 17.0883 11.4637C17.1372 11.4311 17.2154 11.3268 17.2643 11.229C17.3979 10.952 17.3816 10.8901 16.8113 9.65169C16.5342 9.05204 16.267 8.43609 16.2181 8.28292C16.1041 7.91791 16.0487 7.52032 16.0095 6.76749C15.9541 5.79631 15.7814 5.09889 15.3838 4.27437C14.9895 3.45311 14.4452 2.75243 13.7478 2.16907C12.1053 0.790522 9.96414 0.324488 7.90446 0.904585L7.60463 0.989319L7.34066 0.904585C6.65301 0.686234 5.75679 0.608019 5.0887 0.702528ZM6.6139 1.39017C8.18473 1.69652 9.50462 2.8502 10.0065 4.3591C10.1825 4.8838 10.2216 5.14778 10.2216 5.7735C10.2216 6.39271 10.1825 6.64365 10.0098 7.19116C9.80445 7.82992 9.48181 8.3481 8.93104 8.91842L8.553 9.30949L8.53344 9.52459C8.51063 9.73642 8.54648 10.1242 8.6084 10.3393C8.65403 10.499 8.65403 10.499 8.51715 10.4534C8.30532 10.3784 8.05763 10.2416 7.93053 10.1275C7.74803 9.96781 7.65678 9.91241 7.56879 9.91241C7.52642 9.91241 7.33414 9.96129 7.14512 10.0232C6.63346 10.1894 6.1772 10.2513 5.62643 10.2285C5.12455 10.2122 4.80191 10.1536 4.35869 10.0069C2.84978 9.50503 1.68959 8.17863 1.38976 6.61432C1.28547 6.06355 1.29199 5.34332 1.41257 4.8284L1.44842 4.66871L1.59833 4.93594C1.77758 5.25206 1.9112 5.45412 2.13281 5.73765L2.29901 5.94297V6.42204C2.30553 6.96629 2.3479 7.16834 2.5467 7.58549C3.18872 8.92168 4.80843 9.49526 6.1772 8.87279C6.3597 8.79132 6.41837 8.78154 6.73775 8.77828C7.48405 8.77502 8.10326 8.53386 8.64751 8.02872C8.86586 7.8234 9.14939 7.41277 9.27323 7.1162C9.55025 6.45789 9.53395 5.64966 9.23087 5.00112C9.0451 4.61005 8.63447 4.10816 8.37049 3.95499C8.31183 3.91914 8.23362 3.81485 8.16192 3.67146C7.99571 3.3423 7.79691 3.07507 7.53945 2.83716C7.02128 2.35809 6.39881 2.12344 5.6688 2.12344C4.91598 2.1267 4.29351 2.37439 3.76556 2.8893C3.31908 3.32601 3.07791 3.77901 2.97688 4.37866C2.93452 4.63286 2.89867 4.74366 2.83675 4.8284C2.78786 4.89032 2.70965 5.00438 2.66076 5.07934C2.61188 5.15755 2.56625 5.21947 2.55973 5.21947C2.54018 5.21947 2.18821 4.66871 2.10674 4.50576C2.05785 4.40799 1.9666 4.19616 1.90468 4.03647L1.79387 3.74642L1.90794 3.54436C2.08392 3.2315 2.44241 2.78502 2.74224 2.50474C3.44618 1.85295 4.31306 1.45535 5.31683 1.32825C5.54496 1.29892 6.34993 1.33803 6.6139 1.39017ZM6.18046 2.82412C6.47051 2.89908 6.87462 3.10766 7.07668 3.29016L7.25592 3.45311L6.90721 3.43681C6.40533 3.41074 5.88715 3.50851 5.51237 3.70405C5.42764 3.74642 5.30705 3.76271 5.01049 3.76923C4.59008 3.77575 4.30655 3.83115 3.97739 3.96477C3.86658 4.01039 3.76882 4.03972 3.7623 4.03321C3.75252 4.02669 3.78511 3.94847 3.83074 3.86048C4.0719 3.38141 4.58682 2.98056 5.15388 2.82738C5.39179 2.7622 5.93604 2.7622 6.18046 2.82412ZM7.37651 4.17334C7.70892 4.28089 7.72848 4.3037 7.75129 4.65567C7.77084 4.95876 7.73173 5.25206 7.65026 5.45086L7.60789 5.55189L7.50687 5.34006C7.30481 4.90987 6.91373 4.45036 6.54547 4.21897C6.46399 4.16357 6.40533 4.10816 6.41837 4.09513C6.46725 4.04624 7.15164 4.10164 7.37651 4.17334ZM4.44668 4.63938C4.16315 5.05978 4.01324 5.55841 4.01324 6.08962C4.01324 6.27538 4.00346 6.4253 3.99043 6.42204C3.87636 6.41552 3.06813 5.82239 3.06813 5.74743C3.06813 5.52908 3.6352 4.86751 3.97413 4.685C4.15012 4.59049 4.45646 4.47317 4.5249 4.46991C4.54445 4.46991 4.51186 4.54813 4.44668 4.63938ZM5.72094 4.53509C6.14135 4.67848 6.53569 4.98809 6.77685 5.35635C6.90721 5.55841 7.05387 5.93971 7.08646 6.16784C7.10275 6.27864 7.09297 6.29494 6.95284 6.39923C6.73775 6.56217 6.5031 6.67298 6.20653 6.75445C5.98818 6.81637 5.89693 6.82289 5.51237 6.8066C5.2712 6.80008 4.99745 6.77401 4.9062 6.7512C4.74325 6.70883 4.73999 6.70557 4.70088 6.54914C4.65526 6.34382 4.65526 5.89408 4.70088 5.66921C4.76606 5.34657 4.97138 4.97505 5.2321 4.71107C5.36246 4.57746 5.4863 4.46991 5.50259 4.46991C5.51889 4.46991 5.61992 4.49924 5.72094 4.53509ZM8.6084 5.22273C8.76157 5.52256 8.81697 5.75395 8.81372 6.11569C8.8072 6.97932 8.2825 7.70608 7.4482 8.01242C7.32762 8.05479 7.22333 8.08412 7.21682 8.07434C7.20704 8.06456 7.23637 8.00916 7.282 7.9505C7.49383 7.67023 7.6633 7.23027 7.73173 6.7903C7.76107 6.58499 7.7904 6.51329 7.93705 6.30146C8.03156 6.16132 8.15214 5.93971 8.20755 5.80609C8.30532 5.5747 8.41286 5.14452 8.41286 4.98483C8.41612 4.90987 8.41612 4.90987 8.465 4.97505C8.49434 5.0109 8.55626 5.12171 8.6084 5.22273ZM3.32233 6.79682C3.51136 6.91414 4.00346 7.15857 4.1436 7.20419C4.23159 7.23027 4.27722 7.27589 4.33914 7.39321C4.47927 7.66045 4.78888 8.01242 5.05937 8.21774C5.20277 8.32528 5.33964 8.41328 5.3592 8.41653C5.47326 8.42631 5.20603 8.47194 5.02352 8.4752C4.24788 8.48497 3.48854 8.01568 3.14961 7.32152C3.02903 7.08035 2.93778 6.76749 2.93778 6.61106V6.51655L3.06162 6.61432C3.1268 6.66646 3.24412 6.74794 3.32233 6.79682ZM6.84529 7.42255C6.741 7.60831 6.39881 7.99938 6.29127 8.05805C6.16417 8.12323 5.56451 7.83644 5.32661 7.59201L5.20603 7.46817H5.60362C6.05662 7.46817 6.40207 7.40951 6.71819 7.27589C6.83552 7.22701 6.93328 7.20093 6.9398 7.21397C6.94632 7.22701 6.90395 7.32152 6.84529 7.42255Z" fill="#74BC1F"/>
<path id="Vector_2" d="M13.5719 7.35409C13.4578 7.40298 13.3665 7.54963 13.3665 7.68651C13.3665 7.88205 13.158 8.08736 12.9592 8.08736C12.7473 8.08736 12.5681 8.28942 12.6072 8.48822C12.617 8.5371 12.6691 8.61532 12.7245 8.66094C12.8158 8.73916 12.8451 8.74568 13.0309 8.72938C13.5393 8.69027 13.9564 8.27964 14.0086 7.77776C14.0314 7.55289 13.9792 7.42253 13.8391 7.35735C13.712 7.29543 13.7055 7.29543 13.5719 7.35409Z" fill="#74BC1F"/>
<path id="Vector_3" d="M4.66179 13.6896C4.50862 13.8428 4.54446 14.0839 4.73674 14.1947C5.00398 14.3544 5.32662 14.0318 5.16693 13.7645C5.05612 13.5723 4.81496 13.5364 4.66179 13.6896Z" fill="#74BC1F"/>
</g>
</svg>
