<svg width="175" height="50" viewBox="0 0 175 50" fill="none" xmlns="http://www.w3.org/2000/svg">
<g id="other / red chart" opacity="0.15">
<path id="Vector 5" d="M22.3714 22.9531C11.4818 24.0712 9.94286 23.7889 0 20.7688L1.98857 50H174V13.592C164.627 6.15869 164.554 1.42259 151.629 0.174439C134.934 -1.4376 116.061 8.60551 99.4286 10.4716C80.1622 12.6333 72.3432 4.85286 53.1943 7.35128C36.4533 9.53553 39.4074 21.204 22.3714 22.9531Z" fill="url(#paint0_linear_4654_74466)"/>
<path id="Vector 7" d="M1.98853 35.9583C10.9236 40.0005 11.9789 38.7369 22.8685 37.6188C39.9045 35.8697 34.8013 23.3967 50.7085 19.2087C68.7444 14.4602 85.6307 28.2351 104.897 26.0735C121.529 24.2073 133.842 8.84022 149.998 11.9315C164.49 14.7043 164.627 23.5324 174 30.9658" stroke="#EC4F4F"/>
</g>
<defs>
<linearGradient id="paint0_linear_4654_74466" x1="87.9943" y1="12.3438" x2="87.9943" y2="50" gradientUnits="userSpaceOnUse">
<stop stop-color="#EC4F4F"/>
<stop offset="1" stop-color="#EC4F4F" stop-opacity="0"/>
</linearGradient>
</defs>
</svg>
