<svg width="20" height="20" viewBox="0 0 20 20" fill="none" xmlns="http://www.w3.org/2000/svg">
<g id="icon / spo2">
<path id="Vector" d="M10.4808 15.8333C10.3086 15.8333 10.1586 15.7694 10.0308 15.6417C9.90306 15.5139 9.83917 15.3639 9.83917 15.1917V11.9875C9.83917 11.8153 9.90306 11.6653 10.0308 11.5375C10.1586 11.4097 10.3086 11.3458 10.4808 11.3458H12.4358C12.6081 11.3458 12.7581 11.4097 12.8858 11.5375C13.0136 11.6653 13.0775 11.8153 13.0775 11.9875V15.1925C13.0775 15.3647 13.0136 15.5147 12.8858 15.6425C12.7581 15.7703 12.6081 15.8339 12.4358 15.8333H10.4808ZM10.5767 15.0958H12.34V12.0833H10.5767V15.0958ZM17.2275 18.0767H14.9683C14.7867 18.0767 14.6344 18.0156 14.5117 17.8933C14.3883 17.77 14.3267 17.6175 14.3267 17.4358V16.1058C14.3267 15.9242 14.3881 15.7719 14.5108 15.6492C14.6336 15.5264 14.7858 15.465 14.9675 15.465H16.8592V14.3267H14.695C14.5889 14.3267 14.5011 14.2919 14.4317 14.2225C14.3617 14.1531 14.3267 14.0653 14.3267 13.9592C14.3267 13.8531 14.3617 13.765 14.4317 13.695C14.5017 13.625 14.5894 13.59 14.695 13.59H16.955C17.1367 13.59 17.2889 13.6511 17.4117 13.7733C17.535 13.8967 17.5967 14.0492 17.5967 14.2308V15.5608C17.5967 15.7425 17.535 15.8947 17.4117 16.0175C17.2889 16.1403 17.1367 16.2017 16.955 16.2017H15.0642V17.34H17.2275C17.3342 17.34 17.4222 17.3747 17.4917 17.4442C17.5617 17.5136 17.5967 17.6014 17.5967 17.7075C17.5967 17.8142 17.5617 17.9022 17.4917 17.9717C17.4222 18.0417 17.3342 18.0767 17.2275 18.0767ZM8.33333 3C8.41222 3 8.49139 3.01472 8.57083 3.04417C8.65028 3.07361 8.72667 3.11778 8.8 3.17667C9.225 3.56778 9.65333 3.975 10.085 4.39833C10.5167 4.82167 10.9311 5.26583 11.3283 5.73083C11.7256 6.19583 12.0997 6.6725 12.4508 7.16083C12.8019 7.64917 13.1125 8.15278 13.3825 8.67167C13.4375 8.77333 13.4436 8.87806 13.4008 8.98583C13.3586 9.09417 13.2853 9.16639 13.1808 9.2025C13.0764 9.23861 12.9742 9.2375 12.8742 9.19917C12.7742 9.16083 12.6953 9.09056 12.6375 8.98833C12.3908 8.52056 12.1 8.05778 11.765 7.6C11.43 7.14222 11.0728 6.695 10.6933 6.25833C10.3139 5.82167 9.92083 5.40278 9.51417 5.00167C9.10861 4.60111 8.715 4.22556 8.33333 3.875C6.68056 5.38889 5.43417 6.78472 4.59417 8.0625C3.75417 9.34028 3.33389 10.4861 3.33333 11.5C3.33333 12.7744 3.70139 13.8914 4.4375 14.8508C5.17361 15.8103 6.18639 16.3872 7.47583 16.5817C7.59472 16.6083 7.69139 16.6689 7.76583 16.7633C7.84083 16.8578 7.85806 16.9575 7.8175 17.0625C7.77028 17.1931 7.68722 17.2853 7.56833 17.3392C7.44944 17.3931 7.3225 17.405 7.1875 17.375C5.76361 17.1228 4.62639 16.4383 3.77583 15.3217C2.92528 14.2044 2.5 12.9306 2.5 11.5C2.5 10.715 2.68278 9.93222 3.04833 9.15167C3.41389 8.37111 3.86722 7.61889 4.40833 6.895C4.94944 6.17111 5.53222 5.4925 6.15667 4.85917C6.78111 4.22583 7.35667 3.66667 7.88333 3.18167C7.95556 3.11944 8.02861 3.07361 8.1025 3.04417C8.1775 3.01472 8.25444 3 8.33333 3Z" fill="#74BC1F"/>
</g>
</svg>
