<svg id="f_icon_sp_3" width="120" height="97" viewBox="0 0 120 97" fill="none"
    xmlns="http://www.w3.org/2000/svg">
    <rect x="31" y="76" width="59" height="21" rx="10.5" fill="#699EDC" />
    <path
        d="M52.471 86.925V91.02C51.9577 91.398 51.4093 91.6757 50.826 91.853C50.2473 92.0257 49.6267 92.112 48.964 92.112C48.138 92.112 47.389 91.9837 46.717 91.727C46.0497 91.4703 45.478 91.1133 45.002 90.656C44.5307 90.1987 44.1667 89.6527 43.91 89.018C43.6533 88.3833 43.525 87.6903 43.525 86.939C43.525 86.1783 43.6487 85.4807 43.896 84.846C44.1433 84.2113 44.4933 83.6653 44.946 83.208C45.4033 82.7507 45.9563 82.396 46.605 82.144C47.2537 81.892 47.9817 81.766 48.789 81.766C49.1997 81.766 49.5823 81.7987 49.937 81.864C50.2963 81.9293 50.6277 82.0203 50.931 82.137C51.239 82.249 51.519 82.3867 51.771 82.55C52.023 82.7133 52.254 82.893 52.464 83.089L51.925 83.943C51.841 84.0783 51.7313 84.1623 51.596 84.195C51.4607 84.223 51.3137 84.188 51.155 84.09C51.001 84.0013 50.847 83.9127 50.693 83.824C50.539 83.7353 50.3663 83.6583 50.175 83.593C49.9883 83.5277 49.776 83.474 49.538 83.432C49.3047 83.39 49.034 83.369 48.726 83.369C48.2267 83.369 47.774 83.453 47.368 83.621C46.9667 83.789 46.6237 84.0293 46.339 84.342C46.0543 84.6547 45.835 85.0303 45.681 85.469C45.527 85.9077 45.45 86.3977 45.45 86.939C45.45 87.5177 45.5317 88.0357 45.695 88.493C45.863 88.9457 46.0963 89.3307 46.395 89.648C46.6983 89.9607 47.0623 90.201 47.487 90.369C47.9117 90.5323 48.3853 90.614 48.908 90.614C49.2813 90.614 49.615 90.5743 49.909 90.495C50.203 90.4157 50.49 90.3083 50.77 90.173V88.339H49.496C49.3747 88.339 49.279 88.3063 49.209 88.241C49.1437 88.171 49.111 88.087 49.111 87.989V86.925H52.471ZM57.1082 84.706C57.6402 84.706 58.1232 84.7923 58.5572 84.965C58.9958 85.1377 59.3692 85.3827 59.6772 85.7C59.9898 86.0173 60.2302 86.4047 60.3982 86.862C60.5662 87.3193 60.6502 87.8303 60.6502 88.395C60.6502 88.9643 60.5662 89.4777 60.3982 89.935C60.2302 90.3923 59.9898 90.782 59.6772 91.104C59.3692 91.426 58.9958 91.6733 58.5572 91.846C58.1232 92.0187 57.6402 92.105 57.1082 92.105C56.5715 92.105 56.0838 92.0187 55.6452 91.846C55.2065 91.6733 54.8308 91.426 54.5182 91.104C54.2102 90.782 53.9698 90.3923 53.7972 89.935C53.6292 89.4777 53.5452 88.9643 53.5452 88.395C53.5452 87.8303 53.6292 87.3193 53.7972 86.862C53.9698 86.4047 54.2102 86.0173 54.5182 85.7C54.8308 85.3827 55.2065 85.1377 55.6452 84.965C56.0838 84.7923 56.5715 84.706 57.1082 84.706ZM57.1082 90.775C57.7055 90.775 58.1465 90.5743 58.4312 90.173C58.7205 89.7717 58.8652 89.1837 58.8652 88.409C58.8652 87.6343 58.7205 87.044 58.4312 86.638C58.1465 86.232 57.7055 86.029 57.1082 86.029C56.5015 86.029 56.0512 86.2343 55.7572 86.645C55.4678 87.051 55.3232 87.639 55.3232 88.409C55.3232 89.179 55.4678 89.767 55.7572 90.173C56.0512 90.5743 56.5015 90.775 57.1082 90.775ZM65.1472 84.706C65.6792 84.706 66.1622 84.7923 66.5962 84.965C67.0349 85.1377 67.4082 85.3827 67.7162 85.7C68.0289 86.0173 68.2692 86.4047 68.4372 86.862C68.6052 87.3193 68.6892 87.8303 68.6892 88.395C68.6892 88.9643 68.6052 89.4777 68.4372 89.935C68.2692 90.3923 68.0289 90.782 67.7162 91.104C67.4082 91.426 67.0349 91.6733 66.5962 91.846C66.1622 92.0187 65.6792 92.105 65.1472 92.105C64.6106 92.105 64.1229 92.0187 63.6842 91.846C63.2456 91.6733 62.8699 91.426 62.5572 91.104C62.2492 90.782 62.0089 90.3923 61.8362 89.935C61.6682 89.4777 61.5842 88.9643 61.5842 88.395C61.5842 87.8303 61.6682 87.3193 61.8362 86.862C62.0089 86.4047 62.2492 86.0173 62.5572 85.7C62.8699 85.3827 63.2456 85.1377 63.6842 84.965C64.1229 84.7923 64.6106 84.706 65.1472 84.706ZM65.1472 90.775C65.7446 90.775 66.1856 90.5743 66.4702 90.173C66.7596 89.7717 66.9042 89.1837 66.9042 88.409C66.9042 87.6343 66.7596 87.044 66.4702 86.638C66.1856 86.232 65.7446 86.029 65.1472 86.029C64.5406 86.029 64.0902 86.2343 63.7962 86.645C63.5069 87.051 63.3622 87.639 63.3622 88.409C63.3622 89.179 63.5069 89.767 63.7962 90.173C64.0902 90.5743 64.5406 90.775 65.1472 90.775ZM74.5163 86.652C74.3203 86.414 74.1056 86.246 73.8723 86.148C73.6436 86.05 73.3963 86.001 73.1303 86.001C72.869 86.001 72.6333 86.05 72.4233 86.148C72.2133 86.246 72.0336 86.3953 71.8843 86.596C71.735 86.792 71.6206 87.044 71.5413 87.352C71.462 87.6553 71.4223 88.0147 71.4223 88.43C71.4223 88.85 71.455 89.207 71.5203 89.501C71.5903 89.7903 71.6883 90.0283 71.8143 90.215C71.9403 90.397 72.0943 90.53 72.2763 90.614C72.4583 90.6933 72.6613 90.733 72.8853 90.733C73.2446 90.733 73.5503 90.6583 73.8023 90.509C74.0543 90.3597 74.2923 90.1473 74.5163 89.872V86.652ZM76.2453 81.598V92H75.1883C74.9596 92 74.815 91.895 74.7543 91.685L74.6073 90.992C74.318 91.3233 73.9843 91.5917 73.6063 91.797C73.233 92.0023 72.7966 92.105 72.2973 92.105C71.9053 92.105 71.546 92.0233 71.2193 91.86C70.8926 91.6967 70.6103 91.461 70.3723 91.153C70.139 90.8403 69.957 90.4553 69.8263 89.998C69.7003 89.5407 69.6373 89.018 69.6373 88.43C69.6373 87.898 69.7096 87.4033 69.8543 86.946C69.999 86.4887 70.2066 86.092 70.4773 85.756C70.748 85.42 71.0723 85.1587 71.4503 84.972C71.8283 84.7807 72.253 84.685 72.7243 84.685C73.1256 84.685 73.4686 84.748 73.7533 84.874C74.038 85 74.2923 85.1703 74.5163 85.385V81.598H76.2453Z"
        fill="white" />
    <g clip-path="url(#clip0_2825_20798)">
        <rect width="120" height="66" fill="white" />
        <path
            d="M110 60C110 46.7392 104.732 34.0215 95.3553 24.6447C85.9785 15.2678 73.2608 10 60 10C46.7392 10 34.0215 15.2678 24.6447 24.6447C15.2678 34.0215 10 46.7392 10 60"
            stroke="#EFF3FF" stroke-width="10" stroke-linecap="round" />
        <path
            d="M38.5174 43.344C38.688 42.1813 39.0134 41.168 39.4934 40.304C39.984 39.44 40.5867 38.72 41.3014 38.144C42.0267 37.568 42.8534 37.1413 43.7814 36.864C44.7094 36.576 45.7067 36.432 46.7734 36.432C47.9254 36.432 48.9494 36.5973 49.8454 36.928C50.7414 37.248 51.4987 37.6853 52.1174 38.24C52.736 38.7947 53.2054 39.44 53.5254 40.176C53.8454 40.9013 54.0054 41.6693 54.0054 42.48C54.0054 43.216 53.9307 43.8667 53.7814 44.432C53.632 44.9867 53.408 45.472 53.1094 45.888C52.8214 46.2933 52.4587 46.64 52.0214 46.928C51.5947 47.2053 51.104 47.44 50.5494 47.632C53.1307 48.5387 54.4214 50.2987 54.4214 52.912C54.4214 54.1493 54.1974 55.2267 53.7494 56.144C53.3014 57.0613 52.6987 57.824 51.9414 58.432C51.1947 59.04 50.3254 59.4987 49.3334 59.808C48.3414 60.1067 47.3067 60.256 46.2294 60.256C45.12 60.256 44.1334 60.1387 43.2694 59.904C42.4054 59.6587 41.6374 59.2853 40.9654 58.784C40.2934 58.272 39.7014 57.6213 39.1894 56.832C38.688 56.0427 38.2507 55.104 37.8774 54.016L40.0854 53.12C40.6614 52.896 41.1947 52.8373 41.6854 52.944C42.176 53.0507 42.528 53.296 42.7414 53.68C43.2214 54.5653 43.728 55.2107 44.2614 55.616C44.8054 56.0107 45.44 56.208 46.1654 56.208C46.72 56.208 47.2 56.1173 47.6054 55.936C48.0214 55.744 48.3627 55.504 48.6294 55.216C48.9067 54.9173 49.1147 54.5813 49.2534 54.208C49.392 53.8347 49.4614 53.456 49.4614 53.072C49.4614 52.5707 49.424 52.1227 49.3494 51.728C49.2854 51.3227 49.0934 50.976 48.7734 50.688C48.4534 50.4 47.968 50.1813 47.3174 50.032C46.6774 49.872 45.7814 49.792 44.6294 49.792V46.368C45.6 46.368 46.384 46.2933 46.9814 46.144C47.5787 45.9947 48.0374 45.792 48.3574 45.536C48.688 45.2693 48.9067 44.9493 49.0134 44.576C49.12 44.2027 49.1734 43.792 49.1734 43.344C49.1734 42.4267 48.9494 41.7227 48.5014 41.232C48.064 40.7307 47.392 40.48 46.4854 40.48C45.7494 40.48 45.1254 40.6773 44.6134 41.072C44.112 41.456 43.7654 41.936 43.5734 42.512C43.3494 43.0987 43.056 43.488 42.6934 43.68C42.3307 43.872 41.8134 43.9147 41.1414 43.808L38.5174 43.344ZM56.6799 57.488C56.6799 57.104 56.7492 56.7467 56.8879 56.416C57.0372 56.0853 57.2345 55.7973 57.4799 55.552C57.7359 55.3067 58.0345 55.1147 58.3759 54.976C58.7172 54.8267 59.0905 54.752 59.4959 54.752C59.8905 54.752 60.2585 54.8267 60.5999 54.976C60.9412 55.1147 61.2399 55.3067 61.4959 55.552C61.7519 55.7973 61.9492 56.0853 62.0879 56.416C62.2372 56.7467 62.3119 57.104 62.3119 57.488C62.3119 57.872 62.2372 58.2347 62.0879 58.576C61.9492 58.9067 61.7519 59.1947 61.4959 59.44C61.2399 59.6853 60.9412 59.8773 60.5999 60.016C60.2585 60.1547 59.8905 60.224 59.4959 60.224C59.0905 60.224 58.7172 60.1547 58.3759 60.016C58.0345 59.8773 57.7359 59.6853 57.4799 59.44C57.2345 59.1947 57.0372 58.9067 56.8879 58.576C56.7492 58.2347 56.6799 57.872 56.6799 57.488ZM81.2481 48.336C81.2481 50.3733 81.0295 52.1387 80.5921 53.632C80.1548 55.1253 79.5468 56.3627 78.7681 57.344C78.0001 58.3253 77.0828 59.056 76.0161 59.536C74.9601 60.016 73.8135 60.256 72.5761 60.256C71.3388 60.256 70.1921 60.016 69.1361 59.536C68.0908 59.056 67.1841 58.3253 66.4161 57.344C65.6481 56.3627 65.0455 55.1253 64.6081 53.632C64.1815 52.1387 63.9681 50.3733 63.9681 48.336C63.9681 46.2987 64.1815 44.5333 64.6081 43.04C65.0455 41.5467 65.6481 40.3093 66.4161 39.328C67.1841 38.3467 68.0908 37.6213 69.1361 37.152C70.1921 36.672 71.3388 36.432 72.5761 36.432C73.8135 36.432 74.9601 36.672 76.0161 37.152C77.0828 37.6213 78.0001 38.3467 78.7681 39.328C79.5468 40.3093 80.1548 41.5467 80.5921 43.04C81.0295 44.5333 81.2481 46.2987 81.2481 48.336ZM76.1281 48.336C76.1281 46.7253 76.0268 45.408 75.8241 44.384C75.6215 43.3493 75.3495 42.5387 75.0081 41.952C74.6775 41.3653 74.2988 40.9653 73.8721 40.752C73.4455 40.528 73.0135 40.416 72.5761 40.416C72.1388 40.416 71.7068 40.528 71.2801 40.752C70.8641 40.9653 70.4908 41.3653 70.1601 41.952C69.8401 42.5387 69.5788 43.3493 69.3761 44.384C69.1841 45.408 69.0881 46.7253 69.0881 48.336C69.0881 49.9573 69.1841 51.28 69.3761 52.304C69.5788 53.328 69.8401 54.1387 70.1601 54.736C70.4908 55.3227 70.8641 55.728 71.2801 55.952C71.7068 56.1653 72.1388 56.272 72.5761 56.272C73.0135 56.272 73.4455 56.1653 73.8721 55.952C74.2988 55.728 74.6775 55.3227 75.0081 54.736C75.3495 54.1387 75.6215 53.328 75.8241 52.304C76.0268 51.28 76.1281 49.9573 76.1281 48.336Z"
            fill="#699EDC" />
        <path
            d="M10.0003 60C10.0003 52.1095 11.8678 44.331 15.45 37.3005C19.0322 30.27 24.2275 24.1871 30.6111 19.5492C36.9946 14.9112 44.3852 11.8499 52.1786 10.6156C59.972 9.38124 67.9468 10.0089 75.4512 12.4472"
            stroke="url(#paint0_linear_2825_20798)" stroke-width="10" stroke-linecap="round" />
        <circle cx="74.5" cy="12.5" r="2.5" fill="white" />
        <path d="M76.4641 20L76.4641 26.9282L70.4641 23.4641L76.4641 20Z" fill="#699EDC" />
    </g>
    <defs>
        <linearGradient id="paint0_linear_2825_20798" x1="42.7257" y1="10" x2="42.7257" y2="60"
            gradientUnits="userSpaceOnUse">
            <stop stop-color="#699EDC" />
            <stop offset="1" stop-color="#EFF7FF" />
        </linearGradient>
        <clipPath id="clip0_2825_20798">
            <rect width="120" height="66" fill="white" />
        </clipPath>
    </defs>
</svg>