<svg id="f_icon_sp_0" width="120" height="97" viewBox="0 0 120 97" fill="none"
    xmlns="http://www.w3.org/2000/svg">
    <rect x="34" y="76" width="54" height="21" rx="10.5" fill="#FFC045" />
    <path
        d="M50.417 86.967C50.7623 86.967 51.0633 86.925 51.32 86.841C51.5767 86.7523 51.789 86.6287 51.957 86.47C52.1297 86.3067 52.258 86.1107 52.342 85.882C52.426 85.6487 52.468 85.3897 52.468 85.105C52.468 84.8343 52.426 84.5893 52.342 84.37C52.258 84.1507 52.132 83.964 51.964 83.81C51.796 83.656 51.5837 83.5393 51.327 83.46C51.0703 83.376 50.767 83.334 50.417 83.334H49.01V86.967H50.417ZM50.417 81.878C51.0937 81.878 51.6793 81.9573 52.174 82.116C52.6687 82.2747 53.077 82.4963 53.399 82.781C53.721 83.0657 53.959 83.4063 54.113 83.803C54.2717 84.1997 54.351 84.6337 54.351 85.105C54.351 85.595 54.2693 86.0453 54.106 86.456C53.9427 86.862 53.6977 87.212 53.371 87.506C53.0443 87.8 52.6337 88.0287 52.139 88.192C51.649 88.3553 51.075 88.437 50.417 88.437H49.01V92H47.127V81.878H50.417ZM58.3718 84.706C58.9038 84.706 59.3868 84.7923 59.8208 84.965C60.2595 85.1377 60.6328 85.3827 60.9408 85.7C61.2535 86.0173 61.4938 86.4047 61.6618 86.862C61.8298 87.3193 61.9138 87.8303 61.9138 88.395C61.9138 88.9643 61.8298 89.4777 61.6618 89.935C61.4938 90.3923 61.2535 90.782 60.9408 91.104C60.6328 91.426 60.2595 91.6733 59.8208 91.846C59.3868 92.0187 58.9038 92.105 58.3718 92.105C57.8352 92.105 57.3475 92.0187 56.9088 91.846C56.4702 91.6733 56.0945 91.426 55.7818 91.104C55.4738 90.782 55.2335 90.3923 55.0608 89.935C54.8928 89.4777 54.8088 88.9643 54.8088 88.395C54.8088 87.8303 54.8928 87.3193 55.0608 86.862C55.2335 86.4047 55.4738 86.0173 55.7818 85.7C56.0945 85.3827 56.4702 85.1377 56.9088 84.965C57.3475 84.7923 57.8352 84.706 58.3718 84.706ZM58.3718 90.775C58.9692 90.775 59.4102 90.5743 59.6948 90.173C59.9842 89.7717 60.1288 89.1837 60.1288 88.409C60.1288 87.6343 59.9842 87.044 59.6948 86.638C59.4102 86.232 58.9692 86.029 58.3718 86.029C57.7652 86.029 57.3148 86.2343 57.0208 86.645C56.7315 87.051 56.5868 87.639 56.5868 88.409C56.5868 89.179 56.7315 89.767 57.0208 90.173C57.3148 90.5743 57.7652 90.775 58.3718 90.775ZM66.4109 84.706C66.9429 84.706 67.4259 84.7923 67.8599 84.965C68.2986 85.1377 68.6719 85.3827 68.9799 85.7C69.2926 86.0173 69.5329 86.4047 69.7009 86.862C69.8689 87.3193 69.9529 87.8303 69.9529 88.395C69.9529 88.9643 69.8689 89.4777 69.7009 89.935C69.5329 90.3923 69.2926 90.782 68.9799 91.104C68.6719 91.426 68.2986 91.6733 67.8599 91.846C67.4259 92.0187 66.9429 92.105 66.4109 92.105C65.8742 92.105 65.3866 92.0187 64.9479 91.846C64.5092 91.6733 64.1336 91.426 63.8209 91.104C63.5129 90.782 63.2726 90.3923 63.0999 89.935C62.9319 89.4777 62.8479 88.9643 62.8479 88.395C62.8479 87.8303 62.9319 87.3193 63.0999 86.862C63.2726 86.4047 63.5129 86.0173 63.8209 85.7C64.1336 85.3827 64.5092 85.1377 64.9479 84.965C65.3866 84.7923 65.8742 84.706 66.4109 84.706ZM66.4109 90.775C67.0082 90.775 67.4492 90.5743 67.7339 90.173C68.0232 89.7717 68.1679 89.1837 68.1679 88.409C68.1679 87.6343 68.0232 87.044 67.7339 86.638C67.4492 86.232 67.0082 86.029 66.4109 86.029C65.8042 86.029 65.3539 86.2343 65.0599 86.645C64.7706 87.051 64.6259 87.639 64.6259 88.409C64.6259 89.179 64.7706 89.767 65.0599 90.173C65.3539 90.5743 65.8042 90.775 66.4109 90.775ZM72.903 86.064C73.127 85.6347 73.393 85.2987 73.701 85.056C74.009 84.8087 74.373 84.685 74.793 84.685C75.1243 84.685 75.3903 84.7573 75.591 84.902L75.479 86.197C75.4556 86.281 75.4206 86.3417 75.374 86.379C75.332 86.4117 75.2736 86.428 75.199 86.428C75.129 86.428 75.024 86.4163 74.884 86.393C74.7486 86.3697 74.6156 86.358 74.485 86.358C74.2936 86.358 74.1233 86.386 73.974 86.442C73.8246 86.498 73.6893 86.5797 73.568 86.687C73.4513 86.7897 73.3463 86.9157 73.253 87.065C73.1643 87.2143 73.0803 87.3847 73.001 87.576V92H71.272V84.818H72.287C72.4643 84.818 72.588 84.8507 72.658 84.916C72.728 84.9767 72.7746 85.0887 72.798 85.252L72.903 86.064Z"
        fill="white" />
    <g clip-path="url(#clip0_3490_15518)">
        <rect width="120" height="66" fill="white"/>
        <path
            d="M110 60C110 46.7392 104.732 34.0215 95.3553 24.6447C85.9785 15.2678 73.2608 10 60 10C46.7392 10 34.0215 15.2678 24.6447 24.6447C15.2678 34.0215 10 46.7392 10 60"
            stroke="#FFF8E9"
            stroke-width="10"
            stroke-linecap="round"/>
        <path
            d="M55.0294 48.336C55.0294 50.3733 54.8107 52.1387 54.3734 53.632C53.936 55.1253 53.328 56.3627 52.5494 57.344C51.7814 58.3253 50.864 59.056 49.7974 59.536C48.7414 60.016 47.5947 60.256 46.3574 60.256C45.12 60.256 43.9734 60.016 42.9174 59.536C41.872 59.056 40.9654 58.3253 40.1974 57.344C39.4294 56.3627 38.8267 55.1253 38.3894 53.632C37.9627 52.1387 37.7494 50.3733 37.7494 48.336C37.7494 46.2987 37.9627 44.5333 38.3894 43.04C38.8267 41.5467 39.4294 40.3093 40.1974 39.328C40.9654 38.3467 41.872 37.6213 42.9174 37.152C43.9734 36.672 45.12 36.432 46.3574 36.432C47.5947 36.432 48.7414 36.672 49.7974 37.152C50.864 37.6213 51.7814 38.3467 52.5494 39.328C53.328 40.3093 53.936 41.5467 54.3734 43.04C54.8107 44.5333 55.0294 46.2987 55.0294 48.336ZM49.9094 48.336C49.9094 46.7253 49.808 45.408 49.6054 44.384C49.4027 43.3493 49.1307 42.5387 48.7894 41.952C48.4587 41.3653 48.08 40.9653 47.6534 40.752C47.2267 40.528 46.7947 40.416 46.3574 40.416C45.92 40.416 45.488 40.528 45.0614 40.752C44.6454 40.9653 44.272 41.3653 43.9414 41.952C43.6214 42.5387 43.36 43.3493 43.1574 44.384C42.9654 45.408 42.8694 46.7253 42.8694 48.336C42.8694 49.9573 42.9654 51.28 43.1574 52.304C43.36 53.328 43.6214 54.1387 43.9414 54.736C44.272 55.3227 44.6454 55.728 45.0614 55.952C45.488 56.1653 45.92 56.272 46.3574 56.272C46.7947 56.272 47.2267 56.1653 47.6534 55.952C48.08 55.728 48.4587 55.3227 48.7894 54.736C49.1307 54.1387 49.4027 53.328 49.6054 52.304C49.808 51.28 49.9094 49.9573 49.9094 48.336ZM56.6799 57.488C56.6799 57.104 56.7492 56.7467 56.8879 56.416C57.0372 56.0853 57.2345 55.7973 57.4799 55.552C57.7359 55.3067 58.0345 55.1147 58.3759 54.976C58.7172 54.8267 59.0905 54.752 59.4959 54.752C59.8905 54.752 60.2585 54.8267 60.5999 54.976C60.9412 55.1147 61.2399 55.3067 61.4959 55.552C61.7519 55.7973 61.9492 56.0853 62.0879 56.416C62.2372 56.7467 62.3119 57.104 62.3119 57.488C62.3119 57.872 62.2372 58.2347 62.0879 58.576C61.9492 58.9067 61.7519 59.1947 61.4959 59.44C61.2399 59.6853 60.9412 59.8773 60.5999 60.016C60.2585 60.1547 59.8905 60.224 59.4959 60.224C59.0905 60.224 58.7172 60.1547 58.3759 60.016C58.0345 59.8773 57.7359 59.6853 57.4799 59.44C57.2345 59.1947 57.0372 58.9067 56.8879 58.576C56.7492 58.2347 56.6799 57.872 56.6799 57.488ZM81.2481 48.336C81.2481 50.3733 81.0295 52.1387 80.5921 53.632C80.1548 55.1253 79.5468 56.3627 78.7681 57.344C78.0001 58.3253 77.0828 59.056 76.0161 59.536C74.9601 60.016 73.8135 60.256 72.5761 60.256C71.3388 60.256 70.1921 60.016 69.1361 59.536C68.0908 59.056 67.1841 58.3253 66.4161 57.344C65.6481 56.3627 65.0455 55.1253 64.6081 53.632C64.1815 52.1387 63.9681 50.3733 63.9681 48.336C63.9681 46.2987 64.1815 44.5333 64.6081 43.04C65.0455 41.5467 65.6481 40.3093 66.4161 39.328C67.1841 38.3467 68.0908 37.6213 69.1361 37.152C70.1921 36.672 71.3388 36.432 72.5761 36.432C73.8135 36.432 74.9601 36.672 76.0161 37.152C77.0828 37.6213 78.0001 38.3467 78.7681 39.328C79.5468 40.3093 80.1548 41.5467 80.5921 43.04C81.0295 44.5333 81.2481 46.2987 81.2481 48.336ZM76.1281 48.336C76.1281 46.7253 76.0268 45.408 75.8241 44.384C75.6215 43.3493 75.3495 42.5387 75.0081 41.952C74.6775 41.3653 74.2988 40.9653 73.8721 40.752C73.4455 40.528 73.0135 40.416 72.5761 40.416C72.1388 40.416 71.7068 40.528 71.2801 40.752C70.8641 40.9653 70.4908 41.3653 70.1601 41.952C69.8401 42.5387 69.5788 43.3493 69.3761 44.384C69.1841 45.408 69.0881 46.7253 69.0881 48.336C69.0881 49.9573 69.1841 51.28 69.3761 52.304C69.5788 53.328 69.8401 54.1387 70.1601 54.736C70.4908 55.3227 70.8641 55.728 71.2801 55.952C71.7068 56.1653 72.1388 56.272 72.5761 56.272C73.0135 56.272 73.4455 56.1653 73.8721 55.952C74.2988 55.728 74.6775 55.3227 75.0081 54.736C75.3495 54.1387 75.6215 53.328 75.8241 52.304C76.0268 51.28 76.1281 49.9573 76.1281 48.336Z"
            fill="#FFC045"/>
        <path
            d="M10.0735 60C10.0735 59.7331 10.0819 59.4663 10.0986 59.2" 
            stroke="url(#paint0_linear_3490_15518)" stroke-width="10" stroke-linecap="round"/>
        <circle cx="10" cy="60" r="2.5" fill="white"/>
        <path d="M16.8989 59.5L22.8989 56.0359V62.9641L16.8989 59.5Z" fill="#F0885B"/>
    </g>
    <defs>
        <linearGradient id="paint0_linear_3490_15518" x1="10.0861" y1="59.2" x2="10.0861" y2="60" gradientUnits="userSpaceOnUse">
            <stop stop-color="#FFC045"/>
            <stop offset="1" stop-color="#FFF1D3"/>
        </linearGradient>
        <clipPath id="clip0_3490_15518">
            <rect width="120" height="66" fill="white"/>
        </clipPath>
    </defs>
</svg>
