<svg width="18" height="18" viewBox="0 0 18 18" fill="none" xmlns="http://www.w3.org/2000/svg">
<g id="Group">
<path id="Vector" d="M0.0818263 3.94381C0.0822039 3.9488 0.0824916 3.95124 0.0825634 3.95195C0.123947 4.11657 0.336529 4.17714 0.461826 4.04911L0.461803 4.04909L0.463302 4.04765L0.530695 3.98295V2.40824V0.801604V0.773989L0.550221 0.754463L0.652174 0.65251L0.754127 0.550557L0.773654 0.531031H0.801268H2.40791H3.98262L4.04732 0.463638L4.04728 0.463599L4.04924 0.461714C4.11466 0.398908 4.1377 0.284483 4.09995 0.182103C4.08777 0.151429 4.07974 0.13999 4.0585 0.128896C4.02946 0.113728 3.97363 0.0993795 3.85594 0.0893168C3.62323 0.0694199 3.18859 0.0684614 2.34828 0.0702233H2.34814C1.91076 0.0702233 1.50334 0.0737367 1.19925 0.0790024C1.04716 0.081636 0.921175 0.0847034 0.830311 0.0879779C0.784822 0.0896173 0.748544 0.0912938 0.722358 0.0929666C0.70922 0.0938058 0.699124 0.0946131 0.691908 0.0953603C0.687695 0.0957966 0.685398 0.0961256 0.684487 0.0962553C0.461291 0.165023 0.261482 0.334776 0.143 0.558577L0.143019 0.558587L0.142185 0.560069C0.119141 0.601037 0.102353 0.646972 0.0922375 0.880948C0.0821964 1.1132 0.07868 1.51855 0.0734016 2.26809L0.0734011 2.26815C0.0698878 2.71258 0.0698886 3.12533 0.0720832 3.43257C0.0731807 3.58623 0.0748256 3.7133 0.0768476 3.80467C0.0778596 3.8504 0.0789593 3.88687 0.0801158 3.91313C0.0806959 3.9263 0.0812727 3.93649 0.0818263 3.94381Z" fill="#65558F" stroke="#65558F" stroke-width="0.133333"/>
<path id="Vector_2" d="M13.9747 0.0387125C13.7919 0.140666 13.7568 0.365666 13.9044 0.509806L13.9888 0.597697H15.5919H17.1985L17.3005 0.699651L17.4025 0.801604V2.40824V4.01137L17.4903 4.09574C17.6521 4.26098 17.9298 4.18364 17.9825 3.96567C17.9931 3.91996 18.0001 3.15707 17.9931 2.26762C17.9825 0.769963 17.979 0.639884 17.9157 0.527385C17.8243 0.355119 17.6556 0.182853 17.4903 0.0949626C17.3532 0.0176187 17.3146 0.0176187 15.6974 0.0105877C14.5337 0.00355625 14.0239 0.0105877 13.9747 0.0387125Z" fill="#65558F"/>
<path id="Vector_3" d="M7.78728 0.97031C6.82049 1.13906 5.80798 1.64531 5.00291 2.35195C4.54588 2.75625 4.08533 3.31875 3.79002 3.83203C3.60017 4.16601 3.41384 4.85508 3.35408 5.45625L3.33298 5.69531H1.79666C0.640016 5.69531 0.24275 5.70586 0.175954 5.74101C-0.0174058 5.83945 -0.0490465 6.07148 0.112672 6.22266C0.1865 6.28945 0.232204 6.29297 1.74744 6.29297H3.30486V6.60234V6.91523H3.05173C2.85486 6.91172 2.75642 6.93281 2.62634 6.99258C2.30994 7.14726 2.10955 7.50937 2.10955 7.92773C2.10955 8.17734 2.22908 8.72226 2.37322 9.14062C2.42244 9.28476 2.52791 9.61523 2.60525 9.87539C2.8408 10.6664 3.0447 10.9617 3.41384 11.0637C3.60369 11.1164 3.61423 11.127 3.63533 11.2465C3.64588 11.3168 3.65642 11.4996 3.65642 11.6543C3.65994 12.3293 3.92361 12.9973 4.53533 13.8586C4.86931 14.3262 5.38259 14.85 6.09978 15.4441C6.44783 15.7324 6.89783 16.1227 7.10173 16.3125C7.5447 16.7203 7.78025 16.8785 8.13181 16.998C8.37439 17.0789 8.44822 17.0859 9.00017 17.0859C9.55213 17.0859 9.62595 17.0789 9.86853 16.998C10.2201 16.8785 10.4556 16.7238 10.8986 16.3125C11.1025 16.1227 11.5525 15.7324 11.9006 15.4406C12.8146 14.6812 13.1978 14.277 13.6513 13.5879C13.922 13.1766 14.0732 12.8707 14.2068 12.4734C14.2982 12.2027 14.3193 12.0691 14.3439 11.6473C14.358 11.3695 14.3756 11.1375 14.3826 11.1305C14.3896 11.1234 14.4881 11.0918 14.597 11.0566C14.9697 10.9441 15.1595 10.6594 15.3951 9.87539C15.4724 9.61523 15.5779 9.28476 15.6271 9.14062C15.7713 8.72226 15.8908 8.17734 15.8908 7.92773C15.8908 7.50937 15.6904 7.14726 15.374 6.99258C15.2439 6.93281 15.1455 6.91172 14.9521 6.91523H14.6955V6.60234V6.29297H16.2529C17.7681 6.29297 17.8138 6.28945 17.8877 6.22266C18.0494 6.07148 18.0177 5.83945 17.8244 5.74101C17.7576 5.70586 17.3603 5.69531 16.2037 5.69531H14.6674L14.6463 5.45625C14.5865 4.85508 14.4002 4.16601 14.2103 3.83203C13.3701 2.3625 11.8021 1.24453 10.199 0.97031C9.76306 0.896482 8.20916 0.896482 7.78728 0.97031ZM10.1111 1.56445C10.7791 1.68047 11.5138 1.99687 12.108 2.41523C12.667 2.8125 13.3314 3.52265 13.6478 4.06406C13.8412 4.39805 13.9818 4.90078 14.0416 5.47383L14.0662 5.69531H9.00017H3.93064L3.95525 5.47383C4.01853 4.89375 4.15916 4.39805 4.35252 4.06406C4.66892 3.52265 5.33338 2.8125 5.89236 2.41523C6.47244 2.00742 7.21775 1.68398 7.86111 1.56797C8.26541 1.49414 9.69627 1.49414 10.1111 1.56445ZM4.50017 6.78516V7.27383L4.35252 7.3125C4.26814 7.33359 4.14509 7.36523 4.0783 7.38633C4.0115 7.4039 3.9447 7.41797 3.93064 7.41797C3.91306 7.41797 3.90252 7.16484 3.90252 6.85547V6.29297H4.20134H4.50017V6.78516ZM6.39861 6.8625C6.5533 7.17539 6.67283 7.43555 6.66931 7.43906C6.6658 7.44258 5.20681 7.25976 5.10838 7.24219C5.10134 7.24219 5.09783 7.02773 5.09783 6.76758V6.29297H5.61111H6.12088L6.39861 6.8625ZM8.26189 6.30351C8.26189 6.30703 8.04041 6.53203 7.77322 6.79922L7.28455 7.28789L7.03494 6.79219L6.78533 6.29297H7.52361C7.92791 6.29297 8.26189 6.29648 8.26189 6.30351ZM10.9689 6.78516C10.8318 7.05586 10.7193 7.27734 10.7123 7.27734C10.7088 7.27734 10.4838 7.05586 10.2131 6.78516L9.72088 6.29297H10.4697H11.215L10.9689 6.78516ZM12.9025 6.76758C12.9025 7.02773 12.899 7.24219 12.8955 7.24219C12.7935 7.25976 11.3345 7.44258 11.331 7.43906C11.3275 7.43555 11.447 7.17539 11.6017 6.8625L11.8795 6.29297H12.3892H12.9025V6.76758ZM14.0978 6.85547C14.0978 7.16484 14.0873 7.41797 14.0732 7.41797C14.0556 7.41797 13.9888 7.4039 13.922 7.38633C13.8553 7.36523 13.7322 7.33359 13.6513 7.3125L13.5002 7.27383V6.78516V6.29297H13.799H14.0978V6.85547ZM8.6697 9.73125C8.64861 9.74883 7.84002 9.43242 7.79431 9.39023C7.78025 9.37617 7.70994 9.03164 7.64314 8.63086L7.52009 7.89609L8.09314 7.32305L8.66619 6.75L8.67673 8.23008C8.68025 9.0457 8.67673 9.7207 8.6697 9.73125ZM10.3572 8.63086C10.2904 9.03164 10.2201 9.37617 10.206 9.39023C10.1744 9.41836 9.38689 9.73828 9.3447 9.73828C9.33064 9.73828 9.31658 9.06328 9.31658 8.23711V6.73242L9.89666 7.31601L10.4803 7.89609L10.3572 8.63086ZM3.18181 7.54453C3.31189 7.6043 3.34002 7.68867 3.34002 8.02969C3.34002 8.1457 3.35759 8.39531 3.37869 8.57812C3.50173 9.73828 3.57556 10.459 3.56502 10.473C3.50525 10.5398 3.30838 10.1426 3.17127 9.66797C3.1115 9.46406 3.01306 9.15469 2.9533 8.98242C2.65447 8.10351 2.63689 7.67812 2.8865 7.5375C2.99548 7.47773 3.04119 7.47773 3.18181 7.54453ZM15.0998 7.53047C15.3635 7.65 15.3494 8.09297 15.047 8.98242C14.9873 9.15469 14.8888 9.46406 14.8291 9.66797C14.692 10.1426 14.4916 10.5398 14.4353 10.473C14.4283 10.466 14.4599 10.1109 14.5056 9.68555C14.5513 9.26016 14.6076 8.68359 14.6252 8.40234C14.6849 7.59023 14.6814 7.60781 14.8115 7.54453C14.9486 7.47773 14.9838 7.47773 15.0998 7.53047ZM5.87127 7.94531C6.34588 8.00156 6.78181 8.05781 6.83806 8.06836L6.94705 8.08594L7.04197 8.67656C7.0947 9 7.13689 9.27422 7.13689 9.28828C7.13689 9.30586 6.71502 9.31641 6.1947 9.31641H5.25603L4.70408 8.65547C4.40173 8.29336 4.16267 7.99101 4.16619 7.9875C4.20486 7.94531 4.81658 7.81523 4.90447 7.82578C4.96423 7.83281 5.39666 7.88906 5.87127 7.94531ZM13.4931 7.88906C13.676 7.93828 13.8271 7.98047 13.8342 7.9875C13.8377 7.99101 13.5986 8.29336 13.2963 8.65547L12.7443 9.31641H11.8056C11.2853 9.31641 10.8635 9.30586 10.8635 9.28828C10.8599 9.24609 11.0498 8.10351 11.0603 8.08945C11.0674 8.08242 11.5349 8.01914 12.101 7.94531C12.667 7.87148 13.1381 7.81172 13.1486 7.8082C13.1592 7.8082 13.3138 7.84336 13.4931 7.88906ZM4.42634 9.26016L4.81658 9.73125V11.4398C4.81658 12.3785 4.80603 13.1484 4.79197 13.1484C4.72166 13.1484 4.42634 12.5367 4.34197 12.2133C4.31033 12.1008 4.27166 11.7457 4.25056 11.4258C4.21892 10.9125 4.0783 9.40781 4.02205 8.9543C4.00798 8.86289 4.00798 8.78906 4.01502 8.78906C4.02556 8.78906 4.20838 9 4.42634 9.26016ZM13.9256 9.46055C13.8271 10.3852 13.7849 10.8422 13.7463 11.4609C13.7111 12.041 13.6619 12.2941 13.5072 12.6352C13.3877 12.9023 13.2435 13.1484 13.2119 13.1484C13.1943 13.1484 13.1838 12.3785 13.1838 11.4398V9.73125L13.5775 9.26016C13.792 9 13.9748 8.79609 13.9818 8.80312C13.9888 8.81015 13.9642 9.10547 13.9256 9.46055ZM8.06853 10.1566L8.66619 10.3992L8.67673 10.8949L8.68728 11.3906H8.14236H7.60095L6.83103 10.7191C6.40916 10.35 6.03298 10.016 5.99431 9.98086C5.92752 9.91406 5.94158 9.91406 6.69744 9.91406L7.47088 9.91758L8.06853 10.1566ZM12.006 9.98086C11.9674 10.016 11.5912 10.35 11.1693 10.7191L10.3994 11.3906H9.85799H9.31306L9.32361 10.8949L9.33416 10.3992L9.93181 10.1566L10.5295 9.91758L11.3029 9.91406C12.0588 9.91406 12.0728 9.91406 12.006 9.98086ZM6.28611 11.0355C6.71502 11.4117 7.06658 11.7316 7.06658 11.7492C7.06658 11.7668 6.92947 11.9602 6.76424 12.1816L6.46189 12.5859H5.93806H5.41423V11.4434C5.41423 10.4977 5.42127 10.3008 5.45994 10.3254C5.48806 10.3395 5.8572 10.6594 6.28611 11.0355ZM12.5861 11.4434V12.5859H12.0623H11.5385L11.2361 12.1816C11.0709 11.9602 10.9338 11.7668 10.9338 11.7492C10.9338 11.7211 12.5404 10.3008 12.572 10.3008C12.5791 10.3008 12.5861 10.8141 12.5861 11.4434ZM8.68377 12.9023V13.8164H8.174H7.66775L7.34783 13.3945C7.17205 13.1625 7.02088 12.9516 7.01033 12.9234C6.99978 12.8918 7.10525 12.7195 7.26345 12.5086C7.69588 11.932 7.59744 11.9883 8.18103 11.9883H8.68377V12.9023ZM10.6771 12.4277C10.8564 12.6598 11.0006 12.8672 11.0006 12.8883C11.0041 12.9094 10.8529 13.1273 10.6701 13.3699L10.3361 13.8164H9.82634H9.31658V12.9023V11.9848L9.83338 11.9953L10.3537 12.0059L10.6771 12.4277ZM6.70447 13.5387C6.85564 13.732 6.9822 13.9113 6.98923 13.9324C6.99275 13.957 6.75017 14.066 6.40916 14.1926L5.81853 14.407L5.61814 14.2102L5.41423 14.0133V13.5984V13.1836H5.924H6.43377L6.70447 13.5387ZM12.5861 13.5984V14.0133L12.3857 14.2102L12.1818 14.407L11.5912 14.1926C11.2502 14.066 11.0076 13.957 11.0111 13.9324C11.0181 13.9113 11.1447 13.732 11.2959 13.5387L11.5666 13.1836H12.0763H12.5861V13.5984ZM8.68377 15.0012C8.68377 15.6762 8.71189 15.6691 8.36736 15.0469C8.24783 14.8254 8.11775 14.5898 8.07908 14.5266L8.00877 14.4141H8.34627H8.68377V15.0012ZM9.92127 14.5266C9.8826 14.5898 9.75252 14.8254 9.63299 15.0469C9.28845 15.6691 9.31658 15.6762 9.31658 15.0012V14.4141H9.65408H9.99158L9.92127 14.5266ZM7.91033 15.4582C8.20564 15.9961 8.45525 16.4461 8.46228 16.4602C8.48338 16.5023 8.18806 16.3863 8.01931 16.2879C7.93494 16.2387 7.73103 16.0699 7.56228 15.9152C7.39705 15.7605 7.06306 15.4687 6.82048 15.2684C6.57791 15.0645 6.37752 14.8887 6.37048 14.8746C6.36345 14.85 7.24588 14.4914 7.33377 14.4879C7.35134 14.4844 7.6115 14.9238 7.91033 15.4582ZM11.1553 14.6637C11.4224 14.7656 11.6334 14.857 11.6299 14.8746C11.6228 14.8887 11.4224 15.0645 11.1799 15.2684C10.9373 15.4687 10.6033 15.7605 10.4381 15.9152C10.2693 16.0699 10.0654 16.2387 9.98103 16.2879C9.81228 16.3863 9.51697 16.5023 9.53806 16.4602C9.76658 16.0277 10.6349 14.4844 10.649 14.4844C10.6595 14.4844 10.8881 14.5652 11.1553 14.6637Z" fill="#65558F"/>
<path id="Vector_4" d="M0.105174 13.8868C0.0665022 13.9254 0.0278303 13.9922 0.0172834 14.0344C0.00673654 14.0801 -0.000294706 14.843 0.00673654 15.7325C0.0172834 17.3145 0.0172834 17.3532 0.0946272 17.4903C0.182518 17.6555 0.354783 17.8243 0.527049 17.9157C0.639549 17.979 0.769627 17.9825 2.26728 17.993C3.15674 18.0001 3.91963 17.993 3.96533 17.9825C4.1833 17.9297 4.26064 17.652 4.09541 17.4903L4.01103 17.4024H2.40791H0.801268L0.699315 17.3004L0.597362 17.1985V15.5918V13.9887L0.509471 13.9043C0.400487 13.7954 0.207127 13.7848 0.105174 13.8868Z" fill="#65558F"/>
<path id="Vector_5" d="M17.4903 13.9043L17.4024 13.9887V15.5918V17.1985L17.3005 17.3004L17.1985 17.4024H15.5919H13.9888L13.9044 17.4903C13.7391 17.652 13.8165 17.9297 14.0345 17.9825C14.0802 17.993 14.843 18.0001 15.7325 17.993C17.2302 17.9825 17.3602 17.979 17.4727 17.9157C17.645 17.8243 17.8173 17.6555 17.9052 17.4903C17.9825 17.3532 17.9825 17.3145 17.993 15.7325C18.0001 14.843 17.993 14.0801 17.9825 14.0344C17.9298 13.8165 17.652 13.7391 17.4903 13.9043Z" fill="#65558F"/>
</g>
</svg>
