<svg xmlns="http://www.w3.org/2000/svg" width="18" height="18" viewBox="0 0 18 18" fill="none">
  <mask id="path-1-inside-1_14272_19544" fill="white">
    <path d="M16.1944 8.28979L6.06376 2.09456C5.93577 2.01516 5.78873 1.97175 5.63813 1.9689C5.48754 1.96605 5.33896 2.00388 5.20806 2.07839C5.07811 2.1498 4.96986 2.25499 4.89473 2.38283C4.81961 2.51068 4.78041 2.65643 4.78126 2.80471V15.1952C4.78041 15.3435 4.81961 15.4892 4.89473 15.6171C4.96986 15.7449 5.07811 15.8501 5.20806 15.9215C5.33896 15.996 5.48754 16.0338 5.63813 16.031C5.78873 16.0282 5.93577 15.9847 6.06376 15.9053L16.1944 9.7101C16.3163 9.63598 16.4171 9.5317 16.4871 9.40732C16.557 9.28294 16.5937 9.14265 16.5937 8.99995C16.5937 8.85725 16.557 8.71696 16.4871 8.59258C16.4171 8.4682 16.3163 8.36392 16.1944 8.28979ZM15.9005 9.22987L5.76986 15.4258C5.72696 15.4522 5.67778 15.4665 5.62744 15.4674C5.57711 15.4683 5.52746 15.4556 5.48369 15.4307C5.44099 15.408 5.40532 15.3741 5.38053 15.3326C5.35575 15.291 5.34279 15.2435 5.34306 15.1952V2.80471C5.34279 2.75636 5.35575 2.70885 5.38053 2.66733C5.40532 2.62582 5.44099 2.59187 5.48369 2.56917C5.52746 2.5443 5.57711 2.53164 5.62744 2.5325C5.67778 2.53337 5.72696 2.54773 5.76986 2.57409L15.9005 8.77003C15.9404 8.79367 15.9735 8.8273 15.9965 8.86762C16.0195 8.90793 16.0316 8.95354 16.0316 8.99995C16.0316 9.04636 16.0195 9.09196 15.9965 9.13228C15.9735 9.1726 15.9404 9.20623 15.9005 9.22987Z"/>
  </mask>
  <path d="M16.1944 8.28979L15.6727 9.14292L15.6749 9.14428L16.1944 8.28979ZM6.06376 2.09456L5.5366 2.94434L5.54205 2.94768L6.06376 2.09456ZM5.20806 2.07839L5.68968 2.95476L5.69624 2.95116L5.70273 2.94747L5.20806 2.07839ZM4.78126 2.80471H5.78128L5.78125 2.79894L4.78126 2.80471ZM4.78126 15.1952L5.78126 15.201V15.1952H4.78126ZM5.20806 15.9215L5.70273 15.0524L5.69624 15.0487L5.68968 15.0451L5.20806 15.9215ZM6.06376 15.9053L5.54204 15.0522L5.53661 15.0556L6.06376 15.9053ZM16.1944 9.7101L15.6749 8.85562L15.6727 8.85698L16.1944 9.7101ZM15.9005 9.22987L15.3911 8.36934L15.3849 8.37302L15.3787 8.37678L15.9005 9.22987ZM5.76986 15.4258L5.2481 14.5727L5.2463 14.5738L5.76986 15.4258ZM5.48369 15.4307L5.97763 14.5612L5.96549 14.5543L5.95317 14.5478L5.48369 15.4307ZM5.34306 15.1952L6.34306 15.2008V15.1952H5.34306ZM5.34306 2.80471H6.34308L6.34304 2.79906L5.34306 2.80471ZM5.48369 2.56917L5.95317 3.45211L5.96549 3.44556L5.97763 3.43866L5.48369 2.56917ZM5.76986 2.57409L5.2463 3.42608L5.2481 3.42718L5.76986 2.57409ZM15.9005 8.77003L15.3787 9.62312L15.3849 9.62688L15.3911 9.63055L15.9005 8.77003ZM16.7161 7.43667L6.58548 1.24144L5.54205 2.94768L15.6727 9.14291L16.7161 7.43667ZM6.59092 1.24479C6.31008 1.07057 5.98746 0.975323 5.65703 0.969078L5.61924 2.96872C5.59 2.96817 5.56145 2.95974 5.53661 2.94433L6.59092 1.24479ZM5.65703 0.969078C5.3266 0.962833 5.00061 1.04582 4.71339 1.20931L5.70273 2.94747C5.67732 2.96193 5.64848 2.96927 5.61924 2.96872L5.65703 0.969078ZM4.72644 1.20201C4.43866 1.36016 4.19892 1.5931 4.03256 1.87621L5.7569 2.88945C5.74079 2.91688 5.71756 2.93944 5.68968 2.95476L4.72644 1.20201ZM4.03256 1.87621C3.8662 2.15933 3.77938 2.48212 3.78128 2.81049L5.78125 2.79894C5.78143 2.83075 5.77302 2.86202 5.7569 2.88945L4.03256 1.87621ZM3.78126 2.80471V15.1952H5.78126V2.80471H3.78126ZM3.78128 15.1894C3.77938 15.5178 3.8662 15.8406 4.03256 16.1237L5.7569 15.1104C5.77302 15.1379 5.78143 15.1691 5.78125 15.201L3.78128 15.1894ZM4.03256 16.1237C4.19892 16.4068 4.43865 16.6397 4.72644 16.7979L5.68968 15.0451C5.71756 15.0605 5.74079 15.083 5.7569 15.1104L4.03256 16.1237ZM4.71339 16.7906C5.00061 16.9541 5.3266 17.0371 5.65703 17.0308L5.61924 15.0312C5.64848 15.0306 5.67732 15.038 5.70273 15.0524L4.71339 16.7906ZM5.65703 17.0308C5.98746 17.0246 6.31008 16.9293 6.59092 16.7551L5.53661 15.0556C5.56146 15.0402 5.59 15.0317 5.61924 15.0312L5.65703 17.0308ZM6.58548 16.7585L16.7161 10.5632L15.6727 8.85698L5.54205 15.0522L6.58548 16.7585ZM16.7139 10.5646C16.9825 10.4013 17.2046 10.1715 17.3587 9.89749L15.6154 8.91716C15.6296 8.89188 15.6501 8.87069 15.6749 8.85562L16.7139 10.5646ZM17.3587 9.89749C17.5128 9.62345 17.5937 9.31435 17.5937 8.99995H15.5937C15.5937 8.97095 15.6012 8.94244 15.6154 8.91716L17.3587 9.89749ZM17.5937 8.99995C17.5937 8.68555 17.5128 8.37645 17.3587 8.10241L15.6154 9.08274C15.6012 9.05746 15.5937 9.02895 15.5937 8.99995H17.5937ZM17.3587 8.10241C17.2046 7.82838 16.9825 7.59863 16.7139 7.43531L15.6749 9.14428C15.6501 9.12921 15.6296 9.10802 15.6154 9.08274L17.3587 8.10241ZM15.3787 8.37678L5.2481 14.5727L6.29161 16.2789L16.4222 10.083L15.3787 8.37678ZM5.2463 14.5738C5.35591 14.5065 5.4816 14.4698 5.61025 14.4675L5.64464 16.4672C5.87396 16.4633 6.09801 16.3979 6.29341 16.2778L5.2463 14.5738ZM5.61025 14.4675C5.73889 14.4653 5.86576 14.4977 5.97763 14.5612L4.98974 16.3002C5.18916 16.4135 5.41533 16.4712 5.64464 16.4672L5.61025 14.4675ZM5.95317 14.5478C6.07154 14.6107 6.17044 14.7048 6.23915 14.82L4.52191 15.8452C4.6402 16.0433 4.81044 16.2053 5.01421 16.3137L5.95317 14.5478ZM6.23915 14.82C6.30788 14.9351 6.3438 15.0668 6.34304 15.2008L4.34308 15.1895C4.34177 15.4203 4.40362 15.647 4.52191 15.8452L6.23915 14.82ZM6.34306 15.1952V2.80471H4.34306V15.1952H6.34306ZM6.34304 2.79906C6.3438 2.93312 6.30788 3.06484 6.23915 3.17994L4.52191 2.15472C4.40362 2.35287 4.34177 2.5796 4.34308 2.81037L6.34304 2.79906ZM6.23915 3.17994C6.17043 3.29505 6.07153 3.38917 5.95317 3.45211L5.01421 1.68622C4.81045 1.79457 4.64021 1.95658 4.52191 2.15472L6.23915 3.17994ZM5.97763 3.43866C5.86576 3.50221 5.73889 3.53457 5.61025 3.53236L5.64464 1.53265C5.41533 1.52871 5.18916 1.58639 4.98974 1.69967L5.97763 3.43866ZM5.61025 3.53236C5.48161 3.53014 5.35592 3.49344 5.2463 3.42608L6.29341 1.7221C6.09801 1.60202 5.87396 1.5366 5.64464 1.53265L5.61025 3.53236ZM5.2481 3.42718L15.3787 9.62312L16.4222 7.91693L6.29161 1.72099L5.2481 3.42718ZM15.3911 9.63055C15.2816 9.56572 15.1908 9.47347 15.1278 9.36289L16.8652 8.37234C16.7562 8.18113 16.5993 8.02162 16.4099 7.9095L15.3911 9.63055ZM15.1278 9.36289C15.0647 9.25231 15.0316 9.12722 15.0316 8.99995H17.0316C17.0316 8.77986 16.9742 8.56356 16.8652 8.37234L15.1278 9.36289ZM15.0316 8.99995C15.0316 8.87268 15.0647 8.74759 15.1278 8.63701L16.8652 9.62755C16.9742 9.43634 17.0316 9.22004 17.0316 8.99995H15.0316ZM15.1278 8.63701C15.1908 8.52643 15.2816 8.43418 15.3911 8.36934L16.4099 10.0904C16.5993 9.97828 16.7562 9.81877 16.8652 9.62755L15.1278 8.63701Z" fill="#74BC1F" mask="url(#path-1-inside-1_14272_19544)"/>
</svg>