<svg xmlns="http://www.w3.org/2000/svg" width="18" height="18" viewBox="0 0 18 18" fill="none">
  <path d="M14.7857 2.25H3.21429C2.95854 2.25 2.71327 2.35159 2.53243 2.53243C2.35159 2.71327 2.25 2.95854 2.25 3.21429V14.7857C2.25 15.0415 2.35159 15.2867 2.53243 15.4676C2.71327 15.6484 2.95854 15.75 3.21429 15.75H14.7857C15.0415 15.75 15.2867 15.6484 15.4676 15.4676C15.6484 15.2867 15.75 15.0415 15.75 14.7857V3.21429C15.75 2.95854 15.6484 2.71327 15.4676 2.53243C15.2867 2.35159 15.0415 2.25 14.7857 2.25ZM15.1071 14.7857C15.1071 14.871 15.0733 14.9527 15.013 15.013C14.9527 15.0733 14.871 15.1071 14.7857 15.1071H3.21429C3.12904 15.1071 3.04728 15.0733 2.987 15.013C2.92672 14.9527 2.89286 14.871 2.89286 14.7857V3.21429C2.89286 3.12904 2.92672 3.04728 2.987 2.987C3.04728 2.92672 3.12904 2.89286 3.21429 2.89286H14.7857C14.871 2.89286 14.9527 2.92672 15.013 2.987C15.0733 3.04728 15.1071 3.12904 15.1071 3.21429V14.7857Z" fill="#EC1F1F"/>
</svg>