<svg width="175" height="50" viewBox="0 0 175 50" fill="none" xmlns="http://www.w3.org/2000/svg">
<g id="other / blue chart" opacity="0.15">
<path id="Vector 5" d="M19 26.2217C8.04776 27.4272 10 27.5674 0 24.3113L1 50H174V22.7493C164.573 14.7349 167.075 3.64272 152.5 0.653246C136.251 -2.6797 116.228 7.7248 99.5 9.7368C80.1229 12.0675 77.7589 4.68809 58.5 7.38181C41.6628 9.7368 36.1339 24.3359 19 26.2217Z" fill="url(#paint0_linear_4654_74464)"/>
<path id="Vector 7" d="M1 34.8607C9.98645 39.2189 17.7076 40.4398 28.6599 39.2343C45.7938 37.3484 43.3386 22.2183 59.3372 17.7029C77.4767 12.5833 90.2508 22.3886 109.628 20.0579C126.356 18.0459 133.611 5.62286 149.86 8.9558C164.435 11.9453 164.573 21.4635 174 29.4779" stroke="#1FBCB3"/>
</g>
<defs>
<linearGradient id="paint0_linear_4654_74464" x1="87.5" y1="9.40035" x2="87.5" y2="50" gradientUnits="userSpaceOnUse">
<stop stop-color="#1FBCB3"/>
<stop offset="1" stop-color="#1FBCB3" stop-opacity="0"/>
</linearGradient>
</defs>
</svg>
