<svg width="176" height="50" viewBox="0 0 176 50" fill="none" xmlns="http://www.w3.org/2000/svg">
<g id="other / purple chart" opacity="0.15">
<path id="Vector 1" d="M26.6474 21.2994C10.052 25.7946 1 30.9815 1 30.9815V50H175V11.963C175 11.963 164.386 16.5706 155.387 16.1125C137.102 15.1816 147.642 -0.600831 118.249 0.017711C76.4335 0.897692 83.1071 22.7405 58.8324 24.0657C45.7934 24.7775 43.2428 16.8041 26.6474 21.2994Z" fill="url(#paint0_linear_4654_74463)"/>
<path id="Vector 2" d="M1 41.5126C1 41.5126 21.3109 32.1218 37.711 30.9815C50.7213 30.0769 55.3483 36.2463 68.3873 35.5345C92.662 34.2093 74.4944 14.2565 114.15 12.3088C142.312 10.9256 134.229 26.7501 152.514 27.681C161.513 28.1391 175 24.2231 175 24.2231" stroke="#65558F" stroke-linecap="round"/>
</g>
<defs>
<linearGradient id="paint0_linear_4654_74463" x1="88" y1="-0.139686" x2="88" y2="50" gradientUnits="userSpaceOnUse">
<stop stop-color="#65558F"/>
<stop offset="1" stop-color="#65558F" stop-opacity="0"/>
</linearGradient>
</defs>
</svg>
