<svg width="14" height="21" viewBox="0 0 14 21" fill="none" xmlns="http://www.w3.org/2000/svg">
<path d="M11.9393 0.180242C11.928 0.191974 11.1478 0.352313 10.2056 0.536119C9.26708 0.719923 8.42659 0.895905 8.33991 0.927191C7.81225 1.13055 7.51826 1.81493 7.70295 2.39762C7.83109 2.7887 8.30599 3.17586 8.66027 3.17586C8.74696 3.17586 8.71304 3.22279 8.38514 3.56302L8.012 3.95018L7.63133 3.739C7.18282 3.49263 6.59863 3.28927 6.10489 3.19932C5.64884 3.1172 4.78951 3.1172 4.34477 3.19541C1.92507 3.62559 0.131029 5.72174 0.00665248 8.2598C-0.0988795 10.4576 1.0582 12.4677 2.97662 13.422C3.18769 13.5236 3.48921 13.6488 3.6475 13.6996L3.93395 13.7857L4.16386 14.2667L4.39 14.7477L4.16009 14.9863C4.03571 15.1153 3.9151 15.2209 3.89626 15.2209C3.88118 15.2209 3.74173 15.0958 3.59097 14.9471C3.25176 14.603 3.04447 14.5013 2.69018 14.5013C2.06076 14.4974 1.57456 15.0097 1.57456 15.6706C1.57456 16.0617 1.69893 16.3159 2.08337 16.707L2.29443 16.9182L1.58209 17.6651C0.801911 18.4824 0.749145 18.5685 0.749145 19.0143C0.749145 19.4601 0.982823 19.8512 1.36726 20.0624C1.52933 20.1484 1.60848 20.168 1.861 20.168C2.22659 20.168 2.42635 20.0819 2.68641 19.8277C2.82963 19.683 2.85978 19.6283 2.85978 19.511C2.85978 19.4054 2.8334 19.3506 2.76179 19.292C2.61857 19.1746 2.5545 19.1903 2.3472 19.3663C2.24544 19.4523 2.10222 19.5462 2.02307 19.5696C1.76677 19.6478 1.49164 19.5305 1.37103 19.2881C1.30319 19.1551 1.29565 18.8892 1.35595 18.7679C1.37857 18.721 1.7517 18.3104 2.18513 17.8567C2.84094 17.1763 2.97285 17.0159 2.97285 16.926C2.97285 16.836 2.89371 16.7304 2.59972 16.4176C2.1776 15.9678 2.13614 15.9053 2.13614 15.6706C2.13614 15.4595 2.22659 15.2796 2.38112 15.1818C2.70902 14.9745 2.87486 15.0371 3.39875 15.565C3.77942 15.9483 3.80957 15.9718 3.92641 15.9483C4.09225 15.9131 5.0458 14.9276 5.0458 14.7868C5.0458 14.736 4.94404 14.5209 4.81966 14.3058C3.73796 12.4443 3.98671 10.0744 5.43024 8.50618C6.13881 7.73577 6.98684 7.26648 8.00824 7.06312C8.51328 6.96535 9.4593 7.00446 9.9455 7.13743C11.732 7.638 13.021 9.06541 13.3791 10.9387C13.4469 11.2984 13.4469 12.3387 13.3791 12.6985C13.021 14.5717 11.732 15.9991 9.9455 16.4997C9.4593 16.6327 8.51328 16.6718 8.00824 16.574C7.37504 16.4489 6.67778 16.1634 6.2255 15.8427C5.95413 15.6472 5.92021 15.6628 5.33602 16.269C4.91012 16.7109 4.81966 16.8243 4.81966 16.9182C4.81966 17.0081 4.89504 17.1098 5.19279 17.4265C5.39632 17.6455 5.58477 17.8606 5.60738 17.9076C5.63 17.9545 5.64884 18.0679 5.64884 18.1618C5.64884 18.5763 5.2531 18.8501 4.87243 18.7014C4.81589 18.678 4.59729 18.4824 4.38623 18.2713C3.9038 17.7746 3.88495 17.7746 3.52313 18.15C3.30829 18.3729 3.26307 18.4472 3.26307 18.5489C3.26307 18.8149 3.55705 18.9048 3.77565 18.7014L3.9038 18.588L4.14124 18.8383C4.46161 19.1746 4.68398 19.2959 5.02319 19.3193C5.36994 19.3389 5.64507 19.2372 5.87121 19.0065C6.10112 18.7718 6.18404 18.5763 6.20665 18.2478C6.23304 17.8176 6.15389 17.6221 5.79583 17.2349L5.50185 16.9182L5.74684 16.66L5.99559 16.4058L6.41395 16.6288C6.84738 16.8556 7.26197 17.0081 7.75948 17.1254C7.97808 17.1802 8.2193 17.1919 8.8148 17.1919C9.52714 17.1919 9.6176 17.1841 9.98319 17.0902C10.8727 16.8595 11.5436 16.4997 12.2144 15.9092C13.0851 15.1388 13.6693 14.0868 13.9293 12.8314C14.0236 12.37 14.0236 11.2672 13.9293 10.8057C13.5637 9.03413 12.5574 7.68884 11.0272 6.92625C10.8199 6.82457 10.5222 6.70333 10.3639 6.65249L10.0774 6.56255L9.84751 6.08544L9.6176 5.60442L10.0586 5.15078L10.4995 4.69322V5.00217C10.4958 5.36978 10.6051 5.65526 10.835 5.89381C11.0611 6.12455 11.2684 6.20667 11.6227 6.20667C11.8752 6.20667 11.9544 6.18712 12.1164 6.10108C12.3124 5.99158 12.5386 5.76476 12.6328 5.57313C12.7082 5.42062 12.7346 5.26419 13.021 3.31273C13.1605 2.36634 13.2735 1.4786 13.2735 1.33782C13.2773 0.719923 12.8137 0.22717 12.1881 0.176331C12.0637 0.1646 11.9544 0.1646 11.9393 0.180242ZM12.4519 0.860708C12.516 0.899815 12.6026 1.00932 12.6516 1.111L12.7383 1.2948L12.4557 3.25407C12.2559 4.63456 12.1504 5.25245 12.1051 5.33849C12.0147 5.49492 11.8752 5.5966 11.7094 5.62397C11.5209 5.65917 11.4041 5.62006 11.2458 5.47928C11.0385 5.28765 11.0234 5.16251 11.129 4.44685C11.1817 4.11052 11.2119 3.80158 11.2006 3.76638C11.1553 3.63341 11.0649 3.56693 10.9292 3.56693C10.8048 3.56693 10.7332 3.6295 9.88143 4.51724C9.16155 5.26419 8.96556 5.4871 8.96556 5.56531C8.96556 5.62006 9.0334 5.77258 9.11632 5.90555C9.28593 6.1793 9.39146 6.38266 9.37261 6.40221C9.36508 6.41003 9.07863 6.42176 8.72811 6.42567L8.09869 6.43741L7.87255 6.15974C7.45042 5.63962 6.79839 5.20944 6.11997 5.00608C5.86368 4.93178 5.73176 4.91613 5.21541 4.91613C4.40884 4.91613 4.25431 4.97479 4.25431 5.27983C4.25431 5.4128 4.36361 5.53012 4.48799 5.53012C4.53699 5.52621 4.78951 5.51447 5.04957 5.49883C5.73176 5.45972 6.16143 5.56922 6.75316 5.92901C7.00945 6.08544 7.48811 6.52344 7.44665 6.56646C7.43535 6.57819 7.29966 6.62903 7.1489 6.68378C5.88629 7.11787 4.75182 8.13466 4.15255 9.37045C3.95279 9.78499 3.7455 10.4029 3.68143 10.794C3.65881 10.9465 3.61735 11.0755 3.59474 11.0755C3.57212 11.0755 3.44398 10.9817 3.30829 10.8643C2.87486 10.4928 2.52811 9.9336 2.36228 9.32743C2.24167 8.89334 2.24167 8.17377 2.36228 7.73968C2.53188 7.12178 2.87486 6.57037 3.33468 6.1793C3.48544 6.05024 3.61735 5.90555 3.62866 5.85471C3.66258 5.72174 3.58343 5.57313 3.45529 5.51838C3.29322 5.44799 3.13869 5.54576 2.72787 5.97203C2.15121 6.57037 1.81954 7.29385 1.72155 8.13466C1.63486 8.89725 1.812 9.73806 2.20398 10.4185C2.43012 10.8096 2.96908 11.3845 3.3196 11.6035L3.56836 11.7599L3.59474 12.1314C3.60981 12.3348 3.64374 12.632 3.67389 12.7923C3.70027 12.9527 3.72288 13.0896 3.71535 13.0935C3.68519 13.1247 3.02562 12.8041 2.75802 12.6281C1.81954 12.0102 1.14489 11.1264 0.80568 10.0822C0.61723 9.49951 0.583309 9.26486 0.583309 8.514C0.587078 7.85309 0.594616 7.7827 0.703917 7.34861C1.07328 5.88599 2.03814 4.70495 3.34222 4.11052C4.71036 3.48872 6.3951 3.60604 7.63133 4.41165C7.81225 4.52897 8.0007 4.62283 8.05723 4.62283C8.13638 4.62283 8.32483 4.44685 8.99948 3.74682C9.75328 2.96468 9.84374 2.85518 9.84374 2.74177C9.84374 2.59707 9.72313 2.47193 9.58745 2.47193C9.53845 2.47193 9.36508 2.4993 9.20301 2.53059C8.80726 2.6088 8.63012 2.60489 8.48313 2.51104C8.13261 2.28812 8.12507 1.7328 8.47182 1.51771C8.63012 1.42385 12.0222 0.747297 12.2069 0.774672C12.2785 0.786405 12.3916 0.825512 12.4519 0.860708Z" fill="#74BC1F"/>
<path d="M8.28714 8.20505C7.13383 8.43579 6.20289 9.12016 5.70538 10.1057C4.92143 11.6543 5.29833 13.5706 6.59863 14.6499C7.2959 15.2287 8.08362 15.4907 8.99571 15.4438C10.4279 15.3734 11.6491 14.4153 12.1164 12.9996C12.6931 11.2554 11.9318 9.3509 10.3412 8.55311C9.81735 8.28718 9.52714 8.21679 8.90903 8.20114C8.61881 8.19332 8.33991 8.19723 8.28714 8.20505ZM9.57991 8.86597C9.87389 8.94418 9.87012 8.93636 9.77213 9.47213C9.61006 10.3638 9.1917 11.185 8.55097 11.8733C8.15523 12.2996 7.75948 12.6046 7.28836 12.8471C6.94915 13.0231 6.39134 13.2264 6.24811 13.2264C6.15766 13.2264 6.05589 12.9957 5.94659 12.5655C5.84106 12.1432 5.8486 12.108 6.0182 12.0728C6.93784 11.8968 7.88009 11.1264 8.34368 10.1761C8.53213 9.79281 8.70173 9.171 8.70173 8.8777V8.75647L9.01456 8.77993C9.18416 8.79166 9.43669 8.83077 9.57991 8.86597ZM8.11754 9.03022C7.99316 9.92186 7.37881 10.8057 6.59109 11.228C6.2858 11.3923 5.92021 11.5292 5.88629 11.4901C5.8486 11.4549 5.95036 10.9934 6.05966 10.7001C6.35365 9.91404 7.05468 9.21793 7.84617 8.92463C8.14392 8.81513 8.14769 8.81904 8.11754 9.03022ZM10.7031 9.48777C11.1365 9.85929 11.4833 10.4185 11.6491 11.0247C11.7697 11.4588 11.7697 12.1784 11.6491 12.6164C11.4116 13.4767 10.8312 14.2041 10.0774 14.5756C9.63644 14.7946 9.38769 14.8455 8.79596 14.8494C8.20799 14.8494 7.93662 14.7868 7.45796 14.5365C7.11498 14.3566 6.57602 13.8991 6.58355 13.7935C6.58732 13.7778 6.7117 13.7192 6.86246 13.6683C8.62258 13.0544 9.96811 11.4783 10.3149 9.62074C10.3488 9.42911 10.3978 9.27659 10.4204 9.27659C10.4392 9.27659 10.5674 9.37045 10.7031 9.48777Z" fill="#74BC1F"/>
</svg>
