<svg width="18" height="18" viewBox="0 0 18 18" fill="none" xmlns="http://www.w3.org/2000/svg">
<g id="Group">
<path id="Vector" d="M5.14441 0.712563C4.5617 0.823244 4.08641 1.07065 3.65671 1.47757C3.18793 1.92356 2.90472 2.41837 2.78101 3.02712C2.72242 3.30383 2.71916 3.54147 2.71916 7.11911V10.9214H2.63778C2.43595 10.9214 2.17226 11.1069 2.06158 11.325C2.00949 11.4292 1.98996 11.5399 1.97694 11.8329L1.96066 12.2072L1.79464 12.3407C1.42353 12.6337 1.11427 13.1285 0.941736 13.7047C0.857097 13.9782 0.850586 14.0368 0.850586 14.5999C0.850586 15.3129 0.896161 15.5245 1.15333 16.0486C1.42027 16.589 1.80441 16.9796 2.26667 17.1847C3.21398 17.6014 4.25569 17.1196 4.78632 16.0193C5.0207 15.531 5.07604 15.264 5.0793 14.6162C5.0793 14.1377 5.06953 14.0237 5.00443 13.7861C4.84491 13.2066 4.51938 12.663 4.1385 12.344L3.93992 12.1812L3.92365 11.784C3.90737 11.4194 3.90086 11.3771 3.81622 11.2534C3.70554 11.0841 3.51347 10.9539 3.33768 10.9311L3.20747 10.9116L3.21398 7.03447L3.22374 3.15734L3.29862 2.92946C3.44836 2.48348 3.6209 2.20352 3.93992 1.88775C4.39242 1.43525 4.897 1.20412 5.51877 1.16506C6.66466 1.09669 7.68684 1.82264 8.03191 2.95225C8.10353 3.18989 8.10353 3.20617 8.11655 5.69326L8.12632 8.19338L7.97006 8.05665C7.75195 7.86459 7.43618 7.68554 7.13018 7.58137C6.90556 7.50324 6.81766 7.49022 6.4791 7.49022C6.15031 7.48697 6.05265 7.49999 5.86058 7.56509C5.15417 7.79948 4.60076 8.40823 4.42823 9.13092C4.22314 10.0034 4.42823 10.9181 5.03372 11.8003C5.22253 12.077 5.53505 12.4514 5.57737 12.4514C5.59039 12.4514 5.67828 12.383 5.77269 12.3016L5.94197 12.1552L5.74014 11.9208C4.70819 10.7228 4.54542 9.30997 5.33973 8.45055C5.85407 7.89714 6.6614 7.80925 7.37107 8.22593C7.61522 8.37242 7.97982 8.73702 8.18491 9.04628C8.27932 9.18626 8.36721 9.28718 8.38023 9.27416C8.39325 9.25788 8.47464 9.14069 8.56253 9.01699C8.79041 8.69471 9.01177 8.46683 9.28522 8.28453C9.58797 8.0827 9.83863 7.98829 10.1446 7.96876C10.9422 7.91016 11.6323 8.45055 11.8374 9.29369C11.9058 9.56389 11.8895 10.1336 11.8049 10.4493C11.5672 11.3608 10.8218 12.2723 9.50008 13.2717C9.12246 13.5615 8.39 14.0791 8.36396 14.0791C8.33791 14.0791 7.40363 13.4085 7.07158 13.1545C6.92509 13.0406 6.68419 12.8453 6.54096 12.7183L6.27727 12.4905L6.10799 12.6597L5.93871 12.8323L6.12752 13.0048C6.42702 13.2815 6.88928 13.6396 7.52082 14.0888L8.10678 14.5088L8.16212 14.8473C8.22723 15.2347 8.35093 15.5733 8.54951 15.9118C8.74158 16.2406 9.26244 16.7517 9.59774 16.9405C10.7957 17.6144 12.2541 17.3995 13.1949 16.4099C13.7418 15.8305 14.0153 15.1175 14.0153 14.2549V13.9163H13.7744H13.5367L13.5172 14.3623C13.4977 14.8473 13.4326 15.1533 13.2795 15.4561C12.8271 16.3578 11.909 16.895 10.9227 16.8364C10.5581 16.8136 10.2553 16.7289 9.89723 16.5434C9.53263 16.3546 9.10292 15.9249 8.91411 15.5603C8.76111 15.264 8.66019 14.958 8.62764 14.6976L8.60485 14.5185L9.18756 14.1051C10.5711 13.1187 11.3621 12.3635 11.8407 11.5757C12.6187 10.2931 12.5438 8.86073 11.6551 8.02736C11.2417 7.64322 10.8315 7.48697 10.239 7.48697C9.907 7.49022 9.83212 7.49999 9.57821 7.59114C9.25267 7.70508 9.00526 7.84506 8.77413 8.05014L8.61136 8.19338V5.80069C8.61136 3.18013 8.60811 3.10525 8.41604 2.58439C8.10027 1.71521 7.32224 1.0088 6.41074 0.764648C6.08195 0.676752 5.46669 0.650711 5.14441 0.712563ZM3.37023 11.4748C3.42232 11.5269 3.43534 11.5822 3.43534 11.7482V11.9566L3.29862 11.924C3.14887 11.8915 2.61499 11.9077 2.51082 11.9468C2.45548 11.9729 2.45222 11.9598 2.46524 11.7515C2.48478 11.439 2.5271 11.4097 2.96657 11.4097C3.26281 11.4097 3.31489 11.4194 3.37023 11.4748ZM3.33117 12.4351C3.56556 12.5067 3.87807 12.7281 4.06363 12.9592C4.98489 14.0921 4.69191 16.1234 3.52649 16.6996C2.89821 17.0089 2.2276 16.8006 1.77185 16.1527C1.46259 15.71 1.31936 15.2184 1.31936 14.5902C1.31936 13.5582 1.84998 12.6728 2.60522 12.4319C2.78753 12.3733 3.12934 12.3765 3.33117 12.4351Z" fill="#74BC1F"/>
<path id="Vector_2" d="M13.1917 0.715821C12.6611 0.816738 12.1044 1.06089 11.7105 1.36038C11.4208 1.585 11.0204 2.02773 10.8446 2.32397C10.5191 2.86761 10.3628 3.43405 10.3628 4.08512C10.3628 4.73619 10.5191 5.30262 10.8446 5.84627C11.0236 6.14576 11.4208 6.58524 11.717 6.81311C11.9742 7.01169 12.5244 7.28839 12.8108 7.36001L13.0387 7.41861V7.63346C13.0387 8.00457 13.1461 8.21617 13.4163 8.38219L13.527 8.45381V10.4526V12.4547L13.7646 12.4449L13.999 12.4351L14.0088 10.4233C14.0153 8.63937 14.0218 8.41475 14.0674 8.41475C14.0934 8.41475 14.1846 8.34639 14.2692 8.25849C14.4483 8.0827 14.5036 7.93296 14.5036 7.63021V7.42186L14.7185 7.36327C15.5649 7.1419 16.4047 6.44526 16.8117 5.62816C17.0721 5.1073 17.173 4.67434 17.173 4.08512C17.173 3.32011 16.9582 2.65276 16.5187 2.0668C16.0369 1.42223 15.376 0.976251 14.6078 0.774418C14.2041 0.670247 13.5693 0.644204 13.1917 0.715821ZM13.5205 1.40596L13.5107 1.65662L13.2959 1.69569C12.6969 1.80637 12.0946 2.20352 11.7561 2.71461C11.5673 2.99457 11.4859 3.18338 11.398 3.54799L11.3231 3.84097L11.092 3.85073L10.8576 3.8605V3.76935C10.8576 3.59356 10.9911 3.12804 11.1148 2.8611C11.271 2.53231 11.4013 2.33699 11.6356 2.08633C12.137 1.55896 12.7034 1.27574 13.5042 1.15855C13.5172 1.15855 13.527 1.26923 13.5205 1.40596ZM14.4548 1.24319C15.5453 1.49385 16.395 2.37606 16.6359 3.50892C16.714 3.87027 16.7205 3.85724 16.4471 3.85724H16.2062L16.1541 3.58705C16.089 3.26477 15.8774 2.81553 15.6528 2.53882C15.3305 2.14167 14.8357 1.82915 14.3539 1.72498C14.2106 1.69243 14.0772 1.66313 14.0576 1.65662C14.0283 1.65011 14.0153 1.56873 14.0153 1.4027V1.1553L14.1227 1.17483C14.1781 1.18459 14.3311 1.21715 14.4548 1.24319ZM14.3506 2.22631C14.9691 2.44116 15.4151 2.88064 15.6169 3.46009C15.6788 3.64239 15.6918 3.74331 15.6918 4.08512C15.6918 4.42693 15.6788 4.52785 15.6169 4.71015C15.4119 5.29937 14.9496 5.7421 14.3083 5.96021C14.0641 6.04485 13.4521 6.04159 13.2177 5.96021C12.9378 5.85929 12.7978 5.78767 12.5927 5.63467C11.5705 4.88268 11.5705 3.28756 12.5927 2.53557C12.8434 2.35001 13.1168 2.22305 13.3968 2.16446C13.6247 2.11888 14.1325 2.14818 14.3506 2.22631ZM11.3785 4.54738C11.564 5.51422 12.3486 6.29876 13.2959 6.47455L13.5107 6.51362L13.5205 6.76103L13.5303 7.01169L13.4066 6.99541C12.3974 6.85218 11.5477 6.22715 11.118 5.31239C10.9976 5.05522 10.8576 4.57993 10.8576 4.41717C10.8576 4.3488 10.8706 4.34555 11.0985 4.34555H11.3361L11.3785 4.54738ZM16.6847 4.39112C16.6847 4.48227 16.5903 4.88594 16.5219 5.07475C16.1769 6.0774 15.2263 6.83915 14.139 6.99216L14.0153 7.01169V6.76754C14.0153 6.60151 14.0283 6.52013 14.0576 6.51362C14.0772 6.50711 14.2074 6.47781 14.3408 6.44851C15.2686 6.24342 16.0174 5.43284 16.1801 4.466L16.1997 4.34555H16.4406C16.6326 4.34555 16.6847 4.35531 16.6847 4.39112ZM14.0153 7.66602C14.0153 7.79949 13.999 7.84832 13.9339 7.91017C13.8916 7.95574 13.8167 7.99155 13.7712 7.99155C13.7256 7.99155 13.6507 7.95574 13.6084 7.91017C13.5433 7.84832 13.527 7.79949 13.527 7.66602V7.50325H13.7712H14.0153V7.66602Z" fill="#74BC1F"/>
<path id="Vector_3" d="M13.4943 3.40474C13.2372 3.50891 13.0386 3.80515 13.0386 4.08837C13.0386 4.29997 13.1786 4.56365 13.3576 4.68735C13.4911 4.7785 13.5204 4.78501 13.8068 4.78501H14.1128L14.3244 4.99661L14.536 5.20496L14.6988 5.04544C14.7867 4.95755 14.8616 4.86965 14.8616 4.85338C14.8616 4.83384 14.7672 4.72316 14.65 4.60597L14.4416 4.39437L14.4774 4.25765C14.5523 3.95164 14.3928 3.5903 14.1161 3.44381C13.9598 3.36242 13.6506 3.34289 13.4943 3.40474ZM13.9468 3.94188C13.9859 3.99071 14.0152 4.05256 14.0152 4.08511C14.0152 4.11767 13.9859 4.17952 13.9468 4.22835C13.8133 4.39763 13.5269 4.30322 13.5269 4.08511C13.5269 3.867 13.8133 3.7726 13.9468 3.94188Z" fill="#74BC1F"/>
<path id="Vector_4" d="M9.7832 8.78911V9.03326H10.0274H10.2715V8.78911V8.54496H10.0274H9.7832V8.78911Z" fill="#74BC1F"/>
<path id="Vector_5" d="M10.76 9.27739V9.52155H11.0042H11.2483V9.27739V9.03324H11.0042H10.76V9.27739Z" fill="#74BC1F"/>
<path id="Vector_6" d="M7.40035 10.4005L7.0976 10.8204L6.79811 10.8237H6.49536V11.0678V11.312H6.9153H7.3385L7.54033 11.0353C7.65101 10.8823 7.74867 10.7586 7.7617 10.7586C7.77146 10.7586 8.01561 11.006 8.30209 11.3087C8.58856 11.6115 8.83271 11.8556 8.84573 11.8524C8.8555 11.8524 9.0378 11.6245 9.24614 11.3511L9.62702 10.8562H9.93302H10.239V10.6121V10.3647L9.80932 10.3745L9.37961 10.3842L9.09965 10.7488C8.94665 10.9474 8.81318 11.1102 8.80016 11.1069C8.79039 11.1037 8.53647 10.8497 8.24023 10.5405L7.69984 9.98055L7.40035 10.4005Z" fill="#74BC1F"/>
<path id="Vector_7" d="M13.5269 13.1676V13.4313L13.7645 13.4215L13.9989 13.4117V13.1676V12.9234L13.7645 12.9137L13.5269 12.9039V13.1676Z" fill="#74BC1F"/>
</g>
</svg>
