<svg width="24" height="25" viewBox="0 0 24 25" fill="none" xmlns="http://www.w3.org/2000/svg">
<path d="M8.97922 2.70157C8.87761 2.71721 8.6744 2.77192 8.5298 2.81881C7.67786 3.09237 6.95879 3.79581 6.76339 4.53833C6.68914 4.83533 6.68132 4.85097 6.62661 4.85097C6.51328 4.85097 6.3765 4.94476 6.34133 5.04637C6.29052 5.18705 6.3765 5.39027 6.49765 5.41372C7.07212 5.53096 7.27143 5.43716 7.27143 5.04637C7.27143 4.80407 7.41993 4.41718 7.60361 4.16707C8.14291 3.448 9.10037 3.108 10.0187 3.31122C10.5854 3.43628 11.1833 3.82317 11.4178 4.21787C11.4647 4.29603 11.5429 4.40546 11.5937 4.46017C11.6796 4.55396 11.6835 4.58132 11.6953 5.52705L11.707 6.50014L11.8164 6.59393C11.9532 6.71117 12.047 6.71117 12.1838 6.59393L12.2932 6.50014L12.3049 5.52705C12.3166 4.58132 12.3205 4.55396 12.4065 4.46017C12.4573 4.40546 12.5355 4.29603 12.5824 4.21787C12.7192 3.98339 13.1139 3.65122 13.4187 3.50662C14.1456 3.16272 14.9115 3.16662 15.6189 3.52225C16.295 3.86225 16.7288 4.48752 16.7288 5.12062C16.7288 5.39418 16.6115 5.7967 16.4747 5.99991C16.3184 6.23049 16.3106 6.31646 16.4474 6.45324C16.5138 6.51577 16.5998 6.57048 16.6428 6.57048C16.8421 6.57048 17.1039 6.17968 17.2368 5.699C17.2993 5.47624 17.311 5.4567 17.4205 5.44498C17.612 5.42544 18.1005 5.54659 18.3584 5.67555C18.628 5.81233 18.9798 6.15233 19.1009 6.39462C19.3119 6.81278 19.308 7.21139 19.0892 7.66472C18.8821 8.10241 18.9485 8.21965 19.4487 8.28218C19.9763 8.35252 20.3397 8.53229 20.6641 8.88792C20.8673 9.11067 20.9689 9.30607 21.0314 9.60699C21.176 10.3143 20.6719 11.0647 19.945 11.221C19.8356 11.2444 19.7145 11.2991 19.6754 11.3421C19.5855 11.4398 19.5894 11.6274 19.6832 11.7329C19.7965 11.8619 20.1756 11.8189 20.5273 11.6391L20.7931 11.5024L20.9337 11.6626C21.008 11.7525 21.1331 11.9518 21.2034 12.1003C21.5903 12.8975 21.4301 13.7573 20.7813 14.4021C20.457 14.7264 20.199 14.8867 19.7574 15.0313C19.2299 15.2071 19.1712 15.3517 19.4761 15.7308C19.8082 16.1333 19.9724 16.5788 19.9724 17.0478C19.9685 17.38 19.9177 17.591 19.7496 17.9544C19.5894 18.2944 19.5972 18.4195 19.7809 18.525C20.0193 18.6579 20.2264 18.439 20.4296 17.845C20.5273 17.5676 20.539 17.4777 20.539 17.0439C20.539 16.6101 20.5234 16.5202 20.4296 16.2427C20.3671 16.0708 20.2655 15.8441 20.203 15.7386C20.1365 15.637 20.0896 15.5471 20.0974 15.5432C20.6641 15.2853 20.8321 15.1759 21.1878 14.8202C21.4926 14.5115 21.5864 14.3865 21.7193 14.1129C21.9303 13.683 22.0241 13.2336 21.9928 12.7998C21.9537 12.2527 21.6958 11.6391 21.3441 11.2483C21.2112 11.0998 21.2073 11.0959 21.2776 10.9943C21.4496 10.7286 21.5786 10.3964 21.6216 10.1033C21.7661 9.08332 21.0197 8.05552 19.9255 7.77805C19.7457 7.73115 19.734 7.71943 19.7535 7.62564C19.8786 7.07461 19.8747 6.81668 19.734 6.39853C19.4526 5.57004 18.6046 4.95648 17.612 4.8666L17.315 4.83924L17.272 4.67902C17.2016 4.39764 17.1899 4.36638 17.0766 4.13971C16.7561 3.50271 16.0878 2.98686 15.2828 2.75629C14.8998 2.64686 14.1143 2.65468 13.704 2.77192C13.192 2.92042 12.8051 3.14318 12.4456 3.50271C12.2737 3.67466 12.1017 3.85834 12.0665 3.91305L12.0001 4.01075L11.9337 3.91305C11.8985 3.85834 11.7265 3.67466 11.5546 3.50271C11.199 3.14708 10.8082 2.92042 10.3197 2.77973C9.99139 2.68594 9.28404 2.64686 8.97922 2.70157Z" fill="white"/>
<path d="M14.5247 4.62087C14.3215 4.7811 14.4348 5.125 14.6927 5.125C14.9702 5.125 15.0874 4.81236 14.8764 4.62869C14.7474 4.51926 14.6575 4.51535 14.5247 4.62087Z" fill="white"/>
<path d="M5.14158 5.28982C4.79377 5.48913 4.38734 6.00107 4.26229 6.39969C4.12551 6.8452 4.1216 7.07968 4.24665 7.62679C4.26619 7.72059 4.25447 7.73231 4.0747 7.77921C2.97656 8.06058 2.22232 9.10011 2.38254 10.1201C2.42553 10.4015 2.5584 10.7415 2.72645 10.9955C2.79288 11.101 2.79288 11.1049 2.67174 11.23C2.30829 11.6129 2.04255 12.246 2.00738 12.8244C1.94094 13.86 2.5584 14.8761 3.55885 15.3763C3.74252 15.4662 3.89493 15.5444 3.90275 15.5444C3.91057 15.5483 3.86367 15.6382 3.79724 15.7398C3.54322 16.154 3.36345 16.9825 3.47678 17.1975C3.54322 17.3186 3.70344 17.3733 3.83632 17.3186C3.95746 17.2678 4.02781 17.131 4.02781 16.9395C4.02781 16.5761 4.22321 16.0954 4.52412 15.732C4.82894 15.3529 4.77032 15.2083 4.24275 15.0324C3.79333 14.8839 3.53931 14.7276 3.20713 14.3915C2.36691 13.5435 2.37082 12.4219 3.21885 11.5074C3.53931 11.1596 3.55103 11.0815 3.32437 10.8079C2.81242 10.1904 2.81633 9.45182 3.33609 8.88517C3.76597 8.42012 4.48113 8.17391 5.01653 8.31069C5.14549 8.34196 5.32526 8.42402 5.42296 8.48655C5.72778 8.69367 5.9818 8.61552 5.9818 8.32242C5.9818 8.20908 5.95444 8.15828 5.85674 8.0723C5.69652 7.93943 5.38779 7.79484 5.12204 7.73231C4.93055 7.68932 4.9071 7.67369 4.83285 7.50955C4.77423 7.38059 4.75469 7.25163 4.75078 7.02106C4.75078 6.59118 4.89147 6.29808 5.27836 5.93464C5.51675 5.71188 5.55192 5.66108 5.55192 5.53993C5.55192 5.44223 5.52457 5.38361 5.45031 5.32499C5.33307 5.2312 5.25491 5.22338 5.14158 5.28982Z" fill="white"/>
<path d="M9.64749 5.98738C9.57715 6.04209 9.53416 6.12807 9.5029 6.28829C9.41301 6.74553 9.0652 7.15977 8.55716 7.41379C8.22499 7.58184 8.16637 7.7108 8.3305 7.91792C8.38521 7.98827 8.44774 8.01953 8.52981 8.01953C8.90498 8.01953 9.7022 7.37081 9.92496 6.88231C10.0735 6.55794 10.1399 6.20623 10.0774 6.09289C9.97576 5.9014 9.80772 5.85842 9.64749 5.98738Z" fill="white"/>
<path d="M14.4035 6.10734C14.2277 6.15814 14.0127 6.35354 13.9189 6.54503C13.8173 6.75997 13.8134 7.08043 13.9111 7.29928C13.9775 7.44778 14.2745 7.74479 14.3566 7.74479C14.4191 7.74479 14.3527 8.12777 14.255 8.34271C14.2042 8.45604 14.1104 8.59673 14.0479 8.65925C13.8095 8.89764 13.3327 9.03051 12.7231 9.03442C12.2893 9.03442 12.3206 9.08523 12.3049 8.30754C12.2932 7.67053 12.2893 7.62364 12.2072 7.54548C12.0939 7.43215 11.9063 7.43215 11.793 7.54548L11.707 7.63145L11.6953 14.0835C11.6875 19.4218 11.6757 20.5473 11.6328 20.5708C11.6054 20.5864 11.5155 20.7154 11.4295 20.86C11.1247 21.3797 10.5112 21.8214 9.85071 21.9972C9.5029 22.091 8.75256 22.091 8.40475 21.9972C7.43948 21.7393 6.70869 21.0163 6.568 20.1683C6.48593 19.6915 6.62271 19.1678 6.91581 18.8317C7.08385 18.6442 7.09167 18.4761 6.93926 18.3472C6.8611 18.2768 6.80248 18.2573 6.72823 18.2768C6.57972 18.3081 6.31007 18.6207 6.16548 18.9255C6.09904 19.074 6.02088 19.1952 5.99743 19.1952C5.8841 19.1952 5.50112 19.0545 5.21975 18.9099C4.98527 18.7848 4.82895 18.6637 4.58274 18.4175C4.31309 18.1439 4.24275 18.0892 4.13723 18.0892C3.98873 18.0892 3.87149 18.2143 3.87149 18.3745C3.87149 18.4996 4.07471 18.777 4.33654 19.0115C4.69217 19.332 5.28618 19.6446 5.73951 19.7462L5.93491 19.7931L5.96226 20.0667C6.07559 21.2469 6.9588 22.2161 8.2328 22.56C8.66268 22.6772 9.50681 22.685 9.92887 22.5795C10.3392 22.474 10.7105 22.3138 11.0192 22.1066C11.3162 21.9112 11.7852 21.4384 11.9024 21.2156C11.9454 21.1375 11.9884 21.071 12.0001 21.071C12.0118 21.071 12.0548 21.1375 12.0978 21.2156C12.2229 21.454 12.7309 21.9581 13.0318 22.1457C14.1651 22.8492 15.6502 22.8413 16.7483 22.1262C17.4947 21.6338 17.9559 20.903 18.0379 20.0667L18.0653 19.7892L18.3154 19.7267C18.6007 19.6524 18.9798 19.4961 19.0814 19.4023C19.2377 19.2616 19.1165 18.9216 18.9133 18.9216C18.8664 18.9216 18.6671 18.9802 18.4717 19.0545C18.2763 19.1287 18.0184 19.203 17.9012 19.2186C17.4986 19.2694 17.4205 19.3515 17.4556 19.7032C17.5455 20.7115 16.7522 21.6885 15.5954 21.9972C15.2476 22.091 14.4973 22.091 14.1495 21.9972C13.4851 21.8214 12.9068 21.4032 12.5629 20.8522C12.4652 20.6919 12.3675 20.563 12.3479 20.563C12.3284 20.563 12.3127 19.7658 12.3127 18.6871V16.8113H12.7622C13.2663 16.8113 13.5398 16.8582 13.8017 16.9911C14.1104 17.1435 14.3136 17.4561 14.3644 17.8469L14.3879 18.0423L14.2042 18.1791C13.9541 18.3628 13.8369 18.5934 13.8369 18.8904C13.8369 19.1717 13.9306 19.3671 14.1534 19.5586C14.4895 19.8478 14.9819 19.8322 15.2984 19.5235C15.4899 19.3359 15.5681 19.1522 15.5681 18.8825C15.5681 18.5465 15.3649 18.2299 15.0601 18.0892C14.9975 18.0619 14.9702 18.015 14.9702 17.9329C14.9702 17.5929 14.7513 17.0653 14.4895 16.784C14.1339 16.3971 13.747 16.2642 12.9107 16.2368L12.3127 16.2134V15.3028V14.3884H12.9302C14.5481 14.3923 15.7166 14.5681 16.2207 14.8886C16.5881 15.1231 16.8382 15.51 16.9046 15.9594C16.9281 16.1196 16.9242 16.143 16.8499 16.1665C16.5764 16.2525 16.3614 16.5964 16.3614 16.9481C16.3614 17.7297 17.2876 18.1205 17.8386 17.5695C18.0887 17.3194 18.1669 16.909 18.0223 16.5964C17.952 16.4361 17.6667 16.147 17.5768 16.147C17.5494 16.147 17.5065 16.018 17.4635 15.807C17.2407 14.6541 16.3966 14.0601 14.7162 13.8803C14.5012 13.8569 13.872 13.8295 13.321 13.8139L12.3127 13.7904V12.8838V11.9771L13.3405 11.9537C14.9037 11.9146 15.6502 11.7974 16.2872 11.4925C16.9398 11.1799 17.3267 10.6758 17.4635 9.96061C17.4986 9.77303 17.5455 9.62062 17.569 9.62062C17.655 9.62062 17.952 9.32752 18.0223 9.17511C18.1943 8.79213 18.0458 8.29972 17.694 8.08087C17.3658 7.88157 16.9632 7.90111 16.678 8.13949C16.3223 8.43259 16.2481 8.92891 16.506 9.31189C16.5881 9.43304 16.7835 9.59326 16.8929 9.62844C16.9281 9.64016 16.9281 9.70269 16.889 9.87855C16.7131 10.6758 16.2012 11.0627 15.0679 11.2424C14.6106 11.3167 13.6141 11.3792 12.8911 11.3792H12.3127V10.4843V9.58936L12.5589 9.6089C12.8911 9.63625 13.532 9.562 13.8173 9.4643C14.4582 9.24545 14.8178 8.79213 14.9467 8.0457C14.9897 7.79559 15.0014 7.77605 15.1499 7.68617C15.3492 7.56893 15.5017 7.35008 15.5525 7.11169C15.6463 6.70526 15.4196 6.2832 15.021 6.11516C14.8803 6.05654 14.5833 6.05263 14.4035 6.10734ZM14.8959 6.72089C15.0249 6.82641 15.0132 7.02572 14.8764 7.14686C14.7474 7.25629 14.6575 7.2602 14.5247 7.15468C14.4504 7.09606 14.4231 7.03744 14.4231 6.93974C14.4231 6.68572 14.6927 6.56067 14.8959 6.72089ZM17.4205 8.61236C17.5494 8.7296 17.5416 8.925 17.4088 9.03051C17.2134 9.18292 16.9867 9.09304 16.9398 8.85075C16.889 8.59282 17.2251 8.42868 17.4205 8.61236ZM17.4088 16.7371C17.6159 16.8973 17.4791 17.2412 17.2094 17.2412C17.1586 17.2412 17.0727 17.1943 17.014 17.1396C16.9359 17.0614 16.9203 17.0184 16.9398 16.9168C16.9867 16.6745 17.2134 16.5847 17.4088 16.7371ZM14.8959 18.6793C15.0249 18.7848 15.0132 18.9842 14.8764 19.1053C14.7474 19.2147 14.6575 19.2186 14.5247 19.1131C14.4504 19.0545 14.4231 18.9959 14.4231 18.8982C14.4231 18.6442 14.6927 18.5191 14.8959 18.6793Z" fill="white"/>
<path d="M6.93925 10.452C6.56799 10.6044 6.38432 10.7217 6.10294 10.9991C5.7395 11.3547 5.50893 11.7651 5.37996 12.2809C5.25882 12.7733 5.32525 12.9805 5.60663 12.9805C5.76686 12.9805 5.90363 12.8359 5.90363 12.6678C5.90363 12.5193 6.01306 12.1754 6.14202 11.9175C6.37259 11.4603 6.88454 11.0421 7.37695 10.9131C7.66223 10.835 7.77556 10.6357 7.63487 10.4481C7.51763 10.2918 7.32223 10.2918 6.93925 10.452Z" fill="white"/>
<path d="M9.63575 12.2765C9.50288 12.3273 9.4638 12.4055 9.42863 12.7103C9.40909 12.8706 9.3661 13.0581 9.33093 13.1207C9.25667 13.2653 9.08472 13.4411 8.94404 13.5115C8.64703 13.6639 8.71737 14.0742 9.04174 14.0742C9.20978 14.0742 9.54196 13.8476 9.71391 13.6131C9.97965 13.2574 10.1125 12.5188 9.94448 12.3586C9.85069 12.2648 9.73345 12.2336 9.63575 12.2765Z" fill="white"/>
<path d="M15.9941 12.6962C15.9472 12.7353 15.9003 12.8135 15.8846 12.8721C15.8651 12.958 15.8846 13.001 15.9784 13.0987C16.1191 13.2355 16.2129 13.2472 16.3536 13.1339C16.5568 12.9737 16.4435 12.6298 16.1855 12.6298C16.123 12.6298 16.037 12.661 15.9941 12.6962Z" fill="white"/>
<path d="M17.9871 12.6962C17.9402 12.7353 17.8933 12.8135 17.8777 12.8721C17.8582 12.958 17.8777 13.001 17.9715 13.0987C18.1122 13.2355 18.206 13.2472 18.3467 13.1339C18.5499 12.9737 18.4365 12.6298 18.1786 12.6298C18.1161 12.6298 18.0301 12.661 17.9871 12.6962Z" fill="white"/>
<path d="M8.32658 16.3699C8.24842 16.4716 8.24061 16.5106 8.26015 16.8506C8.31095 17.7338 8.74083 18.4842 9.43254 18.8789C9.73737 19.0547 9.9015 19.0391 9.98748 18.832C10.0656 18.6483 9.9992 18.5193 9.76081 18.3904C9.20588 18.0895 8.83853 17.4212 8.83462 16.7099C8.83462 16.5263 8.81508 16.4442 8.75255 16.366C8.63922 16.2214 8.43992 16.2254 8.32658 16.3699Z" fill="white"/>
<path d="M14.5247 20.7615C14.3215 20.9217 14.4348 21.2656 14.6927 21.2656C14.9702 21.2656 15.0874 20.953 14.8764 20.7693C14.7474 20.6599 14.6575 20.656 14.5247 20.7615Z" fill="white"/>
</svg>
