<svg width="20" height="16" viewBox="0 0 20 16" fill="none" xmlns="http://www.w3.org/2000/svg">
<g id="Group">
<path id="Vector" d="M12.8499 0.177175C11.5563 0.368529 10.5115 0.877533 9.60832 1.75394C9.12228 2.22467 8.77402 2.69923 8.49081 3.2733C8.09662 4.07316 7.93971 4.70846 7.90526 5.604L7.8823 6.21633L7.32737 7.09657C7.02503 7.57878 6.74948 8.03038 6.72269 8.09926C6.63084 8.31741 6.6538 8.71925 6.76862 8.94888C6.89108 9.19764 6.99824 9.28566 7.48811 9.54973L7.88613 9.76405L7.91292 9.96306C7.96267 10.3917 7.98181 10.4568 8.07748 10.5716C8.21526 10.7323 8.37982 10.7935 8.69365 10.7935H8.96537L8.75871 10.9925C8.45637 11.2872 8.45254 11.3676 8.68216 11.8881C8.78167 12.1139 8.9271 12.3933 9.00364 12.5119C9.31746 12.9979 9.77289 13.2391 10.5 13.3041C10.7679 13.3271 10.8062 13.3386 10.8215 13.4113C10.833 13.4534 10.8445 13.7672 10.8483 14.104C10.8598 14.6972 10.8636 14.724 10.9784 14.9651C11.1277 15.2827 11.4032 15.5583 11.7209 15.7075L11.9696 15.8262H13.8066H15.6437L15.9039 15.7037C16.3823 15.4779 16.6961 15.0493 16.7726 14.5173C16.7918 14.3757 16.8109 13.3883 16.8109 12.3206V10.3879L16.9372 10.296C17.9973 9.52294 18.7742 8.27914 19.0766 6.87459C19.1952 6.31584 19.1952 5.24425 19.0766 4.68167C18.8393 3.58712 18.3264 2.63417 17.5572 1.85344C16.765 1.04975 15.8503 0.529267 14.794 0.284333C14.4496 0.203964 14.2621 0.184829 13.6727 0.173347C13.2823 0.165693 12.9149 0.16952 12.8499 0.177175ZM14.5529 0.858397C15.2188 1.00765 15.7929 1.25642 16.3517 1.62764C16.7305 1.88023 17.4386 2.58442 17.6873 2.95947C18.0853 3.55267 18.38 4.276 18.4987 4.93808C18.5714 5.33993 18.5637 6.28905 18.4834 6.69855C18.2384 7.94618 17.6184 8.94888 16.5277 9.85207C16.4052 9.95541 16.279 10.097 16.2522 10.1659C16.2101 10.2692 16.1986 10.6749 16.1986 12.2785C16.1986 13.4495 16.1833 14.3489 16.1603 14.4714C16.1144 14.7201 15.9651 14.9421 15.7432 15.099L15.5786 15.2138L13.91 15.2253C12.7236 15.233 12.1916 15.2253 12.0845 15.1947C11.8854 15.1373 11.7056 14.9957 11.5754 14.8005C11.4759 14.6513 11.4721 14.6283 11.453 13.9356C11.43 13.1778 11.4071 13.086 11.2157 12.9138C11.0626 12.7683 10.9057 12.7186 10.5651 12.6918C9.90301 12.6459 9.63128 12.4507 9.33277 11.8269L9.15672 11.4633L9.38635 11.2413C9.71165 10.9198 9.77289 10.6481 9.57388 10.3955C9.43993 10.2233 9.30981 10.1812 8.91562 10.1812H8.55587L8.52908 10.0052C8.5176 9.90565 8.50612 9.77171 8.50612 9.70282C8.50612 9.41196 8.45637 9.35838 7.95884 9.10579C7.43453 8.84172 7.33885 8.76901 7.28145 8.58913C7.22404 8.41691 7.26997 8.32124 7.94736 7.25348L8.50612 6.37324V5.85276C8.50612 5.23277 8.57883 4.75438 8.75871 4.21476C9.16821 2.97861 10.0446 1.94147 11.1851 1.34444C11.6214 1.11864 12.2337 0.904323 12.6815 0.823954C13.0833 0.755066 14.1855 0.774201 14.5529 0.858397Z" fill="#74BC1F"/>
<path id="Vector_2" d="M3.27529 8.05763C2.89641 8.17244 2.62851 8.4059 2.4295 8.77713C2.33765 8.957 2.32617 9.01441 2.32617 9.35884C2.32617 9.72242 2.33383 9.75304 2.45629 9.98266C2.60555 10.2582 2.79308 10.4419 3.08011 10.5912L3.28295 10.6983L4.81378 10.7098C5.65575 10.7175 6.38289 10.7098 6.42882 10.6983C6.5398 10.6715 6.63931 10.4802 6.60869 10.3539C6.59721 10.3003 6.5398 10.2238 6.49005 10.1817C6.39438 10.109 6.32931 10.1051 4.94008 10.1051C3.34801 10.1051 3.34418 10.1051 3.12221 9.87168C2.97295 9.71094 2.91937 9.57699 2.91937 9.35884C2.91937 9.04885 3.06863 8.81922 3.35949 8.68528C3.48578 8.62787 3.60825 8.61256 4.02158 8.61256H4.53441L4.64539 8.50157C4.70663 8.44034 4.75638 8.35997 4.75638 8.32553C4.75638 8.24516 4.68366 8.10738 4.60712 8.04998C4.52293 7.98492 3.48961 7.98874 3.27529 8.05763Z" fill="#74BC1F"/>
<path id="Vector_3" d="M1.02112 11.0236C0.913958 11.0657 0.814453 11.2073 0.814453 11.3145C0.814453 11.3604 0.848897 11.4407 0.894822 11.4982L0.971364 11.5977H1.70999C2.42949 11.5977 2.44862 11.5938 2.52899 11.5096C2.64381 11.3872 2.63998 11.2149 2.51368 11.0963C2.41801 11.0083 2.39504 11.0045 1.75975 10.9968C1.39617 10.993 1.06321 11.0045 1.02112 11.0236Z" fill="#74BC1F"/>
<path id="Vector_4" d="M3.87318 11.5513C3.09628 11.957 3.1422 13.1778 3.94972 13.5414C4.06453 13.595 4.23293 13.6064 4.94094 13.6064H5.79821L5.89389 13.4955C5.9666 13.4074 5.98191 13.3577 5.9666 13.2658C5.92068 13.04 5.90154 13.0324 5.006 13.0132C4.20614 12.9941 4.187 12.9941 4.09132 12.9023C3.87318 12.6956 3.87701 12.3052 4.09515 12.1368C4.19083 12.0603 4.23675 12.0565 5.89389 12.0565H7.59694L7.70793 11.9455C7.76916 11.8843 7.81892 11.8039 7.81892 11.7694C7.81892 11.6776 7.71558 11.4939 7.6467 11.4671C7.61225 11.4556 6.79325 11.4441 5.82882 11.4441H4.07602L3.87318 11.5513Z" fill="#74BC1F"/>
</g>
</svg>
