<svg width="16" height="12" viewBox="0 0 16 12" fill="none" xmlns="http://www.w3.org/2000/svg">
<path d="M0.772266 0.784307C0.416016 0.868683 0.122266 1.15618 0.0378906 1.50618C-0.0152344 1.71556 -0.0152344 10.2843 0.0378906 10.4937C0.0847656 10.6843 0.253516 10.9406 0.400391 11.0406C0.619141 11.1937 0.747266 11.2312 1.05664 11.2312C1.32852 11.2343 1.35352 11.2281 1.40977 11.1593C1.48789 11.0656 1.48477 10.9656 1.40352 10.8624C1.34414 10.7874 1.31914 10.7812 1.11289 10.7812C0.816016 10.7812 0.644141 10.6968 0.541016 10.4999L0.469141 10.3656V5.99993V1.63431L0.541016 1.49993C0.591016 1.40618 0.656641 1.34056 0.750391 1.29056L0.884766 1.21868H7.36601H13.8473L13.9223 1.14056C13.966 1.09993 14.0004 1.04368 14.0004 1.01868C14.0004 0.931183 13.9316 0.818683 13.8535 0.784307C13.7598 0.740558 0.956641 0.740558 0.772266 0.784307Z" fill="#74BC1F"/>
<path d="M14.6656 0.778106C14.525 0.840606 14.4937 1.00623 14.5969 1.13748C14.6562 1.21248 14.6812 1.21873 14.8875 1.21873C15.1844 1.21873 15.3562 1.30311 15.4594 1.49998L15.5312 1.63436V5.99998V10.3656L15.4594 10.5C15.4094 10.5937 15.3437 10.6594 15.25 10.7094L15.1156 10.7812H8.63437H2.15312L2.07812 10.8594C2.03437 10.9 2 10.9562 2 10.9812C2 11.0719 2.07187 11.1844 2.15312 11.2156C2.20937 11.2406 4.125 11.25 8.73437 11.2437C14.9125 11.2344 15.2406 11.2312 15.3594 11.1781C15.6719 11.0375 15.8906 10.7906 15.9625 10.4937C16.0156 10.2844 16.0156 1.71561 15.9625 1.50623C15.8906 1.20936 15.6625 0.953106 15.3594 0.824981C15.2156 0.765606 14.7656 0.734356 14.6656 0.778106Z" fill="#74BC1F"/>
<path d="M13.3505 2.39375C13.2442 2.46563 13.2598 2.61563 13.4005 2.84688C13.663 3.28438 13.763 3.65938 13.763 4.1875C13.7598 4.45938 13.7442 4.60625 13.6942 4.79063C13.6161 5.06875 13.4817 5.375 13.363 5.55C13.3192 5.61563 13.2817 5.70625 13.2817 5.75C13.2817 5.86875 13.388 5.96875 13.5161 5.96875C13.6505 5.96875 13.7536 5.84688 13.9317 5.49063C14.2817 4.78125 14.338 4 14.0973 3.24688C13.9973 2.9375 13.763 2.49063 13.6536 2.39688C13.5723 2.33125 13.4442 2.32813 13.3505 2.39375Z" fill="#74BC1F"/>
<path d="M12.5383 2.95933C12.432 3.04996 12.4258 3.15308 12.5164 3.31246C12.8351 3.87183 12.857 4.35621 12.5914 4.87183C12.5226 4.99996 12.4695 5.14058 12.4695 5.18746C12.4695 5.34996 12.6883 5.46246 12.8164 5.36558C12.907 5.29683 13.057 5.02183 13.1445 4.76558C13.2133 4.56246 13.2289 4.45621 13.2289 4.20308C13.232 3.82183 13.1883 3.62496 13.0258 3.28746C12.8508 2.92808 12.6976 2.82496 12.5383 2.95933Z" fill="#74BC1F"/>
<path d="M11.6906 3.58117C11.6094 3.6843 11.6094 3.7218 11.6844 3.86867C11.7844 4.06555 11.7906 4.16242 11.7188 4.3718C11.6406 4.59367 11.6531 4.69367 11.7656 4.76867C11.9 4.85617 12.0313 4.7968 12.1313 4.60305C12.2438 4.37492 12.2656 4.17805 12.2031 3.93117C12.1375 3.67492 12.0156 3.51867 11.8688 3.50617C11.7781 3.49992 11.7438 3.51242 11.6906 3.58117Z" fill="#74BC1F"/>
<path d="M2.39062 3.76875C2.10938 3.84062 1.95 3.95312 1.83438 4.16875C1.77188 4.2875 1.76562 4.34062 1.76562 4.875C1.76562 5.4125 1.77188 5.4625 1.83438 5.58125C1.9125 5.72812 2.0625 5.86562 2.20937 5.92812C2.28438 5.95937 2.50938 5.96875 3.11563 5.96875C4.01562 5.96875 4.07188 5.95625 4.27188 5.74687C4.44688 5.55937 4.46875 5.46875 4.46875 4.86875C4.46875 4.4125 4.45938 4.30937 4.40937 4.20312C4.34063 4.05 4.2125 3.92187 4.04688 3.83437C3.93125 3.77187 3.86875 3.76562 3.1875 3.75937C2.78438 3.75625 2.425 3.7625 2.39062 3.76875ZM2.75 4.85937V5.5H2.58125C2.36563 5.5 2.32188 5.48125 2.26562 5.37187C2.20625 5.25937 2.2 4.5125 2.25625 4.3875C2.30313 4.28437 2.44063 4.22187 2.61875 4.21875H2.75V4.85937ZM3.925 4.32187C3.99688 4.40625 4 4.43125 4 4.87812C4 5.33437 3.99688 5.35 3.92188 5.42187C3.85313 5.49375 3.825 5.5 3.53125 5.5H3.21875V4.85625V4.2125L3.53438 4.225C3.83438 4.2375 3.85625 4.24062 3.925 4.32187Z" fill="#74BC1F"/>
<path d="M1.8159 7.11245C1.73153 7.22183 1.73465 7.29058 1.82528 7.39683L1.90028 7.48433L3.02215 7.4937C3.63778 7.49995 4.18778 7.4937 4.24403 7.48433C4.45028 7.44683 4.5409 7.22808 4.40653 7.0937C4.34715 7.03433 4.3034 7.0312 3.11278 7.0312H1.8784L1.8159 7.11245Z" fill="#74BC1F"/>
<path d="M5.07833 7.09375C5.0002 7.18125 5.00645 7.33125 5.09083 7.41562C5.15645 7.48438 5.1627 7.48438 6.37208 7.48438C7.52208 7.48438 7.59083 7.48125 7.65333 7.425C7.7377 7.34687 7.74083 7.17812 7.65645 7.09375C7.59708 7.03437 7.55333 7.03125 6.36583 7.03125C5.17208 7.03125 5.13458 7.03437 5.07833 7.09375Z" fill="#74BC1F"/>
<path d="M8.34397 7.09375C8.25959 7.17812 8.26272 7.34687 8.34709 7.425C8.40959 7.48125 8.47834 7.48438 9.62834 7.48438C10.8377 7.48438 10.844 7.48438 10.9096 7.41562C10.994 7.33125 11.0002 7.18125 10.9221 7.09375C10.8658 7.03437 10.8283 7.03125 9.63459 7.03125C8.44709 7.03125 8.40334 7.03437 8.34397 7.09375Z" fill="#74BC1F"/>
<path d="M11.5937 7.0937C11.4594 7.22808 11.55 7.44683 11.7562 7.48433C11.8125 7.4937 12.3625 7.49995 12.9781 7.4937L14.1 7.48433L14.175 7.39683C14.2656 7.29058 14.2687 7.22183 14.1844 7.11245L14.1219 7.0312H12.8875C11.6969 7.0312 11.6531 7.03433 11.5937 7.0937Z" fill="#74BC1F"/>
<path d="M1.81591 8.61242C1.74091 8.7093 1.73466 8.7468 1.78778 8.8593C1.80966 8.9093 1.86278 8.94992 1.93466 8.9718C2.00966 8.99367 2.96591 8.99992 4.81591 8.99367C7.49091 8.9843 7.59091 8.98117 7.65341 8.92492C7.73778 8.8468 7.74091 8.67805 7.65653 8.59367C7.59403 8.53117 7.55341 8.53117 4.73778 8.53117H1.87841L1.81591 8.61242Z" fill="#74BC1F"/>
<path d="M8.34397 8.59375C8.25959 8.67812 8.26272 8.84687 8.34709 8.925C8.40959 8.98125 8.47834 8.98438 9.62834 8.98438C10.8377 8.98438 10.844 8.98438 10.9096 8.91562C11.0033 8.82187 11.0033 8.66563 10.9096 8.5875C10.8408 8.53437 10.7565 8.53125 9.62209 8.53125C8.44709 8.53125 8.40334 8.53437 8.34397 8.59375Z" fill="#74BC1F"/>
</svg>
