<svg xmlns="http://www.w3.org/2000/svg" width="24" height="24" viewBox="0 0 24 24" fill="none">
  <path d="M9.1183 2.0031C9.05984 2.01146 8.90117 2.04068 8.76337 2.06574C8.29571 2.14507 7.90738 2.27869 7.81969 2.38726C7.71113 2.52505 7.71948 2.69625 7.83639 2.80064C7.98671 2.93426 8.05352 2.93844 8.40845 2.83405C9.97847 2.36638 11.6404 2.80482 12.7803 3.99486C13.1686 4.40407 13.3649 4.69218 13.6112 5.21413C13.7866 5.59411 13.8743 5.69432 14.0246 5.69432C14.0664 5.69432 14.2668 5.63169 14.4798 5.55235C15.5153 5.1682 16.5926 5.27677 17.4778 5.85717C18.5677 6.5712 19.1815 7.89904 18.9727 9.09743C18.8725 9.69036 18.8725 9.81146 18.9685 9.9075C19.0395 9.97848 19.1063 9.99518 19.3193 9.99518C20.622 9.99518 21.6117 11.2353 21.2901 12.4713C21.1189 13.1352 20.6847 13.6154 20.0041 13.891C19.7911 13.9829 19.7535 13.9829 16.1959 14.0037L12.6049 14.0246L12.3252 14.1582C11.9368 14.342 11.6946 14.5758 11.5067 14.9558L11.3522 15.2731L11.3272 17.5196L11.0599 17.2649C10.8512 17.0645 10.7677 17.0102 10.6633 17.0102C10.4879 17.0102 10.3292 17.173 10.3292 17.3526C10.3292 17.4695 10.4044 17.5614 10.9263 18.0833C11.7113 18.8683 11.6195 18.8683 12.4045 18.0833C12.9264 17.5614 13.0016 17.4695 13.0016 17.3526C13.0016 17.173 12.8429 17.0102 12.6676 17.0102C12.5632 17.0102 12.4796 17.0645 12.2667 17.2691L11.9995 17.5238V16.53C11.9995 15.8744 12.0162 15.4777 12.0496 15.365C12.1164 15.1353 12.4629 14.7888 12.6926 14.722C12.8095 14.6885 13.2521 14.6718 14.104 14.6718H15.3399V17.5781C15.3399 19.741 15.3274 20.5302 15.2898 20.6596C15.223 20.8893 14.8764 21.2359 14.6468 21.3027C14.4004 21.3737 8.9304 21.3737 8.68404 21.3027C8.45438 21.2359 8.10781 20.8893 8.041 20.6596C7.97001 20.4091 7.97001 8.26649 8.041 8.01595C8.10781 7.7863 8.45438 7.43972 8.68404 7.37291C8.9304 7.30193 14.4004 7.30193 14.6468 7.37291C14.8764 7.43972 15.223 7.7863 15.2898 8.01595C15.3274 8.14122 15.3399 8.84272 15.3399 10.6591V13.1311L15.4443 13.2313C15.5779 13.3691 15.77 13.3691 15.9078 13.2313L16.0122 13.1269L15.9871 7.92409L15.8326 7.60675C15.6447 7.22677 15.4026 6.99293 15.0142 6.80921L14.7345 6.67559H8.59635L8.31659 6.80921C7.92826 6.99293 7.68607 7.22677 7.49817 7.60675L7.34367 7.92409V20.7515L7.49817 21.0688C7.68607 21.4488 7.92826 21.6827 8.31659 21.8664L8.59635 22H14.7345L15.0142 21.8664C15.4026 21.6827 15.6447 21.4488 15.8326 21.0688L15.9871 20.7515L16.0122 14.676L17.9413 14.6635C19.7995 14.651 19.8788 14.6468 20.1419 14.5549C20.9603 14.2793 21.6492 13.5904 21.8998 12.7928C22.0209 12.4128 22.0459 11.8491 21.9624 11.4608C21.7495 10.4545 20.9018 9.59433 19.9331 9.39807L19.6658 9.33961L19.6617 8.6757C19.6533 7.94497 19.599 7.6485 19.3527 7.07645C19.0646 6.39582 18.4299 5.65675 17.8035 5.26841C17.102 4.83415 16.5258 4.67548 15.6531 4.67548C15.0309 4.67966 14.9725 4.68801 14.3127 4.88008C14.2376 4.90514 14.2 4.86338 14.0538 4.59615C13.344 3.31006 12.1122 2.39561 10.6507 2.07826C10.3626 2.01563 9.33543 1.96552 9.1183 2.0031Z" fill="#74BC1F"/>
  <path d="M6.71734 2.9468C6.50438 3.07207 6.4668 3.29755 6.63383 3.4604C6.92194 3.75269 7.38543 3.3393 7.12655 3.02613C7.03468 2.91757 6.83008 2.87999 6.71734 2.9468Z" fill="#74BC1F"/>
  <path d="M5.59411 4.07837C5.41456 4.27044 5.05963 4.96777 4.90096 5.43126C4.64207 6.21209 4.58362 7.17248 4.74646 8.00342C4.75064 8.0243 4.61702 8.07441 4.45 8.11616C3.85289 8.27483 3.20567 8.67987 2.77558 9.18094C1.82773 10.2791 1.71916 11.9201 2.5167 13.1352C2.88415 13.6947 3.50631 14.2167 4.05749 14.4213C4.57944 14.6176 4.73394 14.6426 5.59828 14.6593L6.44175 14.6802L6.54614 14.5716C6.68811 14.4338 6.68811 14.2418 6.55032 14.1081C6.4501 14.0037 6.43758 14.0037 5.7486 14.0037C5.29347 14.0037 4.94689 13.9787 4.75899 13.9411C3.48126 13.6697 2.58351 12.488 2.65867 11.1852C2.6879 10.7301 2.79646 10.3543 3.00942 10.0035C3.46038 9.26445 4.13265 8.81766 4.97612 8.69657C5.1515 8.67152 5.3394 8.62558 5.38533 8.59218C5.5106 8.51702 5.53982 8.34999 5.46884 8.10363C5.15985 7.01381 5.3394 5.7653 5.94903 4.75064C6.08265 4.52098 6.19539 4.31637 6.19539 4.28715C6.19539 4.18276 6.09935 4.03243 5.99914 3.9865C5.83212 3.91134 5.7319 3.93222 5.59411 4.07837Z" fill="#74BC1F"/>
  <path d="M10.7677 8.09529C10.7008 8.15792 10.6633 8.24561 10.6633 8.32495C10.6633 8.40428 10.7008 8.49197 10.7677 8.5546C10.8679 8.65899 10.8762 8.65899 11.6654 8.65899C12.4546 8.65899 12.4629 8.65899 12.5632 8.5546C12.63 8.49197 12.6676 8.40428 12.6676 8.32495C12.6676 8.24561 12.63 8.15792 12.5632 8.09529C12.4629 7.9909 12.4546 7.9909 11.6654 7.9909C10.8762 7.9909 10.8679 7.9909 10.7677 8.09529Z" fill="#74BC1F"/>
  <path d="M4.8759 16.6344C4.65042 16.7221 4.57526 17.0519 4.74646 17.2106C4.90931 17.3651 5.15567 17.3275 5.25588 17.1313C5.34357 16.9684 5.33522 16.864 5.22665 16.7429C5.11391 16.6219 4.99699 16.5843 4.8759 16.6344Z" fill="#74BC1F"/>
  <path d="M18.2378 16.6344C18.0123 16.7221 17.9371 17.0519 18.1083 17.2106C18.2712 17.3651 18.5176 17.3275 18.6178 17.1313C18.7055 16.9684 18.6971 16.864 18.5885 16.7429C18.4758 16.6219 18.3589 16.5843 18.2378 16.6344Z" fill="#74BC1F"/>
  <path d="M4.8759 17.9706C4.65042 18.0583 4.57526 18.3881 4.74646 18.5468C4.90931 18.7013 5.15567 18.6637 5.25588 18.4675C5.34357 18.3046 5.33522 18.2002 5.22665 18.0791C5.11391 17.958 4.99699 17.9205 4.8759 17.9706Z" fill="#74BC1F"/>
  <path d="M18.2378 17.9706C18.0123 18.0583 17.9371 18.3881 18.1083 18.5468C18.2712 18.7013 18.5176 18.6637 18.6178 18.4675C18.7055 18.3046 18.6971 18.2002 18.5885 18.0791C18.4758 17.958 18.3589 17.9205 18.2378 17.9706Z" fill="#74BC1F"/>
  <path d="M4.8759 19.3068C4.65042 19.3944 4.57526 19.7243 4.74646 19.883C4.90931 20.0375 5.15567 19.9999 5.25588 19.8037C5.34357 19.6408 5.33522 19.5364 5.22665 19.4153C5.11391 19.2942 4.99699 19.2566 4.8759 19.3068Z" fill="#74BC1F"/>
  <path d="M18.2378 19.3068C18.0123 19.3944 17.9371 19.7243 18.1083 19.883C18.2712 20.0375 18.5176 19.9999 18.6178 19.8037C18.7055 19.6408 18.6971 19.5364 18.5885 19.4153C18.4758 19.2942 18.3589 19.2566 18.2378 19.3068Z" fill="#74BC1F"/>
</svg>