<svg width="45" height="44" viewBox="0 0 45 44" fill="none" xmlns="http://www.w3.org/2000/svg">
<path d="M6.36075 3.7915C5.58037 3.97765 4.82146 4.60052 4.46349 5.35942L4.27734 5.75319V22.041V38.3287L4.46349 38.7225C4.75703 39.331 5.17228 39.7535 5.80231 40.0613L6.34643 40.3334H17.9447C29.1851 40.3334 29.5646 40.3262 29.9082 40.1973C30.6886 39.9038 31.29 39.3096 31.605 38.5292L31.7697 38.1139V33.8326V29.5441L31.5692 29.3722C31.3258 29.1646 31.0895 29.1503 30.8676 29.3364L30.6957 29.4725L30.6599 33.761C30.6242 38.0137 30.6242 38.0423 30.4666 38.343C30.2733 38.701 29.8581 39.059 29.5144 39.1592C29.3498 39.2022 25.4264 39.2237 17.8302 39.2093L6.4037 39.1879L6.09585 38.9731C5.73787 38.7225 5.49445 38.386 5.38706 38.0137C5.28683 37.6557 5.28683 6.42618 5.38706 6.06821C5.49445 5.69592 5.73787 5.35942 6.09585 5.10884L6.4037 4.89406L17.8302 4.87258C25.4264 4.85826 29.3498 4.87974 29.5144 4.92269C29.8581 5.02293 30.2733 5.3809 30.4666 5.73887C30.6242 6.03241 30.6242 6.09685 30.6456 8.98211L30.6671 11.9246L26.3643 21.8906L22.0614 31.8566L22.0829 34.4555L22.1044 37.0543L22.312 37.3192C22.5411 37.6199 22.9922 37.8634 23.3215 37.8634C23.4432 37.8562 23.6508 37.8061 23.8012 37.7345C23.9444 37.6701 24.8679 36.8539 25.8488 35.9303L27.6387 34.2478L32.908 22.041C35.8076 15.3254 38.2132 9.79113 38.2418 9.73385C38.2991 9.64794 38.3564 9.64794 38.6356 9.75533C38.8146 9.82692 38.9792 9.90568 39.0007 9.94147C39.0222 9.97727 38.1058 12.1752 36.9603 14.8314C35.8219 17.4875 34.884 19.7285 34.884 19.8072C34.884 19.8788 34.9485 20.0292 35.0344 20.1365C35.2134 20.3585 35.6 20.3943 35.8004 20.1938C35.9937 20.0005 40.3252 9.86988 40.3252 9.61214C40.3252 9.3186 40.1892 9.20405 39.4231 8.87472C38.9792 8.68141 38.7788 8.5597 38.7645 8.46663C38.7072 8.08718 38.6571 8.00126 38.4423 7.89387C38.3206 7.82943 38.206 7.765 38.1917 7.75784C38.1845 7.75068 38.2919 7.47146 38.4423 7.14213C38.6785 6.60517 38.7072 6.4763 38.7072 5.93218C38.7143 5.43102 38.6857 5.26635 38.5425 4.97281C38.07 4.00628 37.0104 3.51944 36.0224 3.81298C35.2205 4.04208 34.791 4.47881 34.3829 5.44534C34.1752 5.93934 34.1251 6.00377 33.9605 6.00377C33.7385 6.00377 33.2374 6.22572 33.1085 6.37606C33.0584 6.43334 32.7505 7.10633 32.4212 7.86523L31.8198 9.23985L31.7911 7.60749C31.7625 6.12548 31.741 5.92502 31.5978 5.55273C31.3043 4.80814 30.7101 4.19959 29.9655 3.89173C29.629 3.74854 29.407 3.74854 18.1309 3.73422C11.3509 3.73422 6.52541 3.7557 6.36075 3.7915ZM37.1178 4.97997C37.4113 5.15896 37.6261 5.53125 37.6333 5.88922C37.6404 6.18992 37.2037 7.31395 37.0963 7.27816C37.0677 7.26384 36.6238 7.07769 36.1083 6.86291C35.0487 6.41902 35.0988 6.51925 35.4997 5.66728C35.7933 5.05156 36.0439 4.85826 36.5522 4.85826C36.7598 4.85826 36.9889 4.90838 37.1178 4.97997ZM35.9222 7.98694C36.7097 8.32344 37.3755 8.62413 37.4113 8.65277C37.4471 8.68141 33.087 18.9194 32.9939 19.0125C32.9581 19.0555 29.5574 17.5448 29.5359 17.4804C29.5144 17.4303 32.414 10.6359 33.8101 7.44998L33.9461 7.14213L34.2182 7.25668C34.3685 7.32111 35.1346 7.65045 35.9222 7.98694ZM31.2613 19.5065C31.9272 19.8 32.4856 20.0506 32.5071 20.0649C32.5357 20.0936 26.9657 33.0594 26.8941 33.131C26.8296 33.1954 23.3859 31.6776 23.4074 31.5917C23.4146 31.5559 24.6603 28.642 26.1853 25.1195C27.7103 21.5971 28.9703 18.676 28.9918 18.6259C29.0276 18.54 29.1135 18.5686 31.2613 19.5065ZM24.7033 33.4531C25.4622 33.7825 26.0994 34.0688 26.1209 34.0832C26.1638 34.1333 23.4432 36.6749 23.3143 36.7035C23.2284 36.725 23.2141 36.4243 23.2141 34.792C23.2141 33.7252 23.2356 32.8517 23.2714 32.8517C23.3 32.8517 23.9444 33.1238 24.7033 33.4531Z" fill="white"/>
<path d="M11.7661 6.92011C11.265 7.17069 11.222 7.30672 11.2005 8.6527C11.1719 10.013 11.2363 10.2707 11.6444 10.5213C11.8521 10.6502 12.0668 10.6573 15.353 10.6573H18.8397L18.9829 10.4712C19.1833 10.2206 19.169 9.9772 18.9542 9.76242L18.7824 9.58343H15.5535H12.3317V8.76009V7.93675H17.9519H23.5721V8.76009V9.58343H22.2834C21.0018 9.58343 20.9875 9.58343 20.8157 9.76242C20.5866 9.98436 20.5794 10.2922 20.8014 10.4998C20.9589 10.6502 21.0233 10.6573 22.5125 10.6573C23.9659 10.6573 24.0661 10.6502 24.2451 10.507C24.6102 10.2206 24.646 10.0488 24.646 8.71714C24.646 7.60742 24.6317 7.46423 24.5028 7.25661C24.2021 6.77692 24.4312 6.79124 17.8946 6.79124C12.432 6.79124 11.9952 6.7984 11.7661 6.92011Z" fill="white"/>
<path d="M8.888 13.156C8.76628 13.2491 8.72333 13.3636 8.72333 13.5569C8.72333 13.7502 8.76628 13.8648 8.888 13.9578C9.0455 14.0867 9.36768 14.0939 17.9877 14.0939C26.3929 14.0939 26.9298 14.0867 27.073 13.965C27.3021 13.7789 27.3379 13.4495 27.1518 13.2133L27.0014 13.02H18.0235C9.36768 13.02 9.0455 13.0271 8.888 13.156Z" fill="white"/>
<path d="M8.88086 16.6498C8.81642 16.7214 8.74483 16.8503 8.72335 16.9362C8.66607 17.1224 8.8379 17.4947 9.00257 17.5591C9.067 17.5806 13.1264 17.6021 18.0235 17.6021C26.3929 17.6021 26.9299 17.5949 27.073 17.4732C27.3021 17.287 27.3379 16.9577 27.1518 16.7214L27.0014 16.5281H17.9948C9.51089 16.5281 8.98109 16.5353 8.88086 16.6498Z" fill="white"/>
<path d="M8.88086 20.158C8.81642 20.2296 8.74483 20.3585 8.72335 20.4444C8.66607 20.6305 8.8379 21.0028 9.00257 21.0673C9.067 21.0888 12.2315 21.1102 16.026 21.1102H22.9349L23.1067 20.9312C23.3215 20.7165 23.3358 20.473 23.1353 20.2225L22.9921 20.0363H15.9902C9.41066 20.0363 8.98109 20.0435 8.88086 20.158Z" fill="white"/>
<path d="M8.88086 23.6661C8.81642 23.7377 8.74483 23.8665 8.72335 23.9525C8.66607 24.1386 8.8379 24.5109 9.00257 24.5753C9.067 24.5968 10.7638 24.6183 12.7684 24.6183H16.4198L16.5916 24.4393C16.8207 24.2174 16.8279 23.9095 16.6059 23.7019L16.4412 23.5444H12.7112C9.25315 23.5444 8.98109 23.5515 8.88086 23.6661Z" fill="white"/>
<path d="M10.2411 32.8446C9.62542 33.0021 9.03835 33.3959 8.6589 33.9113C8.10046 34.6702 8.0575 35.2287 8.53719 35.4291C8.85936 35.558 9.10278 35.4005 9.36053 34.8922C9.73282 34.1834 10.2841 33.8541 11.1146 33.8541C11.6086 33.8541 11.9737 34.0187 12.5966 34.5199C13.5059 35.2358 14.0357 35.4506 14.9449 35.4578C15.4174 35.4578 15.5893 35.4291 15.9329 35.2716C16.6489 34.9351 17.5581 33.9257 17.5581 33.4674C17.5581 33.2169 17.2646 32.9233 17.014 32.9233C16.8851 32.9233 16.7491 33.0021 16.5987 33.1811C15.6752 34.2407 15.5177 34.3552 14.9664 34.3552C14.4008 34.3552 13.9569 34.1691 13.3197 33.6679C12.6252 33.1166 12.346 32.9591 11.7804 32.8159C11.2578 32.6799 10.8425 32.6871 10.2411 32.8446Z" fill="white"/>
</svg>
