<svg width="24" height="24" viewBox="0 0 24 24" fill="none" xmlns="http://www.w3.org/2000/svg">
<path d="M9.11865 2.0031C9.06019 2.01145 8.90152 2.04068 8.76373 2.06573C8.29606 2.14507 7.90773 2.27869 7.82004 2.38725C7.71148 2.52505 7.71983 2.69625 7.83674 2.80064C7.98707 2.93426 8.05387 2.93843 8.4088 2.83404C9.97882 2.36638 11.6407 2.80481 12.7806 3.99486C13.169 4.40406 13.3652 4.69218 13.6116 5.21413C13.787 5.59411 13.8746 5.69432 14.025 5.69432C14.0667 5.69432 14.2672 5.63169 14.4801 5.55235C15.5157 5.1682 16.593 5.27676 17.4782 5.85717C18.568 6.5712 19.1818 7.89903 18.973 9.09743C18.8728 9.69036 18.8728 9.81145 18.9689 9.90749C19.0399 9.97848 19.1067 9.99518 19.3196 9.99518C20.6224 9.99518 21.612 11.2353 21.2905 12.4713C21.1193 13.1352 20.685 13.6154 20.0044 13.891C19.7915 13.9829 19.7539 13.9829 16.1963 14.0037L12.6053 14.0246L12.3255 14.1582C11.9372 14.342 11.695 14.5758 11.5071 14.9558L11.3526 15.2731L11.3401 16.3964L11.3275 17.5196L11.0603 17.2649C10.8515 17.0645 10.768 17.0102 10.6636 17.0102C10.4882 17.0102 10.3296 17.173 10.3296 17.3526C10.3296 17.4695 10.4047 17.5613 10.9267 18.0833C11.7117 18.8683 11.6198 18.8683 12.4048 18.0833C12.9268 17.5613 13.0019 17.4695 13.0019 17.3526C13.0019 17.173 12.8433 17.0102 12.6679 17.0102C12.5635 17.0102 12.48 17.0645 12.267 17.2691L11.9998 17.5238V16.53C11.9998 15.8744 12.0165 15.4777 12.0499 15.365C12.1167 15.1353 12.4633 14.7888 12.693 14.7219C12.8099 14.6885 13.2525 14.6718 14.1043 14.6718H15.3403V17.5781C15.3403 19.741 15.3278 20.5302 15.2902 20.6596C15.2234 20.8893 14.8768 21.2359 14.6471 21.3027C14.4008 21.3737 8.93075 21.3737 8.68439 21.3027C8.45473 21.2359 8.10816 20.8893 8.04135 20.6596C7.97036 20.4091 7.97036 8.26648 8.04135 8.01595C8.10816 7.78629 8.45473 7.43972 8.68439 7.37291C8.93075 7.30192 14.4008 7.30192 14.6471 7.37291C14.8768 7.43972 15.2234 7.78629 15.2902 8.01595C15.3278 8.14122 15.3403 8.84272 15.3403 10.6591V13.131L15.4447 13.2313C15.5783 13.3691 15.7704 13.3691 15.9082 13.2313L16.0125 13.1269L16 10.5255L15.9875 7.92409L15.833 7.60674C15.6451 7.22676 15.4029 6.99293 15.0146 6.8092L14.7348 6.67559H11.6658H8.5967L8.31694 6.8092C7.92861 6.99293 7.68642 7.22676 7.49852 7.60674L7.34402 7.92409V14.3378V20.7515L7.49852 21.0688C7.68642 21.4488 7.92861 21.6827 8.31694 21.8664L8.5967 22H11.6658H14.7348L15.0146 21.8664C15.4029 21.6827 15.6451 21.4488 15.833 21.0688L15.9875 20.7515L16 17.7158L16.0125 14.676L17.9417 14.6635C19.7998 14.651 19.8791 14.6468 20.1422 14.5549C20.9606 14.2793 21.6496 13.5904 21.9001 12.7928C22.0212 12.4128 22.0463 11.8491 21.9628 11.4608C21.7498 10.4545 20.9022 9.59432 19.9334 9.39807L19.6662 9.33961L19.662 8.67569C19.6537 7.94496 19.5994 7.6485 19.353 7.07644C19.0649 6.39582 18.4302 5.65674 17.8039 5.26841C17.1024 4.83415 16.5261 4.67548 15.6534 4.67548C15.0313 4.67965 14.9728 4.688 14.3131 4.88008C14.2379 4.90514 14.2003 4.86338 14.0542 4.59614C13.3443 3.31006 12.1125 2.39561 10.6511 2.07826C10.363 2.01563 9.33578 1.96552 9.11865 2.0031Z" fill="black"/>
<path d="M6.71767 2.94678C6.50471 3.07205 6.46713 3.29753 6.63415 3.46038C6.92227 3.75267 7.38576 3.33929 7.12687 3.02612C7.03501 2.91755 6.83041 2.87997 6.71767 2.94678Z" fill="black"/>
<path d="M5.59444 4.07835C5.41489 4.27043 5.05997 4.96775 4.9013 5.43124C4.64241 6.21208 4.58395 7.17247 4.7468 8.00341C4.75097 8.02429 4.61736 8.07439 4.45033 8.11615C3.85322 8.27482 3.20601 8.67985 2.77592 9.18092C1.82806 10.2791 1.7195 11.9201 2.51703 13.1352C2.88449 13.6947 3.50665 14.2167 4.05783 14.4213C4.57978 14.6175 4.73427 14.6426 5.59862 14.6593L6.44209 14.6802L6.54648 14.5716C6.68845 14.4338 6.68845 14.2417 6.55065 14.1081C6.45044 14.0037 6.43791 14.0037 5.74894 14.0037C5.2938 14.0037 4.94723 13.9787 4.75933 13.9411C3.48159 13.6697 2.58384 12.488 2.659 11.1852C2.68823 10.7301 2.7968 10.3543 3.00975 10.0035C3.46072 9.26444 4.13299 8.81765 4.97646 8.69656C5.15183 8.6715 5.33973 8.62557 5.38566 8.59217C5.51093 8.51701 5.54016 8.34998 5.46918 8.10362C5.16018 7.01379 5.33973 5.76529 5.94937 4.75062C6.08299 4.52097 6.19573 4.31636 6.19573 4.28713C6.19573 4.18274 6.09969 4.03242 5.99948 3.98649C5.83245 3.91133 5.73224 3.93221 5.59444 4.07835Z" fill="black"/>
<path d="M10.768 8.09529C10.7012 8.15793 10.6636 8.24561 10.6636 8.32495C10.6636 8.40429 10.7012 8.49197 10.768 8.55461C10.8682 8.659 10.8766 8.659 11.6657 8.659C12.4549 8.659 12.4633 8.659 12.5635 8.55461C12.6303 8.49197 12.6679 8.40429 12.6679 8.32495C12.6679 8.24561 12.6303 8.15793 12.5635 8.09529C12.4633 7.9909 12.4549 7.9909 11.6657 7.9909C10.8766 7.9909 10.8682 7.9909 10.768 8.09529Z" fill="black"/>
<path d="M4.87625 16.6344C4.65077 16.722 4.57561 17.0519 4.74681 17.2106C4.90965 17.3651 5.15601 17.3275 5.25623 17.1313C5.34392 16.9684 5.33556 16.864 5.227 16.7429C5.11426 16.6218 4.99734 16.5843 4.87625 16.6344Z" fill="black"/>
<path d="M18.2381 16.6344C18.0126 16.722 17.9375 17.0519 18.1087 17.2106C18.2715 17.3651 18.5179 17.3275 18.6181 17.1313C18.7058 16.9684 18.6974 16.864 18.5889 16.7429C18.4761 16.6218 18.3592 16.5843 18.2381 16.6344Z" fill="black"/>
<path d="M4.87625 17.9706C4.65077 18.0583 4.57561 18.3881 4.74681 18.5468C4.90965 18.7013 5.15601 18.6637 5.25623 18.4675C5.34392 18.3046 5.33556 18.2002 5.227 18.0791C5.11426 17.958 4.99734 17.9205 4.87625 17.9706Z" fill="black"/>
<path d="M18.2381 17.9706C18.0126 18.0583 17.9375 18.3881 18.1087 18.5468C18.2715 18.7013 18.5179 18.6637 18.6181 18.4675C18.7058 18.3046 18.6974 18.2002 18.5889 18.0791C18.4761 17.958 18.3592 17.9205 18.2381 17.9706Z" fill="black"/>
<path d="M4.87625 19.3068C4.65077 19.3944 4.57561 19.7243 4.74681 19.883C4.90965 20.0375 5.15601 19.9999 5.25623 19.8037C5.34392 19.6408 5.33556 19.5364 5.227 19.4153C5.11426 19.2942 4.99734 19.2566 4.87625 19.3068Z" fill="black"/>
<path d="M18.2381 19.3068C18.0126 19.3944 17.9375 19.7243 18.1087 19.883C18.2715 20.0375 18.5179 19.9999 18.6181 19.8037C18.7058 19.6408 18.6974 19.5364 18.5889 19.4153C18.4761 19.2942 18.3592 19.2566 18.2381 19.3068Z" fill="black"/>
</svg>
