<svg width="45" height="44" viewBox="0 0 45 44" fill="none" xmlns="http://www.w3.org/2000/svg">
<g clip-path="url(#clip0_18444_396797)">
<path d="M1.39287 3.83362C1.16784 3.94613 0.916849 4.17116 0.787027 4.37022C0.570656 4.69045 0.553346 4.80296 0.527381 5.79826C0.501417 6.64644 0.527381 6.95801 0.639894 7.25228C0.787027 7.6504 1.25439 8.11776 1.57462 8.19565C1.67847 8.22162 3.19307 8.23893 4.93269 8.22162L8.10036 8.19565L8.41194 7.95332C8.7062 7.73695 8.77544 7.71964 9.63227 7.71964C10.1343 7.71964 10.5583 7.7456 10.5756 7.78022C10.6103 7.83215 14.8684 24.3369 15.1021 25.3063C15.1541 25.5399 15.1454 25.5486 14.8252 25.5486C13.8299 25.5486 12.6355 26.1198 11.7614 27.0113C9.97846 28.8201 9.80537 31.4079 11.3373 33.4505C12.1335 34.5237 13.2067 35.1122 14.7992 35.3718L15.1194 35.4151L14.955 35.7267C14.5309 36.5749 14.5569 37.7692 15.0242 38.6347C15.3272 39.1886 15.9763 39.7858 16.5908 40.0714C17.0062 40.2705 17.2053 40.3051 17.863 40.3051C18.5727 40.3051 18.7025 40.2791 19.2218 40.0195C20.6153 39.3358 21.3509 37.8125 20.9874 36.3671C20.9095 36.0556 20.7884 35.718 20.7105 35.6142L20.5893 35.4151H27.5045H34.4284L34.2553 35.8046C33.3638 37.8298 34.7226 40.132 36.9123 40.3224C38.7298 40.4695 40.2704 39.1194 40.3916 37.2846C40.4262 36.7047 40.3396 36.2893 40.0194 35.5709C39.9675 35.4324 40.0281 35.4151 40.807 35.4151C41.283 35.4151 41.7937 35.3805 41.9581 35.3286C42.6678 35.1295 43.1784 34.541 43.2477 33.8572C43.3082 33.2168 43.2044 32.8446 42.8582 32.4638C42.2264 31.7628 43.6371 31.832 28.3613 31.7801L14.7127 31.7368L14.4703 31.5551C14.1155 31.2868 13.9078 30.8886 13.9078 30.4472C13.9078 29.9799 14.0982 29.6077 14.4617 29.3394L14.7473 29.1404L27.0372 29.0971L39.327 29.0538L39.7511 28.8461C40.2877 28.5778 40.7551 28.1191 40.9801 27.6258C41.084 27.4094 41.2657 26.8122 41.3955 26.2929C41.6292 25.3495 41.6292 25.3409 41.4648 25.1245C41.2051 24.7783 40.8935 24.7004 40.6079 24.9081C40.4175 25.0553 40.3223 25.2716 40.0973 26.1025C39.7944 27.2276 39.578 27.5565 39.0241 27.721C38.825 27.7729 35.19 27.7989 28.1882 27.7815C17.7072 27.7556 17.6553 27.7556 17.4216 27.5738C17.2918 27.4786 17.1101 27.3055 17.0235 27.1844C16.9023 27.0113 13.0596 12.35 13.0596 12.0471C13.0596 11.9951 13.8126 11.9605 15.1714 11.9605C16.3311 11.9605 17.3524 11.9345 17.4303 11.9086C17.6553 11.822 17.8111 11.372 17.7159 11.095C17.5947 10.7402 17.3178 10.6623 16.1321 10.6623H15.0589L14.9723 10.3334C14.929 10.1603 14.6521 9.09576 14.3578 7.97928C14.0635 6.86281 13.752 5.78095 13.6568 5.58189C13.4144 5.07991 12.8346 4.57793 12.246 4.35291C11.8133 4.18846 11.5796 4.17116 10.1689 4.17116C8.79275 4.17116 8.56773 4.15385 8.46387 4.02402C8.1696 3.67783 7.9013 3.65187 4.77691 3.65187C1.86888 3.65187 1.74771 3.66052 1.39287 3.83362ZM7.69359 5.11453C7.79745 5.31359 7.8061 6.6724 7.7109 6.83684C7.65031 6.91474 7.0012 6.9407 4.74229 6.92339L1.85157 6.89743L1.82561 6.0406C1.8083 5.48669 1.83426 5.14915 1.9035 5.07126C1.98139 4.97606 2.50934 4.95009 4.80287 4.95009C7.47722 4.95009 7.60704 4.95875 7.69359 5.11453ZM11.9345 5.63382C12.0989 5.72037 12.3066 5.88481 12.3932 6.00598C12.5316 6.19639 13.6568 10.2295 13.6654 10.5584C13.6654 10.645 13.5356 10.6623 13.1721 10.645L12.6701 10.619L12.1854 8.73225C11.8306 7.34748 11.6488 6.79357 11.5104 6.65509C11.3459 6.482 11.2161 6.46469 10.2035 6.43872L9.07836 6.4041V5.93674V5.46938H10.3593C11.4325 5.46938 11.6835 5.49535 11.9345 5.63382ZM15.6128 27.193C15.6733 27.3575 15.7512 27.5652 15.7859 27.6431C15.8378 27.7815 15.7859 27.7989 15.3185 27.7989C13.7952 27.7989 12.6182 28.95 12.6182 30.4386C12.6182 31.2089 12.8432 31.7541 13.3971 32.308C14.2453 33.1475 12.8605 33.0783 28.1623 33.0783C42.9534 33.0783 41.9667 33.0437 41.9667 33.5976C41.9667 34.0823 41.7677 34.1342 39.829 34.0909C38.8856 34.0736 37.8903 34.013 37.622 33.9524C37.2152 33.8746 36.9989 33.8832 36.4969 33.9871C35.5362 34.1861 19.4728 34.1775 18.5208 33.9784C17.9323 33.8572 17.8111 33.8572 17.2139 33.9784C16.4523 34.1342 15.2839 34.1602 14.6175 34.0303C12.6788 33.6668 11.3113 31.7368 11.6575 29.876C11.9777 28.1451 13.4577 26.8036 14.9896 26.8728C15.4829 26.8901 15.5003 26.8988 15.6128 27.193ZM18.7545 35.4324C19.4209 35.7527 19.8883 36.6268 19.7757 37.3451C19.5161 38.9809 17.6726 39.5954 16.5129 38.4443C15.8638 37.7952 15.7512 36.947 16.2273 36.1335C16.7379 35.2507 17.7851 34.9651 18.7545 35.4324ZM38.0807 35.4238C38.7039 35.7353 39.1107 36.445 39.1107 37.198C39.102 38.176 38.1586 39.0501 37.12 39.0501C36.6786 39.0501 35.9689 38.6866 35.692 38.3231C34.4284 36.6614 36.2372 34.4804 38.0807 35.4238Z" fill="white"/>
<path d="M19.7758 10.844C19.4815 11.0777 19.4642 11.5104 19.7498 11.77L19.9489 11.9604H31.5291H43.1006L43.3083 12.1768C43.4295 12.2893 43.5247 12.4538 43.5247 12.5403C43.5247 12.6269 42.9621 14.9117 42.2697 17.6207C41.1446 22.0087 41.0234 22.5626 41.1186 22.7617C41.3177 23.1685 42.0274 23.2464 42.2264 22.8742C42.3563 22.6232 44.8229 12.8952 44.8229 12.6182C44.8229 11.8566 44.1738 10.9738 43.4727 10.7661C43.1958 10.6882 40.4089 10.6622 31.5637 10.6622H20.0095L19.7758 10.844Z" fill="white"/>
<path d="M18.2092 15.033C18.0881 15.1455 17.9929 15.3013 17.9929 15.3705C17.9929 15.6474 19.9229 23.3503 20.0354 23.532C20.2864 23.9301 20.9268 23.8695 21.1259 23.4368C21.1951 23.2637 21.1778 23.0733 21.0394 22.5021C20.9442 22.104 20.5028 20.3038 20.0614 18.4949C19.2045 14.9897 19.144 14.8166 18.642 14.8166C18.5208 14.8166 18.3217 14.9118 18.2092 15.033Z" fill="white"/>
<path d="M24.6745 15.0156C24.4235 15.2839 24.4235 15.2753 24.787 19.7152C25.0899 23.4108 25.0899 23.4281 25.3149 23.6185C25.6438 23.9214 26.1025 23.8522 26.3016 23.4714C26.3622 23.3502 26.3016 22.2251 26.0852 19.5161C25.9121 17.4303 25.7563 15.5955 25.7304 15.4397C25.6352 14.8512 25.0466 14.6175 24.6745 15.0156Z" fill="white"/>
<path d="M31.105 15.033C30.9838 15.1455 30.8886 15.2926 30.8886 15.3532C30.8886 15.4138 30.7501 17.1015 30.5857 19.1007C30.2135 23.558 30.2222 23.4108 30.5078 23.6359C30.7934 23.8609 31.0703 23.8695 31.33 23.6532C31.5204 23.4974 31.5377 23.3676 31.8493 19.6114C32.031 17.4736 32.1782 15.6128 32.1782 15.483C32.1868 15.1801 31.8406 14.8166 31.5377 14.8166C31.4165 14.8166 31.2175 14.9118 31.105 15.033Z" fill="white"/>
<path d="M37.6307 14.9031C37.5528 14.9464 37.449 15.0935 37.397 15.2233C37.2326 15.6301 35.4756 22.9348 35.4756 23.1944C35.4756 23.8695 36.419 24.0426 36.67 23.4108C36.8345 22.9954 38.5914 15.6907 38.5914 15.4224C38.5914 14.9897 38.0115 14.6781 37.6307 14.9031Z" fill="white"/>
</g>
<defs>
<clipPath id="clip0_18444_396797">
<rect width="44" height="44" fill="white" transform="translate(0.666504)"/>
</clipPath>
</defs>
</svg>
