<svg width="18" height="18" viewBox="0 0 18 18" fill="none" xmlns="http://www.w3.org/2000/svg">
<g id="icon / filter">
<g id="Vector">
<mask id="path-1-inside-1_7673_73736" fill="white">
<path d="M1.6875 4.78125C1.6875 4.70666 1.71713 4.63512 1.76988 4.58238C1.82262 4.52963 1.89416 4.5 1.96875 4.5H16.0312C16.1058 4.5 16.1774 4.52963 16.2301 4.58238C16.2829 4.63512 16.3125 4.70666 16.3125 4.78125C16.3125 4.85584 16.2829 4.92738 16.2301 4.98012C16.1774 5.03287 16.1058 5.0625 16.0312 5.0625H1.96875C1.89416 5.0625 1.82262 5.03287 1.76988 4.98012C1.71713 4.92738 1.6875 4.85584 1.6875 4.78125ZM3.9375 8.71875C3.9375 8.64416 3.96713 8.57262 4.01988 8.51988C4.07262 8.46713 4.14416 8.4375 4.21875 8.4375H13.7812C13.8558 8.4375 13.9274 8.46713 13.9801 8.51988C14.0329 8.57262 14.0625 8.64416 14.0625 8.71875C14.0625 8.79334 14.0329 8.86488 13.9801 8.91762C13.9274 8.97037 13.8558 9 13.7812 9H4.21875C4.14416 9 4.07262 8.97037 4.01988 8.91762C3.96713 8.86488 3.9375 8.79334 3.9375 8.71875ZM6.46875 12.375C6.39416 12.375 6.32262 12.4046 6.26988 12.4574C6.21713 12.5101 6.1875 12.5817 6.1875 12.6562C6.1875 12.7308 6.21713 12.8024 6.26988 12.8551C6.32262 12.9079 6.39416 12.9375 6.46875 12.9375H11.5312C11.6058 12.9375 11.6774 12.9079 11.7301 12.8551C11.7829 12.8024 11.8125 12.7308 11.8125 12.6562C11.8125 12.5817 11.7829 12.5101 11.7301 12.4574C11.6774 12.4046 11.6058 12.375 11.5312 12.375H6.46875Z"/>
</mask>
<path d="M1.6875 4.78125C1.6875 4.70666 1.71713 4.63512 1.76988 4.58238C1.82262 4.52963 1.89416 4.5 1.96875 4.5H16.0312C16.1058 4.5 16.1774 4.52963 16.2301 4.58238C16.2829 4.63512 16.3125 4.70666 16.3125 4.78125C16.3125 4.85584 16.2829 4.92738 16.2301 4.98012C16.1774 5.03287 16.1058 5.0625 16.0312 5.0625H1.96875C1.89416 5.0625 1.82262 5.03287 1.76988 4.98012C1.71713 4.92738 1.6875 4.85584 1.6875 4.78125ZM3.9375 8.71875C3.9375 8.64416 3.96713 8.57262 4.01988 8.51988C4.07262 8.46713 4.14416 8.4375 4.21875 8.4375H13.7812C13.8558 8.4375 13.9274 8.46713 13.9801 8.51988C14.0329 8.57262 14.0625 8.64416 14.0625 8.71875C14.0625 8.79334 14.0329 8.86488 13.9801 8.91762C13.9274 8.97037 13.8558 9 13.7812 9H4.21875C4.14416 9 4.07262 8.97037 4.01988 8.91762C3.96713 8.86488 3.9375 8.79334 3.9375 8.71875ZM6.46875 12.375C6.39416 12.375 6.32262 12.4046 6.26988 12.4574C6.21713 12.5101 6.1875 12.5817 6.1875 12.6562C6.1875 12.7308 6.21713 12.8024 6.26988 12.8551C6.32262 12.9079 6.39416 12.9375 6.46875 12.9375H11.5312C11.6058 12.9375 11.6774 12.9079 11.7301 12.8551C11.7829 12.8024 11.8125 12.7308 11.8125 12.6562C11.8125 12.5817 11.7829 12.5101 11.7301 12.4574C11.6774 12.4046 11.6058 12.375 11.5312 12.375H6.46875Z" fill="#666666"/>
<path d="M2.6875 4.78125C2.6875 4.97187 2.61178 5.15469 2.47698 5.28948L1.06277 3.87527C0.822488 4.11555 0.6875 4.44144 0.6875 4.78125H2.6875ZM2.47698 5.28948C2.34219 5.42428 2.15937 5.5 1.96875 5.5V3.5C1.62894 3.5 1.30305 3.63499 1.06277 3.87527L2.47698 5.28948ZM1.96875 5.5H16.0312V3.5H1.96875V5.5ZM16.0312 5.5C15.8406 5.5 15.6578 5.42428 15.523 5.28948L16.9372 3.87527C16.6969 3.63499 16.3711 3.5 16.0312 3.5V5.5ZM15.523 5.28948C15.3882 5.15469 15.3125 4.97187 15.3125 4.78125H17.3125C17.3125 4.44144 17.1775 4.11555 16.9372 3.87527L15.523 5.28948ZM15.3125 4.78125C15.3125 4.59063 15.3882 4.40781 15.523 4.27302L16.9372 5.68723C17.1775 5.44695 17.3125 5.12106 17.3125 4.78125H15.3125ZM15.523 4.27302C15.6578 4.13822 15.8406 4.0625 16.0312 4.0625V6.0625C16.3711 6.0625 16.6969 5.92751 16.9372 5.68723L15.523 4.27302ZM16.0312 4.0625H1.96875V6.0625H16.0312V4.0625ZM1.96875 4.0625C2.15937 4.0625 2.34219 4.13822 2.47698 4.27302L1.06277 5.68723C1.30305 5.92751 1.62894 6.0625 1.96875 6.0625V4.0625ZM2.47698 4.27302C2.61178 4.40781 2.6875 4.59063 2.6875 4.78125H0.6875C0.6875 5.12106 0.822488 5.44695 1.06277 5.68723L2.47698 4.27302ZM4.9375 8.71875C4.9375 8.90937 4.86178 9.09219 4.72698 9.22698L3.31277 7.81277C3.07249 8.05305 2.9375 8.37894 2.9375 8.71875H4.9375ZM4.72698 9.22698C4.59219 9.36178 4.40937 9.4375 4.21875 9.4375V7.4375C3.87894 7.4375 3.55305 7.57249 3.31277 7.81277L4.72698 9.22698ZM4.21875 9.4375H13.7812V7.4375H4.21875V9.4375ZM13.7812 9.4375C13.5906 9.4375 13.4078 9.36178 13.273 9.22698L14.6872 7.81277C14.4469 7.57249 14.1211 7.4375 13.7812 7.4375V9.4375ZM13.273 9.22698C13.1382 9.09219 13.0625 8.90937 13.0625 8.71875H15.0625C15.0625 8.37894 14.9275 8.05305 14.6872 7.81277L13.273 9.22698ZM13.0625 8.71875C13.0625 8.52813 13.1382 8.34531 13.273 8.21052L14.6872 9.62473C14.9275 9.38445 15.0625 9.05856 15.0625 8.71875H13.0625ZM13.273 8.21052C13.4078 8.07572 13.5906 8 13.7812 8V10C14.1211 10 14.4469 9.86501 14.6872 9.62473L13.273 8.21052ZM13.7812 8H4.21875V10H13.7812V8ZM4.21875 8C4.40937 8 4.59219 8.07572 4.72698 8.21052L3.31277 9.62473C3.55305 9.86501 3.87894 10 4.21875 10V8ZM4.72698 8.21052C4.86178 8.34531 4.9375 8.52813 4.9375 8.71875H2.9375C2.9375 9.05856 3.07249 9.38445 3.31277 9.62473L4.72698 8.21052ZM6.46875 11.375C6.12894 11.375 5.80305 11.51 5.56277 11.7503L6.97698 13.1645C6.84219 13.2993 6.65937 13.375 6.46875 13.375V11.375ZM5.56277 11.7503C5.32249 11.9906 5.1875 12.3164 5.1875 12.6562H7.1875C7.1875 12.8469 7.11178 13.0297 6.97698 13.1645L5.56277 11.7503ZM5.1875 12.6562C5.1875 12.9961 5.32249 13.3219 5.56277 13.5622L6.97698 12.148C7.11178 12.2828 7.1875 12.4656 7.1875 12.6562H5.1875ZM5.56277 13.5622C5.80305 13.8025 6.12894 13.9375 6.46875 13.9375V11.9375C6.65937 11.9375 6.84219 12.0132 6.97698 12.148L5.56277 13.5622ZM6.46875 13.9375H11.5312V11.9375H6.46875V13.9375ZM11.5312 13.9375C11.8711 13.9375 12.1969 13.8025 12.4372 13.5622L11.023 12.148C11.1578 12.0132 11.3406 11.9375 11.5312 11.9375V13.9375ZM12.4372 13.5622C12.6775 13.3219 12.8125 12.9961 12.8125 12.6562H10.8125C10.8125 12.4656 10.8882 12.2828 11.023 12.148L12.4372 13.5622ZM12.8125 12.6562C12.8125 12.3164 12.6775 11.9906 12.4372 11.7503L11.023 13.1645C10.8882 13.0297 10.8125 12.8469 10.8125 12.6562H12.8125ZM12.4372 11.7503C12.1969 11.51 11.8711 11.375 11.5312 11.375V13.375C11.3406 13.375 11.1578 13.2993 11.023 13.1645L12.4372 11.7503ZM11.5312 11.375H6.46875V13.375H11.5312V11.375Z" fill="#666666" mask="url(#path-1-inside-1_7673_73736)"/>
</g>
</g>
</svg>
