<svg width="20" height="21" viewBox="0 0 20 21" fill="none" xmlns="http://www.w3.org/2000/svg">
<g id="Group">
<path id="Vector" d="M9.80851 0.388668C9.67179 0.466789 9.6132 0.599596 9.6093 0.845678V1.06442L9.32806 1.09176C8.25389 1.19332 7.06645 1.62298 6.12118 2.24405C4.42595 3.36118 3.14086 5.14234 2.5237 7.23209C2.40652 7.6266 2.23075 8.36484 2.22684 8.4664C2.22684 8.48593 2.15263 8.49765 2.05888 8.49765C1.62531 8.49765 1.02768 8.76717 0.664419 9.12652C-0.19882 9.97414 -0.210538 11.3647 0.637077 12.224C1.04331 12.6342 1.46516 12.8256 2.04326 12.8685L2.38699 12.892L2.59792 13.5287C3.31663 15.7043 4.66032 17.4308 6.46101 18.5011C7.29691 18.9971 8.35545 19.3448 9.27728 19.4268L9.58977 19.4541L9.6132 19.7666C9.62492 19.9385 9.64836 20.1104 9.66398 20.1494C9.70304 20.2315 9.88663 20.333 9.9999 20.333C10.1132 20.333 10.2968 20.2315 10.3358 20.1494C10.3514 20.1104 10.3749 19.9385 10.3866 19.7666L10.41 19.4541L10.7381 19.4229C11.7029 19.337 12.8123 18.9542 13.6989 18.4073C15.3942 17.3527 16.6988 15.6379 17.398 13.5365L17.6128 12.892L17.9565 12.8685C18.5346 12.8256 18.9565 12.6303 19.3627 12.224C20.2064 11.3686 20.1986 9.98586 19.3393 9.12652C18.9877 8.77498 18.3667 8.49765 17.937 8.49765C17.7808 8.49765 17.7769 8.49374 17.7495 8.34922C17.5503 7.19302 17.0699 5.92356 16.4566 4.93532C16.1988 4.52128 15.7223 3.87287 15.5543 3.71663C15.3395 3.51742 15.0114 3.59164 14.9254 3.86116C14.8629 4.04083 14.902 4.12286 15.2457 4.56425C15.9723 5.49389 16.523 6.61883 16.8121 7.76331C16.8824 8.04845 16.9527 8.34141 16.9644 8.40781C16.9957 8.56015 17.0191 8.55624 16.441 8.49374C15.0192 8.34922 13.8239 7.80628 12.8279 6.84929L12.4295 6.46259L12.824 6.0798C13.1794 5.73216 13.2185 5.68138 13.2185 5.55248C13.2185 5.29859 12.9802 5.09547 12.7498 5.15406C12.699 5.16969 12.4998 5.32202 12.3123 5.49779C11.8123 5.96262 11.2069 6.41181 10.5389 6.81414L10.3905 6.90398V4.38066V1.85735H10.4843C10.7303 1.85735 11.5506 2.03312 11.9686 2.17374C12.4685 2.3417 12.5857 2.3456 12.7263 2.19717C12.9138 1.99796 12.863 1.70892 12.6209 1.58783C12.1834 1.36518 10.9803 1.07614 10.4999 1.07614C10.3944 1.07614 10.3905 1.06832 10.3905 0.861301C10.3905 0.603502 10.3319 0.462885 10.1913 0.388668C10.0585 0.322266 9.92959 0.322266 9.80851 0.388668ZM9.6093 4.58768V7.31802L9.13276 7.52113C7.76564 8.09532 6.28133 8.43906 4.68766 8.54062C4.04707 8.58358 3.07446 8.57577 3.03149 8.5328C3.00024 8.50155 3.18773 7.70081 3.32445 7.28677C4.28143 4.36113 6.46101 2.32607 9.08198 1.91594C9.25384 1.8886 9.44134 1.86516 9.50383 1.86125L9.6093 1.85735V4.58768ZM12.1951 7.33364C13.0544 8.18516 14.1247 8.7906 15.2926 9.08356C15.9762 9.25933 16.2848 9.29058 17.2652 9.29839C18.3276 9.3023 18.3979 9.32183 18.7651 9.66947C19.0698 9.95851 19.1948 10.2554 19.1987 10.685C19.1987 10.978 19.183 11.0483 19.0776 11.271C18.9292 11.5795 18.6987 11.8178 18.4057 11.9623C18.1948 12.0678 18.1558 12.0717 17.648 12.0717C16.98 12.0717 16.9957 12.06 16.8355 12.6849C16.5465 13.8255 15.9918 14.9856 15.3082 15.8879C14.9879 16.3059 14.402 16.9152 14.0036 17.2355C13.031 18.0167 11.7772 18.5479 10.6757 18.6417L10.3905 18.6651V17.6691V16.6769L10.6757 16.6301C11.2733 16.5285 11.8357 16.2551 12.242 15.8684C12.4412 15.6809 12.4607 15.6457 12.4607 15.4934C12.4607 15.3606 12.4373 15.302 12.3474 15.2122C12.1678 15.0364 12.0193 15.0559 11.7225 15.2942C11.3162 15.6184 10.9647 15.7903 10.5546 15.8606L10.3905 15.8879V14.6184V13.349L10.5194 13.3216C10.6991 13.2787 11.0663 13.0873 11.2225 12.9506C11.41 12.7904 11.4647 12.642 11.4061 12.4662C11.3084 12.1693 11.0233 12.1264 10.7069 12.3646C10.5936 12.4506 10.4764 12.5209 10.4452 12.5209C10.3983 12.5209 10.3905 12.1576 10.3905 10.1616V7.80237L10.8319 7.54457C11.0702 7.40395 11.3826 7.21255 11.5233 7.1149C11.6639 7.01725 11.7811 6.93913 11.785 6.93913C11.7889 6.93522 11.9725 7.1149 12.1951 7.33364ZM9.6093 10.3335C9.6093 11.6225 9.59367 12.4818 9.57414 12.4818C9.55461 12.4818 9.46087 12.4232 9.36321 12.349C9.02339 12.0873 8.89839 12.0678 8.70309 12.2436C8.52732 12.3998 8.52341 12.6185 8.69137 12.7982C8.85543 12.974 9.24603 13.2201 9.44524 13.2748L9.6093 13.3177V14.5833V15.8489L9.4843 15.8215C9.11323 15.7395 8.65622 15.4934 8.28514 15.1653C8.10546 15.009 8.05078 14.9817 7.91016 14.9817C7.6758 14.9817 7.53908 15.1223 7.53908 15.3645C7.53908 15.5207 7.55861 15.5598 7.69533 15.6926C8.13671 16.1067 8.70309 16.423 9.25775 16.5558L9.6093 16.6418V17.6456V18.6534H9.45696C8.91011 18.6534 7.87891 18.3565 7.17973 18.0011C5.77745 17.2863 4.62516 16.0715 3.83223 14.4817C3.45335 13.724 3.26586 13.1693 3.00415 12.0131C2.89869 11.5483 2.85572 11.4272 2.76979 11.3374C2.62917 11.1967 2.43386 11.1928 2.27372 11.3295C2.12138 11.4545 2.09794 11.5834 2.16435 11.8647L2.21513 12.0912H2.06669C1.74249 12.0912 1.32064 11.8569 1.07456 11.5405C0.535519 10.8374 0.801131 9.78665 1.6214 9.39214C1.80889 9.3023 1.84405 9.29839 2.44168 9.31792C4.14862 9.37261 5.33607 9.31792 6.36727 9.13824C7.29691 8.97809 8.3242 8.68904 9.12104 8.36875C9.35931 8.2711 9.56242 8.19298 9.58195 8.18907C9.59758 8.18516 9.6093 9.14996 9.6093 10.3335Z" fill="#74BC1F"/>
<path id="Vector_2" d="M12.8435 10.0405C12.7068 10.1186 12.656 10.2124 12.656 10.3921C12.656 10.6733 12.949 10.8413 13.2185 10.7202C13.3474 10.6616 13.449 10.4428 13.4177 10.2983C13.3669 10.0561 13.0583 9.91943 12.8435 10.0405Z" fill="#74BC1F"/>
<path id="Vector_3" d="M6.83598 10.0093C6.62115 10.0874 6.51959 10.3296 6.62115 10.5406C6.73833 10.7866 7.0391 10.8413 7.23049 10.6499C7.51563 10.3609 7.21487 9.87262 6.83598 10.0093Z" fill="#74BC1F"/>
<path id="Vector_4" d="M7.75 11.0092C7.70704 11.0365 7.60938 11.1029 7.53517 11.1615C7.26956 11.3685 6.91801 11.4389 6.63678 11.3451C6.56256 11.3178 6.42585 11.2396 6.3321 11.1693C6.15242 11.0287 5.96493 10.9975 5.8165 11.0756C5.72276 11.1264 5.62511 11.3139 5.62511 11.4428C5.62511 11.7123 6.24226 12.1107 6.72662 12.1576C7.22659 12.2005 7.72266 12.0404 8.08202 11.7162C8.25779 11.556 8.28123 11.517 8.28123 11.3803C8.28123 11.185 8.23045 11.0912 8.08592 11.017C7.94921 10.9467 7.85937 10.9428 7.75 11.0092Z" fill="#74BC1F"/>
<path id="Vector_5" d="M6.9766 13.931C6.55084 14.1497 6.17195 14.6263 6.17195 14.9387C6.17195 15.1223 6.35163 15.2942 6.54303 15.2942C6.74224 15.2942 6.81255 15.2473 6.94535 15.009C7.05863 14.8098 7.22268 14.6692 7.46876 14.5638C7.72656 14.4505 7.78906 14.1028 7.58204 13.9193C7.42189 13.7786 7.26955 13.7786 6.9766 13.931Z" fill="#74BC1F"/>
<path id="Vector_6" d="M18.2144 1.85729C18.0776 1.91588 17.9995 2.07213 17.98 2.34164L17.9566 2.58773L17.7066 2.61116C17.4058 2.6346 17.2613 2.72444 17.2144 2.91583C17.1402 3.20488 17.316 3.37675 17.7144 3.4119L17.9683 3.43143V3.59158C17.9683 3.96656 18.1245 4.20093 18.3784 4.20093C18.6323 4.20093 18.7885 3.96656 18.7885 3.58377V3.41972H18.9565C19.3354 3.41972 19.5698 3.26347 19.5698 3.00958C19.5698 2.75569 19.3354 2.59944 18.9565 2.59944H18.7885V2.43148C18.7885 2.21274 18.726 2.00182 18.6362 1.91979C18.5464 1.83776 18.3315 1.80651 18.2144 1.85729Z" fill="#74BC1F"/>
<path id="Vector_7" d="M13.7458 2.51749C13.5974 2.66982 13.5896 2.89638 13.7263 3.05652C13.8044 3.14636 13.8513 3.16589 14.0036 3.16589C14.156 3.16589 14.2028 3.14636 14.2809 3.05652C14.4958 2.80654 14.3239 2.40421 14.0036 2.40421C13.8982 2.40421 13.8317 2.43546 13.7458 2.51749Z" fill="#74BC1F"/>
<path id="Vector_8" d="M16.6363 17.3957C16.5269 17.4933 16.5113 17.5324 16.4957 17.7824L16.4722 18.0597L16.2027 18.0753C15.9527 18.087 15.9176 18.1027 15.816 18.2159C15.6598 18.3878 15.6598 18.5792 15.816 18.7354C15.9215 18.837 15.9527 18.8487 16.2027 18.8487H16.4761L16.4918 19.1221C16.4996 19.3174 16.5269 19.4229 16.5855 19.501C16.7261 19.6885 16.9566 19.712 17.1519 19.5557C17.2339 19.4932 17.2495 19.4385 17.2652 19.1729L17.2847 18.8682L17.5777 18.8487C17.9097 18.8253 17.9448 18.8097 18.0308 18.6456C18.1089 18.4933 18.0776 18.3058 17.9487 18.1847C17.8706 18.1105 17.7964 18.0909 17.5581 18.0753L17.2652 18.0558V17.7863C17.2652 17.5363 17.2534 17.505 17.1519 17.3996C16.9956 17.2472 16.8043 17.2433 16.6363 17.3957Z" fill="#74BC1F"/>
</g>
</svg>
