<svg width="24" height="24" viewBox="0 0 24 24" fill="none" xmlns="http://www.w3.org/2000/svg">
<path d="M3.18579 9.15768C3.06333 9.42159 2.99993 9.70904 3 9.99997V19C3 19.5304 3.21071 20.0391 3.58579 20.4142C3.96086 20.7893 4.46957 21 5 21H19C19.5304 21 20.0391 20.7893 20.4142 20.4142C20.7893 20.0391 21 19.5304 21 19V9.99997C21.0001 9.70904 20.9367 9.42159 20.8142 9.15768C20.6918 8.89378 20.5132 8.65976 20.291 8.47197L13.291 2.47297C12.93 2.16788 12.4726 2.00049 12 2.00049C11.5274 2.00049 11.07 2.16788 10.709 2.47297L3.709 8.47197C3.4868 8.65976 3.30824 8.89378 3.18579 9.15768Z" fill="#74BC1F"/>
<path d="M12.9053 17.415C12.9052 16.9149 12.5002 16.5097 12 16.5097C11.4998 16.5097 11.0948 16.9149 11.0947 17.415C11.0947 17.9152 11.4998 18.3203 12 18.3203C12.5002 18.3203 12.9053 17.9152 12.9053 17.415ZM14.0381 14.0185C14.6006 14.0187 15.0566 14.4755 15.0566 15.0381C15.0565 15.6005 14.6005 16.0564 14.0381 16.0566C13.4755 16.0566 13.0187 15.6006 13.0186 15.0381C13.0186 14.4754 13.4754 14.0185 14.0381 14.0185ZM9.96191 13.9052C10.5246 13.9052 10.9814 14.3621 10.9814 14.9248C10.9813 15.4874 10.5245 15.9433 9.96191 15.9433C9.39946 15.9431 8.94351 15.4872 8.94336 14.9248C8.94336 14.3622 9.39937 13.9054 9.96191 13.9052ZM14.0303 15.0195C14.0303 15.0195 14.0267 15.0221 14.0244 15.0244C14.0221 15.0267 14.0195 15.0302 14.0195 15.0302C14.0195 15.0302 14.0186 15.0336 14.0186 15.0381C14.0186 15.0422 14.0195 15.0449 14.0195 15.0449C14.0195 15.0449 14.0221 15.0484 14.0244 15.0508C14.0267 15.053 14.0303 15.0556 14.0303 15.0556C14.0303 15.0556 14.0336 15.0566 14.0381 15.0566C14.0423 15.0566 14.0449 15.0556 14.0449 15.0556C14.0449 15.0556 14.0484 15.0531 14.0508 15.0508C14.0532 15.0484 14.0557 15.0449 14.0557 15.0449C14.0557 15.0449 14.0566 15.0422 14.0566 15.0381C14.0566 15.0336 14.0557 15.0302 14.0557 15.0302C14.0557 15.0302 14.0531 15.0267 14.0508 15.0244C14.0484 15.022 14.0449 15.0195 14.0449 15.0195C14.0449 15.0195 14.0422 15.0186 14.0381 15.0185C14.0336 15.0185 14.0303 15.0195 14.0303 15.0195ZM9.95508 14.9062C9.95508 14.9062 9.95159 14.9088 9.94922 14.9111C9.94678 14.9135 9.94434 14.9179 9.94434 14.9179C9.94434 14.9179 9.94336 14.921 9.94336 14.9248C9.94339 14.929 9.94434 14.9316 9.94434 14.9316C9.94434 14.9316 9.94682 14.9351 9.94922 14.9375C9.9516 14.9398 9.95508 14.9424 9.95508 14.9424C9.95508 14.9424 9.95772 14.9433 9.96191 14.9433C9.96636 14.9433 9.96973 14.9424 9.96973 14.9424C9.96973 14.9424 9.97332 14.9397 9.97559 14.9375C9.97791 14.9351 9.98047 14.9316 9.98047 14.9316C9.98047 14.9316 9.98142 14.9289 9.98145 14.9248C9.98145 14.9211 9.98047 14.9179 9.98047 14.9179C9.98047 14.9179 9.97802 14.9135 9.97559 14.9111C9.97326 14.9088 9.96973 14.9062 9.96973 14.9062C9.96973 14.9062 9.96636 14.9052 9.96191 14.9052C9.9578 14.9053 9.95508 14.9062 9.95508 14.9062ZM7.58496 12.0947C7.08478 12.0947 6.67969 12.4998 6.67969 13C6.67969 13.5002 7.08478 13.9052 7.58496 13.9052C8.08512 13.9052 8.49023 13.5001 8.49023 13C8.49023 12.4998 8.08512 12.0947 7.58496 12.0947ZM12 12.0947C11.4998 12.0947 11.0947 12.4998 11.0947 13C11.0947 13.5002 11.4998 13.9052 12 13.9052C12.5002 13.9052 12.9053 13.5002 12.9053 13C12.9053 12.4998 12.5002 12.0947 12 12.0947ZM9.84863 9.94333C10.4112 9.94333 10.868 10.3993 10.8682 10.9619C10.8682 11.5246 10.4113 11.9814 9.84863 11.9814C9.28612 11.9812 8.83008 11.5244 8.83008 10.9619C8.83027 10.3995 9.28624 9.94356 9.84863 9.94333ZM14.0381 9.94333C14.6005 9.94352 15.0565 10.3995 15.0566 10.9619C15.0566 11.5245 14.6006 11.9812 14.0381 11.9814C13.4754 11.9814 13.0186 11.5246 13.0186 10.9619C13.0187 10.3993 13.4755 9.94333 14.0381 9.94333ZM9.8418 10.9443C9.8418 10.9443 9.8383 10.9468 9.83594 10.9492C9.83355 10.9516 9.83105 10.955 9.83105 10.955C9.83105 10.955 9.83011 10.9577 9.83008 10.9619C9.83008 10.9663 9.83105 10.9697 9.83105 10.9697C9.83105 10.9697 9.83365 10.9733 9.83594 10.9756C9.83831 10.9779 9.8418 10.9804 9.8418 10.9804C9.8418 10.9804 9.84449 10.9814 9.84863 10.9814C9.85308 10.9814 9.85645 10.9804 9.85645 10.9804C9.85645 10.9804 9.85996 10.9779 9.8623 10.9756C9.86462 10.9732 9.86719 10.9697 9.86719 10.9697C9.86719 10.9697 9.86816 10.9663 9.86816 10.9619C9.86813 10.9577 9.86719 10.955 9.86719 10.955C9.86719 10.955 9.86467 10.9516 9.8623 10.9492C9.86 10.9469 9.85645 10.9443 9.85645 10.9443C9.85645 10.9443 9.85308 10.9433 9.84863 10.9433C9.8445 10.9434 9.8418 10.9443 9.8418 10.9443ZM14.0303 10.9443C14.0303 10.9443 14.0267 10.9469 14.0244 10.9492C14.0221 10.9516 14.0195 10.955 14.0195 10.955C14.0195 10.955 14.0186 10.9577 14.0186 10.9619C14.0186 10.9663 14.0195 10.9697 14.0195 10.9697C14.0195 10.9697 14.0221 10.9732 14.0244 10.9756C14.0267 10.9779 14.0303 10.9804 14.0303 10.9804C14.0303 10.9804 14.0336 10.9814 14.0381 10.9814C14.0422 10.9814 14.0449 10.9804 14.0449 10.9804C14.0449 10.9804 14.0484 10.9779 14.0508 10.9756C14.0531 10.9733 14.0557 10.9697 14.0557 10.9697C14.0557 10.9697 14.0566 10.9663 14.0566 10.9619C14.0566 10.9577 14.0557 10.955 14.0557 10.955C14.0557 10.955 14.0532 10.9516 14.0508 10.9492C14.0484 10.9468 14.0449 10.9443 14.0449 10.9443C14.0449 10.9443 14.0423 10.9434 14.0381 10.9433C14.0336 10.9433 14.0303 10.9443 14.0303 10.9443ZM17.3203 13C17.3203 12.4998 16.9152 12.0947 16.415 12.0947C15.9149 12.0947 15.5098 12.4998 15.5098 13C15.5098 13.5001 15.9149 13.9052 16.415 13.9052C16.9152 13.9052 17.3203 13.5002 17.3203 13ZM12.9053 8.58493C12.9053 8.08475 12.5002 7.67966 12 7.67966C11.4998 7.67966 11.0947 8.08475 11.0947 8.58493C11.0948 9.08509 11.4998 9.4902 12 9.4902C12.4689 9.4902 12.8549 9.1343 12.9014 8.6777L12.9053 8.58493ZM13.5801 8.70798C13.5333 9.31726 13.142 9.82984 12.6006 10.0517C12.4528 10.1122 12.3398 10.2475 12.3398 10.4072V11.1777C12.3398 11.3374 12.4528 11.4727 12.6006 11.5332C12.9928 11.6939 13.306 12.0072 13.4668 12.3994C13.5273 12.5471 13.6626 12.6601 13.8223 12.6601H14.5928C14.7524 12.6601 14.8877 12.5471 14.9482 12.3994C15.1849 11.8219 15.7523 11.415 16.415 11.415C17.2904 11.415 18 12.1246 18 13C18 13.8753 17.2904 14.5849 16.415 14.5849C15.7523 14.5849 15.1849 14.178 14.9482 13.6006C14.8877 13.4528 14.7524 13.3398 14.5928 13.3398H13.8223C13.6626 13.3398 13.5273 13.4528 13.4668 13.6006C13.306 13.9927 12.9928 14.306 12.6006 14.4668C12.4528 14.5273 12.3398 14.6626 12.3398 14.8222V15.5927C12.3398 15.7524 12.4528 15.8877 12.6006 15.9482C13.178 16.1849 13.5849 16.7523 13.585 17.415L13.5771 17.5771C13.496 18.3763 12.8206 19 12 19C11.1247 19 10.415 18.2903 10.415 17.415C10.4151 16.7523 10.822 16.1849 11.3994 15.9482C11.5472 15.8877 11.6602 15.7524 11.6602 15.5927V14.8222C11.6602 14.6626 11.5472 14.5273 11.3994 14.4668C11.0072 14.306 10.694 13.9927 10.5332 13.6006C10.4727 13.4528 10.3374 13.3398 10.1777 13.3398H9.40723C9.24757 13.3398 9.11228 13.4528 9.05176 13.6006C8.81508 14.178 8.24765 14.5849 7.58496 14.5849C6.70964 14.5849 6 13.8753 6 13C6 12.1246 6.70964 11.415 7.58496 11.415C8.24765 11.415 8.81508 11.8219 9.05176 12.3994C9.11228 12.5471 9.24757 12.6601 9.40723 12.6601H10.1777C10.3374 12.6601 10.4727 12.5471 10.5332 12.3994C10.694 12.0072 11.0072 11.6939 11.3994 11.5332C11.5472 11.4727 11.6602 11.3374 11.6602 11.1777V10.4072C11.6602 10.2475 11.5472 10.1122 11.3994 10.0517C10.822 9.81505 10.4151 9.24762 10.415 8.58493C10.415 7.70961 11.1247 6.99997 12 6.99997C12.8753 6.99997 13.585 7.70961 13.585 8.58493L13.5801 8.70798Z" fill="white"/>
</svg>
