<svg width="18" height="18" viewBox="0 0 18 18" fill="none" xmlns="http://www.w3.org/2000/svg">
<g id="Group">
<path id="Vector" d="M8.84 0.712725C8.72608 0.777824 8.67725 0.888496 8.674 1.09356V1.27585L8.43963 1.29863C7.54449 1.38326 6.55496 1.74132 5.76724 2.25887C4.35454 3.18982 3.28363 4.67412 2.76934 6.41557C2.67168 6.74433 2.52521 7.35954 2.52195 7.44417C2.52195 7.46044 2.46011 7.47021 2.38198 7.47021C2.02067 7.47021 1.52265 7.69481 1.21993 7.99427C0.500566 8.70062 0.490801 9.85941 1.19715 10.5755C1.53567 10.9173 1.88722 11.0768 2.36896 11.1126L2.65541 11.1321L2.83118 11.6627C3.43011 13.4758 4.54985 14.9145 6.05043 15.8064C6.74701 16.2198 7.62912 16.5095 8.39732 16.5778L8.65772 16.6006L8.67725 16.861C8.68702 17.0042 8.70655 17.1475 8.71957 17.18C8.75212 17.2484 8.9051 17.333 8.9995 17.333C9.0939 17.333 9.24688 17.2484 9.27943 17.18C9.29245 17.1475 9.31199 17.0042 9.32175 16.861L9.34128 16.6006L9.6147 16.5746C10.4187 16.503 11.3431 16.184 12.082 15.7283C13.4947 14.8494 14.5819 13.4204 15.1646 11.6692L15.3436 11.1321L15.63 11.1126C16.1118 11.0768 16.4633 10.914 16.8019 10.5755C17.5049 9.86267 17.4984 8.71038 16.7823 7.99427C16.4894 7.70132 15.9718 7.47021 15.6138 7.47021C15.4836 7.47021 15.4803 7.46695 15.4575 7.34652C15.2915 6.38302 14.8911 5.32513 14.3801 4.5016C14.1653 4.15657 13.7681 3.61623 13.6282 3.48603C13.4492 3.32002 13.1757 3.38186 13.1041 3.60646C13.052 3.7562 13.0846 3.82455 13.371 4.19237C13.9765 4.96707 14.4354 5.90453 14.6763 6.85826C14.7349 7.09588 14.7935 7.34 14.8033 7.39534C14.8293 7.52229 14.8488 7.51903 14.3671 7.46695C13.1822 7.34652 12.1862 6.89406 11.3562 6.09658L11.0241 5.77433L11.3529 5.45533C11.6491 5.16563 11.6817 5.12332 11.6817 5.0159C11.6817 4.80432 11.4831 4.63506 11.2911 4.68388C11.2487 4.69691 11.0827 4.82385 10.9265 4.97033C10.5098 5.35768 10.0053 5.73201 9.4487 6.06728L9.32501 6.14215V4.03938V1.93662H9.40313C9.60819 1.93662 10.2918 2.0831 10.64 2.20028C11.0567 2.34025 11.1543 2.3435 11.2715 2.21981C11.4278 2.0538 11.3855 1.81293 11.1836 1.71202C10.8191 1.52649 9.81652 1.28561 9.41615 1.28561C9.32826 1.28561 9.32501 1.2791 9.32501 1.10658C9.32501 0.891752 9.27618 0.77457 9.159 0.712725C9.04833 0.657389 8.94091 0.657389 8.84 0.712725ZM8.674 4.2119V6.48718L8.27688 6.65644C7.13761 7.13494 5.90069 7.42138 4.57263 7.50601C4.0388 7.54182 3.2283 7.53531 3.19249 7.4995C3.16645 7.47346 3.32269 6.80618 3.43662 6.46114C4.23411 4.02311 6.05043 2.32723 8.23456 1.98545C8.37779 1.96266 8.53403 1.94313 8.58611 1.93988L8.674 1.93662V4.2119ZM10.8288 6.5002C11.5449 7.2098 12.4368 7.71434 13.4101 7.95846C13.9797 8.10494 14.2369 8.13098 15.0539 8.13749C15.9393 8.14075 15.9979 8.15702 16.3038 8.44672C16.5577 8.6876 16.6619 8.93498 16.6651 9.29304C16.6651 9.53716 16.6521 9.59575 16.5642 9.78129C16.4405 10.0384 16.2485 10.237 16.0044 10.3574C15.8286 10.4453 15.796 10.4486 15.3729 10.4486C14.8163 10.4486 14.8293 10.4388 14.6958 10.9596C14.455 11.9101 13.9927 12.8768 13.4231 13.6288C13.1562 13.9771 12.6679 14.4848 12.3359 14.7518C11.5254 15.4028 10.4805 15.8455 9.56262 15.9236L9.32501 15.9431V15.1131V14.2863L9.56262 14.2472C10.0606 14.1626 10.5294 13.9347 10.8679 13.6125C11.0339 13.4562 11.0502 13.4269 11.0502 13.3C11.0502 13.1893 11.0307 13.1405 10.9558 13.0656C10.8061 12.9192 10.6824 12.9354 10.435 13.134C10.0965 13.4042 9.8035 13.5474 9.46172 13.606L9.32501 13.6288V12.5709V11.513L9.43242 11.4902C9.58215 11.4544 9.88813 11.2949 10.0183 11.181C10.1746 11.0475 10.2201 10.9238 10.1713 10.7773C10.0899 10.53 9.85232 10.4941 9.58866 10.6927C9.49427 10.7643 9.39662 10.8229 9.37058 10.8229C9.33152 10.8229 9.32501 10.5202 9.32501 8.85686V6.89081L9.69283 6.67597C9.89138 6.55879 10.1518 6.3993 10.269 6.31792C10.3862 6.23654 10.4838 6.17144 10.4871 6.17144C10.4903 6.16819 10.6433 6.31792 10.8288 6.5002ZM8.674 9.00008C8.674 10.0742 8.66097 10.7904 8.6447 10.7904C8.62842 10.7904 8.5503 10.7415 8.46893 10.6797C8.18574 10.4616 8.08158 10.4453 7.91882 10.5918C7.77235 10.722 7.76909 10.9043 7.90906 11.054C8.04577 11.2005 8.37128 11.4056 8.53728 11.4511L8.674 11.4869V12.5416V13.5962L8.56983 13.5734C8.2606 13.5051 7.87976 13.3 7.57053 13.0266C7.4208 12.8964 7.37523 12.8736 7.25805 12.8736C7.06275 12.8736 6.94882 12.9908 6.94882 13.1926C6.94882 13.3228 6.96509 13.3553 7.07902 13.466C7.44684 13.811 7.91882 14.0747 8.38104 14.1854L8.674 14.257V15.0935V15.9333H8.54705C8.09134 15.9333 7.23201 15.686 6.64935 15.3897C5.48079 14.7941 4.52055 13.7817 3.85978 12.4569C3.54404 11.8255 3.3878 11.3632 3.16971 10.3998C3.08182 10.0124 3.04602 9.91149 2.9744 9.83663C2.85722 9.71945 2.69447 9.71619 2.56101 9.83012C2.43407 9.93428 2.41454 10.0417 2.46987 10.2761L2.51219 10.4649H2.3885C2.11833 10.4649 1.76678 10.2695 1.56171 10.0059C1.11252 9.41998 1.33386 8.54437 2.01742 8.21561C2.17366 8.14075 2.20296 8.13749 2.70098 8.15377C4.12344 8.19934 5.11297 8.15377 5.9723 8.00403C6.74701 7.87058 7.60308 7.6297 8.26711 7.36279C8.46567 7.28141 8.63493 7.21631 8.65121 7.21306C8.66423 7.2098 8.674 8.0138 8.674 9.00008Z" fill="#74BC1F"/>
<path id="Vector_2" d="M11.3691 8.75589C11.2552 8.82099 11.2129 8.89911 11.2129 9.04885C11.2129 9.28321 11.457 9.42318 11.6816 9.32227C11.789 9.27345 11.8737 9.09116 11.8476 8.97073C11.8053 8.76891 11.5482 8.65499 11.3691 8.75589Z" fill="#74BC1F"/>
<path id="Vector_3" d="M6.36243 8.72964C6.18341 8.79474 6.09878 8.99655 6.18341 9.17232C6.28106 9.37739 6.5317 9.42296 6.69119 9.26346C6.92881 9.02259 6.67817 8.61571 6.36243 8.72964Z" fill="#74BC1F"/>
<path id="Vector_4" d="M7.12426 9.56366C7.08846 9.58645 7.00708 9.64178 6.94524 9.69061C6.72389 9.86313 6.43094 9.92172 6.19657 9.8436C6.13473 9.82081 6.0208 9.75571 5.94268 9.69712C5.79295 9.57994 5.63671 9.5539 5.51301 9.619C5.43489 9.66131 5.35352 9.81756 5.35352 9.92497C5.35352 10.1496 5.86781 10.4816 6.27144 10.5206C6.68809 10.5565 7.10148 10.423 7.40094 10.1528C7.54742 10.0194 7.56695 9.98682 7.56695 9.87289C7.56695 9.71014 7.52463 9.63202 7.4042 9.57017C7.29027 9.51158 7.2154 9.50833 7.12426 9.56366Z" fill="#74BC1F"/>
<path id="Vector_5" d="M6.47913 11.9978C6.12433 12.1801 5.80859 12.5772 5.80859 12.8376C5.80859 12.9906 5.95833 13.1338 6.11782 13.1338C6.28383 13.1338 6.34242 13.0947 6.45309 12.8962C6.54749 12.7302 6.6842 12.613 6.88927 12.5251C7.1041 12.4307 7.15618 12.141 6.98367 11.988C6.85021 11.8708 6.72326 11.8708 6.47913 11.9978Z" fill="#74BC1F"/>
<path id="Vector_6" d="M15.8452 1.93662C15.7313 1.98544 15.6662 2.11565 15.6499 2.34025L15.6304 2.54531L15.422 2.56484C15.1714 2.58437 15.051 2.65924 15.0119 2.81874C14.95 3.05961 15.0965 3.20283 15.4285 3.23213L15.6401 3.2484V3.38186C15.6401 3.69435 15.7703 3.88965 15.9819 3.88965C16.1935 3.88965 16.3237 3.69435 16.3237 3.37535V3.23864H16.4636C16.7794 3.23864 16.9747 3.10844 16.9747 2.89686C16.9747 2.68528 16.7794 2.55508 16.4636 2.55508H16.3237V2.41511C16.3237 2.23283 16.2716 2.05706 16.1967 1.9887C16.1219 1.92034 15.9428 1.8943 15.8452 1.93662Z" fill="#74BC1F"/>
<path id="Vector_7" d="M12.1209 2.48701C11.9972 2.61395 11.9907 2.80275 12.1046 2.9362C12.1697 3.01107 12.2088 3.02734 12.3357 3.02734C12.4627 3.02734 12.5017 3.01107 12.5668 2.9362C12.7459 2.72788 12.6026 2.39261 12.3357 2.39261C12.2478 2.39261 12.1925 2.41865 12.1209 2.48701Z" fill="#74BC1F"/>
<path id="Vector_8" d="M14.5293 14.8854C14.4381 14.9668 14.4251 14.9994 14.4121 15.2077L14.3925 15.4388L14.1679 15.4518C13.9596 15.4616 13.9303 15.4746 13.8457 15.569C13.7155 15.7122 13.7155 15.8717 13.8457 16.0019C13.9336 16.0865 13.9596 16.0963 14.1679 16.0963H14.3958L14.4088 16.3242C14.4153 16.4869 14.4381 16.5748 14.4869 16.6399C14.6041 16.7961 14.7962 16.8157 14.9589 16.6855C15.0273 16.6334 15.0403 16.5878 15.0533 16.3665L15.0696 16.1126L15.3137 16.0963C15.5904 16.0768 15.6197 16.0638 15.6913 15.927C15.7564 15.8001 15.7304 15.6439 15.623 15.5429C15.5579 15.4811 15.496 15.4648 15.2975 15.4518L15.0533 15.4355V15.2109C15.0533 15.0026 15.0436 14.9766 14.9589 14.8887C14.8287 14.7617 14.6692 14.7585 14.5293 14.8854Z" fill="#74BC1F"/>
</g>
</svg>
