<svg width="14" height="14" viewBox="0 0 14 14" fill="none" xmlns="http://www.w3.org/2000/svg">
<g id="Group">
<g id="Vector">
<mask id="path-1-inside-1_14718_4605" fill="white">
<path fill-rule="evenodd" clip-rule="evenodd" d="M4.375 7.375H3.625V8.125H4.375V7.375ZM3.625 6.625C3.42609 6.625 3.23532 6.70402 3.09467 6.84467C2.95402 6.98532 2.875 7.17609 2.875 7.375V8.125C2.875 8.32391 2.95402 8.51468 3.09467 8.65533C3.23532 8.79598 3.42609 8.875 3.625 8.875H4.375C4.57391 8.875 4.76468 8.79598 4.90533 8.65533C5.04598 8.51468 5.125 8.32391 5.125 8.125V7.375C5.125 7.17609 5.04598 6.98532 4.90533 6.84467C4.76468 6.70402 4.57391 6.625 4.375 6.625H3.625ZM7.375 7.375H6.625V8.125H7.375V7.375ZM6.625 6.625C6.42609 6.625 6.23532 6.70402 6.09467 6.84467C5.95402 6.98532 5.875 7.17609 5.875 7.375V8.125C5.875 8.32391 5.95402 8.51468 6.09467 8.65533C6.23532 8.79598 6.42609 8.875 6.625 8.875H7.375C7.57391 8.875 7.76468 8.79598 7.90533 8.65533C8.04598 8.51468 8.125 8.32391 8.125 8.125V7.375C8.125 7.17609 8.04598 6.98532 7.90533 6.84467C7.76468 6.70402 7.57391 6.625 7.375 6.625H6.625ZM10.375 7.375H9.625V8.125H10.375V7.375ZM9.625 6.625C9.42609 6.625 9.23532 6.70402 9.09467 6.84467C8.95402 6.98532 8.875 7.17609 8.875 7.375V8.125C8.875 8.32391 8.95402 8.51468 9.09467 8.65533C9.23532 8.79598 9.42609 8.875 9.625 8.875H10.375C10.5739 8.875 10.7647 8.79598 10.9053 8.65533C11.046 8.51468 11.125 8.32391 11.125 8.125V7.375C11.125 7.17609 11.046 6.98532 10.9053 6.84467C10.7647 6.70402 10.5739 6.625 10.375 6.625H9.625ZM4.375 10.375H3.625V11.125H4.375V10.375ZM3.625 9.625C3.42609 9.625 3.23532 9.70402 3.09467 9.84467C2.95402 9.98532 2.875 10.1761 2.875 10.375V11.125C2.875 11.3239 2.95402 11.5147 3.09467 11.6553C3.23532 11.796 3.42609 11.875 3.625 11.875H4.375C4.57391 11.875 4.76468 11.796 4.90533 11.6553C5.04598 11.5147 5.125 11.3239 5.125 11.125V10.375C5.125 10.1761 5.04598 9.98532 4.90533 9.84467C4.76468 9.70402 4.57391 9.625 4.375 9.625H3.625ZM7.375 10.375H6.625V11.125H7.375V10.375ZM6.625 9.625C6.42609 9.625 6.23532 9.70402 6.09467 9.84467C5.95402 9.98532 5.875 10.1761 5.875 10.375V11.125C5.875 11.3239 5.95402 11.5147 6.09467 11.6553C6.23532 11.796 6.42609 11.875 6.625 11.875H7.375C7.57391 11.875 7.76468 11.796 7.90533 11.6553C8.04598 11.5147 8.125 11.3239 8.125 11.125V10.375C8.125 10.1761 8.04598 9.98532 7.90533 9.84467C7.76468 9.70402 7.57391 9.625 7.375 9.625H6.625ZM10.375 10.375H9.625V11.125H10.375V10.375ZM9.625 9.625C9.42609 9.625 9.23532 9.70402 9.09467 9.84467C8.95402 9.98532 8.875 10.1761 8.875 10.375V11.125C8.875 11.3239 8.95402 11.5147 9.09467 11.6553C9.23532 11.796 9.42609 11.875 9.625 11.875H10.375C10.5739 11.875 10.7647 11.796 10.9053 11.6553C11.046 11.5147 11.125 11.3239 11.125 11.125V10.375C11.125 10.1761 11.046 9.98532 10.9053 9.84467C10.7647 9.70402 10.5739 9.625 10.375 9.625H9.625Z"/>
</mask>
<path fill-rule="evenodd" clip-rule="evenodd" d="M4.375 7.375H3.625V8.125H4.375V7.375ZM3.625 6.625C3.42609 6.625 3.23532 6.70402 3.09467 6.84467C2.95402 6.98532 2.875 7.17609 2.875 7.375V8.125C2.875 8.32391 2.95402 8.51468 3.09467 8.65533C3.23532 8.79598 3.42609 8.875 3.625 8.875H4.375C4.57391 8.875 4.76468 8.79598 4.90533 8.65533C5.04598 8.51468 5.125 8.32391 5.125 8.125V7.375C5.125 7.17609 5.04598 6.98532 4.90533 6.84467C4.76468 6.70402 4.57391 6.625 4.375 6.625H3.625ZM7.375 7.375H6.625V8.125H7.375V7.375ZM6.625 6.625C6.42609 6.625 6.23532 6.70402 6.09467 6.84467C5.95402 6.98532 5.875 7.17609 5.875 7.375V8.125C5.875 8.32391 5.95402 8.51468 6.09467 8.65533C6.23532 8.79598 6.42609 8.875 6.625 8.875H7.375C7.57391 8.875 7.76468 8.79598 7.90533 8.65533C8.04598 8.51468 8.125 8.32391 8.125 8.125V7.375C8.125 7.17609 8.04598 6.98532 7.90533 6.84467C7.76468 6.70402 7.57391 6.625 7.375 6.625H6.625ZM10.375 7.375H9.625V8.125H10.375V7.375ZM9.625 6.625C9.42609 6.625 9.23532 6.70402 9.09467 6.84467C8.95402 6.98532 8.875 7.17609 8.875 7.375V8.125C8.875 8.32391 8.95402 8.51468 9.09467 8.65533C9.23532 8.79598 9.42609 8.875 9.625 8.875H10.375C10.5739 8.875 10.7647 8.79598 10.9053 8.65533C11.046 8.51468 11.125 8.32391 11.125 8.125V7.375C11.125 7.17609 11.046 6.98532 10.9053 6.84467C10.7647 6.70402 10.5739 6.625 10.375 6.625H9.625ZM4.375 10.375H3.625V11.125H4.375V10.375ZM3.625 9.625C3.42609 9.625 3.23532 9.70402 3.09467 9.84467C2.95402 9.98532 2.875 10.1761 2.875 10.375V11.125C2.875 11.3239 2.95402 11.5147 3.09467 11.6553C3.23532 11.796 3.42609 11.875 3.625 11.875H4.375C4.57391 11.875 4.76468 11.796 4.90533 11.6553C5.04598 11.5147 5.125 11.3239 5.125 11.125V10.375C5.125 10.1761 5.04598 9.98532 4.90533 9.84467C4.76468 9.70402 4.57391 9.625 4.375 9.625H3.625ZM7.375 10.375H6.625V11.125H7.375V10.375ZM6.625 9.625C6.42609 9.625 6.23532 9.70402 6.09467 9.84467C5.95402 9.98532 5.875 10.1761 5.875 10.375V11.125C5.875 11.3239 5.95402 11.5147 6.09467 11.6553C6.23532 11.796 6.42609 11.875 6.625 11.875H7.375C7.57391 11.875 7.76468 11.796 7.90533 11.6553C8.04598 11.5147 8.125 11.3239 8.125 11.125V10.375C8.125 10.1761 8.04598 9.98532 7.90533 9.84467C7.76468 9.70402 7.57391 9.625 7.375 9.625H6.625ZM10.375 10.375H9.625V11.125H10.375V10.375ZM9.625 9.625C9.42609 9.625 9.23532 9.70402 9.09467 9.84467C8.95402 9.98532 8.875 10.1761 8.875 10.375V11.125C8.875 11.3239 8.95402 11.5147 9.09467 11.6553C9.23532 11.796 9.42609 11.875 9.625 11.875H10.375C10.5739 11.875 10.7647 11.796 10.9053 11.6553C11.046 11.5147 11.125 11.3239 11.125 11.125V10.375C11.125 10.1761 11.046 9.98532 10.9053 9.84467C10.7647 9.70402 10.5739 9.625 10.375 9.625H9.625Z" fill="#666666"/>
<path d="M4.375 7.375H5.375V6.375H4.375V7.375ZM3.625 7.375V6.375H2.625V7.375H3.625ZM3.625 8.125H2.625V9.125H3.625V8.125ZM4.375 8.125V9.125H5.375V8.125H4.375ZM7.375 7.375H8.375V6.375H7.375V7.375ZM6.625 7.375V6.375H5.625V7.375H6.625ZM6.625 8.125H5.625V9.125H6.625V8.125ZM7.375 8.125V9.125H8.375V8.125H7.375ZM10.375 7.375H11.375V6.375H10.375V7.375ZM9.625 7.375V6.375H8.625V7.375H9.625ZM9.625 8.125H8.625V9.125H9.625V8.125ZM10.375 8.125V9.125H11.375V8.125H10.375ZM4.375 10.375H5.375V9.375H4.375V10.375ZM3.625 10.375V9.375H2.625V10.375H3.625ZM3.625 11.125H2.625V12.125H3.625V11.125ZM4.375 11.125V12.125H5.375V11.125H4.375ZM7.375 10.375H8.375V9.375H7.375V10.375ZM6.625 10.375V9.375H5.625V10.375H6.625ZM6.625 11.125H5.625V12.125H6.625V11.125ZM7.375 11.125V12.125H8.375V11.125H7.375ZM10.375 10.375H11.375V9.375H10.375V10.375ZM9.625 10.375V9.375H8.625V10.375H9.625ZM9.625 11.125H8.625V12.125H9.625V11.125ZM10.375 11.125V12.125H11.375V11.125H10.375ZM4.375 6.375H3.625V8.375H4.375V6.375ZM2.625 7.375V8.125H4.625V7.375H2.625ZM3.625 9.125H4.375V7.125H3.625V9.125ZM5.375 8.125V7.375H3.375V8.125H5.375ZM3.625 5.625C3.16087 5.625 2.71575 5.80938 2.38756 6.13756L3.80178 7.55178C3.75489 7.59866 3.6913 7.625 3.625 7.625V5.625ZM2.38756 6.13756C2.05938 6.46575 1.875 6.91087 1.875 7.375H3.875C3.875 7.4413 3.84866 7.50489 3.80178 7.55178L2.38756 6.13756ZM1.875 7.375V8.125H3.875V7.375H1.875ZM1.875 8.125C1.875 8.58913 2.05938 9.03425 2.38756 9.36244L3.80178 7.94822C3.84866 7.99511 3.875 8.0587 3.875 8.125H1.875ZM2.38756 9.36244C2.71575 9.69062 3.16087 9.875 3.625 9.875V7.875C3.6913 7.875 3.75489 7.90134 3.80178 7.94822L2.38756 9.36244ZM3.625 9.875H4.375V7.875H3.625V9.875ZM4.375 9.875C4.83913 9.875 5.28425 9.69062 5.61244 9.36244L4.19822 7.94822C4.24511 7.90134 4.3087 7.875 4.375 7.875V9.875ZM5.61244 9.36244C5.94062 9.03425 6.125 8.58913 6.125 8.125H4.125C4.125 8.0587 4.15134 7.99511 4.19822 7.94822L5.61244 9.36244ZM6.125 8.125V7.375H4.125V8.125H6.125ZM6.125 7.375C6.125 6.91087 5.94062 6.46575 5.61244 6.13756L4.19822 7.55178C4.15134 7.50489 4.125 7.4413 4.125 7.375H6.125ZM5.61244 6.13756C5.28425 5.80938 4.83913 5.625 4.375 5.625V7.625C4.3087 7.625 4.24511 7.59866 4.19822 7.55178L5.61244 6.13756ZM4.375 5.625H3.625V7.625H4.375V5.625ZM7.375 6.375H6.625V8.375H7.375V6.375ZM5.625 7.375V8.125H7.625V7.375H5.625ZM6.625 9.125H7.375V7.125H6.625V9.125ZM8.375 8.125V7.375H6.375V8.125H8.375ZM6.625 5.625C6.16087 5.625 5.71575 5.80938 5.38756 6.13756L6.80178 7.55178C6.75489 7.59866 6.6913 7.625 6.625 7.625V5.625ZM5.38756 6.13756C5.05938 6.46575 4.875 6.91087 4.875 7.375H6.875C6.875 7.4413 6.84866 7.50489 6.80178 7.55178L5.38756 6.13756ZM4.875 7.375V8.125H6.875V7.375H4.875ZM4.875 8.125C4.875 8.58913 5.05938 9.03425 5.38756 9.36244L6.80178 7.94822C6.84866 7.99511 6.875 8.0587 6.875 8.125H4.875ZM5.38756 9.36244C5.71575 9.69062 6.16087 9.875 6.625 9.875V7.875C6.6913 7.875 6.75489 7.90134 6.80178 7.94822L5.38756 9.36244ZM6.625 9.875H7.375V7.875H6.625V9.875ZM7.375 9.875C7.83913 9.875 8.28425 9.69062 8.61244 9.36244L7.19822 7.94822C7.24511 7.90134 7.3087 7.875 7.375 7.875V9.875ZM8.61244 9.36244C8.94062 9.03425 9.125 8.58913 9.125 8.125H7.125C7.125 8.0587 7.15134 7.99511 7.19822 7.94822L8.61244 9.36244ZM9.125 8.125V7.375H7.125V8.125H9.125ZM9.125 7.375C9.125 6.91087 8.94062 6.46575 8.61244 6.13756L7.19822 7.55178C7.15134 7.50489 7.125 7.4413 7.125 7.375H9.125ZM8.61244 6.13756C8.28425 5.80938 7.83913 5.625 7.375 5.625V7.625C7.3087 7.625 7.24511 7.59866 7.19822 7.55178L8.61244 6.13756ZM7.375 5.625H6.625V7.625H7.375V5.625ZM10.375 6.375H9.625V8.375H10.375V6.375ZM8.625 7.375V8.125H10.625V7.375H8.625ZM9.625 9.125H10.375V7.125H9.625V9.125ZM11.375 8.125V7.375H9.375V8.125H11.375ZM9.625 5.625C9.16087 5.625 8.71575 5.80938 8.38756 6.13756L9.80178 7.55178C9.75489 7.59866 9.6913 7.625 9.625 7.625V5.625ZM8.38756 6.13756C8.05938 6.46575 7.875 6.91087 7.875 7.375H9.875C9.875 7.4413 9.84866 7.50489 9.80178 7.55178L8.38756 6.13756ZM7.875 7.375V8.125H9.875V7.375H7.875ZM7.875 8.125C7.875 8.58913 8.05938 9.03425 8.38756 9.36244L9.80178 7.94822C9.84866 7.99511 9.875 8.0587 9.875 8.125H7.875ZM8.38756 9.36244C8.71575 9.69062 9.16087 9.875 9.625 9.875V7.875C9.6913 7.875 9.75489 7.90134 9.80178 7.94822L8.38756 9.36244ZM9.625 9.875H10.375V7.875H9.625V9.875ZM10.375 9.875C10.8391 9.875 11.2842 9.69063 11.6124 9.36244L10.1982 7.94822C10.2451 7.90134 10.3087 7.875 10.375 7.875V9.875ZM11.6124 9.36244C11.9406 9.03425 12.125 8.58913 12.125 8.125H10.125C10.125 8.0587 10.1513 7.99511 10.1982 7.94822L11.6124 9.36244ZM12.125 8.125V7.375H10.125V8.125H12.125ZM12.125 7.375C12.125 6.91087 11.9406 6.46575 11.6124 6.13756L10.1982 7.55178C10.1513 7.50489 10.125 7.4413 10.125 7.375H12.125ZM11.6124 6.13756C11.2842 5.80937 10.8391 5.625 10.375 5.625V7.625C10.3087 7.625 10.2451 7.59866 10.1982 7.55178L11.6124 6.13756ZM10.375 5.625H9.625V7.625H10.375V5.625ZM4.375 9.375H3.625V11.375H4.375V9.375ZM2.625 10.375V11.125H4.625V10.375H2.625ZM3.625 12.125H4.375V10.125H3.625V12.125ZM5.375 11.125V10.375H3.375V11.125H5.375ZM3.625 8.625C3.16087 8.625 2.71575 8.80938 2.38756 9.13756L3.80178 10.5518C3.75489 10.5987 3.6913 10.625 3.625 10.625V8.625ZM2.38756 9.13756C2.05938 9.46575 1.875 9.91087 1.875 10.375H3.875C3.875 10.4413 3.84866 10.5049 3.80178 10.5518L2.38756 9.13756ZM1.875 10.375V11.125H3.875V10.375H1.875ZM1.875 11.125C1.875 11.5891 2.05937 12.0342 2.38756 12.3624L3.80178 10.9482C3.84866 10.9951 3.875 11.0587 3.875 11.125H1.875ZM2.38756 12.3624C2.71575 12.6906 3.16087 12.875 3.625 12.875V10.875C3.6913 10.875 3.75489 10.9013 3.80178 10.9482L2.38756 12.3624ZM3.625 12.875H4.375V10.875H3.625V12.875ZM4.375 12.875C4.83913 12.875 5.28425 12.6906 5.61244 12.3624L4.19822 10.9482C4.24511 10.9013 4.3087 10.875 4.375 10.875V12.875ZM5.61244 12.3624C5.94063 12.0342 6.125 11.5891 6.125 11.125H4.125C4.125 11.0587 4.15134 10.9951 4.19822 10.9482L5.61244 12.3624ZM6.125 11.125V10.375H4.125V11.125H6.125ZM6.125 10.375C6.125 9.91087 5.94062 9.46575 5.61244 9.13756L4.19822 10.5518C4.15134 10.5049 4.125 10.4413 4.125 10.375H6.125ZM5.61244 9.13756C5.28425 8.80938 4.83913 8.625 4.375 8.625V10.625C4.3087 10.625 4.24511 10.5987 4.19822 10.5518L5.61244 9.13756ZM4.375 8.625H3.625V10.625H4.375V8.625ZM7.375 9.375H6.625V11.375H7.375V9.375ZM5.625 10.375V11.125H7.625V10.375H5.625ZM6.625 12.125H7.375V10.125H6.625V12.125ZM8.375 11.125V10.375H6.375V11.125H8.375ZM6.625 8.625C6.16087 8.625 5.71575 8.80938 5.38756 9.13756L6.80178 10.5518C6.75489 10.5987 6.6913 10.625 6.625 10.625V8.625ZM5.38756 9.13756C5.05938 9.46575 4.875 9.91087 4.875 10.375H6.875C6.875 10.4413 6.84866 10.5049 6.80178 10.5518L5.38756 9.13756ZM4.875 10.375V11.125H6.875V10.375H4.875ZM4.875 11.125C4.875 11.5891 5.05937 12.0342 5.38756 12.3624L6.80178 10.9482C6.84866 10.9951 6.875 11.0587 6.875 11.125H4.875ZM5.38756 12.3624C5.71575 12.6906 6.16087 12.875 6.625 12.875V10.875C6.6913 10.875 6.75489 10.9013 6.80178 10.9482L5.38756 12.3624ZM6.625 12.875H7.375V10.875H6.625V12.875ZM7.375 12.875C7.83913 12.875 8.28425 12.6906 8.61244 12.3624L7.19822 10.9482C7.24511 10.9013 7.3087 10.875 7.375 10.875V12.875ZM8.61244 12.3624C8.94063 12.0342 9.125 11.5891 9.125 11.125H7.125C7.125 11.0587 7.15134 10.9951 7.19822 10.9482L8.61244 12.3624ZM9.125 11.125V10.375H7.125V11.125H9.125ZM9.125 10.375C9.125 9.91087 8.94062 9.46575 8.61244 9.13756L7.19822 10.5518C7.15134 10.5049 7.125 10.4413 7.125 10.375H9.125ZM8.61244 9.13756C8.28425 8.80938 7.83913 8.625 7.375 8.625V10.625C7.3087 10.625 7.24511 10.5987 7.19822 10.5518L8.61244 9.13756ZM7.375 8.625H6.625V10.625H7.375V8.625ZM10.375 9.375H9.625V11.375H10.375V9.375ZM8.625 10.375V11.125H10.625V10.375H8.625ZM9.625 12.125H10.375V10.125H9.625V12.125ZM11.375 11.125V10.375H9.375V11.125H11.375ZM9.625 8.625C9.16087 8.625 8.71575 8.80938 8.38756 9.13756L9.80178 10.5518C9.75489 10.5987 9.6913 10.625 9.625 10.625V8.625ZM8.38756 9.13756C8.05938 9.46575 7.875 9.91087 7.875 10.375H9.875C9.875 10.4413 9.84866 10.5049 9.80178 10.5518L8.38756 9.13756ZM7.875 10.375V11.125H9.875V10.375H7.875ZM7.875 11.125C7.875 11.5891 8.05937 12.0342 8.38756 12.3624L9.80178 10.9482C9.84866 10.9951 9.875 11.0587 9.875 11.125H7.875ZM8.38756 12.3624C8.71575 12.6906 9.16087 12.875 9.625 12.875V10.875C9.6913 10.875 9.75489 10.9013 9.80178 10.9482L8.38756 12.3624ZM9.625 12.875H10.375V10.875H9.625V12.875ZM10.375 12.875C10.8391 12.875 11.2842 12.6906 11.6124 12.3624L10.1982 10.9482C10.2451 10.9013 10.3087 10.875 10.375 10.875V12.875ZM11.6124 12.3624C11.9406 12.0342 12.125 11.5891 12.125 11.125H10.125C10.125 11.0587 10.1513 10.9951 10.1982 10.9482L11.6124 12.3624ZM12.125 11.125V10.375H10.125V11.125H12.125ZM12.125 10.375C12.125 9.91087 11.9406 9.46575 11.6124 9.13756L10.1982 10.5518C10.1513 10.5049 10.125 10.4413 10.125 10.375H12.125ZM11.6124 9.13756C11.2842 8.80937 10.8391 8.625 10.375 8.625V10.625C10.3087 10.625 10.2451 10.5987 10.1982 10.5518L11.6124 9.13756ZM10.375 8.625H9.625V10.625H10.375V8.625Z" fill="#666666" mask="url(#path-1-inside-1_14718_4605)"/>
</g>
<path id="Vector_2" fill-rule="evenodd" clip-rule="evenodd" d="M1.75 2.125C1.65054 2.125 1.55516 2.16451 1.48484 2.23484C1.41451 2.30516 1.375 2.40054 1.375 2.5V12.625C1.375 12.7245 1.41451 12.8198 1.48484 12.8902C1.55516 12.9605 1.65054 13 1.75 13H12.25C12.4563 13 12.625 12.8316 12.625 12.6243V2.50075C12.625 2.293 12.4563 2.125 12.25 2.125H11.125V1.375H12.25C12.8717 1.375 13.375 1.88012 13.375 2.50075V12.6243C13.3751 12.7721 13.3461 12.9184 13.2896 13.055C13.2331 13.1916 13.1502 13.3157 13.0458 13.4202C12.9413 13.5248 12.8172 13.6077 12.6807 13.6643C12.5442 13.7209 12.3978 13.75 12.25 13.75H1.75C1.45163 13.75 1.16548 13.6315 0.954505 13.4205C0.743526 13.2095 0.625 12.9234 0.625 12.625V2.5C0.625 2.20163 0.743526 1.91548 0.954505 1.7045C1.16548 1.49353 1.45163 1.375 1.75 1.375H3.625V2.125H1.75ZM9.625 2.125H5.125V1.375H9.625V2.125Z" fill="#666666"/>
<path id="Vector_3" fill-rule="evenodd" clip-rule="evenodd" d="M12.625 5.5H1.375V4.75H12.625V5.5Z" fill="#666666"/>
<path id="Vector_4" d="M3.625 0.625C3.625 0.525544 3.66451 0.430161 3.73484 0.359835C3.80516 0.289509 3.90054 0.25 4 0.25C4.09946 0.25 4.19484 0.289509 4.26517 0.359835C4.33549 0.430161 4.375 0.525544 4.375 0.625V3.25C4.375 3.34946 4.33549 3.44484 4.26517 3.51516C4.19484 3.58549 4.09946 3.625 4 3.625C3.90054 3.625 3.80516 3.58549 3.73484 3.51516C3.66451 3.44484 3.625 3.34946 3.625 3.25V0.625ZM9.625 0.625C9.625 0.525544 9.66451 0.430161 9.73483 0.359835C9.80516 0.289509 9.90054 0.25 10 0.25C10.0995 0.25 10.1948 0.289509 10.2652 0.359835C10.3355 0.430161 10.375 0.525544 10.375 0.625V3.25C10.375 3.34946 10.3355 3.44484 10.2652 3.51516C10.1948 3.58549 10.0995 3.625 10 3.625C9.90054 3.625 9.80516 3.58549 9.73483 3.51516C9.66451 3.44484 9.625 3.34946 9.625 3.25V0.625Z" fill="#666666"/>
</g>
</svg>
