<svg width="45" height="44" viewBox="0 0 45 44" fill="none" xmlns="http://www.w3.org/2000/svg">
<path d="M4.63033 8.74012C4.30789 8.86909 4.23624 9.25602 4.47269 9.55697L4.616 9.74327H7.2672C9.00122 9.74327 9.96855 9.71461 10.0617 9.66445C10.4056 9.48532 10.377 8.91209 10.0115 8.74728C9.79658 8.65413 4.87396 8.6398 4.63033 8.74012Z" fill="white"/>
<path d="M12.3116 8.8046C11.9677 8.96224 11.8172 9.11988 11.6667 9.47815C11.5736 9.70027 11.5593 10.209 11.5593 12.8172V15.8983L9.81806 15.9198C8.09837 15.9413 8.06971 15.9413 7.81175 16.1205C7.66844 16.2136 7.48214 16.4286 7.38899 16.5862C7.22419 16.8728 7.22419 16.9015 7.20269 19.6458L7.1812 22.4117L6.22103 22.4403C5.2967 22.4618 5.25371 22.469 4.95992 22.6768C4.79512 22.7914 4.58016 23.0351 4.48701 23.207C4.3437 23.4865 4.3222 23.6226 4.3222 24.375C4.3222 25.1847 4.32937 25.2348 4.50134 25.3997C4.72347 25.6289 4.99575 25.6289 5.21788 25.3997C5.38268 25.242 5.39701 25.1775 5.39701 24.4753C5.39701 23.8878 5.41851 23.7015 5.51166 23.6155C5.61198 23.5152 6.70828 23.5008 16.5464 23.5008H27.4664V29.0898H15.3641L15.1276 28.6384C14.8195 28.0508 13.9525 27.1767 13.3506 26.8471C12.6842 26.4816 11.9533 26.2953 11.1652 26.2953C10.3913 26.2953 9.84672 26.4243 9.12302 26.7754C8.44947 27.105 7.54663 27.972 7.20269 28.6384L6.96623 29.0898H5.39701V28.23C5.39701 27.406 5.38985 27.3558 5.21788 27.191C4.99575 26.9617 4.72347 26.9617 4.50134 27.191L4.3222 27.363V29.355C4.3222 31.5476 4.35087 31.698 4.79512 32.1136C5.10323 32.4002 5.33253 32.4576 6.17804 32.4576H6.94474L7.07372 32.7227C7.30301 33.2099 7.83325 33.8835 8.27034 34.2489C8.75042 34.643 9.53145 35.0443 10.1262 35.1876C10.7854 35.3524 11.853 35.3022 12.5337 35.0801C13.6157 34.729 14.5974 33.9265 15.099 32.9591L15.3641 32.4576H23.8049L23.9482 32.2713C24.0342 32.1638 24.0987 32.0348 24.0987 31.9846C24.0987 31.7769 23.9196 31.5261 23.7189 31.4544C23.5828 31.4114 22.1354 31.3828 19.5773 31.3828H15.6435V30.1646H29.6877V31.3828H27.8605C26.3916 31.3828 25.9832 31.4043 25.8255 31.4902C25.4888 31.6622 25.4243 32.0491 25.6966 32.2999C25.8614 32.4576 25.9044 32.4576 27.9178 32.4576H29.9671L30.2323 32.9591C30.7338 33.9265 31.7155 34.729 32.7975 35.0801C33.4782 35.3022 34.5458 35.3524 35.205 35.1876C35.7998 35.0443 36.6954 34.5857 37.1254 34.2131C37.5195 33.862 38.0425 33.1741 38.2575 32.7227L38.3865 32.4576H39.1603C39.6548 32.4576 40.0274 32.4217 40.1707 32.3573C40.4716 32.2354 40.837 31.8127 40.9374 31.4759C40.9947 31.2824 41.009 29.0898 40.9947 24.0741L40.9732 16.9445L40.7726 16.5791C40.6293 16.3283 39.8841 15.5257 38.4438 14.0927C36.5306 12.201 36.2799 11.9717 35.9503 11.8642C35.6278 11.7567 35.1836 11.7496 32.0308 11.7639L28.4839 11.7854L28.1686 12.0004C28.0038 12.1222 27.7817 12.3658 27.6814 12.5378C27.5094 12.8459 27.5023 12.9175 27.4808 14.322C27.4521 15.9127 27.4879 16.1276 27.8175 16.2638C28.0325 16.3498 28.3334 16.2709 28.4481 16.1061C28.4767 16.056 28.5197 15.3394 28.5412 14.5226C28.5771 13.1468 28.5914 13.0179 28.7132 12.9247C28.835 12.8387 29.4297 12.8244 32.1956 12.8244H35.5418L35.8213 13.0322C36.2942 13.3833 39.7766 16.9302 39.8554 17.1451C39.9055 17.2741 39.9342 18.2056 39.9342 19.6745V21.9961H38.021C35.9073 21.9961 35.7783 22.0176 35.463 22.4475C35.3269 22.6338 35.3125 22.7556 35.3125 23.6656C35.3125 24.5326 35.334 24.7189 35.4487 24.9052C35.721 25.3567 35.7711 25.3638 37.9566 25.3638H39.9342V29.0898H38.365L38.1285 28.6384C37.7846 27.972 36.8817 27.105 36.2082 26.7754C35.4845 26.4243 34.9399 26.2953 34.1661 26.2953C33.4065 26.2953 32.6685 26.4745 32.0164 26.8184C31.4432 27.1193 30.5117 28.058 30.2036 28.6384L29.9671 29.0898H28.5412V18.0766L28.3764 17.9261C28.1543 17.7184 27.8605 17.7255 27.6456 17.9476L27.4664 18.1196V22.426H25.6751V19.6888C25.6751 17.0448 25.6679 16.9445 25.5246 16.6364C25.4315 16.4501 25.2523 16.2494 25.0803 16.1348L24.7937 15.9413L21.3042 15.8983V12.7886C21.3042 10.7608 21.2755 9.61429 21.2254 9.47815C21.1179 9.19153 20.8814 8.95507 20.5518 8.8046C20.2867 8.68279 20.0072 8.66846 16.4317 8.66846C12.8634 8.66846 12.5767 8.68279 12.3116 8.8046ZM14.7264 10.7966C14.7479 11.6493 14.7765 11.8929 14.8768 12.0434C15.1348 12.4303 15.6292 12.5019 16.1236 12.2153L16.4317 12.029L16.7398 12.2153C17.2916 12.5306 17.8505 12.4088 18.0511 11.9144C18.1228 11.7567 18.1514 11.3698 18.1514 10.7106V9.7361L20.1936 9.77909L20.215 12.8387L20.2294 15.9055H12.6341V12.8674C12.6341 10.5028 12.6556 9.82209 12.7272 9.79342C12.7702 9.77193 13.236 9.75043 13.7519 9.75043L14.6977 9.74327L14.7264 10.7966ZM17.0766 10.4311C17.0766 11.0617 17.0623 11.119 16.9548 11.0689C16.4389 10.8611 16.4246 10.8611 15.9158 11.0689C15.8012 11.1119 15.7868 11.0617 15.7868 10.4813C15.7868 10.1302 15.8083 9.81492 15.837 9.79342C15.8585 9.76476 16.1523 9.74327 16.4819 9.74327H17.0766V10.4311ZM10.4128 19.1443L10.6564 19.3879C10.9717 19.7032 11.3443 19.7175 11.81 19.4452L12.1253 19.2661L12.3976 19.4452C12.806 19.7247 13.2216 19.7032 13.5369 19.3879L13.7805 19.1443V16.9731L15.8943 17.0161L15.9158 19.7175L15.9301 22.426H8.26317V19.7891C8.26317 17.833 8.28467 17.1308 8.34916 17.0663C8.40648 17.009 8.75042 16.9803 9.42396 16.9803H10.4128V19.1443ZM12.7057 17.661C12.7057 18.0336 12.6914 18.3417 12.6771 18.3417C12.6627 18.3417 12.5552 18.2916 12.4478 18.2343C12.3331 18.1769 12.1755 18.1268 12.0967 18.1268C12.0178 18.1268 11.8602 18.1769 11.7456 18.2343C11.6381 18.2916 11.5306 18.3417 11.5163 18.3417C11.5019 18.3417 11.4876 18.0336 11.4876 17.661V16.9803H12.7057V17.661ZM19.0829 17.9835C19.0829 19.0654 19.1402 19.2947 19.4555 19.5169C19.6991 19.6888 20.1362 19.6602 20.4873 19.4524L20.8026 19.2661L21.0892 19.4524C21.4905 19.7032 21.8774 19.696 22.1784 19.4237L22.4148 19.2159L22.4865 17.0161L23.4466 16.9946C24.0915 16.9803 24.4355 17.0018 24.5 17.0591C24.5859 17.1236 24.6003 17.618 24.6003 19.782V22.426H17.005V16.9803H19.0829V17.9835ZM21.3758 18.3274L21.0821 18.2128C20.7883 18.0981 20.7668 18.1053 20.2867 18.3059C20.1721 18.3489 20.1577 18.2987 20.1577 17.6682V16.9803H21.3758V18.3274ZM37.6413 24.289H36.3515V23.0709H37.6413V24.289ZM39.9342 24.289H38.7161V23.0709H39.9342V24.289ZM12.068 27.4848C13.0711 27.7857 13.8164 28.4163 14.2606 29.355C14.5042 29.8494 14.5329 29.9855 14.5544 30.6017C14.5759 31.1033 14.5544 31.4043 14.4612 31.7124C13.9883 33.3532 12.3259 34.4495 10.6922 34.1988C8.38498 33.8405 7.06655 31.3971 8.06254 29.3048C8.4638 28.4593 9.34515 27.7284 10.2695 27.4705C10.7281 27.3415 11.6094 27.3486 12.068 27.4848ZM34.9686 27.4418C35.8929 27.6568 36.8531 28.4378 37.2687 29.3048C38.2575 31.3828 36.9892 33.776 34.6891 34.1844C33.3779 34.4209 31.8731 33.69 31.1924 32.4934C30.8557 31.9058 30.741 31.3828 30.7768 30.6017C30.7983 29.9855 30.827 29.8494 31.0706 29.355C31.651 28.1297 32.8046 27.3845 34.1302 27.3773C34.424 27.3773 34.8038 27.406 34.9686 27.4418ZM6.65096 31.3828H6.11355C5.78394 31.3828 5.53316 31.3469 5.483 31.2968C5.43284 31.2466 5.39701 30.9958 5.39701 30.6877V30.1646H6.65096V31.3828ZM39.9342 30.6877C39.9342 30.9958 39.8984 31.2466 39.8482 31.2968C39.7981 31.3469 39.5473 31.3828 39.2248 31.3828H38.6803V30.1646H39.9342V30.6877Z" fill="white"/>
<path d="M10.6063 29.1902C9.93271 29.4338 9.48129 30.0787 9.48129 30.8024C9.48845 31.7554 10.205 32.4576 11.1652 32.4576C11.8745 32.4576 12.4263 32.0921 12.7057 31.4401C12.892 31.0102 12.8777 30.4226 12.6771 30.0357C12.2973 29.2976 11.373 28.9179 10.6063 29.1902ZM11.5664 30.3724C11.8315 30.6447 11.8459 30.96 11.5951 31.2036C11.2225 31.5834 10.5561 31.3183 10.5561 30.7952C10.5633 30.222 11.1652 29.9712 11.5664 30.3724Z" fill="white"/>
<path d="M33.5857 29.2045C33.2489 29.3263 32.8261 29.7061 32.6542 30.0357C32.2314 30.8525 32.6613 31.999 33.5284 32.3573C33.8651 32.5006 34.5387 32.4791 34.8898 32.3214C35.2266 32.1638 35.6708 31.6837 35.7855 31.3255C35.9216 30.917 35.8356 30.2936 35.592 29.9067C35.1836 29.2403 34.3094 28.9322 33.5857 29.2045ZM34.4384 30.2506C35.0116 30.5516 34.811 31.3828 34.1661 31.3828C33.6 31.3828 33.3636 30.7809 33.7648 30.3725C33.9869 30.1503 34.1876 30.1145 34.4384 30.2506Z" fill="white"/>
<path d="M6.93757 11.1764C6.75844 11.377 6.77277 11.7209 6.96623 11.9144C7.11671 12.0649 7.17403 12.072 8.55695 12.072H9.99719L10.1692 11.8714C10.377 11.6278 10.3841 11.4701 10.1907 11.2193L10.0474 11.033H8.55695C7.15253 11.033 7.05938 11.0402 6.93757 11.1764Z" fill="white"/>
<path d="M5.76962 13.4908C5.54749 13.7272 5.56182 14.064 5.79828 14.2503C5.98458 14.3936 6.07773 14.4008 7.91207 14.4008C9.18751 14.4008 9.88972 14.3721 10.0115 14.322C10.377 14.1572 10.4056 13.5839 10.0617 13.4048C9.9757 13.3546 9.19468 13.326 7.91924 13.326C5.92726 13.326 5.92009 13.326 5.76962 13.4908Z" fill="white"/>
<path d="M30.4902 14.193C30.2896 14.2933 30.1248 14.4509 30.0101 14.6516L29.831 14.9525V17.4031C29.831 20.0256 29.8382 20.0543 30.2036 20.3982C30.6049 20.7708 30.6479 20.778 34.2162 20.778C36.201 20.778 37.6341 20.7493 37.7918 20.7063C38.15 20.606 38.5441 20.1904 38.6373 19.8107C38.7376 19.4094 38.7376 18.1769 38.6373 17.8043C38.5728 17.5679 38.2718 17.2311 36.9749 15.9198C36.1007 15.0385 35.2624 14.2575 35.1191 14.1787C34.8754 14.0568 34.682 14.0425 32.8261 14.0425C30.9058 14.0425 30.784 14.0497 30.4902 14.193ZM37.6413 18.0981V18.8218C37.6413 19.3449 37.6126 19.567 37.541 19.6244C37.4765 19.6817 36.5378 19.696 34.1947 19.6888L30.9416 19.6673L30.9201 17.4819C30.913 16.2781 30.9201 15.2606 30.9416 15.2105C30.9631 15.1388 31.4002 15.1173 32.8261 15.1173H34.6748L37.6413 18.0981Z" fill="white"/>
</svg>
