<svg width="100" height="99" viewBox="0 0 100 99" fill="none" xmlns="http://www.w3.org/2000/svg">
<g filter="url(#filter0_i_10691_247891)">
<g clip-path="url(#paint0_diamond_10691_247891_clip_path)" data-figma-skip-parse="true"><g transform="matrix(0.0531555 -0.10198 0.10198 0.0531555 28.5239 93.844)"><rect x="0" y="0" width="835.496" height="422.621" fill="url(#paint0_diamond_10691_247891)" opacity="1" shape-rendering="crispEdges"/><rect x="0" y="0" width="835.496" height="422.621" transform="scale(1 -1)" fill="url(#paint0_diamond_10691_247891)" opacity="1" shape-rendering="crispEdges"/><rect x="0" y="0" width="835.496" height="422.621" transform="scale(-1 1)" fill="url(#paint0_diamond_10691_247891)" opacity="1" shape-rendering="crispEdges"/><rect x="0" y="0" width="835.496" height="422.621" transform="scale(-1)" fill="url(#paint0_diamond_10691_247891)" opacity="1" shape-rendering="crispEdges"/></g></g><rect x="0.269104" y="49.5026" width="70" height="70" rx="14.5995" transform="rotate(-45 0.269104 49.5026)" data-figma-gradient-fill="{&#34;type&#34;:&#34;GRADIENT_DIAMOND&#34;,&#34;stops&#34;:[{&#34;color&#34;:{&#34;r&#34;:0.28627452254295349,&#34;g&#34;:0.76366013288497925,&#34;b&#34;:0.93725490570068359,&#34;a&#34;:1.0},&#34;position&#34;:0.4218750},{&#34;color&#34;:{&#34;r&#34;:0.39550781250,&#34;g&#34;:0.79850262403488159,&#34;b&#34;:1.0,&#34;a&#34;:1.0},&#34;position&#34;:1.0}],&#34;stopsVar&#34;:[{&#34;color&#34;:{&#34;r&#34;:0.28627452254295349,&#34;g&#34;:0.76366013288497925,&#34;b&#34;:0.93725490570068359,&#34;a&#34;:1.0},&#34;position&#34;:0.4218750},{&#34;color&#34;:{&#34;r&#34;:0.39550781250,&#34;g&#34;:0.79850262403488159,&#34;b&#34;:1.0,&#34;a&#34;:1.0},&#34;position&#34;:1.0}],&#34;transform&#34;:{&#34;m00&#34;:106.31099700927734,&#34;m01&#34;:203.96000671386719,&#34;m02&#34;:-126.61157989501953,&#34;m10&#34;:-203.96000671386719,&#34;m11&#34;:106.31099700927734,&#34;m12&#34;:142.66854858398438},&#34;opacity&#34;:1.0,&#34;blendMode&#34;:&#34;NORMAL&#34;,&#34;visible&#34;:true}"/>
<g clip-path="url(#paint1_diamond_10691_247891_clip_path)" data-figma-skip-parse="true"><g transform="matrix(0.0176335 -0.0519724 0.0275148 0.00933537 27.0287 45.6356)"><rect x="0" y="0" width="979.831" height="2509.23" fill="url(#paint1_diamond_10691_247891)" opacity="1" shape-rendering="crispEdges"/><rect x="0" y="0" width="979.831" height="2509.23" transform="scale(1 -1)" fill="url(#paint1_diamond_10691_247891)" opacity="1" shape-rendering="crispEdges"/><rect x="0" y="0" width="979.831" height="2509.23" transform="scale(-1 1)" fill="url(#paint1_diamond_10691_247891)" opacity="1" shape-rendering="crispEdges"/><rect x="0" y="0" width="979.831" height="2509.23" transform="scale(-1)" fill="url(#paint1_diamond_10691_247891)" opacity="1" shape-rendering="crispEdges"/></g></g><rect x="0.269104" y="49.5026" width="70" height="70" rx="14.5995" transform="rotate(-45 0.269104 49.5026)" data-figma-gradient-fill="{&#34;type&#34;:&#34;GRADIENT_DIAMOND&#34;,&#34;stops&#34;:[{&#34;color&#34;:{&#34;r&#34;:0.6250,&#34;g&#34;:0.89999997615814209,&#34;b&#34;:1.0,&#34;a&#34;:1.0},&#34;position&#34;:0.0},{&#34;color&#34;:{&#34;r&#34;:1.0,&#34;g&#34;:1.0,&#34;b&#34;:1.0,&#34;a&#34;:0.0},&#34;position&#34;:1.0}],&#34;stopsVar&#34;:[{&#34;color&#34;:{&#34;r&#34;:0.6250,&#34;g&#34;:0.89999997615814209,&#34;b&#34;:1.0,&#34;a&#34;:1.0},&#34;position&#34;:0.0},{&#34;color&#34;:{&#34;r&#34;:1.0,&#34;g&#34;:1.0,&#34;b&#34;:1.0,&#34;a&#34;:0.0},&#34;position&#34;:1.0}],&#34;transform&#34;:{&#34;m00&#34;:35.266941070556641,&#34;m01&#34;:55.029582977294922,&#34;m02&#34;:-18.119585037231445,&#34;m10&#34;:-103.94470977783203,&#34;m11&#34;:18.670745849609375,&#34;m12&#34;:88.272552490234375},&#34;opacity&#34;:1.0,&#34;blendMode&#34;:&#34;NORMAL&#34;,&#34;visible&#34;:true}"/>
<rect x="0.269104" y="49.5026" width="70" height="70" rx="14.5995" transform="rotate(-45 0.269104 49.5026)" fill="url(#paint2_linear_10691_247891)"/>
<rect x="0.269104" y="49.5026" width="70" height="70" rx="14.5995" transform="rotate(-45 0.269104 49.5026)" fill="url(#paint3_linear_10691_247891)"/>
<rect x="0.269104" y="49.5026" width="70" height="70" rx="14.5995" transform="rotate(-45 0.269104 49.5026)" fill="url(#paint4_linear_10691_247891)"/>
</g>
<rect x="7.76665" y="49.5026" width="59.397" height="59.397" rx="9.73298" transform="rotate(-45 7.76665 49.5026)" fill="black" fill-opacity="0.2"/>
<g filter="url(#filter1_i_10691_247891)">
<rect x="19.4272" y="49.5026" width="42.9062" height="42.9062" rx="7.29973" transform="rotate(-45 19.4272 49.5026)" fill="url(#paint5_linear_10691_247891)"/>
</g>
<path fill-rule="evenodd" clip-rule="evenodd" d="M44.7797 44.2857C45.3162 44.2857 45.8065 44.0872 46.1816 43.7594C46.4274 43.5446 46.7231 43.3728 47.0494 43.3728H58.3264C59.4409 43.443 61.69 44.2147 61.7711 46.7403C61.8501 49.2025 59.6888 50.2645 58.5164 50.5113C58.4572 50.5238 58.3973 50.5288 58.3368 50.5288H55.9831C55.4308 50.5288 54.9831 50.9765 54.9831 51.5288V51.844C54.9831 52.3963 55.4308 52.844 55.9831 52.844H58.4277C60.0488 52.844 64 51.7916 64 46.7403C64 42.9528 61.0333 41.3963 59.2708 41.0137C59.0482 40.9654 58.82 40.9524 58.5922 40.9524H47.0906C46.7564 40.9524 46.4549 40.7725 46.2067 40.5486C45.8285 40.2075 45.3282 40 44.7797 40C43.6002 40 42.6441 40.9594 42.6441 42.1429C42.6441 43.3263 43.6002 44.2857 44.7797 44.2857ZM44.7797 43.3333C45.4349 43.3333 45.9661 42.8004 45.9661 42.1429C45.9661 41.4854 45.4349 40.9524 44.7797 40.9524C44.1244 40.9524 43.5932 41.4854 43.5932 42.1429C43.5932 42.8004 44.1244 43.3333 44.7797 43.3333Z" fill="#D9D9D9" style="mix-blend-mode:multiply"/>
<path fill-rule="evenodd" clip-rule="evenodd" d="M40.9364 45.5536C40.2894 44.9897 39.2794 45.4493 39.2794 46.3075V55.4988C39.2794 55.8404 39.467 56.1472 39.6993 56.3977C40.0541 56.7803 40.2712 57.2933 40.2712 57.8571C40.2712 59.0406 39.3151 60 38.1356 60C36.9561 60 36 59.0406 36 57.8571C36 57.3061 36.2073 56.8036 36.5479 56.4239C36.7704 56.176 36.9492 55.8753 36.9492 55.5422V41.9524C36.9492 41.4001 37.3969 40.9524 37.9492 40.9524H38.9048C39.1463 40.9524 39.3797 41.0398 39.5618 41.1985L47.7507 48.3356C47.9686 48.5256 48.0937 48.8005 48.0937 49.0895V49.5936C48.0937 50.4518 47.0837 50.9113 46.4367 50.3474L40.9364 45.5536ZM38.1356 59.0476C38.7908 59.0476 39.322 58.5146 39.322 57.8571C39.322 57.1997 38.7908 56.6667 38.1356 56.6667C37.4803 56.6667 36.9492 57.1997 36.9492 57.8571C36.9492 58.5146 37.4803 59.0476 38.1356 59.0476Z" fill="#D9D9D9" style="mix-blend-mode:multiply"/>
<path fill-rule="evenodd" clip-rule="evenodd" d="M43.1116 50.521C42.4638 49.961 41.4576 50.4212 41.4576 51.2775V51.6895C41.4576 51.9776 41.5819 52.2517 41.7986 52.4416L50.141 59.7521C50.3234 59.9119 50.5576 60 50.8001 60H51.6528C52.2051 60 52.6528 59.5523 52.6528 59V49.1084C52.6528 48.5561 53.1005 48.1084 53.6528 48.1084H56.245C56.5766 48.1084 56.8762 48.2856 57.1236 48.5064C57.5008 48.8431 57.9978 49.0476 58.5424 49.0476C59.7218 49.0476 60.678 48.0882 60.678 46.9048C60.678 45.7213 59.7218 44.7619 58.5424 44.7619C58.0018 44.7619 57.5082 44.9634 57.132 45.2957C56.8854 45.5135 56.5877 45.688 56.2587 45.688H51.4239C50.8716 45.688 50.4239 46.1357 50.4239 46.688V54.6565C50.4239 55.5128 49.4177 55.973 48.7699 55.4129L43.1116 50.521ZM59.7288 46.9048C59.7288 47.5623 59.1976 48.0952 58.5424 48.0952C57.8871 48.0952 57.3559 47.5623 57.3559 46.9048C57.3559 46.2473 57.8871 45.7143 58.5424 45.7143C59.1976 45.7143 59.7288 46.2473 59.7288 46.9048Z" fill="#D9D9D9" style="mix-blend-mode:multiply"/>
<defs>
<filter id="filter0_i_10691_247891" x="6.31641" y="6.05237" width="86.9004" height="86.9004" filterUnits="userSpaceOnUse" color-interpolation-filters="sRGB">
<feFlood flood-opacity="0" result="BackgroundImageFix"/>
<feBlend mode="normal" in="SourceGraphic" in2="BackgroundImageFix" result="shape"/>
<feColorMatrix in="SourceAlpha" type="matrix" values="0 0 0 0 0 0 0 0 0 0 0 0 0 0 0 0 0 0 127 0" result="hardAlpha"/>
<feOffset/>
<feGaussianBlur stdDeviation="4.125"/>
<feComposite in2="hardAlpha" operator="arithmetic" k2="-1" k3="1"/>
<feColorMatrix type="matrix" values="0 0 0 0 1 0 0 0 0 1 0 0 0 0 1 0 0 0 0.7 0"/>
<feBlend mode="normal" in2="shape" result="effect1_innerShadow_10691_247891"/>
</filter>
<clipPath id="paint0_diamond_10691_247891_clip_path"><rect x="0.269104" y="49.5026" width="70" height="70" rx="14.5995" transform="rotate(-45 0.269104 49.5026)"/></clipPath><clipPath id="paint1_diamond_10691_247891_clip_path"><rect x="0.269104" y="49.5026" width="70" height="70" rx="14.5995" transform="rotate(-45 0.269104 49.5026)"/></clipPath><filter id="filter1_i_10691_247891" x="22.4508" y="22.187" width="54.6312" height="54.6312" filterUnits="userSpaceOnUse" color-interpolation-filters="sRGB">
<feFlood flood-opacity="0" result="BackgroundImageFix"/>
<feBlend mode="normal" in="SourceGraphic" in2="BackgroundImageFix" result="shape"/>
<feColorMatrix in="SourceAlpha" type="matrix" values="0 0 0 0 0 0 0 0 0 0 0 0 0 0 0 0 0 0 127 0" result="hardAlpha"/>
<feOffset/>
<feGaussianBlur stdDeviation="4.125"/>
<feComposite in2="hardAlpha" operator="arithmetic" k2="-1" k3="1"/>
<feColorMatrix type="matrix" values="0 0 0 0 1 0 0 0 0 1 0 0 0 0 1 0 0 0 0.7 0"/>
<feBlend mode="normal" in2="shape" result="effect1_innerShadow_10691_247891"/>
</filter>
<linearGradient id="paint0_diamond_10691_247891" x1="0" y1="0" x2="500" y2="500" gradientUnits="userSpaceOnUse">
<stop offset="0.421875" stop-color="#49C3EF"/>
<stop offset="1" stop-color="#65CCFF"/>
</linearGradient>
<linearGradient id="paint1_diamond_10691_247891" x1="0" y1="0" x2="500" y2="500" gradientUnits="userSpaceOnUse">
<stop stop-color="#9FE6FF"/>
<stop offset="1" stop-color="white" stop-opacity="0"/>
</linearGradient>
<linearGradient id="paint2_linear_10691_247891" x1="2.01911" y1="50.9609" x2="66.4774" y2="122.419" gradientUnits="userSpaceOnUse">
<stop stop-color="#BDBDBD"/>
<stop offset="0.18" stop-color="#E7E7E7"/>
<stop offset="0.315" stop-color="#D9D9D9"/>
<stop offset="0.491919" stop-color="#F5F5F5"/>
<stop offset="0.615" stop-color="#D9D9D9"/>
<stop offset="0.955" stop-color="#BDBDBD"/>
</linearGradient>
<linearGradient id="paint3_linear_10691_247891" x1="9.60244" y1="61.7526" x2="63.8524" y2="116.586" gradientUnits="userSpaceOnUse">
<stop stop-color="#D9D9D9"/>
<stop offset="0.195" stop-color="#BDBDBD"/>
<stop offset="0.41" stop-color="#F5F5F5"/>
<stop offset="0.61" stop-color="#D9D9D9"/>
<stop offset="0.855" stop-color="#E7E7E7"/>
<stop offset="1" stop-color="#BDBDBD"/>
</linearGradient>
<linearGradient id="paint4_linear_10691_247891" x1="69.886" y1="78.2603" x2="5.75959" y2="109.472" gradientUnits="userSpaceOnUse">
<stop stop-color="#BDBDBD"/>
<stop offset="0.195" stop-color="#D9D9D9"/>
<stop offset="0.41" stop-color="#F5F5F5"/>
<stop offset="0.61" stop-color="#BDBDBD"/>
<stop offset="0.855" stop-color="#E7E7E7"/>
<stop offset="1" stop-color="#D9D9D9"/>
</linearGradient>
<linearGradient id="paint5_linear_10691_247891" x1="22.7206" y1="52.7962" x2="44.2853" y2="95.9254" gradientUnits="userSpaceOnUse">
<stop stop-color="#BDBDBD"/>
<stop offset="0.195" stop-color="#E7E7E7"/>
<stop offset="0.41" stop-color="#F5F5F5"/>
<stop offset="0.61" stop-color="#E7E7E7"/>
<stop offset="0.855" stop-color="#BDBDBD"/>
<stop offset="1" stop-color="#D9D9D9"/>
</linearGradient>
</defs>
</svg>
