<svg width="45" height="44" viewBox="0 0 45 44" fill="none" xmlns="http://www.w3.org/2000/svg">
<path d="M8.30689 3.72403C7.81886 3.89628 7.45284 4.26948 7.27341 4.77904C7.18011 5.0374 7.16576 7.11153 7.16576 20.8409C7.16576 38.4459 7.1227 37.0105 7.67532 37.5631C8.01263 37.9004 8.47196 38.0727 9.04611 38.0727H9.46237V38.453C9.46237 39.2425 9.80686 39.8741 10.4169 40.2042C10.6322 40.3262 11.3499 40.3334 22.6679 40.3334C33.9858 40.3334 34.7035 40.3262 34.9188 40.2042C35.3064 39.9961 35.6509 39.5798 35.7657 39.1994C35.859 38.8836 35.8733 37.477 35.8733 28.7642V18.6879L35.6939 18.5156C35.4714 18.286 35.1987 18.286 34.9762 18.5156L34.7968 18.6879V28.7786V38.8765L34.5887 39.0846L34.3806 39.2927H22.6679H10.9552L10.747 39.0846L10.5389 38.8765V37.5344C10.5389 36.2138 10.5389 36.1995 10.3595 36.0272C10.137 35.7976 9.86427 35.7976 9.64179 36.0272C9.49108 36.1708 9.46237 36.2713 9.46237 36.6014V36.9961H9.06046C8.71597 36.9961 8.63702 36.9674 8.45043 36.788L8.2423 36.5799V20.8481V5.11635L8.45043 4.90822L8.65856 4.70009H20.3713H32.0839L32.2921 4.90822C32.4859 5.102 32.5002 5.15941 32.5002 5.66179C32.5002 5.96322 32.4787 6.20724 32.45 6.20724C32.4141 6.20724 27.6486 7.01823 21.8425 8.00864C10.4384 9.95358 10.8044 9.87463 10.1585 10.4344C10.015 10.5636 9.80686 10.8507 9.69921 11.0732L9.49825 11.4823L9.47672 22.7859C9.46237 30.7737 9.4839 34.1469 9.54131 34.2761C9.61308 34.4555 9.87145 34.6277 10.0652 34.6277C10.1226 34.6277 10.2375 34.5632 10.3308 34.4914L10.503 34.355L10.5389 23.0155C10.5748 11.6904 10.5748 11.6689 10.7255 11.4751C10.8044 11.3674 10.991 11.1736 11.1418 11.0588C11.3786 10.865 11.4719 10.8363 11.8307 10.8363C12.5341 10.8435 12.7709 11.0445 13.8546 12.5588C14.3642 13.2693 14.8666 13.9439 14.9742 14.0516C15.3044 14.4033 15.6919 14.5611 16.1728 14.554C16.5747 14.554 17.2493 14.2812 25.431 10.9081C30.2897 8.90575 34.3375 7.26942 34.4308 7.26942C34.7466 7.26224 34.7968 7.44166 34.7968 8.51102C34.7968 9.39378 34.8112 9.50861 34.9475 9.68085C35.1413 9.92487 35.4571 9.93205 35.6939 9.68803C35.8662 9.52296 35.8733 9.4799 35.8733 8.50384C35.8733 7.1833 35.8016 6.91775 35.3423 6.45125C34.9116 6.02782 34.4954 5.8771 33.9356 5.94887L33.5767 5.99911V5.5972C33.5767 4.95846 33.4476 4.59244 33.1031 4.20488C32.5361 3.57332 33.6485 3.62356 20.3425 3.62356C10.8547 3.63073 8.51502 3.64509 8.30689 3.72403ZM30.4117 7.67132C30.3758 7.71439 16.5316 13.4128 16.3091 13.4846C16.0436 13.5707 15.7924 13.3985 15.4407 12.9105C15.2469 12.6449 14.7804 11.999 14.4001 11.4679C13.9766 10.8866 13.7326 10.499 13.79 10.4775C13.8331 10.4631 17.0412 9.91052 20.9095 9.25742C24.7779 8.59714 28.4453 7.97275 29.0553 7.85792C30.1964 7.65697 30.4691 7.62109 30.4117 7.67132Z" fill="white"/>
<path d="M35.7657 11.231C35.5791 11.3243 33.1102 13.743 28.6175 18.2429C20.9526 25.9221 21.5913 25.1973 20.443 27.5298C19.8114 28.8073 19.7827 28.879 19.876 29.0728C19.9334 29.1805 20.0626 29.324 20.1703 29.3814C20.3569 29.4891 20.4071 29.4675 21.9286 28.714C22.7898 28.2905 23.687 27.8025 23.9238 27.6303C24.1606 27.458 27.4261 24.2428 31.1868 20.4749C38.6867 12.9607 38.3063 13.3913 38.1053 12.7238C37.9905 12.3506 37.1149 11.4176 36.6987 11.2239C36.3326 11.0516 36.1173 11.0516 35.7657 11.231ZM36.6843 13.4702L36.2322 13.9224L35.8016 13.4918L35.3709 13.0683L35.8159 12.6162L36.2681 12.164L36.6987 12.5947L37.1293 13.0253L36.6843 13.4702ZM29.9739 20.1806L24.4621 25.6925L24.0314 25.2619L23.6008 24.8313L29.1055 19.3266L34.6174 13.8147L35.048 14.2453L35.4786 14.676L29.9739 20.1806ZM23.2563 26.0657L23.6654 26.4676L23.364 26.7044C23.0985 26.9197 21.7492 27.6661 21.6344 27.6661C21.6128 27.6661 21.7492 27.3504 21.943 26.9628C22.2875 26.2738 22.6894 25.6566 22.7898 25.6566C22.8186 25.6566 23.0267 25.836 23.2563 26.0657Z" fill="white"/>
<path d="M18.5053 17.4534C18.4479 17.4749 17.8091 18.0778 17.0914 18.7883L15.7781 20.0945L15.0317 19.3481C14.3857 18.7094 14.2494 18.6017 14.0484 18.6017C13.7829 18.6017 13.4814 18.8888 13.4814 19.14C13.4814 19.2405 13.8331 19.6495 14.5006 20.3242C15.4264 21.2572 15.5412 21.3505 15.7709 21.3505C16.0077 21.3505 16.1441 21.2285 17.5866 19.7859C19.0435 18.3362 19.1512 18.207 19.1512 17.9701C19.1512 17.6185 18.8139 17.3458 18.5053 17.4534Z" fill="white"/>
<path d="M21.9502 18.0275C21.7133 18.1208 21.5913 18.2931 21.5913 18.5514C21.5913 19.0538 21.6057 19.0538 23.8305 19.0538C25.718 19.0538 25.8113 19.0467 25.9333 18.9103C26.1128 18.7093 26.0984 18.3649 25.9046 18.1711C25.7539 18.0204 25.6965 18.0132 23.9023 17.9988C22.8903 17.9917 22.0076 18.006 21.9502 18.0275Z" fill="white"/>
<path d="M21.986 20.3242C21.7277 20.3888 21.5913 20.5682 21.5913 20.8481C21.5913 21.2859 21.7277 21.3505 22.6822 21.3505C23.6152 21.3505 23.7444 21.293 23.7444 20.8337C23.7444 20.4175 23.565 20.317 22.7899 20.3026C22.4238 20.2883 22.065 20.3026 21.986 20.3242Z" fill="white"/>
<path d="M17.0914 25.0968L15.7852 26.403L15.0388 25.671C14.3714 25.0179 14.2637 24.9389 14.0341 24.9389C13.7542 24.9389 13.4814 25.1973 13.4814 25.4628C13.4814 25.5633 13.8618 25.9939 14.5508 26.6829C15.5412 27.6805 15.6345 27.7523 15.8283 27.7092C15.9575 27.6733 16.5603 27.1279 17.5938 26.1016C18.9861 24.7093 19.1512 24.5227 19.1512 24.3145C19.1512 24.0059 18.9359 23.7906 18.6273 23.7906C18.4263 23.7906 18.2469 23.9413 17.0914 25.0968Z" fill="white"/>
<path d="M29.1988 24.5083C29.0194 24.6877 29.0122 25.0178 29.1916 25.2332C29.328 25.3982 29.3639 25.4054 30.4189 25.4054H31.5098L31.682 25.2044C31.8902 24.9604 31.8973 24.8025 31.7036 24.5513L31.56 24.3647H30.4476C29.4357 24.3647 29.328 24.3791 29.1988 24.5083Z" fill="white"/>
<path d="M26.9022 26.8049C26.7085 26.9987 26.7156 27.3863 26.9094 27.5657C27.0529 27.6949 27.2108 27.7021 29.2419 27.7236L31.4309 27.7451L31.639 27.5298C31.8902 27.2786 31.9117 27.1064 31.7036 26.848L31.56 26.6614H29.2993C27.1391 26.6614 27.0386 26.6686 26.9022 26.8049Z" fill="white"/>
<path d="M17.0914 31.4125L15.7781 32.7187L15.0388 31.9866C14.4073 31.3694 14.2566 31.2546 14.0628 31.2546C13.9121 31.2546 13.7685 31.3192 13.6609 31.434C13.3236 31.7642 13.3953 31.9077 14.479 32.9986C15.2972 33.8383 15.5771 34.0536 15.8211 34.0536C15.8929 34.0536 16.668 33.3359 17.5507 32.4603C18.9861 31.0249 19.1512 30.8383 19.1512 30.6302C19.1512 30.3288 18.9359 30.1063 18.6345 30.1063C18.4335 30.1063 18.2469 30.2642 17.0914 31.4125Z" fill="white"/>
<path d="M21.7348 30.824C21.5195 31.0393 21.541 31.4196 21.7779 31.6062C21.9645 31.757 22.0219 31.757 26.6582 31.757C29.938 31.757 31.3949 31.7354 31.5169 31.678C31.6964 31.5991 31.8542 31.3407 31.8542 31.1397C31.8542 31.0823 31.7753 30.9531 31.6748 30.8598L31.5026 30.6804H26.6869C21.9717 30.6804 21.8784 30.6804 21.7348 30.824Z" fill="white"/>
<path d="M21.7348 33.1206C21.5195 33.3359 21.541 33.7163 21.7779 33.9029C21.9645 34.0536 22.0219 34.0536 26.6582 34.0536C29.9883 34.0536 31.3949 34.0321 31.5241 33.9746C31.8901 33.8096 31.9188 33.2354 31.5743 33.056C31.481 32.9986 29.8878 32.9771 26.6582 32.9771C21.9717 32.9771 21.8784 32.9771 21.7348 33.1206Z" fill="white"/>
</svg>
