<svg width="50" height="62" viewBox="0 0 50 62" fill="none" xmlns="http://www.w3.org/2000/svg">
<path d="M5.34507 4.35503C4.81541 4.59043 4.21513 5.16717 3.89733 5.75569C3.65016 6.20296 3.63839 6.39128 3.60308 10.1695C3.57954 12.3353 3.59131 14.3833 3.63839 14.7128C3.74432 15.6309 4.32106 16.4784 5.10967 16.9256L5.75703 17.2905H7.73443H9.72361L10.0061 16.961C10.3474 16.5608 10.371 16.1724 10.0649 15.8075C9.85308 15.5368 9.75892 15.525 7.9463 15.4661C5.28622 15.3837 5.5334 15.8192 5.48632 11.0758C5.46278 8.9925 5.48632 7.10926 5.52163 6.8974C5.55694 6.68554 5.69818 6.40305 5.82766 6.27358C6.03952 6.06171 6.25138 6.04994 10.2297 6.04994C14.2552 6.04994 14.4199 6.06171 14.6436 6.28535C14.8672 6.50898 14.879 6.67377 14.879 10.6286C14.879 12.8885 14.8437 14.8305 14.8084 14.9365C14.6789 15.2543 14.1021 15.4661 13.3606 15.4661C12.7486 15.4661 12.6309 15.5015 12.419 15.7722C12.0894 16.1841 12.113 16.5608 12.4543 16.961C12.725 17.2788 12.7839 17.2905 13.7255 17.2788C14.4788 17.2788 14.8084 17.2199 15.185 17.0316C15.8088 16.702 16.4797 15.9487 16.6445 15.3837C16.7387 15.0777 16.7622 13.5123 16.7387 10.4402L16.7034 5.95578L16.3503 5.44966C16.1502 5.16717 15.7617 4.77876 15.4793 4.57866L14.9731 4.22556L10.371 4.20201C6.43971 4.17847 5.69818 4.20201 5.34507 4.35503Z" fill="#1E1E1E"/>
<path d="M21.4114 4.46111L21.1172 4.7436V10.7347V16.7257L21.4232 17.0082C21.7175 17.2789 21.7881 17.2907 23.8832 17.326L26.0489 17.3613L26.0842 19.4917C26.1313 22.293 25.8371 22.0576 29.3799 22.0576C30.8865 22.0576 32.1694 22.0105 32.2871 21.9399C32.652 21.7516 32.8168 21.1866 32.6285 20.81C32.3695 20.245 32.0635 20.1744 29.9213 20.1744H27.9439V18.0793C27.9439 15.278 28.144 15.4663 25.2015 15.4663H23.0004V10.1108V4.7436L22.7062 4.46111C22.5296 4.27279 22.2824 4.16685 22.0588 4.16685C21.8352 4.16685 21.588 4.27279 21.4114 4.46111Z" fill="#1E1E1E"/>
<path d="M29.1797 4.4611L28.8855 4.74359V7.63907V10.5228H27.1906C25.7075 10.5228 25.4603 10.5463 25.2249 10.7464C24.86 11.0407 24.8483 11.7233 25.2132 12.0882C25.4721 12.3354 25.5545 12.3472 27.8379 12.3472H30.2037L30.4862 12.0176L30.7687 11.688V8.21581V4.74359L30.4745 4.4611C30.2979 4.27278 30.0507 4.16685 29.8271 4.16685C29.6035 4.16685 29.3563 4.27278 29.1797 4.4611Z" fill="#1E1E1E"/>
<path d="M34.7942 4.41387C34.1821 4.7199 33.5583 5.42611 33.3817 6.03817C33.2876 6.34419 33.2405 7.87432 33.2405 10.8051C33.2405 15.5603 33.2522 15.6191 33.982 16.3842C34.1939 16.6078 34.5705 16.8903 34.8295 17.0316C35.2885 17.2787 35.4062 17.2905 39.773 17.2905C44.8106 17.2905 44.7165 17.3023 45.611 16.3724C46.2819 15.6898 46.3643 15.3249 46.3643 13.0179C46.3643 11.0052 46.3643 10.9699 46.0818 10.7463C45.7052 10.4402 45.1167 10.452 44.7989 10.7816C44.5752 11.0287 44.5517 11.2053 44.5164 12.9591C44.4693 15.6545 44.9283 15.3955 40.0319 15.4426C37.8897 15.4661 36.0065 15.4426 35.8535 15.4073C35.7122 15.372 35.4886 15.2425 35.3591 15.113C35.1355 14.8894 35.1237 14.7011 35.1237 10.7227V6.55606L35.3944 6.30888C35.6651 6.04994 35.724 6.04994 39.7965 6.04994C44.6576 6.04994 44.434 5.99108 44.5164 7.23873C44.5752 8.1215 44.8459 8.52169 45.3874 8.52169C46.176 8.52169 46.4938 7.98026 46.3878 6.86208C46.2937 6.04994 46.0112 5.42611 45.458 4.90822C44.6929 4.1667 44.6458 4.1667 39.7494 4.1667C35.4533 4.1667 35.2767 4.17847 34.7942 4.41387Z" fill="#1E1E1E"/>
<path d="M8.28759 8.20398C7.61669 8.63948 7.4166 9.13383 7.36951 10.405C7.31066 11.7704 7.47545 12.4413 7.98157 12.9474C8.48769 13.4535 9.15859 13.6183 10.5239 13.5594C11.7951 13.5124 12.2895 13.3123 12.725 12.6414C12.9722 12.2883 12.9957 12.1117 12.9957 10.711C12.9957 8.98082 12.8662 8.61594 12.1482 8.16867C11.8069 7.96857 11.548 7.93326 10.2179 7.93326C8.81725 7.93326 8.6407 7.9568 8.28759 8.20398ZM11.1125 10.7581V11.7115L10.2061 11.6762L9.28806 11.6409L9.25275 10.7228L9.21744 9.8165H10.1708H11.1125V10.7581Z" fill="#1E1E1E"/>
<path d="M37.8191 8.21563C37.1364 8.67467 37.007 9.0984 37.007 10.7933C37.007 12.1116 37.0305 12.2881 37.2777 12.6412C37.7014 13.2886 38.2075 13.5005 39.3963 13.5593C40.7852 13.6299 41.5738 13.4534 42.0564 12.9473C42.539 12.4529 42.6567 12.0056 42.6567 10.6403C42.6567 9.32203 42.3977 8.63936 41.7268 8.20386C41.3619 7.95668 41.1854 7.93314 39.7847 7.93314C38.337 7.93314 38.2075 7.95668 37.8191 8.21563ZM40.7499 10.7227L40.7146 11.6408L39.8083 11.6761L38.8902 11.7114V10.758V9.81638H39.8318H40.7852L40.7499 10.7227Z" fill="#1E1E1E"/>
<path d="M36.1006 20.2921C35.5709 20.5039 35.4179 21.4103 35.8298 21.8222C36.0535 22.0458 36.2183 22.0576 40.6674 22.0576C43.3863 22.0576 45.352 22.0105 45.4697 21.9399C45.8346 21.7516 45.9993 21.1866 45.811 20.81C45.5168 20.1861 45.4226 20.1744 40.7145 20.1861C38.3251 20.1861 36.2418 20.2332 36.1006 20.2921Z" fill="#1E1E1E"/>
<path d="M9.29982 21.3632C8.75839 21.787 8.92318 22.6344 9.59408 22.8698C10.3474 23.1288 11.0536 22.4108 10.7593 21.6928C10.5004 21.0807 9.85302 20.9277 9.29982 21.3632Z" fill="#1E1E1E"/>
<path d="M12.0541 21.2688C11.6068 21.4924 11.4067 21.9868 11.5833 22.4223C11.6656 22.6106 11.8304 22.8225 11.9481 22.8813C12.0658 22.9519 14.0079 22.999 16.6915 22.999H21.2231L21.4585 22.693C21.8704 22.1633 21.741 21.5631 21.1525 21.257C20.7758 21.0452 12.4543 21.0687 12.0541 21.2688Z" fill="#1E1E1E"/>
<path d="M4.92131 27.5071C4.68591 27.7072 4.60352 27.8955 4.60352 28.178C4.60352 28.637 5.07433 29.1196 5.53336 29.1196C6.3102 29.1196 6.71039 27.9661 6.09834 27.4836C5.68638 27.1658 5.3215 27.1775 4.92131 27.5071Z" fill="#1E1E1E"/>
<path d="M7.76965 27.4835C7.53424 27.6718 7.46362 27.8248 7.46362 28.1779C7.46362 28.531 7.53424 28.684 7.76965 28.8724C8.07568 29.1195 8.20515 29.1195 13.3017 29.1195H18.5277V30.5202C18.5277 31.709 18.563 31.9562 18.7513 32.1916C19.0455 32.5565 19.7282 32.5682 20.0931 32.2033C20.3403 31.9444 20.352 31.8502 20.352 29.8728V27.8013L20.0225 27.5188L19.6929 27.2363H13.8902C8.19338 27.2363 8.07568 27.2363 7.76965 27.4835Z" fill="#1E1E1E"/>
<path d="M24.5658 27.3543C24.1185 27.5426 24.0597 27.8486 24.0597 29.8849V31.8505L24.401 32.1919C24.5894 32.3802 24.8601 32.5332 25.0013 32.5332C25.1426 32.5332 25.4133 32.3802 25.6016 32.1919L25.9429 31.8505V29.8496C25.9429 28.1194 25.9194 27.8133 25.7428 27.6015C25.4957 27.319 24.9425 27.1895 24.5658 27.3543Z" fill="#1E1E1E"/>
<path d="M29.7683 27.5307C29.474 27.8132 29.474 27.8485 29.474 29.8495C29.4858 31.9799 29.5093 32.1211 30.0272 32.3918C30.4274 32.6037 30.6393 32.5566 31.0159 32.1917C31.3572 31.8504 31.3572 31.8269 31.3572 30.4851V29.1197H36.4773C40.0201 29.1197 41.6797 29.0844 41.8798 28.9902C42.3036 28.7901 42.4919 28.2722 42.3036 27.825C42.2212 27.6249 42.0564 27.413 41.9387 27.3542C41.8092 27.2835 39.4081 27.2365 35.8888 27.2365H30.0507L29.7683 27.5307Z" fill="#1E1E1E"/>
<path d="M43.8219 27.3541C43.4806 27.5542 43.3158 28.131 43.4806 28.5194C43.9043 29.5552 45.458 28.9902 45.1755 27.8956C45.046 27.3423 44.328 27.0599 43.8219 27.3541Z" fill="#1E1E1E"/>
<path d="M5.5451 32.8391C4.33276 33.2158 3.57947 34.4164 3.57947 35.9818C3.57947 36.5821 3.62655 36.7116 3.9208 37.0176C4.32099 37.4178 4.73295 37.4531 5.12137 37.1353C5.345 36.9587 5.40386 36.7704 5.47448 36.0171C5.59218 34.4988 5.27438 34.5929 10.2414 34.5929H14.4316L14.6553 34.8754C14.8671 35.1343 14.8789 35.3933 14.8789 39.2892V43.4441L14.6082 43.6913C14.3375 43.9503 14.2786 43.9503 10.265 43.9503C8.01685 43.9503 6.0983 43.9149 5.99237 43.8796C5.58041 43.7149 5.46271 43.197 5.46271 41.4785C5.46271 39.8778 5.45094 39.8071 5.16845 39.5364C4.80357 39.1598 4.39161 39.1598 3.96789 39.5246L3.63832 39.8071V41.7963C3.63832 43.9973 3.72071 44.3034 4.54463 45.092C5.30969 45.8217 5.35677 45.8335 10.1943 45.8335C14.5611 45.8335 14.5846 45.8335 15.1849 45.551C15.8676 45.2332 16.4326 44.6094 16.6327 43.962C16.7151 43.656 16.7621 42.0906 16.7621 39.1951C16.7621 34.4399 16.7504 34.381 16.0206 33.616C15.8088 33.3923 15.4321 33.1099 15.1732 32.9686C14.7141 32.7214 14.5611 32.7097 10.4062 32.6861C6.8516 32.6626 6.01591 32.6861 5.5451 32.8391Z" fill="#1E1E1E"/>
<path d="M44.7988 34.2163C44.5399 34.487 44.5399 34.5223 44.5399 39.2186V43.9385L40.4203 43.9738C36.3478 44.0091 36.3007 44.0091 36.0418 44.2681C35.6769 44.6329 35.6887 45.3156 36.0535 45.6099C36.3125 45.8217 36.6067 45.8335 41.0677 45.8335C45.5639 45.8335 45.8228 45.8217 46.0818 45.6099L46.3643 45.3862V39.8895V34.3928L46.0818 34.1692C45.7051 33.8632 45.1166 33.8749 44.7988 34.2163Z" fill="#1E1E1E"/>
<path d="M24.3187 35.558C24.2363 35.5933 24.0951 35.7698 24.0009 35.9464C23.8597 36.2289 23.8243 37.0292 23.8243 40.6427C23.8243 44.9859 23.8243 44.9977 24.0951 45.3037C24.4599 45.7392 25.0602 45.7392 25.4369 45.3155L25.7076 44.9977V41.1724V37.3588H28.6384C31.4161 37.3588 31.5809 37.347 31.8752 37.1116C32.1106 36.9233 32.1812 36.7703 32.1812 36.4172C32.1812 36.0641 32.1106 35.9111 31.8752 35.7227C31.5692 35.4873 31.4279 35.4756 28.0145 35.4873C26.0725 35.4873 24.4011 35.5227 24.3187 35.558Z" fill="#1E1E1E"/>
<path d="M8.7113 36.5351C8.22872 36.6881 7.60489 37.3355 7.46365 37.8298C7.4048 38.0535 7.34595 38.7479 7.34595 39.36C7.34595 40.6782 7.60489 41.3609 8.28757 41.8082C8.67599 42.0671 8.79369 42.0789 10.2885 42.0436C11.7127 42.0083 11.9128 41.9847 12.2424 41.7493C12.8662 41.302 12.9957 40.8665 12.9957 39.2069C12.9957 37.8887 12.9721 37.7121 12.7249 37.3472C12.5837 37.1236 12.2306 36.8294 11.9363 36.6763C11.4891 36.4527 11.2419 36.4174 10.2297 36.4292C9.58229 36.4292 8.89962 36.488 8.7113 36.5351ZM11.1124 39.2423V40.1839H10.1708H9.22919V39.3246C9.22919 38.8421 9.2645 38.4183 9.31158 38.383C9.34689 38.3359 9.77062 38.3006 10.2532 38.3006H11.1124V39.2423Z" fill="#1E1E1E"/>
<path d="M27.8733 39.713C27.5437 39.8425 27.2377 40.278 27.2377 40.6311C27.2377 40.7723 27.3671 41.0312 27.5319 41.1843L27.8144 41.4785H31.8045H35.7946L36.0418 41.2078C36.3008 40.9371 36.3714 40.5016 36.2301 40.1249C36.0418 39.6424 35.6652 39.5953 31.8045 39.607C29.78 39.607 28.0027 39.6541 27.8733 39.713Z" fill="#1E1E1E"/>
<path d="M37.7485 39.7718C36.8657 40.1485 37.1835 41.4785 38.1604 41.4785C38.7607 41.4785 39.0785 41.0548 39.0079 40.3603C38.949 39.8307 38.3252 39.5364 37.7485 39.7718Z" fill="#1E1E1E"/>
<path d="M10.28 56.36H14.22V60.75H13.5V57.04H10.98V60.79H10.28V56.36ZM11.74 51.62H12.47V56.57H11.74V51.62ZM12.17 53.79H14.61V54.49H12.17V53.79ZM10.64 59.63H13.84V60.33H10.64V59.63ZM6.37 52.51V54.93H9.12V52.51H6.37ZM5.77 51.96H9.73V55.48H5.77V51.96ZM6.51 53.01L6.88 52.91C6.96667 53.15 7.04 53.4133 7.1 53.7C7.16667 53.98 7.20667 54.2233 7.22 54.43L6.82 54.54C6.81333 54.3333 6.78 54.0867 6.72 53.8C6.66667 53.5133 6.59667 53.25 6.51 53.01ZM6.84 58.73L7.34 58.67C7.41333 58.9433 7.47333 59.2433 7.52 59.57C7.57333 59.89 7.6 60.17 7.6 60.41L7.08 60.48C7.08667 60.24 7.06667 59.96 7.02 59.64C6.97333 59.3133 6.91333 59.01 6.84 58.73ZM7.8 58.67L8.28 58.57C8.4 58.8233 8.50667 59.1 8.6 59.4C8.7 59.7 8.76667 59.96 8.8 60.18L8.29 60.3C8.26333 60.08 8.20333 59.8167 8.11 59.51C8.02333 59.2033 7.92 58.9233 7.8 58.67ZM8.76 58.54L9.22 58.35C9.4 58.5833 9.57 58.84 9.73 59.12C9.89667 59.4 10.0167 59.6433 10.09 59.85L9.59 60.07C9.51667 59.8567 9.4 59.6067 9.24 59.32C9.08667 59.0333 8.92667 58.7733 8.76 58.54ZM5.99 58.69L6.52 58.84C6.47333 59.2067 6.4 59.57 6.3 59.93C6.20667 60.29 6.05333 60.58 5.84 60.8L5.32 60.52C5.52 60.3133 5.67 60.0467 5.77 59.72C5.87667 59.3867 5.95 59.0433 5.99 58.69ZM8.55 52.88L8.99 53.04C8.90333 53.3 8.81333 53.5767 8.72 53.87C8.62667 54.1633 8.53333 54.4067 8.44 54.6L8.12 54.48C8.16667 54.3333 8.21667 54.1667 8.27 53.98C8.33 53.7867 8.38333 53.5933 8.43 53.4C8.48333 53.2067 8.52333 53.0333 8.55 52.88ZM5.49 57.64C5.85667 57.62 6.28 57.6 6.76 57.58C7.24667 57.5533 7.76333 57.5267 8.31 57.5C8.85667 57.4667 9.40333 57.4367 9.95 57.41L9.93 58.01C9.40333 58.0433 8.87333 58.08 8.34 58.12C7.80667 58.1533 7.3 58.1867 6.82 58.22C6.34 58.2467 5.90667 58.2733 5.52 58.3L5.49 57.64ZM5.7 56.17H9.8V56.77H5.7V56.17ZM7.45 52.23H7.96V55.22H8.04V57.81H7.37V55.22H7.45V52.23ZM18.39 54.69H20.31V55.41H18.39V54.69ZM18.12 51.6H18.88V59.61L18.12 59.71V51.6ZM16.25 53.63H16.99V59.89L16.25 60V53.63ZM15.44 59.87C15.8533 59.8033 16.3233 59.7267 16.85 59.64C17.3833 59.5467 17.9433 59.45 18.53 59.35C19.1233 59.2433 19.7167 59.1333 20.31 59.02L20.36 59.77C19.8 59.8767 19.23 59.9833 18.65 60.09C18.07 60.1967 17.5167 60.2967 16.99 60.39C16.47 60.49 16 60.5833 15.58 60.67L15.44 59.87ZM23.75 53.78L24.37 54.39C24.09 54.5967 23.78 54.8033 23.44 55.01C23.1 55.2167 22.7467 55.4167 22.38 55.61C22.02 55.7967 21.6667 55.9767 21.32 56.15C21.2933 56.0633 21.25 55.9633 21.19 55.85C21.13 55.7367 21.0733 55.64 21.02 55.56C21.3533 55.3933 21.6867 55.21 22.02 55.01C22.36 54.8033 22.68 54.5967 22.98 54.39C23.28 54.1767 23.5367 53.9733 23.75 53.78ZM20.81 51.6H21.6V59.12C21.6 59.3867 21.6267 59.56 21.68 59.64C21.74 59.7133 21.8767 59.75 22.09 59.75C22.1367 59.75 22.22 59.75 22.34 59.75C22.4667 59.75 22.6033 59.75 22.75 59.75C22.9033 59.75 23.0433 59.75 23.17 59.75C23.3033 59.75 23.4 59.75 23.46 59.75C23.6 59.75 23.7033 59.7 23.77 59.6C23.8433 59.5 23.8933 59.32 23.92 59.06C23.9533 58.8 23.9767 58.4333 23.99 57.96C24.09 58.0333 24.2067 58.1033 24.34 58.17C24.4733 58.23 24.5967 58.2733 24.71 58.3C24.6767 58.8333 24.6233 59.26 24.55 59.58C24.4833 59.9 24.37 60.1267 24.21 60.26C24.05 60.4 23.82 60.47 23.52 60.47C23.4667 60.47 23.3667 60.47 23.22 60.47C23.08 60.47 22.9233 60.47 22.75 60.47C22.5767 60.47 22.42 60.47 22.28 60.47C22.14 60.47 22.0433 60.47 21.99 60.47C21.6833 60.47 21.4433 60.43 21.27 60.35C21.1033 60.2767 20.9833 60.1433 20.91 59.95C20.8433 59.75 20.81 59.4667 20.81 59.1V51.6ZM29.1 51.93H33.78V55.01H29.01V54.42H33.07V52.51H29.1V51.93ZM29.26 53.17H33.49V53.71H29.26V53.17ZM28.48 55.51H34.45V57.34H33.76V56.13H29.14V57.36H28.48V55.51ZM29.15 57.11H33.51V57.71H29.83V60.06H29.15V57.11ZM33.17 57.11H33.82V59.38C33.82 59.54 33.8 59.67 33.76 59.77C33.7267 59.8633 33.6533 59.9367 33.54 59.99C33.4133 60.05 33.2567 60.0833 33.07 60.09C32.89 60.0967 32.67 60.1 32.41 60.1C32.3967 60.0067 32.37 59.9033 32.33 59.79C32.2967 59.6767 32.2567 59.5767 32.21 59.49C32.41 59.4967 32.5833 59.5 32.73 59.5C32.8767 59.5 32.9767 59.5 33.03 59.5C33.09 59.4933 33.1267 59.4833 33.14 59.47C33.16 59.45 33.17 59.4167 33.17 59.37V57.11ZM31.09 56.12H31.77V60.81H31.09V56.12ZM25.28 56.79C25.66 56.6767 26.1233 56.5367 26.67 56.37C27.2233 56.2033 27.78 56.03 28.34 55.85L28.44 56.54C27.9267 56.7133 27.41 56.8867 26.89 57.06C26.37 57.2267 25.8967 57.3767 25.47 57.51L25.28 56.79ZM25.42 53.62H28.49V54.32H25.42V53.62ZM26.67 51.61H27.37V59.93C27.37 60.13 27.3433 60.2867 27.29 60.4C27.2433 60.5133 27.1567 60.6 27.03 60.66C26.91 60.72 26.75 60.76 26.55 60.78C26.35 60.8 26.09 60.8067 25.77 60.8C25.7633 60.7133 25.7367 60.6 25.69 60.46C25.65 60.3267 25.6067 60.2067 25.56 60.1C25.7733 60.1067 25.9667 60.11 26.14 60.11C26.32 60.1167 26.44 60.1167 26.5 60.11C26.56 60.11 26.6033 60.0967 26.63 60.07C26.6567 60.05 26.67 60.0033 26.67 59.93V51.61ZM38.58 53.04H44.52V53.72H38.58V53.04ZM39.97 51.6H40.69V55.03H39.97V51.6ZM42.48 51.6H43.2V55.03H42.48V51.6ZM39.02 55.48H44.16V60.73H43.44V56.15H39.71V60.78H39.02V55.48ZM39.4 57.53H43.77V58.19H39.4V57.53ZM39.41 59.6H43.79V60.27H39.41V59.6ZM41.22 55.78H41.91V60.06H41.22V55.78ZM35.28 56.91C35.6667 56.81 36.13 56.6767 36.67 56.51C37.2167 56.3433 37.77 56.17 38.33 55.99L38.43 56.68C37.9167 56.8467 37.4 57.0167 36.88 57.19C36.3667 57.3567 35.8967 57.51 35.47 57.65L35.28 56.91ZM35.42 53.62H38.4V54.32H35.42V53.62ZM36.63 51.61H37.33V59.86C37.33 60.0667 37.3033 60.2233 37.25 60.33C37.1967 60.4433 37.11 60.53 36.99 60.59C36.87 60.65 36.71 60.69 36.51 60.71C36.31 60.73 36.05 60.7367 35.73 60.73C35.7167 60.6433 35.69 60.53 35.65 60.39C35.61 60.2567 35.5633 60.14 35.51 60.04C35.73 60.0467 35.9267 60.05 36.1 60.05C36.28 60.05 36.3967 60.0467 36.45 60.04C36.5167 60.04 36.5633 60.0267 36.59 60C36.6167 59.9733 36.63 59.9267 36.63 59.86V51.61Z" fill="black"/>
</svg>
