<svg width="24" height="24" viewBox="0 0 24 24" fill="none" xmlns="http://www.w3.org/2000/svg">
<g id="icon / setting">
<path id="Vector" d="M15.7499 12C15.7499 12.9946 15.3548 13.9484 14.6515 14.6517C13.9482 15.3549 12.9944 15.75 11.9999 15.75C11.0053 15.75 10.0515 15.3549 9.3482 14.6517C8.64494 13.9484 8.24985 12.9946 8.24985 12C8.24985 11.0054 8.64494 10.0516 9.3482 9.34835C10.0515 8.64509 11.0053 8.25 11.9999 8.25C12.9944 8.25 13.9482 8.64509 14.6515 9.34835C15.3548 10.0516 15.7499 11.0054 15.7499 12ZM14.9999 12C14.9999 11.2044 14.6838 10.4413 14.1212 9.87868C13.5586 9.31608 12.7955 9.00001 11.9999 9C11.2042 9.00001 10.4411 9.31608 9.87853 9.87868C9.31592 10.4413 8.99985 11.2044 8.99985 12C8.99985 12.7957 9.31592 13.5587 9.87853 14.1213C10.4411 14.6839 11.2042 15 11.9999 15C12.7955 15 13.5586 14.6839 14.1212 14.1213C14.6838 13.5587 14.9999 12.7957 14.9999 12ZM4.42485 4.728C4.5298 4.62164 4.66524 4.55057 4.81239 4.52463C4.95954 4.4987 5.11112 4.51918 5.2461 4.58326L6.5961 5.20575C6.80907 5.30407 7.04212 5.35107 7.27654 5.34298C7.51097 5.33489 7.74023 5.27194 7.94591 5.15918C8.15159 5.04642 8.32796 4.887 8.46085 4.69371C8.59374 4.50043 8.67946 4.27867 8.7111 4.04626L8.93385 2.41426C8.95182 2.27149 9.01215 2.13738 9.10707 2.02923C9.20198 1.92108 9.32713 1.84385 9.46635 1.80751C10.295 1.60243 11.1455 1.49917 11.9991 1.5C12.8729 1.5 13.7211 1.60651 14.5326 1.80751C14.6718 1.84385 14.797 1.92108 14.8919 2.02923C14.9868 2.13738 15.0471 2.27149 15.0651 2.41426L15.2879 4.04626C15.3195 4.27857 15.4052 4.50023 15.5381 4.69343C15.6709 4.88663 15.8472 5.046 16.0528 5.15875C16.2584 5.27149 16.4875 5.33448 16.7219 5.34264C16.9562 5.3508 17.1892 5.30392 17.4021 5.20575L18.7521 4.58326C18.8871 4.51918 19.0387 4.4987 19.1858 4.52463C19.333 4.55057 19.4684 4.62164 19.5734 4.728C20.75 5.95229 21.6121 7.44366 22.0859 9.07425C22.1254 9.21847 22.1191 9.37142 22.0677 9.51187C22.0164 9.65232 21.9226 9.77329 21.7994 9.85801L20.4974 10.773C20.3004 10.9114 20.1396 11.0952 20.0286 11.3088C19.9176 11.5224 19.8596 11.7596 19.8596 12.0004C19.8596 12.2411 19.9176 12.4783 20.0286 12.692C20.1396 12.9056 20.3004 13.0894 20.4974 13.2278L21.7994 14.1428C21.9224 14.2274 22.0161 14.3483 22.0675 14.4886C22.1188 14.6289 22.1252 14.7816 22.0859 14.9258C21.6121 16.5563 20.75 18.0477 19.5734 19.272C19.4685 19.3782 19.3332 19.4492 19.1862 19.4751C19.0392 19.501 18.8878 19.4807 18.7529 19.4168L17.4014 18.7943C17.1885 18.6962 16.9556 18.6495 16.7213 18.6577C16.4871 18.666 16.2581 18.729 16.0526 18.8417C15.8471 18.9544 15.6709 19.1137 15.5381 19.3069C15.4053 19.5 15.3196 19.7215 15.2879 19.9538L15.0651 21.5858C15.0471 21.7285 14.9868 21.8626 14.8919 21.9708C14.797 22.0789 14.6718 22.1562 14.5326 22.1925C13.7037 22.3976 12.853 22.5009 11.9991 22.5C11.1452 22.5009 10.2945 22.3976 9.4656 22.1925C9.32638 22.1562 9.20123 22.0789 9.10632 21.9708C9.0114 21.8626 8.95107 21.7285 8.9331 21.5858L8.7111 19.9538C8.67946 19.7213 8.59374 19.4996 8.46085 19.3063C8.32796 19.113 8.15159 18.9536 7.94591 18.8408C7.74023 18.7281 7.51097 18.6651 7.27654 18.657C7.04212 18.6489 6.80907 18.6959 6.5961 18.7943L5.2461 19.4168C5.11112 19.4808 4.95954 19.5013 4.81239 19.4754C4.66524 19.4494 4.5298 19.3784 4.42485 19.272C3.24814 18.0475 2.38599 16.5559 1.91235 14.925C1.87281 14.7808 1.87914 14.6278 1.93048 14.4874C1.98183 14.3469 2.07562 14.226 2.19885 14.1413L3.5016 13.2263C3.69859 13.0879 3.85938 12.9041 3.97037 12.6905C4.08137 12.4768 4.13931 12.2396 4.13931 11.9989C4.13931 11.7581 4.08137 11.5209 3.97037 11.3073C3.85938 11.0937 3.69859 10.9099 3.5016 10.7715L2.19885 9.85651C2.07562 9.7718 1.98183 9.65082 1.93048 9.51037C1.87914 9.36992 1.87281 9.21697 1.91235 9.07275C2.38644 7.44296 3.24856 5.95165 4.42485 4.728ZM2.64135 9.25276L3.9321 10.1595C5.20785 11.0558 5.20785 12.9458 3.9321 13.842L2.6421 14.7488C3.08097 16.2409 3.87044 17.6064 4.9446 18.7313L6.2826 18.114C6.60193 17.9668 6.9513 17.8966 7.30269 17.9088C7.65408 17.921 7.99772 18.0155 8.30603 18.1845C8.61434 18.3535 8.87874 18.5925 9.07803 18.8821C9.27732 19.1718 9.40595 19.5041 9.4536 19.8525L9.67485 21.4725C10.4189 21.654 11.1974 21.7508 11.9999 21.7508C12.7827 21.7516 13.5628 21.6582 14.3234 21.4725L14.5446 19.8525C14.5923 19.5041 14.7209 19.1718 14.9202 18.8821C15.1195 18.5925 15.3839 18.3535 15.6922 18.1845C16.0005 18.0155 16.3441 17.921 16.6955 17.9088C17.0469 17.8966 17.3963 17.9668 17.7156 18.114L19.0544 18.7305C20.1285 17.6057 20.918 16.2402 21.3569 14.748L20.0669 13.842C19.7713 13.6344 19.5301 13.3587 19.3635 13.0383C19.197 12.7178 19.11 12.3619 19.11 12.0008C19.11 11.6396 19.197 11.2837 19.3635 10.9632C19.5301 10.6428 19.7713 10.3671 20.0669 10.1595L21.3569 9.25276C20.918 7.76061 20.1285 6.3951 19.0544 5.27026L17.7156 5.88751C17.3963 6.03467 17.0469 6.10495 16.6955 6.09271C16.3441 6.08047 16.0005 5.98605 15.6922 5.81702C15.3839 5.64799 15.1195 5.40906 14.9202 5.11938C14.7209 4.82971 14.5923 4.49737 14.5446 4.149L14.3234 2.52901C13.5626 2.343 12.7822 2.24932 11.9991 2.25001C11.1974 2.25001 10.4189 2.34676 9.67485 2.52825L9.4536 4.14826C9.40595 4.49662 9.27732 4.82896 9.07803 5.11863C8.87874 5.40831 8.61434 5.64724 8.30603 5.81627C7.99772 5.9853 7.65408 6.07972 7.30269 6.09196C6.9513 6.10421 6.60193 6.03392 6.2826 5.88675L4.9446 5.27026C3.87044 6.3951 3.08022 7.76061 2.64135 9.25276Z" fill="#000"/>
</g>
</svg>
