<svg width="71" height="71" viewBox="0 0 71 71" fill="none" xmlns="http://www.w3.org/2000/svg">
<g filter="url(#filter0_i_11721_136244)">
<rect x="0.144653" y="35.3555" width="50" height="50" rx="14.5995" transform="rotate(-45 0.144653 35.3555)" fill="url(#paint0_diamond_11721_136244)"/>
<rect x="0.144653" y="35.3555" width="50" height="50" rx="14.5995" transform="rotate(-45 0.144653 35.3555)" fill="url(#paint1_diamond_11721_136244)"/>
<rect x="0.144653" y="35.3555" width="50" height="50" rx="14.5995" transform="rotate(-45 0.144653 35.3555)" fill="url(#paint2_linear_11721_136244)"/>
</g>
<rect x="5.50005" y="35.3555" width="42.4264" height="42.4264" rx="9.73298" transform="rotate(-45 5.50005 35.3555)" fill="black" fill-opacity="0.2"/>
<g filter="url(#filter1_i_11721_136244)">
<rect x="13.8291" y="35.3555" width="30.6473" height="30.6473" rx="7.29973" transform="rotate(-45 13.8291 35.3555)" fill="url(#paint3_diamond_11721_136244)"/>
<rect x="13.8291" y="35.3555" width="30.6473" height="30.6473" rx="7.29973" transform="rotate(-45 13.8291 35.3555)" fill="url(#paint4_diamond_11721_136244)"/>
<rect x="13.8291" y="35.3555" width="30.6473" height="30.6473" rx="7.29973" transform="rotate(-45 13.8291 35.3555)" fill="url(#paint5_linear_11721_136244)"/>
</g>
<path fill-rule="evenodd" clip-rule="evenodd" d="M31.9415 31.6291C32.2714 31.6291 32.5768 31.524 32.8263 31.3455C33.0917 31.1555 33.3852 30.977 33.7116 30.977L41.6178 30.977C42.4138 31.0271 44.0204 31.5784 44.0783 33.3824C44.1341 35.1234 42.6219 35.8843 41.779 36.0705C41.7199 36.0835 41.6597 36.0885 41.5992 36.0885L40.0565 36.0885C39.5998 36.0885 39.2297 36.4586 39.2297 36.9153V36.9153C39.2297 37.372 39.5999 37.7421 40.0565 37.7421L41.6901 37.7421C42.848 37.7421 45.6703 36.9905 45.6703 33.3824C45.6703 30.677 43.5513 29.5652 42.2923 29.292C42.1333 29.2575 41.9703 29.2481 41.8076 29.2481L33.7451 29.2481C33.4108 29.2481 33.1117 29.0612 32.8424 28.8632C32.59 28.6775 32.2785 28.5679 31.9415 28.5679C31.099 28.5679 30.4161 29.2531 30.4161 30.0985C30.4161 30.9438 31.099 31.6291 31.9415 31.6291ZM31.9415 30.9488C32.4096 30.9488 32.789 30.5681 32.789 30.0985C32.789 29.6288 32.4096 29.2481 31.9415 29.2481C31.4735 29.2481 31.0941 29.6288 31.0941 30.0985C31.0941 30.5681 31.4735 30.9488 31.9415 30.9488Z" fill="#CCD7DF" style="mix-blend-mode:multiply"/>
<path fill-rule="evenodd" clip-rule="evenodd" d="M29.6698 32.9474C29.0228 32.3835 28.0127 32.843 28.0127 33.7012L28.0127 39.4818C28.0127 39.8234 28.2076 40.1278 28.4132 40.4006C28.6065 40.6571 28.7212 40.9766 28.7212 41.323C28.7212 42.1683 28.0382 42.8536 27.1958 42.8536C26.3533 42.8536 25.6703 42.1683 25.6703 41.323C25.6703 40.9841 25.7801 40.671 25.9658 40.4174C26.1627 40.1487 26.3483 39.8503 26.3483 39.5171L26.3483 30.2481C26.3483 29.6959 26.796 29.2481 27.3483 29.2481L27.6381 29.2481C27.8797 29.2481 28.1131 29.3356 28.2952 29.4943L34.0172 34.4813C34.2024 34.6428 34.3087 34.8764 34.3087 35.1221V35.1221C34.3087 35.8516 33.4502 36.2422 32.9002 35.7629L29.6698 32.9474ZM27.1958 42.1733C27.6638 42.1733 28.0432 41.7926 28.0432 41.323C28.0432 40.8533 27.6638 40.4726 27.1958 40.4726C26.7277 40.4726 26.3483 40.8533 26.3483 41.323C26.3483 41.7926 26.7277 42.1733 27.1958 42.1733Z" fill="#CCD7DF" style="mix-blend-mode:multiply"/>
<path fill-rule="evenodd" clip-rule="evenodd" d="M30.9345 36.2423C30.3995 35.7798 29.5686 36.1598 29.5686 36.867V36.867C29.5686 37.1049 29.6712 37.3313 29.8502 37.4881L35.6902 42.6057C35.8726 42.7655 36.1068 42.8536 36.3493 42.8536L36.5652 42.8536C37.1175 42.8536 37.5652 42.4059 37.5652 41.8536L37.5652 35.3596C37.5652 34.8073 38.0129 34.3596 38.5652 34.3596L39.9796 34.3596C40.3112 34.3596 40.6084 34.5437 40.8764 34.739C41.1279 34.9223 41.4374 35.0305 41.772 35.0305C42.6145 35.0305 43.2975 34.3452 43.2975 33.4998C43.2975 32.6545 42.6145 31.9692 41.772 31.9692C41.4398 31.9692 41.1323 32.0758 40.8818 32.2568C40.6151 32.4494 40.3197 32.6307 39.9907 32.6307L36.9731 32.6307C36.4208 32.6307 35.9731 33.0784 35.9731 33.6307L35.9731 38.4121C35.9731 39.2684 34.9669 39.7286 34.3191 39.1685L30.9345 36.2423ZM42.6195 33.4998C42.6195 33.9695 42.2401 34.3502 41.772 34.3502C41.304 34.3502 40.9246 33.9695 40.9246 33.4998C40.9246 33.0302 41.304 32.6495 41.772 32.6495C42.2401 32.6495 42.6195 33.0302 42.6195 33.4998Z" fill="#CCD7DF" style="mix-blend-mode:multiply"/>
<defs>
<filter id="filter0_i_11721_136244" x="6.19196" y="6.04736" width="58.6161" height="58.6162" filterUnits="userSpaceOnUse" color-interpolation-filters="sRGB">
<feFlood flood-opacity="0" result="BackgroundImageFix"/>
<feBlend mode="normal" in="SourceGraphic" in2="BackgroundImageFix" result="shape"/>
<feColorMatrix in="SourceAlpha" type="matrix" values="0 0 0 0 0 0 0 0 0 0 0 0 0 0 0 0 0 0 127 0" result="hardAlpha"/>
<feOffset/>
<feGaussianBlur stdDeviation="7.5"/>
<feComposite in2="hardAlpha" operator="arithmetic" k2="-1" k3="1"/>
<feColorMatrix type="matrix" values="0 0 0 0 1 0 0 0 0 1 0 0 0 0 1 0 0 0 1 0"/>
<feBlend mode="normal" in2="shape" result="effect1_innerShadow_11721_136244"/>
</filter>
<filter id="filter1_i_11721_136244" x="16.8527" y="16.708" width="37.2945" height="37.2949" filterUnits="userSpaceOnUse" color-interpolation-filters="sRGB">
<feFlood flood-opacity="0" result="BackgroundImageFix"/>
<feBlend mode="normal" in="SourceGraphic" in2="BackgroundImageFix" result="shape"/>
<feColorMatrix in="SourceAlpha" type="matrix" values="0 0 0 0 0 0 0 0 0 0 0 0 0 0 0 0 0 0 127 0" result="hardAlpha"/>
<feOffset/>
<feGaussianBlur stdDeviation="7.5"/>
<feComposite in2="hardAlpha" operator="arithmetic" k2="-1" k3="1"/>
<feColorMatrix type="matrix" values="0 0 0 0 1 0 0 0 0 1 0 0 0 0 1 0 0 0 1 0"/>
<feBlend mode="normal" in2="shape" result="effect1_innerShadow_11721_136244"/>
</filter>
<radialGradient id="paint0_diamond_11721_136244" cx="0" cy="0" r="1" gradientUnits="userSpaceOnUse" gradientTransform="translate(-7.98035 72.0221) rotate(-17.4699) scale(82.1442)">
<stop offset="0.421875" stop-color="#A349EF"/>
<stop offset="1" stop-color="#FF65E6"/>
</radialGradient>
<radialGradient id="paint1_diamond_11721_136244" cx="0" cy="0" r="1" gradientUnits="userSpaceOnUse" gradientTransform="translate(15.6134 46.918) rotate(-26.2587) scale(39.2016 20.7538)">
<stop stop-color="#FF9FEA"/>
<stop offset="1" stop-color="white" stop-opacity="0"/>
</radialGradient>
<linearGradient id="paint2_linear_11721_136244" x1="48.2496" y1="62.3823" x2="0.418255" y2="79.407" gradientUnits="userSpaceOnUse">
<stop stop-color="#7A96AC"/>
<stop offset="0.18" stop-color="#EAEFF3"/>
<stop offset="0.315" stop-color="#C2D4E1"/>
<stop offset="0.491919" stop-color="white"/>
<stop offset="0.615" stop-color="#D4DEE5"/>
<stop offset="0.785" stop-color="#ABBDC8"/>
<stop offset="0.955" stop-color="#BCCAD7"/>
</linearGradient>
<radialGradient id="paint3_diamond_11721_136244" cx="0" cy="0" r="1" gradientUnits="userSpaceOnUse" gradientTransform="translate(8.84891 57.8301) rotate(-17.4699) scale(50.3499)">
<stop offset="0.421875" stop-color="#A349EF"/>
<stop offset="1" stop-color="#FF65E6"/>
</radialGradient>
<radialGradient id="paint4_diamond_11721_136244" cx="0" cy="0" r="1" gradientUnits="userSpaceOnUse" gradientTransform="translate(23.3106 42.4426) rotate(-26.2587) scale(24.0285 12.721)">
<stop stop-color="#FF9FEA"/>
<stop offset="1" stop-color="white" stop-opacity="0"/>
</radialGradient>
<linearGradient id="paint5_linear_11721_136244" x1="14.5953" y1="35.994" x2="42.8163" y2="67.2797" gradientUnits="userSpaceOnUse">
<stop stop-color="#7A96AC"/>
<stop offset="0.18" stop-color="#EAEFF3"/>
<stop offset="0.315" stop-color="#C2D4E1"/>
<stop offset="0.491919" stop-color="white"/>
<stop offset="0.615" stop-color="#D4DEE5"/>
<stop offset="0.785" stop-color="#ABBDC8"/>
<stop offset="0.955" stop-color="#BCCAD7"/>
</linearGradient>
</defs>
</svg>
