<svg width="24" height="25" viewBox="0 0 24 25" fill="none" xmlns="http://www.w3.org/2000/svg">
<path d="M3.71442 2.69461C2.82089 2.87061 2.22521 3.83183 2.45085 4.72536C2.58172 5.24884 3.04653 5.75427 3.52488 5.89416L3.69637 5.94832V7.11713V8.29045H2.18459H0.6683L0.559993 8.40327C0.496815 8.46193 0.447174 8.56121 0.447174 8.61988C0.447174 8.67855 1.00676 9.6172 1.77393 10.8402L3.10068 12.9521L2.98335 13.1372C2.03116 14.6399 0.555481 17.0091 0.501327 17.1174C0.402046 17.325 0.460712 17.4875 0.654762 17.5687C0.785632 17.6229 1.00676 17.6319 1.80552 17.6229C2.7532 17.6093 2.79382 17.6048 2.88858 17.51C3.01043 17.3882 3.01945 17.1716 2.90664 17.0452C2.83443 16.964 2.75771 16.955 2.11239 16.9459L1.39937 16.9324L2.61782 14.9964C3.32632 13.8637 3.83175 13.0153 3.83175 12.9521C3.83175 12.8529 3.54745 12.379 1.93188 9.81125L1.39937 8.96736H2.54561H3.69186L3.7054 9.64428C3.71893 10.267 3.72796 10.3257 3.81822 10.416C3.94006 10.5378 4.15667 10.5468 4.28303 10.434C4.36426 10.3573 4.37329 10.2986 4.37329 9.65782V8.96736L5.77676 8.97639L7.18474 8.98993L8.41673 10.953C9.09816 12.0315 9.65323 12.9296 9.65323 12.9476C9.65323 12.9657 9.09365 13.8727 8.4077 14.9648L7.15767 16.955H5.60979H4.0619L3.97165 17.0723C3.84529 17.2348 3.85432 17.3431 4.00775 17.501L4.13862 17.6319H7.57284H11.0071V18.5074V19.3828L10.7995 19.455C9.90143 19.7619 9.45918 20.836 9.87436 21.7159C10.3753 22.781 11.7607 22.9976 12.5685 22.1356C12.8844 21.7972 13.0107 21.4813 13.0107 21.0165C13.0152 20.678 12.9972 20.5968 12.8708 20.3305C12.6587 19.8838 12.3654 19.6175 11.8555 19.4189L11.684 19.3513V18.4938V17.6319L16.1516 17.6229L20.6193 17.6093L20.7276 17.4965C20.8765 17.3431 23.521 13.1191 23.5435 13.0018C23.5526 12.9476 23.5345 12.8574 23.5029 12.7987C23.3269 12.4648 20.7772 8.43486 20.7005 8.36716C20.6193 8.29947 20.4839 8.29045 19.3061 8.29045H18.0019V7.12615V5.96637L18.2275 5.88514C19.4866 5.43837 19.6987 3.71449 18.5885 2.95635C17.7717 2.39676 16.6751 2.67204 16.1922 3.56106C16.0433 3.83183 16.0388 3.86342 16.0388 4.31921C16.0388 4.75243 16.0478 4.81561 16.1697 5.05479C16.2419 5.1992 16.3998 5.40679 16.5217 5.5196C16.7247 5.70914 17.1354 5.94381 17.2708 5.94381C17.3114 5.94381 17.3249 6.21006 17.3249 7.11713V8.29045H14.2788C11.2914 8.29045 11.2327 8.29045 11.1424 8.3807C11.0071 8.51609 11.0206 8.75526 11.1695 8.87259C11.2869 8.96285 11.3455 8.96736 12.5143 8.96736H13.7418L14.9918 10.9575L16.2419 12.9521L15.037 14.8746C14.3781 15.9306 13.805 16.8331 13.7689 16.8783C13.7057 16.9505 13.6109 16.955 12.7039 16.9459L11.7065 16.9324L11.693 15.9576C11.684 15.0506 11.675 14.9784 11.5937 14.9017C11.4674 14.7888 11.2508 14.7979 11.1289 14.9197C11.0341 15.0145 11.0296 15.0596 11.0161 15.9847L11.0025 16.955H9.49077C8.66493 16.955 7.9835 16.9459 7.9835 16.9369C7.9835 16.9234 8.50247 16.0885 9.13877 15.0731C10.3437 13.1507 10.4204 13.0243 10.4204 12.9296C10.4204 12.898 9.87436 11.9954 9.20195 10.9304L7.9835 8.98993L8.98083 8.96736C9.9601 8.9448 9.97815 8.9448 10.0639 8.83649C10.1812 8.69208 10.1722 8.53414 10.0368 8.40327L9.92851 8.29045H7.14864H4.37329V7.13518V5.98442L4.54477 5.91673C4.91031 5.76329 5.01861 5.70012 5.21266 5.50607C5.32999 5.39325 5.47892 5.18115 5.56015 5.00515C5.6865 4.7389 5.70455 4.65767 5.70004 4.31921C5.70004 3.8228 5.55112 3.47532 5.21266 3.1504C4.7659 2.73522 4.27852 2.5863 3.71442 2.69461ZM4.31913 3.38055C4.46805 3.41665 4.5899 3.49337 4.73882 3.64229C5.14948 4.05295 5.14046 4.63961 4.71626 5.03223C3.98519 5.70463 2.84797 5.01417 3.10971 4.05295C3.18191 3.78219 3.47073 3.47983 3.73699 3.3986C3.99873 3.31737 4.05739 3.31286 4.31913 3.38055ZM18.1643 3.48434C18.2771 3.54752 18.4215 3.68742 18.4892 3.7867C18.5975 3.94916 18.6111 4.01685 18.6111 4.32372C18.6111 4.63961 18.5975 4.69377 18.4757 4.86977C18.3178 5.0954 17.9342 5.31202 17.695 5.31202C17.0858 5.31202 16.6571 4.8472 16.7022 4.23346C16.7563 3.5024 17.5235 3.10978 18.1643 3.48434ZM17.3249 9.62623C17.3249 9.98725 17.343 10.3167 17.3701 10.3618C17.3926 10.4069 17.4694 10.4701 17.5461 10.4972C17.6544 10.5423 17.6995 10.5423 17.8123 10.4837C17.8845 10.4476 17.9567 10.3799 17.9748 10.3438C17.9883 10.3031 18.0019 9.97371 18.0019 9.6172V8.96736H19.1662L20.3259 8.97188L21.5444 10.9169C22.2168 11.9909 22.7673 12.898 22.7719 12.9341C22.7809 12.9747 22.2303 13.8908 21.5489 14.9694L20.3169 16.9324L17.4378 16.9459C14.8474 16.955 14.5631 16.9505 14.5902 16.8873C14.6037 16.8467 15.1453 15.9757 15.7906 14.9468C16.5848 13.6787 16.9639 13.0379 16.9639 12.9521C16.9639 12.8709 16.5803 12.2166 15.768 10.9214C15.1092 9.87443 14.5722 9.00347 14.5722 8.98993C14.5722 8.97639 15.1904 8.96736 15.9485 8.96736H17.3249V9.62623ZM11.7517 20.1094C12.0766 20.2583 12.3609 20.66 12.3609 20.9849C12.3609 21.4136 12.0134 21.8649 11.6027 21.9641C11.2462 22.0454 10.9619 21.9641 10.6912 21.6979C10.443 21.4632 10.3482 21.206 10.3933 20.8901C10.4791 20.2448 11.174 19.8431 11.7517 20.1094Z" fill="#74BC1F"/>
</svg>
