<svg width="45" height="44" viewBox="0 0 45 44" fill="none" xmlns="http://www.w3.org/2000/svg">
<path d="M40.5415 17.1875C40.7238 17.1875 40.8987 17.1151 41.0276 16.9861C41.1566 16.8572 41.229 16.6823 41.229 16.5V11C41.229 10.453 41.0117 9.92839 40.6249 9.54159C40.2381 9.1548 39.7135 8.9375 39.1665 8.9375H6.1665C5.61949 8.9375 5.09489 9.1548 4.7081 9.54159C4.3213 9.92839 4.104 10.453 4.104 11V16.5C4.104 16.6823 4.17644 16.8572 4.30537 16.9861C4.4343 17.1151 4.60917 17.1875 4.7915 17.1875C6.06786 17.1875 7.29194 17.6945 8.19446 18.597C9.09697 19.4996 9.604 20.7236 9.604 22C9.604 23.2764 9.09697 24.5004 8.19446 25.403C7.29194 26.3055 6.06786 26.8125 4.7915 26.8125C4.60917 26.8125 4.4343 26.8849 4.30537 27.0139C4.17644 27.1428 4.104 27.3177 4.104 27.5V33C4.104 33.547 4.3213 34.0716 4.7081 34.4584C5.09489 34.8452 5.61949 35.0625 6.1665 35.0625H39.1665C39.7135 35.0625 40.2381 34.8452 40.6249 34.4584C41.0117 34.0716 41.229 33.547 41.229 33V27.5C41.229 27.3177 41.1566 27.1428 41.0276 27.0139C40.8987 26.8849 40.7238 26.8125 40.5415 26.8125C39.2651 26.8125 38.0411 26.3055 37.1386 25.403C36.236 24.5004 35.729 23.2764 35.729 22C35.729 20.7236 36.236 19.4996 37.1386 18.597C38.0411 17.6945 39.2651 17.1875 40.5415 17.1875ZM5.479 33V28.1497C6.99246 27.9816 8.39079 27.2613 9.40638 26.1267C10.422 24.9921 10.9835 23.5228 10.9835 22C10.9835 20.4772 10.422 19.0079 9.40638 17.8733C8.39079 16.7387 6.99246 16.0184 5.479 15.8503V11C5.479 10.8177 5.55144 10.6428 5.68037 10.5139C5.8093 10.3849 5.98417 10.3125 6.1665 10.3125H16.479V33.6875H6.1665C5.98417 33.6875 5.8093 33.6151 5.68037 33.4861C5.55144 33.3572 5.479 33.1823 5.479 33ZM34.354 22C34.3561 23.5214 34.9178 24.9889 35.9321 26.123C36.9463 27.257 38.3422 27.9784 39.854 28.1497V33C39.854 33.1823 39.7816 33.3572 39.6526 33.4861C39.5237 33.6151 39.3488 33.6875 39.1665 33.6875H17.854V10.3125H39.1665C39.3488 10.3125 39.5237 10.3849 39.6526 10.5139C39.7816 10.6428 39.854 10.8177 39.854 11V15.8503C38.3422 16.0216 36.9463 16.743 35.9321 17.877C34.9178 19.0111 34.3561 20.4786 34.354 22Z" fill="white"/>
<path d="M27.5763 19.4842C27.5763 20.1872 28.1459 20.7544 28.847 20.7544C29.5481 20.7544 30.1177 20.185 30.1177 19.4842C30.1177 18.7834 29.5481 18.2141 28.847 18.2141C28.1459 18.2141 27.5763 18.7813 27.5763 19.4842Z" fill="#76BC21"/>
<path d="M22.4758 19.4182C22.4758 20.1198 23.0456 20.6894 23.7455 20.6894C24.4474 20.6894 25.0172 20.1218 25.0172 19.4182C25.0172 18.7166 24.4474 18.149 23.7455 18.149C23.0456 18.1471 22.4758 18.7166 22.4758 19.4182Z" fill="#98989A"/>
<path d="M27.6433 24.5778C27.6433 25.2794 28.2131 25.8489 28.915 25.8489C29.6169 25.8489 30.1867 25.2794 30.1867 24.5778C30.1867 23.8762 29.6169 23.3066 28.915 23.3066C28.2131 23.3066 27.6433 23.8762 27.6433 24.5778Z" fill="#98989A"/>
<path d="M22.4758 24.5778C22.4758 25.2794 23.0456 25.8489 23.7455 25.8489C24.4474 25.8489 25.0172 25.2794 25.0172 24.5778C25.0172 23.8762 24.4474 23.3066 23.7455 23.3066C23.0456 23.3066 22.4758 23.8762 22.4758 24.5778Z" fill="#76BC21"/>
<path d="M20.8887 20.1021C21.6438 20.1021 22.2944 20.5455 22.598 21.1841C22.6887 21.3378 22.8721 21.5762 23.1422 21.5762V21.5782H24.0708V21.5762C24.4592 21.5762 24.6662 21.0855 24.68 21.0619V21.0737C24.7195 21.0047 24.7628 20.9377 24.8102 20.8746C24.8141 20.8707 24.8161 20.8648 24.82 20.8608C24.8397 20.8352 24.8595 20.8096 24.8792 20.7859C24.8871 20.7761 24.8949 20.7662 24.9028 20.7584C24.9186 20.7406 24.9363 20.7209 24.9541 20.7032C24.9679 20.6894 24.9817 20.6756 24.9955 20.6618C25.0073 20.65 25.0211 20.6381 25.033 20.6243C25.0527 20.6066 25.0724 20.5889 25.0921 20.5711C25.1 20.5652 25.1079 20.5573 25.1158 20.5514C25.1414 20.5297 25.167 20.5081 25.1946 20.4884L25.2025 20.4824C25.2656 20.4351 25.3326 20.3898 25.4036 20.3504H25.3977C25.4016 20.3484 25.4194 20.3405 25.443 20.3287L25.445 20.3268C25.4568 20.3208 25.4687 20.3149 25.4805 20.309C25.6264 20.2282 25.9123 20.039 25.9123 19.7414H25.9143V18.8132H25.9123C25.9123 18.5254 25.6402 18.3362 25.4904 18.2515C25.4687 18.2417 25.447 18.2298 25.4273 18.218C25.4115 18.2101 25.3977 18.2042 25.3977 18.2042H25.4016C24.8259 17.879 24.4375 17.2641 24.4375 16.5586C24.4375 15.5141 25.2853 14.6666 26.3303 14.6666C27.3752 14.6666 28.223 15.5141 28.223 16.5586C28.223 17.2661 27.8346 17.881 27.2589 18.2042H27.2628C27.2628 18.2042 27.253 18.2101 27.2431 18.2141C27.2175 18.2279 27.1899 18.2417 27.1642 18.2554C27.0144 18.3402 26.7482 18.5274 26.7482 18.8132V19.7414C26.7482 20.0311 27.0203 20.2203 27.1702 20.3031C27.1899 20.313 27.2116 20.3248 27.2313 20.3346C27.249 20.3425 27.2609 20.3484 27.2648 20.3504H27.2609C27.3299 20.3898 27.3969 20.4332 27.462 20.4805C27.4659 20.4824 27.4679 20.4844 27.4718 20.4884C27.4974 20.5081 27.5231 20.5297 27.5487 20.5514C27.5566 20.5573 27.5645 20.5652 27.5743 20.5731C27.594 20.5908 27.6138 20.6086 27.6315 20.6263C27.6453 20.6381 27.6571 20.6519 27.6709 20.6638C27.6847 20.6776 27.6966 20.6894 27.7104 20.7032C27.7281 20.7209 27.7459 20.7406 27.7616 20.7603C27.7695 20.7682 27.7754 20.7781 27.7833 20.7859C27.805 20.8116 27.8247 20.8372 27.8444 20.8628C27.8464 20.8668 27.8504 20.8707 27.8523 20.8746C27.8996 20.9377 27.943 21.0047 27.9825 21.0737V21.0678C27.9844 21.0717 27.9923 21.0895 28.0041 21.1131L28.0081 21.119C28.014 21.1289 28.0199 21.1407 28.0239 21.1505C28.1047 21.2964 28.294 21.5822 28.5897 21.5822V21.5841H29.5183V21.5822C29.8081 21.5822 29.9954 21.3102 30.0802 21.1604C30.0901 21.1387 30.1019 21.117 30.1137 21.0973C30.1216 21.0816 30.1275 21.0678 30.1275 21.0678V21.0717C30.4529 20.4962 31.068 20.108 31.7738 20.108C32.8188 20.108 33.6665 20.9554 33.6665 22C33.6665 23.0445 32.8188 23.8919 31.7738 23.8919C31.066 23.8919 30.4509 23.5037 30.1275 22.9282V22.9321C30.1275 22.9321 30.1216 22.9223 30.1177 22.9124C30.1039 22.8868 30.0901 22.8592 30.0763 22.8336C29.9915 22.6838 29.8042 22.4178 29.5183 22.4178H28.5897C28.2999 22.4178 28.1106 22.6917 28.0278 22.8395C28.0179 22.8592 28.0061 22.8789 27.9963 22.8986C27.9884 22.9164 27.9825 22.9282 27.9805 22.9321V22.9282C27.941 22.9992 27.8977 23.0662 27.8484 23.1292C27.8464 23.1332 27.8425 23.1371 27.8425 23.1371C27.8228 23.1647 27.8011 23.1903 27.7794 23.2159C27.7735 23.2238 27.7656 23.2317 27.7597 23.2396C27.7419 23.2593 27.7242 23.281 27.7045 23.2987C27.6926 23.3105 27.6808 23.3243 27.669 23.3362C27.6552 23.35 27.6394 23.3638 27.6256 23.3775C27.6079 23.3933 27.5901 23.4111 27.5724 23.4268C27.5625 23.4347 27.5526 23.4446 27.5428 23.4524C27.5191 23.4721 27.4955 23.4919 27.4698 23.5116C27.4639 23.5155 27.46 23.5194 27.4541 23.5234C27.4245 23.5451 27.3929 23.5667 27.3614 23.5884L27.3594 23.5904C27.3259 23.6121 27.2904 23.6338 27.2549 23.6535H27.2648C27.2411 23.6673 26.7482 23.8742 26.7482 24.2624V25.1907C26.7482 25.4587 26.9829 25.64 27.1347 25.7307C27.7774 26.0322 28.225 26.6845 28.225 27.4413C28.225 28.4859 27.3772 29.3333 26.3322 29.3333C25.2873 29.3333 24.4395 28.4859 24.4395 27.4413C24.4395 26.6865 24.8831 26.0362 25.5219 25.7326C25.6737 25.642 25.9143 25.4587 25.9143 25.1887H25.9162V24.2605H25.9143C25.9143 23.8722 25.4233 23.6653 25.3997 23.6515H25.4115C25.3425 23.6121 25.2755 23.5687 25.2104 23.5214C25.2065 23.5175 25.2005 23.5155 25.1966 23.5116C25.171 23.4919 25.1453 23.4721 25.1217 23.4505C25.1118 23.4426 25.1039 23.4347 25.0941 23.4268C25.0744 23.4091 25.0566 23.3933 25.0369 23.3756C25.0231 23.3618 25.0093 23.35 24.9955 23.3362C24.9817 23.3224 24.9699 23.3105 24.958 23.2967C24.9403 23.277 24.9225 23.2573 24.9048 23.2376C24.8969 23.2297 24.889 23.2199 24.8831 23.212C24.8614 23.1864 24.8417 23.1608 24.822 23.1351C24.8181 23.1312 24.8161 23.1273 24.8121 23.1233C24.7648 23.0583 24.7214 22.9913 24.682 22.9223V22.9321C24.6682 22.9085 24.4612 22.4178 24.0728 22.4178H23.1442C22.876 22.4178 22.6946 22.6503 22.604 22.804C22.3023 23.4465 21.6497 23.8939 20.8926 23.8939C19.8477 23.8939 18.9999 23.0465 18.9999 22.0019C18.9959 20.9495 19.8437 20.1021 20.8887 20.1021ZM31.7738 23.0346C32.3495 23.0346 32.8148 22.5695 32.8148 21.994C32.8148 21.4186 32.3495 20.9535 31.7738 20.9535C31.1981 20.9535 30.7328 21.4186 30.7328 21.994C30.7328 22.5695 31.1981 23.0346 31.7738 23.0346ZM27.3713 16.5546C27.3713 15.9792 26.906 15.5141 26.3303 15.5141C25.7546 15.5141 25.2893 15.9792 25.2893 16.5546C25.2893 17.1301 25.7546 17.5952 26.3303 17.5952C26.906 17.5952 27.3713 17.1282 27.3713 16.5546ZM25.2893 27.4354C25.2893 28.0109 25.7546 28.476 26.3303 28.476C26.906 28.476 27.3713 28.0109 27.3713 27.4354C27.3713 26.8599 26.906 26.3948 26.3303 26.3948C25.7565 26.3948 25.2893 26.8599 25.2893 27.4354ZM26.3303 23.0346C26.906 23.0346 27.3713 22.5695 27.3713 21.994C27.3713 21.4186 26.906 20.9535 26.3303 20.9535C25.7546 20.9535 25.2893 21.4186 25.2893 21.994C25.2893 22.5695 25.7565 23.0346 26.3303 23.0346ZM20.8887 23.0346C21.4644 23.0346 21.9297 22.5695 21.9297 21.994C21.9297 21.4186 21.4644 20.9535 20.8887 20.9535C20.313 20.9535 19.8477 21.4186 19.8477 21.994C19.8477 22.5695 20.313 23.0346 20.8887 23.0346Z" fill="#76BC21"/>
</svg>
