<svg width="100" height="99" viewBox="0 0 100 99" fill="none" xmlns="http://www.w3.org/2000/svg">
<g filter="url(#filter0_i_10275_215581)">
<g clip-path="url(#paint0_diamond_10275_215581_clip_path)" data-figma-skip-parse="true"><g transform="matrix(0.0531555 -0.10198 0.10198 0.0531555 28.5088 93.844)"><rect x="0" y="0" width="835.496" height="422.621" fill="url(#paint0_diamond_10275_215581)" opacity="1" shape-rendering="crispEdges"/><rect x="0" y="0" width="835.496" height="422.621" transform="scale(1 -1)" fill="url(#paint0_diamond_10275_215581)" opacity="1" shape-rendering="crispEdges"/><rect x="0" y="0" width="835.496" height="422.621" transform="scale(-1 1)" fill="url(#paint0_diamond_10275_215581)" opacity="1" shape-rendering="crispEdges"/><rect x="0" y="0" width="835.496" height="422.621" transform="scale(-1)" fill="url(#paint0_diamond_10275_215581)" opacity="1" shape-rendering="crispEdges"/></g></g><rect x="0.253967" y="49.5026" width="70" height="70" rx="14.5995" transform="rotate(-45 0.253967 49.5026)" data-figma-gradient-fill="{&#34;type&#34;:&#34;GRADIENT_DIAMOND&#34;,&#34;stops&#34;:[{&#34;color&#34;:{&#34;r&#34;:0.63921570777893066,&#34;g&#34;:0.28627452254295349,&#34;b&#34;:0.93725490570068359,&#34;a&#34;:1.0},&#34;position&#34;:0.4218750},{&#34;color&#34;:{&#34;r&#34;:1.0,&#34;g&#34;:0.39550781250,&#34;b&#34;:0.90328133106231689,&#34;a&#34;:1.0},&#34;position&#34;:1.0}],&#34;stopsVar&#34;:[],&#34;transform&#34;:{&#34;m00&#34;:106.31099700927734,&#34;m01&#34;:203.96000671386719,&#34;m02&#34;:-126.62671661376953,&#34;m10&#34;:-203.96000671386719,&#34;m11&#34;:106.31099700927734,&#34;m12&#34;:142.66854858398438},&#34;opacity&#34;:1.0,&#34;blendMode&#34;:&#34;NORMAL&#34;,&#34;visible&#34;:true}"/>
<g clip-path="url(#paint1_diamond_10275_215581_clip_path)" data-figma-skip-parse="true"><g transform="matrix(0.0176335 -0.0519724 0.0275148 0.00933537 27.0135 45.6356)"><rect x="0" y="0" width="979.831" height="2509.23" fill="url(#paint1_diamond_10275_215581)" opacity="1" shape-rendering="crispEdges"/><rect x="0" y="0" width="979.831" height="2509.23" transform="scale(1 -1)" fill="url(#paint1_diamond_10275_215581)" opacity="1" shape-rendering="crispEdges"/><rect x="0" y="0" width="979.831" height="2509.23" transform="scale(-1 1)" fill="url(#paint1_diamond_10275_215581)" opacity="1" shape-rendering="crispEdges"/><rect x="0" y="0" width="979.831" height="2509.23" transform="scale(-1)" fill="url(#paint1_diamond_10275_215581)" opacity="1" shape-rendering="crispEdges"/></g></g><rect x="0.253967" y="49.5026" width="70" height="70" rx="14.5995" transform="rotate(-45 0.253967 49.5026)" data-figma-gradient-fill="{&#34;type&#34;:&#34;GRADIENT_DIAMOND&#34;,&#34;stops&#34;:[{&#34;color&#34;:{&#34;r&#34;:1.0,&#34;g&#34;:0.6250,&#34;b&#34;:0.91750001907348633,&#34;a&#34;:1.0},&#34;position&#34;:0.0},{&#34;color&#34;:{&#34;r&#34;:1.0,&#34;g&#34;:1.0,&#34;b&#34;:1.0,&#34;a&#34;:0.0},&#34;position&#34;:1.0}],&#34;stopsVar&#34;:[],&#34;transform&#34;:{&#34;m00&#34;:35.266941070556641,&#34;m01&#34;:55.029582977294922,&#34;m02&#34;:-18.134721755981445,&#34;m10&#34;:-103.94470977783203,&#34;m11&#34;:18.670745849609375,&#34;m12&#34;:88.272552490234375},&#34;opacity&#34;:1.0,&#34;blendMode&#34;:&#34;NORMAL&#34;,&#34;visible&#34;:true}"/>
<rect x="0.253967" y="49.5026" width="70" height="70" rx="14.5995" transform="rotate(-45 0.253967 49.5026)" fill="url(#paint2_linear_10275_215581)"/>
<rect x="0.253967" y="49.5026" width="70" height="70" rx="14.5995" transform="rotate(-45 0.253967 49.5026)" fill="url(#paint3_linear_10275_215581)"/>
<rect x="0.253967" y="49.5026" width="70" height="70" rx="14.5995" transform="rotate(-45 0.253967 49.5026)" fill="url(#paint4_linear_10275_215581)"/>
</g>
<rect x="7.75151" y="49.5026" width="59.397" height="59.397" rx="9.73298" transform="rotate(-45 7.75151 49.5026)" fill="black" fill-opacity="0.2"/>
<g filter="url(#filter1_i_10275_215581)">
<rect x="19.412" y="49.5026" width="42.9062" height="42.9062" rx="7.29973" transform="rotate(-45 19.412 49.5026)" fill="url(#paint5_linear_10275_215581)"/>
</g>
<path fill-rule="evenodd" clip-rule="evenodd" d="M44.7645 44.2857C45.301 44.2857 45.7913 44.0872 46.1665 43.7594C46.4122 43.5446 46.7079 43.3728 47.0343 43.3728H58.3113C59.4257 43.443 61.6749 44.2147 61.756 46.7403C61.835 49.2025 59.6737 50.2645 58.5012 50.5113C58.442 50.5238 58.3822 50.5288 58.3217 50.5288H55.9679C55.4156 50.5288 54.9679 50.9765 54.9679 51.5288V51.844C54.9679 52.3963 55.4156 52.844 55.9679 52.844H58.4126C60.0336 52.844 63.9849 51.7916 63.9849 46.7403C63.9849 42.9528 61.0182 41.3963 59.2557 41.0137C59.033 40.9654 58.8048 40.9524 58.5771 40.9524H47.0755C46.7412 40.9524 46.4398 40.7725 46.1916 40.5486C45.8134 40.2075 45.3131 40 44.7645 40C43.5851 40 42.6289 40.9594 42.6289 42.1429C42.6289 43.3263 43.5851 44.2857 44.7645 44.2857ZM44.7645 43.3333C45.4198 43.3333 45.951 42.8004 45.951 42.1429C45.951 41.4854 45.4198 40.9524 44.7645 40.9524C44.1093 40.9524 43.5781 41.4854 43.5781 42.1429C43.5781 42.8004 44.1093 43.3333 44.7645 43.3333Z" fill="#CAA47D" style="mix-blend-mode:multiply"/>
<path fill-rule="evenodd" clip-rule="evenodd" d="M40.9213 45.5536C40.2743 44.9897 39.2642 45.4493 39.2642 46.3075V55.4988C39.2642 55.8404 39.4518 56.1472 39.6841 56.3977C40.039 56.7803 40.256 57.2933 40.256 57.8571C40.256 59.0406 39.2999 60 38.1205 60C36.941 60 35.9849 59.0406 35.9849 57.8571C35.9849 57.3061 36.1922 56.8036 36.5328 56.4239C36.7553 56.176 36.934 55.8753 36.934 55.5422V41.9524C36.934 41.4001 37.3817 40.9524 37.934 40.9524H38.8896C39.1312 40.9524 39.3646 41.0398 39.5467 41.1985L47.7356 48.3356C47.9535 48.5256 48.0786 48.8005 48.0786 49.0895V49.5936C48.0786 50.4518 47.0685 50.9113 46.4215 50.3474L40.9213 45.5536ZM38.1205 59.0476C38.7757 59.0476 39.3069 58.5146 39.3069 57.8571C39.3069 57.1997 38.7757 56.6667 38.1205 56.6667C37.4652 56.6667 36.934 57.1997 36.934 57.8571C36.934 58.5146 37.4652 59.0476 38.1205 59.0476Z" fill="#CAA47D" style="mix-blend-mode:multiply"/>
<path fill-rule="evenodd" clip-rule="evenodd" d="M43.0965 50.521C42.4487 49.961 41.4425 50.4212 41.4425 51.2775V51.6895C41.4425 51.9776 41.5668 52.2517 41.7834 52.4416L50.1259 59.7521C50.3082 59.9119 50.5425 60 50.7849 60H51.6377C52.19 60 52.6377 59.5523 52.6377 59V49.1084C52.6377 48.5561 53.0854 48.1084 53.6377 48.1084H56.2299C56.5615 48.1084 56.861 48.2856 57.1085 48.5064C57.4857 48.8431 57.9827 49.0476 58.5272 49.0476C59.7067 49.0476 60.6628 48.0882 60.6628 46.9048C60.6628 45.7213 59.7067 44.7619 58.5272 44.7619C57.9867 44.7619 57.493 44.9634 57.1168 45.2957C56.8702 45.5135 56.5726 45.688 56.2436 45.688H51.4088C50.8565 45.688 50.4088 46.1357 50.4088 46.688V54.6565C50.4088 55.5128 49.4026 55.973 48.7548 55.4129L43.0965 50.521ZM59.7137 46.9048C59.7137 47.5623 59.1825 48.0952 58.5272 48.0952C57.872 48.0952 57.3408 47.5623 57.3408 46.9048C57.3408 46.2473 57.872 45.7143 58.5272 45.7143C59.1825 45.7143 59.7137 46.2473 59.7137 46.9048Z" fill="#CAA47D" style="mix-blend-mode:multiply"/>
<defs>
<filter id="filter0_i_10275_215581" x="6.30127" y="6.05237" width="86.9004" height="86.9004" filterUnits="userSpaceOnUse" color-interpolation-filters="sRGB">
<feFlood flood-opacity="0" result="BackgroundImageFix"/>
<feBlend mode="normal" in="SourceGraphic" in2="BackgroundImageFix" result="shape"/>
<feColorMatrix in="SourceAlpha" type="matrix" values="0 0 0 0 0 0 0 0 0 0 0 0 0 0 0 0 0 0 127 0" result="hardAlpha"/>
<feOffset/>
<feGaussianBlur stdDeviation="4.125"/>
<feComposite in2="hardAlpha" operator="arithmetic" k2="-1" k3="1"/>
<feColorMatrix type="matrix" values="0 0 0 0 1 0 0 0 0 1 0 0 0 0 1 0 0 0 0.7 0"/>
<feBlend mode="normal" in2="shape" result="effect1_innerShadow_10275_215581"/>
</filter>
<clipPath id="paint0_diamond_10275_215581_clip_path"><rect x="0.253967" y="49.5026" width="70" height="70" rx="14.5995" transform="rotate(-45 0.253967 49.5026)"/></clipPath><clipPath id="paint1_diamond_10275_215581_clip_path"><rect x="0.253967" y="49.5026" width="70" height="70" rx="14.5995" transform="rotate(-45 0.253967 49.5026)"/></clipPath><filter id="filter1_i_10275_215581" x="22.4357" y="22.187" width="54.6312" height="54.6312" filterUnits="userSpaceOnUse" color-interpolation-filters="sRGB">
<feFlood flood-opacity="0" result="BackgroundImageFix"/>
<feBlend mode="normal" in="SourceGraphic" in2="BackgroundImageFix" result="shape"/>
<feColorMatrix in="SourceAlpha" type="matrix" values="0 0 0 0 0 0 0 0 0 0 0 0 0 0 0 0 0 0 127 0" result="hardAlpha"/>
<feOffset/>
<feGaussianBlur stdDeviation="4.125"/>
<feComposite in2="hardAlpha" operator="arithmetic" k2="-1" k3="1"/>
<feColorMatrix type="matrix" values="0 0 0 0 1 0 0 0 0 1 0 0 0 0 1 0 0 0 0.7 0"/>
<feBlend mode="normal" in2="shape" result="effect1_innerShadow_10275_215581"/>
</filter>
<linearGradient id="paint0_diamond_10275_215581" x1="0" y1="0" x2="500" y2="500" gradientUnits="userSpaceOnUse">
<stop offset="0.421875" stop-color="#A349EF"/>
<stop offset="1" stop-color="#FF65E6"/>
</linearGradient>
<linearGradient id="paint1_diamond_10275_215581" x1="0" y1="0" x2="500" y2="500" gradientUnits="userSpaceOnUse">
<stop stop-color="#FF9FEA"/>
<stop offset="1" stop-color="white" stop-opacity="0"/>
</linearGradient>
<linearGradient id="paint2_linear_10275_215581" x1="2.00397" y1="50.9609" x2="66.4623" y2="122.419" gradientUnits="userSpaceOnUse">
<stop stop-color="#7A96AC"/>
<stop offset="0.18" stop-color="#EAEFF3"/>
<stop offset="0.315" stop-color="#C2D4E1"/>
<stop offset="0.491919" stop-color="white"/>
<stop offset="0.615" stop-color="#D4DEE5"/>
<stop offset="0.785" stop-color="#ABBDC8"/>
<stop offset="0.955" stop-color="#BCCAD7"/>
</linearGradient>
<linearGradient id="paint3_linear_10275_215581" x1="9.5873" y1="61.7526" x2="63.8373" y2="116.586" gradientUnits="userSpaceOnUse">
<stop stop-color="#9E8976"/>
<stop offset="0.195" stop-color="#9D774E"/>
<stop offset="0.41" stop-color="#F6D0AB"/>
<stop offset="0.61" stop-color="#9D774E"/>
<stop offset="0.855" stop-color="#C99B70"/>
<stop offset="1" stop-color="#9D774E"/>
</linearGradient>
<linearGradient id="paint4_linear_10275_215581" x1="69.8709" y1="78.2603" x2="5.74446" y2="109.472" gradientUnits="userSpaceOnUse">
<stop stop-color="#C99B70"/>
<stop offset="0.195" stop-color="#DFB287"/>
<stop offset="0.41" stop-color="#F8CBA1"/>
<stop offset="0.61" stop-color="#9D774E"/>
<stop offset="0.855" stop-color="#DFB287"/>
<stop offset="1" stop-color="#C99B70"/>
</linearGradient>
<linearGradient id="paint5_linear_10275_215581" x1="22.7055" y1="52.7962" x2="44.2701" y2="95.9254" gradientUnits="userSpaceOnUse">
<stop stop-color="#DFB287"/>
<stop offset="0.195" stop-color="#DFB287"/>
<stop offset="0.41" stop-color="#F6D0AB"/>
<stop offset="0.61" stop-color="#DFB287"/>
<stop offset="0.855" stop-color="#C99B70"/>
<stop offset="1" stop-color="#DFB287"/>
</linearGradient>
</defs>
</svg>
