<svg width="26" height="26" viewBox="0 0 26 26" fill="none" xmlns="http://www.w3.org/2000/svg">
<g id="Group">
<path id="Vector" d="M18.9234 2.31549L18.9234 2.31558C18.2395 2.99703 17.797 3.44565 17.5255 3.73533C17.3897 3.88035 17.2978 3.98432 17.2402 4.05714C17.2113 4.09367 17.1923 4.12084 17.1808 4.14045C17.1738 4.15234 17.1712 4.15892 17.1702 4.16136C17.1704 4.16317 17.1708 4.1659 17.1713 4.16973C17.1726 4.17814 17.1746 4.18945 17.1773 4.20375C17.1828 4.23229 17.191 4.27092 17.2017 4.31873C17.2231 4.41424 17.2541 4.54469 17.2925 4.70079C17.3693 5.01291 17.4754 5.42645 17.5926 5.86573L17.5926 5.86582L18.0176 7.46794L18.0274 7.50504L18.0003 7.53218L14.3759 11.1565C12.7125 12.82 11.8071 13.7291 11.3174 14.2407C11.0722 14.4968 10.9331 14.6515 10.8555 14.7505C10.7755 14.8525 10.7711 14.8833 10.7711 14.8949C10.7711 15.073 10.9269 15.2287 11.105 15.2287C11.1166 15.2287 11.1474 15.2244 11.2494 15.1444C11.3484 15.0668 11.503 14.9277 11.7592 14.6825C12.2708 14.1928 13.1799 13.2874 14.8434 11.6239L18.4677 7.99962L18.4948 7.97248L18.5319 7.98232L20.1341 8.40727L20.1341 8.4073C20.5734 8.52444 20.987 8.63057 21.2991 8.70738C21.4552 8.74579 21.5856 8.77681 21.6811 8.79818C21.729 8.80888 21.7676 8.81707 21.7961 8.82255C21.8104 8.8253 21.8217 8.82728 21.8302 8.82855C21.834 8.82912 21.8367 8.82947 21.8385 8.82968C21.841 8.82873 21.8475 8.82607 21.8594 8.81909C21.879 8.80758 21.9062 8.78853 21.9427 8.75965C22.0156 8.70208 22.1195 8.61022 22.2645 8.47435C22.5542 8.20293 23.0028 7.76042 23.6843 7.07652L23.6844 7.07644L23.7307 7.03017C24.6569 6.10397 25.1142 5.64665 25.3139 5.38847C25.4171 5.25503 25.438 5.19077 25.4358 5.15268C25.4348 5.1353 25.4286 5.11815 25.4141 5.096C25.3993 5.07353 25.3792 5.05034 25.3516 5.01866L25.3474 5.01387C25.3119 4.9751 25.2416 4.93175 24.9975 4.85282C24.756 4.77473 24.3573 4.6653 23.6803 4.4869L23.6801 4.48682C23.2426 4.3695 22.8391 4.25703 22.5412 4.17016C22.3923 4.12674 22.2694 4.08961 22.1816 4.06141C22.1378 4.04733 22.1021 4.03527 22.0761 4.02563C22.0631 4.02085 22.0517 4.01633 22.0425 4.0122C22.0379 4.01016 22.0331 4.00782 22.0285 4.00525C22.0252 4.00341 22.0168 3.99866 22.009 3.99089C22.0012 3.98312 21.9965 3.97472 21.9946 3.97143C21.9921 3.96681 21.9897 3.96194 21.9877 3.95738C21.9835 3.94818 21.979 3.93674 21.9742 3.92382C21.9646 3.89779 21.9525 3.86208 21.9385 3.81829C21.9103 3.73052 21.8731 3.60758 21.8297 3.45869C21.7428 3.16076 21.6304 2.75731 21.5131 2.31981L21.513 2.31953C21.3346 1.64257 21.2252 1.24393 21.1471 1.00239C21.0678 0.757233 21.0244 0.687404 20.9855 0.652053L20.9812 0.648315C20.9495 0.620728 20.9263 0.60053 20.9039 0.585803C20.8817 0.571283 20.8646 0.565125 20.8472 0.564105C20.8091 0.561872 20.7449 0.582774 20.6114 0.685986C20.3532 0.885679 19.8959 1.343 18.9697 2.26922L18.9234 2.31549ZM21.6824 8.15026L20.2318 7.76442C20.2318 7.76441 20.2318 7.7644 20.2318 7.76439C19.8333 7.65926 19.4639 7.55652 19.1902 7.47571C19.0534 7.43532 18.94 7.40026 18.8587 7.37302C18.8182 7.35944 18.7847 7.34753 18.7601 7.33767C18.7479 7.33279 18.7367 7.32799 18.7275 7.32338C18.723 7.32109 18.7179 7.31839 18.7131 7.3153C18.7099 7.31323 18.7036 7.30903 18.6973 7.30262C18.6908 7.29631 18.6867 7.29001 18.6846 7.28677C18.6815 7.28194 18.6788 7.27692 18.6765 7.27235C18.6719 7.26316 18.6671 7.25202 18.6622 7.23979C18.6524 7.21513 18.6404 7.18171 18.6269 7.14116C18.5996 7.05984 18.5646 6.94646 18.5242 6.8097C18.4434 6.53602 18.3406 6.16663 18.2355 5.76812C18.2355 5.76809 18.2355 5.76806 18.2355 5.76803L17.8496 4.31745L17.8397 4.28034L17.8669 4.25318L19.1857 2.93435C19.5473 2.57282 19.8784 2.24416 20.1216 2.00581C20.2432 1.88668 20.343 1.7899 20.4138 1.72281C20.4491 1.68933 20.4776 1.66286 20.4981 1.6446C20.5082 1.63557 20.5171 1.6279 20.5242 1.62224C20.5276 1.61952 20.5317 1.61637 20.5359 1.61359C20.538 1.61226 20.5413 1.61012 20.5455 1.60808C20.547 1.60733 20.5594 1.60089 20.5761 1.60089C20.6042 1.60089 20.6211 1.61791 20.6238 1.62059C20.6292 1.6259 20.6326 1.63105 20.6341 1.63345C20.6375 1.63872 20.64 1.64397 20.6415 1.64728C20.6448 1.65457 20.6483 1.66374 20.6518 1.67355C20.6591 1.69367 20.6685 1.72239 20.6797 1.75819C20.7021 1.83009 20.7327 1.93356 20.769 2.06074C20.8418 2.31524 20.9384 2.66612 21.0411 3.05229C21.1607 3.49645 21.2617 3.85445 21.3401 4.10783C21.3794 4.23466 21.4126 4.33433 21.4394 4.40515C21.4529 4.44065 21.4643 4.4678 21.4737 4.48707C21.4813 4.50282 21.4857 4.50921 21.4866 4.5106L21.4892 4.51343C21.489 4.51328 21.489 4.51319 21.489 4.51317C21.4891 4.51301 21.4949 4.5175 21.5128 4.52619C21.5321 4.53556 21.5592 4.54698 21.5947 4.56043C21.6655 4.58726 21.7652 4.62052 21.8921 4.65975C22.1454 4.73813 22.5034 4.83922 22.9476 4.9588C23.3338 5.06145 23.6846 5.15804 23.9391 5.23084C24.0663 5.26721 24.1698 5.29776 24.2417 5.32021C24.2775 5.33139 24.3062 5.34079 24.3263 5.34803C24.3361 5.35156 24.3453 5.35508 24.3526 5.35839C24.3559 5.35989 24.3612 5.36238 24.3664 5.36575C24.3688 5.36729 24.374 5.37072 24.3793 5.3761L24.3794 5.37621C24.3824 5.37924 24.399 5.396 24.399 5.42376C24.399 5.44049 24.3925 5.45283 24.3918 5.45436C24.3898 5.45854 24.3876 5.46192 24.3863 5.46395C24.3835 5.46817 24.3804 5.47228 24.3776 5.47569C24.372 5.48279 24.3643 5.49167 24.3553 5.5018C24.337 5.52229 24.3105 5.55077 24.2771 5.58609C24.21 5.65687 24.1132 5.7567 23.9941 5.87828C23.7557 6.12151 23.4271 6.45262 23.0655 6.81415L21.7467 8.13297L21.7195 8.16013L21.6824 8.15026Z" fill="#666666" stroke="#666666" stroke-width="0.133333"/>
<path id="Vector_2" d="M10.2895 4.33951C6.45511 4.67166 3.18247 6.91366 1.54615 10.3231C-0.368588 14.3235 0.388515 19.0566 3.46089 22.2316C4.38407 23.1889 5.23397 23.8142 6.41115 24.4003C9.3321 25.8559 12.7855 25.8657 15.7113 24.4345C20.5323 22.0753 22.8183 16.6241 21.1283 11.5344C20.8938 10.8311 20.3467 9.65877 20.1807 9.50735C19.9609 9.31197 19.5457 9.48781 19.5457 9.776C19.5457 9.84927 19.6531 10.113 19.785 10.367C21.2797 13.2049 21.2748 16.6339 19.7655 19.4865C18.7886 21.3279 17.2744 22.7884 15.3694 23.7262C12.0479 25.3577 8.11585 24.9571 5.1314 22.6858C3.93469 21.7773 2.99686 20.6343 2.30814 19.2422C0.427591 15.4665 1.18469 10.919 4.18868 7.95895C5.04348 7.11393 5.78104 6.59128 6.82145 6.08818C7.77393 5.62415 8.76061 5.32131 9.80102 5.17477C10.3725 5.09662 11.8232 5.09662 12.4142 5.17966C13.4693 5.32619 14.6904 5.71695 15.6332 6.21518C15.8871 6.34706 16.1509 6.45452 16.2242 6.45452C16.5173 6.45452 16.6882 6.03445 16.4831 5.80976C16.3414 5.64857 15.174 5.10639 14.4657 4.87193C13.1323 4.42743 11.5692 4.22717 10.2895 4.33951Z" fill="#666666"/>
<path id="Vector_3" d="M10.4114 8.68181C8.29148 8.95046 6.4842 10.2058 5.5366 12.0619C5.09699 12.9167 4.90161 13.664 4.85765 14.6409C4.8088 15.7302 4.9993 16.6485 5.4731 17.6156C6.41582 19.5401 8.16937 20.8101 10.3088 21.113C10.807 21.1813 11.8474 21.1423 12.3408 21.0348C13.9673 20.6831 15.3838 19.7257 16.307 18.3483C16.7222 17.7329 17.0592 16.9171 17.2302 16.1258C17.2986 15.8181 17.3181 15.5055 17.3181 14.9047C17.3181 13.9962 17.2351 13.5028 16.9518 12.7311C16.7124 12.0766 16.4633 11.8812 16.1556 12.1254C15.9944 12.2524 15.9895 12.4576 16.1458 12.8092C16.2093 12.9558 16.307 13.2391 16.3607 13.4393C17.1081 16.1454 15.6916 18.9735 13.0734 19.9993C12.3408 20.2875 11.9647 20.351 11.0464 20.3461C10.343 20.3412 10.1818 20.3265 9.76661 20.2142C8.76528 19.9504 7.94956 19.4815 7.23642 18.7635C6.23509 17.7622 5.69779 16.541 5.63918 15.1245C5.48776 11.422 8.98508 8.6525 12.5606 9.63918C12.7608 9.69291 13.0441 9.7906 13.1907 9.8541C13.5424 10.0104 13.7475 10.0055 13.8745 9.84433C14.1187 9.5366 13.9233 9.28749 13.2688 9.04815C12.5948 8.79904 12.0379 8.70135 11.2662 8.67692C10.8901 8.66716 10.5042 8.67204 10.4114 8.68181Z" fill="#666666"/>
</g>
</svg>
