<svg xmlns="http://www.w3.org/2000/svg" width="18" height="18" viewBox="0 0 18 18" fill="none">
  <path d="M13.4138 4.58611C13.4885 4.66083 13.5305 4.76217 13.5305 4.86785C13.5305 4.97352 13.4885 5.07486 13.4138 5.14958L9.56338 9L13.4138 12.8504C13.4885 12.9251 13.5305 13.0265 13.5305 13.1322C13.5305 13.2378 13.4885 13.3392 13.4138 13.4139C13.3391 13.4886 13.2377 13.5306 13.1321 13.5306C13.0264 13.5306 12.925 13.4886 12.8503 13.4139L8.9999 9.56348L5.14949 13.4139C5.07477 13.4886 4.97342 13.5306 4.86775 13.5306C4.76208 13.5306 4.66073 13.4886 4.58601 13.4139C4.51129 13.3392 4.46931 13.2378 4.46931 13.1322C4.46931 13.0265 4.51129 12.9251 4.58601 12.8504L8.43643 9L4.58601 5.14958C4.51129 5.07486 4.46931 4.97352 4.46931 4.86785C4.46931 4.76217 4.51129 4.66083 4.58601 4.58611C4.66073 4.51139 4.76208 4.46941 4.86775 4.46941C4.97342 4.46941 5.07477 4.51139 5.14949 4.58611L8.9999 8.43652L12.8503 4.58611C12.925 4.51139 13.0264 4.46941 13.1321 4.46941C13.2377 4.46941 13.3391 4.51139 13.4138 4.58611Z" fill="#EC4F4F"/>
</svg>