<svg width="24" height="24" viewBox="0 0 24 24" fill="none" xmlns="http://www.w3.org/2000/svg">
<path d="M20.38 3.46L16 2C16 3.06087 15.5786 4.07828 14.8284 4.82843C14.0783 5.57857 13.0609 6 12 6C10.9391 6 9.92173 5.57857 9.17158 4.82843C8.42144 4.07828 8.00001 3.06087 8.00001 2L3.62001 3.46C3.16739 3.61079 2.78359 3.91842 2.53786 4.32734C2.29214 4.73627 2.20069 5.21956 2.28001 5.69L2.86001 9.16C2.89809 9.39491 3.01869 9.60855 3.20015 9.76251C3.38161 9.91648 3.61203 10.0007 3.85001 10H6.00001V20C6.00001 21.1 6.90001 22 8.00001 22H16C16.5304 22 17.0392 21.7893 17.4142 21.4142C17.7893 21.0391 18 20.5304 18 20V10H20.15C20.388 10.0007 20.6184 9.91648 20.7999 9.76251C20.9813 9.60855 21.1019 9.39491 21.14 9.16L21.72 5.69C21.7993 5.21956 21.7079 4.73627 21.4622 4.32734C21.2164 3.91842 20.8326 3.61079 20.38 3.46Z" fill="#74BC1F"/>
<path d="M14 8C14.2918 8 14.5283 8.23655 14.5283 8.52832C14.5283 8.74925 14.3927 8.93871 14.2002 9.01758C14.151 9.03776 14.1133 9.08253 14.1133 9.13574V9.39258C14.1133 9.44579 14.151 9.49056 14.2002 9.51074C14.331 9.56433 14.4357 9.669 14.4893 9.7998C14.5094 9.84904 14.5542 9.88672 14.6074 9.88672H14.8643C14.9175 9.88672 14.9623 9.84904 14.9824 9.7998C15.0613 9.60727 15.2508 9.47169 15.4717 9.47168C15.7635 9.47168 16 9.70823 16 10C16 10.2918 15.7635 10.5283 15.4717 10.5283C15.2508 10.5283 15.0613 10.3927 14.9824 10.2002C14.9623 10.151 14.9175 10.1133 14.8643 10.1133H14.6074C14.5542 10.1133 14.5094 10.151 14.4893 10.2002C14.4357 10.331 14.331 10.4357 14.2002 10.4893C14.151 10.5094 14.1133 10.5542 14.1133 10.6074V10.8643C14.1133 10.9175 14.151 10.9622 14.2002 10.9824C14.3927 11.0613 14.5283 11.2507 14.5283 11.4717C14.5283 11.7635 14.2918 12 14 12C13.7082 12 13.4717 11.7635 13.4717 11.4717C13.4717 11.2507 13.6073 11.0613 13.7998 10.9824C13.849 10.9622 13.8867 10.9175 13.8867 10.8643V10.6074C13.8867 10.5542 13.8491 10.5094 13.7998 10.4893C13.669 10.4357 13.5643 10.331 13.5108 10.2002C13.4906 10.151 13.4458 10.1133 13.3926 10.1133H13.1358C13.0825 10.1133 13.0378 10.151 13.0176 10.2002C12.9387 10.3927 12.7493 10.5283 12.5283 10.5283C12.2366 10.5283 12 10.2918 12 10C12 9.70823 12.2366 9.47168 12.5283 9.47168C12.7493 9.47169 12.9387 9.60727 13.0176 9.7998C13.0378 9.84904 13.0825 9.88672 13.1358 9.88672H13.3926C13.4458 9.88672 13.4906 9.84904 13.5108 9.7998C13.5643 9.669 13.669 9.56433 13.7998 9.51074C13.8491 9.49056 13.8867 9.44579 13.8867 9.39258V9.13574C13.8867 9.08253 13.849 9.03776 13.7998 9.01758C13.6073 8.93871 13.4717 8.74925 13.4717 8.52832C13.4717 8.23655 13.7082 8 14 8ZM14 11.1699C13.8333 11.1699 13.6983 11.305 13.6983 11.4717C13.6983 11.6384 13.8333 11.7734 14 11.7734C14.1667 11.7734 14.3018 11.6384 14.3018 11.4717C14.3018 11.305 14.1667 11.1699 14 11.1699ZM14.6797 10.3398C14.8671 10.3401 15.0186 10.4923 15.0186 10.6797C15.0183 10.8669 14.8669 11.0183 14.6797 11.0186C14.4923 11.0186 14.3401 10.8671 14.3399 10.6797C14.3399 10.4921 14.4921 10.3398 14.6797 10.3398ZM13.3203 10.3018C13.5079 10.3018 13.6602 10.454 13.6602 10.6416C13.6601 10.8291 13.5079 10.9814 13.3203 10.9814C13.133 10.9812 12.9815 10.829 12.9815 10.6416C12.9815 10.4542 13.133 10.302 13.3203 10.3018ZM12.5283 9.69824C12.3616 9.69824 12.2266 9.83327 12.2266 10C12.2266 10.1667 12.3616 10.3018 12.5283 10.3018C12.6951 10.3017 12.8301 10.1667 12.8301 10C12.8301 9.83328 12.6951 9.69825 12.5283 9.69824ZM14 9.69824C13.8333 9.69824 13.6983 9.83327 13.6983 10C13.6983 10.1667 13.8333 10.3018 14 10.3018C14.1667 10.3018 14.3018 10.1667 14.3018 10C14.3018 9.83327 14.1667 9.69824 14 9.69824ZM15.4717 9.69824C15.305 9.69825 15.1699 9.83328 15.1699 10C15.1699 10.1667 15.305 10.3017 15.4717 10.3018C15.6384 10.3018 15.7734 10.1667 15.7734 10C15.7734 9.83327 15.6384 9.69824 15.4717 9.69824ZM13.2832 8.98145C13.4706 8.98154 13.6228 9.13301 13.6231 9.32031C13.6231 9.50782 13.4707 9.66006 13.2832 9.66016C13.0956 9.66016 12.9434 9.50788 12.9434 9.32031C12.9436 9.13295 13.0958 8.98145 13.2832 8.98145ZM14.6797 8.98145C14.8669 8.98168 15.0183 9.1331 15.0186 9.32031C15.0186 9.50773 14.8671 9.65992 14.6797 9.66016C14.4921 9.66016 14.3399 9.50788 14.3399 9.32031C14.3401 9.13295 14.4923 8.98145 14.6797 8.98145ZM14 8.22656C13.8333 8.22656 13.6983 8.36159 13.6983 8.52832C13.6983 8.69504 13.8333 8.83008 14 8.83008C14.1667 8.83008 14.3018 8.69504 14.3018 8.52832C14.3018 8.36159 14.1667 8.22656 14 8.22656Z" fill="white"/>
</svg>
