<svg width="24" height="24" viewBox="0 0 24 24" fill="none" xmlns="http://www.w3.org/2000/svg">
<path d="M17.0002 10C17.0002 9.44772 17.4479 9 18.0002 9H20.1526L20.1535 8.99512L20.7336 5.52539V5.52344C20.7732 5.28835 20.7275 5.04714 20.6047 4.84278C20.4818 4.63831 20.29 4.48458 20.0637 4.40918L16.8186 3.32618C16.5907 4.15408 16.1532 4.9173 15.5354 5.53516C14.5977 6.47279 13.3262 6.99995 12.0002 7C10.6741 7 9.40177 6.47284 8.46408 5.53516C7.84632 4.91726 7.40772 4.1541 7.1799 3.32618L3.93576 4.40821C3.70964 4.48366 3.51753 4.63844 3.39475 4.84278C3.27212 5.04706 3.2263 5.28848 3.26584 5.52344L3.26682 5.52539L3.84592 8.99512L3.8469 9H6.00022C6.55241 9.00011 7.00022 9.44779 7.00022 10V20C7.00022 20.5477 7.4525 21 8.00022 21H16.0002C16.2654 20.9999 16.5198 20.8945 16.7072 20.707C16.8947 20.5195 17.0002 20.2652 17.0002 20V10ZM19.0002 20C19.0002 20.7956 18.6839 21.5585 18.1213 22.1211C17.5588 22.6837 16.7958 22.9999 16.0002 23H8.00022C6.34793 23 5.00022 21.6523 5.00022 20V11H3.84983C3.37498 11.0006 2.91508 10.8326 2.55295 10.5254C2.19118 10.2184 1.95217 9.79228 1.87522 9.32422L1.87326 9.3252L1.29416 5.85645L1.26096 5.59082C1.2126 4.97105 1.35844 4.34914 1.68088 3.8125C2.04944 3.19915 2.62506 2.73793 3.30393 2.51172L7.68381 1.05176C7.98876 0.950112 8.32441 1.00053 8.58518 1.18848C8.84585 1.37644 9.00022 1.67863 9.00022 2C9.00022 2.79565 9.31651 3.55849 9.87912 4.1211C10.4417 4.68364 11.2046 5 12.0002 5C12.7958 4.99995 13.5588 4.68366 14.1213 4.1211C14.6839 3.5585 15.0002 2.7956 15.0002 2C15.0002 1.67856 15.1545 1.37643 15.4153 1.18848C15.676 1.00059 16.0117 0.950125 16.3166 1.05176L20.6965 2.51172C21.3752 2.73797 21.9511 3.19926 22.3196 3.8125C22.688 4.42584 22.8252 5.1509 22.7063 5.85645L22.1262 9.31934C22.05 9.78916 21.8094 10.2175 21.4465 10.5254C21.0843 10.8326 20.6245 10.9998 20.1496 10.999L19.0002 11V20Z" fill="#666666"/>
<path d="M14 8C14.2918 8 14.5283 8.23655 14.5283 8.52832C14.5283 8.74925 14.3927 8.93871 14.2002 9.01758C14.151 9.03776 14.1133 9.08254 14.1133 9.13575V9.39258C14.1133 9.44579 14.151 9.49057 14.2002 9.51075C14.331 9.56433 14.4357 9.669 14.4893 9.79981C14.5095 9.84904 14.5542 9.88672 14.6074 9.88672H14.8643C14.9175 9.88672 14.9623 9.84904 14.9824 9.79981C15.0613 9.60728 15.2508 9.47169 15.4717 9.47168C15.7635 9.47168 16 9.70823 16 10C16 10.2918 15.7635 10.5283 15.4717 10.5283C15.2508 10.5283 15.0613 10.3927 14.9824 10.2002C14.9623 10.151 14.9175 10.1133 14.8643 10.1133H14.6074C14.5542 10.1133 14.5095 10.151 14.4893 10.2002C14.4357 10.331 14.331 10.4357 14.2002 10.4893C14.151 10.5094 14.1133 10.5542 14.1133 10.6074V10.8643C14.1133 10.9175 14.151 10.9622 14.2002 10.9824C14.3927 11.0613 14.5283 11.2508 14.5283 11.4717C14.5283 11.7635 14.2918 12 14 12C13.7082 12 13.4717 11.7635 13.4717 11.4717C13.4717 11.2508 13.6073 11.0613 13.7998 10.9824C13.8491 10.9622 13.8867 10.9175 13.8867 10.8643V10.6074C13.8867 10.5542 13.8491 10.5094 13.7998 10.4893C13.669 10.4357 13.5643 10.331 13.5108 10.2002C13.4906 10.151 13.4458 10.1133 13.3926 10.1133H13.1358C13.0825 10.1133 13.0378 10.151 13.0176 10.2002C12.9387 10.3927 12.7493 10.5283 12.5283 10.5283C12.2366 10.5283 12 10.2918 12 10C12 9.70823 12.2366 9.47168 12.5283 9.47168C12.7493 9.47169 12.9387 9.60728 13.0176 9.79981C13.0378 9.84904 13.0825 9.88672 13.1358 9.88672H13.3926C13.4458 9.88672 13.4906 9.84904 13.5108 9.79981C13.5643 9.669 13.669 9.56433 13.7998 9.51075C13.8491 9.49057 13.8867 9.44579 13.8867 9.39258V9.13575C13.8867 9.08254 13.8491 9.03776 13.7998 9.01758C13.6073 8.93871 13.4717 8.74925 13.4717 8.52832C13.4717 8.23655 13.7082 8 14 8ZM14 11.1699C13.8333 11.1699 13.6983 11.305 13.6983 11.4717C13.6983 11.6384 13.8333 11.7734 14 11.7734C14.1667 11.7734 14.3018 11.6384 14.3018 11.4717C14.3018 11.305 14.1667 11.1699 14 11.1699ZM14.6797 10.3398C14.8671 10.3401 15.0186 10.4923 15.0186 10.6797C15.0183 10.8669 14.8669 11.0183 14.6797 11.0186C14.4923 11.0186 14.3401 10.8671 14.3399 10.6797C14.3399 10.4921 14.4921 10.3398 14.6797 10.3398ZM13.3203 10.3018C13.5079 10.3018 13.6602 10.454 13.6602 10.6416C13.6601 10.8291 13.5079 10.9814 13.3203 10.9814C13.133 10.9812 12.9815 10.829 12.9815 10.6416C12.9815 10.4542 13.133 10.302 13.3203 10.3018ZM12.5283 9.69825C12.3616 9.69825 12.2266 9.83328 12.2266 10C12.2266 10.1667 12.3616 10.3018 12.5283 10.3018C12.6951 10.3018 12.8301 10.1667 12.8301 10C12.8301 9.83328 12.6951 9.69826 12.5283 9.69825ZM14 9.69825C13.8333 9.69825 13.6983 9.83328 13.6983 10C13.6983 10.1667 13.8333 10.3018 14 10.3018C14.1667 10.3018 14.3018 10.1667 14.3018 10C14.3018 9.83328 14.1667 9.69825 14 9.69825ZM15.4717 9.69825C15.305 9.69826 15.1699 9.83328 15.1699 10C15.1699 10.1667 15.305 10.3018 15.4717 10.3018C15.6384 10.3018 15.7735 10.1667 15.7735 10C15.7735 9.83328 15.6384 9.69825 15.4717 9.69825ZM13.2832 8.98145C13.4706 8.98155 13.6228 9.13301 13.6231 9.32032C13.6231 9.50782 13.4707 9.66006 13.2832 9.66016C13.0956 9.66016 12.9434 9.50788 12.9434 9.32032C12.9436 9.13295 13.0958 8.98145 13.2832 8.98145ZM14.6797 8.98145C14.8669 8.98169 15.0183 9.1331 15.0186 9.32032C15.0186 9.50774 14.8671 9.65992 14.6797 9.66016C14.4921 9.66016 14.3399 9.50788 14.3399 9.32032C14.3401 9.13295 14.4923 8.98145 14.6797 8.98145ZM14 8.22657C13.8333 8.22657 13.6983 8.3616 13.6983 8.52832C13.6983 8.69504 13.8333 8.83008 14 8.83008C14.1667 8.83008 14.3018 8.69504 14.3018 8.52832C14.3018 8.3616 14.1667 8.22657 14 8.22657Z" fill="#666666"/>
</svg>
