<svg xmlns="http://www.w3.org/2000/svg" width="20" height="19" viewBox="0 0 20 19" fill="none">
  <path d="M9.999 17.9997H18.999M14.375 1.62173C14.7731 1.22364 15.313 1 15.876 1C16.439 1 16.9789 1.22364 17.377 1.62173C17.7751 2.01982 17.9987 2.55975 17.9987 3.12273C17.9987 3.68572 17.7751 4.22564 17.377 4.62373L5.367 16.6347C5.1291 16.8726 4.83502 17.0467 4.512 17.1407L1.64 17.9787C1.55395 18.0038 1.46274 18.0053 1.37591 17.9831C1.28908 17.9608 1.20983 17.9157 1.14645 17.8523C1.08307 17.7889 1.03789 17.7097 1.01564 17.6228C0.993398 17.536 0.994903 17.4448 1.02 17.3587L1.858 14.4867C1.95222 14.1641 2.12625 13.8704 2.364 13.6327L14.375 1.62173Z" stroke="#74BC1F" stroke-width="2" stroke-linecap="round" stroke-linejoin="round"/>
</svg>