<svg xmlns="http://www.w3.org/2000/svg" width="18" height="18" viewBox="0 0 18 18" fill="none">
  <path d="M8.99978 14.6665H15.3748M12.0994 3.0654C12.3814 2.78341 12.7639 2.625 13.1627 2.625C13.5614 2.625 13.9439 2.78341 14.2259 3.0654C14.5078 3.34738 14.6663 3.72982 14.6663 4.1286C14.6663 4.52738 14.5078 4.90983 14.2259 5.19181L5.71878 13.6996C5.55026 13.8681 5.34196 13.9914 5.11315 14.058L3.07882 14.6516C3.01787 14.6694 2.95326 14.6704 2.89176 14.6547C2.83025 14.6389 2.77412 14.6069 2.72922 14.562C2.68433 14.5171 2.65233 14.461 2.63657 14.3995C2.62081 14.338 2.62188 14.2734 2.63965 14.2124L3.23324 12.1781C3.29998 11.9495 3.42325 11.7415 3.59165 11.5732L12.0994 3.0654Z" stroke="#74BC1F" stroke-width="2" stroke-linecap="round" stroke-linejoin="round"/>
</svg>