<svg width="24" height="24" viewBox="0 0 24 24" fill="none" xmlns="http://www.w3.org/2000/svg">
<path d="M22 8.5C22 10.79 20.49 12.54 19 14L12 21L5 14C3.5 12.55 2 10.8 2 8.5C2 7.04131 2.57946 5.64236 3.61091 4.61091C4.64236 3.57946 6.04131 3 7.5 3C9.26 3 10.5 3.5 12 5C13.5 3.5 14.74 3 16.5 3C17.9587 3 19.3576 3.57946 20.3891 4.61091C21.4205 5.64236 22 7.04131 22 8.5Z" fill="#74BC1F"/>
<path d="M12.8691 8.58789C13.1797 7.92579 14.0944 7.81223 14.5576 8.37793L14.6494 8.50977L16.125 11H20C20.5523 11 21 11.4477 21 12C21 12.5523 20.5523 13 20 13H15.5615C15.2048 13 14.8743 12.8118 14.6924 12.5049L14.085 11.4805L12.9648 15.2617C12.7144 16.107 11.5774 16.2486 11.1279 15.4902L9.65234 13H4C3.44772 13 3 12.5523 3 12C3 11.4477 3.44772 11 4 11H10.2168C10.5289 11.0001 10.8209 11.1441 11.0107 11.3857L11.085 11.4951L11.6914 12.5195L12.8125 8.73828L12.8691 8.58789Z" fill="white"/>
</svg>
