<svg width="25" height="25" viewBox="0 0 25 25" fill="none" xmlns="http://www.w3.org/2000/svg">
<path d="M20.5 10.4995C20.5 10.3541 20.4684 10.2105 20.4072 10.0786C20.346 9.94668 20.2566 9.82973 20.1455 9.73584L20.1406 9.73096L13.1455 3.73584C12.965 3.58329 12.7363 3.50049 12.5 3.50049C12.2637 3.50049 12.035 3.58427 11.8545 3.73682L11.8535 3.73584L4.85938 9.73096L4.85449 9.73584C4.74342 9.82973 4.65399 9.94668 4.59277 10.0786C4.5316 10.2105 4.5 10.3541 4.5 10.4995V19.4995C4.5 19.7647 4.60543 20.02 4.79297 20.2075C4.98048 20.3949 5.23491 20.4995 5.5 20.4995H19.5C19.7651 20.4995 20.0195 20.3949 20.207 20.2075C20.3946 20.02 20.5 19.7647 20.5 19.4995V10.4995ZM22.5 19.4995C22.5 20.2952 22.1837 21.059 21.6211 21.6216C21.0585 22.184 20.2955 22.4995 19.5 22.4995H5.5C4.70447 22.4995 3.94149 22.184 3.37891 21.6216C2.8163 21.059 2.5 20.2952 2.5 19.4995V10.4995C2.5 10.0634 2.59479 9.63242 2.77832 9.23682C2.96197 8.84102 3.23025 8.49017 3.56348 8.2085L10.5586 2.21338L10.5635 2.20947C11.105 1.75184 11.791 1.50049 12.5 1.50049C13.1202 1.50049 13.7229 1.69283 14.2266 2.04736L14.4365 2.20947L14.4414 2.21338L21.4365 8.2085L21.5586 8.31689C21.8356 8.5782 22.061 8.89045 22.2217 9.23682C22.4052 9.63242 22.5 10.0634 22.5 10.4995V19.4995Z" fill="#666666"/>
<path d="M13.4053 17.915C13.4052 17.4149 13.0002 17.0097 12.5 17.0097C11.9998 17.0097 11.5948 17.4149 11.5947 17.915C11.5947 18.4152 11.9998 18.8203 12.5 18.8203C13.0002 18.8203 13.4053 18.4152 13.4053 17.915ZM14.5381 14.5185C15.1006 14.5187 15.5566 14.9755 15.5566 15.5381C15.5565 16.1005 15.1005 16.5564 14.5381 16.5566C13.9755 16.5566 13.5187 16.1006 13.5186 15.5381C13.5186 14.9754 13.9754 14.5185 14.5381 14.5185ZM10.4619 14.4052C11.0246 14.4052 11.4814 14.8621 11.4814 15.4248C11.4813 15.9874 11.0245 16.4433 10.4619 16.4433C9.89946 16.4431 9.44351 15.9872 9.44336 15.4248C9.44336 14.8622 9.89937 14.4054 10.4619 14.4052ZM14.5303 15.5195C14.5287 15.5202 14.5267 15.5221 14.5244 15.5244C14.5221 15.5267 14.5202 15.5287 14.5195 15.5302C14.5192 15.5311 14.5186 15.5336 14.5186 15.5381C14.5186 15.5422 14.5192 15.544 14.5195 15.5449C14.5202 15.5464 14.5221 15.5484 14.5244 15.5508C14.5267 15.553 14.5287 15.5549 14.5303 15.5556C14.5311 15.556 14.5336 15.5566 14.5381 15.5566C14.5423 15.5566 14.5441 15.556 14.5449 15.5556C14.5465 15.555 14.5484 15.5531 14.5508 15.5508C14.5532 15.5484 14.555 15.5464 14.5557 15.5449C14.556 15.544 14.5566 15.5422 14.5566 15.5381C14.5566 15.5336 14.556 15.5311 14.5557 15.5302C14.555 15.5287 14.5531 15.5267 14.5508 15.5244C14.5484 15.522 14.5464 15.5201 14.5449 15.5195C14.5441 15.5191 14.5422 15.5186 14.5381 15.5185C14.5336 15.5185 14.5311 15.5191 14.5303 15.5195ZM10.4551 15.4062C10.4536 15.4069 10.4516 15.4088 10.4492 15.4111C10.4468 15.4135 10.445 15.4164 10.4443 15.4179C10.444 15.4189 10.4434 15.421 10.4434 15.4248C10.4434 15.429 10.444 15.4308 10.4443 15.4316C10.445 15.4331 10.4468 15.4351 10.4492 15.4375C10.4516 15.4398 10.4535 15.4417 10.4551 15.4424C10.4559 15.4427 10.4577 15.4433 10.4619 15.4433C10.4664 15.4433 10.4689 15.4427 10.4697 15.4424C10.4713 15.4417 10.4733 15.4397 10.4756 15.4375C10.4779 15.4351 10.4798 15.4331 10.4805 15.4316C10.4808 15.4307 10.4814 15.4289 10.4814 15.4248C10.4814 15.4211 10.4808 15.4189 10.4805 15.4179C10.4798 15.4164 10.478 15.4135 10.4756 15.4111C10.4733 15.4088 10.4713 15.4069 10.4697 15.4062C10.4689 15.4059 10.4664 15.4052 10.4619 15.4052C10.4578 15.4053 10.4559 15.4059 10.4551 15.4062ZM8.08496 12.5947C7.58478 12.5947 7.17969 12.9998 7.17969 13.5C7.17969 14.0002 7.58478 14.4052 8.08496 14.4052C8.58512 14.4052 8.99023 14.0001 8.99023 13.5C8.99023 12.9998 8.58512 12.5947 8.08496 12.5947ZM12.5 12.5947C11.9998 12.5947 11.5947 12.9998 11.5947 13.5C11.5947 14.0002 11.9998 14.4052 12.5 14.4052C13.0002 14.4052 13.4053 14.0002 13.4053 13.5C13.4053 12.9998 13.0002 12.5947 12.5 12.5947ZM10.3486 10.4433C10.9112 10.4433 11.368 10.8993 11.3682 11.4619C11.3682 12.0246 10.9113 12.4814 10.3486 12.4814C9.78612 12.4812 9.33008 12.0244 9.33008 11.4619C9.33027 10.8995 9.78624 10.4436 10.3486 10.4433ZM14.5381 10.4433C15.1005 10.4435 15.5565 10.8995 15.5566 11.4619C15.5566 12.0245 15.1006 12.4812 14.5381 12.4814C13.9754 12.4814 13.5186 12.0246 13.5186 11.4619C13.5187 10.8993 13.9755 10.4433 14.5381 10.4433ZM10.3418 11.4443C10.3403 11.445 10.3383 11.4468 10.3359 11.4492C10.3336 11.4516 10.3317 11.4535 10.3311 11.455C10.3307 11.4559 10.3301 11.4577 10.3301 11.4619C10.3301 11.4663 10.3307 11.4688 10.3311 11.4697C10.3317 11.4712 10.3336 11.4733 10.3359 11.4756C10.3383 11.4779 10.3403 11.4798 10.3418 11.4804C10.3426 11.4808 10.3445 11.4814 10.3486 11.4814C10.3531 11.4814 10.3556 11.4808 10.3564 11.4804C10.358 11.4798 10.36 11.4779 10.3623 11.4756C10.3646 11.4732 10.3665 11.4712 10.3672 11.4697C10.3676 11.4688 10.3682 11.4663 10.3682 11.4619C10.3681 11.4577 10.3675 11.4559 10.3672 11.455C10.3665 11.4535 10.3647 11.4516 10.3623 11.4492C10.36 11.4469 10.358 11.445 10.3564 11.4443C10.3556 11.4439 10.3531 11.4433 10.3486 11.4433C10.3445 11.4434 10.3426 11.444 10.3418 11.4443ZM14.5303 11.4443C14.5287 11.445 14.5267 11.4469 14.5244 11.4492C14.5221 11.4516 14.5202 11.4535 14.5195 11.455C14.5192 11.4559 14.5186 11.4577 14.5186 11.4619C14.5186 11.4663 14.5192 11.4688 14.5195 11.4697C14.5202 11.4712 14.5221 11.4732 14.5244 11.4756C14.5267 11.4779 14.5287 11.4798 14.5303 11.4804C14.5311 11.4808 14.5336 11.4814 14.5381 11.4814C14.5422 11.4814 14.5441 11.4808 14.5449 11.4804C14.5464 11.4798 14.5484 11.4779 14.5508 11.4756C14.5531 11.4733 14.555 11.4712 14.5557 11.4697C14.556 11.4688 14.5566 11.4663 14.5566 11.4619C14.5566 11.4577 14.556 11.4559 14.5557 11.455C14.555 11.4535 14.5532 11.4516 14.5508 11.4492C14.5484 11.4468 14.5465 11.445 14.5449 11.4443C14.5441 11.4439 14.5423 11.4434 14.5381 11.4433C14.5336 11.4433 14.5311 11.4439 14.5303 11.4443ZM17.8203 13.5C17.8203 12.9998 17.4152 12.5947 16.915 12.5947C16.4149 12.5947 16.0098 12.9998 16.0098 13.5C16.0098 14.0001 16.4149 14.4052 16.915 14.4052C17.4152 14.4052 17.8203 14.0002 17.8203 13.5ZM13.4053 9.08493C13.4053 8.58475 13.0002 8.17966 12.5 8.17966C11.9998 8.17966 11.5947 8.58475 11.5947 9.08493C11.5948 9.58509 11.9998 9.9902 12.5 9.9902C12.9689 9.9902 13.3549 9.6343 13.4014 9.1777L13.4053 9.08493ZM14.0801 9.20798C14.0333 9.81726 13.642 10.3298 13.1006 10.5517C12.9528 10.6122 12.8398 10.7475 12.8398 10.9072V11.6777C12.8398 11.8374 12.9528 11.9727 13.1006 12.0332C13.4928 12.1939 13.806 12.5072 13.9668 12.8994C14.0273 13.0471 14.1626 13.1601 14.3223 13.1601H15.0928C15.2524 13.1601 15.3877 13.0471 15.4482 12.8994C15.6849 12.3219 16.2523 11.915 16.915 11.915C17.7904 11.915 18.5 12.6246 18.5 13.5C18.5 14.3753 17.7904 15.0849 16.915 15.0849C16.2523 15.0849 15.6849 14.678 15.4482 14.1006C15.3877 13.9528 15.2524 13.8398 15.0928 13.8398H14.3223C14.1626 13.8398 14.0273 13.9528 13.9668 14.1006C13.806 14.4928 13.4928 14.806 13.1006 14.9668C12.9528 15.0273 12.8398 15.1626 12.8398 15.3222V16.0927C12.8398 16.2524 12.9528 16.3877 13.1006 16.4482C13.678 16.6849 14.0849 17.2523 14.085 17.915L14.0771 18.0771C13.996 18.8763 13.3206 19.5 12.5 19.5C11.6247 19.5 10.915 18.7903 10.915 17.915C10.9151 17.2523 11.322 16.6849 11.8994 16.4482C12.0472 16.3877 12.1602 16.2524 12.1602 16.0927V15.3222C12.1602 15.1626 12.0472 15.0273 11.8994 14.9668C11.5072 14.806 11.194 14.4927 11.0332 14.1006C10.9727 13.9528 10.8374 13.8398 10.6777 13.8398H9.90723C9.74757 13.8398 9.61228 13.9528 9.55176 14.1006C9.31508 14.678 8.74765 15.0849 8.08496 15.0849C7.20964 15.0849 6.5 14.3753 6.5 13.5C6.5 12.6246 7.20964 11.915 8.08496 11.915C8.74765 11.915 9.31508 12.3219 9.55176 12.8994C9.61228 13.0471 9.74757 13.1601 9.90723 13.1601H10.6777C10.8374 13.1601 10.9727 13.0471 11.0332 12.8994C11.194 12.5072 11.5072 12.1939 11.8994 12.0332C12.0472 11.9727 12.1602 11.8374 12.1602 11.6777V10.9072C12.1602 10.7475 12.0472 10.6122 11.8994 10.5517C11.322 10.315 10.9151 9.74762 10.915 9.08493C10.915 8.20961 11.6247 7.49997 12.5 7.49997C13.3753 7.49997 14.085 8.20961 14.085 9.08493L14.0801 9.20798Z" fill="#666666"/>
</svg>
