<svg xmlns="http://www.w3.org/2000/svg" width="17" height="17" viewBox="0 0 17 17" fill="none">
  <g clip-path="url(#clip0_20775_19183)">
    <path d="M7.73063 9.26787C7.59526 9.13274 7.43392 9.02643 7.25636 8.95533L1.63927 6.70283C1.5722 6.67592 1.51497 6.62914 1.47526 6.56876C1.43555 6.50839 1.41526 6.43731 1.41711 6.36507C1.41896 6.29283 1.44286 6.22288 1.48561 6.16462C1.52836 6.10636 1.58791 6.06257 1.65627 6.03912L15.1146 1.43496C15.1774 1.41229 15.2453 1.40796 15.3104 1.42248C15.3756 1.43701 15.4352 1.46978 15.4824 1.51697C15.5296 1.56415 15.5623 1.6238 15.5769 1.68893C15.5914 1.75406 15.5871 1.82199 15.5644 1.88475L10.9602 15.3431C10.9368 15.4114 10.893 15.471 10.8347 15.5137C10.7765 15.5565 10.7065 15.5804 10.6343 15.5822C10.562 15.5841 10.491 15.5638 10.4306 15.5241C10.3702 15.4844 10.3234 15.4271 10.2965 15.3601L8.04402 9.74158C7.97261 9.56414 7.866 9.403 7.73063 9.26787ZM7.73063 9.26787L15.4801 1.51996" stroke="white" stroke-width="2" stroke-linecap="round" stroke-linejoin="round"/>
  </g>
  <defs>
    <clipPath id="clip0_20775_19183">
      <rect width="17" height="17" fill="white"/>
    </clipPath>
  </defs>
</svg>