<svg width="24" height="24" viewBox="0 0 24 24" fill="none" xmlns="http://www.w3.org/2000/svg">
<path d="M22 19C22.5523 19 23 19.4477 23 20C23 20.5523 22.5523 21 22 21H2C1.44772 21 1 20.5523 1 20C1 19.4477 1.44772 19 2 19H22ZM20 6C20 5.44771 19.5523 5 19 5H5C4.44772 5 4 5.44772 4 6V14C4 14.5523 4.44772 15 5 15H19C19.5523 15 20 14.5523 20 14V6ZM22 14C22 15.6569 20.6569 17 19 17H5C3.34315 17 2 15.6569 2 14V6C2 4.34315 3.34315 3 5 3H19C20.6569 3 22 4.34315 22 6V14Z" fill="#666666"/>
<path d="M12.7549 14.6797C12.7549 14.2629 12.4168 13.9248 12 13.9248C11.5832 13.9248 11.2451 14.2629 11.2451 14.6797C11.2454 15.0963 11.5833 15.4336 12 15.4336C12.3906 15.4336 12.7121 15.1372 12.751 14.7568L12.7549 14.6797ZM13.6982 11.8486C14.1671 11.8487 14.5469 12.2294 14.5469 12.6982C14.5468 13.1671 14.1671 13.5468 13.6982 13.5469C13.2294 13.5469 12.8487 13.1671 12.8486 12.6982C12.8486 12.2293 13.2293 11.8486 13.6982 11.8486ZM10.3018 11.7549C10.7706 11.7549 11.1512 12.1347 11.1514 12.6035C11.1514 13.0724 10.7707 13.4531 10.3018 13.4531C9.8329 13.4531 9.45312 13.0724 9.45312 12.6035C9.45326 12.1348 9.83298 11.755 10.3018 11.7549ZM13.7217 12.5508C13.6676 12.6108 13.6108 12.6676 13.5508 12.7217C13.5622 12.7937 13.623 12.8486 13.6982 12.8486C13.7607 12.8486 13.814 12.8109 13.8369 12.7568L13.8486 12.6982L13.8369 12.6396C13.817 12.5924 13.7738 12.5591 13.7217 12.5508ZM10.2148 12.4824C10.1768 12.5098 10.1515 12.5531 10.1514 12.6035L10.1631 12.6621C10.1859 12.7164 10.2392 12.7548 10.3018 12.7549C10.3503 12.7549 10.3913 12.73 10.4189 12.6943C10.3472 12.6273 10.2777 12.558 10.2148 12.4824ZM8.32031 10.2451C7.9037 10.2454 7.56641 10.5833 7.56641 11C7.56641 11.4167 7.9037 11.7546 8.32031 11.7549C8.73713 11.7549 9.0752 11.4168 9.0752 11C9.0752 10.5832 8.73713 10.2451 8.32031 10.2451ZM12 10.2451C11.5832 10.2451 11.2451 10.5832 11.2451 11C11.2451 11.4168 11.5832 11.7549 12 11.7549C12.4168 11.7549 12.7549 11.4168 12.7549 11C12.7549 10.5832 12.4168 10.2451 12 10.2451ZM10.208 8.45312C10.6767 8.45337 11.0566 8.83305 11.0566 9.30176C11.0566 9.77053 10.6767 10.1511 10.208 10.1514C9.73909 10.1514 9.3584 9.77068 9.3584 9.30176C9.35847 8.8329 9.73913 8.45312 10.208 8.45312ZM13.6982 8.45312C14.1671 8.45319 14.5468 8.83294 14.5469 9.30176C14.5469 9.77064 14.1671 10.1513 13.6982 10.1514C13.2293 10.1514 12.8486 9.77068 12.8486 9.30176C12.8487 8.8329 13.2294 8.45312 13.6982 8.45312ZM10.3584 9.30176C10.3583 9.23943 10.3206 9.18607 10.2666 9.16309L10.208 9.15137C10.1247 9.15137 10.0567 9.21845 10.0566 9.30176L10.0684 9.36035C10.0912 9.41468 10.1454 9.45312 10.208 9.45312C10.2912 9.45288 10.3584 9.38497 10.3584 9.30176ZM13.6982 9.15137C13.6233 9.15137 13.5626 9.20578 13.5508 9.27734C13.6108 9.33136 13.6676 9.3883 13.7217 9.44824C13.7936 9.43675 13.8486 9.37696 13.8486 9.30176C13.8486 9.23932 13.8109 9.186 13.7568 9.16309L13.6982 9.15137ZM16.4336 11C16.4336 10.5833 16.0963 10.2454 15.6797 10.2451C15.2629 10.2451 14.9248 10.5832 14.9248 11C14.9248 11.4168 15.2629 11.7549 15.6797 11.7549C16.0963 11.7546 16.4336 11.4167 16.4336 11ZM12.7549 7.32031C12.7546 6.9037 12.4167 6.56641 12 6.56641C11.5833 6.56641 11.2454 6.9037 11.2451 7.32031C11.2451 7.73713 11.5832 8.0752 12 8.0752C12.3909 8.0752 12.7125 7.77826 12.751 7.39746L12.7549 7.32031ZM13.3203 7.32031C13.3203 7.87266 12.9813 8.34578 12.5 8.54297C12.377 8.59341 12.2833 8.70594 12.2832 8.83887V9.48145C12.2832 9.61438 12.377 9.72685 12.5 9.77734C12.827 9.91131 13.0887 10.173 13.2227 10.5C13.2732 10.623 13.3856 10.7168 13.5186 10.7168H14.1611C14.2941 10.7167 14.4066 10.623 14.457 10.5C14.6542 10.0187 15.1273 9.67969 15.6797 9.67969C16.4089 9.67993 17 10.2707 17 11C17 11.7293 16.4089 12.3201 15.6797 12.3203C15.1273 12.3203 14.6542 11.9813 14.457 11.5C14.4066 11.377 14.2941 11.2833 14.1611 11.2832H13.5186C13.3856 11.2832 13.2732 11.377 13.2227 11.5C13.0887 11.827 12.827 12.0887 12.5 12.2227C12.377 12.2732 12.2832 12.3856 12.2832 12.5186V13.1611C12.2833 13.2941 12.377 13.4066 12.5 13.457C12.9813 13.6542 13.3203 14.1273 13.3203 14.6797L13.3135 14.8145C13.2457 15.4804 12.6838 16 12 16C11.2707 16 10.6799 15.4089 10.6797 14.6797C10.6797 14.1273 11.0187 13.6542 11.5 13.457C11.623 13.4066 11.7167 13.2941 11.7168 13.1611V12.5186C11.7168 12.3856 11.623 12.2732 11.5 12.2227C11.173 12.0887 10.9113 11.827 10.7773 11.5C10.7268 11.377 10.6144 11.2832 10.4814 11.2832H9.83887C9.70594 11.2833 9.59341 11.377 9.54297 11.5C9.34578 11.9813 8.87266 12.3203 8.32031 12.3203C7.59108 12.3201 7 11.7293 7 11C7 10.2707 7.59108 9.67993 8.32031 9.67969C8.87266 9.67969 9.34578 10.0187 9.54297 10.5C9.59341 10.623 9.70594 10.7167 9.83887 10.7168H10.4814C10.6144 10.7168 10.7268 10.623 10.7773 10.5C10.9113 10.173 11.173 9.91131 11.5 9.77734C11.623 9.72685 11.7168 9.61438 11.7168 9.48145V8.83887C11.7167 8.70594 11.623 8.59341 11.5 8.54297C11.0187 8.34578 10.6797 7.87266 10.6797 7.32031C10.6799 6.59108 11.2707 6 12 6C12.7293 6 13.3201 6.59108 13.3203 7.32031Z" fill="#666666"/>
</svg>
