<svg xmlns="http://www.w3.org/2000/svg" width="37" height="36" viewBox="0 0 37 36" fill="none">
  <path d="M18.5 28.5V33M18.5 28.5C21.2848 28.5 23.9555 27.3938 25.9246 25.4246C27.8938 23.4555 29 20.7848 29 18V15M18.5 28.5C15.7152 28.5 13.0445 27.3938 11.0754 25.4246C9.10625 23.4555 8 20.7848 8 18V15M18.5 3C20.9853 3 23 5.01472 23 7.5V18C23 20.4853 20.9853 22.5 18.5 22.5C16.0147 22.5 14 20.4853 14 18V7.5C14 5.01472 16.0147 3 18.5 3Z" stroke="white" stroke-width="2" stroke-linecap="round" stroke-linejoin="round"/>
</svg>