<svg xmlns="http://www.w3.org/2000/svg" width="24" height="24" viewBox="0 0 24 24" fill="none">
  <path d="M9.96587 7.88337C9.96587 9.0337 9.03377 9.96185 7.88656 9.96185C6.73936 9.96185 5.80725 9.03012 5.80725 7.88337C5.80725 6.73663 6.73936 5.8049 7.88656 5.8049C9.03377 5.8049 9.96587 6.73305 9.96587 7.88337Z" fill="#76BC21"/>
  <path d="M18.3122 7.77532C18.3122 8.9234 17.3798 9.85541 16.2345 9.85541C15.0859 9.85541 14.1536 8.92663 14.1536 7.77532C14.1536 6.62725 15.0859 5.69846 16.2345 5.69846C17.3798 5.69524 18.3122 6.62725 18.3122 7.77532Z" fill="#98989A"/>
  <path d="M9.85618 16.2182C9.85618 17.3663 8.9238 18.2983 7.77526 18.2983C6.62672 18.2983 5.69434 17.3663 5.69434 16.2182C5.69434 15.0701 6.62672 14.1381 7.77526 14.1381C8.9238 14.1381 9.85618 15.0701 9.85618 16.2182Z" fill="#98989A"/>
  <path d="M18.3122 16.2182C18.3122 17.3663 17.3798 18.2983 16.2345 18.2983C15.0859 18.2983 14.1536 17.3663 14.1536 16.2182C14.1536 15.0701 15.0859 14.1381 16.2345 14.1381C17.3798 14.1381 18.3122 15.0701 18.3122 16.2182Z" fill="#76BC21"/>
  <path d="M20.9092 8.89438C19.6736 8.89438 18.6089 9.62 18.1121 10.6649C17.9637 10.9164 17.6636 11.3066 17.2217 11.3066V11.3099H15.7021V11.3066C15.0665 11.3066 14.7278 10.5036 14.7052 10.4649V10.4843C14.6407 10.3714 14.5697 10.2618 14.4923 10.1586C14.4858 10.1521 14.4826 10.1424 14.4761 10.136C14.4439 10.0941 14.4116 10.0521 14.3793 10.0134C14.3664 9.99731 14.3535 9.98119 14.3406 9.96829C14.3148 9.93926 14.2858 9.90701 14.2567 9.87799C14.2342 9.85542 14.2116 9.83284 14.189 9.81027C14.1696 9.79092 14.147 9.77157 14.1277 9.74899C14.0954 9.71997 14.0632 9.69094 14.0309 9.66192C14.018 9.65224 14.0051 9.63935 13.9922 9.62967C13.9502 9.5942 13.9083 9.55872 13.8631 9.52647C13.8599 9.52325 13.8535 9.52002 13.8502 9.5168C13.747 9.4394 13.6373 9.36522 13.5212 9.30073H13.5308C13.5244 9.2975 13.4953 9.2846 13.4566 9.26525C13.4566 9.26525 13.4534 9.26525 13.4534 9.26203C13.4341 9.25235 13.4147 9.24268 13.3953 9.233C13.1566 9.10078 12.6888 8.79119 12.6888 8.30422H12.6856V6.78527H12.6888C12.6888 6.31443 13.134 6.00484 13.3792 5.86616C13.4147 5.85004 13.4502 5.83069 13.4824 5.81134C13.5083 5.79844 13.5276 5.79199 13.5308 5.78877H13.5244C14.4664 5.25665 15.102 4.25047 15.102 3.09594C15.102 1.38672 13.7147 0 12.0048 0C10.2949 0 8.90764 1.38672 8.90764 3.09594C8.90764 4.2537 9.54321 5.25988 10.4853 5.78877H10.4788C10.482 5.79199 10.4949 5.79844 10.5111 5.80489C10.553 5.82747 10.5982 5.85004 10.6401 5.87261C10.8853 6.01129 11.3209 6.31766 11.3209 6.78527V8.30422C11.3209 8.77829 10.8756 9.08788 10.6305 9.22333C10.5982 9.23945 10.5627 9.2588 10.5304 9.27493C10.5014 9.28783 10.482 9.2975 10.4756 9.30073H10.482C10.3691 9.36522 10.2594 9.43617 10.153 9.51357C10.1465 9.5168 10.1433 9.52002 10.1368 9.52647C10.0949 9.55872 10.053 9.5942 10.011 9.62967C9.99811 9.63935 9.9852 9.65224 9.96907 9.66514C9.93681 9.69417 9.90455 9.72319 9.87551 9.75222C9.85293 9.77157 9.83357 9.79414 9.81099 9.81349C9.7884 9.83607 9.76905 9.85542 9.74646 9.87799C9.71743 9.90701 9.68839 9.93927 9.66258 9.97151C9.64967 9.98441 9.64 10.0005 9.62709 10.0134C9.5916 10.0554 9.55934 10.0973 9.52708 10.1392C9.52385 10.1457 9.5174 10.1521 9.51417 10.1586C9.43674 10.2618 9.36577 10.3714 9.30124 10.4843V10.4746C9.29801 10.4811 9.28511 10.5101 9.26575 10.5488C9.26253 10.552 9.26253 10.5552 9.2593 10.5585C9.24962 10.5746 9.23994 10.5939 9.23349 10.6101C9.10121 10.8487 8.7915 11.3163 8.30756 11.3163V11.3195H6.788V11.3163C6.31375 11.3163 6.00725 10.8713 5.86853 10.6262C5.85239 10.5907 5.83304 10.5552 5.81368 10.523C5.80078 10.4972 5.79432 10.4778 5.7911 10.4746V10.4811C5.25877 9.53937 4.25218 8.90406 3.09719 8.90406C1.38728 8.90406 0 10.2908 0 12C0 13.7092 1.38728 15.0959 3.09719 15.0959C4.25541 15.0959 5.26199 14.4606 5.7911 13.5189V13.5254C5.79432 13.5222 5.80077 13.5093 5.80723 13.4931C5.82981 13.4512 5.85239 13.4061 5.87498 13.3642C6.01371 13.1191 6.3202 12.6837 6.788 12.6837H8.30756C8.78182 12.6837 9.09154 13.132 9.22704 13.3738C9.24317 13.4061 9.26253 13.4383 9.27866 13.4706C9.29156 13.4996 9.30124 13.5189 9.30447 13.5254V13.5189C9.36899 13.635 9.43997 13.7447 9.52063 13.8479C9.52385 13.8543 9.52708 13.8576 9.5303 13.8608C9.56257 13.9059 9.59805 13.9479 9.63354 13.9898C9.64322 14.0027 9.65613 14.0156 9.66581 14.0285C9.69484 14.0607 9.72388 14.0962 9.75614 14.1252C9.7755 14.1446 9.79486 14.1672 9.81421 14.1865C9.8368 14.2091 9.86261 14.2317 9.88519 14.2542C9.91423 14.28 9.94326 14.3091 9.9723 14.3349C9.98843 14.3478 10.0046 14.3639 10.0207 14.3768C10.0594 14.409 10.0981 14.4413 10.1401 14.4735C10.1497 14.48 10.1562 14.4864 10.1659 14.4929C10.2143 14.5284 10.2659 14.5638 10.3175 14.5993C10.3175 14.5993 10.3207 14.5993 10.3207 14.6025C10.3756 14.638 10.4337 14.6735 10.4917 14.7057H10.4756C10.5143 14.7283 11.3209 15.0669 11.3209 15.7022V17.2212C11.3209 17.6598 10.9369 17.9565 10.6885 18.1048C9.63677 18.5982 8.90441 19.6657 8.90441 20.9041C8.90441 22.6133 10.2917 24 12.0016 24C13.7115 24 15.0988 22.6133 15.0988 20.9041C15.0988 19.6689 14.3729 18.6047 13.3276 18.108C13.0792 17.9597 12.6856 17.6598 12.6856 17.218H12.6823V15.699H12.6856C12.6856 15.0637 13.4889 14.7251 13.5276 14.7025H13.5083C13.6212 14.638 13.7309 14.5671 13.8373 14.4897C13.8438 14.4832 13.8535 14.48 13.8599 14.4735C13.9019 14.4413 13.9438 14.409 13.9825 14.3736C13.9986 14.3607 14.0115 14.3478 14.0277 14.3349C14.0599 14.3058 14.089 14.28 14.1212 14.251C14.1438 14.2284 14.1664 14.2091 14.189 14.1865C14.2116 14.1639 14.2309 14.1446 14.2503 14.122C14.2793 14.0898 14.3084 14.0575 14.3374 14.0253C14.3503 14.0124 14.3632 13.9962 14.3729 13.9833C14.4084 13.9414 14.4406 13.8995 14.4729 13.8576C14.4794 13.8511 14.4826 13.8447 14.489 13.8382C14.5665 13.7318 14.6374 13.6221 14.702 13.5093V13.5254C14.7245 13.4867 15.0633 12.6837 15.6989 12.6837H17.2184C17.6572 12.6837 17.954 13.0642 18.1024 13.3158C18.596 14.3671 19.6639 15.0992 20.9028 15.0992C22.6127 15.0992 24 13.7124 24 12.0032C24.0064 10.2811 22.6192 8.89438 20.9092 8.89438ZM3.09719 13.6931C2.15513 13.6931 1.39373 12.932 1.39373 11.9903C1.39373 11.0486 2.15513 10.2876 3.09719 10.2876C4.03925 10.2876 4.80064 11.0486 4.80064 11.9903C4.80064 12.932 4.03925 13.6931 3.09719 13.6931ZM10.3014 3.08949C10.3014 2.14781 11.0628 1.38672 12.0048 1.38672C12.9469 1.38672 13.7083 2.14781 13.7083 3.08949C13.7083 4.03117 12.9469 4.79226 12.0048 4.79226C11.0628 4.79226 10.3014 4.02795 10.3014 3.08949ZM13.7083 20.8944C13.7083 21.8361 12.9469 22.5972 12.0048 22.5972C11.0628 22.5972 10.3014 21.8361 10.3014 20.8944C10.3014 19.9527 11.0628 19.1916 12.0048 19.1916C12.9437 19.1916 13.7083 19.9527 13.7083 20.8944ZM12.0048 13.6931C11.0628 13.6931 10.3014 12.932 10.3014 11.9903C10.3014 11.0486 11.0628 10.2876 12.0048 10.2876C12.9469 10.2876 13.7083 11.0486 13.7083 11.9903C13.7083 12.932 12.9437 13.6931 12.0048 13.6931ZM20.9092 13.6931C19.9672 13.6931 19.2058 12.932 19.2058 11.9903C19.2058 11.0486 19.9672 10.2876 20.9092 10.2876C21.8513 10.2876 22.6127 11.0486 22.6127 11.9903C22.6127 12.932 21.8513 13.6931 20.9092 13.6931Z" fill="#76BC21"/>
</svg>