<svg xmlns="http://www.w3.org/2000/svg" width="20" height="22" viewBox="0 0 20 22" fill="none">
  <path d="M8.268 20C8.44355 20.304 8.69602 20.5565 9.00005 20.732C9.30407 20.9075 9.64895 20.9999 10 20.9999C10.3511 20.9999 10.6959 20.9075 11 20.732C11.304 20.5565 11.5565 20.304 11.732 20M1.262 14.326C1.13137 14.4692 1.04516 14.6472 1.01386 14.8385C0.982559 15.0298 1.00752 15.226 1.08571 15.4034C1.1639 15.5807 1.29194 15.7316 1.45426 15.8375C1.61658 15.9434 1.80618 15.9999 2 16H18C18.1938 16.0001 18.3834 15.9438 18.5459 15.8381C18.7083 15.7324 18.8365 15.5817 18.9149 15.4045C18.9933 15.2273 19.0185 15.0311 18.9874 14.8398C18.9564 14.6485 18.8704 14.4703 18.74 14.327C17.41 12.956 16 11.499 16 7C16 5.4087 15.3679 3.88258 14.2426 2.75736C13.1174 1.63214 11.5913 1 10 1C8.4087 1 6.88258 1.63214 5.75736 2.75736C4.63214 3.88258 4 5.4087 4 7C4 11.499 2.589 12.956 1.262 14.326Z" stroke="#1E1E1E" stroke-width="2" stroke-linecap="round" stroke-linejoin="round"/>
</svg>