<svg xmlns="http://www.w3.org/2000/svg" width="73" height="73" viewBox="0 0 73 73" fill="none">
  <path d="M36.5 27.375V39.5416M36.5 51.7083H36.5304M66.0954 54.75L41.7621 12.1666C41.2315 11.2304 40.4621 10.4517 39.5323 9.90993C38.6025 9.36815 37.5457 9.0827 36.4696 9.0827C35.3934 9.0827 34.3366 9.36815 33.4068 9.90993C32.4771 10.4517 31.7076 11.2304 31.1771 12.1666L6.84372 54.75C6.30742 55.6788 6.0262 56.7328 6.02858 57.8054C6.03095 58.8779 6.31683 59.9307 6.85724 60.8571C7.39765 61.7835 8.17338 62.5506 9.10579 63.0806C10.0382 63.6106 11.0942 63.8846 12.1666 63.875H60.8333C61.9006 63.8739 62.9489 63.592 63.8728 63.0576C64.7967 62.5233 65.5638 61.7552 66.0969 60.8306C66.6301 59.906 66.9107 58.8574 66.9104 57.7901C66.9101 56.7228 66.629 55.6743 66.0954 54.75Z" stroke="#D41C1C" stroke-width="2" stroke-linecap="round" stroke-linejoin="round"/>
</svg>