<svg xmlns="http://www.w3.org/2000/svg" width="32" height="32" viewBox="0 0 32 32" fill="none">
  <path d="M21.25 19V22.3L23.65 23.8M21.25 1V7M28.75 9.25V7C28.75 6.20435 28.4339 5.44129 27.8713 4.87868C27.3087 4.31607 26.5456 4 25.75 4H4.75C3.95435 4 3.19129 4.31607 2.62868 4.87868C2.06607 5.44129 1.75 6.20435 1.75 7V28C1.75 28.7956 2.06607 29.5587 2.62868 30.1213C3.19129 30.6839 3.95435 31 4.75 31H10M1.75 13H9.25M9.25 1V7M30.25 22C30.25 26.9706 26.2206 31 21.25 31C16.2794 31 12.25 26.9706 12.25 22C12.25 17.0294 16.2794 13 21.25 13C26.2206 13 30.25 17.0294 30.25 22Z" stroke="#74BC1F" stroke-width="2" stroke-linecap="round" stroke-linejoin="round"/>
</svg>