<svg xmlns="http://www.w3.org/2000/svg" width="24" height="24" viewBox="0 0 24 24" fill="none">
  <path d="M4 12H10.2165C10.2201 12 10.2233 12.0019 10.2251 12.0049L11.9883 14.9803C11.9928 14.9878 12.004 14.9864 12.0065 14.978L13.7713 9.02197C13.7737 9.0136 13.785 9.0122 13.7895 9.01971L15.5527 11.9951C15.5545 11.9981 15.5577 12 15.5613 12H20M19 14C20.49 12.54 22 10.79 22 8.5C22 7.04131 21.4205 5.64236 20.3891 4.61091C19.3576 3.57946 17.9587 3 16.5 3C14.74 3 13.5 3.5 12 5C10.5 3.5 9.26 3 7.5 3C6.04131 3 4.64236 3.57946 3.61091 4.61091C2.57946 5.64236 2 7.04131 2 8.5C2 10.8 3.5 12.55 5 14L12 21L19 14Z" stroke="#74BC1F" stroke-width="2" stroke-linecap="round"/>
</svg>