<svg width="37" height="36" viewBox="0 0 37 36" fill="none" xmlns="http://www.w3.org/2000/svg">
<path d="M32.25 15.0001V12.0001C32.2495 11.474 32.1106 10.9573 31.8473 10.5018C31.584 10.0464 31.2056 9.66814 30.75 9.4051L20.25 3.4051C19.7939 3.14179 19.2766 3.00317 18.75 3.00317C18.2234 3.00317 17.7061 3.14179 17.25 3.4051L6.75 9.4051C6.29439 9.66814 5.91597 10.0464 5.65269 10.5018C5.38941 10.9573 5.25054 11.474 5.25 12.0001V24.0001C5.25054 24.5262 5.38941 25.0429 5.65269 25.4984C5.91597 25.9538 6.29439 26.3321 6.75 26.5951L17.25 32.5951C17.7061 32.8584 18.2234 32.997 18.75 32.997C19.2766 32.997 19.7939 32.8584 20.25 32.5951L23.25 30.8851M12 6.4051L25.5 14.1301M5.685 10.5001L18.75 18.0001M18.75 18.0001L31.815 10.5001M18.75 18.0001V33.0001M31.155 25.9051L33.75 28.5001M32.25 23.2501C32.25 25.3212 30.5711 27.0001 28.5 27.0001C26.4289 27.0001 24.75 25.3212 24.75 23.2501C24.75 21.179 26.4289 19.5001 28.5 19.5001C30.5711 19.5001 32.25 21.179 32.25 23.2501Z" stroke="#74BC1F" stroke-width="2" stroke-linecap="round" stroke-linejoin="round"/>
</svg>
