<svg xmlns="http://www.w3.org/2000/svg" width="31" height="32" viewBox="0 0 31 32" fill="none">
  <path d="M28.25 13.0001V10.0001C28.2495 9.47401 28.1106 8.95731 27.8473 8.50184C27.584 8.04637 27.2056 7.66814 26.75 7.4051L16.25 1.4051C15.7939 1.14179 15.2766 1.00317 14.75 1.00317C14.2234 1.00317 13.7061 1.14179 13.25 1.4051L2.75 7.4051C2.29439 7.66814 1.91597 8.04637 1.65269 8.50184C1.38941 8.95731 1.25054 9.47401 1.25 10.0001V22.0001C1.25054 22.5262 1.38941 23.0429 1.65269 23.4984C1.91597 23.9538 2.29439 24.3321 2.75 24.5951L13.25 30.5951C13.7061 30.8584 14.2234 30.997 14.75 30.997C15.2766 30.997 15.7939 30.8584 16.25 30.5951L19.25 28.8851M8 4.4051L21.5 12.1301M1.685 8.5001L14.75 16.0001M14.75 16.0001L27.815 8.5001M14.75 16.0001V31.0001M27.155 23.9051L29.75 26.5001M28.25 21.2501C28.25 23.3212 26.5711 25.0001 24.5 25.0001C22.4289 25.0001 20.75 23.3212 20.75 21.2501C20.75 19.179 22.4289 17.5001 24.5 17.5001C26.5711 17.5001 28.25 19.179 28.25 21.2501Z" stroke="#74BC1F" stroke-width="2" stroke-linecap="round" stroke-linejoin="round"/>
</svg>