<svg width="37" height="36" viewBox="0 0 37 36" fill="none" xmlns="http://www.w3.org/2000/svg">
<path d="M13.75 13.5H13.765M22.75 13.5L13.75 22.5M22.75 22.5H22.765M3.25 13.5C4.44347 13.5 5.58807 13.9741 6.43198 14.818C7.27589 15.6619 7.75 16.8065 7.75 18C7.75 19.1935 7.27589 20.3381 6.43198 21.182C5.58807 22.0259 4.44347 22.5 3.25 22.5V25.5C3.25 26.2956 3.56607 27.0587 4.12868 27.6213C4.69129 28.1839 5.45435 28.5 6.25 28.5H30.25C31.0456 28.5 31.8087 28.1839 32.3713 27.6213C32.9339 27.0587 33.25 26.2956 33.25 25.5V22.5C32.0565 22.5 30.9119 22.0259 30.068 21.182C29.2241 20.3381 28.75 19.1935 28.75 18C28.75 16.8065 29.2241 15.6619 30.068 14.818C30.9119 13.9741 32.0565 13.5 33.25 13.5V10.5C33.25 9.70435 32.9339 8.94129 32.3713 8.37868C31.8087 7.81607 31.0456 7.5 30.25 7.5H6.25C5.45435 7.5 4.69129 7.81607 4.12868 8.37868C3.56607 8.94129 3.25 9.70435 3.25 10.5V13.5Z" stroke="#74BC1F" stroke-width="2" stroke-linecap="round" stroke-linejoin="round"/>
</svg>
