<svg xmlns="http://www.w3.org/2000/svg" width="18" height="22" viewBox="0 0 18 22" fill="none">
  <path d="M17 12C17 17 13.5 19.5 9.34 20.95C9.12216 21.0238 8.88554 21.0203 8.67 20.94C4.5 19.5 1 17 1 12V5.00002C1 4.73481 1.10536 4.48045 1.29289 4.29292C1.48043 4.10538 1.73478 4.00002 2 4.00002C4 4.00002 6.5 2.80002 8.24 1.28002C8.45185 1.09902 8.72135 0.999573 9 0.999573C9.27865 0.999573 9.54815 1.09902 9.76 1.28002C11.51 2.81002 14 4.00002 16 4.00002C16.2652 4.00002 16.5196 4.10538 16.7071 4.29292C16.8946 4.48045 17 4.73481 17 5.00002V12Z" stroke="#74BC1F" stroke-width="2" stroke-linecap="round" stroke-linejoin="round"/>
</svg>