<svg xmlns="http://www.w3.org/2000/svg" width="37" height="36" viewBox="0 0 37 36" fill="none">
  <path d="M30.2499 4.49989V10.4999M33.2499 7.49989H27.2499M6.24991 25.4999V28.4999M7.74991 26.9999H4.74991M15.1554 23.2499C15.0215 22.7308 14.7509 22.257 14.3718 21.878C13.9928 21.4989 13.519 21.2283 12.9999 21.0944L3.79741 18.7214C3.64041 18.6768 3.50222 18.5823 3.40383 18.4521C3.30543 18.3218 3.2522 18.1631 3.2522 17.9999C3.2522 17.8367 3.30543 17.6779 3.40383 17.5477C3.50222 17.4175 3.64041 17.3229 3.79741 17.2784L12.9999 14.9039C13.5188 14.7701 13.9924 14.4997 14.3715 14.1209C14.7506 13.7421 15.0213 13.2687 15.1554 12.7499L17.5284 3.54739C17.5725 3.38976 17.667 3.2509 17.7974 3.15198C17.9278 3.05306 18.087 2.99951 18.2507 2.99951C18.4143 2.99951 18.5735 3.05306 18.7039 3.15198C18.8343 3.2509 18.9288 3.38976 18.9729 3.54739L21.3444 12.7499C21.4783 13.269 21.7489 13.7427 22.128 14.1218C22.5071 14.5009 22.9808 14.7715 23.4999 14.9054L32.7024 17.2769C32.8607 17.3205 33.0002 17.4149 33.0997 17.5455C33.1991 17.6761 33.253 17.8357 33.253 17.9999C33.253 18.164 33.1991 18.3237 33.0997 18.4543C33.0002 18.5849 32.8607 18.6792 32.7024 18.7229L23.4999 21.0944C22.9808 21.2283 22.5071 21.4989 22.128 21.878C21.7489 22.257 21.4783 22.7308 21.3444 23.2499L18.9714 32.4524C18.9273 32.61 18.8328 32.7489 18.7024 32.8478C18.572 32.9467 18.4128 33.0003 18.2492 33.0003C18.0855 33.0003 17.9263 32.9467 17.7959 32.8478C17.6655 32.7489 17.571 32.61 17.5269 32.4524L15.1554 23.2499Z" stroke="#74BC1F" stroke-width="2" stroke-linecap="round" stroke-linejoin="round"/>
</svg>