<svg width="24" height="24" viewBox="0 0 24 24" fill="none" xmlns="http://www.w3.org/2000/svg">
<path d="M16.0112 19.4972L8.70322 12.0002L16.0112 4.50324C16.1421 4.36929 16.2153 4.18948 16.2153 4.00224C16.2153 3.815 16.1421 3.63518 16.0112 3.50124C15.9477 3.43638 15.8718 3.38485 15.7881 3.34968C15.7044 3.3145 15.6145 3.29639 15.5237 3.29639C15.4329 3.29639 15.343 3.3145 15.2593 3.34968C15.1756 3.38485 15.0998 3.43638 15.0362 3.50124L7.26022 11.4767C7.1237 11.6168 7.04729 11.8046 7.04729 12.0002C7.04729 12.1958 7.1237 12.3837 7.26022 12.5237L15.0347 20.4992C15.0983 20.5646 15.1743 20.6165 15.2583 20.6519C15.3423 20.6874 15.4326 20.7056 15.5237 20.7056C15.6149 20.7056 15.7051 20.6874 15.7891 20.6519C15.8731 20.6165 15.9491 20.5646 16.0127 20.4992C16.1436 20.3653 16.2168 20.1855 16.2168 19.9982C16.2168 19.811 16.1436 19.6312 16.0127 19.4972L16.0112 19.4972Z" fill="#666666"/>
</svg>
