<svg width="70" height="70" viewBox="0 0 70 70" fill="none" xmlns="http://www.w3.org/2000/svg">
<g id="Group">
<path id="Vector" d="M2.59743 0.123087C1.65407 0.410196 0.820089 1.12113 0.327901 2.05082C0.0818075 2.48832 0.0681356 2.99418 0.02712 8.8184C-0.000223767 12.2774 0.02712 15.2442 0.0681356 15.4219C0.273214 16.2696 1.35329 16.5704 1.9822 15.9278L2.32399 15.5996V9.36527V3.11723L2.72048 2.72074L3.11696 2.32426H9.36501H15.5994L15.9275 1.98246C16.2693 1.65434 16.365 1.09379 16.1873 0.615274C15.9549 0.0273838 15.6541 4.00543e-05 9.13259 0.0137119C5.72829 0.0137119 2.78884 0.0683994 2.59743 0.123087Z" fill="white"/>
<path id="Vector_2" d="M54.3455 0.150431C53.6345 0.546914 53.4978 1.42191 54.072 1.98246L54.4001 2.32426H60.6345H66.8826L67.279 2.72074L67.6755 3.11723V9.36527V15.5996L68.0173 15.9278C68.6462 16.5704 69.7263 16.2696 69.9314 15.4219C69.9724 15.2442 69.9998 12.2774 69.9724 8.8184C69.9314 2.99418 69.9177 2.48832 69.6716 2.05082C69.3162 1.3809 68.6599 0.710977 68.0173 0.36918C67.4841 0.0683994 67.3337 0.0683994 61.0447 0.0410557C56.5193 0.0137119 54.5369 0.0410557 54.3455 0.150431Z" fill="white"/>
<path id="Vector_3" d="M30.2829 3.77343C26.5231 4.42968 22.5856 6.39843 19.4548 9.14648C17.6774 10.7187 15.8864 12.9062 14.738 14.9023C13.9997 16.2012 13.2751 18.8809 13.0427 21.2187L12.9606 22.1484H6.98602C2.48797 22.1484 0.943053 22.1894 0.683287 22.3262C-0.0686659 22.709 -0.191713 23.6113 0.437193 24.1992C0.724303 24.459 0.902037 24.4727 6.79462 24.4727H12.8513V25.6758V26.8926H11.8669C11.1013 26.8789 10.7184 26.9609 10.2126 27.1934C8.98212 27.7949 8.20282 29.2031 8.20282 30.8301C8.20282 31.8008 8.66766 33.9199 9.22821 35.5469C9.41962 36.1074 9.82977 37.3926 10.1306 38.4043C11.0466 41.4805 11.8395 42.6289 13.2751 43.0254C14.0134 43.2305 14.0544 43.2715 14.1364 43.7363C14.1774 44.0098 14.2184 44.7207 14.2184 45.3223C14.2321 47.9473 15.2575 50.5449 17.6364 53.8945C18.9352 55.7129 20.9313 57.75 23.7204 60.0605C25.0739 61.1816 26.8239 62.6992 27.6169 63.4375C29.3395 65.0234 30.2556 65.6387 31.6227 66.1035C32.5661 66.418 32.8532 66.4453 34.9997 66.4453C37.1462 66.4453 37.4333 66.418 38.3766 66.1035C39.7438 65.6387 40.6599 65.0371 42.3825 63.4375C43.1755 62.6992 44.9255 61.1816 46.279 60.0469C49.8337 57.0937 51.3239 55.5215 53.0876 52.8418C54.1403 51.2422 54.7282 50.0527 55.2477 48.5078C55.6032 47.4551 55.6852 46.9355 55.7809 45.2949C55.8356 44.2148 55.904 43.3125 55.9313 43.2852C55.9587 43.2578 56.3415 43.1348 56.7653 42.998C58.2145 42.5605 58.9528 41.4531 59.8688 38.4043C60.1696 37.3926 60.5798 36.1074 60.7712 35.5469C61.3317 33.9199 61.7966 31.8008 61.7966 30.8301C61.7966 29.2031 61.0173 27.7949 59.7868 27.1934C59.2809 26.9609 58.8981 26.8789 58.1462 26.8926H57.1481V25.6758V24.4727H63.2048C69.0974 24.4727 69.2751 24.459 69.5622 24.1992C70.1911 23.6113 70.0681 22.709 69.3161 22.3262C69.0563 22.1894 67.5114 22.1484 63.0134 22.1484H57.0388L56.9567 21.2187C56.7243 18.8809 55.9997 16.2012 55.2614 14.9023C51.9938 9.1875 45.8962 4.83984 39.6618 3.77343C37.9665 3.48632 31.9235 3.48632 30.2829 3.77343ZM39.32 6.08398C41.9177 6.53515 44.7751 7.76562 47.0856 9.39257C49.2595 10.9375 51.8434 13.6992 53.0739 15.8047C53.8259 17.1035 54.3727 19.0586 54.6052 21.2871L54.7009 22.1484H34.9997H15.2848L15.3806 21.2871C15.6266 19.0312 16.1735 17.1035 16.9255 15.8047C18.1559 13.6992 20.7399 10.9375 22.9138 9.39257C25.1696 7.80664 28.0681 6.54882 30.57 6.09765C32.1423 5.81054 37.7067 5.81054 39.32 6.08398ZM17.4997 26.3867V28.2871L16.9255 28.4375C16.5973 28.5195 16.1188 28.6426 15.8591 28.7246C15.5993 28.793 15.3395 28.8477 15.2848 28.8477C15.2165 28.8477 15.1755 27.8633 15.1755 26.6602V24.4727H16.3376H17.4997V26.3867ZM24.8825 26.6875C25.4841 27.9043 25.9489 28.916 25.9352 28.9297C25.9216 28.9434 20.2477 28.2324 19.8649 28.1641C19.8376 28.1641 19.8239 27.3301 19.8239 26.3184V24.4727H21.82H23.8024L24.8825 26.6875ZM32.1286 24.5137C32.1286 24.5273 31.2673 25.4023 30.2282 26.4414L28.3278 28.3418L27.3571 26.4141L26.3864 24.4727H29.2575C30.8298 24.4727 32.1286 24.4863 32.1286 24.5137ZM42.6559 26.3867C42.1227 27.4394 41.6852 28.3008 41.6579 28.3008C41.6442 28.3008 40.7692 27.4394 39.7165 26.3867L37.8024 24.4727H40.7145H43.613L42.6559 26.3867ZM50.1755 26.3184C50.1755 27.3301 50.1618 28.1641 50.1481 28.1641C49.7516 28.2324 44.0778 28.9434 44.0641 28.9297C44.0505 28.916 44.5153 27.9043 45.1169 26.6875L46.197 24.4727H48.1794H50.1755V26.3184ZM54.8239 26.6602C54.8239 27.8633 54.7829 28.8477 54.7282 28.8477C54.6599 28.8477 54.4001 28.793 54.1403 28.7246C53.8806 28.6426 53.402 28.5195 53.0876 28.4375L52.4997 28.2871V26.3867V24.4727H53.6618H54.8239V26.6602ZM33.7145 37.8437C33.6325 37.9121 30.488 36.6816 30.3102 36.5176C30.2556 36.4629 29.9821 35.123 29.7224 33.5644L29.2438 30.707L31.4724 28.4785L33.7009 26.25L33.7419 32.0059C33.7556 35.1777 33.7419 37.8027 33.7145 37.8437ZM40.277 33.5644C40.0173 35.123 39.7438 36.4629 39.6891 36.5176C39.5661 36.627 36.5036 37.8711 36.3395 37.8711C36.2849 37.8711 36.2302 35.2461 36.2302 32.0332V26.1816L38.486 28.4512L40.7556 30.707L40.277 33.5644ZM12.3727 29.3398C12.8786 29.5723 12.988 29.9004 12.988 31.2266C12.988 31.6777 13.0563 32.6484 13.1384 33.3594C13.6169 37.8711 13.904 40.6738 13.863 40.7285C13.6306 40.9883 12.8649 39.4434 12.3317 37.5977C12.0993 36.8047 11.7165 35.6016 11.4841 34.9316C10.322 31.5137 10.2536 29.8594 11.2243 29.3125C11.6481 29.0801 11.8259 29.0801 12.3727 29.3398ZM58.7204 29.2852C59.7458 29.75 59.6911 31.4727 58.5153 34.9316C58.2829 35.6016 57.9001 36.8047 57.6677 37.5977C57.1345 39.4434 56.3552 40.9883 56.1364 40.7285C56.1091 40.7012 56.2321 39.3203 56.4098 37.666C56.5876 36.0117 56.8063 33.7695 56.8747 32.6758C57.1071 29.5176 57.0934 29.5859 57.5993 29.3398C58.1325 29.0801 58.2692 29.0801 58.7204 29.2852ZM22.8317 30.8984C24.6774 31.1172 26.3727 31.3359 26.5915 31.3769L27.0153 31.4453L27.3845 33.7422C27.5895 35 27.7536 36.0664 27.7536 36.1211C27.7536 36.1895 26.113 36.2305 24.0895 36.2305H20.4391L18.2927 33.6602C17.1169 32.2519 16.1872 31.0762 16.2009 31.0625C16.3513 30.8984 18.7302 30.3926 19.072 30.4336C19.3044 30.4609 20.986 30.6797 22.8317 30.8984ZM52.4724 30.6797C53.1833 30.8711 53.7712 31.0352 53.7985 31.0625C53.8122 31.0762 52.8825 32.2519 51.7067 33.6602L49.5602 36.2305H45.9099C43.8864 36.2305 42.2458 36.1895 42.2458 36.1211C42.2321 35.957 42.9704 31.5137 43.0114 31.459C43.0388 31.4316 44.8571 31.1855 47.0583 30.8984C49.2595 30.6113 51.0915 30.3789 51.1325 30.3652C51.1735 30.3652 51.7751 30.5019 52.4724 30.6797ZM17.2126 36.0117L18.7302 37.8437V44.4883C18.7302 48.1387 18.6891 51.1328 18.6345 51.1328C18.361 51.1328 17.2126 48.7539 16.8845 47.4961C16.7614 47.0586 16.611 45.6777 16.529 44.4336C16.4059 42.4375 15.8591 36.5859 15.6403 34.8223C15.5856 34.4668 15.5856 34.1797 15.613 34.1797C15.654 34.1797 16.3649 35 17.2126 36.0117ZM54.154 36.791C53.7712 40.3867 53.6071 42.1641 53.4567 44.5703C53.32 46.8262 53.1286 47.8105 52.527 49.1367C52.0622 50.1758 51.5016 51.1328 51.3786 51.1328C51.3102 51.1328 51.2692 48.1387 51.2692 44.4883V37.8437L52.8005 36.0117C53.6345 35 54.3454 34.207 54.3727 34.2344C54.4001 34.2617 54.3044 35.4102 54.154 36.791ZM31.3766 39.498L33.7009 40.4414L33.7419 42.3691L33.7829 44.2969H31.6638H29.5583L26.5641 41.6855C24.9235 40.25 23.4606 38.9512 23.3102 38.8145C23.0505 38.5547 23.1052 38.5547 26.0446 38.5547L29.0524 38.5684L31.3766 39.498ZM46.6891 38.8145C46.5388 38.9512 45.0759 40.25 43.4352 41.6855L40.4411 44.2969H38.3356H36.2165L36.2575 42.3691L36.2985 40.4414L38.6227 39.498L40.947 38.5684L43.9548 38.5547C46.8942 38.5547 46.9489 38.5547 46.6891 38.8145ZM24.445 42.916C26.113 44.3789 27.4802 45.623 27.4802 45.6914C27.4802 45.7598 26.947 46.5117 26.3044 47.373L25.1286 48.9453H23.0915H21.0544V44.502C21.0544 40.8242 21.0817 40.0586 21.2321 40.1543C21.3415 40.209 22.777 41.4531 24.445 42.916ZM48.945 44.502V48.9453H46.9079H44.8708L43.695 47.373C43.0524 46.5117 42.5192 45.7598 42.5192 45.6914C42.5192 45.582 48.7673 40.0586 48.8903 40.0586C48.9177 40.0586 48.945 42.0547 48.945 44.502ZM33.7692 50.1758V53.7305H31.7868H29.8181L28.5739 52.0898C27.8903 51.1875 27.3024 50.3672 27.2614 50.2578C27.2204 50.1348 27.6306 49.4648 28.2458 48.6445C29.9274 46.4023 29.5446 46.6211 31.8141 46.6211H33.7692V50.1758ZM41.5212 48.3301C42.2184 49.2324 42.779 50.0391 42.779 50.1211C42.7927 50.2031 42.2048 51.0508 41.4938 51.9941L40.195 53.7305H38.2126H36.2302V50.1758V46.6074L38.2399 46.6484L40.2634 46.6895L41.5212 48.3301ZM26.072 52.6504C26.6598 53.4023 27.152 54.0996 27.1794 54.1816C27.1931 54.2773 26.2497 54.7012 24.9235 55.1934L22.6266 56.0273L21.8473 55.2617L21.0544 54.4961V52.8828V51.2695H23.0368H25.0192L26.072 52.6504ZM48.945 52.8828V54.4961L48.1657 55.2617L47.3727 56.0273L45.0759 55.1934C43.7497 54.7012 42.8063 54.2773 42.82 54.1816C42.8474 54.0996 43.3395 53.4023 43.9274 52.6504L44.9802 51.2695H46.9626H48.945V52.8828ZM33.7692 58.3379C33.7692 60.9629 33.8786 60.9355 32.5388 58.5156C32.0739 57.6543 31.5681 56.7383 31.4177 56.4922L31.1442 56.0547H32.4567H33.7692V58.3379ZM38.5817 56.4922C38.4313 56.7383 37.9255 57.6543 37.4606 58.5156C36.1208 60.9355 36.2302 60.9629 36.2302 58.3379V56.0547H37.5427H38.8552L38.5817 56.4922ZM30.7614 60.1152C31.9099 62.207 32.8806 63.957 32.9079 64.0117C32.9899 64.1758 31.8415 63.7246 31.1852 63.3418C30.8571 63.1504 30.0641 62.4941 29.4079 61.8926C28.7653 61.291 27.4665 60.1562 26.5231 59.377C25.5798 58.584 24.8005 57.9004 24.7731 57.8457C24.7458 57.75 28.1774 56.3555 28.5192 56.3418C28.5876 56.3281 29.5993 58.0371 30.7614 60.1152ZM43.3806 57.0254C44.4196 57.4219 45.2399 57.7773 45.2263 57.8457C45.1989 57.9004 44.4196 58.584 43.4763 59.377C42.5329 60.1562 41.2341 61.291 40.5915 61.8926C39.9352 62.4941 39.1423 63.1504 38.8141 63.3418C38.1579 63.7246 37.0095 64.1758 37.0915 64.0117C37.9802 62.3301 41.3571 56.3281 41.4118 56.3281C41.4528 56.3281 42.3415 56.6426 43.3806 57.0254Z" fill="white"/>
<path id="Vector_4" d="M0.409932 54.0039C0.259542 54.1543 0.109151 54.414 0.0681356 54.5781C0.02712 54.7558 -0.000223769 57.7226 0.02712 61.1816C0.0681356 67.334 0.0681356 67.4844 0.368917 68.0176C0.710714 68.6601 1.38064 69.3164 2.05056 69.6719C2.48806 69.9179 2.99392 69.9316 8.81814 69.9726C12.2771 70 15.2439 69.9726 15.4216 69.9316C16.2693 69.7265 16.5701 68.6465 15.9275 68.0176L15.5994 67.6758H9.36501H3.11696L2.72048 67.2793L2.32399 66.8828V60.6347V54.4004L1.9822 54.0722C1.55837 53.6484 0.806417 53.6074 0.409932 54.0039Z" fill="white"/>
<path id="Vector_5" d="M68.0173 54.0722L67.6755 54.4004V60.6347V66.8828L67.279 67.2793L66.8825 67.6758H60.6345H54.4001L54.072 68.0176C53.4294 68.6465 53.7302 69.7265 54.5778 69.9316C54.7556 69.9726 57.7224 70 61.1814 69.9726C67.0056 69.9316 67.5114 69.9179 67.9489 69.6719C68.6189 69.3164 69.2888 68.6601 69.6306 68.0176C69.9314 67.4844 69.9314 67.334 69.9724 61.1816C69.9997 57.7226 69.9724 54.7558 69.9314 54.5781C69.7263 53.7304 68.6462 53.4297 68.0173 54.0722Z" fill="white"/>
</g>
</svg>
