<svg width="13" height="13" viewBox="0 0 13 13" fill="none" xmlns="http://www.w3.org/2000/svg">
<path d="M1.33317 9.3346L0.666504 12.0013L3.33317 11.3346L11.0572 3.6106C11.3071 3.36056 11.4476 3.02148 11.4476 2.66793C11.4476 2.31438 11.3071 1.9753 11.0572 1.72526L10.9425 1.6106C10.6925 1.36064 10.3534 1.22021 9.99984 1.22021C9.64628 1.22021 9.30721 1.36064 9.05717 1.6106L1.33317 9.3346ZM7.99984 2.66793L9.99984 4.66793L7.99984 2.66793ZM6.6665 12.0013H11.9998H6.6665Z" fill="white"/>
<path d="M7.99984 2.66793L9.99984 4.66793M6.6665 12.0013H11.9998M1.33317 9.3346L0.666504 12.0013L3.33317 11.3346L11.0572 3.6106C11.3071 3.36056 11.4476 3.02148 11.4476 2.66793C11.4476 2.31438 11.3071 1.9753 11.0572 1.72526L10.9425 1.6106C10.6925 1.36064 10.3534 1.22021 9.99984 1.22021C9.64628 1.22021 9.30721 1.36064 9.05717 1.6106L1.33317 9.3346Z" stroke="#666666" stroke-linecap="round" stroke-linejoin="round"/>
</svg>
