<svg xmlns="http://www.w3.org/2000/svg" width="12" height="12" viewBox="0 0 12 12" fill="none">
  <mask id="path-1-inside-1_13638_13790" fill="white">
    <path d="M10.4062 6C10.4062 6.07459 10.3766 6.14613 10.3239 6.19887C10.2711 6.25162 10.1996 6.28125 10.125 6.28125H6.28125V10.125C6.28125 10.1996 6.25162 10.2711 6.19887 10.3239C6.14613 10.3766 6.07459 10.4062 6 10.4062C5.92541 10.4062 5.85387 10.3766 5.80113 10.3239C5.74838 10.2711 5.71875 10.1996 5.71875 10.125V6.28125H1.875C1.80041 6.28125 1.72887 6.25162 1.67613 6.19887C1.62338 6.14613 1.59375 6.07459 1.59375 6C1.59375 5.92541 1.62338 5.85387 1.67613 5.80113C1.72887 5.74838 1.80041 5.71875 1.875 5.71875H5.71875V1.875C5.71875 1.80041 5.74838 1.72887 5.80113 1.67613C5.85387 1.62338 5.92541 1.59375 6 1.59375C6.07459 1.59375 6.14613 1.62338 6.19887 1.67613C6.25162 1.72887 6.28125 1.80041 6.28125 1.875V5.71875H10.125C10.1996 5.71875 10.2711 5.74838 10.3239 5.80113C10.3766 5.85387 10.4062 5.92541 10.4062 6Z"/>
  </mask>
  <path d="M10.4062 6C10.4062 6.07459 10.3766 6.14613 10.3239 6.19887C10.2711 6.25162 10.1996 6.28125 10.125 6.28125H6.28125V10.125C6.28125 10.1996 6.25162 10.2711 6.19887 10.3239C6.14613 10.3766 6.07459 10.4062 6 10.4062C5.92541 10.4062 5.85387 10.3766 5.80113 10.3239C5.74838 10.2711 5.71875 10.1996 5.71875 10.125V6.28125H1.875C1.80041 6.28125 1.72887 6.25162 1.67613 6.19887C1.62338 6.14613 1.59375 6.07459 1.59375 6C1.59375 5.92541 1.62338 5.85387 1.67613 5.80113C1.72887 5.74838 1.80041 5.71875 1.875 5.71875H5.71875V1.875C5.71875 1.80041 5.74838 1.72887 5.80113 1.67613C5.85387 1.62338 5.92541 1.59375 6 1.59375C6.07459 1.59375 6.14613 1.62338 6.19887 1.67613C6.25162 1.72887 6.28125 1.80041 6.28125 1.875V5.71875H10.125C10.1996 5.71875 10.2711 5.74838 10.3239 5.80113C10.3766 5.85387 10.4062 5.92541 10.4062 6Z" fill="black"/>
  <path d="M6.28125 6.28125V5.28125H5.28125V6.28125H6.28125ZM5.71875 6.28125H6.71875V5.28125H5.71875V6.28125ZM1.59375 6H0.59375H1.59375ZM5.71875 5.71875V6.71875H6.71875V5.71875H5.71875ZM6 1.59375V0.59375V1.59375ZM6.28125 5.71875H5.28125V6.71875H6.28125V5.71875ZM9.40625 6C9.40625 5.80938 9.48197 5.62656 9.61677 5.49177L11.031 6.90598C11.2713 6.6657 11.4062 6.33981 11.4062 6H9.40625ZM9.61677 5.49177C9.75156 5.35697 9.93438 5.28125 10.125 5.28125V7.28125C10.4648 7.28125 10.7907 7.14626 11.031 6.90598L9.61677 5.49177ZM10.125 5.28125H6.28125V7.28125H10.125V5.28125ZM5.28125 6.28125V10.125H7.28125V6.28125H5.28125ZM5.28125 10.125C5.28125 9.93438 5.35697 9.75156 5.49177 9.61677L6.90598 11.031C7.14626 10.7907 7.28125 10.4648 7.28125 10.125H5.28125ZM5.49177 9.61677C5.62656 9.48197 5.80938 9.40625 6 9.40625V11.4062C6.33981 11.4062 6.6657 11.2713 6.90598 11.031L5.49177 9.61677ZM6 9.40625C6.19062 9.40625 6.37344 9.48197 6.50823 9.61677L5.09402 11.031C5.3343 11.2713 5.66019 11.4062 6 11.4062V9.40625ZM6.50823 9.61677C6.64302 9.75156 6.71875 9.93437 6.71875 10.125H4.71875C4.71875 10.4648 4.85374 10.7907 5.09402 11.031L6.50823 9.61677ZM6.71875 10.125V6.28125H4.71875V10.125H6.71875ZM5.71875 5.28125H1.875V7.28125H5.71875V5.28125ZM1.875 5.28125C2.06562 5.28125 2.24844 5.35697 2.38323 5.49177L0.969019 6.90598C1.2093 7.14626 1.53519 7.28125 1.875 7.28125V5.28125ZM2.38323 5.49177C2.51803 5.62656 2.59375 5.80938 2.59375 6H0.59375C0.59375 6.33981 0.728738 6.6657 0.969019 6.90598L2.38323 5.49177ZM2.59375 6C2.59375 6.19062 2.51802 6.37344 2.38323 6.50823L0.969019 5.09402C0.728739 5.3343 0.59375 5.66019 0.59375 6H2.59375ZM2.38323 6.50823C2.24844 6.64302 2.06563 6.71875 1.875 6.71875V4.71875C1.53519 4.71875 1.2093 4.85374 0.969019 5.09402L2.38323 6.50823ZM1.875 6.71875H5.71875V4.71875H1.875V6.71875ZM6.71875 5.71875V1.875H4.71875V5.71875H6.71875ZM6.71875 1.875C6.71875 2.06563 6.64302 2.24844 6.50823 2.38323L5.09402 0.969019C4.85374 1.2093 4.71875 1.53519 4.71875 1.875H6.71875ZM6.50823 2.38323C6.37344 2.51802 6.19062 2.59375 6 2.59375V0.59375C5.66019 0.59375 5.3343 0.728739 5.09402 0.969019L6.50823 2.38323ZM6 2.59375C5.80938 2.59375 5.62656 2.51803 5.49177 2.38323L6.90598 0.969019C6.6657 0.728738 6.33981 0.59375 6 0.59375V2.59375ZM5.49177 2.38323C5.35697 2.24844 5.28125 2.06562 5.28125 1.875H7.28125C7.28125 1.53519 7.14626 1.2093 6.90598 0.969019L5.49177 2.38323ZM5.28125 1.875V5.71875H7.28125V1.875H5.28125ZM6.28125 6.71875H10.125V4.71875H6.28125V6.71875ZM10.125 6.71875C9.93437 6.71875 9.75156 6.64302 9.61677 6.50823L11.031 5.09402C10.7907 4.85374 10.4648 4.71875 10.125 4.71875V6.71875ZM9.61677 6.50823C9.48197 6.37344 9.40625 6.19062 9.40625 6H11.4062C11.4062 5.66019 11.2713 5.3343 11.031 5.09402L9.61677 6.50823Z" fill="#1E1E1E" mask="url(#path-1-inside-1_13638_13790)"/>
</svg>