<svg width="17" height="17" viewBox="0 0 17 17" fill="none" xmlns="http://www.w3.org/2000/svg">
<g id="Group">
<path id="Vector" d="M1.06031 5.06977L1.06029 5.06981C-0.226931 7.72745 -0.00208565 10.8109 1.65283 13.2982C2.14636 14.036 3.14161 15.0312 3.8645 15.5148C5.54429 16.6264 7.4875 17.1058 9.43023 16.8856C12.6116 16.5234 15.3578 14.2863 16.3513 11.2519C17.5211 7.66904 16.1509 3.79735 12.9786 1.71665C11.9417 1.04171 10.6639 0.591145 9.37125 0.449147C5.93571 0.0723148 2.57277 1.94205 1.06031 5.06977ZM7.28146 16.2086L7.28116 16.2085C4.93597 15.8451 2.84057 14.3368 1.73548 12.1963C0.765098 10.3252 0.595788 8.2342 1.2627 6.23347C1.87515 4.38131 3.22905 2.8036 4.97125 1.90262C7.76348 0.454259 11.0342 0.822923 13.4674 2.86303L13.4675 2.86315C14.4838 3.71999 15.3097 4.9492 15.7427 6.24828L15.7427 6.24835C16.9473 9.87695 15.3293 13.7745 11.9053 15.5064L11.9052 15.5065C10.5007 16.2137 8.90283 16.4523 7.28146 16.2086Z" fill="#EC4F4F" stroke="#EC4F4F" stroke-width="0.133333"/>
<path id="Vector_2" d="M8.7518 13.4586L8.89489 13.3155L8.89489 11.1148L8.89489 8.91418L11.1054 8.91418L13.3209 8.91418L13.4245 8.8007C13.5626 8.65267 13.5676 8.40596 13.4343 8.27274C13.3406 8.17899 13.2715 8.17406 11.1153 8.17406L8.89489 8.17406L8.89489 5.99808C8.89489 4.44382 8.88009 3.7925 8.83568 3.71849C8.67286 3.40764 8.32746 3.40764 8.16464 3.71849C8.12023 3.7925 8.10543 4.44382 8.10543 5.99808L8.10543 8.17406L5.88504 8.17406C3.72881 8.17406 3.65973 8.17899 3.56598 8.27274C3.42782 8.4109 3.43769 8.67241 3.58078 8.80563C3.69427 8.91418 3.70414 8.91418 5.89985 8.91418L8.10543 8.91418L8.10543 11.1148L8.10542 13.3155L8.24852 13.4586C8.32746 13.5375 8.44095 13.6017 8.50016 13.6017C8.55937 13.6017 8.67286 13.5375 8.7518 13.4586Z" fill="#EC4F4F"/>
</g>
</svg>
