<svg width="132" height="132" viewBox="0 0 132 132" fill="none" xmlns="http://www.w3.org/2000/svg">
<g id="Group" opacity="0.2">
<path id="Vector" d="M64.5128 0.327835C63.6128 0.842133 63.227 1.71645 63.2013 3.33647V4.77651L61.3499 4.95652C54.2783 5.62511 46.4609 8.45374 40.2379 12.5424C29.0777 19.8969 20.6175 31.6229 16.5545 45.3803C15.7831 47.9775 14.6259 52.8376 14.6002 53.5062C14.6002 53.6348 14.1116 53.7119 13.4944 53.7119C10.6401 53.7119 6.70571 55.4863 4.31422 57.852C-1.36877 63.4322 -1.44591 72.5867 4.13422 78.2439C6.80857 80.944 9.58578 82.204 13.3916 82.4869L15.6545 82.6412L17.0431 86.8327C21.7746 101.156 30.6206 112.522 42.4751 119.568C47.9781 122.834 54.9468 125.122 61.0156 125.662L63.0728 125.842L63.227 127.899C63.3042 129.031 63.4585 130.162 63.5613 130.419C63.8185 130.959 65.0271 131.628 65.7728 131.628C66.5185 131.628 67.7271 130.959 67.9843 130.419C68.0872 130.162 68.2414 129.031 68.3186 127.899L68.4729 125.842L70.6329 125.636C76.9845 125.071 84.2875 122.551 90.1248 118.951C101.285 112.008 109.874 100.719 114.477 86.8841L115.891 82.6412L118.154 82.4869C121.96 82.204 124.737 80.9183 127.411 78.2439C132.966 72.6124 132.914 63.5093 127.257 57.852C124.943 55.5377 120.854 53.7119 118.025 53.7119C116.997 53.7119 116.971 53.6862 116.791 52.7348C115.48 45.1232 112.317 36.7658 108.28 30.26C106.582 27.5342 103.445 23.2655 102.339 22.2369C100.925 20.9255 98.765 21.414 98.1993 23.1884C97.7879 24.3713 98.045 24.9113 100.308 27.8171C105.091 33.9372 108.717 41.3431 110.62 48.8775C111.082 50.7547 111.545 52.6833 111.622 53.1205C111.828 54.1234 111.982 54.0977 108.177 53.6862C98.8165 52.7348 90.9477 49.1604 84.3904 42.8603L81.7675 40.3145L84.3647 37.7944C86.7047 35.5058 86.9619 35.1715 86.9619 34.3229C86.9619 32.6515 85.3933 31.3143 83.8761 31.7C83.5418 31.8029 82.2303 32.8057 80.996 33.9629C77.7045 37.023 73.7187 39.9802 69.3215 42.6288L68.3443 43.2203V26.6085V9.99664H68.9615C70.5815 9.99664 75.9816 11.1538 78.7331 12.0795C82.0246 13.1853 82.7961 13.211 83.7218 12.2338C84.9561 10.9224 84.6218 9.01947 83.0275 8.22231C80.1474 6.75656 72.2272 4.85366 69.0643 4.85366C68.37 4.85366 68.3443 4.80223 68.3443 3.43933C68.3443 1.74216 67.9586 0.816422 67.0328 0.327835C66.1585 -0.109314 65.3099 -0.109314 64.5128 0.327835ZM63.2013 27.9713V45.946L60.0641 47.2832C51.0639 51.0633 41.2922 53.3262 30.8006 53.9948C26.5833 54.2777 20.1803 54.2262 19.8974 53.9434C19.6917 53.7377 20.926 48.4661 21.8261 45.7403C28.1262 26.4799 42.4751 13.0824 59.7298 10.3824C60.8613 10.2024 62.0956 10.0481 62.507 10.0223L63.2013 9.99664V27.9713ZM80.2246 46.0489C85.8819 51.6548 92.9277 55.6406 100.616 57.5692C105.117 58.7263 107.148 58.9321 113.603 58.9835C120.597 59.0092 121.06 59.1378 123.477 61.4264C125.483 63.3293 126.306 65.2836 126.331 68.1123C126.331 70.0409 126.229 70.5038 125.534 71.9695C124.557 74.001 123.04 75.5696 121.111 76.521C119.723 77.2154 119.466 77.2411 116.123 77.2411C111.725 77.2411 111.828 77.1639 110.774 81.2783C108.871 88.787 105.219 96.4244 100.719 102.365C98.6107 105.116 94.7535 109.128 92.1306 111.236C85.7276 116.379 77.4731 119.876 70.2215 120.494L68.3443 120.648V114.09V107.559L70.2215 107.25C74.1559 106.582 77.8588 104.782 80.5332 102.236C81.8446 101.002 81.9732 100.77 81.9732 99.7673C81.9732 98.893 81.8189 98.5073 81.2275 97.9158C80.0446 96.7587 79.0674 96.8872 77.1131 98.4558C74.4387 100.59 72.1244 101.722 69.4243 102.185L68.3443 102.365V94.0072V85.6498L69.1929 85.4698C70.3758 85.187 72.793 83.9269 73.8216 83.0269C75.0559 81.9726 75.4159 80.9954 75.0302 79.8383C74.3873 77.8839 72.5101 77.6011 70.4272 79.1697C69.6815 79.7354 68.91 80.1983 68.7043 80.1983C68.3957 80.1983 68.3443 77.8068 68.3443 64.6665V49.1347L71.2501 47.4375C72.8187 46.5118 74.8759 45.2517 75.8016 44.6089C76.7274 43.966 77.4988 43.4517 77.5245 43.4517C77.5502 43.426 78.7588 44.6089 80.2246 46.0489ZM63.2013 65.7979C63.2013 74.2839 63.0985 79.9411 62.9699 79.9411C62.8413 79.9411 62.2242 79.5554 61.5813 79.0668C59.3441 77.3439 58.5212 77.2154 57.2355 78.3725C56.0783 79.4011 56.0526 80.8411 57.1583 82.024C58.2384 83.1812 60.8098 84.8012 62.1213 85.1613L63.2013 85.4441V93.7757V102.107L62.3784 101.927C59.9355 101.387 56.9269 99.7673 54.484 97.6073C53.3011 96.5787 52.9411 96.3987 52.0153 96.3987C50.4725 96.3987 49.5724 97.3244 49.5724 98.9187C49.5724 99.9473 49.701 100.204 50.601 101.079C53.5068 103.805 57.2355 105.887 60.887 106.762L63.2013 107.327V113.936V120.571H62.1984C58.5984 120.571 51.8096 118.616 47.2067 116.276C37.975 111.57 30.3891 103.573 25.169 93.1072C22.6747 88.1185 21.4403 84.4669 19.7174 76.8553C19.0231 73.7953 18.7403 72.9981 18.1746 72.4067C17.2488 71.4809 15.9631 71.4552 14.9088 72.3552C13.9059 73.1781 13.7516 74.0267 14.1887 75.8782L14.523 77.3696H13.5459C11.4115 77.3696 8.63433 75.8267 7.01429 73.7438C3.46563 69.1152 5.21424 62.1979 10.6144 59.6007C11.8487 59.0092 12.0801 58.9835 16.0145 59.1121C27.2519 59.4721 35.0692 59.1121 41.858 57.9292C47.9781 56.8749 54.7411 54.972 59.987 52.8633C61.5556 52.2205 62.8927 51.7062 63.0213 51.6805C63.1242 51.6548 63.2013 58.0063 63.2013 65.7979Z" fill="white"/>
<path id="Vector_2" d="M84.4932 63.8693C83.5932 64.3836 83.2589 65.0008 83.2589 66.1836C83.2589 68.0351 85.1875 69.1409 86.9619 68.3437C87.8104 67.958 88.479 66.5179 88.2733 65.5665C87.939 63.9722 85.9075 63.0721 84.4932 63.8693Z" fill="white"/>
<path id="Vector_3" d="M44.9437 63.6636C43.5294 64.1779 42.8608 65.7722 43.5294 67.1608C44.3008 68.7809 46.2809 69.1409 47.5409 67.8809C49.4181 65.978 47.438 62.7636 44.9437 63.6636Z" fill="white"/>
<path id="Vector_4" d="M50.9609 70.2466C50.6781 70.4266 50.0352 70.8637 49.5466 71.2494C47.798 72.6123 45.4837 73.0752 43.6322 72.458C43.1436 72.278 42.2436 71.7637 41.6264 71.3009C40.4436 70.3751 39.2092 70.1694 38.2321 70.6837C37.6149 71.018 36.972 72.2523 36.972 73.1009C36.972 74.8752 41.035 77.4982 44.2236 77.8067C47.5152 78.0896 50.7809 77.0353 53.1467 74.901C54.3039 73.8466 54.4582 73.5895 54.4582 72.6895C54.4582 71.4037 54.1239 70.7866 53.1724 70.298C52.2724 69.8351 51.681 69.8094 50.9609 70.2466Z" fill="white"/>
<path id="Vector_5" d="M45.8694 89.4814C43.0665 90.9214 40.5721 94.0586 40.5721 96.1158C40.5721 97.3244 41.755 98.4559 43.0151 98.4559C44.3265 98.4559 44.7894 98.1473 45.6637 96.5787C46.4094 95.2672 47.4894 94.3415 49.1095 93.6472C50.8067 92.9015 51.2181 90.6128 49.8552 89.4042C48.8009 88.4785 47.798 88.4785 45.8694 89.4814Z" fill="white"/>
<path id="Vector_6" d="M119.851 9.9966C118.951 10.3823 118.437 11.4109 118.308 13.1853L118.154 14.8053L116.508 14.9596C114.528 15.1139 113.577 15.7053 113.268 16.9653C112.78 18.8682 113.937 19.9997 116.56 20.2311L118.231 20.3597V21.414C118.231 23.8826 119.26 25.4255 120.931 25.4255C122.603 25.4255 123.631 23.8826 123.631 21.3626V20.2826H124.737C127.231 20.2826 128.774 19.254 128.774 17.5825C128.774 15.911 127.231 14.8824 124.737 14.8824H123.631V13.7767C123.631 12.3367 123.22 10.9481 122.628 10.408C122.037 9.86803 120.623 9.66231 119.851 9.9966Z" fill="white"/>
<path id="Vector_7" d="M90.4334 14.3425C89.4563 15.3454 89.4048 16.8368 90.3048 17.8911C90.8191 18.4826 91.1277 18.6111 92.1306 18.6111C93.1335 18.6111 93.4421 18.4826 93.9564 17.8911C95.3707 16.2454 94.2392 13.5967 92.1306 13.5967C91.4363 13.5967 90.9992 13.8025 90.4334 14.3425Z" fill="white"/>
<path id="Vector_8" d="M109.462 112.29C108.742 112.933 108.639 113.19 108.537 114.836L108.382 116.662L106.608 116.765C104.962 116.842 104.731 116.945 104.062 117.691C103.034 118.822 103.034 120.082 104.062 121.111C104.757 121.779 104.962 121.856 106.608 121.856H108.408L108.511 123.656C108.562 124.942 108.742 125.636 109.128 126.151C110.054 127.385 111.571 127.539 112.857 126.511C113.397 126.099 113.5 125.739 113.602 123.991L113.731 121.985L115.66 121.856C117.845 121.702 118.077 121.599 118.643 120.519C119.157 119.516 118.951 118.282 118.103 117.485C117.588 116.996 117.1 116.868 115.531 116.765L113.602 116.636V114.862C113.602 113.216 113.525 113.01 112.857 112.316C111.828 111.313 110.568 111.288 109.462 112.29Z" fill="white"/>
</g>
</svg>
