<svg width="24" height="24" viewBox="0 0 24 24" fill="none" xmlns="http://www.w3.org/2000/svg">
<g id="icon / password">
<path id="Vector" d="M19.5 7.875H16.125V5.25C16.125 4.15598 15.6904 3.10677 14.9168 2.33318C14.1432 1.5596 13.094 1.125 12 1.125C10.906 1.125 9.85677 1.5596 9.08318 2.33318C8.3096 3.10677 7.875 4.15598 7.875 5.25V7.875H4.5C4.20163 7.875 3.91548 7.99353 3.7045 8.2045C3.49353 8.41548 3.375 8.70163 3.375 9V19.5C3.375 19.7984 3.49353 20.0845 3.7045 20.2955C3.91548 20.5065 4.20163 20.625 4.5 20.625H19.5C19.7984 20.625 20.0845 20.5065 20.2955 20.2955C20.5065 20.0845 20.625 19.7984 20.625 19.5V9C20.625 8.70163 20.5065 8.41548 20.2955 8.2045C20.0845 7.99353 19.7984 7.875 19.5 7.875ZM8.625 5.25C8.625 4.35489 8.98058 3.49645 9.61351 2.86351C10.2464 2.23058 11.1049 1.875 12 1.875C12.8951 1.875 13.7535 2.23058 14.3865 2.86351C15.0194 3.49645 15.375 4.35489 15.375 5.25V7.875H8.625V5.25ZM19.875 19.5C19.875 19.5995 19.8355 19.6948 19.7652 19.7652C19.6948 19.8355 19.5995 19.875 19.5 19.875H4.5C4.40054 19.875 4.30516 19.8355 4.23484 19.7652C4.16451 19.6948 4.125 19.5995 4.125 19.5V9C4.125 8.90054 4.16451 8.80516 4.23484 8.73483C4.30516 8.66451 4.40054 8.625 4.5 8.625H19.5C19.5995 8.625 19.6948 8.66451 19.7652 8.73483C19.8355 8.80516 19.875 8.90054 19.875 9V19.5ZM12.75 14.25C12.75 14.3983 12.706 14.5433 12.6236 14.6667C12.5412 14.79 12.4241 14.8861 12.287 14.9429C12.15 14.9997 11.9992 15.0145 11.8537 14.9856C11.7082 14.9566 11.5746 14.8852 11.4697 14.7803C11.3648 14.6754 11.2933 14.5418 11.2644 14.3963C11.2355 14.2508 11.2503 14.1 11.3071 13.963C11.3639 13.8259 11.46 13.7088 11.5833 13.6264C11.7067 13.544 11.8517 13.5 12 13.5C12.1989 13.5 12.3897 13.579 12.5303 13.7197C12.671 13.8603 12.75 14.0511 12.75 14.25Z" fill="#1E1E1E"/>
</g>
</svg>
