<svg width="131" height="22" viewBox="0 0 131 22" fill="none" xmlns="http://www.w3.org/2000/svg">
<path fill-rule="evenodd" clip-rule="evenodd" d="M10.5834 4.71429C11.3818 4.71429 12.0875 4.31737 12.5139 3.71008H25.5355C26.7656 3.78726 29.2481 4.63615 29.3376 7.41438C29.427 10.1926 26.9147 11.3502 25.6474 11.5817H23.1187C22.4154 11.5817 21.8453 12.1518 21.8453 12.855C21.8453 13.5583 22.4154 14.1284 23.1187 14.1284H25.6474C27.4366 14.1284 31.7977 12.9708 31.7977 7.41438C31.7977 3.2481 28.5233 1.53594 26.5779 1.11511C26.3322 1.06197 26.0803 1.04762 25.8289 1.04762H12.5436C12.1208 0.415908 11.4007 0 10.5834 0C9.2816 0 8.22628 1.05532 8.22628 2.35714C8.22628 3.65896 9.2816 4.71429 10.5834 4.71429ZM10.5834 3.66667C11.3066 3.66667 11.8929 3.08039 11.8929 2.35714C11.8929 1.6339 11.3066 1.04762 10.5834 1.04762C9.86019 1.04762 9.2739 1.6339 9.2739 2.35714C9.2739 3.08039 9.86019 3.66667 10.5834 3.66667Z" fill="#1BA39B"/>
<path fill-rule="evenodd" clip-rule="evenodd" d="M7.82406 7.39679C6.52938 6.27222 4.51253 7.19183 4.51253 8.90672V17.6519C5.17057 18.0701 5.60723 18.8055 5.60723 19.6429C5.60723 20.9447 4.55191 22 3.25009 22C1.94827 22 0.892944 20.9447 0.892944 19.6429C0.892944 18.8256 1.30885 18.1055 1.94056 17.6826V2.91996C1.94056 1.8859 2.77884 1.04762 3.81291 1.04762C4.26409 1.04762 4.7001 1.21054 5.04073 1.50641L13.79 9.10604C14.0766 9.35503 14.2413 9.71606 14.2413 10.0957C14.2413 11.2198 12.9193 11.8225 12.0707 11.0854L7.82406 7.39679ZM3.25009 20.9524C3.97331 20.9524 4.55961 20.3661 4.55961 19.6429C4.55961 18.9196 3.97331 18.3333 3.25009 18.3333C2.52686 18.3333 1.94056 18.9196 1.94056 19.6429C1.94056 20.3661 2.52686 20.9524 3.25009 20.9524Z" fill="#1BA39B"/>
<path fill-rule="evenodd" clip-rule="evenodd" d="M9.02158 11.8137C8.19614 11.1025 6.91675 11.6889 6.91675 12.7785C6.91675 13.1462 7.07565 13.4959 7.35257 13.7378L16.3077 21.5585C16.6336 21.8431 17.0517 22 17.4844 22C18.4724 22 19.2734 21.1991 19.2734 20.2111V10.9192C19.2734 9.81467 20.1688 8.91924 21.2734 8.91924H23.8234C24.2476 9.5428 24.9629 9.95238 25.7739 9.95238C27.0757 9.95238 28.131 8.89706 28.131 7.59524C28.131 6.29342 27.0757 5.23809 25.7739 5.23809C24.9692 5.23809 24.2587 5.64134 23.8334 6.25678H18.8132C17.7086 6.25678 16.8132 7.15221 16.8132 8.25678V14.164C16.8132 15.8751 14.804 16.7961 13.5077 15.6791L9.02158 11.8137ZM27.0834 7.59524C27.0834 8.31848 26.4971 8.90476 25.7739 8.90476C25.0507 8.90476 24.4644 8.31848 24.4644 7.59524C24.4644 6.87199 25.0507 6.28571 25.7739 6.28571C26.4971 6.28571 27.0834 6.87199 27.0834 7.59524Z" fill="#1BA39B"/>
<path d="M47.4289 4.41406V16.5H45.8186L39.7341 7.17822V16.5H38.1321V4.41406H39.7341L45.8435 13.7607V4.41406H47.4289ZM53.7624 16.666C53.1371 16.666 52.5699 16.5609 52.0608 16.3506C51.5572 16.1348 51.1228 15.8332 50.7576 15.4458C50.3979 15.0584 50.1212 14.5991 49.9275 14.0679C49.7338 13.5366 49.6369 12.9556 49.6369 12.3247V11.9761C49.6369 11.2456 49.7449 10.5954 49.9607 10.0254C50.1765 9.44987 50.4698 8.96289 50.8406 8.56445C51.2113 8.16602 51.6319 7.86442 52.1023 7.65967C52.5727 7.45492 53.0596 7.35254 53.5632 7.35254C54.2051 7.35254 54.7585 7.46322 55.2234 7.68457C55.6938 7.90592 56.0784 8.21582 56.3772 8.61426C56.676 9.00716 56.8974 9.47201 57.0412 10.0088C57.1851 10.54 57.2571 11.1211 57.2571 11.752V12.4409H50.55V11.1875H55.7214V11.0713C55.6993 10.6729 55.6163 10.2855 55.4724 9.90918C55.3341 9.53288 55.1127 9.22298 54.8083 8.97949C54.504 8.736 54.0889 8.61426 53.5632 8.61426C53.2146 8.61426 52.8936 8.68896 52.6003 8.83838C52.307 8.98226 52.0552 9.19808 51.845 9.48584C51.6347 9.7736 51.4714 10.125 51.3552 10.54C51.239 10.9551 51.1809 11.4338 51.1809 11.9761V12.3247C51.1809 12.7508 51.239 13.152 51.3552 13.5283C51.477 13.8991 51.6513 14.2256 51.8782 14.5078C52.1106 14.79 52.39 15.0114 52.7165 15.1719C53.0486 15.3324 53.4249 15.4126 53.8454 15.4126C54.3878 15.4126 54.8471 15.3019 55.2234 15.0806C55.5997 14.8592 55.9289 14.5632 56.2112 14.1924L57.1409 14.9312C56.9472 15.2244 56.7009 15.5039 56.4021 15.7695C56.1033 16.0352 55.7353 16.251 55.2981 16.417C54.8664 16.583 54.3546 16.666 53.7624 16.666ZM64.5452 14.4248V7.51855H66.0891V16.5H64.6199L64.5452 14.4248ZM64.8357 12.5322L65.4748 12.5156C65.4748 13.1133 65.4112 13.6667 65.2839 14.1758C65.1622 14.6794 64.963 15.1165 64.6863 15.4873C64.4096 15.8581 64.0471 16.1486 63.5989 16.3589C63.1506 16.5636 62.6055 16.666 61.9636 16.666C61.5264 16.666 61.1252 16.6024 60.76 16.4751C60.4003 16.3478 60.0904 16.1514 59.8303 15.8857C59.5702 15.6201 59.3682 15.2743 59.2243 14.8481C59.086 14.422 59.0168 13.9102 59.0168 13.3125V7.51855H60.5525V13.3291C60.5525 13.7331 60.5967 14.0679 60.6853 14.3335C60.7794 14.5936 60.9039 14.8011 61.0588 14.9561C61.2193 15.1055 61.3964 15.2106 61.5901 15.2715C61.7893 15.3324 61.994 15.3628 62.2043 15.3628C62.8573 15.3628 63.3747 15.2383 63.7566 14.9893C64.1384 14.7347 64.4123 14.3944 64.5784 13.9683C64.7499 13.5366 64.8357 13.0579 64.8357 12.5322ZM69.9656 8.92969V16.5H68.4299V7.51855H69.9241L69.9656 8.92969ZM72.7712 7.46875L72.7629 8.89648C72.6356 8.86882 72.5139 8.85221 72.3977 8.84668C72.287 8.83561 72.1597 8.83008 72.0159 8.83008C71.6617 8.83008 71.349 8.88542 71.0779 8.99609C70.8067 9.10677 70.5771 9.26172 70.3889 9.46094C70.2007 9.66016 70.0513 9.89811 69.9407 10.1748C69.8355 10.446 69.7663 10.7448 69.7331 11.0713L69.3015 11.3203C69.3015 10.778 69.3541 10.2689 69.4592 9.79297C69.5699 9.31706 69.7387 8.89648 69.9656 8.53125C70.1924 8.16048 70.4802 7.87272 70.8288 7.66797C71.183 7.45768 71.6036 7.35254 72.0906 7.35254C72.2012 7.35254 72.3285 7.36637 72.4724 7.39404C72.6163 7.41618 72.7159 7.44108 72.7712 7.46875ZM73.6179 12.1089V11.918C73.6179 11.2705 73.712 10.6701 73.9001 10.1167C74.0883 9.55778 74.3594 9.07357 74.7136 8.66406C75.0678 8.24902 75.4966 7.92806 76.0002 7.70117C76.5038 7.46875 77.0683 7.35254 77.6936 7.35254C78.3244 7.35254 78.8917 7.46875 79.3952 7.70117C79.9044 7.92806 80.336 8.24902 80.6902 8.66406C81.0499 9.07357 81.3238 9.55778 81.5119 10.1167C81.7001 10.6701 81.7942 11.2705 81.7942 11.918V12.1089C81.7942 12.7563 81.7001 13.3568 81.5119 13.9102C81.3238 14.4635 81.0499 14.9478 80.6902 15.3628C80.336 15.7723 79.9071 16.0933 79.4035 16.3257C78.9055 16.5526 78.341 16.666 77.7102 16.666C77.0793 16.666 76.5121 16.5526 76.0085 16.3257C75.5049 16.0933 75.0733 15.7723 74.7136 15.3628C74.3594 14.9478 74.0883 14.4635 73.9001 13.9102C73.712 13.3568 73.6179 12.7563 73.6179 12.1089ZM75.1535 11.918V12.1089C75.1535 12.5571 75.2061 12.9805 75.3113 13.3789C75.4164 13.7718 75.5741 14.1204 75.7844 14.4248C76.0002 14.7292 76.2686 14.9699 76.5896 15.147C76.9105 15.3185 77.2841 15.4043 77.7102 15.4043C78.1308 15.4043 78.4988 15.3185 78.8142 15.147C79.1352 14.9699 79.4008 14.7292 79.6111 14.4248C79.8214 14.1204 79.9791 13.7718 80.0842 13.3789C80.1949 12.9805 80.2502 12.5571 80.2502 12.1089V11.918C80.2502 11.4753 80.1949 11.0575 80.0842 10.6646C79.9791 10.2661 79.8186 9.91471 79.6028 9.61035C79.3925 9.30046 79.1269 9.05697 78.8059 8.87988C78.4905 8.7028 78.1197 8.61426 77.6936 8.61426C77.273 8.61426 76.9022 8.7028 76.5813 8.87988C76.2659 9.05697 76.0002 9.30046 75.7844 9.61035C75.5741 9.91471 75.4164 10.2661 75.3113 10.6646C75.2061 11.0575 75.1535 11.4753 75.1535 11.918ZM86.9158 10.731V11.9927H82.865V10.731H86.9158ZM93.1081 11.7603H89.8791V10.457H93.1081C93.7335 10.457 94.2398 10.3574 94.6272 10.1582C95.0146 9.95898 95.2968 9.68229 95.4739 9.32812C95.6565 8.97396 95.7478 8.56999 95.7478 8.11621C95.7478 7.70117 95.6565 7.31104 95.4739 6.9458C95.2968 6.58057 95.0146 6.28727 94.6272 6.06592C94.2398 5.83903 93.7335 5.72559 93.1081 5.72559H90.2527V16.5H88.6506V4.41406H93.1081C94.0212 4.41406 94.7932 4.57178 95.4241 4.88721C96.0549 5.20264 96.5336 5.63981 96.8601 6.19873C97.1866 6.75212 97.3498 7.38574 97.3498 8.09961C97.3498 8.87435 97.1866 9.53564 96.8601 10.0835C96.5336 10.6313 96.0549 11.0492 95.4241 11.3369C94.7932 11.6191 94.0212 11.7603 93.1081 11.7603ZM100.811 3.75V16.5H99.2673V3.75H100.811ZM108.772 14.4248V7.51855H110.316V16.5H108.846L108.772 14.4248ZM109.062 12.5322L109.701 12.5156C109.701 13.1133 109.638 13.6667 109.51 14.1758C109.389 14.6794 109.19 15.1165 108.913 15.4873C108.636 15.8581 108.274 16.1486 107.825 16.3589C107.377 16.5636 106.832 16.666 106.19 16.666C105.753 16.666 105.352 16.6024 104.987 16.4751C104.627 16.3478 104.317 16.1514 104.057 15.8857C103.797 15.6201 103.595 15.2743 103.451 14.8481C103.313 14.422 103.243 13.9102 103.243 13.3125V7.51855H104.779V13.3291C104.779 13.7331 104.823 14.0679 104.912 14.3335C105.006 14.5936 105.13 14.8011 105.285 14.9561C105.446 15.1055 105.623 15.2106 105.817 15.2715C106.016 15.3324 106.221 15.3628 106.431 15.3628C107.084 15.3628 107.601 15.2383 107.983 14.9893C108.365 14.7347 108.639 14.3944 108.805 13.9683C108.976 13.5366 109.062 13.0579 109.062 12.5322ZM117.886 14.1177C117.886 13.8963 117.836 13.6916 117.737 13.5034C117.642 13.3097 117.446 13.1354 117.147 12.9805C116.854 12.82 116.411 12.6816 115.819 12.5654C115.321 12.4603 114.87 12.3358 114.466 12.1919C114.068 12.048 113.727 11.8737 113.445 11.6689C113.168 11.4642 112.955 11.2235 112.806 10.9468C112.656 10.6701 112.582 10.3464 112.582 9.97559C112.582 9.62142 112.659 9.28662 112.814 8.97119C112.975 8.65576 113.199 8.3763 113.487 8.13281C113.78 7.88932 114.131 7.6984 114.541 7.56006C114.95 7.42171 115.407 7.35254 115.91 7.35254C116.63 7.35254 117.244 7.47982 117.753 7.73438C118.262 7.98893 118.652 8.32926 118.924 8.75537C119.195 9.17594 119.33 9.64355 119.33 10.1582H117.795C117.795 9.90918 117.72 9.66846 117.571 9.43604C117.427 9.19808 117.214 9.00163 116.931 8.84668C116.655 8.69173 116.314 8.61426 115.91 8.61426C115.484 8.61426 115.138 8.68066 114.873 8.81348C114.613 8.94076 114.422 9.104 114.3 9.30322C114.184 9.50244 114.126 9.71273 114.126 9.93408C114.126 10.1001 114.153 10.2495 114.209 10.3823C114.27 10.5096 114.375 10.6286 114.524 10.7393C114.674 10.8444 114.884 10.944 115.155 11.0381C115.426 11.1322 115.772 11.2262 116.193 11.3203C116.929 11.4863 117.535 11.6855 118.01 11.918C118.486 12.1504 118.841 12.4354 119.073 12.7729C119.305 13.1105 119.422 13.52 119.422 14.0015C119.422 14.3944 119.339 14.7541 119.173 15.0806C119.012 15.4071 118.777 15.6893 118.467 15.9272C118.163 16.1597 117.797 16.3423 117.371 16.4751C116.951 16.6024 116.478 16.666 115.952 16.666C115.161 16.666 114.491 16.5249 113.943 16.2427C113.395 15.9604 112.98 15.5952 112.698 15.147C112.416 14.6987 112.275 14.2256 112.275 13.7275H113.819C113.841 14.1481 113.962 14.4829 114.184 14.7319C114.405 14.9754 114.676 15.1497 114.997 15.2549C115.318 15.3545 115.636 15.4043 115.952 15.4043C116.372 15.4043 116.724 15.349 117.006 15.2383C117.294 15.1276 117.512 14.9754 117.662 14.7817C117.811 14.5881 117.886 14.3667 117.886 14.1177ZM129.2 10.0171V11.4614H120.916V10.0171H129.2ZM125.83 6.48926V15.2881H124.294V6.48926H125.83Z" fill="#666666"/>
</svg>
