<svg id="f_icon_sp_5" width="120" height="96" viewBox="0 0 120 96" fill="none"
    xmlns="http://www.w3.org/2000/svg">
    <rect x="20" y="75" width="81" height="21" rx="10.5" fill="#25B18E" />
    <path
        d="M35.017 82.376V85.183H38.559V86.632H35.017V89.495H39.511V91H33.127V80.878H39.511V82.376H35.017ZM47.3187 91H45.6527C45.5267 91 45.4241 90.9673 45.3447 90.902C45.2701 90.8367 45.2071 90.762 45.1557 90.678L43.6367 88.179C43.6134 88.2583 43.5854 88.333 43.5527 88.403C43.5247 88.473 43.4921 88.5383 43.4547 88.599L42.1107 90.678C42.0594 90.7573 41.9964 90.832 41.9217 90.902C41.8471 90.9673 41.7537 91 41.6417 91H40.0947L42.5587 87.297L40.1927 83.818H41.8587C41.9847 83.818 42.0781 83.8367 42.1387 83.874C42.1994 83.9067 42.2531 83.9627 42.2997 84.042L43.8047 86.436C43.8561 86.2773 43.9284 86.121 44.0217 85.967L45.2327 84.077C45.3354 83.9043 45.4684 83.818 45.6317 83.818H47.2207L44.8617 87.22L47.3187 91ZM53.0381 85.337C52.9867 85.4023 52.9354 85.4537 52.8841 85.491C52.8374 85.5283 52.7674 85.547 52.6741 85.547C52.5854 85.547 52.4991 85.5213 52.4151 85.47C52.3311 85.414 52.2307 85.3533 52.1141 85.288C51.9974 85.218 51.8574 85.1573 51.6941 85.106C51.5354 85.05 51.3371 85.022 51.0991 85.022C50.7957 85.022 50.5297 85.078 50.3011 85.19C50.0724 85.2973 49.8811 85.4537 49.7271 85.659C49.5777 85.8643 49.4657 86.114 49.3911 86.408C49.3164 86.6973 49.2791 87.0263 49.2791 87.395C49.2791 87.7777 49.3187 88.1183 49.3981 88.417C49.4821 88.7157 49.6011 88.9677 49.7551 89.173C49.9091 89.3737 50.0957 89.5277 50.3151 89.635C50.5344 89.7377 50.7817 89.789 51.0571 89.789C51.3324 89.789 51.5541 89.7563 51.7221 89.691C51.8947 89.621 52.0394 89.5463 52.1561 89.467C52.2727 89.383 52.3731 89.3083 52.4571 89.243C52.5457 89.173 52.6437 89.138 52.7511 89.138C52.8911 89.138 52.9961 89.1917 53.0661 89.299L53.5631 89.929C53.3717 90.153 53.1641 90.342 52.9401 90.496C52.7161 90.6453 52.4827 90.7667 52.2401 90.86C52.0021 90.9487 51.7547 91.0117 51.4981 91.049C51.2461 91.0863 50.9941 91.105 50.7421 91.105C50.2987 91.105 49.8811 91.0233 49.4891 90.86C49.0971 90.692 48.7541 90.4493 48.4601 90.132C48.1661 89.8147 47.9327 89.4273 47.7601 88.97C47.5921 88.508 47.5081 87.983 47.5081 87.395C47.5081 86.8677 47.5827 86.38 47.7321 85.932C47.8861 85.4793 48.1101 85.0897 48.4041 84.763C48.6981 84.4317 49.0621 84.1727 49.4961 83.986C49.9301 83.7993 50.4294 83.706 50.9941 83.706C51.5307 83.706 51.9997 83.7923 52.4011 83.965C52.8071 84.1377 53.1711 84.385 53.4931 84.707L53.0381 85.337ZM59.1509 86.583C59.1509 86.359 59.1183 86.149 59.0529 85.953C58.9923 85.7523 58.8989 85.5773 58.7729 85.428C58.6469 85.2787 58.4859 85.162 58.2899 85.078C58.0986 84.9893 57.8746 84.945 57.6179 84.945C57.1186 84.945 56.7243 85.0873 56.4349 85.372C56.1503 85.6567 55.9683 86.0603 55.8889 86.583H59.1509ZM55.8539 87.626C55.8819 87.9947 55.9473 88.3143 56.0499 88.585C56.1526 88.851 56.2879 89.0727 56.4559 89.25C56.6239 89.4227 56.8223 89.5533 57.0509 89.642C57.2843 89.726 57.5409 89.768 57.8209 89.768C58.1009 89.768 58.3413 89.7353 58.5419 89.67C58.7473 89.6047 58.9246 89.5323 59.0739 89.453C59.2279 89.3737 59.3609 89.3013 59.4729 89.236C59.5896 89.1707 59.7016 89.138 59.8089 89.138C59.9536 89.138 60.0609 89.1917 60.1309 89.299L60.6279 89.929C60.4366 90.153 60.2219 90.342 59.9839 90.496C59.7459 90.6453 59.4963 90.7667 59.2349 90.86C58.9783 90.9487 58.7146 91.0117 58.4439 91.049C58.1779 91.0863 57.9189 91.105 57.6669 91.105C57.1676 91.105 56.7033 91.0233 56.2739 90.86C55.8446 90.692 55.4713 90.447 55.1539 90.125C54.8366 89.7983 54.5869 89.397 54.4049 88.921C54.2229 88.4403 54.1319 87.885 54.1319 87.255C54.1319 86.765 54.2113 86.3053 54.3699 85.876C54.5286 85.442 54.7549 85.0663 55.0489 84.749C55.3476 84.427 55.7093 84.1727 56.1339 83.986C56.5633 83.7993 57.0463 83.706 57.5829 83.706C58.0356 83.706 58.4533 83.7783 58.8359 83.923C59.2186 84.0677 59.5476 84.28 59.8229 84.56C60.0983 84.8353 60.3129 85.176 60.4669 85.582C60.6256 85.9833 60.7049 86.443 60.7049 86.961C60.7049 87.2223 60.6769 87.3997 60.6209 87.493C60.5649 87.5817 60.4576 87.626 60.2989 87.626H55.8539ZM63.7524 80.598V91H62.0234V80.598H63.7524ZM67.2251 80.598V91H65.4961V80.598H67.2251ZM73.5748 86.583C73.5748 86.359 73.5421 86.149 73.4768 85.953C73.4161 85.7523 73.3228 85.5773 73.1968 85.428C73.0708 85.2787 72.9098 85.162 72.7138 85.078C72.5224 84.9893 72.2984 84.945 72.0418 84.945C71.5424 84.945 71.1481 85.0873 70.8588 85.372C70.5741 85.6567 70.3921 86.0603 70.3128 86.583H73.5748ZM70.2778 87.626C70.3058 87.9947 70.3711 88.3143 70.4738 88.585C70.5764 88.851 70.7118 89.0727 70.8798 89.25C71.0478 89.4227 71.2461 89.5533 71.4748 89.642C71.7081 89.726 71.9648 89.768 72.2448 89.768C72.5248 89.768 72.7651 89.7353 72.9658 89.67C73.1711 89.6047 73.3484 89.5323 73.4978 89.453C73.6518 89.3737 73.7848 89.3013 73.8968 89.236C74.0134 89.1707 74.1254 89.138 74.2328 89.138C74.3774 89.138 74.4848 89.1917 74.5548 89.299L75.0518 89.929C74.8604 90.153 74.6458 90.342 74.4078 90.496C74.1698 90.6453 73.9201 90.7667 73.6588 90.86C73.4021 90.9487 73.1384 91.0117 72.8678 91.049C72.6018 91.0863 72.3428 91.105 72.0908 91.105C71.5914 91.105 71.1271 91.0233 70.6978 90.86C70.2684 90.692 69.8951 90.447 69.5778 90.125C69.2604 89.7983 69.0108 89.397 68.8288 88.921C68.6468 88.4403 68.5557 87.885 68.5557 87.255C68.5557 86.765 68.6351 86.3053 68.7938 85.876C68.9524 85.442 69.1788 85.0663 69.4728 84.749C69.7714 84.427 70.1331 84.1727 70.5578 83.986C70.9871 83.7993 71.4701 83.706 72.0068 83.706C72.4594 83.706 72.8771 83.7783 73.2598 83.923C73.6424 84.0677 73.9714 84.28 74.2468 84.56C74.5221 84.8353 74.7368 85.176 74.8908 85.582C75.0494 85.9833 75.1287 86.443 75.1287 86.961C75.1287 87.2223 75.1008 87.3997 75.0448 87.493C74.9888 87.5817 74.8814 87.626 74.7228 87.626H70.2778ZM78.0433 84.7C78.1879 84.5553 78.3396 84.4223 78.4983 84.301C78.6616 84.175 78.8319 84.07 79.0093 83.986C79.1913 83.8973 79.3849 83.8297 79.5903 83.783C79.7956 83.7317 80.0196 83.706 80.2623 83.706C80.6543 83.706 81.0019 83.7737 81.3053 83.909C81.6086 84.0397 81.8606 84.2263 82.0613 84.469C82.2666 84.707 82.4206 84.994 82.5233 85.33C82.6306 85.6613 82.6843 86.0277 82.6843 86.429V91H80.9553V86.429C80.9553 85.9903 80.8549 85.652 80.6543 85.414C80.4536 85.1713 80.1479 85.05 79.7373 85.05C79.4386 85.05 79.1586 85.1177 78.8973 85.253C78.6359 85.3883 78.3886 85.5727 78.1553 85.806V91H76.4263V83.818H77.4833C77.7073 83.818 77.8543 83.923 77.9243 84.133L78.0433 84.7ZM86.6269 91.112C86.0016 91.112 85.5209 90.937 85.1849 90.587C84.8536 90.2323 84.6879 89.7447 84.6879 89.124V85.113H83.9529C83.8596 85.113 83.7802 85.0827 83.7149 85.022C83.6496 84.9613 83.6169 84.8703 83.6169 84.749V84.063L84.7719 83.874L85.1359 81.914C85.1592 81.8207 85.2036 81.7483 85.2689 81.697C85.3342 81.6457 85.4182 81.62 85.5209 81.62H86.4169V83.881H88.3349V85.113H86.4169V89.005C86.4169 89.229 86.4706 89.404 86.5779 89.53C86.6899 89.656 86.8416 89.719 87.0329 89.719C87.1402 89.719 87.2289 89.7073 87.2989 89.684C87.3736 89.656 87.4366 89.628 87.4879 89.6C87.5439 89.572 87.5929 89.5463 87.6349 89.523C87.6769 89.495 87.7189 89.481 87.7609 89.481C87.8122 89.481 87.8542 89.495 87.8869 89.523C87.9196 89.5463 87.9546 89.5837 87.9919 89.635L88.5099 90.475C88.2579 90.685 87.9686 90.8437 87.6419 90.951C87.3152 91.0583 86.9769 91.112 86.6269 91.112Z"
        fill="white" />
    <g clip-path="url(#clip0_2825_20800)">
        <rect width="120" height="66" fill="white" />
        <path
            d="M110 60C110 46.7392 104.732 34.0215 95.3553 24.6447C85.9785 15.2678 73.2608 10 60 10C46.7392 10 34.0215 15.2678 24.6447 24.6447C15.2678 34.0215 10 46.7392 10 60"
            stroke="#E5FBF6" stroke-width="10" stroke-linecap="round" />
        <path
            d="M44.2134 44.896C44.6507 44.8107 45.072 44.752 45.4774 44.72C45.8827 44.688 46.2774 44.672 46.6614 44.672C47.888 44.672 48.9707 44.8587 49.9094 45.232C50.848 45.6053 51.6374 46.1173 52.2774 46.768C52.9174 47.408 53.3974 48.1653 53.7174 49.04C54.048 49.904 54.2134 50.832 54.2134 51.824C54.2134 53.072 53.9894 54.2133 53.5414 55.248C53.104 56.272 52.4907 57.1573 51.7014 57.904C50.912 58.6507 49.968 59.232 48.8694 59.648C47.7814 60.0533 46.5867 60.256 45.2854 60.256C44.528 60.256 43.8027 60.176 43.1094 60.016C42.4267 59.856 41.7814 59.6427 41.1734 59.376C40.576 59.0987 40.0214 58.784 39.5094 58.432C38.9974 58.0693 38.5334 57.6853 38.1174 57.28L39.6534 55.232C39.8134 55.0187 40 54.8587 40.2134 54.752C40.4267 54.6347 40.656 54.576 40.9014 54.576C41.2214 54.576 41.52 54.6667 41.7974 54.848C42.0854 55.0187 42.3947 55.2107 42.7254 55.424C43.0667 55.6267 43.4614 55.8133 43.9094 55.984C44.3574 56.1547 44.912 56.24 45.5734 56.24C46.2347 56.24 46.8 56.1333 47.2694 55.92C47.7387 55.696 48.1174 55.3973 48.4054 55.024C48.704 54.64 48.9174 54.1973 49.0454 53.696C49.184 53.184 49.2534 52.64 49.2534 52.064C49.2534 50.9333 48.9334 50.0747 48.2934 49.488C47.6534 48.8907 46.7467 48.592 45.5734 48.592C44.528 48.592 43.504 48.7893 42.5014 49.184L39.4294 48.352L41.4134 36.688H53.3494V38.736C53.3494 39.0773 53.296 39.3867 53.1894 39.664C53.0827 39.9413 52.912 40.1867 52.6774 40.4C52.4534 40.6027 52.1547 40.7627 51.7814 40.88C51.408 40.9867 50.96 41.04 50.4374 41.04H44.8694L44.2134 44.896ZM56.6799 57.488C56.6799 57.104 56.7492 56.7467 56.8879 56.416C57.0372 56.0853 57.2345 55.7973 57.4799 55.552C57.7359 55.3067 58.0345 55.1147 58.3759 54.976C58.7172 54.8267 59.0905 54.752 59.4959 54.752C59.8905 54.752 60.2585 54.8267 60.5999 54.976C60.9412 55.1147 61.2399 55.3067 61.4959 55.552C61.7519 55.7973 61.9492 56.0853 62.0879 56.416C62.2372 56.7467 62.3119 57.104 62.3119 57.488C62.3119 57.872 62.2372 58.2347 62.0879 58.576C61.9492 58.9067 61.7519 59.1947 61.4959 59.44C61.2399 59.6853 60.9412 59.8773 60.5999 60.016C60.2585 60.1547 59.8905 60.224 59.4959 60.224C59.0905 60.224 58.7172 60.1547 58.3759 60.016C58.0345 59.8773 57.7359 59.6853 57.4799 59.44C57.2345 59.1947 57.0372 58.9067 56.8879 58.576C56.7492 58.2347 56.6799 57.872 56.6799 57.488ZM81.2481 48.336C81.2481 50.3733 81.0295 52.1387 80.5921 53.632C80.1548 55.1253 79.5468 56.3627 78.7681 57.344C78.0001 58.3253 77.0828 59.056 76.0161 59.536C74.9601 60.016 73.8135 60.256 72.5761 60.256C71.3388 60.256 70.1921 60.016 69.1361 59.536C68.0908 59.056 67.1841 58.3253 66.4161 57.344C65.6481 56.3627 65.0455 55.1253 64.6081 53.632C64.1815 52.1387 63.9681 50.3733 63.9681 48.336C63.9681 46.2987 64.1815 44.5333 64.6081 43.04C65.0455 41.5467 65.6481 40.3093 66.4161 39.328C67.1841 38.3467 68.0908 37.6213 69.1361 37.152C70.1921 36.672 71.3388 36.432 72.5761 36.432C73.8135 36.432 74.9601 36.672 76.0161 37.152C77.0828 37.6213 78.0001 38.3467 78.7681 39.328C79.5468 40.3093 80.1548 41.5467 80.5921 43.04C81.0295 44.5333 81.2481 46.2987 81.2481 48.336ZM76.1281 48.336C76.1281 46.7253 76.0268 45.408 75.8241 44.384C75.6215 43.3493 75.3495 42.5387 75.0081 41.952C74.6775 41.3653 74.2988 40.9653 73.8721 40.752C73.4455 40.528 73.0135 40.416 72.5761 40.416C72.1388 40.416 71.7068 40.528 71.2801 40.752C70.8641 40.9653 70.4908 41.3653 70.1601 41.952C69.8401 42.5387 69.5788 43.3493 69.3761 44.384C69.1841 45.408 69.0881 46.7253 69.0881 48.336C69.0881 49.9573 69.1841 51.28 69.3761 52.304C69.5788 53.328 69.8401 54.1387 70.1601 54.736C70.4908 55.3227 70.8641 55.728 71.2801 55.952C71.7068 56.1653 72.1388 56.272 72.5761 56.272C73.0135 56.272 73.4455 56.1653 73.8721 55.952C74.2988 55.728 74.6775 55.3227 75.0081 54.736C75.3495 54.1387 75.6215 53.328 75.8241 52.304C76.0268 51.28 76.1281 49.9573 76.1281 48.336Z"
            fill="#25B18E" />
        <circle r="2.5" transform="matrix(-1 0 0 1 110 59.5)" fill="white" />
        <path d="M102.204 61.2034L96.2041 57.7393V64.6675L102.204 61.2034Z" fill="#25B18E" />
    </g>
    <defs>
        <clipPath id="clip0_2825_20800">
            <rect width="120" height="66" fill="white" />
        </clipPath>
    </defs>
</svg>