<svg id="f_icon_sp_2" width="120" height="97" viewBox="0 0 120 97" fill="none"
    xmlns="http://www.w3.org/2000/svg">
    <rect x="31" y="76" width="59" height="21" rx="10.5" fill="#699EDC" />
    <path
        d="M52.471 86.925V91.02C51.9577 91.398 51.4093 91.6757 50.826 91.853C50.2473 92.0257 49.6267 92.112 48.964 92.112C48.138 92.112 47.389 91.9837 46.717 91.727C46.0497 91.4703 45.478 91.1133 45.002 90.656C44.5307 90.1987 44.1667 89.6527 43.91 89.018C43.6533 88.3833 43.525 87.6903 43.525 86.939C43.525 86.1783 43.6487 85.4807 43.896 84.846C44.1433 84.2113 44.4933 83.6653 44.946 83.208C45.4033 82.7507 45.9563 82.396 46.605 82.144C47.2537 81.892 47.9817 81.766 48.789 81.766C49.1997 81.766 49.5823 81.7987 49.937 81.864C50.2963 81.9293 50.6277 82.0203 50.931 82.137C51.239 82.249 51.519 82.3867 51.771 82.55C52.023 82.7133 52.254 82.893 52.464 83.089L51.925 83.943C51.841 84.0783 51.7313 84.1623 51.596 84.195C51.4607 84.223 51.3137 84.188 51.155 84.09C51.001 84.0013 50.847 83.9127 50.693 83.824C50.539 83.7353 50.3663 83.6583 50.175 83.593C49.9883 83.5277 49.776 83.474 49.538 83.432C49.3047 83.39 49.034 83.369 48.726 83.369C48.2267 83.369 47.774 83.453 47.368 83.621C46.9667 83.789 46.6237 84.0293 46.339 84.342C46.0543 84.6547 45.835 85.0303 45.681 85.469C45.527 85.9077 45.45 86.3977 45.45 86.939C45.45 87.5177 45.5317 88.0357 45.695 88.493C45.863 88.9457 46.0963 89.3307 46.395 89.648C46.6983 89.9607 47.0623 90.201 47.487 90.369C47.9117 90.5323 48.3853 90.614 48.908 90.614C49.2813 90.614 49.615 90.5743 49.909 90.495C50.203 90.4157 50.49 90.3083 50.77 90.173V88.339H49.496C49.3747 88.339 49.279 88.3063 49.209 88.241C49.1437 88.171 49.111 88.087 49.111 87.989V86.925H52.471ZM57.1082 84.706C57.6402 84.706 58.1232 84.7923 58.5572 84.965C58.9958 85.1377 59.3692 85.3827 59.6772 85.7C59.9898 86.0173 60.2302 86.4047 60.3982 86.862C60.5662 87.3193 60.6502 87.8303 60.6502 88.395C60.6502 88.9643 60.5662 89.4777 60.3982 89.935C60.2302 90.3923 59.9898 90.782 59.6772 91.104C59.3692 91.426 58.9958 91.6733 58.5572 91.846C58.1232 92.0187 57.6402 92.105 57.1082 92.105C56.5715 92.105 56.0838 92.0187 55.6452 91.846C55.2065 91.6733 54.8308 91.426 54.5182 91.104C54.2102 90.782 53.9698 90.3923 53.7972 89.935C53.6292 89.4777 53.5452 88.9643 53.5452 88.395C53.5452 87.8303 53.6292 87.3193 53.7972 86.862C53.9698 86.4047 54.2102 86.0173 54.5182 85.7C54.8308 85.3827 55.2065 85.1377 55.6452 84.965C56.0838 84.7923 56.5715 84.706 57.1082 84.706ZM57.1082 90.775C57.7055 90.775 58.1465 90.5743 58.4312 90.173C58.7205 89.7717 58.8652 89.1837 58.8652 88.409C58.8652 87.6343 58.7205 87.044 58.4312 86.638C58.1465 86.232 57.7055 86.029 57.1082 86.029C56.5015 86.029 56.0512 86.2343 55.7572 86.645C55.4678 87.051 55.3232 87.639 55.3232 88.409C55.3232 89.179 55.4678 89.767 55.7572 90.173C56.0512 90.5743 56.5015 90.775 57.1082 90.775ZM65.1472 84.706C65.6792 84.706 66.1622 84.7923 66.5962 84.965C67.0349 85.1377 67.4082 85.3827 67.7162 85.7C68.0289 86.0173 68.2692 86.4047 68.4372 86.862C68.6052 87.3193 68.6892 87.8303 68.6892 88.395C68.6892 88.9643 68.6052 89.4777 68.4372 89.935C68.2692 90.3923 68.0289 90.782 67.7162 91.104C67.4082 91.426 67.0349 91.6733 66.5962 91.846C66.1622 92.0187 65.6792 92.105 65.1472 92.105C64.6106 92.105 64.1229 92.0187 63.6842 91.846C63.2456 91.6733 62.8699 91.426 62.5572 91.104C62.2492 90.782 62.0089 90.3923 61.8362 89.935C61.6682 89.4777 61.5842 88.9643 61.5842 88.395C61.5842 87.8303 61.6682 87.3193 61.8362 86.862C62.0089 86.4047 62.2492 86.0173 62.5572 85.7C62.8699 85.3827 63.2456 85.1377 63.6842 84.965C64.1229 84.7923 64.6106 84.706 65.1472 84.706ZM65.1472 90.775C65.7446 90.775 66.1856 90.5743 66.4702 90.173C66.7596 89.7717 66.9042 89.1837 66.9042 88.409C66.9042 87.6343 66.7596 87.044 66.4702 86.638C66.1856 86.232 65.7446 86.029 65.1472 86.029C64.5406 86.029 64.0902 86.2343 63.7962 86.645C63.5069 87.051 63.3622 87.639 63.3622 88.409C63.3622 89.179 63.5069 89.767 63.7962 90.173C64.0902 90.5743 64.5406 90.775 65.1472 90.775ZM74.5163 86.652C74.3203 86.414 74.1056 86.246 73.8723 86.148C73.6436 86.05 73.3963 86.001 73.1303 86.001C72.869 86.001 72.6333 86.05 72.4233 86.148C72.2133 86.246 72.0336 86.3953 71.8843 86.596C71.735 86.792 71.6206 87.044 71.5413 87.352C71.462 87.6553 71.4223 88.0147 71.4223 88.43C71.4223 88.85 71.455 89.207 71.5203 89.501C71.5903 89.7903 71.6883 90.0283 71.8143 90.215C71.9403 90.397 72.0943 90.53 72.2763 90.614C72.4583 90.6933 72.6613 90.733 72.8853 90.733C73.2446 90.733 73.5503 90.6583 73.8023 90.509C74.0543 90.3597 74.2923 90.1473 74.5163 89.872V86.652ZM76.2453 81.598V92H75.1883C74.9596 92 74.815 91.895 74.7543 91.685L74.6073 90.992C74.318 91.3233 73.9843 91.5917 73.6063 91.797C73.233 92.0023 72.7966 92.105 72.2973 92.105C71.9053 92.105 71.546 92.0233 71.2193 91.86C70.8926 91.6967 70.6103 91.461 70.3723 91.153C70.139 90.8403 69.957 90.4553 69.8263 89.998C69.7003 89.5407 69.6373 89.018 69.6373 88.43C69.6373 87.898 69.7096 87.4033 69.8543 86.946C69.999 86.4887 70.2066 86.092 70.4773 85.756C70.748 85.42 71.0723 85.1587 71.4503 84.972C71.8283 84.7807 72.253 84.685 72.7243 84.685C73.1256 84.685 73.4686 84.748 73.7533 84.874C74.038 85 74.2923 85.1703 74.5163 85.385V81.598H76.2453Z"
        fill="white" />
    <g clip-path="url(#clip0_2825_20797)">
        <rect width="120" height="66" fill="white" />
        <path
            d="M110 60C110 46.7392 104.733 34.0215 95.3558 24.6447C85.979 15.2678 73.2613 10 60.0005 10C46.7397 10 34.022 15.2678 24.6452 24.6447C15.2683 34.0215 10.0005 46.7392 10.0005 60"
            stroke="#EFF3FF" stroke-width="10" stroke-linecap="round" />
        <path
            d="M52.7259 55.52C53.2592 55.52 53.6805 55.6693 53.9899 55.968C54.2992 56.256 54.4539 56.64 54.4539 57.12V60H38.0699V58.4C38.0699 58.0907 38.1339 57.76 38.2619 57.408C38.3899 57.056 38.6139 56.736 38.9339 56.448L45.6539 49.68C46.2299 49.104 46.7312 48.5547 47.1579 48.032C47.5845 47.5093 47.9365 46.9973 48.2139 46.496C48.4912 45.984 48.6992 45.4773 48.8379 44.976C48.9765 44.464 49.0459 43.9253 49.0459 43.36C49.0459 42.432 48.8219 41.7227 48.3739 41.232C47.9365 40.7307 47.2645 40.48 46.3579 40.48C45.6219 40.48 44.9979 40.6773 44.4859 41.072C43.9845 41.456 43.6379 41.936 43.4459 42.512C43.2219 43.0987 42.9285 43.488 42.5659 43.68C42.2032 43.872 41.6859 43.9147 41.0139 43.808L38.3899 43.344C38.5605 42.1813 38.8859 41.168 39.3659 40.304C39.8565 39.44 40.4592 38.72 41.1739 38.144C41.8992 37.568 42.7259 37.1413 43.6539 36.864C44.5819 36.576 45.5792 36.432 46.6459 36.432C47.7979 36.432 48.8325 36.6027 49.7499 36.944C50.6779 37.2747 51.4672 37.7387 52.1179 38.336C52.7685 38.9333 53.2645 39.648 53.6059 40.48C53.9579 41.3013 54.1339 42.208 54.1339 43.2C54.1339 44.0533 54.0112 44.8427 53.7659 45.568C53.5312 46.2933 53.2059 46.9867 52.7899 47.648C52.3739 48.2987 51.8885 48.9333 51.3339 49.552C50.7899 50.16 50.2085 50.7787 49.5899 51.408L45.0299 56.08C45.6165 55.8987 46.1979 55.76 46.7739 55.664C47.3499 55.568 47.8832 55.52 48.3739 55.52H52.7259ZM56.6804 57.488C56.6804 57.104 56.7497 56.7467 56.8884 56.416C57.0377 56.0853 57.235 55.7973 57.4804 55.552C57.7364 55.3067 58.035 55.1147 58.3764 54.976C58.7177 54.8267 59.091 54.752 59.4964 54.752C59.891 54.752 60.259 54.8267 60.6004 54.976C60.9417 55.1147 61.2404 55.3067 61.4964 55.552C61.7524 55.7973 61.9497 56.0853 62.0884 56.416C62.2377 56.7467 62.3124 57.104 62.3124 57.488C62.3124 57.872 62.2377 58.2347 62.0884 58.576C61.9497 58.9067 61.7524 59.1947 61.4964 59.44C61.2404 59.6853 60.9417 59.8773 60.6004 60.016C60.259 60.1547 59.891 60.224 59.4964 60.224C59.091 60.224 58.7177 60.1547 58.3764 60.016C58.035 59.8773 57.7364 59.6853 57.4804 59.44C57.235 59.1947 57.0377 58.9067 56.8884 58.576C56.7497 58.2347 56.6804 57.872 56.6804 57.488ZM81.2486 48.336C81.2486 50.3733 81.0299 52.1387 80.5926 53.632C80.1553 55.1253 79.5473 56.3627 78.7686 57.344C78.0006 58.3253 77.0833 59.056 76.0166 59.536C74.9606 60.016 73.8139 60.256 72.5766 60.256C71.3393 60.256 70.1926 60.016 69.1366 59.536C68.0913 59.056 67.1846 58.3253 66.4166 57.344C65.6486 56.3627 65.0459 55.1253 64.6086 53.632C64.1819 52.1387 63.9686 50.3733 63.9686 48.336C63.9686 46.2987 64.1819 44.5333 64.6086 43.04C65.0459 41.5467 65.6486 40.3093 66.4166 39.328C67.1846 38.3467 68.0913 37.6213 69.1366 37.152C70.1926 36.672 71.3393 36.432 72.5766 36.432C73.8139 36.432 74.9606 36.672 76.0166 37.152C77.0833 37.6213 78.0006 38.3467 78.7686 39.328C79.5473 40.3093 80.1553 41.5467 80.5926 43.04C81.0299 44.5333 81.2486 46.2987 81.2486 48.336ZM76.1286 48.336C76.1286 46.7253 76.0273 45.408 75.8246 44.384C75.6219 43.3493 75.3499 42.5387 75.0086 41.952C74.6779 41.3653 74.2993 40.9653 73.8726 40.752C73.4459 40.528 73.0139 40.416 72.5766 40.416C72.1393 40.416 71.7073 40.528 71.2806 40.752C70.8646 40.9653 70.4913 41.3653 70.1606 41.952C69.8406 42.5387 69.5793 43.3493 69.3766 44.384C69.1846 45.408 69.0886 46.7253 69.0886 48.336C69.0886 49.9573 69.1846 51.28 69.3766 52.304C69.5793 53.328 69.8406 54.1387 70.1606 54.736C70.4913 55.3227 70.8646 55.728 71.2806 55.952C71.7073 56.1653 72.1393 56.272 72.5766 56.272C73.0139 56.272 73.4459 56.1653 73.8726 55.952C74.2993 55.728 74.6779 55.3227 75.0086 54.736C75.3499 54.1387 75.6219 53.328 75.8246 52.304C76.0273 51.28 76.1286 49.9573 76.1286 48.336Z"
            fill="#699EDC" />
        <path
            d="M10.0002 60.0001C10.0002 49.4411 13.3429 39.1532 19.5493 30.6108C25.7557 22.0684 34.5071 15.7102 44.5493 12.4473"
            stroke="url(#paint0_linear_2825_20797)" stroke-width="10" stroke-linecap="round" />
        <circle cx="44.5005" cy="12.5" r="2.5" fill="white" />
        <path d="M48.4646 19L54.4646 22.4641L48.4646 25.9282L48.4646 19Z" fill="#699EDC" />
    </g>
    <defs>
        <linearGradient id="paint0_linear_2825_20797" x1="27.2747" y1="12.4473" x2="27.2747" y2="60.0001"
            gradientUnits="userSpaceOnUse">
            <stop stop-color="#699EDC" />
            <stop offset="1" stop-color="#EFF7FF" />
        </linearGradient>
        <clipPath id="clip0_2825_20797">
            <rect width="120" height="66" fill="white" />
        </clipPath>
    </defs>
</svg>