<svg xmlns="http://www.w3.org/2000/svg" width="24" height="25" viewBox="0 0 24 25" fill="none">
  <path d="M16 13.5L21.223 16.982C21.2983 17.0321 21.3858 17.0608 21.4761 17.0652C21.5664 17.0695 21.6563 17.0492 21.736 17.0065C21.8157 16.9639 21.8824 16.9003 21.9289 16.8228C21.9754 16.7452 22 16.6564 22 16.566V8.37C22 8.28202 21.9768 8.1956 21.9328 8.11945C21.8887 8.0433 21.8253 7.98012 21.7491 7.9363C21.6728 7.89248 21.5863 7.86956 21.4983 7.86985C21.4103 7.87015 21.324 7.89366 21.248 7.938L16 11M4 6.5H14C15.1046 6.5 16 7.39543 16 8.5V16.5C16 17.6046 15.1046 18.5 14 18.5H4C2.89543 18.5 2 17.6046 2 16.5V8.5C2 7.39543 2.89543 6.5 4 6.5Z" stroke="#1E1E1E" stroke-width="2" stroke-linecap="round" stroke-linejoin="round"/>
</svg>